<?xml version="1.0" encoding="utf-8"?>
<svg xmlns="http://www.w3.org/2000/svg" xmlns:xlink="http://www.w3.org/1999/xlink" width="600" height="400" viewBox="0 0 2400 1600">
<defs>
  <clipPath id="clip320">
    <rect x="0" y="0" width="2400" height="1600"/>
  </clipPath>
</defs>
<path clip-path="url(#clip320)" d="
M0 1600 L2400 1600 L2400 0 L0 0  Z
  " fill="#ffffff" fill-rule="evenodd" fill-opacity="1"/>
<defs>
  <clipPath id="clip321">
    <rect x="480" y="0" width="1681" height="1600"/>
  </clipPath>
</defs>
<path clip-path="url(#clip320)" d="
M286.139 853.304 L2352.76 853.304 L2352.76 617.12 L286.139 617.12  Z
  " fill="#ffffff" fill-rule="evenodd" fill-opacity="1"/>
<defs>
  <clipPath id="clip322">
    <rect x="286" y="617" width="2068" height="237"/>
  </clipPath>
</defs>
<polyline clip-path="url(#clip320)" style="stroke:#000000; stroke-linecap:butt; stroke-linejoin:round; stroke-width:4; stroke-opacity:1; fill:none" points="
  286.139,853.304 2352.76,853.304 
  "/>
<polyline clip-path="url(#clip320)" style="stroke:#000000; stroke-linecap:butt; stroke-linejoin:round; stroke-width:4; stroke-opacity:1; fill:none" points="
  483.888,853.304 483.888,850.061 
  "/>
<polyline clip-path="url(#clip320)" style="stroke:#000000; stroke-linecap:butt; stroke-linejoin:round; stroke-width:4; stroke-opacity:1; fill:none" points="
  762.408,853.304 762.408,850.061 
  "/>
<polyline clip-path="url(#clip320)" style="stroke:#000000; stroke-linecap:butt; stroke-linejoin:round; stroke-width:4; stroke-opacity:1; fill:none" points="
  1040.93,853.304 1040.93,850.061 
  "/>
<polyline clip-path="url(#clip320)" style="stroke:#000000; stroke-linecap:butt; stroke-linejoin:round; stroke-width:4; stroke-opacity:1; fill:none" points="
  1319.45,853.304 1319.45,850.061 
  "/>
<polyline clip-path="url(#clip320)" style="stroke:#000000; stroke-linecap:butt; stroke-linejoin:round; stroke-width:4; stroke-opacity:1; fill:none" points="
  1597.97,853.304 1597.97,850.061 
  "/>
<polyline clip-path="url(#clip320)" style="stroke:#000000; stroke-linecap:butt; stroke-linejoin:round; stroke-width:4; stroke-opacity:1; fill:none" points="
  1876.49,853.304 1876.49,850.061 
  "/>
<polyline clip-path="url(#clip320)" style="stroke:#000000; stroke-linecap:butt; stroke-linejoin:round; stroke-width:4; stroke-opacity:1; fill:none" points="
  2155.01,853.304 2155.01,850.061 
  "/>
<path clip-path="url(#clip320)" d="M415.833 898.876 L445.509 898.876 L445.509 902.811 L415.833 902.811 L415.833 898.876 Z" fill="#000000" fill-rule="evenodd" fill-opacity="1" /><path clip-path="url(#clip320)" d="M465.601 884.223 Q461.99 884.223 460.161 887.788 Q458.356 891.329 458.356 898.459 Q458.356 905.566 460.161 909.13 Q461.99 912.672 465.601 912.672 Q469.235 912.672 471.041 909.13 Q472.87 905.566 472.87 898.459 Q472.87 891.329 471.041 887.788 Q469.235 884.223 465.601 884.223 M465.601 880.519 Q471.411 880.519 474.467 885.126 Q477.546 889.709 477.546 898.459 Q477.546 907.186 474.467 911.792 Q471.411 916.376 465.601 916.376 Q459.791 916.376 456.712 911.792 Q453.657 907.186 453.657 898.459 Q453.657 889.709 456.712 885.126 Q459.791 880.519 465.601 880.519 Z" fill="#000000" fill-rule="evenodd" fill-opacity="1" /><path clip-path="url(#clip320)" d="M485.763 909.825 L490.647 909.825 L490.647 915.704 L485.763 915.704 L485.763 909.825 Z" fill="#000000" fill-rule="evenodd" fill-opacity="1" /><path clip-path="url(#clip320)" d="M514.999 897.07 Q518.356 897.788 520.231 900.056 Q522.129 902.325 522.129 905.658 Q522.129 910.774 518.61 913.575 Q515.092 916.376 508.61 916.376 Q506.434 916.376 504.119 915.936 Q501.828 915.519 499.374 914.663 L499.374 910.149 Q501.319 911.283 503.633 911.862 Q505.948 912.44 508.471 912.44 Q512.869 912.44 515.161 910.704 Q517.476 908.968 517.476 905.658 Q517.476 902.603 515.323 900.89 Q513.194 899.154 509.374 899.154 L505.346 899.154 L505.346 895.311 L509.559 895.311 Q513.008 895.311 514.837 893.945 Q516.666 892.556 516.666 889.964 Q516.666 887.302 514.768 885.89 Q512.893 884.455 509.374 884.455 Q507.453 884.455 505.254 884.871 Q503.055 885.288 500.416 886.167 L500.416 882.001 Q503.078 881.26 505.393 880.89 Q507.731 880.519 509.791 880.519 Q515.115 880.519 518.217 882.95 Q521.318 885.357 521.318 889.478 Q521.318 892.348 519.675 894.339 Q518.031 896.306 514.999 897.07 Z" fill="#000000" fill-rule="evenodd" fill-opacity="1" /><path clip-path="url(#clip320)" d="M531.041 881.144 L549.397 881.144 L549.397 885.08 L535.323 885.08 L535.323 893.552 Q536.342 893.204 537.36 893.042 Q538.379 892.857 539.397 892.857 Q545.184 892.857 548.564 896.029 Q551.943 899.2 551.943 904.616 Q551.943 910.195 548.471 913.297 Q544.999 916.376 538.679 916.376 Q536.504 916.376 534.235 916.005 Q531.99 915.635 529.582 914.894 L529.582 910.195 Q531.666 911.329 533.888 911.885 Q536.11 912.44 538.587 912.44 Q542.591 912.44 544.929 910.334 Q547.267 908.228 547.267 904.616 Q547.267 901.005 544.929 898.899 Q542.591 896.792 538.587 896.792 Q536.712 896.792 534.837 897.209 Q532.985 897.626 531.041 898.505 L531.041 881.144 Z" fill="#000000" fill-rule="evenodd" fill-opacity="1" /><path clip-path="url(#clip320)" d="M693.855 898.876 L723.531 898.876 L723.531 902.811 L693.855 902.811 L693.855 898.876 Z" fill="#000000" fill-rule="evenodd" fill-opacity="1" /><path clip-path="url(#clip320)" d="M743.623 884.223 Q740.012 884.223 738.183 887.788 Q736.378 891.329 736.378 898.459 Q736.378 905.566 738.183 909.13 Q740.012 912.672 743.623 912.672 Q747.258 912.672 749.063 909.13 Q750.892 905.566 750.892 898.459 Q750.892 891.329 749.063 887.788 Q747.258 884.223 743.623 884.223 M743.623 880.519 Q749.433 880.519 752.489 885.126 Q755.568 889.709 755.568 898.459 Q755.568 907.186 752.489 911.792 Q749.433 916.376 743.623 916.376 Q737.813 916.376 734.734 911.792 Q731.679 907.186 731.679 898.459 Q731.679 889.709 734.734 885.126 Q737.813 880.519 743.623 880.519 Z" fill="#000000" fill-rule="evenodd" fill-opacity="1" /><path clip-path="url(#clip320)" d="M763.785 909.825 L768.669 909.825 L768.669 915.704 L763.785 915.704 L763.785 909.825 Z" fill="#000000" fill-rule="evenodd" fill-opacity="1" /><path clip-path="url(#clip320)" d="M793.021 897.07 Q796.378 897.788 798.253 900.056 Q800.151 902.325 800.151 905.658 Q800.151 910.774 796.632 913.575 Q793.114 916.376 786.632 916.376 Q784.456 916.376 782.142 915.936 Q779.85 915.519 777.396 914.663 L777.396 910.149 Q779.341 911.283 781.655 911.862 Q783.97 912.44 786.493 912.44 Q790.892 912.44 793.183 910.704 Q795.498 908.968 795.498 905.658 Q795.498 902.603 793.345 900.89 Q791.216 899.154 787.396 899.154 L783.368 899.154 L783.368 895.311 L787.581 895.311 Q791.03 895.311 792.859 893.945 Q794.688 892.556 794.688 889.964 Q794.688 887.302 792.79 885.89 Q790.915 884.455 787.396 884.455 Q785.475 884.455 783.276 884.871 Q781.077 885.288 778.438 886.167 L778.438 882.001 Q781.1 881.26 783.415 880.89 Q785.753 880.519 787.813 880.519 Q793.137 880.519 796.239 882.95 Q799.341 885.357 799.341 889.478 Q799.341 892.348 797.697 894.339 Q796.054 896.306 793.021 897.07 Z" fill="#000000" fill-rule="evenodd" fill-opacity="1" /><path clip-path="url(#clip320)" d="M819.016 884.223 Q815.405 884.223 813.577 887.788 Q811.771 891.329 811.771 898.459 Q811.771 905.566 813.577 909.13 Q815.405 912.672 819.016 912.672 Q822.651 912.672 824.456 909.13 Q826.285 905.566 826.285 898.459 Q826.285 891.329 824.456 887.788 Q822.651 884.223 819.016 884.223 M819.016 880.519 Q824.827 880.519 827.882 885.126 Q830.961 889.709 830.961 898.459 Q830.961 907.186 827.882 911.792 Q824.827 916.376 819.016 916.376 Q813.206 916.376 810.128 911.792 Q807.072 907.186 807.072 898.459 Q807.072 889.709 810.128 885.126 Q813.206 880.519 819.016 880.519 Z" fill="#000000" fill-rule="evenodd" fill-opacity="1" /><path clip-path="url(#clip320)" d="M972.873 898.876 L1002.55 898.876 L1002.55 902.811 L972.873 902.811 L972.873 898.876 Z" fill="#000000" fill-rule="evenodd" fill-opacity="1" /><path clip-path="url(#clip320)" d="M1022.64 884.223 Q1019.03 884.223 1017.2 887.788 Q1015.4 891.329 1015.4 898.459 Q1015.4 905.566 1017.2 909.13 Q1019.03 912.672 1022.64 912.672 Q1026.27 912.672 1028.08 909.13 Q1029.91 905.566 1029.91 898.459 Q1029.91 891.329 1028.08 887.788 Q1026.27 884.223 1022.64 884.223 M1022.64 880.519 Q1028.45 880.519 1031.51 885.126 Q1034.59 889.709 1034.59 898.459 Q1034.59 907.186 1031.51 911.792 Q1028.45 916.376 1022.64 916.376 Q1016.83 916.376 1013.75 911.792 Q1010.7 907.186 1010.7 898.459 Q1010.7 889.709 1013.75 885.126 Q1016.83 880.519 1022.64 880.519 Z" fill="#000000" fill-rule="evenodd" fill-opacity="1" /><path clip-path="url(#clip320)" d="M1042.8 909.825 L1047.69 909.825 L1047.69 915.704 L1042.8 915.704 L1042.8 909.825 Z" fill="#000000" fill-rule="evenodd" fill-opacity="1" /><path clip-path="url(#clip320)" d="M1061.9 911.769 L1078.22 911.769 L1078.22 915.704 L1056.27 915.704 L1056.27 911.769 Q1058.94 909.015 1063.52 904.385 Q1068.13 899.732 1069.31 898.39 Q1071.55 895.867 1072.43 894.13 Q1073.33 892.371 1073.33 890.681 Q1073.33 887.927 1071.39 886.191 Q1069.47 884.455 1066.37 884.455 Q1064.17 884.455 1061.71 885.218 Q1059.28 885.982 1056.51 887.533 L1056.51 882.811 Q1059.33 881.677 1061.78 881.098 Q1064.24 880.519 1066.27 880.519 Q1071.65 880.519 1074.84 883.205 Q1078.03 885.89 1078.03 890.38 Q1078.03 892.51 1077.22 894.431 Q1076.44 896.329 1074.33 898.922 Q1073.75 899.593 1070.65 902.811 Q1067.55 906.005 1061.9 911.769 Z" fill="#000000" fill-rule="evenodd" fill-opacity="1" /><path clip-path="url(#clip320)" d="M1088.08 881.144 L1106.44 881.144 L1106.44 885.08 L1092.36 885.08 L1092.36 893.552 Q1093.38 893.204 1094.4 893.042 Q1095.42 892.857 1096.44 892.857 Q1102.22 892.857 1105.6 896.029 Q1108.98 899.2 1108.98 904.616 Q1108.98 910.195 1105.51 913.297 Q1102.04 916.376 1095.72 916.376 Q1093.54 916.376 1091.27 916.005 Q1089.03 915.635 1086.62 914.894 L1086.62 910.195 Q1088.71 911.329 1090.93 911.885 Q1093.15 912.44 1095.63 912.44 Q1099.63 912.44 1101.97 910.334 Q1104.31 908.228 1104.31 904.616 Q1104.31 901.005 1101.97 898.899 Q1099.63 896.792 1095.63 896.792 Q1093.75 896.792 1091.88 897.209 Q1090.02 897.626 1088.08 898.505 L1088.08 881.144 Z" fill="#000000" fill-rule="evenodd" fill-opacity="1" /><path clip-path="url(#clip320)" d="M1250.89 898.876 L1280.57 898.876 L1280.57 902.811 L1250.89 902.811 L1250.89 898.876 Z" fill="#000000" fill-rule="evenodd" fill-opacity="1" /><path clip-path="url(#clip320)" d="M1300.66 884.223 Q1297.05 884.223 1295.22 887.788 Q1293.42 891.329 1293.42 898.459 Q1293.42 905.566 1295.22 909.13 Q1297.05 912.672 1300.66 912.672 Q1304.3 912.672 1306.1 909.13 Q1307.93 905.566 1307.93 898.459 Q1307.93 891.329 1306.1 887.788 Q1304.3 884.223 1300.66 884.223 M1300.66 880.519 Q1306.47 880.519 1309.53 885.126 Q1312.61 889.709 1312.61 898.459 Q1312.61 907.186 1309.53 911.792 Q1306.47 916.376 1300.66 916.376 Q1294.85 916.376 1291.77 911.792 Q1288.72 907.186 1288.72 898.459 Q1288.72 889.709 1291.77 885.126 Q1294.85 880.519 1300.66 880.519 Z" fill="#000000" fill-rule="evenodd" fill-opacity="1" /><path clip-path="url(#clip320)" d="M1320.82 909.825 L1325.71 909.825 L1325.71 915.704 L1320.82 915.704 L1320.82 909.825 Z" fill="#000000" fill-rule="evenodd" fill-opacity="1" /><path clip-path="url(#clip320)" d="M1339.92 911.769 L1356.24 911.769 L1356.24 915.704 L1334.3 915.704 L1334.3 911.769 Q1336.96 909.015 1341.54 904.385 Q1346.15 899.732 1347.33 898.39 Q1349.57 895.867 1350.45 894.13 Q1351.36 892.371 1351.36 890.681 Q1351.36 887.927 1349.41 886.191 Q1347.49 884.455 1344.39 884.455 Q1342.19 884.455 1339.74 885.218 Q1337.31 885.982 1334.53 887.533 L1334.53 882.811 Q1337.35 881.677 1339.81 881.098 Q1342.26 880.519 1344.3 880.519 Q1349.67 880.519 1352.86 883.205 Q1356.06 885.89 1356.06 890.38 Q1356.06 892.51 1355.25 894.431 Q1354.46 896.329 1352.35 898.922 Q1351.77 899.593 1348.67 902.811 Q1345.57 906.005 1339.92 911.769 Z" fill="#000000" fill-rule="evenodd" fill-opacity="1" /><path clip-path="url(#clip320)" d="M1376.06 884.223 Q1372.44 884.223 1370.62 887.788 Q1368.81 891.329 1368.81 898.459 Q1368.81 905.566 1370.62 909.13 Q1372.44 912.672 1376.06 912.672 Q1379.69 912.672 1381.5 909.13 Q1383.32 905.566 1383.32 898.459 Q1383.32 891.329 1381.5 887.788 Q1379.69 884.223 1376.06 884.223 M1376.06 880.519 Q1381.87 880.519 1384.92 885.126 Q1388 889.709 1388 898.459 Q1388 907.186 1384.92 911.792 Q1381.87 916.376 1376.06 916.376 Q1370.25 916.376 1367.17 911.792 Q1364.11 907.186 1364.11 898.459 Q1364.11 889.709 1367.17 885.126 Q1370.25 880.519 1376.06 880.519 Z" fill="#000000" fill-rule="evenodd" fill-opacity="1" /><path clip-path="url(#clip320)" d="M1529.91 898.876 L1559.59 898.876 L1559.59 902.811 L1529.91 902.811 L1529.91 898.876 Z" fill="#000000" fill-rule="evenodd" fill-opacity="1" /><path clip-path="url(#clip320)" d="M1579.68 884.223 Q1576.07 884.223 1574.24 887.788 Q1572.44 891.329 1572.44 898.459 Q1572.44 905.566 1574.24 909.13 Q1576.07 912.672 1579.68 912.672 Q1583.31 912.672 1585.12 909.13 Q1586.95 905.566 1586.95 898.459 Q1586.95 891.329 1585.12 887.788 Q1583.31 884.223 1579.68 884.223 M1579.68 880.519 Q1585.49 880.519 1588.55 885.126 Q1591.62 889.709 1591.62 898.459 Q1591.62 907.186 1588.55 911.792 Q1585.49 916.376 1579.68 916.376 Q1573.87 916.376 1570.79 911.792 Q1567.74 907.186 1567.74 898.459 Q1567.74 889.709 1570.79 885.126 Q1573.87 880.519 1579.68 880.519 Z" fill="#000000" fill-rule="evenodd" fill-opacity="1" /><path clip-path="url(#clip320)" d="M1599.84 909.825 L1604.73 909.825 L1604.73 915.704 L1599.84 915.704 L1599.84 909.825 Z" fill="#000000" fill-rule="evenodd" fill-opacity="1" /><path clip-path="url(#clip320)" d="M1615.72 911.769 L1623.36 911.769 L1623.36 885.404 L1615.05 887.07 L1615.05 882.811 L1623.31 881.144 L1627.99 881.144 L1627.99 911.769 L1635.63 911.769 L1635.63 915.704 L1615.72 915.704 L1615.72 911.769 Z" fill="#000000" fill-rule="evenodd" fill-opacity="1" /><path clip-path="url(#clip320)" d="M1645.12 881.144 L1663.48 881.144 L1663.48 885.08 L1649.4 885.08 L1649.4 893.552 Q1650.42 893.204 1651.44 893.042 Q1652.46 892.857 1653.48 892.857 Q1659.26 892.857 1662.64 896.029 Q1666.02 899.2 1666.02 904.616 Q1666.02 910.195 1662.55 913.297 Q1659.08 916.376 1652.76 916.376 Q1650.58 916.376 1648.31 916.005 Q1646.07 915.635 1643.66 914.894 L1643.66 910.195 Q1645.74 911.329 1647.97 911.885 Q1650.19 912.44 1652.67 912.44 Q1656.67 912.44 1659.01 910.334 Q1661.35 908.228 1661.35 904.616 Q1661.35 901.005 1659.01 898.899 Q1656.67 896.792 1652.67 896.792 Q1650.79 896.792 1648.92 897.209 Q1647.06 897.626 1645.12 898.505 L1645.12 881.144 Z" fill="#000000" fill-rule="evenodd" fill-opacity="1" /><path clip-path="url(#clip320)" d="M1807.93 898.876 L1837.61 898.876 L1837.61 902.811 L1807.93 902.811 L1807.93 898.876 Z" fill="#000000" fill-rule="evenodd" fill-opacity="1" /><path clip-path="url(#clip320)" d="M1857.7 884.223 Q1854.09 884.223 1852.26 887.788 Q1850.46 891.329 1850.46 898.459 Q1850.46 905.566 1852.26 909.13 Q1854.09 912.672 1857.7 912.672 Q1861.34 912.672 1863.14 909.13 Q1864.97 905.566 1864.97 898.459 Q1864.97 891.329 1863.14 887.788 Q1861.34 884.223 1857.7 884.223 M1857.7 880.519 Q1863.51 880.519 1866.57 885.126 Q1869.65 889.709 1869.65 898.459 Q1869.65 907.186 1866.57 911.792 Q1863.51 916.376 1857.7 916.376 Q1851.89 916.376 1848.81 911.792 Q1845.76 907.186 1845.76 898.459 Q1845.76 889.709 1848.81 885.126 Q1851.89 880.519 1857.7 880.519 Z" fill="#000000" fill-rule="evenodd" fill-opacity="1" /><path clip-path="url(#clip320)" d="M1877.86 909.825 L1882.75 909.825 L1882.75 915.704 L1877.86 915.704 L1877.86 909.825 Z" fill="#000000" fill-rule="evenodd" fill-opacity="1" /><path clip-path="url(#clip320)" d="M1893.74 911.769 L1901.38 911.769 L1901.38 885.404 L1893.07 887.07 L1893.07 882.811 L1901.34 881.144 L1906.01 881.144 L1906.01 911.769 L1913.65 911.769 L1913.65 915.704 L1893.74 915.704 L1893.74 911.769 Z" fill="#000000" fill-rule="evenodd" fill-opacity="1" /><path clip-path="url(#clip320)" d="M1933.1 884.223 Q1929.48 884.223 1927.66 887.788 Q1925.85 891.329 1925.85 898.459 Q1925.85 905.566 1927.66 909.13 Q1929.48 912.672 1933.1 912.672 Q1936.73 912.672 1938.54 909.13 Q1940.36 905.566 1940.36 898.459 Q1940.36 891.329 1938.54 887.788 Q1936.73 884.223 1933.1 884.223 M1933.1 880.519 Q1938.91 880.519 1941.96 885.126 Q1945.04 889.709 1945.04 898.459 Q1945.04 907.186 1941.96 911.792 Q1938.91 916.376 1933.1 916.376 Q1927.29 916.376 1924.21 911.792 Q1921.15 907.186 1921.15 898.459 Q1921.15 889.709 1924.21 885.126 Q1927.29 880.519 1933.1 880.519 Z" fill="#000000" fill-rule="evenodd" fill-opacity="1" /><path clip-path="url(#clip320)" d="M2086.95 898.876 L2116.63 898.876 L2116.63 902.811 L2086.95 902.811 L2086.95 898.876 Z" fill="#000000" fill-rule="evenodd" fill-opacity="1" /><path clip-path="url(#clip320)" d="M2136.72 884.223 Q2133.11 884.223 2131.28 887.788 Q2129.47 891.329 2129.47 898.459 Q2129.47 905.566 2131.28 909.13 Q2133.11 912.672 2136.72 912.672 Q2140.35 912.672 2142.16 909.13 Q2143.99 905.566 2143.99 898.459 Q2143.99 891.329 2142.16 887.788 Q2140.35 884.223 2136.72 884.223 M2136.72 880.519 Q2142.53 880.519 2145.59 885.126 Q2148.66 889.709 2148.66 898.459 Q2148.66 907.186 2145.59 911.792 Q2142.53 916.376 2136.72 916.376 Q2130.91 916.376 2127.83 911.792 Q2124.78 907.186 2124.78 898.459 Q2124.78 889.709 2127.83 885.126 Q2130.91 880.519 2136.72 880.519 Z" fill="#000000" fill-rule="evenodd" fill-opacity="1" /><path clip-path="url(#clip320)" d="M2156.88 909.825 L2161.77 909.825 L2161.77 915.704 L2156.88 915.704 L2156.88 909.825 Z" fill="#000000" fill-rule="evenodd" fill-opacity="1" /><path clip-path="url(#clip320)" d="M2181.95 884.223 Q2178.34 884.223 2176.51 887.788 Q2174.71 891.329 2174.71 898.459 Q2174.71 905.566 2176.51 909.13 Q2178.34 912.672 2181.95 912.672 Q2185.59 912.672 2187.39 909.13 Q2189.22 905.566 2189.22 898.459 Q2189.22 891.329 2187.39 887.788 Q2185.59 884.223 2181.95 884.223 M2181.95 880.519 Q2187.76 880.519 2190.82 885.126 Q2193.9 889.709 2193.9 898.459 Q2193.9 907.186 2190.82 911.792 Q2187.76 916.376 2181.95 916.376 Q2176.14 916.376 2173.06 911.792 Q2170.01 907.186 2170.01 898.459 Q2170.01 889.709 2173.06 885.126 Q2176.14 880.519 2181.95 880.519 Z" fill="#000000" fill-rule="evenodd" fill-opacity="1" /><path clip-path="url(#clip320)" d="M2202.16 881.144 L2220.52 881.144 L2220.52 885.08 L2206.44 885.08 L2206.44 893.552 Q2207.46 893.204 2208.48 893.042 Q2209.5 892.857 2210.52 892.857 Q2216.3 892.857 2219.68 896.029 Q2223.06 899.2 2223.06 904.616 Q2223.06 910.195 2219.59 913.297 Q2216.12 916.376 2209.8 916.376 Q2207.62 916.376 2205.35 916.005 Q2203.11 915.635 2200.7 914.894 L2200.7 910.195 Q2202.78 911.329 2205.01 911.885 Q2207.23 912.44 2209.71 912.44 Q2213.71 912.44 2216.05 910.334 Q2218.39 908.228 2218.39 904.616 Q2218.39 901.005 2216.05 898.899 Q2213.71 896.792 2209.71 896.792 Q2207.83 896.792 2205.96 897.209 Q2204.1 897.626 2202.16 898.505 L2202.16 881.144 Z" fill="#000000" fill-rule="evenodd" fill-opacity="1" /><path clip-path="url(#clip320)" d="M1262.03 975.888 Q1264.1 976.589 1266.04 978.88 Q1268.01 981.172 1269.99 985.182 L1276.51 998.168 L1269.6 998.168 L1263.52 985.978 Q1261.17 981.204 1258.94 979.644 Q1256.75 978.085 1252.93 978.085 L1245.92 978.085 L1245.92 998.168 L1239.49 998.168 L1239.49 950.648 L1254.01 950.648 Q1262.16 950.648 1266.17 954.054 Q1270.18 957.46 1270.18 964.335 Q1270.18 968.822 1268.08 971.783 Q1266.01 974.743 1262.03 975.888 M1245.92 955.932 L1245.92 972.801 L1254.01 972.801 Q1258.65 972.801 1261.01 970.669 Q1263.4 968.504 1263.4 964.335 Q1263.4 960.165 1261.01 958.064 Q1258.65 955.932 1254.01 955.932 L1245.92 955.932 Z" fill="#000000" fill-rule="evenodd" fill-opacity="1" /><path clip-path="url(#clip320)" d="M1312.1 978.88 L1312.1 981.745 L1285.17 981.745 Q1285.55 987.792 1288.8 990.975 Q1292.07 994.126 1297.9 994.126 Q1301.27 994.126 1304.42 993.299 Q1307.61 992.471 1310.73 990.816 L1310.73 996.354 Q1307.58 997.691 1304.27 998.391 Q1300.96 999.091 1297.55 999.091 Q1289.02 999.091 1284.02 994.126 Q1279.06 989.161 1279.06 980.694 Q1279.06 971.942 1283.77 966.817 Q1288.51 961.661 1296.53 961.661 Q1303.72 961.661 1307.89 966.308 Q1312.1 970.923 1312.1 978.88 M1306.24 977.162 Q1306.17 972.355 1303.53 969.491 Q1300.92 966.626 1296.59 966.626 Q1291.69 966.626 1288.73 969.395 Q1285.8 972.164 1285.36 977.193 L1306.24 977.162 Z" fill="#000000" fill-rule="evenodd" fill-opacity="1" /><path clip-path="url(#clip320)" d="M1335.78 948.707 Q1331.51 956.027 1329.44 963.189 Q1327.37 970.35 1327.37 977.703 Q1327.37 985.055 1329.44 992.28 Q1331.54 999.473 1335.78 1006.76 L1330.68 1006.76 Q1325.91 999.282 1323.52 992.057 Q1321.17 984.832 1321.17 977.703 Q1321.17 970.605 1323.52 963.412 Q1325.88 956.218 1330.68 948.707 L1335.78 948.707 Z" fill="#000000" fill-rule="evenodd" fill-opacity="1" /><path clip-path="url(#clip320)" d="M1376.77 962.52 L1363.88 979.867 L1377.44 998.168 L1370.53 998.168 L1360.16 984.164 L1349.78 998.168 L1342.87 998.168 L1356.72 979.517 L1344.05 962.52 L1350.96 962.52 L1360.41 975.22 L1369.86 962.52 L1376.77 962.52 Z" fill="#000000" fill-rule="evenodd" fill-opacity="1" /><path clip-path="url(#clip320)" d="M1384.79 948.707 L1389.88 948.707 Q1394.66 956.218 1397.01 963.412 Q1399.4 970.605 1399.4 977.703 Q1399.4 984.832 1397.01 992.057 Q1394.66 999.282 1389.88 1006.76 L1384.79 1006.76 Q1389.02 999.473 1391.09 992.28 Q1393.19 985.055 1393.19 977.703 Q1393.19 970.35 1391.09 963.189 Q1389.02 956.027 1384.79 948.707 Z" fill="#000000" fill-rule="evenodd" fill-opacity="1" /><polyline clip-path="url(#clip320)" style="stroke:#000000; stroke-linecap:butt; stroke-linejoin:round; stroke-width:4; stroke-opacity:1; fill:none" points="
  286.139,853.304 286.139,617.12 
  "/>
<polyline clip-path="url(#clip320)" style="stroke:#000000; stroke-linecap:butt; stroke-linejoin:round; stroke-width:4; stroke-opacity:1; fill:none" points="
  286.139,846.62 305.037,846.62 
  "/>
<polyline clip-path="url(#clip320)" style="stroke:#000000; stroke-linecap:butt; stroke-linejoin:round; stroke-width:4; stroke-opacity:1; fill:none" points="
  286.139,790.916 305.037,790.916 
  "/>
<polyline clip-path="url(#clip320)" style="stroke:#000000; stroke-linecap:butt; stroke-linejoin:round; stroke-width:4; stroke-opacity:1; fill:none" points="
  286.139,735.212 305.037,735.212 
  "/>
<polyline clip-path="url(#clip320)" style="stroke:#000000; stroke-linecap:butt; stroke-linejoin:round; stroke-width:4; stroke-opacity:1; fill:none" points="
  286.139,679.508 305.037,679.508 
  "/>
<polyline clip-path="url(#clip320)" style="stroke:#000000; stroke-linecap:butt; stroke-linejoin:round; stroke-width:4; stroke-opacity:1; fill:none" points="
  286.139,623.804 305.037,623.804 
  "/>
<path clip-path="url(#clip320)" d="M114.631 847.071 L144.306 847.071 L144.306 851.006 L114.631 851.006 L114.631 847.071 Z" fill="#000000" fill-rule="evenodd" fill-opacity="1" /><path clip-path="url(#clip320)" d="M164.399 832.419 Q160.788 832.419 158.959 835.983 Q157.153 839.525 157.153 846.655 Q157.153 853.761 158.959 857.326 Q160.788 860.867 164.399 860.867 Q168.033 860.867 169.839 857.326 Q171.667 853.761 171.667 846.655 Q171.667 839.525 169.839 835.983 Q168.033 832.419 164.399 832.419 M164.399 828.715 Q170.209 828.715 173.264 833.321 Q176.343 837.905 176.343 846.655 Q176.343 855.381 173.264 859.988 Q170.209 864.571 164.399 864.571 Q158.589 864.571 155.51 859.988 Q152.454 855.381 152.454 846.655 Q152.454 837.905 155.51 833.321 Q158.589 828.715 164.399 828.715 Z" fill="#000000" fill-rule="evenodd" fill-opacity="1" /><path clip-path="url(#clip320)" d="M184.561 858.02 L189.445 858.02 L189.445 863.9 L184.561 863.9 L184.561 858.02 Z" fill="#000000" fill-rule="evenodd" fill-opacity="1" /><path clip-path="url(#clip320)" d="M209.63 832.419 Q206.019 832.419 204.19 835.983 Q202.385 839.525 202.385 846.655 Q202.385 853.761 204.19 857.326 Q206.019 860.867 209.63 860.867 Q213.264 860.867 215.07 857.326 Q216.898 853.761 216.898 846.655 Q216.898 839.525 215.07 835.983 Q213.264 832.419 209.63 832.419 M209.63 828.715 Q215.44 828.715 218.496 833.321 Q221.574 837.905 221.574 846.655 Q221.574 855.381 218.496 859.988 Q215.44 864.571 209.63 864.571 Q203.82 864.571 200.741 859.988 Q197.686 855.381 197.686 846.655 Q197.686 837.905 200.741 833.321 Q203.82 828.715 209.63 828.715 Z" fill="#000000" fill-rule="evenodd" fill-opacity="1" /><path clip-path="url(#clip320)" d="M233.82 859.965 L250.139 859.965 L250.139 863.9 L228.195 863.9 L228.195 859.965 Q230.857 857.21 235.44 852.581 Q240.047 847.928 241.227 846.585 Q243.472 844.062 244.352 842.326 Q245.255 840.567 245.255 838.877 Q245.255 836.122 243.31 834.386 Q241.389 832.65 238.287 832.65 Q236.088 832.65 233.635 833.414 Q231.204 834.178 228.426 835.729 L228.426 831.007 Q231.25 829.872 233.704 829.294 Q236.158 828.715 238.195 828.715 Q243.565 828.715 246.759 831.4 Q249.954 834.085 249.954 838.576 Q249.954 840.706 249.144 842.627 Q248.357 844.525 246.25 847.118 Q245.671 847.789 242.57 851.006 Q239.468 854.201 233.82 859.965 Z" fill="#000000" fill-rule="evenodd" fill-opacity="1" /><path clip-path="url(#clip320)" d="M114.26 791.367 L143.936 791.367 L143.936 795.302 L114.26 795.302 L114.26 791.367 Z" fill="#000000" fill-rule="evenodd" fill-opacity="1" /><path clip-path="url(#clip320)" d="M164.028 776.715 Q160.417 776.715 158.589 780.279 Q156.783 783.821 156.783 790.951 Q156.783 798.057 158.589 801.622 Q160.417 805.164 164.028 805.164 Q167.663 805.164 169.468 801.622 Q171.297 798.057 171.297 790.951 Q171.297 783.821 169.468 780.279 Q167.663 776.715 164.028 776.715 M164.028 773.011 Q169.839 773.011 172.894 777.617 Q175.973 782.201 175.973 790.951 Q175.973 799.677 172.894 804.284 Q169.839 808.867 164.028 808.867 Q158.218 808.867 155.14 804.284 Q152.084 799.677 152.084 790.951 Q152.084 782.201 155.14 777.617 Q158.218 773.011 164.028 773.011 Z" fill="#000000" fill-rule="evenodd" fill-opacity="1" /><path clip-path="url(#clip320)" d="M184.19 802.316 L189.075 802.316 L189.075 808.196 L184.19 808.196 L184.19 802.316 Z" fill="#000000" fill-rule="evenodd" fill-opacity="1" /><path clip-path="url(#clip320)" d="M209.26 776.715 Q205.649 776.715 203.82 780.279 Q202.014 783.821 202.014 790.951 Q202.014 798.057 203.82 801.622 Q205.649 805.164 209.26 805.164 Q212.894 805.164 214.699 801.622 Q216.528 798.057 216.528 790.951 Q216.528 783.821 214.699 780.279 Q212.894 776.715 209.26 776.715 M209.26 773.011 Q215.07 773.011 218.125 777.617 Q221.204 782.201 221.204 790.951 Q221.204 799.677 218.125 804.284 Q215.07 808.867 209.26 808.867 Q203.449 808.867 200.371 804.284 Q197.315 799.677 197.315 790.951 Q197.315 782.201 200.371 777.617 Q203.449 773.011 209.26 773.011 Z" fill="#000000" fill-rule="evenodd" fill-opacity="1" /><path clip-path="url(#clip320)" d="M230.232 804.261 L237.871 804.261 L237.871 777.895 L229.56 779.562 L229.56 775.303 L237.824 773.636 L242.5 773.636 L242.5 804.261 L250.139 804.261 L250.139 808.196 L230.232 808.196 L230.232 804.261 Z" fill="#000000" fill-rule="evenodd" fill-opacity="1" /><path clip-path="url(#clip320)" d="M162.802 721.011 Q159.19 721.011 157.362 724.575 Q155.556 728.117 155.556 735.247 Q155.556 742.353 157.362 745.918 Q159.19 749.46 162.802 749.46 Q166.436 749.46 168.241 745.918 Q170.07 742.353 170.07 735.247 Q170.07 728.117 168.241 724.575 Q166.436 721.011 162.802 721.011 M162.802 717.307 Q168.612 717.307 171.667 721.913 Q174.746 726.497 174.746 735.247 Q174.746 743.973 171.667 748.58 Q168.612 753.163 162.802 753.163 Q156.991 753.163 153.913 748.58 Q150.857 743.973 150.857 735.247 Q150.857 726.497 153.913 721.913 Q156.991 717.307 162.802 717.307 Z" fill="#000000" fill-rule="evenodd" fill-opacity="1" /><path clip-path="url(#clip320)" d="M182.963 746.612 L187.848 746.612 L187.848 752.492 L182.963 752.492 L182.963 746.612 Z" fill="#000000" fill-rule="evenodd" fill-opacity="1" /><path clip-path="url(#clip320)" d="M208.033 721.011 Q204.422 721.011 202.593 724.575 Q200.787 728.117 200.787 735.247 Q200.787 742.353 202.593 745.918 Q204.422 749.46 208.033 749.46 Q211.667 749.46 213.473 745.918 Q215.301 742.353 215.301 735.247 Q215.301 728.117 213.473 724.575 Q211.667 721.011 208.033 721.011 M208.033 717.307 Q213.843 717.307 216.898 721.913 Q219.977 726.497 219.977 735.247 Q219.977 743.973 216.898 748.58 Q213.843 753.163 208.033 753.163 Q202.223 753.163 199.144 748.58 Q196.088 743.973 196.088 735.247 Q196.088 726.497 199.144 721.913 Q202.223 717.307 208.033 717.307 Z" fill="#000000" fill-rule="evenodd" fill-opacity="1" /><path clip-path="url(#clip320)" d="M238.195 721.011 Q234.584 721.011 232.755 724.575 Q230.949 728.117 230.949 735.247 Q230.949 742.353 232.755 745.918 Q234.584 749.46 238.195 749.46 Q241.829 749.46 243.634 745.918 Q245.463 742.353 245.463 735.247 Q245.463 728.117 243.634 724.575 Q241.829 721.011 238.195 721.011 M238.195 717.307 Q244.005 717.307 247.06 721.913 Q250.139 726.497 250.139 735.247 Q250.139 743.973 247.06 748.58 Q244.005 753.163 238.195 753.163 Q232.385 753.163 229.306 748.58 Q226.25 743.973 226.25 735.247 Q226.25 726.497 229.306 721.913 Q232.385 717.307 238.195 717.307 Z" fill="#000000" fill-rule="evenodd" fill-opacity="1" /><path clip-path="url(#clip320)" d="M164.028 665.307 Q160.417 665.307 158.589 668.871 Q156.783 672.413 156.783 679.543 Q156.783 686.649 158.589 690.214 Q160.417 693.756 164.028 693.756 Q167.663 693.756 169.468 690.214 Q171.297 686.649 171.297 679.543 Q171.297 672.413 169.468 668.871 Q167.663 665.307 164.028 665.307 M164.028 661.603 Q169.839 661.603 172.894 666.209 Q175.973 670.793 175.973 679.543 Q175.973 688.27 172.894 692.876 Q169.839 697.459 164.028 697.459 Q158.218 697.459 155.14 692.876 Q152.084 688.27 152.084 679.543 Q152.084 670.793 155.14 666.209 Q158.218 661.603 164.028 661.603 Z" fill="#000000" fill-rule="evenodd" fill-opacity="1" /><path clip-path="url(#clip320)" d="M184.19 690.908 L189.075 690.908 L189.075 696.788 L184.19 696.788 L184.19 690.908 Z" fill="#000000" fill-rule="evenodd" fill-opacity="1" /><path clip-path="url(#clip320)" d="M209.26 665.307 Q205.649 665.307 203.82 668.871 Q202.014 672.413 202.014 679.543 Q202.014 686.649 203.82 690.214 Q205.649 693.756 209.26 693.756 Q212.894 693.756 214.699 690.214 Q216.528 686.649 216.528 679.543 Q216.528 672.413 214.699 668.871 Q212.894 665.307 209.26 665.307 M209.26 661.603 Q215.07 661.603 218.125 666.209 Q221.204 670.793 221.204 679.543 Q221.204 688.27 218.125 692.876 Q215.07 697.459 209.26 697.459 Q203.449 697.459 200.371 692.876 Q197.315 688.27 197.315 679.543 Q197.315 670.793 200.371 666.209 Q203.449 661.603 209.26 661.603 Z" fill="#000000" fill-rule="evenodd" fill-opacity="1" /><path clip-path="url(#clip320)" d="M230.232 692.853 L237.871 692.853 L237.871 666.487 L229.56 668.154 L229.56 663.895 L237.824 662.228 L242.5 662.228 L242.5 692.853 L250.139 692.853 L250.139 696.788 L230.232 696.788 L230.232 692.853 Z" fill="#000000" fill-rule="evenodd" fill-opacity="1" /><path clip-path="url(#clip320)" d="M164.399 609.603 Q160.788 609.603 158.959 613.168 Q157.153 616.709 157.153 623.839 Q157.153 630.945 158.959 634.51 Q160.788 638.052 164.399 638.052 Q168.033 638.052 169.839 634.51 Q171.667 630.945 171.667 623.839 Q171.667 616.709 169.839 613.168 Q168.033 609.603 164.399 609.603 M164.399 605.899 Q170.209 605.899 173.264 610.506 Q176.343 615.089 176.343 623.839 Q176.343 632.566 173.264 637.172 Q170.209 641.755 164.399 641.755 Q158.589 641.755 155.51 637.172 Q152.454 632.566 152.454 623.839 Q152.454 615.089 155.51 610.506 Q158.589 605.899 164.399 605.899 Z" fill="#000000" fill-rule="evenodd" fill-opacity="1" /><path clip-path="url(#clip320)" d="M184.561 635.204 L189.445 635.204 L189.445 641.084 L184.561 641.084 L184.561 635.204 Z" fill="#000000" fill-rule="evenodd" fill-opacity="1" /><path clip-path="url(#clip320)" d="M209.63 609.603 Q206.019 609.603 204.19 613.168 Q202.385 616.709 202.385 623.839 Q202.385 630.945 204.19 634.51 Q206.019 638.052 209.63 638.052 Q213.264 638.052 215.07 634.51 Q216.898 630.945 216.898 623.839 Q216.898 616.709 215.07 613.168 Q213.264 609.603 209.63 609.603 M209.63 605.899 Q215.44 605.899 218.496 610.506 Q221.574 615.089 221.574 623.839 Q221.574 632.566 218.496 637.172 Q215.44 641.755 209.63 641.755 Q203.82 641.755 200.741 637.172 Q197.686 632.566 197.686 623.839 Q197.686 615.089 200.741 610.506 Q203.82 605.899 209.63 605.899 Z" fill="#000000" fill-rule="evenodd" fill-opacity="1" /><path clip-path="url(#clip320)" d="M233.82 637.149 L250.139 637.149 L250.139 641.084 L228.195 641.084 L228.195 637.149 Q230.857 634.394 235.44 629.765 Q240.047 625.112 241.227 623.769 Q243.472 621.246 244.352 619.51 Q245.255 617.751 245.255 616.061 Q245.255 613.306 243.31 611.57 Q241.389 609.834 238.287 609.834 Q236.088 609.834 233.635 610.598 Q231.204 611.362 228.426 612.913 L228.426 608.191 Q231.25 607.056 233.704 606.478 Q236.158 605.899 238.195 605.899 Q243.565 605.899 246.759 608.584 Q249.954 611.269 249.954 615.76 Q249.954 617.89 249.144 619.811 Q248.357 621.709 246.25 624.302 Q245.671 624.973 242.57 628.191 Q239.468 631.385 233.82 637.149 Z" fill="#000000" fill-rule="evenodd" fill-opacity="1" /><path clip-path="url(#clip320)" d="M16.4842 815.293 L16.4842 808.863 L64.0042 808.863 L64.0042 815.293 L16.4842 815.293 Z" fill="#000000" fill-rule="evenodd" fill-opacity="1" /><path clip-path="url(#clip320)" d="M35.1993 768.568 Q31.2526 766.372 29.3747 763.317 Q27.4968 760.261 27.4968 756.123 Q27.4968 750.553 31.4117 747.53 Q35.2948 744.506 42.4881 744.506 L64.0042 744.506 L64.0042 750.394 L42.679 750.394 Q37.5546 750.394 35.072 752.208 Q32.5894 754.023 32.5894 757.747 Q32.5894 762.298 35.6131 764.94 Q38.6368 767.582 43.8567 767.582 L64.0042 767.582 L64.0042 773.47 L42.679 773.47 Q37.5228 773.47 35.072 775.284 Q32.5894 777.098 32.5894 780.886 Q32.5894 785.374 35.6449 788.016 Q38.6686 790.657 43.8567 790.657 L64.0042 790.657 L64.0042 796.546 L28.3562 796.546 L28.3562 790.657 L33.8944 790.657 Q30.616 788.652 29.0564 785.851 Q27.4968 783.05 27.4968 779.199 Q27.4968 775.316 29.4702 772.61 Q31.4436 769.873 35.1993 768.568 Z" fill="#000000" fill-rule="evenodd" fill-opacity="1" /><path clip-path="url(#clip320)" d="M14.5426 718.757 Q21.8632 723.022 29.0246 725.09 Q36.186 727.159 43.5384 727.159 Q50.8908 727.159 58.1159 725.09 Q65.3091 722.99 72.5979 718.757 L72.5979 723.849 Q65.1182 728.623 57.8931 731.011 Q50.668 733.366 43.5384 733.366 Q36.4406 733.366 29.2474 731.011 Q22.0542 728.655 14.5426 723.849 L14.5426 718.757 Z" fill="#000000" fill-rule="evenodd" fill-opacity="1" /><path clip-path="url(#clip320)" d="M28.3562 677.761 L45.7028 690.652 L64.0042 677.093 L64.0042 684 L49.9996 694.376 L64.0042 704.752 L64.0042 711.659 L45.3526 697.813 L28.3562 710.481 L28.3562 703.574 L41.0558 694.121 L28.3562 684.668 L28.3562 677.761 Z" fill="#000000" fill-rule="evenodd" fill-opacity="1" /><path clip-path="url(#clip320)" d="M14.5426 669.741 L14.5426 664.648 Q22.0542 659.874 29.2474 657.519 Q36.4406 655.131 43.5384 655.131 Q50.668 655.131 57.8931 657.519 Q65.1182 659.874 72.5979 664.648 L72.5979 669.741 Q65.3091 665.507 58.1159 663.439 Q50.8908 661.338 43.5384 661.338 Q36.186 661.338 29.0246 663.439 Q21.8632 665.507 14.5426 669.741 Z" fill="#000000" fill-rule="evenodd" fill-opacity="1" /><circle clip-path="url(#clip322)" cx="1724.36" cy="737.45" r="14" fill="#009af9" fill-rule="evenodd" fill-opacity="0.3" stroke="#000000" stroke-opacity="0.3" stroke-width="3.2"/>
<circle clip-path="url(#clip322)" cx="1724.36" cy="732.974" r="14" fill="#009af9" fill-rule="evenodd" fill-opacity="0.3" stroke="#000000" stroke-opacity="0.3" stroke-width="3.2"/>
<circle clip-path="url(#clip322)" cx="1730.72" cy="735.212" r="14" fill="#009af9" fill-rule="evenodd" fill-opacity="0.3" stroke="#000000" stroke-opacity="0.3" stroke-width="3.2"/>
<circle clip-path="url(#clip322)" cx="1734.61" cy="744.119" r="14" fill="#009af9" fill-rule="evenodd" fill-opacity="0.3" stroke="#000000" stroke-opacity="0.3" stroke-width="3.2"/>
<circle clip-path="url(#clip322)" cx="1734.61" cy="726.305" r="14" fill="#009af9" fill-rule="evenodd" fill-opacity="0.3" stroke="#000000" stroke-opacity="0.3" stroke-width="3.2"/>
<circle clip-path="url(#clip322)" cx="1737.19" cy="758.482" r="14" fill="#009af9" fill-rule="evenodd" fill-opacity="0.3" stroke="#000000" stroke-opacity="0.3" stroke-width="3.2"/>
<circle clip-path="url(#clip322)" cx="1737.19" cy="711.942" r="14" fill="#009af9" fill-rule="evenodd" fill-opacity="0.3" stroke="#000000" stroke-opacity="0.3" stroke-width="3.2"/>
<circle clip-path="url(#clip322)" cx="1747.69" cy="735.212" r="14" fill="#009af9" fill-rule="evenodd" fill-opacity="0.3" stroke="#000000" stroke-opacity="0.3" stroke-width="3.2"/>
<circle clip-path="url(#clip322)" cx="1749.56" cy="744.915" r="14" fill="#009af9" fill-rule="evenodd" fill-opacity="0.3" stroke="#000000" stroke-opacity="0.3" stroke-width="3.2"/>
<circle clip-path="url(#clip322)" cx="1749.56" cy="725.509" r="14" fill="#009af9" fill-rule="evenodd" fill-opacity="0.3" stroke="#000000" stroke-opacity="0.3" stroke-width="3.2"/>
<circle clip-path="url(#clip322)" cx="1754.3" cy="735.212" r="14" fill="#009af9" fill-rule="evenodd" fill-opacity="0.3" stroke="#000000" stroke-opacity="0.3" stroke-width="3.2"/>
<circle clip-path="url(#clip322)" cx="1758.7" cy="749.28" r="14" fill="#009af9" fill-rule="evenodd" fill-opacity="0.3" stroke="#000000" stroke-opacity="0.3" stroke-width="3.2"/>
<circle clip-path="url(#clip322)" cx="1758.7" cy="721.144" r="14" fill="#009af9" fill-rule="evenodd" fill-opacity="0.3" stroke="#000000" stroke-opacity="0.3" stroke-width="3.2"/>
<circle clip-path="url(#clip322)" cx="1761.4" cy="775.457" r="14" fill="#009af9" fill-rule="evenodd" fill-opacity="0.3" stroke="#000000" stroke-opacity="0.3" stroke-width="3.2"/>
<circle clip-path="url(#clip322)" cx="1761.4" cy="694.967" r="14" fill="#009af9" fill-rule="evenodd" fill-opacity="0.3" stroke="#000000" stroke-opacity="0.3" stroke-width="3.2"/>
<circle clip-path="url(#clip322)" cx="1762.45" cy="755.668" r="14" fill="#009af9" fill-rule="evenodd" fill-opacity="0.3" stroke="#000000" stroke-opacity="0.3" stroke-width="3.2"/>
<circle clip-path="url(#clip322)" cx="1762.45" cy="714.756" r="14" fill="#009af9" fill-rule="evenodd" fill-opacity="0.3" stroke="#000000" stroke-opacity="0.3" stroke-width="3.2"/>
<circle clip-path="url(#clip322)" cx="1763.97" cy="755.982" r="14" fill="#009af9" fill-rule="evenodd" fill-opacity="0.3" stroke="#000000" stroke-opacity="0.3" stroke-width="3.2"/>
<circle clip-path="url(#clip322)" cx="1763.97" cy="714.442" r="14" fill="#009af9" fill-rule="evenodd" fill-opacity="0.3" stroke="#000000" stroke-opacity="0.3" stroke-width="3.2"/>
<circle clip-path="url(#clip322)" cx="1771.42" cy="761.876" r="14" fill="#009af9" fill-rule="evenodd" fill-opacity="0.3" stroke="#000000" stroke-opacity="0.3" stroke-width="3.2"/>
<circle clip-path="url(#clip322)" cx="1771.42" cy="708.548" r="14" fill="#009af9" fill-rule="evenodd" fill-opacity="0.3" stroke="#000000" stroke-opacity="0.3" stroke-width="3.2"/>
<circle clip-path="url(#clip322)" cx="1772.53" cy="744.228" r="14" fill="#009af9" fill-rule="evenodd" fill-opacity="0.3" stroke="#000000" stroke-opacity="0.3" stroke-width="3.2"/>
<circle clip-path="url(#clip322)" cx="1772.53" cy="726.196" r="14" fill="#009af9" fill-rule="evenodd" fill-opacity="0.3" stroke="#000000" stroke-opacity="0.3" stroke-width="3.2"/>
<circle clip-path="url(#clip322)" cx="1775.48" cy="736.369" r="14" fill="#009af9" fill-rule="evenodd" fill-opacity="0.3" stroke="#000000" stroke-opacity="0.3" stroke-width="3.2"/>
<circle clip-path="url(#clip322)" cx="1775.48" cy="734.055" r="14" fill="#009af9" fill-rule="evenodd" fill-opacity="0.3" stroke="#000000" stroke-opacity="0.3" stroke-width="3.2"/>
<circle clip-path="url(#clip322)" cx="1778.61" cy="753.616" r="14" fill="#009af9" fill-rule="evenodd" fill-opacity="0.3" stroke="#000000" stroke-opacity="0.3" stroke-width="3.2"/>
<circle clip-path="url(#clip322)" cx="1778.61" cy="716.808" r="14" fill="#009af9" fill-rule="evenodd" fill-opacity="0.3" stroke="#000000" stroke-opacity="0.3" stroke-width="3.2"/>
<circle clip-path="url(#clip322)" cx="1783.23" cy="735.212" r="14" fill="#009af9" fill-rule="evenodd" fill-opacity="0.3" stroke="#000000" stroke-opacity="0.3" stroke-width="3.2"/>
<circle clip-path="url(#clip322)" cx="1783.28" cy="746.77" r="14" fill="#009af9" fill-rule="evenodd" fill-opacity="0.3" stroke="#000000" stroke-opacity="0.3" stroke-width="3.2"/>
<circle clip-path="url(#clip322)" cx="1783.28" cy="723.654" r="14" fill="#009af9" fill-rule="evenodd" fill-opacity="0.3" stroke="#000000" stroke-opacity="0.3" stroke-width="3.2"/>
<circle clip-path="url(#clip322)" cx="1788.55" cy="754.035" r="14" fill="#009af9" fill-rule="evenodd" fill-opacity="0.3" stroke="#000000" stroke-opacity="0.3" stroke-width="3.2"/>
<circle clip-path="url(#clip322)" cx="1788.55" cy="716.389" r="14" fill="#009af9" fill-rule="evenodd" fill-opacity="0.3" stroke="#000000" stroke-opacity="0.3" stroke-width="3.2"/>
<circle clip-path="url(#clip322)" cx="1790.87" cy="763.143" r="14" fill="#009af9" fill-rule="evenodd" fill-opacity="0.3" stroke="#000000" stroke-opacity="0.3" stroke-width="3.2"/>
<circle clip-path="url(#clip322)" cx="1790.87" cy="707.281" r="14" fill="#009af9" fill-rule="evenodd" fill-opacity="0.3" stroke="#000000" stroke-opacity="0.3" stroke-width="3.2"/>
<circle clip-path="url(#clip322)" cx="1799.05" cy="761.223" r="14" fill="#009af9" fill-rule="evenodd" fill-opacity="0.3" stroke="#000000" stroke-opacity="0.3" stroke-width="3.2"/>
<circle clip-path="url(#clip322)" cx="1799.05" cy="709.201" r="14" fill="#009af9" fill-rule="evenodd" fill-opacity="0.3" stroke="#000000" stroke-opacity="0.3" stroke-width="3.2"/>
<circle clip-path="url(#clip322)" cx="1800.12" cy="735.212" r="14" fill="#009af9" fill-rule="evenodd" fill-opacity="0.3" stroke="#000000" stroke-opacity="0.3" stroke-width="3.2"/>
<circle clip-path="url(#clip322)" cx="1800.4" cy="740.39" r="14" fill="#009af9" fill-rule="evenodd" fill-opacity="0.3" stroke="#000000" stroke-opacity="0.3" stroke-width="3.2"/>
<circle clip-path="url(#clip322)" cx="1800.4" cy="730.034" r="14" fill="#009af9" fill-rule="evenodd" fill-opacity="0.3" stroke="#000000" stroke-opacity="0.3" stroke-width="3.2"/>
<circle clip-path="url(#clip322)" cx="1801.99" cy="768.171" r="14" fill="#009af9" fill-rule="evenodd" fill-opacity="0.3" stroke="#000000" stroke-opacity="0.3" stroke-width="3.2"/>
<circle clip-path="url(#clip322)" cx="1801.99" cy="702.253" r="14" fill="#009af9" fill-rule="evenodd" fill-opacity="0.3" stroke="#000000" stroke-opacity="0.3" stroke-width="3.2"/>
<circle clip-path="url(#clip322)" cx="1804.65" cy="757.215" r="14" fill="#009af9" fill-rule="evenodd" fill-opacity="0.3" stroke="#000000" stroke-opacity="0.3" stroke-width="3.2"/>
<circle clip-path="url(#clip322)" cx="1804.65" cy="713.209" r="14" fill="#009af9" fill-rule="evenodd" fill-opacity="0.3" stroke="#000000" stroke-opacity="0.3" stroke-width="3.2"/>
<circle clip-path="url(#clip322)" cx="1805.58" cy="746.923" r="14" fill="#009af9" fill-rule="evenodd" fill-opacity="0.3" stroke="#000000" stroke-opacity="0.3" stroke-width="3.2"/>
<circle clip-path="url(#clip322)" cx="1805.58" cy="723.501" r="14" fill="#009af9" fill-rule="evenodd" fill-opacity="0.3" stroke="#000000" stroke-opacity="0.3" stroke-width="3.2"/>
<circle clip-path="url(#clip322)" cx="1817.51" cy="755.176" r="14" fill="#009af9" fill-rule="evenodd" fill-opacity="0.3" stroke="#000000" stroke-opacity="0.3" stroke-width="3.2"/>
<circle clip-path="url(#clip322)" cx="1817.51" cy="715.248" r="14" fill="#009af9" fill-rule="evenodd" fill-opacity="0.3" stroke="#000000" stroke-opacity="0.3" stroke-width="3.2"/>
<circle clip-path="url(#clip322)" cx="1817.54" cy="735.212" r="14" fill="#009af9" fill-rule="evenodd" fill-opacity="0.3" stroke="#000000" stroke-opacity="0.3" stroke-width="3.2"/>
<circle clip-path="url(#clip322)" cx="1818.56" cy="768.154" r="14" fill="#009af9" fill-rule="evenodd" fill-opacity="0.3" stroke="#000000" stroke-opacity="0.3" stroke-width="3.2"/>
<circle clip-path="url(#clip322)" cx="1818.56" cy="702.27" r="14" fill="#009af9" fill-rule="evenodd" fill-opacity="0.3" stroke="#000000" stroke-opacity="0.3" stroke-width="3.2"/>
<circle clip-path="url(#clip322)" cx="1820.04" cy="756.877" r="14" fill="#009af9" fill-rule="evenodd" fill-opacity="0.3" stroke="#000000" stroke-opacity="0.3" stroke-width="3.2"/>
<circle clip-path="url(#clip322)" cx="1820.04" cy="713.547" r="14" fill="#009af9" fill-rule="evenodd" fill-opacity="0.3" stroke="#000000" stroke-opacity="0.3" stroke-width="3.2"/>
<circle clip-path="url(#clip322)" cx="1821.2" cy="750.561" r="14" fill="#009af9" fill-rule="evenodd" fill-opacity="0.3" stroke="#000000" stroke-opacity="0.3" stroke-width="3.2"/>
<circle clip-path="url(#clip322)" cx="1821.2" cy="719.863" r="14" fill="#009af9" fill-rule="evenodd" fill-opacity="0.3" stroke="#000000" stroke-opacity="0.3" stroke-width="3.2"/>
<circle clip-path="url(#clip322)" cx="1824.07" cy="735.212" r="14" fill="#009af9" fill-rule="evenodd" fill-opacity="0.3" stroke="#000000" stroke-opacity="0.3" stroke-width="3.2"/>
<circle clip-path="url(#clip322)" cx="1825.33" cy="764.003" r="14" fill="#009af9" fill-rule="evenodd" fill-opacity="0.3" stroke="#000000" stroke-opacity="0.3" stroke-width="3.2"/>
<circle clip-path="url(#clip322)" cx="1825.33" cy="706.421" r="14" fill="#009af9" fill-rule="evenodd" fill-opacity="0.3" stroke="#000000" stroke-opacity="0.3" stroke-width="3.2"/>
<circle clip-path="url(#clip322)" cx="1829.35" cy="743.274" r="14" fill="#009af9" fill-rule="evenodd" fill-opacity="0.3" stroke="#000000" stroke-opacity="0.3" stroke-width="3.2"/>
<circle clip-path="url(#clip322)" cx="1829.35" cy="727.15" r="14" fill="#009af9" fill-rule="evenodd" fill-opacity="0.3" stroke="#000000" stroke-opacity="0.3" stroke-width="3.2"/>
<circle clip-path="url(#clip322)" cx="1829.71" cy="754.607" r="14" fill="#009af9" fill-rule="evenodd" fill-opacity="0.3" stroke="#000000" stroke-opacity="0.3" stroke-width="3.2"/>
<circle clip-path="url(#clip322)" cx="1829.71" cy="715.817" r="14" fill="#009af9" fill-rule="evenodd" fill-opacity="0.3" stroke="#000000" stroke-opacity="0.3" stroke-width="3.2"/>
<circle clip-path="url(#clip322)" cx="1834.28" cy="735.212" r="14" fill="#009af9" fill-rule="evenodd" fill-opacity="0.3" stroke="#000000" stroke-opacity="0.3" stroke-width="3.2"/>
<circle clip-path="url(#clip322)" cx="1836.87" cy="755.832" r="14" fill="#009af9" fill-rule="evenodd" fill-opacity="0.3" stroke="#000000" stroke-opacity="0.3" stroke-width="3.2"/>
<circle clip-path="url(#clip322)" cx="1836.87" cy="714.592" r="14" fill="#009af9" fill-rule="evenodd" fill-opacity="0.3" stroke="#000000" stroke-opacity="0.3" stroke-width="3.2"/>
<circle clip-path="url(#clip322)" cx="1843.03" cy="749.127" r="14" fill="#009af9" fill-rule="evenodd" fill-opacity="0.3" stroke="#000000" stroke-opacity="0.3" stroke-width="3.2"/>
<circle clip-path="url(#clip322)" cx="1843.03" cy="721.297" r="14" fill="#009af9" fill-rule="evenodd" fill-opacity="0.3" stroke="#000000" stroke-opacity="0.3" stroke-width="3.2"/>
<circle clip-path="url(#clip322)" cx="1843.48" cy="735.212" r="14" fill="#009af9" fill-rule="evenodd" fill-opacity="0.3" stroke="#000000" stroke-opacity="0.3" stroke-width="3.2"/>
<circle clip-path="url(#clip322)" cx="1846.26" cy="735.212" r="14" fill="#009af9" fill-rule="evenodd" fill-opacity="0.3" stroke="#000000" stroke-opacity="0.3" stroke-width="3.2"/>
<circle clip-path="url(#clip322)" cx="1848.36" cy="765.289" r="14" fill="#009af9" fill-rule="evenodd" fill-opacity="0.3" stroke="#000000" stroke-opacity="0.3" stroke-width="3.2"/>
<circle clip-path="url(#clip322)" cx="1848.36" cy="705.135" r="14" fill="#009af9" fill-rule="evenodd" fill-opacity="0.3" stroke="#000000" stroke-opacity="0.3" stroke-width="3.2"/>
<circle clip-path="url(#clip322)" cx="1850.66" cy="756.069" r="14" fill="#009af9" fill-rule="evenodd" fill-opacity="0.3" stroke="#000000" stroke-opacity="0.3" stroke-width="3.2"/>
<circle clip-path="url(#clip322)" cx="1850.66" cy="714.355" r="14" fill="#009af9" fill-rule="evenodd" fill-opacity="0.3" stroke="#000000" stroke-opacity="0.3" stroke-width="3.2"/>
<circle clip-path="url(#clip322)" cx="1854.2" cy="743.346" r="14" fill="#009af9" fill-rule="evenodd" fill-opacity="0.3" stroke="#000000" stroke-opacity="0.3" stroke-width="3.2"/>
<circle clip-path="url(#clip322)" cx="1854.2" cy="727.078" r="14" fill="#009af9" fill-rule="evenodd" fill-opacity="0.3" stroke="#000000" stroke-opacity="0.3" stroke-width="3.2"/>
<circle clip-path="url(#clip322)" cx="1859.51" cy="755.539" r="14" fill="#009af9" fill-rule="evenodd" fill-opacity="0.3" stroke="#000000" stroke-opacity="0.3" stroke-width="3.2"/>
<circle clip-path="url(#clip322)" cx="1859.51" cy="714.885" r="14" fill="#009af9" fill-rule="evenodd" fill-opacity="0.3" stroke="#000000" stroke-opacity="0.3" stroke-width="3.2"/>
<circle clip-path="url(#clip322)" cx="1864.24" cy="738.522" r="14" fill="#009af9" fill-rule="evenodd" fill-opacity="0.3" stroke="#000000" stroke-opacity="0.3" stroke-width="3.2"/>
<circle clip-path="url(#clip322)" cx="1864.24" cy="731.902" r="14" fill="#009af9" fill-rule="evenodd" fill-opacity="0.3" stroke="#000000" stroke-opacity="0.3" stroke-width="3.2"/>
<circle clip-path="url(#clip322)" cx="1866.86" cy="752.87" r="14" fill="#009af9" fill-rule="evenodd" fill-opacity="0.3" stroke="#000000" stroke-opacity="0.3" stroke-width="3.2"/>
<circle clip-path="url(#clip322)" cx="1866.86" cy="717.554" r="14" fill="#009af9" fill-rule="evenodd" fill-opacity="0.3" stroke="#000000" stroke-opacity="0.3" stroke-width="3.2"/>
<circle clip-path="url(#clip322)" cx="1867.31" cy="758.514" r="14" fill="#009af9" fill-rule="evenodd" fill-opacity="0.3" stroke="#000000" stroke-opacity="0.3" stroke-width="3.2"/>
<circle clip-path="url(#clip322)" cx="1867.31" cy="711.91" r="14" fill="#009af9" fill-rule="evenodd" fill-opacity="0.3" stroke="#000000" stroke-opacity="0.3" stroke-width="3.2"/>
<circle clip-path="url(#clip322)" cx="1867.78" cy="749.353" r="14" fill="#009af9" fill-rule="evenodd" fill-opacity="0.3" stroke="#000000" stroke-opacity="0.3" stroke-width="3.2"/>
<circle clip-path="url(#clip322)" cx="1867.78" cy="721.071" r="14" fill="#009af9" fill-rule="evenodd" fill-opacity="0.3" stroke="#000000" stroke-opacity="0.3" stroke-width="3.2"/>
<circle clip-path="url(#clip322)" cx="1869.76" cy="735.212" r="14" fill="#009af9" fill-rule="evenodd" fill-opacity="0.3" stroke="#000000" stroke-opacity="0.3" stroke-width="3.2"/>
<circle clip-path="url(#clip322)" cx="1873.84" cy="735.212" r="14" fill="#009af9" fill-rule="evenodd" fill-opacity="0.3" stroke="#000000" stroke-opacity="0.3" stroke-width="3.2"/>
<circle clip-path="url(#clip322)" cx="1882.4" cy="750.604" r="14" fill="#009af9" fill-rule="evenodd" fill-opacity="0.3" stroke="#000000" stroke-opacity="0.3" stroke-width="3.2"/>
<circle clip-path="url(#clip322)" cx="1882.4" cy="719.82" r="14" fill="#009af9" fill-rule="evenodd" fill-opacity="0.3" stroke="#000000" stroke-opacity="0.3" stroke-width="3.2"/>
<circle clip-path="url(#clip322)" cx="1884.49" cy="742.595" r="14" fill="#009af9" fill-rule="evenodd" fill-opacity="0.3" stroke="#000000" stroke-opacity="0.3" stroke-width="3.2"/>
<circle clip-path="url(#clip322)" cx="1884.49" cy="727.829" r="14" fill="#009af9" fill-rule="evenodd" fill-opacity="0.3" stroke="#000000" stroke-opacity="0.3" stroke-width="3.2"/>
<circle clip-path="url(#clip322)" cx="1891.77" cy="735.212" r="14" fill="#009af9" fill-rule="evenodd" fill-opacity="0.3" stroke="#000000" stroke-opacity="0.3" stroke-width="3.2"/>
<circle clip-path="url(#clip322)" cx="1902" cy="745.36" r="14" fill="#009af9" fill-rule="evenodd" fill-opacity="0.3" stroke="#000000" stroke-opacity="0.3" stroke-width="3.2"/>
<circle clip-path="url(#clip322)" cx="1902" cy="725.063" r="14" fill="#009af9" fill-rule="evenodd" fill-opacity="0.3" stroke="#000000" stroke-opacity="0.3" stroke-width="3.2"/>
<circle clip-path="url(#clip322)" cx="1907.88" cy="735.212" r="14" fill="#009af9" fill-rule="evenodd" fill-opacity="0.3" stroke="#000000" stroke-opacity="0.3" stroke-width="3.2"/>
<circle clip-path="url(#clip322)" cx="1914.5" cy="735.212" r="14" fill="#009af9" fill-rule="evenodd" fill-opacity="0.3" stroke="#000000" stroke-opacity="0.3" stroke-width="3.2"/>
<circle clip-path="url(#clip322)" cx="1915.04" cy="735.212" r="14" fill="#009af9" fill-rule="evenodd" fill-opacity="0.3" stroke="#000000" stroke-opacity="0.3" stroke-width="3.2"/>
<circle clip-path="url(#clip322)" cx="1926.73" cy="735.212" r="14" fill="#009af9" fill-rule="evenodd" fill-opacity="0.3" stroke="#000000" stroke-opacity="0.3" stroke-width="3.2"/>
<circle clip-path="url(#clip322)" cx="1930.39" cy="735.212" r="14" fill="#009af9" fill-rule="evenodd" fill-opacity="0.3" stroke="#000000" stroke-opacity="0.3" stroke-width="3.2"/>
<circle clip-path="url(#clip322)" cx="1943.84" cy="735.212" r="14" fill="#009af9" fill-rule="evenodd" fill-opacity="0.3" stroke="#000000" stroke-opacity="0.3" stroke-width="3.2"/>
<polyline clip-path="url(#clip322)" style="stroke:#000003; stroke-linecap:butt; stroke-linejoin:round; stroke-width:8; stroke-opacity:1; fill:none" points="
  1730.31,753.261 1730.97,753.764 1731.62,754.237 1733,755.212 1734.49,756.188 1735.61,756.889 1736.08,757.164 1737.77,758.139 1739.57,759.115 1740.25,759.478 
  1741.49,760.091 1743.53,761.066 1744.89,761.698 1745.71,762.042 1748.05,763.018 1749.53,763.614 1750.58,763.993 1753.34,764.969 1754.17,765.261 1756.41,765.944 
  1758.8,766.667 1759.8,766.92 1763.44,767.848 1763.67,767.896 1768.08,768.834 1768.3,768.871 1772.72,769.646 1774.18,769.847 1777.36,770.302 1782,770.822 
  1782.01,770.823 1786.64,771.255 1791.28,771.597 1794.73,771.798 1795.92,771.87 1800.55,772.085 1805.19,772.227 1809.83,772.289 1814.47,772.258 1819.11,772.12 
  1823.75,771.862 1824.53,771.798 1828.39,771.494 1833.03,771.005 1834.42,770.823 1837.67,770.412 1841.38,769.847 1842.3,769.71 1846.94,768.904 1847.11,768.871 
  1851.58,767.986 1851.98,767.896 1856.22,766.93 1856.26,766.92 1860.01,765.944 1860.86,765.724 1863.38,764.969 1865.5,764.328 1866.47,763.993 1869.28,763.018 
  1870.14,762.716 1871.87,762.042 1874.27,761.066 1874.78,760.86 1876.53,760.091 1878.63,759.115 1879.42,758.744 1880.65,758.139 1882.57,757.164 1884.06,756.354 
  1884.37,756.188 1886.2,755.212 1887.9,754.237 1888.69,753.761 1889.61,753.261 1891.34,752.286 1892.93,751.31 1893.33,751.057 1894.76,750.334 1896.6,749.359 
  1897.97,748.57 1898.59,748.383 1902.24,747.407 1902.61,747.323 1907.25,747.302 1910.74,747.407 1911.89,747.44 1912.26,747.407 1916.53,747.116 1919.29,746.432 
  1921.17,745.954 1922.58,745.456 1925.12,744.481 1925.81,744.197 1927.89,743.505 1930.44,742.684 1931.02,742.529 1935.08,741.613 1935.29,741.554 1939.14,740.578 
  1939.72,740.453 1941.58,739.602 1942.97,738.627 1943.72,737.651 1944.06,736.675 1944.18,735.7 1944.18,734.724 1944.06,733.749 1943.72,732.773 1942.97,731.797 
  1941.58,730.822 1939.72,729.971 1939.14,729.846 1935.29,728.87 1935.08,728.811 1931.02,727.895 1930.44,727.74 1927.89,726.919 1925.81,726.226 1925.12,725.943 
  1922.58,724.968 1921.17,724.47 1919.29,723.992 1916.53,723.308 1912.26,723.017 1911.89,722.984 1910.74,723.017 1907.25,723.122 1902.61,723.101 1902.24,723.017 
  1898.59,722.041 1897.97,721.854 1896.6,721.065 1894.76,720.09 1893.33,719.367 1892.93,719.114 1891.34,718.138 1889.61,717.163 1888.69,716.663 1887.9,716.187 
  1886.2,715.211 1884.37,714.236 1884.06,714.07 1882.57,713.26 1880.65,712.285 1879.42,711.68 1878.63,711.309 1876.53,710.333 1874.78,709.563 1874.27,709.358 
  1871.87,708.382 1870.14,707.708 1869.28,707.406 1866.47,706.431 1865.5,706.096 1863.38,705.455 1860.86,704.7 1860.01,704.479 1856.26,703.504 1856.22,703.494 
  1851.98,702.528 1851.58,702.438 1847.11,701.553 1846.94,701.52 1842.3,700.714 1841.38,700.577 1837.67,700.012 1834.42,699.601 1833.03,699.419 1828.39,698.93 
  1824.53,698.626 1823.75,698.562 1819.11,698.304 1814.47,698.166 1809.83,698.135 1805.19,698.197 1800.55,698.339 1795.92,698.553 1794.73,698.626 1791.28,698.827 
  1786.64,699.169 1782.01,699.601 1782,699.602 1777.36,700.122 1774.18,700.577 1772.72,700.778 1768.3,701.553 1768.08,701.59 1763.67,702.528 1763.44,702.576 
  1759.8,703.504 1758.8,703.757 1756.41,704.479 1754.17,705.163 1753.34,705.455 1750.58,706.431 1749.53,706.809 1748.05,707.406 1745.71,708.382 1744.89,708.726 
  1743.53,709.358 1741.49,710.333 1740.25,710.946 1739.57,711.309 1737.77,712.285 1736.08,713.26 1735.61,713.535 1734.49,714.236 1733,715.211 1731.62,716.187 
  1730.97,716.66 1730.31,717.163 1729.08,718.138 1727.97,719.114 1726.99,720.09 1726.33,720.809 1726.08,721.065 1725.13,722.041 1724.3,723.017 1723.58,723.992 
  1722.96,724.968 1722.44,725.943 1722.02,726.919 1721.69,727.859 1721.67,727.895 1721.19,728.87 1720.78,729.846 1720.45,730.822 1720.2,731.797 1720.01,732.773 
  1719.88,733.749 1719.82,734.724 1719.82,735.7 1719.88,736.675 1720.01,737.651 1720.2,738.627 1720.45,739.602 1720.78,740.578 1721.19,741.554 1721.67,742.529 
  1721.69,742.565 1722.02,743.505 1722.44,744.481 1722.96,745.456 1723.58,746.432 1724.3,747.407 1725.13,748.383 1726.08,749.359 1726.33,749.615 1726.99,750.334 
  1727.97,751.31 1729.08,752.286 1730.31,753.261 
  "/>
<polyline clip-path="url(#clip322)" style="stroke:#000003; stroke-linecap:butt; stroke-linejoin:round; stroke-width:8; stroke-opacity:1; fill:none" points="
  1947.11,738.627 1949,739.223 1953.64,739.525 1955.56,738.627 1956.88,737.651 1957.59,736.675 1957.88,735.7 1957.88,734.724 1957.59,733.749 1956.88,732.773 
  1955.56,731.797 1953.64,730.899 1949,731.201 1947.11,731.797 1945.5,732.773 1944.89,733.749 1944.68,734.724 1944.68,735.7 1944.89,736.675 1945.5,737.651 
  1947.11,738.627 
  "/>
<circle clip-path="url(#clip322)" cx="1187.47" cy="735.212" r="14" fill="#009af9" fill-rule="evenodd" fill-opacity="0.3" stroke="#000000" stroke-opacity="0.3" stroke-width="3.2"/>
<circle clip-path="url(#clip322)" cx="1202.15" cy="735.212" r="14" fill="#009af9" fill-rule="evenodd" fill-opacity="0.3" stroke="#000000" stroke-opacity="0.3" stroke-width="3.2"/>
<circle clip-path="url(#clip322)" cx="1207.15" cy="735.212" r="14" fill="#009af9" fill-rule="evenodd" fill-opacity="0.3" stroke="#000000" stroke-opacity="0.3" stroke-width="3.2"/>
<circle clip-path="url(#clip322)" cx="1244.2" cy="736.246" r="14" fill="#009af9" fill-rule="evenodd" fill-opacity="0.3" stroke="#000000" stroke-opacity="0.3" stroke-width="3.2"/>
<circle clip-path="url(#clip322)" cx="1244.2" cy="734.178" r="14" fill="#009af9" fill-rule="evenodd" fill-opacity="0.3" stroke="#000000" stroke-opacity="0.3" stroke-width="3.2"/>
<circle clip-path="url(#clip322)" cx="1254.67" cy="735.212" r="14" fill="#009af9" fill-rule="evenodd" fill-opacity="0.3" stroke="#000000" stroke-opacity="0.3" stroke-width="3.2"/>
<circle clip-path="url(#clip322)" cx="1262.22" cy="774.251" r="14" fill="#009af9" fill-rule="evenodd" fill-opacity="0.3" stroke="#000000" stroke-opacity="0.3" stroke-width="3.2"/>
<circle clip-path="url(#clip322)" cx="1262.22" cy="696.173" r="14" fill="#009af9" fill-rule="evenodd" fill-opacity="0.3" stroke="#000000" stroke-opacity="0.3" stroke-width="3.2"/>
<circle clip-path="url(#clip322)" cx="1262.91" cy="738.32" r="14" fill="#009af9" fill-rule="evenodd" fill-opacity="0.3" stroke="#000000" stroke-opacity="0.3" stroke-width="3.2"/>
<circle clip-path="url(#clip322)" cx="1262.91" cy="732.104" r="14" fill="#009af9" fill-rule="evenodd" fill-opacity="0.3" stroke="#000000" stroke-opacity="0.3" stroke-width="3.2"/>
<circle clip-path="url(#clip322)" cx="1276.41" cy="767.337" r="14" fill="#009af9" fill-rule="evenodd" fill-opacity="0.3" stroke="#000000" stroke-opacity="0.3" stroke-width="3.2"/>
<circle clip-path="url(#clip322)" cx="1276.41" cy="703.087" r="14" fill="#009af9" fill-rule="evenodd" fill-opacity="0.3" stroke="#000000" stroke-opacity="0.3" stroke-width="3.2"/>
<circle clip-path="url(#clip322)" cx="1289.42" cy="749.565" r="14" fill="#009af9" fill-rule="evenodd" fill-opacity="0.3" stroke="#000000" stroke-opacity="0.3" stroke-width="3.2"/>
<circle clip-path="url(#clip322)" cx="1289.42" cy="720.859" r="14" fill="#009af9" fill-rule="evenodd" fill-opacity="0.3" stroke="#000000" stroke-opacity="0.3" stroke-width="3.2"/>
<circle clip-path="url(#clip322)" cx="1300.24" cy="769.091" r="14" fill="#009af9" fill-rule="evenodd" fill-opacity="0.3" stroke="#000000" stroke-opacity="0.3" stroke-width="3.2"/>
<circle clip-path="url(#clip322)" cx="1300.24" cy="701.332" r="14" fill="#009af9" fill-rule="evenodd" fill-opacity="0.3" stroke="#000000" stroke-opacity="0.3" stroke-width="3.2"/>
<circle clip-path="url(#clip322)" cx="1304.96" cy="735.212" r="14" fill="#009af9" fill-rule="evenodd" fill-opacity="0.3" stroke="#000000" stroke-opacity="0.3" stroke-width="3.2"/>
<circle clip-path="url(#clip322)" cx="1314.3" cy="779.382" r="14" fill="#009af9" fill-rule="evenodd" fill-opacity="0.3" stroke="#000000" stroke-opacity="0.3" stroke-width="3.2"/>
<circle clip-path="url(#clip322)" cx="1314.3" cy="691.042" r="14" fill="#009af9" fill-rule="evenodd" fill-opacity="0.3" stroke="#000000" stroke-opacity="0.3" stroke-width="3.2"/>
<circle clip-path="url(#clip322)" cx="1316.69" cy="735.212" r="14" fill="#009af9" fill-rule="evenodd" fill-opacity="0.3" stroke="#000000" stroke-opacity="0.3" stroke-width="3.2"/>
<circle clip-path="url(#clip322)" cx="1317.82" cy="748.238" r="14" fill="#009af9" fill-rule="evenodd" fill-opacity="0.3" stroke="#000000" stroke-opacity="0.3" stroke-width="3.2"/>
<circle clip-path="url(#clip322)" cx="1317.82" cy="722.186" r="14" fill="#009af9" fill-rule="evenodd" fill-opacity="0.3" stroke="#000000" stroke-opacity="0.3" stroke-width="3.2"/>
<circle clip-path="url(#clip322)" cx="1330.22" cy="773.332" r="14" fill="#009af9" fill-rule="evenodd" fill-opacity="0.3" stroke="#000000" stroke-opacity="0.3" stroke-width="3.2"/>
<circle clip-path="url(#clip322)" cx="1330.22" cy="697.092" r="14" fill="#009af9" fill-rule="evenodd" fill-opacity="0.3" stroke="#000000" stroke-opacity="0.3" stroke-width="3.2"/>
<circle clip-path="url(#clip322)" cx="1337.65" cy="762.178" r="14" fill="#009af9" fill-rule="evenodd" fill-opacity="0.3" stroke="#000000" stroke-opacity="0.3" stroke-width="3.2"/>
<circle clip-path="url(#clip322)" cx="1337.65" cy="708.246" r="14" fill="#009af9" fill-rule="evenodd" fill-opacity="0.3" stroke="#000000" stroke-opacity="0.3" stroke-width="3.2"/>
<circle clip-path="url(#clip322)" cx="1338.28" cy="742.721" r="14" fill="#009af9" fill-rule="evenodd" fill-opacity="0.3" stroke="#000000" stroke-opacity="0.3" stroke-width="3.2"/>
<circle clip-path="url(#clip322)" cx="1338.28" cy="727.702" r="14" fill="#009af9" fill-rule="evenodd" fill-opacity="0.3" stroke="#000000" stroke-opacity="0.3" stroke-width="3.2"/>
<circle clip-path="url(#clip322)" cx="1361.12" cy="759.583" r="14" fill="#009af9" fill-rule="evenodd" fill-opacity="0.3" stroke="#000000" stroke-opacity="0.3" stroke-width="3.2"/>
<circle clip-path="url(#clip322)" cx="1361.12" cy="710.841" r="14" fill="#009af9" fill-rule="evenodd" fill-opacity="0.3" stroke="#000000" stroke-opacity="0.3" stroke-width="3.2"/>
<circle clip-path="url(#clip322)" cx="1363.09" cy="771.508" r="14" fill="#009af9" fill-rule="evenodd" fill-opacity="0.3" stroke="#000000" stroke-opacity="0.3" stroke-width="3.2"/>
<circle clip-path="url(#clip322)" cx="1363.09" cy="698.916" r="14" fill="#009af9" fill-rule="evenodd" fill-opacity="0.3" stroke="#000000" stroke-opacity="0.3" stroke-width="3.2"/>
<circle clip-path="url(#clip322)" cx="1363.57" cy="752.825" r="14" fill="#009af9" fill-rule="evenodd" fill-opacity="0.3" stroke="#000000" stroke-opacity="0.3" stroke-width="3.2"/>
<circle clip-path="url(#clip322)" cx="1363.57" cy="717.599" r="14" fill="#009af9" fill-rule="evenodd" fill-opacity="0.3" stroke="#000000" stroke-opacity="0.3" stroke-width="3.2"/>
<circle clip-path="url(#clip322)" cx="1367.93" cy="786.716" r="14" fill="#009af9" fill-rule="evenodd" fill-opacity="0.3" stroke="#000000" stroke-opacity="0.3" stroke-width="3.2"/>
<circle clip-path="url(#clip322)" cx="1367.93" cy="683.708" r="14" fill="#009af9" fill-rule="evenodd" fill-opacity="0.3" stroke="#000000" stroke-opacity="0.3" stroke-width="3.2"/>
<circle clip-path="url(#clip322)" cx="1373.95" cy="735.212" r="14" fill="#009af9" fill-rule="evenodd" fill-opacity="0.3" stroke="#000000" stroke-opacity="0.3" stroke-width="3.2"/>
<circle clip-path="url(#clip322)" cx="1385.53" cy="735.212" r="14" fill="#009af9" fill-rule="evenodd" fill-opacity="0.3" stroke="#000000" stroke-opacity="0.3" stroke-width="3.2"/>
<circle clip-path="url(#clip322)" cx="1387.64" cy="768.585" r="14" fill="#009af9" fill-rule="evenodd" fill-opacity="0.3" stroke="#000000" stroke-opacity="0.3" stroke-width="3.2"/>
<circle clip-path="url(#clip322)" cx="1387.64" cy="701.839" r="14" fill="#009af9" fill-rule="evenodd" fill-opacity="0.3" stroke="#000000" stroke-opacity="0.3" stroke-width="3.2"/>
<circle clip-path="url(#clip322)" cx="1396.04" cy="754.814" r="14" fill="#009af9" fill-rule="evenodd" fill-opacity="0.3" stroke="#000000" stroke-opacity="0.3" stroke-width="3.2"/>
<circle clip-path="url(#clip322)" cx="1396.04" cy="715.61" r="14" fill="#009af9" fill-rule="evenodd" fill-opacity="0.3" stroke="#000000" stroke-opacity="0.3" stroke-width="3.2"/>
<circle clip-path="url(#clip322)" cx="1399.48" cy="757.14" r="14" fill="#009af9" fill-rule="evenodd" fill-opacity="0.3" stroke="#000000" stroke-opacity="0.3" stroke-width="3.2"/>
<circle clip-path="url(#clip322)" cx="1399.48" cy="713.284" r="14" fill="#009af9" fill-rule="evenodd" fill-opacity="0.3" stroke="#000000" stroke-opacity="0.3" stroke-width="3.2"/>
<circle clip-path="url(#clip322)" cx="1400.29" cy="735.212" r="14" fill="#009af9" fill-rule="evenodd" fill-opacity="0.3" stroke="#000000" stroke-opacity="0.3" stroke-width="3.2"/>
<circle clip-path="url(#clip322)" cx="1432.14" cy="735.212" r="14" fill="#009af9" fill-rule="evenodd" fill-opacity="0.3" stroke="#000000" stroke-opacity="0.3" stroke-width="3.2"/>
<circle clip-path="url(#clip322)" cx="1441.65" cy="749.534" r="14" fill="#009af9" fill-rule="evenodd" fill-opacity="0.3" stroke="#000000" stroke-opacity="0.3" stroke-width="3.2"/>
<circle clip-path="url(#clip322)" cx="1441.65" cy="720.89" r="14" fill="#009af9" fill-rule="evenodd" fill-opacity="0.3" stroke="#000000" stroke-opacity="0.3" stroke-width="3.2"/>
<circle clip-path="url(#clip322)" cx="1461.89" cy="735.212" r="14" fill="#009af9" fill-rule="evenodd" fill-opacity="0.3" stroke="#000000" stroke-opacity="0.3" stroke-width="3.2"/>
<polyline clip-path="url(#clip322)" style="stroke:#000003; stroke-linecap:butt; stroke-linejoin:round; stroke-width:8; stroke-opacity:1; fill:none" points="
  1198.46,755.814 1199.33,756.062 1206.58,756.113 1208.43,755.814 1213.84,754.62 1214.24,754.565 1220.8,753.316 1221.09,753.235 1221.35,753.316 1225.2,754.565 
  1228.34,755.609 1228.58,755.814 1230.2,757.062 1232.07,758.311 1234.21,759.559 1235.59,760.306 1236.34,760.808 1238.35,762.056 1240.66,763.305 1242.84,764.376 
  1243.23,764.554 1246,765.802 1249.02,767.051 1250.1,767.485 1252.51,768.299 1256.29,769.548 1257.35,769.9 1260.51,770.797 1264.6,771.961 1264.92,772.045 
  1269.57,773.294 1271.85,773.907 1274.32,774.542 1279.11,775.762 1279.22,775.791 1284.37,777.039 1286.36,777.516 1289.88,778.288 1293.61,779.102 1295.84,779.537 
  1300.86,780.518 1302.42,780.785 1308.11,781.77 1309.89,782.034 1315.37,782.853 1318.89,783.282 1322.62,783.741 1329.87,784.39 1332.66,784.531 1337.12,784.763 
  1344.38,784.807 1350.24,784.531 1351.63,784.469 1358.88,783.722 1361.48,783.282 1366.13,782.5 1368.1,782.034 1373.25,780.785 1373.38,780.752 1377.32,779.537 
  1380.64,778.452 1381.07,778.288 1384.31,777.039 1387.31,775.791 1387.89,775.548 1390.09,774.542 1392.67,773.294 1395.06,772.045 1395.14,772.001 1397.42,770.797 
  1399.61,769.548 1401.63,768.299 1402.39,767.81 1403.69,767.051 1405.72,765.802 1407.61,764.554 1409.35,763.305 1409.64,763.084 1411.44,762.056 1413.56,760.808 
  1415.61,759.559 1416.9,758.773 1418.07,758.311 1421.58,757.062 1424.15,756.274 1426.18,755.814 1431.4,754.857 1432.56,754.565 1438.12,753.316 1438.65,753.212 
  1441.77,752.068 1444.76,750.819 1445.91,750.298 1447.48,749.571 1449.93,748.322 1451.94,747.073 1453.16,746.123 1460.41,745.862 1460.61,745.825 1467.66,744.827 
  1468.14,744.576 1470.47,743.328 1472.17,742.079 1473.33,740.831 1474.05,739.582 1474.46,738.333 1474.66,737.085 1474.75,735.836 1474.75,734.588 1474.66,733.339 
  1474.46,732.091 1474.05,730.842 1473.33,729.593 1472.17,728.345 1470.47,727.096 1468.14,725.848 1467.66,725.597 1460.61,724.599 1460.41,724.562 1453.16,724.301 
  1451.94,723.35 1449.93,722.102 1447.48,720.853 1445.91,720.125 1444.76,719.605 1441.77,718.356 1438.65,717.212 1438.12,717.108 1432.56,715.859 1431.4,715.567 
  1426.18,714.61 1424.15,714.15 1421.58,713.362 1418.07,712.113 1416.9,711.651 1415.61,710.865 1413.56,709.616 1411.44,708.367 1409.64,707.34 1409.35,707.119 
  1407.61,705.87 1405.72,704.622 1403.69,703.373 1402.39,702.614 1401.63,702.125 1399.61,700.876 1397.42,699.627 1395.14,698.423 1395.06,698.379 1392.67,697.13 
  1390.09,695.882 1387.89,694.876 1387.31,694.633 1384.31,693.385 1381.07,692.136 1380.64,691.972 1377.32,690.887 1373.38,689.672 1373.25,689.639 1368.1,688.39 
  1366.13,687.924 1361.48,687.142 1358.88,686.702 1351.63,685.955 1350.24,685.893 1344.38,685.617 1337.12,685.661 1332.66,685.893 1329.87,686.034 1322.62,686.683 
  1318.89,687.142 1315.37,687.571 1309.89,688.39 1308.11,688.654 1302.42,689.639 1300.86,689.906 1295.84,690.887 1293.61,691.322 1289.88,692.136 1286.36,692.908 
  1284.37,693.385 1279.22,694.633 1279.11,694.662 1274.32,695.882 1271.85,696.517 1269.57,697.13 1264.92,698.379 1264.6,698.463 1260.51,699.627 1257.35,700.523 
  1256.29,700.876 1252.51,702.125 1250.1,702.939 1249.02,703.373 1246,704.622 1243.23,705.87 1242.84,706.048 1240.66,707.119 1238.35,708.367 1236.34,709.616 
  1235.59,710.118 1234.21,710.865 1232.07,712.113 1230.2,713.362 1228.58,714.61 1228.34,714.815 1225.2,715.859 1221.35,717.108 1221.09,717.189 1220.8,717.108 
  1214.24,715.859 1213.84,715.804 1208.43,714.61 1206.58,714.311 1199.33,714.362 1198.46,714.61 1194.11,715.859 1192.08,716.493 1190.92,717.108 1188.8,718.356 
  1187.08,719.605 1185.73,720.853 1184.83,721.941 1184.65,722.102 1183.36,723.35 1182.28,724.599 1181.4,725.848 1180.69,727.096 1180.13,728.345 1179.7,729.593 
  1179.38,730.842 1179.15,732.091 1179,733.339 1178.93,734.588 1178.93,735.836 1179,737.085 1179.15,738.333 1179.38,739.582 1179.7,740.831 1180.13,742.079 
  1180.69,743.328 1181.4,744.576 1182.28,745.825 1183.36,747.073 1184.65,748.322 1184.83,748.483 1185.73,749.571 1187.08,750.819 1188.8,752.068 1190.92,753.316 
  1192.08,753.931 1194.11,754.565 1198.46,755.814 
  "/>
<circle clip-path="url(#clip322)" cx="469.797" cy="735.212" r="14" fill="#009af9" fill-rule="evenodd" fill-opacity="0.3" stroke="#000000" stroke-opacity="0.3" stroke-width="3.2"/>
<circle clip-path="url(#clip322)" cx="483.067" cy="735.212" r="14" fill="#009af9" fill-rule="evenodd" fill-opacity="0.3" stroke="#000000" stroke-opacity="0.3" stroke-width="3.2"/>
<circle clip-path="url(#clip322)" cx="505.89" cy="735.212" r="14" fill="#009af9" fill-rule="evenodd" fill-opacity="0.3" stroke="#000000" stroke-opacity="0.3" stroke-width="3.2"/>
<circle clip-path="url(#clip322)" cx="524.281" cy="742.593" r="14" fill="#009af9" fill-rule="evenodd" fill-opacity="0.3" stroke="#000000" stroke-opacity="0.3" stroke-width="3.2"/>
<circle clip-path="url(#clip322)" cx="524.281" cy="727.831" r="14" fill="#009af9" fill-rule="evenodd" fill-opacity="0.3" stroke="#000000" stroke-opacity="0.3" stroke-width="3.2"/>
<circle clip-path="url(#clip322)" cx="534.814" cy="735.212" r="14" fill="#009af9" fill-rule="evenodd" fill-opacity="0.3" stroke="#000000" stroke-opacity="0.3" stroke-width="3.2"/>
<circle clip-path="url(#clip322)" cx="557.438" cy="755.434" r="14" fill="#009af9" fill-rule="evenodd" fill-opacity="0.3" stroke="#000000" stroke-opacity="0.3" stroke-width="3.2"/>
<circle clip-path="url(#clip322)" cx="557.438" cy="714.99" r="14" fill="#009af9" fill-rule="evenodd" fill-opacity="0.3" stroke="#000000" stroke-opacity="0.3" stroke-width="3.2"/>
<circle clip-path="url(#clip322)" cx="563.241" cy="803.3" r="14" fill="#009af9" fill-rule="evenodd" fill-opacity="0.3" stroke="#000000" stroke-opacity="0.3" stroke-width="3.2"/>
<circle clip-path="url(#clip322)" cx="563.241" cy="667.124" r="14" fill="#009af9" fill-rule="evenodd" fill-opacity="0.3" stroke="#000000" stroke-opacity="0.3" stroke-width="3.2"/>
<circle clip-path="url(#clip322)" cx="568.94" cy="735.212" r="14" fill="#009af9" fill-rule="evenodd" fill-opacity="0.3" stroke="#000000" stroke-opacity="0.3" stroke-width="3.2"/>
<circle clip-path="url(#clip322)" cx="588.34" cy="780.282" r="14" fill="#009af9" fill-rule="evenodd" fill-opacity="0.3" stroke="#000000" stroke-opacity="0.3" stroke-width="3.2"/>
<circle clip-path="url(#clip322)" cx="588.34" cy="690.142" r="14" fill="#009af9" fill-rule="evenodd" fill-opacity="0.3" stroke="#000000" stroke-opacity="0.3" stroke-width="3.2"/>
<circle clip-path="url(#clip322)" cx="600.35" cy="777.722" r="14" fill="#009af9" fill-rule="evenodd" fill-opacity="0.3" stroke="#000000" stroke-opacity="0.3" stroke-width="3.2"/>
<circle clip-path="url(#clip322)" cx="600.35" cy="692.702" r="14" fill="#009af9" fill-rule="evenodd" fill-opacity="0.3" stroke="#000000" stroke-opacity="0.3" stroke-width="3.2"/>
<circle clip-path="url(#clip322)" cx="605.915" cy="745.383" r="14" fill="#009af9" fill-rule="evenodd" fill-opacity="0.3" stroke="#000000" stroke-opacity="0.3" stroke-width="3.2"/>
<circle clip-path="url(#clip322)" cx="605.915" cy="725.041" r="14" fill="#009af9" fill-rule="evenodd" fill-opacity="0.3" stroke="#000000" stroke-opacity="0.3" stroke-width="3.2"/>
<circle clip-path="url(#clip322)" cx="639.197" cy="753.434" r="14" fill="#009af9" fill-rule="evenodd" fill-opacity="0.3" stroke="#000000" stroke-opacity="0.3" stroke-width="3.2"/>
<circle clip-path="url(#clip322)" cx="639.197" cy="716.99" r="14" fill="#009af9" fill-rule="evenodd" fill-opacity="0.3" stroke="#000000" stroke-opacity="0.3" stroke-width="3.2"/>
<circle clip-path="url(#clip322)" cx="656.937" cy="779.584" r="14" fill="#009af9" fill-rule="evenodd" fill-opacity="0.3" stroke="#000000" stroke-opacity="0.3" stroke-width="3.2"/>
<circle clip-path="url(#clip322)" cx="656.937" cy="690.839" r="14" fill="#009af9" fill-rule="evenodd" fill-opacity="0.3" stroke="#000000" stroke-opacity="0.3" stroke-width="3.2"/>
<circle clip-path="url(#clip322)" cx="659.269" cy="741.081" r="14" fill="#009af9" fill-rule="evenodd" fill-opacity="0.3" stroke="#000000" stroke-opacity="0.3" stroke-width="3.2"/>
<circle clip-path="url(#clip322)" cx="659.269" cy="729.343" r="14" fill="#009af9" fill-rule="evenodd" fill-opacity="0.3" stroke="#000000" stroke-opacity="0.3" stroke-width="3.2"/>
<circle clip-path="url(#clip322)" cx="705.441" cy="735.212" r="14" fill="#009af9" fill-rule="evenodd" fill-opacity="0.3" stroke="#000000" stroke-opacity="0.3" stroke-width="3.2"/>
<polyline clip-path="url(#clip322)" style="stroke:#000003; stroke-linecap:butt; stroke-linejoin:round; stroke-width:8; stroke-opacity:1; fill:none" points="
  460.476,759.146 460.751,759.333 463.237,760.796 466.226,762.447 469.423,764.098 470.589,764.698 473.054,765.748 476.889,767.399 480.428,768.9 480.82,769.049 
  484.972,770.7 489.184,772.351 490.266,772.784 493.455,774.001 497.796,775.652 500.105,776.533 502.154,777.302 506.525,778.953 509.943,780.23 510.924,780.604 
  515.222,782.254 519.667,783.905 519.782,783.948 523.933,785.556 528.44,787.206 529.62,787.632 533.056,788.857 537.97,790.507 539.459,790.995 543.404,792.158 
  549.297,793.793 549.369,793.809 556.84,795.459 559.135,795.951 566.907,797.11 568.974,797.417 578.812,798.214 588.651,798.319 598.489,797.709 602.773,797.11 
  608.328,796.337 612.373,795.459 618.166,794.159 619.37,793.809 624.901,792.158 628.005,791.177 629.864,790.507 634.281,788.857 637.843,787.424 638.366,787.206 
  642.279,785.556 645.921,783.905 647.682,783.074 649.494,782.254 653.047,780.604 656.401,778.953 657.52,778.392 659.927,777.302 663.515,775.652 666.999,774.001 
  667.359,773.834 670.907,772.351 674.864,770.7 677.197,769.75 678.933,769.049 683.108,767.399 687.035,765.838 687.254,765.748 691.395,764.098 695.377,762.447 
  696.874,761.825 699.627,760.796 704.305,759.146 706.712,758.372 709.022,757.495 713.663,755.845 716.551,754.906 717.821,754.194 720.617,752.543 722.913,750.893 
  724.69,749.242 725.959,747.592 726.389,746.833 727.258,745.941 728.652,744.29 729.754,742.64 730.592,740.989 731.193,739.338 731.579,737.688 731.768,736.037 
  731.768,734.387 731.579,732.736 731.193,731.085 730.592,729.435 729.754,727.784 728.652,726.134 727.258,724.483 726.389,723.591 725.959,722.832 724.69,721.182 
  722.913,719.531 720.617,717.881 717.821,716.23 716.551,715.518 713.663,714.579 709.022,712.929 706.712,712.052 704.305,711.278 699.627,709.628 696.874,708.599 
  695.377,707.977 691.395,706.326 687.254,704.676 687.035,704.586 683.108,703.025 678.933,701.374 677.197,700.674 674.864,699.724 670.907,698.073 667.359,696.589 
  666.999,696.423 663.515,694.772 659.927,693.121 657.52,692.031 656.401,691.471 653.047,689.82 649.494,688.17 647.682,687.35 645.921,686.519 642.279,684.868 
  638.366,683.218 637.843,683 634.281,681.567 629.864,679.917 628.005,679.247 624.901,678.266 619.37,676.615 618.166,676.265 612.373,674.965 608.328,674.087 
  602.773,673.314 598.489,672.715 588.651,672.105 578.812,672.21 568.974,673.007 566.907,673.314 559.135,674.473 556.84,674.965 549.369,676.615 549.297,676.631 
  543.404,678.266 539.459,679.429 537.97,679.917 533.056,681.567 529.62,682.792 528.44,683.218 523.933,684.868 519.782,686.476 519.667,686.519 515.222,688.17 
  510.924,689.82 509.943,690.194 506.525,691.471 502.154,693.121 500.105,693.891 497.796,694.772 493.455,696.423 490.266,697.64 489.184,698.073 484.972,699.724 
  480.82,701.374 480.428,701.524 476.889,703.025 473.054,704.676 470.589,705.726 469.423,706.326 466.226,707.977 463.237,709.628 460.751,711.091 460.476,711.278 
  458.073,712.929 455.973,714.579 454.186,716.23 452.716,717.881 451.558,719.531 450.912,720.708 450.5,721.182 449.182,722.832 448.077,724.483 447.171,726.134 
  446.449,727.784 445.893,729.435 445.491,731.085 445.229,732.736 445.101,734.387 445.101,736.037 445.229,737.688 445.491,739.338 445.893,740.989 446.449,742.64 
  447.171,744.29 448.077,745.941 449.182,747.592 450.5,749.242 450.912,749.716 451.558,750.893 452.716,752.543 454.186,754.194 455.973,755.845 458.073,757.495 
  460.476,759.146 
  "/>
</svg>
