<?xml version="1.0" encoding="utf-8"?>
<svg xmlns="http://www.w3.org/2000/svg" xmlns:xlink="http://www.w3.org/1999/xlink" width="600" height="400" viewBox="0 0 2400 1600">
<defs>
  <clipPath id="clip250">
    <rect x="0" y="0" width="2400" height="1600"/>
  </clipPath>
</defs>
<path clip-path="url(#clip250)" d="
M0 1600 L2400 1600 L2400 0 L0 0  Z
  " fill="#ffffff" fill-rule="evenodd" fill-opacity="1"/>
<defs>
  <clipPath id="clip251">
    <rect x="480" y="0" width="1681" height="1600"/>
  </clipPath>
</defs>
<path clip-path="url(#clip250)" d="
M286.139 853.304 L2352.76 853.304 L2352.76 617.12 L286.139 617.12  Z
  " fill="#ffffff" fill-rule="evenodd" fill-opacity="1"/>
<defs>
  <clipPath id="clip252">
    <rect x="286" y="617" width="2068" height="237"/>
  </clipPath>
</defs>
<polyline clip-path="url(#clip250)" style="stroke:#000000; stroke-linecap:butt; stroke-linejoin:round; stroke-width:4; stroke-opacity:1; fill:none" points="
  286.139,853.304 2352.76,853.304 
  "/>
<polyline clip-path="url(#clip250)" style="stroke:#000000; stroke-linecap:butt; stroke-linejoin:round; stroke-width:4; stroke-opacity:1; fill:none" points="
  483.888,853.304 483.888,850.061 
  "/>
<polyline clip-path="url(#clip250)" style="stroke:#000000; stroke-linecap:butt; stroke-linejoin:round; stroke-width:4; stroke-opacity:1; fill:none" points="
  762.408,853.304 762.408,850.061 
  "/>
<polyline clip-path="url(#clip250)" style="stroke:#000000; stroke-linecap:butt; stroke-linejoin:round; stroke-width:4; stroke-opacity:1; fill:none" points="
  1040.93,853.304 1040.93,850.061 
  "/>
<polyline clip-path="url(#clip250)" style="stroke:#000000; stroke-linecap:butt; stroke-linejoin:round; stroke-width:4; stroke-opacity:1; fill:none" points="
  1319.45,853.304 1319.45,850.061 
  "/>
<polyline clip-path="url(#clip250)" style="stroke:#000000; stroke-linecap:butt; stroke-linejoin:round; stroke-width:4; stroke-opacity:1; fill:none" points="
  1597.97,853.304 1597.97,850.061 
  "/>
<polyline clip-path="url(#clip250)" style="stroke:#000000; stroke-linecap:butt; stroke-linejoin:round; stroke-width:4; stroke-opacity:1; fill:none" points="
  1876.49,853.304 1876.49,850.061 
  "/>
<polyline clip-path="url(#clip250)" style="stroke:#000000; stroke-linecap:butt; stroke-linejoin:round; stroke-width:4; stroke-opacity:1; fill:none" points="
  2155.01,853.304 2155.01,850.061 
  "/>
<path clip-path="url(#clip250)" d="M415.833 898.876 L445.509 898.876 L445.509 902.811 L415.833 902.811 L415.833 898.876 Z" fill="#000000" fill-rule="evenodd" fill-opacity="1" /><path clip-path="url(#clip250)" d="M465.601 884.223 Q461.99 884.223 460.161 887.788 Q458.356 891.329 458.356 898.459 Q458.356 905.566 460.161 909.13 Q461.99 912.672 465.601 912.672 Q469.235 912.672 471.041 909.13 Q472.87 905.566 472.87 898.459 Q472.87 891.329 471.041 887.788 Q469.235 884.223 465.601 884.223 M465.601 880.519 Q471.411 880.519 474.467 885.126 Q477.546 889.709 477.546 898.459 Q477.546 907.186 474.467 911.792 Q471.411 916.376 465.601 916.376 Q459.791 916.376 456.712 911.792 Q453.657 907.186 453.657 898.459 Q453.657 889.709 456.712 885.126 Q459.791 880.519 465.601 880.519 Z" fill="#000000" fill-rule="evenodd" fill-opacity="1" /><path clip-path="url(#clip250)" d="M485.763 909.825 L490.647 909.825 L490.647 915.704 L485.763 915.704 L485.763 909.825 Z" fill="#000000" fill-rule="evenodd" fill-opacity="1" /><path clip-path="url(#clip250)" d="M514.999 897.07 Q518.356 897.788 520.231 900.056 Q522.129 902.325 522.129 905.658 Q522.129 910.774 518.61 913.575 Q515.092 916.376 508.61 916.376 Q506.434 916.376 504.119 915.936 Q501.828 915.519 499.374 914.663 L499.374 910.149 Q501.319 911.283 503.633 911.862 Q505.948 912.44 508.471 912.44 Q512.869 912.44 515.161 910.704 Q517.476 908.968 517.476 905.658 Q517.476 902.603 515.323 900.89 Q513.194 899.154 509.374 899.154 L505.346 899.154 L505.346 895.311 L509.559 895.311 Q513.008 895.311 514.837 893.945 Q516.666 892.556 516.666 889.964 Q516.666 887.302 514.768 885.89 Q512.893 884.455 509.374 884.455 Q507.453 884.455 505.254 884.871 Q503.055 885.288 500.416 886.167 L500.416 882.001 Q503.078 881.26 505.393 880.89 Q507.731 880.519 509.791 880.519 Q515.115 880.519 518.217 882.95 Q521.318 885.357 521.318 889.478 Q521.318 892.348 519.675 894.339 Q518.031 896.306 514.999 897.07 Z" fill="#000000" fill-rule="evenodd" fill-opacity="1" /><path clip-path="url(#clip250)" d="M531.041 881.144 L549.397 881.144 L549.397 885.08 L535.323 885.08 L535.323 893.552 Q536.342 893.204 537.36 893.042 Q538.379 892.857 539.397 892.857 Q545.184 892.857 548.564 896.029 Q551.943 899.2 551.943 904.616 Q551.943 910.195 548.471 913.297 Q544.999 916.376 538.679 916.376 Q536.504 916.376 534.235 916.005 Q531.99 915.635 529.582 914.894 L529.582 910.195 Q531.666 911.329 533.888 911.885 Q536.11 912.44 538.587 912.44 Q542.591 912.44 544.929 910.334 Q547.267 908.228 547.267 904.616 Q547.267 901.005 544.929 898.899 Q542.591 896.792 538.587 896.792 Q536.712 896.792 534.837 897.209 Q532.985 897.626 531.041 898.505 L531.041 881.144 Z" fill="#000000" fill-rule="evenodd" fill-opacity="1" /><path clip-path="url(#clip250)" d="M693.855 898.876 L723.531 898.876 L723.531 902.811 L693.855 902.811 L693.855 898.876 Z" fill="#000000" fill-rule="evenodd" fill-opacity="1" /><path clip-path="url(#clip250)" d="M743.623 884.223 Q740.012 884.223 738.183 887.788 Q736.378 891.329 736.378 898.459 Q736.378 905.566 738.183 909.13 Q740.012 912.672 743.623 912.672 Q747.258 912.672 749.063 909.13 Q750.892 905.566 750.892 898.459 Q750.892 891.329 749.063 887.788 Q747.258 884.223 743.623 884.223 M743.623 880.519 Q749.433 880.519 752.489 885.126 Q755.568 889.709 755.568 898.459 Q755.568 907.186 752.489 911.792 Q749.433 916.376 743.623 916.376 Q737.813 916.376 734.734 911.792 Q731.679 907.186 731.679 898.459 Q731.679 889.709 734.734 885.126 Q737.813 880.519 743.623 880.519 Z" fill="#000000" fill-rule="evenodd" fill-opacity="1" /><path clip-path="url(#clip250)" d="M763.785 909.825 L768.669 909.825 L768.669 915.704 L763.785 915.704 L763.785 909.825 Z" fill="#000000" fill-rule="evenodd" fill-opacity="1" /><path clip-path="url(#clip250)" d="M793.021 897.07 Q796.378 897.788 798.253 900.056 Q800.151 902.325 800.151 905.658 Q800.151 910.774 796.632 913.575 Q793.114 916.376 786.632 916.376 Q784.456 916.376 782.142 915.936 Q779.85 915.519 777.396 914.663 L777.396 910.149 Q779.341 911.283 781.655 911.862 Q783.97 912.44 786.493 912.44 Q790.892 912.44 793.183 910.704 Q795.498 908.968 795.498 905.658 Q795.498 902.603 793.345 900.89 Q791.216 899.154 787.396 899.154 L783.368 899.154 L783.368 895.311 L787.581 895.311 Q791.03 895.311 792.859 893.945 Q794.688 892.556 794.688 889.964 Q794.688 887.302 792.79 885.89 Q790.915 884.455 787.396 884.455 Q785.475 884.455 783.276 884.871 Q781.077 885.288 778.438 886.167 L778.438 882.001 Q781.1 881.26 783.415 880.89 Q785.753 880.519 787.813 880.519 Q793.137 880.519 796.239 882.95 Q799.341 885.357 799.341 889.478 Q799.341 892.348 797.697 894.339 Q796.054 896.306 793.021 897.07 Z" fill="#000000" fill-rule="evenodd" fill-opacity="1" /><path clip-path="url(#clip250)" d="M819.016 884.223 Q815.405 884.223 813.577 887.788 Q811.771 891.329 811.771 898.459 Q811.771 905.566 813.577 909.13 Q815.405 912.672 819.016 912.672 Q822.651 912.672 824.456 909.13 Q826.285 905.566 826.285 898.459 Q826.285 891.329 824.456 887.788 Q822.651 884.223 819.016 884.223 M819.016 880.519 Q824.827 880.519 827.882 885.126 Q830.961 889.709 830.961 898.459 Q830.961 907.186 827.882 911.792 Q824.827 916.376 819.016 916.376 Q813.206 916.376 810.128 911.792 Q807.072 907.186 807.072 898.459 Q807.072 889.709 810.128 885.126 Q813.206 880.519 819.016 880.519 Z" fill="#000000" fill-rule="evenodd" fill-opacity="1" /><path clip-path="url(#clip250)" d="M972.873 898.876 L1002.55 898.876 L1002.55 902.811 L972.873 902.811 L972.873 898.876 Z" fill="#000000" fill-rule="evenodd" fill-opacity="1" /><path clip-path="url(#clip250)" d="M1022.64 884.223 Q1019.03 884.223 1017.2 887.788 Q1015.4 891.329 1015.4 898.459 Q1015.4 905.566 1017.2 909.13 Q1019.03 912.672 1022.64 912.672 Q1026.27 912.672 1028.08 909.13 Q1029.91 905.566 1029.91 898.459 Q1029.91 891.329 1028.08 887.788 Q1026.27 884.223 1022.64 884.223 M1022.64 880.519 Q1028.45 880.519 1031.51 885.126 Q1034.59 889.709 1034.59 898.459 Q1034.59 907.186 1031.51 911.792 Q1028.45 916.376 1022.64 916.376 Q1016.83 916.376 1013.75 911.792 Q1010.7 907.186 1010.7 898.459 Q1010.7 889.709 1013.75 885.126 Q1016.83 880.519 1022.64 880.519 Z" fill="#000000" fill-rule="evenodd" fill-opacity="1" /><path clip-path="url(#clip250)" d="M1042.8 909.825 L1047.69 909.825 L1047.69 915.704 L1042.8 915.704 L1042.8 909.825 Z" fill="#000000" fill-rule="evenodd" fill-opacity="1" /><path clip-path="url(#clip250)" d="M1061.9 911.769 L1078.22 911.769 L1078.22 915.704 L1056.27 915.704 L1056.27 911.769 Q1058.94 909.015 1063.52 904.385 Q1068.13 899.732 1069.31 898.39 Q1071.55 895.867 1072.43 894.13 Q1073.33 892.371 1073.33 890.681 Q1073.33 887.927 1071.39 886.191 Q1069.47 884.455 1066.37 884.455 Q1064.17 884.455 1061.71 885.218 Q1059.28 885.982 1056.51 887.533 L1056.51 882.811 Q1059.33 881.677 1061.78 881.098 Q1064.24 880.519 1066.27 880.519 Q1071.65 880.519 1074.84 883.205 Q1078.03 885.89 1078.03 890.38 Q1078.03 892.51 1077.22 894.431 Q1076.44 896.329 1074.33 898.922 Q1073.75 899.593 1070.65 902.811 Q1067.55 906.005 1061.9 911.769 Z" fill="#000000" fill-rule="evenodd" fill-opacity="1" /><path clip-path="url(#clip250)" d="M1088.08 881.144 L1106.44 881.144 L1106.44 885.08 L1092.36 885.08 L1092.36 893.552 Q1093.38 893.204 1094.4 893.042 Q1095.42 892.857 1096.44 892.857 Q1102.22 892.857 1105.6 896.029 Q1108.98 899.2 1108.98 904.616 Q1108.98 910.195 1105.51 913.297 Q1102.04 916.376 1095.72 916.376 Q1093.54 916.376 1091.27 916.005 Q1089.03 915.635 1086.62 914.894 L1086.62 910.195 Q1088.71 911.329 1090.93 911.885 Q1093.15 912.44 1095.63 912.44 Q1099.63 912.44 1101.97 910.334 Q1104.31 908.228 1104.31 904.616 Q1104.31 901.005 1101.97 898.899 Q1099.63 896.792 1095.63 896.792 Q1093.75 896.792 1091.88 897.209 Q1090.02 897.626 1088.08 898.505 L1088.08 881.144 Z" fill="#000000" fill-rule="evenodd" fill-opacity="1" /><path clip-path="url(#clip250)" d="M1250.89 898.876 L1280.57 898.876 L1280.57 902.811 L1250.89 902.811 L1250.89 898.876 Z" fill="#000000" fill-rule="evenodd" fill-opacity="1" /><path clip-path="url(#clip250)" d="M1300.66 884.223 Q1297.05 884.223 1295.22 887.788 Q1293.42 891.329 1293.42 898.459 Q1293.42 905.566 1295.22 909.13 Q1297.05 912.672 1300.66 912.672 Q1304.3 912.672 1306.1 909.13 Q1307.93 905.566 1307.93 898.459 Q1307.93 891.329 1306.1 887.788 Q1304.3 884.223 1300.66 884.223 M1300.66 880.519 Q1306.47 880.519 1309.53 885.126 Q1312.61 889.709 1312.61 898.459 Q1312.61 907.186 1309.53 911.792 Q1306.47 916.376 1300.66 916.376 Q1294.85 916.376 1291.77 911.792 Q1288.72 907.186 1288.72 898.459 Q1288.72 889.709 1291.77 885.126 Q1294.85 880.519 1300.66 880.519 Z" fill="#000000" fill-rule="evenodd" fill-opacity="1" /><path clip-path="url(#clip250)" d="M1320.82 909.825 L1325.71 909.825 L1325.71 915.704 L1320.82 915.704 L1320.82 909.825 Z" fill="#000000" fill-rule="evenodd" fill-opacity="1" /><path clip-path="url(#clip250)" d="M1339.92 911.769 L1356.24 911.769 L1356.24 915.704 L1334.3 915.704 L1334.3 911.769 Q1336.96 909.015 1341.54 904.385 Q1346.15 899.732 1347.33 898.39 Q1349.57 895.867 1350.45 894.13 Q1351.36 892.371 1351.36 890.681 Q1351.36 887.927 1349.41 886.191 Q1347.49 884.455 1344.39 884.455 Q1342.19 884.455 1339.74 885.218 Q1337.31 885.982 1334.53 887.533 L1334.53 882.811 Q1337.35 881.677 1339.81 881.098 Q1342.26 880.519 1344.3 880.519 Q1349.67 880.519 1352.86 883.205 Q1356.06 885.89 1356.06 890.38 Q1356.06 892.51 1355.25 894.431 Q1354.46 896.329 1352.35 898.922 Q1351.77 899.593 1348.67 902.811 Q1345.57 906.005 1339.92 911.769 Z" fill="#000000" fill-rule="evenodd" fill-opacity="1" /><path clip-path="url(#clip250)" d="M1376.06 884.223 Q1372.44 884.223 1370.62 887.788 Q1368.81 891.329 1368.81 898.459 Q1368.81 905.566 1370.62 909.13 Q1372.44 912.672 1376.06 912.672 Q1379.69 912.672 1381.5 909.13 Q1383.32 905.566 1383.32 898.459 Q1383.32 891.329 1381.5 887.788 Q1379.69 884.223 1376.06 884.223 M1376.06 880.519 Q1381.87 880.519 1384.92 885.126 Q1388 889.709 1388 898.459 Q1388 907.186 1384.92 911.792 Q1381.87 916.376 1376.06 916.376 Q1370.25 916.376 1367.17 911.792 Q1364.11 907.186 1364.11 898.459 Q1364.11 889.709 1367.17 885.126 Q1370.25 880.519 1376.06 880.519 Z" fill="#000000" fill-rule="evenodd" fill-opacity="1" /><path clip-path="url(#clip250)" d="M1529.91 898.876 L1559.59 898.876 L1559.59 902.811 L1529.91 902.811 L1529.91 898.876 Z" fill="#000000" fill-rule="evenodd" fill-opacity="1" /><path clip-path="url(#clip250)" d="M1579.68 884.223 Q1576.07 884.223 1574.24 887.788 Q1572.44 891.329 1572.44 898.459 Q1572.44 905.566 1574.24 909.13 Q1576.07 912.672 1579.68 912.672 Q1583.31 912.672 1585.12 909.13 Q1586.95 905.566 1586.95 898.459 Q1586.95 891.329 1585.12 887.788 Q1583.31 884.223 1579.68 884.223 M1579.68 880.519 Q1585.49 880.519 1588.55 885.126 Q1591.62 889.709 1591.62 898.459 Q1591.62 907.186 1588.55 911.792 Q1585.49 916.376 1579.68 916.376 Q1573.87 916.376 1570.79 911.792 Q1567.74 907.186 1567.74 898.459 Q1567.74 889.709 1570.79 885.126 Q1573.87 880.519 1579.68 880.519 Z" fill="#000000" fill-rule="evenodd" fill-opacity="1" /><path clip-path="url(#clip250)" d="M1599.84 909.825 L1604.73 909.825 L1604.73 915.704 L1599.84 915.704 L1599.84 909.825 Z" fill="#000000" fill-rule="evenodd" fill-opacity="1" /><path clip-path="url(#clip250)" d="M1615.72 911.769 L1623.36 911.769 L1623.36 885.404 L1615.05 887.07 L1615.05 882.811 L1623.31 881.144 L1627.99 881.144 L1627.99 911.769 L1635.63 911.769 L1635.63 915.704 L1615.72 915.704 L1615.72 911.769 Z" fill="#000000" fill-rule="evenodd" fill-opacity="1" /><path clip-path="url(#clip250)" d="M1645.12 881.144 L1663.48 881.144 L1663.48 885.08 L1649.4 885.08 L1649.4 893.552 Q1650.42 893.204 1651.44 893.042 Q1652.46 892.857 1653.48 892.857 Q1659.26 892.857 1662.64 896.029 Q1666.02 899.2 1666.02 904.616 Q1666.02 910.195 1662.55 913.297 Q1659.08 916.376 1652.76 916.376 Q1650.58 916.376 1648.31 916.005 Q1646.07 915.635 1643.66 914.894 L1643.66 910.195 Q1645.74 911.329 1647.97 911.885 Q1650.19 912.44 1652.67 912.44 Q1656.67 912.44 1659.01 910.334 Q1661.35 908.228 1661.35 904.616 Q1661.35 901.005 1659.01 898.899 Q1656.67 896.792 1652.67 896.792 Q1650.79 896.792 1648.92 897.209 Q1647.06 897.626 1645.12 898.505 L1645.12 881.144 Z" fill="#000000" fill-rule="evenodd" fill-opacity="1" /><path clip-path="url(#clip250)" d="M1807.93 898.876 L1837.61 898.876 L1837.61 902.811 L1807.93 902.811 L1807.93 898.876 Z" fill="#000000" fill-rule="evenodd" fill-opacity="1" /><path clip-path="url(#clip250)" d="M1857.7 884.223 Q1854.09 884.223 1852.26 887.788 Q1850.46 891.329 1850.46 898.459 Q1850.46 905.566 1852.26 909.13 Q1854.09 912.672 1857.7 912.672 Q1861.34 912.672 1863.14 909.13 Q1864.97 905.566 1864.97 898.459 Q1864.97 891.329 1863.14 887.788 Q1861.34 884.223 1857.7 884.223 M1857.7 880.519 Q1863.51 880.519 1866.57 885.126 Q1869.65 889.709 1869.65 898.459 Q1869.65 907.186 1866.57 911.792 Q1863.51 916.376 1857.7 916.376 Q1851.89 916.376 1848.81 911.792 Q1845.76 907.186 1845.76 898.459 Q1845.76 889.709 1848.81 885.126 Q1851.89 880.519 1857.7 880.519 Z" fill="#000000" fill-rule="evenodd" fill-opacity="1" /><path clip-path="url(#clip250)" d="M1877.86 909.825 L1882.75 909.825 L1882.75 915.704 L1877.86 915.704 L1877.86 909.825 Z" fill="#000000" fill-rule="evenodd" fill-opacity="1" /><path clip-path="url(#clip250)" d="M1893.74 911.769 L1901.38 911.769 L1901.38 885.404 L1893.07 887.07 L1893.07 882.811 L1901.34 881.144 L1906.01 881.144 L1906.01 911.769 L1913.65 911.769 L1913.65 915.704 L1893.74 915.704 L1893.74 911.769 Z" fill="#000000" fill-rule="evenodd" fill-opacity="1" /><path clip-path="url(#clip250)" d="M1933.1 884.223 Q1929.48 884.223 1927.66 887.788 Q1925.85 891.329 1925.85 898.459 Q1925.85 905.566 1927.66 909.13 Q1929.48 912.672 1933.1 912.672 Q1936.73 912.672 1938.54 909.13 Q1940.36 905.566 1940.36 898.459 Q1940.36 891.329 1938.54 887.788 Q1936.73 884.223 1933.1 884.223 M1933.1 880.519 Q1938.91 880.519 1941.96 885.126 Q1945.04 889.709 1945.04 898.459 Q1945.04 907.186 1941.96 911.792 Q1938.91 916.376 1933.1 916.376 Q1927.29 916.376 1924.21 911.792 Q1921.15 907.186 1921.15 898.459 Q1921.15 889.709 1924.21 885.126 Q1927.29 880.519 1933.1 880.519 Z" fill="#000000" fill-rule="evenodd" fill-opacity="1" /><path clip-path="url(#clip250)" d="M2086.95 898.876 L2116.63 898.876 L2116.63 902.811 L2086.95 902.811 L2086.95 898.876 Z" fill="#000000" fill-rule="evenodd" fill-opacity="1" /><path clip-path="url(#clip250)" d="M2136.72 884.223 Q2133.11 884.223 2131.28 887.788 Q2129.47 891.329 2129.47 898.459 Q2129.47 905.566 2131.28 909.13 Q2133.11 912.672 2136.72 912.672 Q2140.35 912.672 2142.16 909.13 Q2143.99 905.566 2143.99 898.459 Q2143.99 891.329 2142.16 887.788 Q2140.35 884.223 2136.72 884.223 M2136.72 880.519 Q2142.53 880.519 2145.59 885.126 Q2148.66 889.709 2148.66 898.459 Q2148.66 907.186 2145.59 911.792 Q2142.53 916.376 2136.72 916.376 Q2130.91 916.376 2127.83 911.792 Q2124.78 907.186 2124.78 898.459 Q2124.78 889.709 2127.83 885.126 Q2130.91 880.519 2136.72 880.519 Z" fill="#000000" fill-rule="evenodd" fill-opacity="1" /><path clip-path="url(#clip250)" d="M2156.88 909.825 L2161.77 909.825 L2161.77 915.704 L2156.88 915.704 L2156.88 909.825 Z" fill="#000000" fill-rule="evenodd" fill-opacity="1" /><path clip-path="url(#clip250)" d="M2181.95 884.223 Q2178.34 884.223 2176.51 887.788 Q2174.71 891.329 2174.71 898.459 Q2174.71 905.566 2176.51 909.13 Q2178.34 912.672 2181.95 912.672 Q2185.59 912.672 2187.39 909.13 Q2189.22 905.566 2189.22 898.459 Q2189.22 891.329 2187.39 887.788 Q2185.59 884.223 2181.95 884.223 M2181.95 880.519 Q2187.76 880.519 2190.82 885.126 Q2193.9 889.709 2193.9 898.459 Q2193.9 907.186 2190.82 911.792 Q2187.76 916.376 2181.95 916.376 Q2176.14 916.376 2173.06 911.792 Q2170.01 907.186 2170.01 898.459 Q2170.01 889.709 2173.06 885.126 Q2176.14 880.519 2181.95 880.519 Z" fill="#000000" fill-rule="evenodd" fill-opacity="1" /><path clip-path="url(#clip250)" d="M2202.16 881.144 L2220.52 881.144 L2220.52 885.08 L2206.44 885.08 L2206.44 893.552 Q2207.46 893.204 2208.48 893.042 Q2209.5 892.857 2210.52 892.857 Q2216.3 892.857 2219.68 896.029 Q2223.06 899.2 2223.06 904.616 Q2223.06 910.195 2219.59 913.297 Q2216.12 916.376 2209.8 916.376 Q2207.62 916.376 2205.35 916.005 Q2203.11 915.635 2200.7 914.894 L2200.7 910.195 Q2202.78 911.329 2205.01 911.885 Q2207.23 912.44 2209.71 912.44 Q2213.71 912.44 2216.05 910.334 Q2218.39 908.228 2218.39 904.616 Q2218.39 901.005 2216.05 898.899 Q2213.71 896.792 2209.71 896.792 Q2207.83 896.792 2205.96 897.209 Q2204.1 897.626 2202.16 898.505 L2202.16 881.144 Z" fill="#000000" fill-rule="evenodd" fill-opacity="1" /><path clip-path="url(#clip250)" d="M1262.03 975.888 Q1264.1 976.589 1266.04 978.88 Q1268.01 981.172 1269.99 985.182 L1276.51 998.168 L1269.6 998.168 L1263.52 985.978 Q1261.17 981.204 1258.94 979.644 Q1256.75 978.085 1252.93 978.085 L1245.92 978.085 L1245.92 998.168 L1239.49 998.168 L1239.49 950.648 L1254.01 950.648 Q1262.16 950.648 1266.17 954.054 Q1270.18 957.46 1270.18 964.335 Q1270.18 968.822 1268.08 971.783 Q1266.01 974.743 1262.03 975.888 M1245.92 955.932 L1245.92 972.801 L1254.01 972.801 Q1258.65 972.801 1261.01 970.669 Q1263.4 968.504 1263.4 964.335 Q1263.4 960.165 1261.01 958.064 Q1258.65 955.932 1254.01 955.932 L1245.92 955.932 Z" fill="#000000" fill-rule="evenodd" fill-opacity="1" /><path clip-path="url(#clip250)" d="M1312.1 978.88 L1312.1 981.745 L1285.17 981.745 Q1285.55 987.792 1288.8 990.975 Q1292.07 994.126 1297.9 994.126 Q1301.27 994.126 1304.42 993.299 Q1307.61 992.471 1310.73 990.816 L1310.73 996.354 Q1307.58 997.691 1304.27 998.391 Q1300.96 999.091 1297.55 999.091 Q1289.02 999.091 1284.02 994.126 Q1279.06 989.161 1279.06 980.694 Q1279.06 971.942 1283.77 966.817 Q1288.51 961.661 1296.53 961.661 Q1303.72 961.661 1307.89 966.308 Q1312.1 970.923 1312.1 978.88 M1306.24 977.162 Q1306.17 972.355 1303.53 969.491 Q1300.92 966.626 1296.59 966.626 Q1291.69 966.626 1288.73 969.395 Q1285.8 972.164 1285.36 977.193 L1306.24 977.162 Z" fill="#000000" fill-rule="evenodd" fill-opacity="1" /><path clip-path="url(#clip250)" d="M1335.78 948.707 Q1331.51 956.027 1329.44 963.189 Q1327.37 970.35 1327.37 977.703 Q1327.37 985.055 1329.44 992.28 Q1331.54 999.473 1335.78 1006.76 L1330.68 1006.76 Q1325.91 999.282 1323.52 992.057 Q1321.17 984.832 1321.17 977.703 Q1321.17 970.605 1323.52 963.412 Q1325.88 956.218 1330.68 948.707 L1335.78 948.707 Z" fill="#000000" fill-rule="evenodd" fill-opacity="1" /><path clip-path="url(#clip250)" d="M1376.77 962.52 L1363.88 979.867 L1377.44 998.168 L1370.53 998.168 L1360.16 984.164 L1349.78 998.168 L1342.87 998.168 L1356.72 979.517 L1344.05 962.52 L1350.96 962.52 L1360.41 975.22 L1369.86 962.52 L1376.77 962.52 Z" fill="#000000" fill-rule="evenodd" fill-opacity="1" /><path clip-path="url(#clip250)" d="M1384.79 948.707 L1389.88 948.707 Q1394.66 956.218 1397.01 963.412 Q1399.4 970.605 1399.4 977.703 Q1399.4 984.832 1397.01 992.057 Q1394.66 999.282 1389.88 1006.76 L1384.79 1006.76 Q1389.02 999.473 1391.09 992.28 Q1393.19 985.055 1393.19 977.703 Q1393.19 970.35 1391.09 963.189 Q1389.02 956.027 1384.79 948.707 Z" fill="#000000" fill-rule="evenodd" fill-opacity="1" /><polyline clip-path="url(#clip250)" style="stroke:#000000; stroke-linecap:butt; stroke-linejoin:round; stroke-width:4; stroke-opacity:1; fill:none" points="
  286.139,853.304 286.139,617.12 
  "/>
<polyline clip-path="url(#clip250)" style="stroke:#000000; stroke-linecap:butt; stroke-linejoin:round; stroke-width:4; stroke-opacity:1; fill:none" points="
  286.139,846.62 305.037,846.62 
  "/>
<polyline clip-path="url(#clip250)" style="stroke:#000000; stroke-linecap:butt; stroke-linejoin:round; stroke-width:4; stroke-opacity:1; fill:none" points="
  286.139,790.916 305.037,790.916 
  "/>
<polyline clip-path="url(#clip250)" style="stroke:#000000; stroke-linecap:butt; stroke-linejoin:round; stroke-width:4; stroke-opacity:1; fill:none" points="
  286.139,735.212 305.037,735.212 
  "/>
<polyline clip-path="url(#clip250)" style="stroke:#000000; stroke-linecap:butt; stroke-linejoin:round; stroke-width:4; stroke-opacity:1; fill:none" points="
  286.139,679.508 305.037,679.508 
  "/>
<polyline clip-path="url(#clip250)" style="stroke:#000000; stroke-linecap:butt; stroke-linejoin:round; stroke-width:4; stroke-opacity:1; fill:none" points="
  286.139,623.804 305.037,623.804 
  "/>
<path clip-path="url(#clip250)" d="M114.631 847.071 L144.306 847.071 L144.306 851.006 L114.631 851.006 L114.631 847.071 Z" fill="#000000" fill-rule="evenodd" fill-opacity="1" /><path clip-path="url(#clip250)" d="M164.399 832.419 Q160.788 832.419 158.959 835.983 Q157.153 839.525 157.153 846.655 Q157.153 853.761 158.959 857.326 Q160.788 860.867 164.399 860.867 Q168.033 860.867 169.839 857.326 Q171.667 853.761 171.667 846.655 Q171.667 839.525 169.839 835.983 Q168.033 832.419 164.399 832.419 M164.399 828.715 Q170.209 828.715 173.264 833.321 Q176.343 837.905 176.343 846.655 Q176.343 855.381 173.264 859.988 Q170.209 864.571 164.399 864.571 Q158.589 864.571 155.51 859.988 Q152.454 855.381 152.454 846.655 Q152.454 837.905 155.51 833.321 Q158.589 828.715 164.399 828.715 Z" fill="#000000" fill-rule="evenodd" fill-opacity="1" /><path clip-path="url(#clip250)" d="M184.561 858.02 L189.445 858.02 L189.445 863.9 L184.561 863.9 L184.561 858.02 Z" fill="#000000" fill-rule="evenodd" fill-opacity="1" /><path clip-path="url(#clip250)" d="M209.63 832.419 Q206.019 832.419 204.19 835.983 Q202.385 839.525 202.385 846.655 Q202.385 853.761 204.19 857.326 Q206.019 860.867 209.63 860.867 Q213.264 860.867 215.07 857.326 Q216.898 853.761 216.898 846.655 Q216.898 839.525 215.07 835.983 Q213.264 832.419 209.63 832.419 M209.63 828.715 Q215.44 828.715 218.496 833.321 Q221.574 837.905 221.574 846.655 Q221.574 855.381 218.496 859.988 Q215.44 864.571 209.63 864.571 Q203.82 864.571 200.741 859.988 Q197.686 855.381 197.686 846.655 Q197.686 837.905 200.741 833.321 Q203.82 828.715 209.63 828.715 Z" fill="#000000" fill-rule="evenodd" fill-opacity="1" /><path clip-path="url(#clip250)" d="M233.82 859.965 L250.139 859.965 L250.139 863.9 L228.195 863.9 L228.195 859.965 Q230.857 857.21 235.44 852.581 Q240.047 847.928 241.227 846.585 Q243.472 844.062 244.352 842.326 Q245.255 840.567 245.255 838.877 Q245.255 836.122 243.31 834.386 Q241.389 832.65 238.287 832.65 Q236.088 832.65 233.635 833.414 Q231.204 834.178 228.426 835.729 L228.426 831.007 Q231.25 829.872 233.704 829.294 Q236.158 828.715 238.195 828.715 Q243.565 828.715 246.759 831.4 Q249.954 834.085 249.954 838.576 Q249.954 840.706 249.144 842.627 Q248.357 844.525 246.25 847.118 Q245.671 847.789 242.57 851.006 Q239.468 854.201 233.82 859.965 Z" fill="#000000" fill-rule="evenodd" fill-opacity="1" /><path clip-path="url(#clip250)" d="M114.26 791.367 L143.936 791.367 L143.936 795.302 L114.26 795.302 L114.26 791.367 Z" fill="#000000" fill-rule="evenodd" fill-opacity="1" /><path clip-path="url(#clip250)" d="M164.028 776.715 Q160.417 776.715 158.589 780.279 Q156.783 783.821 156.783 790.951 Q156.783 798.057 158.589 801.622 Q160.417 805.164 164.028 805.164 Q167.663 805.164 169.468 801.622 Q171.297 798.057 171.297 790.951 Q171.297 783.821 169.468 780.279 Q167.663 776.715 164.028 776.715 M164.028 773.011 Q169.839 773.011 172.894 777.617 Q175.973 782.201 175.973 790.951 Q175.973 799.677 172.894 804.284 Q169.839 808.867 164.028 808.867 Q158.218 808.867 155.14 804.284 Q152.084 799.677 152.084 790.951 Q152.084 782.201 155.14 777.617 Q158.218 773.011 164.028 773.011 Z" fill="#000000" fill-rule="evenodd" fill-opacity="1" /><path clip-path="url(#clip250)" d="M184.19 802.316 L189.075 802.316 L189.075 808.196 L184.19 808.196 L184.19 802.316 Z" fill="#000000" fill-rule="evenodd" fill-opacity="1" /><path clip-path="url(#clip250)" d="M209.26 776.715 Q205.649 776.715 203.82 780.279 Q202.014 783.821 202.014 790.951 Q202.014 798.057 203.82 801.622 Q205.649 805.164 209.26 805.164 Q212.894 805.164 214.699 801.622 Q216.528 798.057 216.528 790.951 Q216.528 783.821 214.699 780.279 Q212.894 776.715 209.26 776.715 M209.26 773.011 Q215.07 773.011 218.125 777.617 Q221.204 782.201 221.204 790.951 Q221.204 799.677 218.125 804.284 Q215.07 808.867 209.26 808.867 Q203.449 808.867 200.371 804.284 Q197.315 799.677 197.315 790.951 Q197.315 782.201 200.371 777.617 Q203.449 773.011 209.26 773.011 Z" fill="#000000" fill-rule="evenodd" fill-opacity="1" /><path clip-path="url(#clip250)" d="M230.232 804.261 L237.871 804.261 L237.871 777.895 L229.56 779.562 L229.56 775.303 L237.824 773.636 L242.5 773.636 L242.5 804.261 L250.139 804.261 L250.139 808.196 L230.232 808.196 L230.232 804.261 Z" fill="#000000" fill-rule="evenodd" fill-opacity="1" /><path clip-path="url(#clip250)" d="M162.802 721.011 Q159.19 721.011 157.362 724.575 Q155.556 728.117 155.556 735.247 Q155.556 742.353 157.362 745.918 Q159.19 749.46 162.802 749.46 Q166.436 749.46 168.241 745.918 Q170.07 742.353 170.07 735.247 Q170.07 728.117 168.241 724.575 Q166.436 721.011 162.802 721.011 M162.802 717.307 Q168.612 717.307 171.667 721.913 Q174.746 726.497 174.746 735.247 Q174.746 743.973 171.667 748.58 Q168.612 753.163 162.802 753.163 Q156.991 753.163 153.913 748.58 Q150.857 743.973 150.857 735.247 Q150.857 726.497 153.913 721.913 Q156.991 717.307 162.802 717.307 Z" fill="#000000" fill-rule="evenodd" fill-opacity="1" /><path clip-path="url(#clip250)" d="M182.963 746.612 L187.848 746.612 L187.848 752.492 L182.963 752.492 L182.963 746.612 Z" fill="#000000" fill-rule="evenodd" fill-opacity="1" /><path clip-path="url(#clip250)" d="M208.033 721.011 Q204.422 721.011 202.593 724.575 Q200.787 728.117 200.787 735.247 Q200.787 742.353 202.593 745.918 Q204.422 749.46 208.033 749.46 Q211.667 749.46 213.473 745.918 Q215.301 742.353 215.301 735.247 Q215.301 728.117 213.473 724.575 Q211.667 721.011 208.033 721.011 M208.033 717.307 Q213.843 717.307 216.898 721.913 Q219.977 726.497 219.977 735.247 Q219.977 743.973 216.898 748.58 Q213.843 753.163 208.033 753.163 Q202.223 753.163 199.144 748.58 Q196.088 743.973 196.088 735.247 Q196.088 726.497 199.144 721.913 Q202.223 717.307 208.033 717.307 Z" fill="#000000" fill-rule="evenodd" fill-opacity="1" /><path clip-path="url(#clip250)" d="M238.195 721.011 Q234.584 721.011 232.755 724.575 Q230.949 728.117 230.949 735.247 Q230.949 742.353 232.755 745.918 Q234.584 749.46 238.195 749.46 Q241.829 749.46 243.634 745.918 Q245.463 742.353 245.463 735.247 Q245.463 728.117 243.634 724.575 Q241.829 721.011 238.195 721.011 M238.195 717.307 Q244.005 717.307 247.06 721.913 Q250.139 726.497 250.139 735.247 Q250.139 743.973 247.06 748.58 Q244.005 753.163 238.195 753.163 Q232.385 753.163 229.306 748.58 Q226.25 743.973 226.25 735.247 Q226.25 726.497 229.306 721.913 Q232.385 717.307 238.195 717.307 Z" fill="#000000" fill-rule="evenodd" fill-opacity="1" /><path clip-path="url(#clip250)" d="M164.028 665.307 Q160.417 665.307 158.589 668.871 Q156.783 672.413 156.783 679.543 Q156.783 686.649 158.589 690.214 Q160.417 693.756 164.028 693.756 Q167.663 693.756 169.468 690.214 Q171.297 686.649 171.297 679.543 Q171.297 672.413 169.468 668.871 Q167.663 665.307 164.028 665.307 M164.028 661.603 Q169.839 661.603 172.894 666.209 Q175.973 670.793 175.973 679.543 Q175.973 688.27 172.894 692.876 Q169.839 697.459 164.028 697.459 Q158.218 697.459 155.14 692.876 Q152.084 688.27 152.084 679.543 Q152.084 670.793 155.14 666.209 Q158.218 661.603 164.028 661.603 Z" fill="#000000" fill-rule="evenodd" fill-opacity="1" /><path clip-path="url(#clip250)" d="M184.19 690.908 L189.075 690.908 L189.075 696.788 L184.19 696.788 L184.19 690.908 Z" fill="#000000" fill-rule="evenodd" fill-opacity="1" /><path clip-path="url(#clip250)" d="M209.26 665.307 Q205.649 665.307 203.82 668.871 Q202.014 672.413 202.014 679.543 Q202.014 686.649 203.82 690.214 Q205.649 693.756 209.26 693.756 Q212.894 693.756 214.699 690.214 Q216.528 686.649 216.528 679.543 Q216.528 672.413 214.699 668.871 Q212.894 665.307 209.26 665.307 M209.26 661.603 Q215.07 661.603 218.125 666.209 Q221.204 670.793 221.204 679.543 Q221.204 688.27 218.125 692.876 Q215.07 697.459 209.26 697.459 Q203.449 697.459 200.371 692.876 Q197.315 688.27 197.315 679.543 Q197.315 670.793 200.371 666.209 Q203.449 661.603 209.26 661.603 Z" fill="#000000" fill-rule="evenodd" fill-opacity="1" /><path clip-path="url(#clip250)" d="M230.232 692.853 L237.871 692.853 L237.871 666.487 L229.56 668.154 L229.56 663.895 L237.824 662.228 L242.5 662.228 L242.5 692.853 L250.139 692.853 L250.139 696.788 L230.232 696.788 L230.232 692.853 Z" fill="#000000" fill-rule="evenodd" fill-opacity="1" /><path clip-path="url(#clip250)" d="M164.399 609.603 Q160.788 609.603 158.959 613.168 Q157.153 616.709 157.153 623.839 Q157.153 630.945 158.959 634.51 Q160.788 638.052 164.399 638.052 Q168.033 638.052 169.839 634.51 Q171.667 630.945 171.667 623.839 Q171.667 616.709 169.839 613.168 Q168.033 609.603 164.399 609.603 M164.399 605.899 Q170.209 605.899 173.264 610.506 Q176.343 615.089 176.343 623.839 Q176.343 632.566 173.264 637.172 Q170.209 641.755 164.399 641.755 Q158.589 641.755 155.51 637.172 Q152.454 632.566 152.454 623.839 Q152.454 615.089 155.51 610.506 Q158.589 605.899 164.399 605.899 Z" fill="#000000" fill-rule="evenodd" fill-opacity="1" /><path clip-path="url(#clip250)" d="M184.561 635.204 L189.445 635.204 L189.445 641.084 L184.561 641.084 L184.561 635.204 Z" fill="#000000" fill-rule="evenodd" fill-opacity="1" /><path clip-path="url(#clip250)" d="M209.63 609.603 Q206.019 609.603 204.19 613.168 Q202.385 616.709 202.385 623.839 Q202.385 630.945 204.19 634.51 Q206.019 638.052 209.63 638.052 Q213.264 638.052 215.07 634.51 Q216.898 630.945 216.898 623.839 Q216.898 616.709 215.07 613.168 Q213.264 609.603 209.63 609.603 M209.63 605.899 Q215.44 605.899 218.496 610.506 Q221.574 615.089 221.574 623.839 Q221.574 632.566 218.496 637.172 Q215.44 641.755 209.63 641.755 Q203.82 641.755 200.741 637.172 Q197.686 632.566 197.686 623.839 Q197.686 615.089 200.741 610.506 Q203.82 605.899 209.63 605.899 Z" fill="#000000" fill-rule="evenodd" fill-opacity="1" /><path clip-path="url(#clip250)" d="M233.82 637.149 L250.139 637.149 L250.139 641.084 L228.195 641.084 L228.195 637.149 Q230.857 634.394 235.44 629.765 Q240.047 625.112 241.227 623.769 Q243.472 621.246 244.352 619.51 Q245.255 617.751 245.255 616.061 Q245.255 613.306 243.31 611.57 Q241.389 609.834 238.287 609.834 Q236.088 609.834 233.635 610.598 Q231.204 611.362 228.426 612.913 L228.426 608.191 Q231.25 607.056 233.704 606.478 Q236.158 605.899 238.195 605.899 Q243.565 605.899 246.759 608.584 Q249.954 611.269 249.954 615.76 Q249.954 617.89 249.144 619.811 Q248.357 621.709 246.25 624.302 Q245.671 624.973 242.57 628.191 Q239.468 631.385 233.82 637.149 Z" fill="#000000" fill-rule="evenodd" fill-opacity="1" /><path clip-path="url(#clip250)" d="M16.4842 815.293 L16.4842 808.863 L64.0042 808.863 L64.0042 815.293 L16.4842 815.293 Z" fill="#000000" fill-rule="evenodd" fill-opacity="1" /><path clip-path="url(#clip250)" d="M35.1993 768.568 Q31.2526 766.372 29.3747 763.317 Q27.4968 760.261 27.4968 756.123 Q27.4968 750.553 31.4117 747.53 Q35.2948 744.506 42.4881 744.506 L64.0042 744.506 L64.0042 750.394 L42.679 750.394 Q37.5546 750.394 35.072 752.208 Q32.5894 754.023 32.5894 757.747 Q32.5894 762.298 35.6131 764.94 Q38.6368 767.582 43.8567 767.582 L64.0042 767.582 L64.0042 773.47 L42.679 773.47 Q37.5228 773.47 35.072 775.284 Q32.5894 777.098 32.5894 780.886 Q32.5894 785.374 35.6449 788.016 Q38.6686 790.657 43.8567 790.657 L64.0042 790.657 L64.0042 796.546 L28.3562 796.546 L28.3562 790.657 L33.8944 790.657 Q30.616 788.652 29.0564 785.851 Q27.4968 783.05 27.4968 779.199 Q27.4968 775.316 29.4702 772.61 Q31.4436 769.873 35.1993 768.568 Z" fill="#000000" fill-rule="evenodd" fill-opacity="1" /><path clip-path="url(#clip250)" d="M14.5426 718.757 Q21.8632 723.022 29.0246 725.09 Q36.186 727.159 43.5384 727.159 Q50.8908 727.159 58.1159 725.09 Q65.3091 722.99 72.5979 718.757 L72.5979 723.849 Q65.1182 728.623 57.8931 731.011 Q50.668 733.366 43.5384 733.366 Q36.4406 733.366 29.2474 731.011 Q22.0542 728.655 14.5426 723.849 L14.5426 718.757 Z" fill="#000000" fill-rule="evenodd" fill-opacity="1" /><path clip-path="url(#clip250)" d="M28.3562 677.761 L45.7028 690.652 L64.0042 677.093 L64.0042 684 L49.9996 694.376 L64.0042 704.752 L64.0042 711.659 L45.3526 697.813 L28.3562 710.481 L28.3562 703.574 L41.0558 694.121 L28.3562 684.668 L28.3562 677.761 Z" fill="#000000" fill-rule="evenodd" fill-opacity="1" /><path clip-path="url(#clip250)" d="M14.5426 669.741 L14.5426 664.648 Q22.0542 659.874 29.2474 657.519 Q36.4406 655.131 43.5384 655.131 Q50.668 655.131 57.8931 657.519 Q65.1182 659.874 72.5979 664.648 L72.5979 669.741 Q65.3091 665.507 58.1159 663.439 Q50.8908 661.338 43.5384 661.338 Q36.186 661.338 29.0246 663.439 Q21.8632 665.507 14.5426 669.741 Z" fill="#000000" fill-rule="evenodd" fill-opacity="1" /><circle clip-path="url(#clip252)" cx="1493.07" cy="774.121" r="14" fill="#fb8d00" fill-rule="evenodd" fill-opacity="0.3" stroke="#000000" stroke-opacity="0.3" stroke-width="3.2"/>
<circle clip-path="url(#clip252)" cx="1493.07" cy="696.303" r="14" fill="#fb8d00" fill-rule="evenodd" fill-opacity="0.3" stroke="#000000" stroke-opacity="0.3" stroke-width="3.2"/>
<circle clip-path="url(#clip252)" cx="1497.18" cy="753.581" r="14" fill="#fb8d00" fill-rule="evenodd" fill-opacity="0.3" stroke="#000000" stroke-opacity="0.3" stroke-width="3.2"/>
<circle clip-path="url(#clip252)" cx="1497.18" cy="716.842" r="14" fill="#fb8d00" fill-rule="evenodd" fill-opacity="0.3" stroke="#000000" stroke-opacity="0.3" stroke-width="3.2"/>
<circle clip-path="url(#clip252)" cx="1515.6" cy="735.212" r="14" fill="#fb8d00" fill-rule="evenodd" fill-opacity="0.3" stroke="#000000" stroke-opacity="0.3" stroke-width="3.2"/>
<circle clip-path="url(#clip252)" cx="1517.44" cy="800.896" r="14" fill="#fb8d00" fill-rule="evenodd" fill-opacity="0.3" stroke="#000000" stroke-opacity="0.3" stroke-width="3.2"/>
<circle clip-path="url(#clip252)" cx="1517.44" cy="669.527" r="14" fill="#fb8d00" fill-rule="evenodd" fill-opacity="0.3" stroke="#000000" stroke-opacity="0.3" stroke-width="3.2"/>
<circle clip-path="url(#clip252)" cx="1536.72" cy="735.212" r="14" fill="#fb8d00" fill-rule="evenodd" fill-opacity="0.3" stroke="#000000" stroke-opacity="0.3" stroke-width="3.2"/>
<circle clip-path="url(#clip252)" cx="1549.14" cy="791.372" r="14" fill="#fb8d00" fill-rule="evenodd" fill-opacity="0.3" stroke="#000000" stroke-opacity="0.3" stroke-width="3.2"/>
<circle clip-path="url(#clip252)" cx="1549.14" cy="679.052" r="14" fill="#fb8d00" fill-rule="evenodd" fill-opacity="0.3" stroke="#000000" stroke-opacity="0.3" stroke-width="3.2"/>
<circle clip-path="url(#clip252)" cx="1549.72" cy="735.212" r="14" fill="#fb8d00" fill-rule="evenodd" fill-opacity="0.3" stroke="#000000" stroke-opacity="0.3" stroke-width="3.2"/>
<circle clip-path="url(#clip252)" cx="1558.62" cy="819.396" r="14" fill="#fb8d00" fill-rule="evenodd" fill-opacity="0.3" stroke="#000000" stroke-opacity="0.3" stroke-width="3.2"/>
<circle clip-path="url(#clip252)" cx="1558.62" cy="651.028" r="14" fill="#fb8d00" fill-rule="evenodd" fill-opacity="0.3" stroke="#000000" stroke-opacity="0.3" stroke-width="3.2"/>
<circle clip-path="url(#clip252)" cx="1566.11" cy="779.236" r="14" fill="#fb8d00" fill-rule="evenodd" fill-opacity="0.3" stroke="#000000" stroke-opacity="0.3" stroke-width="3.2"/>
<circle clip-path="url(#clip252)" cx="1566.11" cy="691.188" r="14" fill="#fb8d00" fill-rule="evenodd" fill-opacity="0.3" stroke="#000000" stroke-opacity="0.3" stroke-width="3.2"/>
<circle clip-path="url(#clip252)" cx="1580" cy="782.903" r="14" fill="#fb8d00" fill-rule="evenodd" fill-opacity="0.3" stroke="#000000" stroke-opacity="0.3" stroke-width="3.2"/>
<circle clip-path="url(#clip252)" cx="1580" cy="687.521" r="14" fill="#fb8d00" fill-rule="evenodd" fill-opacity="0.3" stroke="#000000" stroke-opacity="0.3" stroke-width="3.2"/>
<circle clip-path="url(#clip252)" cx="1587.86" cy="744.029" r="14" fill="#fb8d00" fill-rule="evenodd" fill-opacity="0.3" stroke="#000000" stroke-opacity="0.3" stroke-width="3.2"/>
<circle clip-path="url(#clip252)" cx="1587.86" cy="726.395" r="14" fill="#fb8d00" fill-rule="evenodd" fill-opacity="0.3" stroke="#000000" stroke-opacity="0.3" stroke-width="3.2"/>
<circle clip-path="url(#clip252)" cx="1611.61" cy="735.212" r="14" fill="#fb8d00" fill-rule="evenodd" fill-opacity="0.3" stroke="#000000" stroke-opacity="0.3" stroke-width="3.2"/>
<circle clip-path="url(#clip252)" cx="1612.96" cy="784.584" r="14" fill="#fb8d00" fill-rule="evenodd" fill-opacity="0.3" stroke="#000000" stroke-opacity="0.3" stroke-width="3.2"/>
<circle clip-path="url(#clip252)" cx="1612.96" cy="685.84" r="14" fill="#fb8d00" fill-rule="evenodd" fill-opacity="0.3" stroke="#000000" stroke-opacity="0.3" stroke-width="3.2"/>
<circle clip-path="url(#clip252)" cx="1635.31" cy="735.212" r="14" fill="#fb8d00" fill-rule="evenodd" fill-opacity="0.3" stroke="#000000" stroke-opacity="0.3" stroke-width="3.2"/>
<circle clip-path="url(#clip252)" cx="1658.57" cy="735.212" r="14" fill="#fb8d00" fill-rule="evenodd" fill-opacity="0.3" stroke="#000000" stroke-opacity="0.3" stroke-width="3.2"/>
<polyline clip-path="url(#clip252)" style="stroke:#000003; stroke-linecap:butt; stroke-linejoin:round; stroke-width:8; stroke-opacity:1; fill:none" points="
  1473.23,772.967 1474.5,774.514 1474.9,775.008 1476.57,777.049 1478.4,779.09 1479.64,780.402 1480.32,781.131 1482.3,783.172 1484.44,785.212 1484.78,785.524 
  1486.63,787.253 1488.98,789.294 1489.92,790.077 1491.43,791.335 1494.04,793.376 1495.05,794.142 1496.78,795.417 1499.71,797.457 1500.19,797.781 1502.82,799.498 
  1505.33,801.052 1506.16,801.539 1509.75,803.58 1510.47,803.973 1513.67,805.621 1515.6,806.581 1517.99,807.662 1520.74,808.881 1522.81,809.702 1525.88,810.899 
  1528.36,811.743 1531.01,812.646 1534.97,813.784 1536.15,814.126 1541.29,815.368 1543.68,815.825 1546.43,816.366 1551.56,817.132 1556.7,817.656 1560.29,817.866 
  1561.84,817.961 1566.98,818.05 1572.11,817.912 1572.77,817.866 1577.25,817.567 1582.39,817.003 1587.52,816.206 1589.44,815.825 1592.66,815.199 1597.8,813.955 
  1598.4,813.784 1602.94,812.503 1605.24,811.743 1608.07,810.81 1611.03,809.702 1613.21,808.878 1616.1,807.662 1618.35,806.699 1620.65,805.621 1623.49,804.26 
  1624.8,803.58 1628.61,801.539 1628.62,801.534 1632.16,799.498 1633.76,798.539 1635.47,797.457 1638.56,795.417 1638.9,795.189 1641.48,793.376 1644.03,791.465 
  1644.2,791.335 1646.81,789.294 1649.17,787.286 1649.21,787.253 1651.54,785.212 1653.68,783.172 1654.31,782.545 1655.74,781.131 1657.66,779.09 1659.41,777.049 
  1659.45,777.006 1661.16,775.008 1662.76,772.967 1664.19,770.927 1664.58,770.326 1665.6,768.886 1666.93,766.845 1668.12,764.804 1669.17,762.763 1669.72,761.573 
  1670.17,760.722 1671.16,758.682 1672.04,756.641 1672.8,754.6 1673.46,752.559 1674.03,750.518 1674.51,748.477 1674.86,746.669 1674.91,746.437 1675.33,744.396 
  1675.65,742.355 1675.9,740.314 1676.06,738.273 1676.14,736.232 1676.14,734.192 1676.06,732.151 1675.9,730.11 1675.65,728.069 1675.33,726.028 1674.91,723.987 
  1674.86,723.754 1674.51,721.947 1674.03,719.906 1673.46,717.865 1672.8,715.824 1672.04,713.783 1671.16,711.742 1670.17,709.702 1669.72,708.851 1669.17,707.661 
  1668.12,705.62 1666.93,703.579 1665.6,701.538 1664.58,700.098 1664.19,699.497 1662.76,697.457 1661.16,695.416 1659.45,693.418 1659.41,693.375 1657.66,691.334 
  1655.74,689.293 1654.31,687.879 1653.68,687.252 1651.54,685.212 1649.21,683.171 1649.17,683.138 1646.81,681.13 1644.2,679.089 1644.03,678.959 1641.48,677.048 
  1638.9,675.235 1638.56,675.007 1635.47,672.966 1633.76,671.885 1632.16,670.926 1628.62,668.89 1628.61,668.885 1624.8,666.844 1623.49,666.164 1620.65,664.803 
  1618.35,663.725 1616.1,662.762 1613.21,661.546 1611.03,660.721 1608.07,659.614 1605.24,658.681 1602.94,657.921 1598.4,656.64 1597.8,656.469 1592.66,655.225 
  1589.44,654.599 1587.52,654.218 1582.39,653.421 1577.25,652.857 1572.77,652.558 1572.11,652.512 1566.98,652.374 1561.84,652.463 1560.29,652.558 1556.7,652.768 
  1551.56,653.292 1546.43,654.058 1543.68,654.599 1541.29,655.056 1536.15,656.297 1534.97,656.64 1531.01,657.778 1528.36,658.681 1525.88,659.525 1522.81,660.721 
  1520.74,661.542 1517.99,662.762 1515.6,663.843 1513.67,664.803 1510.47,666.451 1509.75,666.844 1506.16,668.885 1505.33,669.372 1502.82,670.926 1500.19,672.643 
  1499.71,672.966 1496.78,675.007 1495.05,676.282 1494.04,677.048 1491.43,679.089 1489.92,680.347 1488.98,681.13 1486.63,683.171 1484.78,684.9 1484.44,685.212 
  1482.3,687.252 1480.32,689.293 1479.64,690.022 1478.4,691.334 1476.57,693.375 1474.9,695.416 1474.5,695.91 1473.23,697.457 1471.67,699.497 1470.25,701.538 
  1469.37,702.918 1468.91,703.579 1467.58,705.62 1466.37,707.661 1465.3,709.702 1464.35,711.742 1464.23,712.032 1463.37,713.783 1462.47,715.824 1461.69,717.865 
  1461.02,719.906 1460.45,721.947 1459.97,723.987 1459.6,726.028 1459.3,728.069 1459.09,730.059 1459.09,730.11 1458.9,732.151 1458.8,734.192 1458.8,736.232 
  1458.9,738.273 1459.09,740.314 1459.09,740.365 1459.3,742.355 1459.6,744.396 1459.97,746.437 1460.45,748.477 1461.02,750.518 1461.69,752.559 1462.47,754.6 
  1463.37,756.641 1464.23,758.392 1464.35,758.682 1465.3,760.722 1466.37,762.763 1467.58,764.804 1468.91,766.845 1469.37,767.506 1470.25,768.886 1471.67,770.927 
  1473.23,772.967 
  "/>
<circle clip-path="url(#clip252)" cx="1248.66" cy="735.212" r="14" fill="#fb8d00" fill-rule="evenodd" fill-opacity="0.3" stroke="#000000" stroke-opacity="0.3" stroke-width="3.2"/>
<circle clip-path="url(#clip252)" cx="1257.48" cy="746.844" r="14" fill="#fb8d00" fill-rule="evenodd" fill-opacity="0.3" stroke="#000000" stroke-opacity="0.3" stroke-width="3.2"/>
<circle clip-path="url(#clip252)" cx="1257.48" cy="723.58" r="14" fill="#fb8d00" fill-rule="evenodd" fill-opacity="0.3" stroke="#000000" stroke-opacity="0.3" stroke-width="3.2"/>
<circle clip-path="url(#clip252)" cx="1264.38" cy="756.721" r="14" fill="#fb8d00" fill-rule="evenodd" fill-opacity="0.3" stroke="#000000" stroke-opacity="0.3" stroke-width="3.2"/>
<circle clip-path="url(#clip252)" cx="1264.38" cy="713.703" r="14" fill="#fb8d00" fill-rule="evenodd" fill-opacity="0.3" stroke="#000000" stroke-opacity="0.3" stroke-width="3.2"/>
<circle clip-path="url(#clip252)" cx="1274.65" cy="778.591" r="14" fill="#fb8d00" fill-rule="evenodd" fill-opacity="0.3" stroke="#000000" stroke-opacity="0.3" stroke-width="3.2"/>
<circle clip-path="url(#clip252)" cx="1274.65" cy="691.833" r="14" fill="#fb8d00" fill-rule="evenodd" fill-opacity="0.3" stroke="#000000" stroke-opacity="0.3" stroke-width="3.2"/>
<circle clip-path="url(#clip252)" cx="1276.91" cy="735.212" r="14" fill="#fb8d00" fill-rule="evenodd" fill-opacity="0.3" stroke="#000000" stroke-opacity="0.3" stroke-width="3.2"/>
<circle clip-path="url(#clip252)" cx="1281.45" cy="735.212" r="14" fill="#fb8d00" fill-rule="evenodd" fill-opacity="0.3" stroke="#000000" stroke-opacity="0.3" stroke-width="3.2"/>
<circle clip-path="url(#clip252)" cx="1285.56" cy="773.512" r="14" fill="#fb8d00" fill-rule="evenodd" fill-opacity="0.3" stroke="#000000" stroke-opacity="0.3" stroke-width="3.2"/>
<circle clip-path="url(#clip252)" cx="1285.56" cy="696.912" r="14" fill="#fb8d00" fill-rule="evenodd" fill-opacity="0.3" stroke="#000000" stroke-opacity="0.3" stroke-width="3.2"/>
<circle clip-path="url(#clip252)" cx="1290.07" cy="735.212" r="14" fill="#fb8d00" fill-rule="evenodd" fill-opacity="0.3" stroke="#000000" stroke-opacity="0.3" stroke-width="3.2"/>
<circle clip-path="url(#clip252)" cx="1296.49" cy="770.169" r="14" fill="#fb8d00" fill-rule="evenodd" fill-opacity="0.3" stroke="#000000" stroke-opacity="0.3" stroke-width="3.2"/>
<circle clip-path="url(#clip252)" cx="1296.49" cy="700.255" r="14" fill="#fb8d00" fill-rule="evenodd" fill-opacity="0.3" stroke="#000000" stroke-opacity="0.3" stroke-width="3.2"/>
<circle clip-path="url(#clip252)" cx="1300.66" cy="735.212" r="14" fill="#fb8d00" fill-rule="evenodd" fill-opacity="0.3" stroke="#000000" stroke-opacity="0.3" stroke-width="3.2"/>
<circle clip-path="url(#clip252)" cx="1304.36" cy="743.641" r="14" fill="#fb8d00" fill-rule="evenodd" fill-opacity="0.3" stroke="#000000" stroke-opacity="0.3" stroke-width="3.2"/>
<circle clip-path="url(#clip252)" cx="1304.36" cy="726.783" r="14" fill="#fb8d00" fill-rule="evenodd" fill-opacity="0.3" stroke="#000000" stroke-opacity="0.3" stroke-width="3.2"/>
<circle clip-path="url(#clip252)" cx="1304.81" cy="790.051" r="14" fill="#fb8d00" fill-rule="evenodd" fill-opacity="0.3" stroke="#000000" stroke-opacity="0.3" stroke-width="3.2"/>
<circle clip-path="url(#clip252)" cx="1304.81" cy="680.373" r="14" fill="#fb8d00" fill-rule="evenodd" fill-opacity="0.3" stroke="#000000" stroke-opacity="0.3" stroke-width="3.2"/>
<circle clip-path="url(#clip252)" cx="1313.53" cy="764.248" r="14" fill="#fb8d00" fill-rule="evenodd" fill-opacity="0.3" stroke="#000000" stroke-opacity="0.3" stroke-width="3.2"/>
<circle clip-path="url(#clip252)" cx="1313.53" cy="706.176" r="14" fill="#fb8d00" fill-rule="evenodd" fill-opacity="0.3" stroke="#000000" stroke-opacity="0.3" stroke-width="3.2"/>
<circle clip-path="url(#clip252)" cx="1315.38" cy="775.848" r="14" fill="#fb8d00" fill-rule="evenodd" fill-opacity="0.3" stroke="#000000" stroke-opacity="0.3" stroke-width="3.2"/>
<circle clip-path="url(#clip252)" cx="1315.38" cy="694.576" r="14" fill="#fb8d00" fill-rule="evenodd" fill-opacity="0.3" stroke="#000000" stroke-opacity="0.3" stroke-width="3.2"/>
<circle clip-path="url(#clip252)" cx="1316.55" cy="796.06" r="14" fill="#fb8d00" fill-rule="evenodd" fill-opacity="0.3" stroke="#000000" stroke-opacity="0.3" stroke-width="3.2"/>
<circle clip-path="url(#clip252)" cx="1316.55" cy="674.364" r="14" fill="#fb8d00" fill-rule="evenodd" fill-opacity="0.3" stroke="#000000" stroke-opacity="0.3" stroke-width="3.2"/>
<circle clip-path="url(#clip252)" cx="1322.81" cy="746.54" r="14" fill="#fb8d00" fill-rule="evenodd" fill-opacity="0.3" stroke="#000000" stroke-opacity="0.3" stroke-width="3.2"/>
<circle clip-path="url(#clip252)" cx="1322.81" cy="723.884" r="14" fill="#fb8d00" fill-rule="evenodd" fill-opacity="0.3" stroke="#000000" stroke-opacity="0.3" stroke-width="3.2"/>
<circle clip-path="url(#clip252)" cx="1324.18" cy="735.212" r="14" fill="#fb8d00" fill-rule="evenodd" fill-opacity="0.3" stroke="#000000" stroke-opacity="0.3" stroke-width="3.2"/>
<circle clip-path="url(#clip252)" cx="1338.01" cy="800.579" r="14" fill="#fb8d00" fill-rule="evenodd" fill-opacity="0.3" stroke="#000000" stroke-opacity="0.3" stroke-width="3.2"/>
<circle clip-path="url(#clip252)" cx="1338.01" cy="669.845" r="14" fill="#fb8d00" fill-rule="evenodd" fill-opacity="0.3" stroke="#000000" stroke-opacity="0.3" stroke-width="3.2"/>
<circle clip-path="url(#clip252)" cx="1339.61" cy="767.702" r="14" fill="#fb8d00" fill-rule="evenodd" fill-opacity="0.3" stroke="#000000" stroke-opacity="0.3" stroke-width="3.2"/>
<circle clip-path="url(#clip252)" cx="1339.61" cy="702.722" r="14" fill="#fb8d00" fill-rule="evenodd" fill-opacity="0.3" stroke="#000000" stroke-opacity="0.3" stroke-width="3.2"/>
<circle clip-path="url(#clip252)" cx="1345.89" cy="779.128" r="14" fill="#fb8d00" fill-rule="evenodd" fill-opacity="0.3" stroke="#000000" stroke-opacity="0.3" stroke-width="3.2"/>
<circle clip-path="url(#clip252)" cx="1345.89" cy="691.296" r="14" fill="#fb8d00" fill-rule="evenodd" fill-opacity="0.3" stroke="#000000" stroke-opacity="0.3" stroke-width="3.2"/>
<circle clip-path="url(#clip252)" cx="1351.96" cy="742.502" r="14" fill="#fb8d00" fill-rule="evenodd" fill-opacity="0.3" stroke="#000000" stroke-opacity="0.3" stroke-width="3.2"/>
<circle clip-path="url(#clip252)" cx="1351.96" cy="727.922" r="14" fill="#fb8d00" fill-rule="evenodd" fill-opacity="0.3" stroke="#000000" stroke-opacity="0.3" stroke-width="3.2"/>
<circle clip-path="url(#clip252)" cx="1356.37" cy="786.053" r="14" fill="#fb8d00" fill-rule="evenodd" fill-opacity="0.3" stroke="#000000" stroke-opacity="0.3" stroke-width="3.2"/>
<circle clip-path="url(#clip252)" cx="1356.37" cy="684.371" r="14" fill="#fb8d00" fill-rule="evenodd" fill-opacity="0.3" stroke="#000000" stroke-opacity="0.3" stroke-width="3.2"/>
<circle clip-path="url(#clip252)" cx="1363.86" cy="753.955" r="14" fill="#fb8d00" fill-rule="evenodd" fill-opacity="0.3" stroke="#000000" stroke-opacity="0.3" stroke-width="3.2"/>
<circle clip-path="url(#clip252)" cx="1363.86" cy="716.469" r="14" fill="#fb8d00" fill-rule="evenodd" fill-opacity="0.3" stroke="#000000" stroke-opacity="0.3" stroke-width="3.2"/>
<circle clip-path="url(#clip252)" cx="1366.45" cy="735.212" r="14" fill="#fb8d00" fill-rule="evenodd" fill-opacity="0.3" stroke="#000000" stroke-opacity="0.3" stroke-width="3.2"/>
<circle clip-path="url(#clip252)" cx="1371.37" cy="774.5" r="14" fill="#fb8d00" fill-rule="evenodd" fill-opacity="0.3" stroke="#000000" stroke-opacity="0.3" stroke-width="3.2"/>
<circle clip-path="url(#clip252)" cx="1371.37" cy="695.924" r="14" fill="#fb8d00" fill-rule="evenodd" fill-opacity="0.3" stroke="#000000" stroke-opacity="0.3" stroke-width="3.2"/>
<circle clip-path="url(#clip252)" cx="1374.43" cy="754.639" r="14" fill="#fb8d00" fill-rule="evenodd" fill-opacity="0.3" stroke="#000000" stroke-opacity="0.3" stroke-width="3.2"/>
<circle clip-path="url(#clip252)" cx="1374.43" cy="715.785" r="14" fill="#fb8d00" fill-rule="evenodd" fill-opacity="0.3" stroke="#000000" stroke-opacity="0.3" stroke-width="3.2"/>
<circle clip-path="url(#clip252)" cx="1383.17" cy="735.212" r="14" fill="#fb8d00" fill-rule="evenodd" fill-opacity="0.3" stroke="#000000" stroke-opacity="0.3" stroke-width="3.2"/>
<circle clip-path="url(#clip252)" cx="1394.23" cy="735.212" r="14" fill="#fb8d00" fill-rule="evenodd" fill-opacity="0.3" stroke="#000000" stroke-opacity="0.3" stroke-width="3.2"/>
<circle clip-path="url(#clip252)" cx="1399.18" cy="753.953" r="14" fill="#fb8d00" fill-rule="evenodd" fill-opacity="0.3" stroke="#000000" stroke-opacity="0.3" stroke-width="3.2"/>
<circle clip-path="url(#clip252)" cx="1399.18" cy="716.471" r="14" fill="#fb8d00" fill-rule="evenodd" fill-opacity="0.3" stroke="#000000" stroke-opacity="0.3" stroke-width="3.2"/>
<polyline clip-path="url(#clip252)" style="stroke:#000003; stroke-linecap:butt; stroke-linejoin:round; stroke-width:8; stroke-opacity:1; fill:none" points="
  1251.19,759.774 1251.83,760.823 1252.11,761.359 1252.98,762.943 1253.95,764.528 1255.01,766.113 1256.17,767.697 1257.44,769.282 1257.84,769.753 1258.68,770.867 
  1259.96,772.451 1261.37,774.036 1262.91,775.621 1263.84,776.529 1264.49,777.205 1266.11,778.79 1267.88,780.375 1269.81,781.959 1269.84,781.989 1271.74,783.544 
  1273.86,785.129 1275.85,786.505 1276.15,786.713 1278.57,788.298 1281.21,789.882 1281.85,790.255 1284.09,791.467 1287.24,793.052 1287.85,793.352 1290.81,794.636 
  1293.86,795.883 1294.84,796.221 1299.59,797.806 1299.86,797.896 1305.66,799.39 1305.86,799.444 1311.87,800.562 1315.5,800.975 1317.87,801.253 1323.88,801.551 
  1329.88,801.453 1335.69,800.975 1335.88,800.96 1341.89,800.103 1345.28,799.39 1347.89,798.844 1351.67,797.806 1353.89,797.185 1356.73,796.221 1359.9,795.108 
  1361.06,794.636 1364.84,793.052 1365.9,792.593 1368.25,791.467 1371.37,789.882 1371.91,789.602 1374.25,788.298 1376.91,786.713 1377.91,786.097 1379.42,785.129 
  1381.77,783.544 1383.91,781.984 1383.95,781.959 1386.08,780.375 1388.05,778.79 1389.87,777.205 1389.92,777.16 1391.69,775.621 1393.38,774.036 1394.93,772.451 
  1395.92,771.375 1396.41,770.867 1397.89,769.282 1399.25,767.697 1400.48,766.113 1401.6,764.528 1401.92,764.036 1402.75,762.943 1403.85,761.359 1404.85,759.774 
  1405.75,758.189 1406.55,756.605 1407.26,755.02 1407.87,753.435 1407.93,753.279 1408.58,751.851 1409.23,750.266 1409.8,748.682 1410.29,747.097 1410.71,745.512 
  1411.06,743.928 1411.35,742.343 1411.57,740.758 1411.74,739.174 1411.85,737.589 1411.9,736.004 1411.9,734.42 1411.85,732.835 1411.74,731.25 1411.57,729.666 
  1411.35,728.081 1411.06,726.496 1410.71,724.912 1410.29,723.327 1409.8,721.742 1409.23,720.158 1408.58,718.573 1407.93,717.145 1407.87,716.988 1407.26,715.404 
  1406.55,713.819 1405.75,712.235 1404.85,710.65 1403.85,709.065 1402.75,707.481 1401.92,706.388 1401.6,705.896 1400.48,704.311 1399.25,702.727 1397.89,701.142 
  1396.41,699.557 1395.92,699.049 1394.93,697.973 1393.38,696.388 1391.69,694.803 1389.92,693.264 1389.87,693.219 1388.05,691.634 1386.08,690.049 1383.95,688.465 
  1383.91,688.44 1381.77,686.88 1379.42,685.295 1377.91,684.327 1376.91,683.711 1374.25,682.126 1371.91,680.822 1371.37,680.541 1368.25,678.957 1365.9,677.831 
  1364.84,677.372 1361.06,675.788 1359.9,675.316 1356.73,674.203 1353.89,673.239 1351.67,672.618 1347.89,671.58 1345.28,671.034 1341.89,670.321 1335.88,669.464 
  1335.69,669.449 1329.88,668.971 1323.88,668.873 1317.87,669.171 1315.5,669.449 1311.87,669.862 1305.86,670.98 1305.66,671.034 1299.86,672.528 1299.59,672.618 
  1294.84,674.203 1293.86,674.541 1290.81,675.788 1287.85,677.072 1287.24,677.372 1284.09,678.957 1281.85,680.169 1281.21,680.541 1278.57,682.126 1276.15,683.711 
  1275.85,683.919 1273.86,685.295 1271.74,686.88 1269.84,688.435 1269.81,688.465 1267.88,690.049 1266.11,691.634 1264.49,693.219 1263.84,693.895 1262.91,694.803 
  1261.37,696.388 1259.96,697.973 1258.68,699.557 1257.84,700.671 1257.44,701.142 1256.17,702.727 1255.01,704.311 1253.95,705.896 1252.98,707.481 1252.11,709.065 
  1251.83,709.601 1251.19,710.65 1250.29,712.235 1249.47,713.819 1248.74,715.404 1248.08,716.988 1247.49,718.573 1246.98,720.158 1246.53,721.742 1246.15,723.327 
  1245.83,724.912 1245.83,724.916 1245.45,726.496 1245.13,728.081 1244.88,729.666 1244.69,731.25 1244.57,732.835 1244.51,734.42 1244.51,736.004 1244.57,737.589 
  1244.69,739.174 1244.88,740.758 1245.13,742.343 1245.45,743.928 1245.83,745.508 1245.83,745.512 1246.15,747.097 1246.53,748.682 1246.98,750.266 1247.49,751.851 
  1248.08,753.435 1248.74,755.02 1249.47,756.605 1250.29,758.189 1251.19,759.774 
  "/>
<circle clip-path="url(#clip252)" cx="1035.33" cy="735.212" r="14" fill="#fb8d00" fill-rule="evenodd" fill-opacity="0.3" stroke="#000000" stroke-opacity="0.3" stroke-width="3.2"/>
<circle clip-path="url(#clip252)" cx="1042.36" cy="740.986" r="14" fill="#fb8d00" fill-rule="evenodd" fill-opacity="0.3" stroke="#000000" stroke-opacity="0.3" stroke-width="3.2"/>
<circle clip-path="url(#clip252)" cx="1042.36" cy="729.438" r="14" fill="#fb8d00" fill-rule="evenodd" fill-opacity="0.3" stroke="#000000" stroke-opacity="0.3" stroke-width="3.2"/>
<circle clip-path="url(#clip252)" cx="1046.33" cy="760.726" r="14" fill="#fb8d00" fill-rule="evenodd" fill-opacity="0.3" stroke="#000000" stroke-opacity="0.3" stroke-width="3.2"/>
<circle clip-path="url(#clip252)" cx="1046.33" cy="709.697" r="14" fill="#fb8d00" fill-rule="evenodd" fill-opacity="0.3" stroke="#000000" stroke-opacity="0.3" stroke-width="3.2"/>
<circle clip-path="url(#clip252)" cx="1047.38" cy="735.212" r="14" fill="#fb8d00" fill-rule="evenodd" fill-opacity="0.3" stroke="#000000" stroke-opacity="0.3" stroke-width="3.2"/>
<circle clip-path="url(#clip252)" cx="1048.28" cy="756.081" r="14" fill="#fb8d00" fill-rule="evenodd" fill-opacity="0.3" stroke="#000000" stroke-opacity="0.3" stroke-width="3.2"/>
<circle clip-path="url(#clip252)" cx="1048.28" cy="714.343" r="14" fill="#fb8d00" fill-rule="evenodd" fill-opacity="0.3" stroke="#000000" stroke-opacity="0.3" stroke-width="3.2"/>
<circle clip-path="url(#clip252)" cx="1052.85" cy="735.212" r="14" fill="#fb8d00" fill-rule="evenodd" fill-opacity="0.3" stroke="#000000" stroke-opacity="0.3" stroke-width="3.2"/>
<circle clip-path="url(#clip252)" cx="1054.61" cy="771.225" r="14" fill="#fb8d00" fill-rule="evenodd" fill-opacity="0.3" stroke="#000000" stroke-opacity="0.3" stroke-width="3.2"/>
<circle clip-path="url(#clip252)" cx="1054.61" cy="699.199" r="14" fill="#fb8d00" fill-rule="evenodd" fill-opacity="0.3" stroke="#000000" stroke-opacity="0.3" stroke-width="3.2"/>
<circle clip-path="url(#clip252)" cx="1058.98" cy="748.542" r="14" fill="#fb8d00" fill-rule="evenodd" fill-opacity="0.3" stroke="#000000" stroke-opacity="0.3" stroke-width="3.2"/>
<circle clip-path="url(#clip252)" cx="1058.98" cy="721.882" r="14" fill="#fb8d00" fill-rule="evenodd" fill-opacity="0.3" stroke="#000000" stroke-opacity="0.3" stroke-width="3.2"/>
<circle clip-path="url(#clip252)" cx="1062.97" cy="754.036" r="14" fill="#fb8d00" fill-rule="evenodd" fill-opacity="0.3" stroke="#000000" stroke-opacity="0.3" stroke-width="3.2"/>
<circle clip-path="url(#clip252)" cx="1062.97" cy="716.388" r="14" fill="#fb8d00" fill-rule="evenodd" fill-opacity="0.3" stroke="#000000" stroke-opacity="0.3" stroke-width="3.2"/>
<circle clip-path="url(#clip252)" cx="1063.85" cy="736.318" r="14" fill="#fb8d00" fill-rule="evenodd" fill-opacity="0.3" stroke="#000000" stroke-opacity="0.3" stroke-width="3.2"/>
<circle clip-path="url(#clip252)" cx="1063.85" cy="734.106" r="14" fill="#fb8d00" fill-rule="evenodd" fill-opacity="0.3" stroke="#000000" stroke-opacity="0.3" stroke-width="3.2"/>
<circle clip-path="url(#clip252)" cx="1065.92" cy="761.299" r="14" fill="#fb8d00" fill-rule="evenodd" fill-opacity="0.3" stroke="#000000" stroke-opacity="0.3" stroke-width="3.2"/>
<circle clip-path="url(#clip252)" cx="1065.92" cy="709.125" r="14" fill="#fb8d00" fill-rule="evenodd" fill-opacity="0.3" stroke="#000000" stroke-opacity="0.3" stroke-width="3.2"/>
<circle clip-path="url(#clip252)" cx="1066.07" cy="775.928" r="14" fill="#fb8d00" fill-rule="evenodd" fill-opacity="0.3" stroke="#000000" stroke-opacity="0.3" stroke-width="3.2"/>
<circle clip-path="url(#clip252)" cx="1066.07" cy="694.496" r="14" fill="#fb8d00" fill-rule="evenodd" fill-opacity="0.3" stroke="#000000" stroke-opacity="0.3" stroke-width="3.2"/>
<circle clip-path="url(#clip252)" cx="1071.78" cy="752.368" r="14" fill="#fb8d00" fill-rule="evenodd" fill-opacity="0.3" stroke="#000000" stroke-opacity="0.3" stroke-width="3.2"/>
<circle clip-path="url(#clip252)" cx="1071.78" cy="718.056" r="14" fill="#fb8d00" fill-rule="evenodd" fill-opacity="0.3" stroke="#000000" stroke-opacity="0.3" stroke-width="3.2"/>
<circle clip-path="url(#clip252)" cx="1074.38" cy="779.118" r="14" fill="#fb8d00" fill-rule="evenodd" fill-opacity="0.3" stroke="#000000" stroke-opacity="0.3" stroke-width="3.2"/>
<circle clip-path="url(#clip252)" cx="1074.38" cy="691.306" r="14" fill="#fb8d00" fill-rule="evenodd" fill-opacity="0.3" stroke="#000000" stroke-opacity="0.3" stroke-width="3.2"/>
<circle clip-path="url(#clip252)" cx="1077.22" cy="770.659" r="14" fill="#fb8d00" fill-rule="evenodd" fill-opacity="0.3" stroke="#000000" stroke-opacity="0.3" stroke-width="3.2"/>
<circle clip-path="url(#clip252)" cx="1077.22" cy="699.765" r="14" fill="#fb8d00" fill-rule="evenodd" fill-opacity="0.3" stroke="#000000" stroke-opacity="0.3" stroke-width="3.2"/>
<circle clip-path="url(#clip252)" cx="1078.36" cy="736.214" r="14" fill="#fb8d00" fill-rule="evenodd" fill-opacity="0.3" stroke="#000000" stroke-opacity="0.3" stroke-width="3.2"/>
<circle clip-path="url(#clip252)" cx="1078.36" cy="734.21" r="14" fill="#fb8d00" fill-rule="evenodd" fill-opacity="0.3" stroke="#000000" stroke-opacity="0.3" stroke-width="3.2"/>
<circle clip-path="url(#clip252)" cx="1080.53" cy="739.877" r="14" fill="#fb8d00" fill-rule="evenodd" fill-opacity="0.3" stroke="#000000" stroke-opacity="0.3" stroke-width="3.2"/>
<circle clip-path="url(#clip252)" cx="1080.53" cy="730.547" r="14" fill="#fb8d00" fill-rule="evenodd" fill-opacity="0.3" stroke="#000000" stroke-opacity="0.3" stroke-width="3.2"/>
<circle clip-path="url(#clip252)" cx="1081.76" cy="774.079" r="14" fill="#fb8d00" fill-rule="evenodd" fill-opacity="0.3" stroke="#000000" stroke-opacity="0.3" stroke-width="3.2"/>
<circle clip-path="url(#clip252)" cx="1081.76" cy="696.345" r="14" fill="#fb8d00" fill-rule="evenodd" fill-opacity="0.3" stroke="#000000" stroke-opacity="0.3" stroke-width="3.2"/>
<circle clip-path="url(#clip252)" cx="1082.96" cy="759.526" r="14" fill="#fb8d00" fill-rule="evenodd" fill-opacity="0.3" stroke="#000000" stroke-opacity="0.3" stroke-width="3.2"/>
<circle clip-path="url(#clip252)" cx="1082.96" cy="710.898" r="14" fill="#fb8d00" fill-rule="evenodd" fill-opacity="0.3" stroke="#000000" stroke-opacity="0.3" stroke-width="3.2"/>
<circle clip-path="url(#clip252)" cx="1083.74" cy="752.516" r="14" fill="#fb8d00" fill-rule="evenodd" fill-opacity="0.3" stroke="#000000" stroke-opacity="0.3" stroke-width="3.2"/>
<circle clip-path="url(#clip252)" cx="1083.74" cy="717.908" r="14" fill="#fb8d00" fill-rule="evenodd" fill-opacity="0.3" stroke="#000000" stroke-opacity="0.3" stroke-width="3.2"/>
<circle clip-path="url(#clip252)" cx="1085.09" cy="783.648" r="14" fill="#fb8d00" fill-rule="evenodd" fill-opacity="0.3" stroke="#000000" stroke-opacity="0.3" stroke-width="3.2"/>
<circle clip-path="url(#clip252)" cx="1085.09" cy="686.776" r="14" fill="#fb8d00" fill-rule="evenodd" fill-opacity="0.3" stroke="#000000" stroke-opacity="0.3" stroke-width="3.2"/>
<circle clip-path="url(#clip252)" cx="1090.79" cy="779.809" r="14" fill="#fb8d00" fill-rule="evenodd" fill-opacity="0.3" stroke="#000000" stroke-opacity="0.3" stroke-width="3.2"/>
<circle clip-path="url(#clip252)" cx="1090.79" cy="690.615" r="14" fill="#fb8d00" fill-rule="evenodd" fill-opacity="0.3" stroke="#000000" stroke-opacity="0.3" stroke-width="3.2"/>
<circle clip-path="url(#clip252)" cx="1092.26" cy="755.83" r="14" fill="#fb8d00" fill-rule="evenodd" fill-opacity="0.3" stroke="#000000" stroke-opacity="0.3" stroke-width="3.2"/>
<circle clip-path="url(#clip252)" cx="1092.26" cy="714.594" r="14" fill="#fb8d00" fill-rule="evenodd" fill-opacity="0.3" stroke="#000000" stroke-opacity="0.3" stroke-width="3.2"/>
<circle clip-path="url(#clip252)" cx="1092.85" cy="772.856" r="14" fill="#fb8d00" fill-rule="evenodd" fill-opacity="0.3" stroke="#000000" stroke-opacity="0.3" stroke-width="3.2"/>
<circle clip-path="url(#clip252)" cx="1092.85" cy="697.568" r="14" fill="#fb8d00" fill-rule="evenodd" fill-opacity="0.3" stroke="#000000" stroke-opacity="0.3" stroke-width="3.2"/>
<circle clip-path="url(#clip252)" cx="1092.87" cy="759.918" r="14" fill="#fb8d00" fill-rule="evenodd" fill-opacity="0.3" stroke="#000000" stroke-opacity="0.3" stroke-width="3.2"/>
<circle clip-path="url(#clip252)" cx="1092.87" cy="710.506" r="14" fill="#fb8d00" fill-rule="evenodd" fill-opacity="0.3" stroke="#000000" stroke-opacity="0.3" stroke-width="3.2"/>
<circle clip-path="url(#clip252)" cx="1095.8" cy="735.212" r="14" fill="#fb8d00" fill-rule="evenodd" fill-opacity="0.3" stroke="#000000" stroke-opacity="0.3" stroke-width="3.2"/>
<circle clip-path="url(#clip252)" cx="1096.74" cy="748.591" r="14" fill="#fb8d00" fill-rule="evenodd" fill-opacity="0.3" stroke="#000000" stroke-opacity="0.3" stroke-width="3.2"/>
<circle clip-path="url(#clip252)" cx="1096.74" cy="721.833" r="14" fill="#fb8d00" fill-rule="evenodd" fill-opacity="0.3" stroke="#000000" stroke-opacity="0.3" stroke-width="3.2"/>
<circle clip-path="url(#clip252)" cx="1098.07" cy="776.678" r="14" fill="#fb8d00" fill-rule="evenodd" fill-opacity="0.3" stroke="#000000" stroke-opacity="0.3" stroke-width="3.2"/>
<circle clip-path="url(#clip252)" cx="1098.07" cy="693.746" r="14" fill="#fb8d00" fill-rule="evenodd" fill-opacity="0.3" stroke="#000000" stroke-opacity="0.3" stroke-width="3.2"/>
<circle clip-path="url(#clip252)" cx="1101.96" cy="735.212" r="14" fill="#fb8d00" fill-rule="evenodd" fill-opacity="0.3" stroke="#000000" stroke-opacity="0.3" stroke-width="3.2"/>
<circle clip-path="url(#clip252)" cx="1103.97" cy="788.755" r="14" fill="#fb8d00" fill-rule="evenodd" fill-opacity="0.3" stroke="#000000" stroke-opacity="0.3" stroke-width="3.2"/>
<circle clip-path="url(#clip252)" cx="1103.97" cy="681.669" r="14" fill="#fb8d00" fill-rule="evenodd" fill-opacity="0.3" stroke="#000000" stroke-opacity="0.3" stroke-width="3.2"/>
<circle clip-path="url(#clip252)" cx="1106.68" cy="750.67" r="14" fill="#fb8d00" fill-rule="evenodd" fill-opacity="0.3" stroke="#000000" stroke-opacity="0.3" stroke-width="3.2"/>
<circle clip-path="url(#clip252)" cx="1106.68" cy="719.754" r="14" fill="#fb8d00" fill-rule="evenodd" fill-opacity="0.3" stroke="#000000" stroke-opacity="0.3" stroke-width="3.2"/>
<circle clip-path="url(#clip252)" cx="1108.4" cy="780.086" r="14" fill="#fb8d00" fill-rule="evenodd" fill-opacity="0.3" stroke="#000000" stroke-opacity="0.3" stroke-width="3.2"/>
<circle clip-path="url(#clip252)" cx="1108.4" cy="690.338" r="14" fill="#fb8d00" fill-rule="evenodd" fill-opacity="0.3" stroke="#000000" stroke-opacity="0.3" stroke-width="3.2"/>
<circle clip-path="url(#clip252)" cx="1109.17" cy="767.225" r="14" fill="#fb8d00" fill-rule="evenodd" fill-opacity="0.3" stroke="#000000" stroke-opacity="0.3" stroke-width="3.2"/>
<circle clip-path="url(#clip252)" cx="1109.17" cy="703.199" r="14" fill="#fb8d00" fill-rule="evenodd" fill-opacity="0.3" stroke="#000000" stroke-opacity="0.3" stroke-width="3.2"/>
<circle clip-path="url(#clip252)" cx="1109.53" cy="735.212" r="14" fill="#fb8d00" fill-rule="evenodd" fill-opacity="0.3" stroke="#000000" stroke-opacity="0.3" stroke-width="3.2"/>
<circle clip-path="url(#clip252)" cx="1113.37" cy="735.212" r="14" fill="#fb8d00" fill-rule="evenodd" fill-opacity="0.3" stroke="#000000" stroke-opacity="0.3" stroke-width="3.2"/>
<circle clip-path="url(#clip252)" cx="1113.49" cy="752.031" r="14" fill="#fb8d00" fill-rule="evenodd" fill-opacity="0.3" stroke="#000000" stroke-opacity="0.3" stroke-width="3.2"/>
<circle clip-path="url(#clip252)" cx="1113.49" cy="718.393" r="14" fill="#fb8d00" fill-rule="evenodd" fill-opacity="0.3" stroke="#000000" stroke-opacity="0.3" stroke-width="3.2"/>
<circle clip-path="url(#clip252)" cx="1117.27" cy="761.892" r="14" fill="#fb8d00" fill-rule="evenodd" fill-opacity="0.3" stroke="#000000" stroke-opacity="0.3" stroke-width="3.2"/>
<circle clip-path="url(#clip252)" cx="1117.27" cy="708.532" r="14" fill="#fb8d00" fill-rule="evenodd" fill-opacity="0.3" stroke="#000000" stroke-opacity="0.3" stroke-width="3.2"/>
<circle clip-path="url(#clip252)" cx="1118.95" cy="754.248" r="14" fill="#fb8d00" fill-rule="evenodd" fill-opacity="0.3" stroke="#000000" stroke-opacity="0.3" stroke-width="3.2"/>
<circle clip-path="url(#clip252)" cx="1118.95" cy="716.176" r="14" fill="#fb8d00" fill-rule="evenodd" fill-opacity="0.3" stroke="#000000" stroke-opacity="0.3" stroke-width="3.2"/>
<circle clip-path="url(#clip252)" cx="1119.67" cy="778.241" r="14" fill="#fb8d00" fill-rule="evenodd" fill-opacity="0.3" stroke="#000000" stroke-opacity="0.3" stroke-width="3.2"/>
<circle clip-path="url(#clip252)" cx="1119.67" cy="692.183" r="14" fill="#fb8d00" fill-rule="evenodd" fill-opacity="0.3" stroke="#000000" stroke-opacity="0.3" stroke-width="3.2"/>
<circle clip-path="url(#clip252)" cx="1120.68" cy="735.212" r="14" fill="#fb8d00" fill-rule="evenodd" fill-opacity="0.3" stroke="#000000" stroke-opacity="0.3" stroke-width="3.2"/>
<circle clip-path="url(#clip252)" cx="1122.13" cy="765.426" r="14" fill="#fb8d00" fill-rule="evenodd" fill-opacity="0.3" stroke="#000000" stroke-opacity="0.3" stroke-width="3.2"/>
<circle clip-path="url(#clip252)" cx="1122.13" cy="704.998" r="14" fill="#fb8d00" fill-rule="evenodd" fill-opacity="0.3" stroke="#000000" stroke-opacity="0.3" stroke-width="3.2"/>
<circle clip-path="url(#clip252)" cx="1122.78" cy="735.212" r="14" fill="#fb8d00" fill-rule="evenodd" fill-opacity="0.3" stroke="#000000" stroke-opacity="0.3" stroke-width="3.2"/>
<circle clip-path="url(#clip252)" cx="1126.38" cy="749.397" r="14" fill="#fb8d00" fill-rule="evenodd" fill-opacity="0.3" stroke="#000000" stroke-opacity="0.3" stroke-width="3.2"/>
<circle clip-path="url(#clip252)" cx="1126.38" cy="721.027" r="14" fill="#fb8d00" fill-rule="evenodd" fill-opacity="0.3" stroke="#000000" stroke-opacity="0.3" stroke-width="3.2"/>
<circle clip-path="url(#clip252)" cx="1129.78" cy="784.149" r="14" fill="#fb8d00" fill-rule="evenodd" fill-opacity="0.3" stroke="#000000" stroke-opacity="0.3" stroke-width="3.2"/>
<circle clip-path="url(#clip252)" cx="1129.78" cy="686.275" r="14" fill="#fb8d00" fill-rule="evenodd" fill-opacity="0.3" stroke="#000000" stroke-opacity="0.3" stroke-width="3.2"/>
<circle clip-path="url(#clip252)" cx="1131.44" cy="773.383" r="14" fill="#fb8d00" fill-rule="evenodd" fill-opacity="0.3" stroke="#000000" stroke-opacity="0.3" stroke-width="3.2"/>
<circle clip-path="url(#clip252)" cx="1131.44" cy="697.041" r="14" fill="#fb8d00" fill-rule="evenodd" fill-opacity="0.3" stroke="#000000" stroke-opacity="0.3" stroke-width="3.2"/>
<circle clip-path="url(#clip252)" cx="1133.4" cy="735.212" r="14" fill="#fb8d00" fill-rule="evenodd" fill-opacity="0.3" stroke="#000000" stroke-opacity="0.3" stroke-width="3.2"/>
<circle clip-path="url(#clip252)" cx="1133.63" cy="753.515" r="14" fill="#fb8d00" fill-rule="evenodd" fill-opacity="0.3" stroke="#000000" stroke-opacity="0.3" stroke-width="3.2"/>
<circle clip-path="url(#clip252)" cx="1133.63" cy="716.909" r="14" fill="#fb8d00" fill-rule="evenodd" fill-opacity="0.3" stroke="#000000" stroke-opacity="0.3" stroke-width="3.2"/>
<circle clip-path="url(#clip252)" cx="1138.85" cy="738.975" r="14" fill="#fb8d00" fill-rule="evenodd" fill-opacity="0.3" stroke="#000000" stroke-opacity="0.3" stroke-width="3.2"/>
<circle clip-path="url(#clip252)" cx="1138.85" cy="731.449" r="14" fill="#fb8d00" fill-rule="evenodd" fill-opacity="0.3" stroke="#000000" stroke-opacity="0.3" stroke-width="3.2"/>
<circle clip-path="url(#clip252)" cx="1140.8" cy="763.086" r="14" fill="#fb8d00" fill-rule="evenodd" fill-opacity="0.3" stroke="#000000" stroke-opacity="0.3" stroke-width="3.2"/>
<circle clip-path="url(#clip252)" cx="1140.8" cy="707.338" r="14" fill="#fb8d00" fill-rule="evenodd" fill-opacity="0.3" stroke="#000000" stroke-opacity="0.3" stroke-width="3.2"/>
<circle clip-path="url(#clip252)" cx="1144.11" cy="740.422" r="14" fill="#fb8d00" fill-rule="evenodd" fill-opacity="0.3" stroke="#000000" stroke-opacity="0.3" stroke-width="3.2"/>
<circle clip-path="url(#clip252)" cx="1144.11" cy="730.002" r="14" fill="#fb8d00" fill-rule="evenodd" fill-opacity="0.3" stroke="#000000" stroke-opacity="0.3" stroke-width="3.2"/>
<circle clip-path="url(#clip252)" cx="1147.87" cy="754.939" r="14" fill="#fb8d00" fill-rule="evenodd" fill-opacity="0.3" stroke="#000000" stroke-opacity="0.3" stroke-width="3.2"/>
<circle clip-path="url(#clip252)" cx="1147.87" cy="715.485" r="14" fill="#fb8d00" fill-rule="evenodd" fill-opacity="0.3" stroke="#000000" stroke-opacity="0.3" stroke-width="3.2"/>
<circle clip-path="url(#clip252)" cx="1149.31" cy="747.827" r="14" fill="#fb8d00" fill-rule="evenodd" fill-opacity="0.3" stroke="#000000" stroke-opacity="0.3" stroke-width="3.2"/>
<circle clip-path="url(#clip252)" cx="1149.31" cy="722.597" r="14" fill="#fb8d00" fill-rule="evenodd" fill-opacity="0.3" stroke="#000000" stroke-opacity="0.3" stroke-width="3.2"/>
<circle clip-path="url(#clip252)" cx="1155.29" cy="762.326" r="14" fill="#fb8d00" fill-rule="evenodd" fill-opacity="0.3" stroke="#000000" stroke-opacity="0.3" stroke-width="3.2"/>
<circle clip-path="url(#clip252)" cx="1155.29" cy="708.098" r="14" fill="#fb8d00" fill-rule="evenodd" fill-opacity="0.3" stroke="#000000" stroke-opacity="0.3" stroke-width="3.2"/>
<circle clip-path="url(#clip252)" cx="1155.38" cy="744.141" r="14" fill="#fb8d00" fill-rule="evenodd" fill-opacity="0.3" stroke="#000000" stroke-opacity="0.3" stroke-width="3.2"/>
<circle clip-path="url(#clip252)" cx="1155.38" cy="726.283" r="14" fill="#fb8d00" fill-rule="evenodd" fill-opacity="0.3" stroke="#000000" stroke-opacity="0.3" stroke-width="3.2"/>
<circle clip-path="url(#clip252)" cx="1165.61" cy="735.212" r="14" fill="#fb8d00" fill-rule="evenodd" fill-opacity="0.3" stroke="#000000" stroke-opacity="0.3" stroke-width="3.2"/>
<polyline clip-path="url(#clip252)" style="stroke:#000003; stroke-linecap:butt; stroke-linejoin:round; stroke-width:8; stroke-opacity:1; fill:none" points="
  1043.38,759.225 1043.87,759.873 1044.28,760.523 1045.14,761.821 1046.1,763.119 1047.14,764.417 1048.28,765.715 1049.52,767.013 1050.58,768.044 1050.82,768.311 
  1052.07,769.609 1053.43,770.907 1054.91,772.205 1056.53,773.503 1057.28,774.078 1058.19,774.801 1059.94,776.099 1061.84,777.397 1063.92,778.695 1063.98,778.732 
  1066.13,779.993 1068.54,781.291 1070.68,782.358 1071.21,782.589 1074.24,783.887 1077.38,785.117 1077.6,785.185 1081.84,786.483 1084.09,787.135 1087.33,787.781 
  1090.79,788.46 1096.99,789.079 1097.49,789.13 1104.19,789.181 1105.35,789.079 1110.89,788.604 1115.35,787.781 1117.6,787.361 1120.69,786.483 1124.3,785.404 
  1124.87,785.185 1128.14,783.887 1131,782.645 1131.11,782.589 1133.66,781.291 1135.97,779.993 1137.7,778.939 1138.08,778.695 1140.05,777.397 1141.84,776.099 
  1143.47,774.801 1144.41,773.999 1145.01,773.503 1146.52,772.205 1147.89,770.907 1149.14,769.609 1150.27,768.311 1151.11,767.253 1151.33,767.013 1152.47,765.715 
  1153.51,764.417 1154.47,763.119 1155.33,761.821 1156.11,760.523 1156.81,759.225 1157.44,757.927 1157.81,757.101 1158.08,756.629 1158.79,755.331 1159.43,754.033 
  1160.01,752.735 1160.53,751.437 1161,750.139 1161.41,748.841 1161.78,747.543 1162.1,746.245 1162.38,744.947 1162.62,743.649 1162.82,742.351 1162.99,741.053 
  1163.12,739.755 1163.21,738.457 1163.28,737.159 1163.31,735.861 1163.31,734.563 1163.28,733.265 1163.21,731.967 1163.12,730.669 1162.99,729.371 1162.82,728.073 
  1162.62,726.775 1162.38,725.477 1162.1,724.179 1161.78,722.881 1161.41,721.583 1161,720.285 1160.53,718.987 1160.01,717.689 1159.43,716.391 1158.79,715.093 
  1158.08,713.795 1157.81,713.322 1157.44,712.497 1156.81,711.199 1156.11,709.901 1155.33,708.603 1154.47,707.305 1153.51,706.007 1152.47,704.709 1151.33,703.411 
  1151.11,703.171 1150.27,702.113 1149.14,700.815 1147.89,699.517 1146.52,698.219 1145.01,696.921 1144.41,696.425 1143.47,695.623 1141.84,694.325 1140.05,693.027 
  1138.08,691.729 1137.7,691.485 1135.97,690.431 1133.66,689.133 1131.11,687.835 1131,687.779 1128.14,686.537 1124.87,685.239 1124.3,685.02 1120.69,683.941 
  1117.6,683.063 1115.35,682.643 1110.89,681.82 1105.35,681.345 1104.19,681.243 1097.49,681.293 1096.99,681.345 1090.79,681.964 1087.33,682.643 1084.09,683.289 
  1081.84,683.941 1077.6,685.239 1077.38,685.307 1074.24,686.537 1071.21,687.835 1070.68,688.065 1068.54,689.133 1066.13,690.431 1063.98,691.692 1063.92,691.729 
  1061.84,693.027 1059.94,694.325 1058.19,695.623 1057.28,696.346 1056.53,696.921 1054.91,698.219 1053.43,699.517 1052.07,700.815 1050.82,702.113 1050.58,702.38 
  1049.52,703.411 1048.28,704.709 1047.14,706.007 1046.1,707.305 1045.14,708.603 1044.28,709.901 1043.87,710.551 1043.38,711.199 1042.45,712.497 1041.6,713.795 
  1040.82,715.093 1040.11,716.391 1039.47,717.689 1038.9,718.987 1038.39,720.285 1037.95,721.583 1037.56,722.881 1037.23,724.179 1037.17,724.418 1036.81,725.477 
  1036.42,726.775 1036.09,728.073 1035.82,729.371 1035.6,730.669 1035.44,731.967 1035.33,733.265 1035.27,734.563 1035.27,735.861 1035.33,737.159 1035.44,738.457 
  1035.6,739.755 1035.82,741.053 1036.09,742.351 1036.42,743.649 1036.81,744.947 1037.17,746.006 1037.23,746.245 1037.56,747.543 1037.95,748.841 1038.39,750.139 
  1038.9,751.437 1039.47,752.735 1040.11,754.033 1040.82,755.331 1041.6,756.629 1042.45,757.927 1043.38,759.225 
  "/>
</svg>
