<?xml version="1.0" encoding="utf-8"?>
<svg xmlns="http://www.w3.org/2000/svg" xmlns:xlink="http://www.w3.org/1999/xlink" width="600" height="400" viewBox="0 0 2400 1600">
<defs>
  <clipPath id="clip990">
    <rect x="0" y="0" width="2400" height="1600"/>
  </clipPath>
</defs>
<path clip-path="url(#clip990)" d="
M0 1600 L2400 1600 L2400 0 L0 0  Z
  " fill="#ffffff" fill-rule="evenodd" fill-opacity="1"/>
<defs>
  <clipPath id="clip991">
    <rect x="480" y="0" width="1681" height="1600"/>
  </clipPath>
</defs>
<path clip-path="url(#clip990)" d="
M286.139 900.541 L2352.76 900.541 L2352.76 569.883 L286.139 569.883  Z
  " fill="#ffffff" fill-rule="evenodd" fill-opacity="1"/>
<defs>
  <clipPath id="clip992">
    <rect x="286" y="569" width="2068" height="332"/>
  </clipPath>
</defs>
<polyline clip-path="url(#clip990)" style="stroke:#000000; stroke-linecap:butt; stroke-linejoin:round; stroke-width:4; stroke-opacity:1; fill:none" points="
  286.139,900.541 2352.76,900.541 
  "/>
<polyline clip-path="url(#clip990)" style="stroke:#000000; stroke-linecap:butt; stroke-linejoin:round; stroke-width:4; stroke-opacity:1; fill:none" points="
  344.628,900.541 344.628,896 
  "/>
<polyline clip-path="url(#clip990)" style="stroke:#000000; stroke-linecap:butt; stroke-linejoin:round; stroke-width:4; stroke-opacity:1; fill:none" points="
  734.556,900.541 734.556,896 
  "/>
<polyline clip-path="url(#clip990)" style="stroke:#000000; stroke-linecap:butt; stroke-linejoin:round; stroke-width:4; stroke-opacity:1; fill:none" points="
  1124.48,900.541 1124.48,896 
  "/>
<polyline clip-path="url(#clip990)" style="stroke:#000000; stroke-linecap:butt; stroke-linejoin:round; stroke-width:4; stroke-opacity:1; fill:none" points="
  1514.41,900.541 1514.41,896 
  "/>
<polyline clip-path="url(#clip990)" style="stroke:#000000; stroke-linecap:butt; stroke-linejoin:round; stroke-width:4; stroke-opacity:1; fill:none" points="
  1904.34,900.541 1904.34,896 
  "/>
<polyline clip-path="url(#clip990)" style="stroke:#000000; stroke-linecap:butt; stroke-linejoin:round; stroke-width:4; stroke-opacity:1; fill:none" points="
  2294.27,900.541 2294.27,896 
  "/>
<path clip-path="url(#clip990)" d="M276.075 946.113 L305.751 946.113 L305.751 950.048 L276.075 950.048 L276.075 946.113 Z" fill="#000000" fill-rule="evenodd" fill-opacity="1" /><path clip-path="url(#clip990)" d="M325.844 931.46 Q322.233 931.46 320.404 935.025 Q318.598 938.566 318.598 945.696 Q318.598 952.802 320.404 956.367 Q322.233 959.909 325.844 959.909 Q329.478 959.909 331.283 956.367 Q333.112 952.802 333.112 945.696 Q333.112 938.566 331.283 935.025 Q329.478 931.46 325.844 931.46 M325.844 927.756 Q331.654 927.756 334.709 932.363 Q337.788 936.946 337.788 945.696 Q337.788 954.423 334.709 959.029 Q331.654 963.613 325.844 963.613 Q320.033 963.613 316.955 959.029 Q313.899 954.423 313.899 945.696 Q313.899 936.946 316.955 932.363 Q320.033 927.756 325.844 927.756 Z" fill="#000000" fill-rule="evenodd" fill-opacity="1" /><path clip-path="url(#clip990)" d="M346.006 957.062 L350.89 957.062 L350.89 962.941 L346.006 962.941 L346.006 957.062 Z" fill="#000000" fill-rule="evenodd" fill-opacity="1" /><path clip-path="url(#clip990)" d="M375.241 944.307 Q378.598 945.025 380.473 947.293 Q382.371 949.562 382.371 952.895 Q382.371 958.011 378.853 960.812 Q375.334 963.613 368.853 963.613 Q366.677 963.613 364.362 963.173 Q362.07 962.756 359.617 961.9 L359.617 957.386 Q361.561 958.52 363.876 959.099 Q366.191 959.677 368.714 959.677 Q373.112 959.677 375.404 957.941 Q377.718 956.205 377.718 952.895 Q377.718 949.84 375.566 948.127 Q373.436 946.39 369.617 946.39 L365.589 946.39 L365.589 942.548 L369.802 942.548 Q373.251 942.548 375.079 941.182 Q376.908 939.793 376.908 937.201 Q376.908 934.539 375.01 933.127 Q373.135 931.691 369.617 931.691 Q367.695 931.691 365.496 932.108 Q363.297 932.525 360.658 933.404 L360.658 929.238 Q363.32 928.497 365.635 928.127 Q367.973 927.756 370.033 927.756 Q375.357 927.756 378.459 930.187 Q381.561 932.594 381.561 936.715 Q381.561 939.585 379.917 941.576 Q378.274 943.543 375.241 944.307 Z" fill="#000000" fill-rule="evenodd" fill-opacity="1" /><path clip-path="url(#clip990)" d="M401.237 931.46 Q397.626 931.46 395.797 935.025 Q393.991 938.566 393.991 945.696 Q393.991 952.802 395.797 956.367 Q397.626 959.909 401.237 959.909 Q404.871 959.909 406.676 956.367 Q408.505 952.802 408.505 945.696 Q408.505 938.566 406.676 935.025 Q404.871 931.46 401.237 931.46 M401.237 927.756 Q407.047 927.756 410.102 932.363 Q413.181 936.946 413.181 945.696 Q413.181 954.423 410.102 959.029 Q407.047 963.613 401.237 963.613 Q395.427 963.613 392.348 959.029 Q389.292 954.423 389.292 945.696 Q389.292 936.946 392.348 932.363 Q395.427 927.756 401.237 927.756 Z" fill="#000000" fill-rule="evenodd" fill-opacity="1" /><path clip-path="url(#clip990)" d="M666.501 946.113 L696.176 946.113 L696.176 950.048 L666.501 950.048 L666.501 946.113 Z" fill="#000000" fill-rule="evenodd" fill-opacity="1" /><path clip-path="url(#clip990)" d="M716.269 931.46 Q712.658 931.46 710.829 935.025 Q709.024 938.566 709.024 945.696 Q709.024 952.802 710.829 956.367 Q712.658 959.909 716.269 959.909 Q719.903 959.909 721.709 956.367 Q723.537 952.802 723.537 945.696 Q723.537 938.566 721.709 935.025 Q719.903 931.46 716.269 931.46 M716.269 927.756 Q722.079 927.756 725.135 932.363 Q728.213 936.946 728.213 945.696 Q728.213 954.423 725.135 959.029 Q722.079 963.613 716.269 963.613 Q710.459 963.613 707.38 959.029 Q704.325 954.423 704.325 945.696 Q704.325 936.946 707.38 932.363 Q710.459 927.756 716.269 927.756 Z" fill="#000000" fill-rule="evenodd" fill-opacity="1" /><path clip-path="url(#clip990)" d="M736.431 957.062 L741.315 957.062 L741.315 962.941 L736.431 962.941 L736.431 957.062 Z" fill="#000000" fill-rule="evenodd" fill-opacity="1" /><path clip-path="url(#clip990)" d="M755.528 959.006 L771.847 959.006 L771.847 962.941 L749.903 962.941 L749.903 959.006 Q752.565 956.252 757.148 951.622 Q761.755 946.969 762.935 945.627 Q765.181 943.103 766.06 941.367 Q766.963 939.608 766.963 937.918 Q766.963 935.164 765.019 933.428 Q763.097 931.691 759.996 931.691 Q757.797 931.691 755.343 932.455 Q752.912 933.219 750.135 934.77 L750.135 930.048 Q752.959 928.914 755.412 928.335 Q757.866 927.756 759.903 927.756 Q765.273 927.756 768.468 930.441 Q771.662 933.127 771.662 937.617 Q771.662 939.747 770.852 941.668 Q770.065 943.566 767.959 946.159 Q767.38 946.83 764.278 950.048 Q761.176 953.242 755.528 959.006 Z" fill="#000000" fill-rule="evenodd" fill-opacity="1" /><path clip-path="url(#clip990)" d="M781.708 928.381 L800.065 928.381 L800.065 932.316 L785.991 932.316 L785.991 940.789 Q787.009 940.441 788.028 940.279 Q789.046 940.094 790.065 940.094 Q795.852 940.094 799.232 943.265 Q802.611 946.437 802.611 951.853 Q802.611 957.432 799.139 960.534 Q795.667 963.613 789.347 963.613 Q787.171 963.613 784.903 963.242 Q782.658 962.872 780.25 962.131 L780.25 957.432 Q782.333 958.566 784.556 959.122 Q786.778 959.677 789.255 959.677 Q793.259 959.677 795.597 957.571 Q797.935 955.465 797.935 951.853 Q797.935 948.242 795.597 946.136 Q793.259 944.029 789.255 944.029 Q787.38 944.029 785.505 944.446 Q783.653 944.863 781.708 945.742 L781.708 928.381 Z" fill="#000000" fill-rule="evenodd" fill-opacity="1" /><path clip-path="url(#clip990)" d="M1055.93 946.113 L1085.61 946.113 L1085.61 950.048 L1055.93 950.048 L1055.93 946.113 Z" fill="#000000" fill-rule="evenodd" fill-opacity="1" /><path clip-path="url(#clip990)" d="M1105.7 931.46 Q1102.09 931.46 1100.26 935.025 Q1098.45 938.566 1098.45 945.696 Q1098.45 952.802 1100.26 956.367 Q1102.09 959.909 1105.7 959.909 Q1109.33 959.909 1111.14 956.367 Q1112.97 952.802 1112.97 945.696 Q1112.97 938.566 1111.14 935.025 Q1109.33 931.46 1105.7 931.46 M1105.7 927.756 Q1111.51 927.756 1114.56 932.363 Q1117.64 936.946 1117.64 945.696 Q1117.64 954.423 1114.56 959.029 Q1111.51 963.613 1105.7 963.613 Q1099.89 963.613 1096.81 959.029 Q1093.75 954.423 1093.75 945.696 Q1093.75 936.946 1096.81 932.363 Q1099.89 927.756 1105.7 927.756 Z" fill="#000000" fill-rule="evenodd" fill-opacity="1" /><path clip-path="url(#clip990)" d="M1125.86 957.062 L1130.75 957.062 L1130.75 962.941 L1125.86 962.941 L1125.86 957.062 Z" fill="#000000" fill-rule="evenodd" fill-opacity="1" /><path clip-path="url(#clip990)" d="M1144.96 959.006 L1161.28 959.006 L1161.28 962.941 L1139.33 962.941 L1139.33 959.006 Q1142 956.252 1146.58 951.622 Q1151.18 946.969 1152.37 945.627 Q1154.61 943.103 1155.49 941.367 Q1156.39 939.608 1156.39 937.918 Q1156.39 935.164 1154.45 933.428 Q1152.53 931.691 1149.43 931.691 Q1147.23 931.691 1144.77 932.455 Q1142.34 933.219 1139.56 934.77 L1139.56 930.048 Q1142.39 928.914 1144.84 928.335 Q1147.3 927.756 1149.33 927.756 Q1154.7 927.756 1157.9 930.441 Q1161.09 933.127 1161.09 937.617 Q1161.09 939.747 1160.28 941.668 Q1159.5 943.566 1157.39 946.159 Q1156.81 946.83 1153.71 950.048 Q1150.61 953.242 1144.96 959.006 Z" fill="#000000" fill-rule="evenodd" fill-opacity="1" /><path clip-path="url(#clip990)" d="M1181.09 931.46 Q1177.48 931.46 1175.65 935.025 Q1173.85 938.566 1173.85 945.696 Q1173.85 952.802 1175.65 956.367 Q1177.48 959.909 1181.09 959.909 Q1184.73 959.909 1186.53 956.367 Q1188.36 952.802 1188.36 945.696 Q1188.36 938.566 1186.53 935.025 Q1184.73 931.46 1181.09 931.46 M1181.09 927.756 Q1186.9 927.756 1189.96 932.363 Q1193.04 936.946 1193.04 945.696 Q1193.04 954.423 1189.96 959.029 Q1186.9 963.613 1181.09 963.613 Q1175.28 963.613 1172.2 959.029 Q1169.15 954.423 1169.15 945.696 Q1169.15 936.946 1172.2 932.363 Q1175.28 927.756 1181.09 927.756 Z" fill="#000000" fill-rule="evenodd" fill-opacity="1" /><path clip-path="url(#clip990)" d="M1446.36 946.113 L1476.03 946.113 L1476.03 950.048 L1446.36 950.048 L1446.36 946.113 Z" fill="#000000" fill-rule="evenodd" fill-opacity="1" /><path clip-path="url(#clip990)" d="M1496.12 931.46 Q1492.51 931.46 1490.68 935.025 Q1488.88 938.566 1488.88 945.696 Q1488.88 952.802 1490.68 956.367 Q1492.51 959.909 1496.12 959.909 Q1499.76 959.909 1501.56 956.367 Q1503.39 952.802 1503.39 945.696 Q1503.39 938.566 1501.56 935.025 Q1499.76 931.46 1496.12 931.46 M1496.12 927.756 Q1501.93 927.756 1504.99 932.363 Q1508.07 936.946 1508.07 945.696 Q1508.07 954.423 1504.99 959.029 Q1501.93 963.613 1496.12 963.613 Q1490.31 963.613 1487.24 959.029 Q1484.18 954.423 1484.18 945.696 Q1484.18 936.946 1487.24 932.363 Q1490.31 927.756 1496.12 927.756 Z" fill="#000000" fill-rule="evenodd" fill-opacity="1" /><path clip-path="url(#clip990)" d="M1516.29 957.062 L1521.17 957.062 L1521.17 962.941 L1516.29 962.941 L1516.29 957.062 Z" fill="#000000" fill-rule="evenodd" fill-opacity="1" /><path clip-path="url(#clip990)" d="M1532.17 959.006 L1539.8 959.006 L1539.8 932.641 L1531.49 934.307 L1531.49 930.048 L1539.76 928.381 L1544.43 928.381 L1544.43 959.006 L1552.07 959.006 L1552.07 962.941 L1532.17 962.941 L1532.17 959.006 Z" fill="#000000" fill-rule="evenodd" fill-opacity="1" /><path clip-path="url(#clip990)" d="M1561.56 928.381 L1579.92 928.381 L1579.92 932.316 L1565.85 932.316 L1565.85 940.789 Q1566.86 940.441 1567.88 940.279 Q1568.9 940.094 1569.92 940.094 Q1575.71 940.094 1579.09 943.265 Q1582.47 946.437 1582.47 951.853 Q1582.47 957.432 1578.99 960.534 Q1575.52 963.613 1569.2 963.613 Q1567.03 963.613 1564.76 963.242 Q1562.51 962.872 1560.11 962.131 L1560.11 957.432 Q1562.19 958.566 1564.41 959.122 Q1566.63 959.677 1569.11 959.677 Q1573.11 959.677 1575.45 957.571 Q1577.79 955.465 1577.79 951.853 Q1577.79 948.242 1575.45 946.136 Q1573.11 944.029 1569.11 944.029 Q1567.24 944.029 1565.36 944.446 Q1563.51 944.863 1561.56 945.742 L1561.56 928.381 Z" fill="#000000" fill-rule="evenodd" fill-opacity="1" /><path clip-path="url(#clip990)" d="M1835.79 946.113 L1865.46 946.113 L1865.46 950.048 L1835.79 950.048 L1835.79 946.113 Z" fill="#000000" fill-rule="evenodd" fill-opacity="1" /><path clip-path="url(#clip990)" d="M1885.55 931.46 Q1881.94 931.46 1880.11 935.025 Q1878.31 938.566 1878.31 945.696 Q1878.31 952.802 1880.11 956.367 Q1881.94 959.909 1885.55 959.909 Q1889.19 959.909 1890.99 956.367 Q1892.82 952.802 1892.82 945.696 Q1892.82 938.566 1890.99 935.025 Q1889.19 931.46 1885.55 931.46 M1885.55 927.756 Q1891.36 927.756 1894.42 932.363 Q1897.5 936.946 1897.5 945.696 Q1897.5 954.423 1894.42 959.029 Q1891.36 963.613 1885.55 963.613 Q1879.74 963.613 1876.67 959.029 Q1873.61 954.423 1873.61 945.696 Q1873.61 936.946 1876.67 932.363 Q1879.74 927.756 1885.55 927.756 Z" fill="#000000" fill-rule="evenodd" fill-opacity="1" /><path clip-path="url(#clip990)" d="M1905.72 957.062 L1910.6 957.062 L1910.6 962.941 L1905.72 962.941 L1905.72 957.062 Z" fill="#000000" fill-rule="evenodd" fill-opacity="1" /><path clip-path="url(#clip990)" d="M1921.6 959.006 L1929.23 959.006 L1929.23 932.641 L1920.92 934.307 L1920.92 930.048 L1929.19 928.381 L1933.86 928.381 L1933.86 959.006 L1941.5 959.006 L1941.5 962.941 L1921.6 962.941 L1921.6 959.006 Z" fill="#000000" fill-rule="evenodd" fill-opacity="1" /><path clip-path="url(#clip990)" d="M1960.95 931.46 Q1957.34 931.46 1955.51 935.025 Q1953.7 938.566 1953.7 945.696 Q1953.7 952.802 1955.51 956.367 Q1957.34 959.909 1960.95 959.909 Q1964.58 959.909 1966.39 956.367 Q1968.22 952.802 1968.22 945.696 Q1968.22 938.566 1966.39 935.025 Q1964.58 931.46 1960.95 931.46 M1960.95 927.756 Q1966.76 927.756 1969.81 932.363 Q1972.89 936.946 1972.89 945.696 Q1972.89 954.423 1969.81 959.029 Q1966.76 963.613 1960.95 963.613 Q1955.14 963.613 1952.06 959.029 Q1949 954.423 1949 945.696 Q1949 936.946 1952.06 932.363 Q1955.14 927.756 1960.95 927.756 Z" fill="#000000" fill-rule="evenodd" fill-opacity="1" /><path clip-path="url(#clip990)" d="M2226.21 946.113 L2255.89 946.113 L2255.89 950.048 L2226.21 950.048 L2226.21 946.113 Z" fill="#000000" fill-rule="evenodd" fill-opacity="1" /><path clip-path="url(#clip990)" d="M2275.98 931.46 Q2272.37 931.46 2270.54 935.025 Q2268.73 938.566 2268.73 945.696 Q2268.73 952.802 2270.54 956.367 Q2272.37 959.909 2275.98 959.909 Q2279.61 959.909 2281.42 956.367 Q2283.25 952.802 2283.25 945.696 Q2283.25 938.566 2281.42 935.025 Q2279.61 931.46 2275.98 931.46 M2275.98 927.756 Q2281.79 927.756 2284.85 932.363 Q2287.92 936.946 2287.92 945.696 Q2287.92 954.423 2284.85 959.029 Q2281.79 963.613 2275.98 963.613 Q2270.17 963.613 2267.09 959.029 Q2264.04 954.423 2264.04 945.696 Q2264.04 936.946 2267.09 932.363 Q2270.17 927.756 2275.98 927.756 Z" fill="#000000" fill-rule="evenodd" fill-opacity="1" /><path clip-path="url(#clip990)" d="M2296.14 957.062 L2301.03 957.062 L2301.03 962.941 L2296.14 962.941 L2296.14 957.062 Z" fill="#000000" fill-rule="evenodd" fill-opacity="1" /><path clip-path="url(#clip990)" d="M2321.21 931.46 Q2317.6 931.46 2315.77 935.025 Q2313.97 938.566 2313.97 945.696 Q2313.97 952.802 2315.77 956.367 Q2317.6 959.909 2321.21 959.909 Q2324.85 959.909 2326.65 956.367 Q2328.48 952.802 2328.48 945.696 Q2328.48 938.566 2326.65 935.025 Q2324.85 931.46 2321.21 931.46 M2321.21 927.756 Q2327.02 927.756 2330.08 932.363 Q2333.16 936.946 2333.16 945.696 Q2333.16 954.423 2330.08 959.029 Q2327.02 963.613 2321.21 963.613 Q2315.4 963.613 2312.32 959.029 Q2309.27 954.423 2309.27 945.696 Q2309.27 936.946 2312.32 932.363 Q2315.4 927.756 2321.21 927.756 Z" fill="#000000" fill-rule="evenodd" fill-opacity="1" /><path clip-path="url(#clip990)" d="M2341.42 928.381 L2359.78 928.381 L2359.78 932.316 L2345.7 932.316 L2345.7 940.789 Q2346.72 940.441 2347.74 940.279 Q2348.76 940.094 2349.78 940.094 Q2355.56 940.094 2358.94 943.265 Q2362.32 946.437 2362.32 951.853 Q2362.32 957.432 2358.85 960.534 Q2355.38 963.613 2349.06 963.613 Q2346.88 963.613 2344.61 963.242 Q2342.37 962.872 2339.96 962.131 L2339.96 957.432 Q2342.04 958.566 2344.27 959.122 Q2346.49 959.677 2348.97 959.677 Q2352.97 959.677 2355.31 957.571 Q2357.65 955.465 2357.65 951.853 Q2357.65 948.242 2355.31 946.136 Q2352.97 944.029 2348.97 944.029 Q2347.09 944.029 2345.22 944.446 Q2343.36 944.863 2341.42 945.742 L2341.42 928.381 Z" fill="#000000" fill-rule="evenodd" fill-opacity="1" /><path clip-path="url(#clip990)" d="M1262.03 1023.13 Q1264.1 1023.83 1266.04 1026.12 Q1268.01 1028.41 1269.99 1032.42 L1276.51 1045.41 L1269.6 1045.41 L1263.52 1033.21 Q1261.17 1028.44 1258.94 1026.88 Q1256.75 1025.32 1252.93 1025.32 L1245.92 1025.32 L1245.92 1045.41 L1239.49 1045.41 L1239.49 997.885 L1254.01 997.885 Q1262.16 997.885 1266.17 1001.29 Q1270.18 1004.7 1270.18 1011.57 Q1270.18 1016.06 1268.08 1019.02 Q1266.01 1021.98 1262.03 1023.13 M1245.92 1003.17 L1245.92 1020.04 L1254.01 1020.04 Q1258.65 1020.04 1261.01 1017.91 Q1263.4 1015.74 1263.4 1011.57 Q1263.4 1007.4 1261.01 1005.3 Q1258.65 1003.17 1254.01 1003.17 L1245.92 1003.17 Z" fill="#000000" fill-rule="evenodd" fill-opacity="1" /><path clip-path="url(#clip990)" d="M1312.1 1026.12 L1312.1 1028.98 L1285.17 1028.98 Q1285.55 1035.03 1288.8 1038.21 Q1292.07 1041.36 1297.9 1041.36 Q1301.27 1041.36 1304.42 1040.54 Q1307.61 1039.71 1310.73 1038.05 L1310.73 1043.59 Q1307.58 1044.93 1304.27 1045.63 Q1300.96 1046.33 1297.55 1046.33 Q1289.02 1046.33 1284.02 1041.36 Q1279.06 1036.4 1279.06 1027.93 Q1279.06 1019.18 1283.77 1014.05 Q1288.51 1008.9 1296.53 1008.9 Q1303.72 1008.9 1307.89 1013.54 Q1312.1 1018.16 1312.1 1026.12 M1306.24 1024.4 Q1306.17 1019.59 1303.53 1016.73 Q1300.92 1013.86 1296.59 1013.86 Q1291.69 1013.86 1288.73 1016.63 Q1285.8 1019.4 1285.36 1024.43 L1306.24 1024.4 Z" fill="#000000" fill-rule="evenodd" fill-opacity="1" /><path clip-path="url(#clip990)" d="M1335.78 995.944 Q1331.51 1003.26 1329.44 1010.43 Q1327.37 1017.59 1327.37 1024.94 Q1327.37 1032.29 1329.44 1039.52 Q1331.54 1046.71 1335.78 1054 L1330.68 1054 Q1325.91 1046.52 1323.52 1039.29 Q1321.17 1032.07 1321.17 1024.94 Q1321.17 1017.84 1323.52 1010.65 Q1325.88 1003.46 1330.68 995.944 L1335.78 995.944 Z" fill="#000000" fill-rule="evenodd" fill-opacity="1" /><path clip-path="url(#clip990)" d="M1376.77 1009.76 L1363.88 1027.1 L1377.44 1045.41 L1370.53 1045.41 L1360.16 1031.4 L1349.78 1045.41 L1342.87 1045.41 L1356.72 1026.75 L1344.05 1009.76 L1350.96 1009.76 L1360.41 1022.46 L1369.86 1009.76 L1376.77 1009.76 Z" fill="#000000" fill-rule="evenodd" fill-opacity="1" /><path clip-path="url(#clip990)" d="M1384.79 995.944 L1389.88 995.944 Q1394.66 1003.46 1397.01 1010.65 Q1399.4 1017.84 1399.4 1024.94 Q1399.4 1032.07 1397.01 1039.29 Q1394.66 1046.52 1389.88 1054 L1384.79 1054 Q1389.02 1046.71 1391.09 1039.52 Q1393.19 1032.29 1393.19 1024.94 Q1393.19 1017.59 1391.09 1010.43 Q1389.02 1003.26 1384.79 995.944 Z" fill="#000000" fill-rule="evenodd" fill-opacity="1" /><polyline clip-path="url(#clip990)" style="stroke:#000000; stroke-linecap:butt; stroke-linejoin:round; stroke-width:4; stroke-opacity:1; fill:none" points="
  286.139,900.541 286.139,569.883 
  "/>
<polyline clip-path="url(#clip990)" style="stroke:#000000; stroke-linecap:butt; stroke-linejoin:round; stroke-width:4; stroke-opacity:1; fill:none" points="
  286.139,891.183 305.037,891.183 
  "/>
<polyline clip-path="url(#clip990)" style="stroke:#000000; stroke-linecap:butt; stroke-linejoin:round; stroke-width:4; stroke-opacity:1; fill:none" points="
  286.139,813.198 305.037,813.198 
  "/>
<polyline clip-path="url(#clip990)" style="stroke:#000000; stroke-linecap:butt; stroke-linejoin:round; stroke-width:4; stroke-opacity:1; fill:none" points="
  286.139,735.212 305.037,735.212 
  "/>
<polyline clip-path="url(#clip990)" style="stroke:#000000; stroke-linecap:butt; stroke-linejoin:round; stroke-width:4; stroke-opacity:1; fill:none" points="
  286.139,657.226 305.037,657.226 
  "/>
<polyline clip-path="url(#clip990)" style="stroke:#000000; stroke-linecap:butt; stroke-linejoin:round; stroke-width:4; stroke-opacity:1; fill:none" points="
  286.139,579.241 305.037,579.241 
  "/>
<path clip-path="url(#clip990)" d="M114.631 891.634 L144.306 891.634 L144.306 895.57 L114.631 895.57 L114.631 891.634 Z" fill="#000000" fill-rule="evenodd" fill-opacity="1" /><path clip-path="url(#clip990)" d="M164.399 876.982 Q160.788 876.982 158.959 880.547 Q157.153 884.088 157.153 891.218 Q157.153 898.324 158.959 901.889 Q160.788 905.431 164.399 905.431 Q168.033 905.431 169.839 901.889 Q171.667 898.324 171.667 891.218 Q171.667 884.088 169.839 880.547 Q168.033 876.982 164.399 876.982 M164.399 873.278 Q170.209 873.278 173.264 877.885 Q176.343 882.468 176.343 891.218 Q176.343 899.945 173.264 904.551 Q170.209 909.134 164.399 909.134 Q158.589 909.134 155.51 904.551 Q152.454 899.945 152.454 891.218 Q152.454 882.468 155.51 877.885 Q158.589 873.278 164.399 873.278 Z" fill="#000000" fill-rule="evenodd" fill-opacity="1" /><path clip-path="url(#clip990)" d="M184.561 902.583 L189.445 902.583 L189.445 908.463 L184.561 908.463 L184.561 902.583 Z" fill="#000000" fill-rule="evenodd" fill-opacity="1" /><path clip-path="url(#clip990)" d="M209.63 876.982 Q206.019 876.982 204.19 880.547 Q202.385 884.088 202.385 891.218 Q202.385 898.324 204.19 901.889 Q206.019 905.431 209.63 905.431 Q213.264 905.431 215.07 901.889 Q216.898 898.324 216.898 891.218 Q216.898 884.088 215.07 880.547 Q213.264 876.982 209.63 876.982 M209.63 873.278 Q215.44 873.278 218.496 877.885 Q221.574 882.468 221.574 891.218 Q221.574 899.945 218.496 904.551 Q215.44 909.134 209.63 909.134 Q203.82 909.134 200.741 904.551 Q197.686 899.945 197.686 891.218 Q197.686 882.468 200.741 877.885 Q203.82 873.278 209.63 873.278 Z" fill="#000000" fill-rule="evenodd" fill-opacity="1" /><path clip-path="url(#clip990)" d="M233.82 904.528 L250.139 904.528 L250.139 908.463 L228.195 908.463 L228.195 904.528 Q230.857 901.773 235.44 897.144 Q240.047 892.491 241.227 891.148 Q243.472 888.625 244.352 886.889 Q245.255 885.13 245.255 883.44 Q245.255 880.685 243.31 878.949 Q241.389 877.213 238.287 877.213 Q236.088 877.213 233.635 877.977 Q231.204 878.741 228.426 880.292 L228.426 875.57 Q231.25 874.435 233.704 873.857 Q236.158 873.278 238.195 873.278 Q243.565 873.278 246.759 875.963 Q249.954 878.648 249.954 883.139 Q249.954 885.269 249.144 887.19 Q248.357 889.088 246.25 891.681 Q245.671 892.352 242.57 895.57 Q239.468 898.764 233.82 904.528 Z" fill="#000000" fill-rule="evenodd" fill-opacity="1" /><path clip-path="url(#clip990)" d="M114.26 813.649 L143.936 813.649 L143.936 817.584 L114.26 817.584 L114.26 813.649 Z" fill="#000000" fill-rule="evenodd" fill-opacity="1" /><path clip-path="url(#clip990)" d="M164.028 798.996 Q160.417 798.996 158.589 802.561 Q156.783 806.103 156.783 813.232 Q156.783 820.339 158.589 823.903 Q160.417 827.445 164.028 827.445 Q167.663 827.445 169.468 823.903 Q171.297 820.339 171.297 813.232 Q171.297 806.103 169.468 802.561 Q167.663 798.996 164.028 798.996 M164.028 795.293 Q169.839 795.293 172.894 799.899 Q175.973 804.482 175.973 813.232 Q175.973 821.959 172.894 826.565 Q169.839 831.149 164.028 831.149 Q158.218 831.149 155.14 826.565 Q152.084 821.959 152.084 813.232 Q152.084 804.482 155.14 799.899 Q158.218 795.293 164.028 795.293 Z" fill="#000000" fill-rule="evenodd" fill-opacity="1" /><path clip-path="url(#clip990)" d="M184.19 824.598 L189.075 824.598 L189.075 830.478 L184.19 830.478 L184.19 824.598 Z" fill="#000000" fill-rule="evenodd" fill-opacity="1" /><path clip-path="url(#clip990)" d="M209.26 798.996 Q205.649 798.996 203.82 802.561 Q202.014 806.103 202.014 813.232 Q202.014 820.339 203.82 823.903 Q205.649 827.445 209.26 827.445 Q212.894 827.445 214.699 823.903 Q216.528 820.339 216.528 813.232 Q216.528 806.103 214.699 802.561 Q212.894 798.996 209.26 798.996 M209.26 795.293 Q215.07 795.293 218.125 799.899 Q221.204 804.482 221.204 813.232 Q221.204 821.959 218.125 826.565 Q215.07 831.149 209.26 831.149 Q203.449 831.149 200.371 826.565 Q197.315 821.959 197.315 813.232 Q197.315 804.482 200.371 799.899 Q203.449 795.293 209.26 795.293 Z" fill="#000000" fill-rule="evenodd" fill-opacity="1" /><path clip-path="url(#clip990)" d="M230.232 826.542 L237.871 826.542 L237.871 800.177 L229.56 801.843 L229.56 797.584 L237.824 795.918 L242.5 795.918 L242.5 826.542 L250.139 826.542 L250.139 830.478 L230.232 830.478 L230.232 826.542 Z" fill="#000000" fill-rule="evenodd" fill-opacity="1" /><path clip-path="url(#clip990)" d="M162.802 721.011 Q159.19 721.011 157.362 724.575 Q155.556 728.117 155.556 735.247 Q155.556 742.353 157.362 745.918 Q159.19 749.46 162.802 749.46 Q166.436 749.46 168.241 745.918 Q170.07 742.353 170.07 735.247 Q170.07 728.117 168.241 724.575 Q166.436 721.011 162.802 721.011 M162.802 717.307 Q168.612 717.307 171.667 721.913 Q174.746 726.497 174.746 735.247 Q174.746 743.973 171.667 748.58 Q168.612 753.163 162.802 753.163 Q156.991 753.163 153.913 748.58 Q150.857 743.973 150.857 735.247 Q150.857 726.497 153.913 721.913 Q156.991 717.307 162.802 717.307 Z" fill="#000000" fill-rule="evenodd" fill-opacity="1" /><path clip-path="url(#clip990)" d="M182.963 746.612 L187.848 746.612 L187.848 752.492 L182.963 752.492 L182.963 746.612 Z" fill="#000000" fill-rule="evenodd" fill-opacity="1" /><path clip-path="url(#clip990)" d="M208.033 721.011 Q204.422 721.011 202.593 724.575 Q200.787 728.117 200.787 735.247 Q200.787 742.353 202.593 745.918 Q204.422 749.46 208.033 749.46 Q211.667 749.46 213.473 745.918 Q215.301 742.353 215.301 735.247 Q215.301 728.117 213.473 724.575 Q211.667 721.011 208.033 721.011 M208.033 717.307 Q213.843 717.307 216.898 721.913 Q219.977 726.497 219.977 735.247 Q219.977 743.973 216.898 748.58 Q213.843 753.163 208.033 753.163 Q202.223 753.163 199.144 748.58 Q196.088 743.973 196.088 735.247 Q196.088 726.497 199.144 721.913 Q202.223 717.307 208.033 717.307 Z" fill="#000000" fill-rule="evenodd" fill-opacity="1" /><path clip-path="url(#clip990)" d="M238.195 721.011 Q234.584 721.011 232.755 724.575 Q230.949 728.117 230.949 735.247 Q230.949 742.353 232.755 745.918 Q234.584 749.46 238.195 749.46 Q241.829 749.46 243.634 745.918 Q245.463 742.353 245.463 735.247 Q245.463 728.117 243.634 724.575 Q241.829 721.011 238.195 721.011 M238.195 717.307 Q244.005 717.307 247.06 721.913 Q250.139 726.497 250.139 735.247 Q250.139 743.973 247.06 748.58 Q244.005 753.163 238.195 753.163 Q232.385 753.163 229.306 748.58 Q226.25 743.973 226.25 735.247 Q226.25 726.497 229.306 721.913 Q232.385 717.307 238.195 717.307 Z" fill="#000000" fill-rule="evenodd" fill-opacity="1" /><path clip-path="url(#clip990)" d="M164.028 643.025 Q160.417 643.025 158.589 646.59 Q156.783 650.132 156.783 657.261 Q156.783 664.368 158.589 667.932 Q160.417 671.474 164.028 671.474 Q167.663 671.474 169.468 667.932 Q171.297 664.368 171.297 657.261 Q171.297 650.132 169.468 646.59 Q167.663 643.025 164.028 643.025 M164.028 639.321 Q169.839 639.321 172.894 643.928 Q175.973 648.511 175.973 657.261 Q175.973 665.988 172.894 670.594 Q169.839 675.178 164.028 675.178 Q158.218 675.178 155.14 670.594 Q152.084 665.988 152.084 657.261 Q152.084 648.511 155.14 643.928 Q158.218 639.321 164.028 639.321 Z" fill="#000000" fill-rule="evenodd" fill-opacity="1" /><path clip-path="url(#clip990)" d="M184.19 668.627 L189.075 668.627 L189.075 674.506 L184.19 674.506 L184.19 668.627 Z" fill="#000000" fill-rule="evenodd" fill-opacity="1" /><path clip-path="url(#clip990)" d="M209.26 643.025 Q205.649 643.025 203.82 646.59 Q202.014 650.132 202.014 657.261 Q202.014 664.368 203.82 667.932 Q205.649 671.474 209.26 671.474 Q212.894 671.474 214.699 667.932 Q216.528 664.368 216.528 657.261 Q216.528 650.132 214.699 646.59 Q212.894 643.025 209.26 643.025 M209.26 639.321 Q215.07 639.321 218.125 643.928 Q221.204 648.511 221.204 657.261 Q221.204 665.988 218.125 670.594 Q215.07 675.178 209.26 675.178 Q203.449 675.178 200.371 670.594 Q197.315 665.988 197.315 657.261 Q197.315 648.511 200.371 643.928 Q203.449 639.321 209.26 639.321 Z" fill="#000000" fill-rule="evenodd" fill-opacity="1" /><path clip-path="url(#clip990)" d="M230.232 670.571 L237.871 670.571 L237.871 644.206 L229.56 645.872 L229.56 641.613 L237.824 639.946 L242.5 639.946 L242.5 670.571 L250.139 670.571 L250.139 674.506 L230.232 674.506 L230.232 670.571 Z" fill="#000000" fill-rule="evenodd" fill-opacity="1" /><path clip-path="url(#clip990)" d="M164.399 565.04 Q160.788 565.04 158.959 568.604 Q157.153 572.146 157.153 579.276 Q157.153 586.382 158.959 589.947 Q160.788 593.488 164.399 593.488 Q168.033 593.488 169.839 589.947 Q171.667 586.382 171.667 579.276 Q171.667 572.146 169.839 568.604 Q168.033 565.04 164.399 565.04 M164.399 561.336 Q170.209 561.336 173.264 565.942 Q176.343 570.526 176.343 579.276 Q176.343 588.002 173.264 592.609 Q170.209 597.192 164.399 597.192 Q158.589 597.192 155.51 592.609 Q152.454 588.002 152.454 579.276 Q152.454 570.526 155.51 565.942 Q158.589 561.336 164.399 561.336 Z" fill="#000000" fill-rule="evenodd" fill-opacity="1" /><path clip-path="url(#clip990)" d="M184.561 590.641 L189.445 590.641 L189.445 596.521 L184.561 596.521 L184.561 590.641 Z" fill="#000000" fill-rule="evenodd" fill-opacity="1" /><path clip-path="url(#clip990)" d="M209.63 565.04 Q206.019 565.04 204.19 568.604 Q202.385 572.146 202.385 579.276 Q202.385 586.382 204.19 589.947 Q206.019 593.488 209.63 593.488 Q213.264 593.488 215.07 589.947 Q216.898 586.382 216.898 579.276 Q216.898 572.146 215.07 568.604 Q213.264 565.04 209.63 565.04 M209.63 561.336 Q215.44 561.336 218.496 565.942 Q221.574 570.526 221.574 579.276 Q221.574 588.002 218.496 592.609 Q215.44 597.192 209.63 597.192 Q203.82 597.192 200.741 592.609 Q197.686 588.002 197.686 579.276 Q197.686 570.526 200.741 565.942 Q203.82 561.336 209.63 561.336 Z" fill="#000000" fill-rule="evenodd" fill-opacity="1" /><path clip-path="url(#clip990)" d="M233.82 592.586 L250.139 592.586 L250.139 596.521 L228.195 596.521 L228.195 592.586 Q230.857 589.831 235.44 585.202 Q240.047 580.549 241.227 579.206 Q243.472 576.683 244.352 574.947 Q245.255 573.188 245.255 571.498 Q245.255 568.743 243.31 567.007 Q241.389 565.271 238.287 565.271 Q236.088 565.271 233.635 566.035 Q231.204 566.799 228.426 568.35 L228.426 563.628 Q231.25 562.493 233.704 561.915 Q236.158 561.336 238.195 561.336 Q243.565 561.336 246.759 564.021 Q249.954 566.706 249.954 571.197 Q249.954 573.327 249.144 575.248 Q248.357 577.146 246.25 579.739 Q245.671 580.41 242.57 583.627 Q239.468 586.822 233.82 592.586 Z" fill="#000000" fill-rule="evenodd" fill-opacity="1" /><path clip-path="url(#clip990)" d="M16.4842 815.293 L16.4842 808.863 L64.0042 808.863 L64.0042 815.293 L16.4842 815.293 Z" fill="#000000" fill-rule="evenodd" fill-opacity="1" /><path clip-path="url(#clip990)" d="M35.1993 768.568 Q31.2526 766.372 29.3747 763.317 Q27.4968 760.261 27.4968 756.123 Q27.4968 750.553 31.4117 747.53 Q35.2948 744.506 42.4881 744.506 L64.0042 744.506 L64.0042 750.394 L42.679 750.394 Q37.5546 750.394 35.072 752.208 Q32.5894 754.023 32.5894 757.747 Q32.5894 762.298 35.6131 764.94 Q38.6368 767.582 43.8567 767.582 L64.0042 767.582 L64.0042 773.47 L42.679 773.47 Q37.5228 773.47 35.072 775.284 Q32.5894 777.098 32.5894 780.886 Q32.5894 785.374 35.6449 788.016 Q38.6686 790.657 43.8567 790.657 L64.0042 790.657 L64.0042 796.546 L28.3562 796.546 L28.3562 790.657 L33.8944 790.657 Q30.616 788.652 29.0564 785.851 Q27.4968 783.05 27.4968 779.199 Q27.4968 775.316 29.4702 772.61 Q31.4436 769.873 35.1993 768.568 Z" fill="#000000" fill-rule="evenodd" fill-opacity="1" /><path clip-path="url(#clip990)" d="M14.5426 718.757 Q21.8632 723.022 29.0246 725.09 Q36.186 727.159 43.5384 727.159 Q50.8908 727.159 58.1159 725.09 Q65.3091 722.99 72.5979 718.757 L72.5979 723.849 Q65.1182 728.623 57.8931 731.011 Q50.668 733.366 43.5384 733.366 Q36.4406 733.366 29.2474 731.011 Q22.0542 728.655 14.5426 723.849 L14.5426 718.757 Z" fill="#000000" fill-rule="evenodd" fill-opacity="1" /><path clip-path="url(#clip990)" d="M28.3562 677.761 L45.7028 690.652 L64.0042 677.093 L64.0042 684 L49.9996 694.376 L64.0042 704.752 L64.0042 711.659 L45.3526 697.813 L28.3562 710.481 L28.3562 703.574 L41.0558 694.121 L28.3562 684.668 L28.3562 677.761 Z" fill="#000000" fill-rule="evenodd" fill-opacity="1" /><path clip-path="url(#clip990)" d="M14.5426 669.741 L14.5426 664.648 Q22.0542 659.874 29.2474 657.519 Q36.4406 655.131 43.5384 655.131 Q50.668 655.131 57.8931 657.519 Q65.1182 659.874 72.5979 664.648 L72.5979 669.741 Q65.3091 665.507 58.1159 663.439 Q50.8908 661.338 43.5384 661.338 Q36.186 661.338 29.0246 663.439 Q21.8632 665.507 14.5426 669.741 Z" fill="#000000" fill-rule="evenodd" fill-opacity="1" /><circle clip-path="url(#clip992)" cx="431.215" cy="735.212" r="14" fill="#009af9" fill-rule="evenodd" fill-opacity="0.3" stroke="#000000" stroke-opacity="0.3" stroke-width="3.2"/>
<circle clip-path="url(#clip992)" cx="452.6" cy="735.212" r="14" fill="#009af9" fill-rule="evenodd" fill-opacity="0.3" stroke="#000000" stroke-opacity="0.3" stroke-width="3.2"/>
<circle clip-path="url(#clip992)" cx="487.77" cy="735.212" r="14" fill="#009af9" fill-rule="evenodd" fill-opacity="0.3" stroke="#000000" stroke-opacity="0.3" stroke-width="3.2"/>
<circle clip-path="url(#clip992)" cx="517.607" cy="745.883" r="14" fill="#009af9" fill-rule="evenodd" fill-opacity="0.3" stroke="#000000" stroke-opacity="0.3" stroke-width="3.2"/>
<circle clip-path="url(#clip992)" cx="517.607" cy="724.541" r="14" fill="#009af9" fill-rule="evenodd" fill-opacity="0.3" stroke="#000000" stroke-opacity="0.3" stroke-width="3.2"/>
<circle clip-path="url(#clip992)" cx="530.281" cy="735.212" r="14" fill="#009af9" fill-rule="evenodd" fill-opacity="0.3" stroke="#000000" stroke-opacity="0.3" stroke-width="3.2"/>
<circle clip-path="url(#clip992)" cx="567.255" cy="765.441" r="14" fill="#009af9" fill-rule="evenodd" fill-opacity="0.3" stroke="#000000" stroke-opacity="0.3" stroke-width="3.2"/>
<circle clip-path="url(#clip992)" cx="567.255" cy="704.983" r="14" fill="#009af9" fill-rule="evenodd" fill-opacity="0.3" stroke="#000000" stroke-opacity="0.3" stroke-width="3.2"/>
<circle clip-path="url(#clip992)" cx="576.033" cy="840.17" r="14" fill="#009af9" fill-rule="evenodd" fill-opacity="0.3" stroke="#000000" stroke-opacity="0.3" stroke-width="3.2"/>
<circle clip-path="url(#clip992)" cx="576.033" cy="630.254" r="14" fill="#009af9" fill-rule="evenodd" fill-opacity="0.3" stroke="#000000" stroke-opacity="0.3" stroke-width="3.2"/>
<circle clip-path="url(#clip992)" cx="584.7" cy="735.212" r="14" fill="#009af9" fill-rule="evenodd" fill-opacity="0.3" stroke="#000000" stroke-opacity="0.3" stroke-width="3.2"/>
<circle clip-path="url(#clip992)" cx="614.576" cy="804.805" r="14" fill="#009af9" fill-rule="evenodd" fill-opacity="0.3" stroke="#000000" stroke-opacity="0.3" stroke-width="3.2"/>
<circle clip-path="url(#clip992)" cx="614.576" cy="665.619" r="14" fill="#009af9" fill-rule="evenodd" fill-opacity="0.3" stroke="#000000" stroke-opacity="0.3" stroke-width="3.2"/>
<circle clip-path="url(#clip992)" cx="633.477" cy="799.804" r="14" fill="#009af9" fill-rule="evenodd" fill-opacity="0.3" stroke="#000000" stroke-opacity="0.3" stroke-width="3.2"/>
<circle clip-path="url(#clip992)" cx="633.477" cy="670.62" r="14" fill="#009af9" fill-rule="evenodd" fill-opacity="0.3" stroke="#000000" stroke-opacity="0.3" stroke-width="3.2"/>
<circle clip-path="url(#clip992)" cx="642.519" cy="750.789" r="14" fill="#009af9" fill-rule="evenodd" fill-opacity="0.3" stroke="#000000" stroke-opacity="0.3" stroke-width="3.2"/>
<circle clip-path="url(#clip992)" cx="642.519" cy="719.635" r="14" fill="#009af9" fill-rule="evenodd" fill-opacity="0.3" stroke="#000000" stroke-opacity="0.3" stroke-width="3.2"/>
<circle clip-path="url(#clip992)" cx="692.863" cy="762.57" r="14" fill="#009af9" fill-rule="evenodd" fill-opacity="0.3" stroke="#000000" stroke-opacity="0.3" stroke-width="3.2"/>
<circle clip-path="url(#clip992)" cx="692.863" cy="707.854" r="14" fill="#009af9" fill-rule="evenodd" fill-opacity="0.3" stroke="#000000" stroke-opacity="0.3" stroke-width="3.2"/>
<circle clip-path="url(#clip992)" cx="719.773" cy="802.676" r="14" fill="#009af9" fill-rule="evenodd" fill-opacity="0.3" stroke="#000000" stroke-opacity="0.3" stroke-width="3.2"/>
<circle clip-path="url(#clip992)" cx="719.773" cy="667.748" r="14" fill="#009af9" fill-rule="evenodd" fill-opacity="0.3" stroke="#000000" stroke-opacity="0.3" stroke-width="3.2"/>
<circle clip-path="url(#clip992)" cx="722.94" cy="743.101" r="14" fill="#009af9" fill-rule="evenodd" fill-opacity="0.3" stroke="#000000" stroke-opacity="0.3" stroke-width="3.2"/>
<circle clip-path="url(#clip992)" cx="722.94" cy="727.323" r="14" fill="#009af9" fill-rule="evenodd" fill-opacity="0.3" stroke="#000000" stroke-opacity="0.3" stroke-width="3.2"/>
<circle clip-path="url(#clip992)" cx="795.313" cy="735.212" r="14" fill="#009af9" fill-rule="evenodd" fill-opacity="0.3" stroke="#000000" stroke-opacity="0.3" stroke-width="3.2"/>
<polyline clip-path="url(#clip992)" style="stroke:#000003; stroke-linecap:butt; stroke-linejoin:round; stroke-width:8; stroke-opacity:1; fill:none" points="
  436.392,783.026 441.76,785.346 441.793,785.359 447.562,787.691 449.622,788.542 453.501,790.023 457.483,791.583 459.57,792.356 465.345,794.549 465.726,794.688 
  471.916,797.021 473.206,797.517 478.116,799.353 481.068,800.473 484.333,801.685 488.929,803.413 490.562,804.018 496.791,806.346 496.802,806.35 502.985,808.683 
  504.652,809.312 509.187,811.015 512.514,812.257 515.46,813.348 520.375,815.144 521.874,815.68 528.236,817.919 528.514,818.012 535.513,820.345 536.098,820.537 
  543.093,822.677 543.959,822.939 551.541,825.01 551.821,825.086 559.682,826.975 561.491,827.342 567.544,828.586 574.087,829.674 575.405,829.898 583.267,830.952 
  591.128,831.705 596.163,832.007 598.99,832.184 606.851,832.386 614.713,832.292 620.36,832.007 622.574,831.9 630.435,831.22 638.297,830.209 641.421,829.674 
  646.158,828.881 653.377,827.342 654.02,827.206 661.881,825.207 662.552,825.01 669.743,822.868 670.313,822.677 677.172,820.345 677.604,820.196 683.407,818.012 
  685.466,817.215 689.203,815.68 693.327,813.927 694.642,813.348 699.825,811.015 701.189,810.387 704.838,808.683 709.05,806.637 709.644,806.35 714.437,804.018 
  716.912,802.779 719.145,801.685 723.832,799.353 724.773,798.884 728.661,797.021 732.634,795.095 733.508,794.688 738.615,792.356 740.496,791.511 743.907,790.023 
  748.357,788.124 749.375,787.691 755.038,785.359 756.219,784.891 760.767,783.026 764.08,781.699 766.47,780.694 771.942,778.41 772.054,778.361 777.665,776.029 
  779.803,775.139 783.459,773.697 787.665,772.095 789.809,771.364 795.526,769.637 797.441,769.032 803.388,767.434 805.282,766.699 811.249,764.524 811.538,764.367 
  815.848,762.035 819.111,759.916 819.389,759.702 822.319,757.37 824.611,755.037 826.311,752.705 826.972,751.531 827.864,750.373 829.386,748.04 830.548,745.708 
  831.404,743.375 832,741.043 832.374,738.711 832.554,736.378 832.554,734.046 832.374,731.713 832,729.381 831.404,727.049 830.548,724.716 829.386,722.384 
  827.864,720.051 826.972,718.893 826.311,717.719 824.611,715.387 822.319,713.054 819.389,710.722 819.111,710.508 815.848,708.389 811.538,706.057 811.249,705.9 
  805.282,703.725 803.388,702.99 797.441,701.392 795.526,700.787 789.809,699.06 787.665,698.328 783.459,696.727 779.803,695.285 777.665,694.395 772.054,692.062 
  771.942,692.014 766.47,689.73 764.08,688.725 760.767,687.398 756.219,685.533 755.038,685.065 749.375,682.733 748.357,682.299 743.907,680.4 740.496,678.913 
  738.615,678.068 733.508,675.736 732.634,675.329 728.661,673.403 724.773,671.54 723.832,671.071 719.145,668.738 716.912,667.645 714.437,666.406 709.644,664.074 
  709.05,663.786 704.838,661.741 701.189,660.037 699.825,659.409 694.642,657.076 693.327,656.496 689.203,654.744 685.466,653.208 683.407,652.412 677.604,650.228 
  677.172,650.079 670.313,647.747 669.743,647.556 662.552,645.414 661.881,645.217 654.02,643.217 653.377,643.082 646.158,641.542 641.421,640.75 638.297,640.215 
  630.435,639.204 622.574,638.524 620.36,638.417 614.713,638.132 606.851,638.038 598.99,638.24 596.163,638.417 591.128,638.719 583.267,639.472 575.405,640.526 
  574.087,640.75 567.544,641.838 561.491,643.082 559.682,643.449 551.821,645.338 551.541,645.414 543.959,647.485 543.093,647.747 536.098,649.886 535.513,650.079 
  528.514,652.412 528.236,652.505 521.874,654.744 520.375,655.28 515.46,657.076 512.514,658.166 509.187,659.409 504.652,661.112 502.985,661.741 496.802,664.074 
  496.791,664.078 490.562,666.406 488.929,667.011 484.333,668.738 481.068,669.951 478.116,671.071 473.206,672.907 471.916,673.403 465.726,675.736 465.345,675.875 
  459.57,678.068 457.483,678.841 453.501,680.4 449.622,681.882 447.562,682.733 441.793,685.065 441.76,685.078 436.392,687.398 433.899,688.458 431.305,689.73 
  426.587,692.062 426.037,692.326 422.409,694.395 418.611,696.727 418.176,696.994 415.241,699.06 412.29,701.392 410.315,703.162 409.696,703.725 407.258,706.057 
  405.197,708.389 403.5,710.722 402.453,712.462 402.015,713.054 400.435,715.387 399.123,717.719 398.052,720.051 397.198,722.384 396.535,724.716 396.038,727.049 
  395.686,729.381 395.461,731.713 395.352,734.046 395.352,736.378 395.461,738.711 395.686,741.043 396.038,743.375 396.535,745.708 397.198,748.04 398.052,750.373 
  399.123,752.705 400.435,755.037 402.015,757.37 402.453,757.962 403.5,759.702 405.197,762.035 407.258,764.367 409.696,766.699 410.315,767.262 412.29,769.032 
  415.241,771.364 418.176,773.43 418.611,773.697 422.409,776.029 426.037,778.098 426.587,778.361 431.305,780.694 433.899,781.966 436.392,783.026 
  "/>
<circle clip-path="url(#clip992)" cx="1275.33" cy="735.212" r="14" fill="#009af9" fill-rule="evenodd" fill-opacity="0.3" stroke="#000000" stroke-opacity="0.3" stroke-width="3.2"/>
<circle clip-path="url(#clip992)" cx="1298.36" cy="735.212" r="14" fill="#009af9" fill-rule="evenodd" fill-opacity="0.3" stroke="#000000" stroke-opacity="0.3" stroke-width="3.2"/>
<circle clip-path="url(#clip992)" cx="1304.98" cy="735.212" r="14" fill="#009af9" fill-rule="evenodd" fill-opacity="0.3" stroke="#000000" stroke-opacity="0.3" stroke-width="3.2"/>
<circle clip-path="url(#clip992)" cx="1362.1" cy="739.164" r="14" fill="#009af9" fill-rule="evenodd" fill-opacity="0.3" stroke="#000000" stroke-opacity="0.3" stroke-width="3.2"/>
<circle clip-path="url(#clip992)" cx="1362.1" cy="731.26" r="14" fill="#009af9" fill-rule="evenodd" fill-opacity="0.3" stroke="#000000" stroke-opacity="0.3" stroke-width="3.2"/>
<circle clip-path="url(#clip992)" cx="1379.23" cy="735.212" r="14" fill="#009af9" fill-rule="evenodd" fill-opacity="0.3" stroke="#000000" stroke-opacity="0.3" stroke-width="3.2"/>
<circle clip-path="url(#clip992)" cx="1388.69" cy="793.737" r="14" fill="#009af9" fill-rule="evenodd" fill-opacity="0.3" stroke="#000000" stroke-opacity="0.3" stroke-width="3.2"/>
<circle clip-path="url(#clip992)" cx="1388.69" cy="676.687" r="14" fill="#009af9" fill-rule="evenodd" fill-opacity="0.3" stroke="#000000" stroke-opacity="0.3" stroke-width="3.2"/>
<circle clip-path="url(#clip992)" cx="1390.39" cy="741.786" r="14" fill="#009af9" fill-rule="evenodd" fill-opacity="0.3" stroke="#000000" stroke-opacity="0.3" stroke-width="3.2"/>
<circle clip-path="url(#clip992)" cx="1390.39" cy="728.638" r="14" fill="#009af9" fill-rule="evenodd" fill-opacity="0.3" stroke="#000000" stroke-opacity="0.3" stroke-width="3.2"/>
<circle clip-path="url(#clip992)" cx="1409.47" cy="784.11" r="14" fill="#009af9" fill-rule="evenodd" fill-opacity="0.3" stroke="#000000" stroke-opacity="0.3" stroke-width="3.2"/>
<circle clip-path="url(#clip992)" cx="1409.47" cy="686.314" r="14" fill="#009af9" fill-rule="evenodd" fill-opacity="0.3" stroke="#000000" stroke-opacity="0.3" stroke-width="3.2"/>
<circle clip-path="url(#clip992)" cx="1429.75" cy="757.566" r="14" fill="#009af9" fill-rule="evenodd" fill-opacity="0.3" stroke="#000000" stroke-opacity="0.3" stroke-width="3.2"/>
<circle clip-path="url(#clip992)" cx="1429.75" cy="712.858" r="14" fill="#009af9" fill-rule="evenodd" fill-opacity="0.3" stroke="#000000" stroke-opacity="0.3" stroke-width="3.2"/>
<circle clip-path="url(#clip992)" cx="1446.24" cy="785.554" r="14" fill="#009af9" fill-rule="evenodd" fill-opacity="0.3" stroke="#000000" stroke-opacity="0.3" stroke-width="3.2"/>
<circle clip-path="url(#clip992)" cx="1446.24" cy="684.87" r="14" fill="#009af9" fill-rule="evenodd" fill-opacity="0.3" stroke="#000000" stroke-opacity="0.3" stroke-width="3.2"/>
<circle clip-path="url(#clip992)" cx="1450.81" cy="735.212" r="14" fill="#009af9" fill-rule="evenodd" fill-opacity="0.3" stroke="#000000" stroke-opacity="0.3" stroke-width="3.2"/>
<circle clip-path="url(#clip992)" cx="1467" cy="801.193" r="14" fill="#009af9" fill-rule="evenodd" fill-opacity="0.3" stroke="#000000" stroke-opacity="0.3" stroke-width="3.2"/>
<circle clip-path="url(#clip992)" cx="1467" cy="669.231" r="14" fill="#009af9" fill-rule="evenodd" fill-opacity="0.3" stroke="#000000" stroke-opacity="0.3" stroke-width="3.2"/>
<circle clip-path="url(#clip992)" cx="1473.05" cy="735.212" r="14" fill="#009af9" fill-rule="evenodd" fill-opacity="0.3" stroke="#000000" stroke-opacity="0.3" stroke-width="3.2"/>
<circle clip-path="url(#clip992)" cx="1474.3" cy="755.922" r="14" fill="#009af9" fill-rule="evenodd" fill-opacity="0.3" stroke="#000000" stroke-opacity="0.3" stroke-width="3.2"/>
<circle clip-path="url(#clip992)" cx="1474.3" cy="714.502" r="14" fill="#009af9" fill-rule="evenodd" fill-opacity="0.3" stroke="#000000" stroke-opacity="0.3" stroke-width="3.2"/>
<circle clip-path="url(#clip992)" cx="1488.67" cy="789.511" r="14" fill="#009af9" fill-rule="evenodd" fill-opacity="0.3" stroke="#000000" stroke-opacity="0.3" stroke-width="3.2"/>
<circle clip-path="url(#clip992)" cx="1488.67" cy="680.913" r="14" fill="#009af9" fill-rule="evenodd" fill-opacity="0.3" stroke="#000000" stroke-opacity="0.3" stroke-width="3.2"/>
<circle clip-path="url(#clip992)" cx="1501.97" cy="748.628" r="14" fill="#009af9" fill-rule="evenodd" fill-opacity="0.3" stroke="#000000" stroke-opacity="0.3" stroke-width="3.2"/>
<circle clip-path="url(#clip992)" cx="1501.97" cy="721.796" r="14" fill="#009af9" fill-rule="evenodd" fill-opacity="0.3" stroke="#000000" stroke-opacity="0.3" stroke-width="3.2"/>
<circle clip-path="url(#clip992)" cx="1502.87" cy="774.847" r="14" fill="#009af9" fill-rule="evenodd" fill-opacity="0.3" stroke="#000000" stroke-opacity="0.3" stroke-width="3.2"/>
<circle clip-path="url(#clip992)" cx="1502.87" cy="695.577" r="14" fill="#009af9" fill-rule="evenodd" fill-opacity="0.3" stroke="#000000" stroke-opacity="0.3" stroke-width="3.2"/>
<circle clip-path="url(#clip992)" cx="1537.97" cy="770.696" r="14" fill="#009af9" fill-rule="evenodd" fill-opacity="0.3" stroke="#000000" stroke-opacity="0.3" stroke-width="3.2"/>
<circle clip-path="url(#clip992)" cx="1537.97" cy="699.728" r="14" fill="#009af9" fill-rule="evenodd" fill-opacity="0.3" stroke="#000000" stroke-opacity="0.3" stroke-width="3.2"/>
<circle clip-path="url(#clip992)" cx="1540.46" cy="787.506" r="14" fill="#009af9" fill-rule="evenodd" fill-opacity="0.3" stroke="#000000" stroke-opacity="0.3" stroke-width="3.2"/>
<circle clip-path="url(#clip992)" cx="1540.46" cy="682.918" r="14" fill="#009af9" fill-rule="evenodd" fill-opacity="0.3" stroke="#000000" stroke-opacity="0.3" stroke-width="3.2"/>
<circle clip-path="url(#clip992)" cx="1540.84" cy="760.18" r="14" fill="#009af9" fill-rule="evenodd" fill-opacity="0.3" stroke="#000000" stroke-opacity="0.3" stroke-width="3.2"/>
<circle clip-path="url(#clip992)" cx="1540.84" cy="710.244" r="14" fill="#009af9" fill-rule="evenodd" fill-opacity="0.3" stroke="#000000" stroke-opacity="0.3" stroke-width="3.2"/>
<circle clip-path="url(#clip992)" cx="1548.1" cy="811.26" r="14" fill="#009af9" fill-rule="evenodd" fill-opacity="0.3" stroke="#000000" stroke-opacity="0.3" stroke-width="3.2"/>
<circle clip-path="url(#clip992)" cx="1548.1" cy="659.164" r="14" fill="#009af9" fill-rule="evenodd" fill-opacity="0.3" stroke="#000000" stroke-opacity="0.3" stroke-width="3.2"/>
<circle clip-path="url(#clip992)" cx="1558.26" cy="735.212" r="14" fill="#009af9" fill-rule="evenodd" fill-opacity="0.3" stroke="#000000" stroke-opacity="0.3" stroke-width="3.2"/>
<circle clip-path="url(#clip992)" cx="1572.21" cy="735.212" r="14" fill="#009af9" fill-rule="evenodd" fill-opacity="0.3" stroke="#000000" stroke-opacity="0.3" stroke-width="3.2"/>
<circle clip-path="url(#clip992)" cx="1576.16" cy="784.057" r="14" fill="#009af9" fill-rule="evenodd" fill-opacity="0.3" stroke="#000000" stroke-opacity="0.3" stroke-width="3.2"/>
<circle clip-path="url(#clip992)" cx="1576.16" cy="686.367" r="14" fill="#009af9" fill-rule="evenodd" fill-opacity="0.3" stroke="#000000" stroke-opacity="0.3" stroke-width="3.2"/>
<circle clip-path="url(#clip992)" cx="1590.3" cy="764.11" r="14" fill="#009af9" fill-rule="evenodd" fill-opacity="0.3" stroke="#000000" stroke-opacity="0.3" stroke-width="3.2"/>
<circle clip-path="url(#clip992)" cx="1590.3" cy="706.314" r="14" fill="#009af9" fill-rule="evenodd" fill-opacity="0.3" stroke="#000000" stroke-opacity="0.3" stroke-width="3.2"/>
<circle clip-path="url(#clip992)" cx="1593.88" cy="766.989" r="14" fill="#009af9" fill-rule="evenodd" fill-opacity="0.3" stroke="#000000" stroke-opacity="0.3" stroke-width="3.2"/>
<circle clip-path="url(#clip992)" cx="1593.88" cy="703.435" r="14" fill="#009af9" fill-rule="evenodd" fill-opacity="0.3" stroke="#000000" stroke-opacity="0.3" stroke-width="3.2"/>
<circle clip-path="url(#clip992)" cx="1596.79" cy="735.212" r="14" fill="#009af9" fill-rule="evenodd" fill-opacity="0.3" stroke="#000000" stroke-opacity="0.3" stroke-width="3.2"/>
<circle clip-path="url(#clip992)" cx="1645.66" cy="735.212" r="14" fill="#009af9" fill-rule="evenodd" fill-opacity="0.3" stroke="#000000" stroke-opacity="0.3" stroke-width="3.2"/>
<circle clip-path="url(#clip992)" cx="1656.59" cy="756.033" r="14" fill="#009af9" fill-rule="evenodd" fill-opacity="0.3" stroke="#000000" stroke-opacity="0.3" stroke-width="3.2"/>
<circle clip-path="url(#clip992)" cx="1656.59" cy="714.391" r="14" fill="#009af9" fill-rule="evenodd" fill-opacity="0.3" stroke="#000000" stroke-opacity="0.3" stroke-width="3.2"/>
<circle clip-path="url(#clip992)" cx="1696.32" cy="735.212" r="14" fill="#009af9" fill-rule="evenodd" fill-opacity="0.3" stroke="#000000" stroke-opacity="0.3" stroke-width="3.2"/>
<polyline clip-path="url(#clip992)" style="stroke:#000003; stroke-linecap:butt; stroke-linejoin:round; stroke-width:8; stroke-opacity:1; fill:none" points="
  1307.96,767.277 1301.28,767.64 1294.61,766.958 1292.92,766.476 1287.94,765.046 1287.37,764.786 1283.87,763.096 1281.26,761.589 1280.99,761.406 1278.59,759.716 
  1276.62,758.026 1275.04,756.336 1274.59,755.778 1273.5,754.646 1272.08,752.956 1270.9,751.267 1269.95,749.577 1269.19,747.887 1268.59,746.197 1268.13,744.507 
  1267.92,743.518 1267.66,742.817 1267.17,741.127 1266.81,739.437 1266.57,737.747 1266.45,736.057 1266.45,734.367 1266.57,732.677 1266.81,730.987 1267.17,729.297 
  1267.66,727.607 1267.92,726.906 1268.13,725.917 1268.59,724.227 1269.19,722.537 1269.95,720.847 1270.9,719.157 1272.08,717.467 1273.5,715.777 1274.59,714.646 
  1275.04,714.088 1276.62,712.398 1278.59,710.708 1280.99,709.018 1281.26,708.835 1283.87,707.328 1287.37,705.638 1287.94,705.378 1292.92,703.948 1294.61,703.466 
  1301.28,702.784 1307.96,703.147 1312.45,703.948 1314.63,704.394 1319.62,705.638 1321.3,706.166 1326.98,707.328 1327.98,707.587 1331.45,707.328 1334.65,707.049 
  1337.56,705.638 1341.24,703.948 1341.32,703.911 1343.62,702.258 1346.28,700.568 1348,699.562 1348.94,698.878 1351.48,697.188 1354.35,695.498 1354.67,695.318 
  1357.19,693.808 1360.32,692.118 1361.34,691.594 1363.71,690.428 1367.39,688.738 1368.02,688.456 1371.49,687.048 1374.69,685.802 1376,685.358 1381,683.668 
  1381.36,683.543 1386.59,681.978 1388.04,681.538 1392.64,680.288 1394.71,679.713 1399.07,678.598 1401.38,677.994 1405.8,676.909 1408.06,676.344 1412.8,675.219 
  1414.73,674.754 1420.12,673.529 1421.4,673.233 1427.87,671.839 1428.08,671.793 1434.75,670.43 1436.25,670.149 1441.42,669.158 1445.43,668.459 1448.1,667.985 
  1454.77,666.904 1455.68,666.769 1461.44,665.9 1467.58,665.079 1468.12,665.006 1474.79,664.195 1481.46,663.515 1482.98,663.389 1488.14,662.951 1494.81,662.537 
  1501.48,662.29 1508.16,662.224 1514.83,662.353 1521.5,662.694 1528.18,663.269 1529.14,663.389 1534.85,664.071 1541.07,665.079 1541.52,665.15 1548.2,666.494 
  1549.31,666.769 1554.87,668.141 1555.95,668.459 1561.54,670.116 1561.64,670.149 1566.57,671.839 1568.22,672.417 1571.04,673.529 1574.89,675.101 1575.15,675.219 
  1578.92,676.909 1581.56,678.16 1582.44,678.598 1585.74,680.288 1588.24,681.644 1588.83,681.978 1591.81,683.668 1594.56,685.358 1594.91,685.576 1597.29,687.048 
  1599.85,688.738 1601.58,689.961 1602.29,690.428 1604.77,692.118 1607.06,693.808 1608.26,694.732 1609.39,695.498 1611.81,697.188 1614.09,698.878 1614.93,699.513 
  1616.71,700.568 1619.59,702.258 1621.6,703.417 1622.95,703.948 1627.87,705.638 1628.28,705.758 1634.95,706.989 1637.04,707.328 1641.62,707.929 1647.86,709.018 
  1648.3,709.081 1654.89,710.708 1654.97,710.725 1659.53,712.398 1661.64,713.209 1663.37,714.088 1666.36,715.777 1668.32,717.135 1668.84,717.467 1671.31,719.157 
  1673.23,720.847 1674.65,722.537 1674.99,723.043 1677.24,724.227 1680.22,725.917 1681.66,726.811 1682.47,725.917 1685.45,724.227 1688.34,723.323 1690.21,722.537 
  1695.01,721.309 1701.68,722.049 1702.69,722.537 1705.78,724.227 1707.71,725.917 1708.36,726.837 1709.16,727.607 1710.57,729.297 1711.52,730.987 1712.1,732.677 
  1712.37,734.367 1712.37,736.057 1712.1,737.747 1711.52,739.437 1710.57,741.127 1709.16,742.817 1708.36,743.586 1707.71,744.507 1705.78,746.197 1702.69,747.887 
  1701.68,748.375 1695.01,749.115 1690.21,747.887 1688.34,747.101 1685.45,746.197 1682.47,744.507 1681.66,743.613 1680.22,744.507 1677.24,746.197 1674.99,747.381 
  1674.65,747.887 1673.23,749.577 1671.31,751.267 1668.84,752.956 1668.32,753.289 1666.36,754.646 1663.37,756.336 1661.64,757.215 1659.53,758.026 1654.97,759.699 
  1654.89,759.716 1648.3,761.343 1647.86,761.406 1641.62,762.495 1637.04,763.096 1634.95,763.435 1628.28,764.666 1627.87,764.786 1622.95,766.476 1621.6,767.007 
  1619.59,768.166 1616.71,769.856 1614.93,770.911 1614.09,771.546 1611.81,773.236 1609.39,774.926 1608.26,775.692 1607.06,776.616 1604.77,778.306 1602.29,779.996 
  1601.58,780.463 1599.85,781.686 1597.29,783.376 1594.91,784.848 1594.56,785.066 1591.81,786.756 1588.83,788.446 1588.24,788.78 1585.74,790.136 1582.44,791.825 
  1581.56,792.264 1578.92,793.515 1575.15,795.205 1574.89,795.323 1571.04,796.895 1568.22,798.007 1566.57,798.585 1561.64,800.275 1561.54,800.308 1555.95,801.965 
  1554.87,802.283 1549.31,803.655 1548.2,803.93 1541.52,805.274 1541.07,805.345 1534.85,806.353 1529.14,807.035 1528.18,807.154 1521.5,807.73 1514.83,808.071 
  1508.16,808.2 1501.48,808.134 1494.81,807.887 1488.14,807.473 1482.98,807.035 1481.46,806.909 1474.79,806.229 1468.12,805.418 1467.58,805.345 1461.44,804.524 
  1455.68,803.655 1454.77,803.52 1448.1,802.439 1445.43,801.965 1441.42,801.266 1436.25,800.275 1434.75,799.994 1428.08,798.631 1427.87,798.585 1421.4,797.191 
  1420.12,796.895 1414.73,795.67 1412.8,795.205 1408.06,794.08 1405.8,793.515 1401.38,792.43 1399.07,791.825 1394.71,790.711 1392.64,790.136 1388.04,788.885 
  1386.59,788.446 1381.36,786.881 1381,786.756 1376,785.066 1374.69,784.622 1371.49,783.376 1368.02,781.968 1367.39,781.686 1363.71,779.996 1361.34,778.829 
  1360.32,778.306 1357.19,776.616 1354.67,775.105 1354.35,774.926 1351.48,773.236 1348.94,771.546 1348,770.862 1346.28,769.856 1343.62,768.166 1341.32,766.513 
  1341.24,766.476 1337.56,764.786 1334.65,763.375 1331.45,763.096 1327.98,762.837 1326.98,763.096 1321.3,764.258 1319.62,764.786 1314.63,766.03 1312.45,766.476 
  1307.96,767.277 
  "/>
<circle clip-path="url(#clip992)" cx="1900.67" cy="739.827" r="14" fill="#009af9" fill-rule="evenodd" fill-opacity="0.3" stroke="#000000" stroke-opacity="0.3" stroke-width="3.2"/>
<circle clip-path="url(#clip992)" cx="1900.67" cy="730.597" r="14" fill="#009af9" fill-rule="evenodd" fill-opacity="0.3" stroke="#000000" stroke-opacity="0.3" stroke-width="3.2"/>
<circle clip-path="url(#clip992)" cx="1909.93" cy="735.212" r="14" fill="#009af9" fill-rule="evenodd" fill-opacity="0.3" stroke="#000000" stroke-opacity="0.3" stroke-width="3.2"/>
<circle clip-path="url(#clip992)" cx="1913.42" cy="748.818" r="14" fill="#009af9" fill-rule="evenodd" fill-opacity="0.3" stroke="#000000" stroke-opacity="0.3" stroke-width="3.2"/>
<circle clip-path="url(#clip992)" cx="1913.42" cy="721.606" r="14" fill="#009af9" fill-rule="evenodd" fill-opacity="0.3" stroke="#000000" stroke-opacity="0.3" stroke-width="3.2"/>
<circle clip-path="url(#clip992)" cx="1918.63" cy="769.694" r="14" fill="#009af9" fill-rule="evenodd" fill-opacity="0.3" stroke="#000000" stroke-opacity="0.3" stroke-width="3.2"/>
<circle clip-path="url(#clip992)" cx="1918.63" cy="700.73" r="14" fill="#009af9" fill-rule="evenodd" fill-opacity="0.3" stroke="#000000" stroke-opacity="0.3" stroke-width="3.2"/>
<circle clip-path="url(#clip992)" cx="1934.9" cy="735.212" r="14" fill="#009af9" fill-rule="evenodd" fill-opacity="0.3" stroke="#000000" stroke-opacity="0.3" stroke-width="3.2"/>
<circle clip-path="url(#clip992)" cx="1937.89" cy="750.121" r="14" fill="#009af9" fill-rule="evenodd" fill-opacity="0.3" stroke="#000000" stroke-opacity="0.3" stroke-width="3.2"/>
<circle clip-path="url(#clip992)" cx="1937.89" cy="720.303" r="14" fill="#009af9" fill-rule="evenodd" fill-opacity="0.3" stroke="#000000" stroke-opacity="0.3" stroke-width="3.2"/>
<circle clip-path="url(#clip992)" cx="1943.41" cy="735.212" r="14" fill="#009af9" fill-rule="evenodd" fill-opacity="0.3" stroke="#000000" stroke-opacity="0.3" stroke-width="3.2"/>
<circle clip-path="url(#clip992)" cx="1950.77" cy="754.49" r="14" fill="#009af9" fill-rule="evenodd" fill-opacity="0.3" stroke="#000000" stroke-opacity="0.3" stroke-width="3.2"/>
<circle clip-path="url(#clip992)" cx="1950.77" cy="715.934" r="14" fill="#009af9" fill-rule="evenodd" fill-opacity="0.3" stroke="#000000" stroke-opacity="0.3" stroke-width="3.2"/>
<circle clip-path="url(#clip992)" cx="1951.31" cy="765.229" r="14" fill="#009af9" fill-rule="evenodd" fill-opacity="0.3" stroke="#000000" stroke-opacity="0.3" stroke-width="3.2"/>
<circle clip-path="url(#clip992)" cx="1951.31" cy="705.195" r="14" fill="#009af9" fill-rule="evenodd" fill-opacity="0.3" stroke="#000000" stroke-opacity="0.3" stroke-width="3.2"/>
<circle clip-path="url(#clip992)" cx="1954.83" cy="794.907" r="14" fill="#009af9" fill-rule="evenodd" fill-opacity="0.3" stroke="#000000" stroke-opacity="0.3" stroke-width="3.2"/>
<circle clip-path="url(#clip992)" cx="1954.83" cy="675.516" r="14" fill="#009af9" fill-rule="evenodd" fill-opacity="0.3" stroke="#000000" stroke-opacity="0.3" stroke-width="3.2"/>
<circle clip-path="url(#clip992)" cx="1962.18" cy="764.119" r="14" fill="#009af9" fill-rule="evenodd" fill-opacity="0.3" stroke="#000000" stroke-opacity="0.3" stroke-width="3.2"/>
<circle clip-path="url(#clip992)" cx="1962.18" cy="706.305" r="14" fill="#009af9" fill-rule="evenodd" fill-opacity="0.3" stroke="#000000" stroke-opacity="0.3" stroke-width="3.2"/>
<circle clip-path="url(#clip992)" cx="1968.08" cy="774.635" r="14" fill="#009af9" fill-rule="evenodd" fill-opacity="0.3" stroke="#000000" stroke-opacity="0.3" stroke-width="3.2"/>
<circle clip-path="url(#clip992)" cx="1968.08" cy="695.788" r="14" fill="#009af9" fill-rule="evenodd" fill-opacity="0.3" stroke="#000000" stroke-opacity="0.3" stroke-width="3.2"/>
<circle clip-path="url(#clip992)" cx="1970.59" cy="748.113" r="14" fill="#009af9" fill-rule="evenodd" fill-opacity="0.3" stroke="#000000" stroke-opacity="0.3" stroke-width="3.2"/>
<circle clip-path="url(#clip992)" cx="1970.59" cy="722.311" r="14" fill="#009af9" fill-rule="evenodd" fill-opacity="0.3" stroke="#000000" stroke-opacity="0.3" stroke-width="3.2"/>
<circle clip-path="url(#clip992)" cx="1975.5" cy="735.844" r="14" fill="#009af9" fill-rule="evenodd" fill-opacity="0.3" stroke="#000000" stroke-opacity="0.3" stroke-width="3.2"/>
<circle clip-path="url(#clip992)" cx="1975.5" cy="734.58" r="14" fill="#009af9" fill-rule="evenodd" fill-opacity="0.3" stroke="#000000" stroke-opacity="0.3" stroke-width="3.2"/>
<circle clip-path="url(#clip992)" cx="1977.98" cy="760.853" r="14" fill="#009af9" fill-rule="evenodd" fill-opacity="0.3" stroke="#000000" stroke-opacity="0.3" stroke-width="3.2"/>
<circle clip-path="url(#clip992)" cx="1977.98" cy="709.571" r="14" fill="#009af9" fill-rule="evenodd" fill-opacity="0.3" stroke="#000000" stroke-opacity="0.3" stroke-width="3.2"/>
<circle clip-path="url(#clip992)" cx="1987.43" cy="735.212" r="14" fill="#009af9" fill-rule="evenodd" fill-opacity="0.3" stroke="#000000" stroke-opacity="0.3" stroke-width="3.2"/>
<circle clip-path="url(#clip992)" cx="1987.46" cy="750.983" r="14" fill="#009af9" fill-rule="evenodd" fill-opacity="0.3" stroke="#000000" stroke-opacity="0.3" stroke-width="3.2"/>
<circle clip-path="url(#clip992)" cx="1987.46" cy="719.441" r="14" fill="#009af9" fill-rule="evenodd" fill-opacity="0.3" stroke="#000000" stroke-opacity="0.3" stroke-width="3.2"/>
<circle clip-path="url(#clip992)" cx="1994.91" cy="763.455" r="14" fill="#009af9" fill-rule="evenodd" fill-opacity="0.3" stroke="#000000" stroke-opacity="0.3" stroke-width="3.2"/>
<circle clip-path="url(#clip992)" cx="1994.91" cy="706.968" r="14" fill="#009af9" fill-rule="evenodd" fill-opacity="0.3" stroke="#000000" stroke-opacity="0.3" stroke-width="3.2"/>
<circle clip-path="url(#clip992)" cx="1997.64" cy="777.158" r="14" fill="#009af9" fill-rule="evenodd" fill-opacity="0.3" stroke="#000000" stroke-opacity="0.3" stroke-width="3.2"/>
<circle clip-path="url(#clip992)" cx="1997.64" cy="693.266" r="14" fill="#009af9" fill-rule="evenodd" fill-opacity="0.3" stroke="#000000" stroke-opacity="0.3" stroke-width="3.2"/>
<circle clip-path="url(#clip992)" cx="2010.35" cy="772.393" r="14" fill="#009af9" fill-rule="evenodd" fill-opacity="0.3" stroke="#000000" stroke-opacity="0.3" stroke-width="3.2"/>
<circle clip-path="url(#clip992)" cx="2010.35" cy="698.031" r="14" fill="#009af9" fill-rule="evenodd" fill-opacity="0.3" stroke="#000000" stroke-opacity="0.3" stroke-width="3.2"/>
<circle clip-path="url(#clip992)" cx="2011.92" cy="735.212" r="14" fill="#009af9" fill-rule="evenodd" fill-opacity="0.3" stroke="#000000" stroke-opacity="0.3" stroke-width="3.2"/>
<circle clip-path="url(#clip992)" cx="2012.05" cy="742.156" r="14" fill="#009af9" fill-rule="evenodd" fill-opacity="0.3" stroke="#000000" stroke-opacity="0.3" stroke-width="3.2"/>
<circle clip-path="url(#clip992)" cx="2012.05" cy="728.268" r="14" fill="#009af9" fill-rule="evenodd" fill-opacity="0.3" stroke="#000000" stroke-opacity="0.3" stroke-width="3.2"/>
<circle clip-path="url(#clip992)" cx="2013.49" cy="782.633" r="14" fill="#009af9" fill-rule="evenodd" fill-opacity="0.3" stroke="#000000" stroke-opacity="0.3" stroke-width="3.2"/>
<circle clip-path="url(#clip992)" cx="2013.49" cy="687.791" r="14" fill="#009af9" fill-rule="evenodd" fill-opacity="0.3" stroke="#000000" stroke-opacity="0.3" stroke-width="3.2"/>
<circle clip-path="url(#clip992)" cx="2018.08" cy="767.038" r="14" fill="#009af9" fill-rule="evenodd" fill-opacity="0.3" stroke="#000000" stroke-opacity="0.3" stroke-width="3.2"/>
<circle clip-path="url(#clip992)" cx="2018.08" cy="703.386" r="14" fill="#009af9" fill-rule="evenodd" fill-opacity="0.3" stroke="#000000" stroke-opacity="0.3" stroke-width="3.2"/>
<circle clip-path="url(#clip992)" cx="2018.53" cy="752.696" r="14" fill="#009af9" fill-rule="evenodd" fill-opacity="0.3" stroke="#000000" stroke-opacity="0.3" stroke-width="3.2"/>
<circle clip-path="url(#clip992)" cx="2018.53" cy="717.728" r="14" fill="#009af9" fill-rule="evenodd" fill-opacity="0.3" stroke="#000000" stroke-opacity="0.3" stroke-width="3.2"/>
<circle clip-path="url(#clip992)" cx="2036.8" cy="762.043" r="14" fill="#009af9" fill-rule="evenodd" fill-opacity="0.3" stroke="#000000" stroke-opacity="0.3" stroke-width="3.2"/>
<circle clip-path="url(#clip992)" cx="2036.8" cy="708.381" r="14" fill="#009af9" fill-rule="evenodd" fill-opacity="0.3" stroke="#000000" stroke-opacity="0.3" stroke-width="3.2"/>
<circle clip-path="url(#clip992)" cx="2036.86" cy="735.212" r="14" fill="#009af9" fill-rule="evenodd" fill-opacity="0.3" stroke="#000000" stroke-opacity="0.3" stroke-width="3.2"/>
<circle clip-path="url(#clip992)" cx="2036.98" cy="782.449" r="14" fill="#009af9" fill-rule="evenodd" fill-opacity="0.3" stroke="#000000" stroke-opacity="0.3" stroke-width="3.2"/>
<circle clip-path="url(#clip992)" cx="2036.98" cy="687.975" r="14" fill="#009af9" fill-rule="evenodd" fill-opacity="0.3" stroke="#000000" stroke-opacity="0.3" stroke-width="3.2"/>
<circle clip-path="url(#clip992)" cx="2041.87" cy="754.689" r="14" fill="#009af9" fill-rule="evenodd" fill-opacity="0.3" stroke="#000000" stroke-opacity="0.3" stroke-width="3.2"/>
<circle clip-path="url(#clip992)" cx="2041.87" cy="715.735" r="14" fill="#009af9" fill-rule="evenodd" fill-opacity="0.3" stroke="#000000" stroke-opacity="0.3" stroke-width="3.2"/>
<circle clip-path="url(#clip992)" cx="2042.13" cy="766.031" r="14" fill="#009af9" fill-rule="evenodd" fill-opacity="0.3" stroke="#000000" stroke-opacity="0.3" stroke-width="3.2"/>
<circle clip-path="url(#clip992)" cx="2042.13" cy="704.393" r="14" fill="#009af9" fill-rule="evenodd" fill-opacity="0.3" stroke="#000000" stroke-opacity="0.3" stroke-width="3.2"/>
<circle clip-path="url(#clip992)" cx="2048.16" cy="775.69" r="14" fill="#009af9" fill-rule="evenodd" fill-opacity="0.3" stroke="#000000" stroke-opacity="0.3" stroke-width="3.2"/>
<circle clip-path="url(#clip992)" cx="2048.16" cy="694.734" r="14" fill="#009af9" fill-rule="evenodd" fill-opacity="0.3" stroke="#000000" stroke-opacity="0.3" stroke-width="3.2"/>
<circle clip-path="url(#clip992)" cx="2048.67" cy="747.148" r="14" fill="#009af9" fill-rule="evenodd" fill-opacity="0.3" stroke="#000000" stroke-opacity="0.3" stroke-width="3.2"/>
<circle clip-path="url(#clip992)" cx="2048.67" cy="723.276" r="14" fill="#009af9" fill-rule="evenodd" fill-opacity="0.3" stroke="#000000" stroke-opacity="0.3" stroke-width="3.2"/>
<circle clip-path="url(#clip992)" cx="2056.6" cy="765.447" r="14" fill="#009af9" fill-rule="evenodd" fill-opacity="0.3" stroke="#000000" stroke-opacity="0.3" stroke-width="3.2"/>
<circle clip-path="url(#clip992)" cx="2056.6" cy="704.977" r="14" fill="#009af9" fill-rule="evenodd" fill-opacity="0.3" stroke="#000000" stroke-opacity="0.3" stroke-width="3.2"/>
<circle clip-path="url(#clip992)" cx="2058.99" cy="737.139" r="14" fill="#009af9" fill-rule="evenodd" fill-opacity="0.3" stroke="#000000" stroke-opacity="0.3" stroke-width="3.2"/>
<circle clip-path="url(#clip992)" cx="2058.99" cy="733.285" r="14" fill="#009af9" fill-rule="evenodd" fill-opacity="0.3" stroke="#000000" stroke-opacity="0.3" stroke-width="3.2"/>
<circle clip-path="url(#clip992)" cx="2064.47" cy="766.119" r="14" fill="#009af9" fill-rule="evenodd" fill-opacity="0.3" stroke="#000000" stroke-opacity="0.3" stroke-width="3.2"/>
<circle clip-path="url(#clip992)" cx="2064.47" cy="704.305" r="14" fill="#009af9" fill-rule="evenodd" fill-opacity="0.3" stroke="#000000" stroke-opacity="0.3" stroke-width="3.2"/>
<circle clip-path="url(#clip992)" cx="2075.18" cy="751.101" r="14" fill="#009af9" fill-rule="evenodd" fill-opacity="0.3" stroke="#000000" stroke-opacity="0.3" stroke-width="3.2"/>
<circle clip-path="url(#clip992)" cx="2075.18" cy="719.323" r="14" fill="#009af9" fill-rule="evenodd" fill-opacity="0.3" stroke="#000000" stroke-opacity="0.3" stroke-width="3.2"/>
<circle clip-path="url(#clip992)" cx="2076.37" cy="737.132" r="14" fill="#009af9" fill-rule="evenodd" fill-opacity="0.3" stroke="#000000" stroke-opacity="0.3" stroke-width="3.2"/>
<circle clip-path="url(#clip992)" cx="2076.37" cy="733.292" r="14" fill="#009af9" fill-rule="evenodd" fill-opacity="0.3" stroke="#000000" stroke-opacity="0.3" stroke-width="3.2"/>
<circle clip-path="url(#clip992)" cx="2082.72" cy="777.183" r="14" fill="#009af9" fill-rule="evenodd" fill-opacity="0.3" stroke="#000000" stroke-opacity="0.3" stroke-width="3.2"/>
<circle clip-path="url(#clip992)" cx="2082.72" cy="693.241" r="14" fill="#009af9" fill-rule="evenodd" fill-opacity="0.3" stroke="#000000" stroke-opacity="0.3" stroke-width="3.2"/>
<circle clip-path="url(#clip992)" cx="2086.04" cy="764.13" r="14" fill="#009af9" fill-rule="evenodd" fill-opacity="0.3" stroke="#000000" stroke-opacity="0.3" stroke-width="3.2"/>
<circle clip-path="url(#clip992)" cx="2086.04" cy="706.294" r="14" fill="#009af9" fill-rule="evenodd" fill-opacity="0.3" stroke="#000000" stroke-opacity="0.3" stroke-width="3.2"/>
<circle clip-path="url(#clip992)" cx="2088.57" cy="746.542" r="14" fill="#009af9" fill-rule="evenodd" fill-opacity="0.3" stroke="#000000" stroke-opacity="0.3" stroke-width="3.2"/>
<circle clip-path="url(#clip992)" cx="2088.57" cy="723.882" r="14" fill="#009af9" fill-rule="evenodd" fill-opacity="0.3" stroke="#000000" stroke-opacity="0.3" stroke-width="3.2"/>
<circle clip-path="url(#clip992)" cx="2097.42" cy="764.569" r="14" fill="#009af9" fill-rule="evenodd" fill-opacity="0.3" stroke="#000000" stroke-opacity="0.3" stroke-width="3.2"/>
<circle clip-path="url(#clip992)" cx="2097.42" cy="705.855" r="14" fill="#009af9" fill-rule="evenodd" fill-opacity="0.3" stroke="#000000" stroke-opacity="0.3" stroke-width="3.2"/>
<circle clip-path="url(#clip992)" cx="2103.76" cy="740.161" r="14" fill="#009af9" fill-rule="evenodd" fill-opacity="0.3" stroke="#000000" stroke-opacity="0.3" stroke-width="3.2"/>
<circle clip-path="url(#clip992)" cx="2103.76" cy="730.262" r="14" fill="#009af9" fill-rule="evenodd" fill-opacity="0.3" stroke="#000000" stroke-opacity="0.3" stroke-width="3.2"/>
<circle clip-path="url(#clip992)" cx="2107.52" cy="758.914" r="14" fill="#009af9" fill-rule="evenodd" fill-opacity="0.3" stroke="#000000" stroke-opacity="0.3" stroke-width="3.2"/>
<circle clip-path="url(#clip992)" cx="2107.52" cy="711.509" r="14" fill="#009af9" fill-rule="evenodd" fill-opacity="0.3" stroke="#000000" stroke-opacity="0.3" stroke-width="3.2"/>
<circle clip-path="url(#clip992)" cx="2109.8" cy="767.296" r="14" fill="#009af9" fill-rule="evenodd" fill-opacity="0.3" stroke="#000000" stroke-opacity="0.3" stroke-width="3.2"/>
<circle clip-path="url(#clip992)" cx="2109.8" cy="703.128" r="14" fill="#009af9" fill-rule="evenodd" fill-opacity="0.3" stroke="#000000" stroke-opacity="0.3" stroke-width="3.2"/>
<circle clip-path="url(#clip992)" cx="2110.28" cy="735.212" r="14" fill="#009af9" fill-rule="evenodd" fill-opacity="0.3" stroke="#000000" stroke-opacity="0.3" stroke-width="3.2"/>
<circle clip-path="url(#clip992)" cx="2113.38" cy="754.574" r="14" fill="#009af9" fill-rule="evenodd" fill-opacity="0.3" stroke="#000000" stroke-opacity="0.3" stroke-width="3.2"/>
<circle clip-path="url(#clip992)" cx="2113.38" cy="715.85" r="14" fill="#009af9" fill-rule="evenodd" fill-opacity="0.3" stroke="#000000" stroke-opacity="0.3" stroke-width="3.2"/>
<circle clip-path="url(#clip992)" cx="2120.26" cy="735.212" r="14" fill="#009af9" fill-rule="evenodd" fill-opacity="0.3" stroke="#000000" stroke-opacity="0.3" stroke-width="3.2"/>
<circle clip-path="url(#clip992)" cx="2131.38" cy="756.041" r="14" fill="#009af9" fill-rule="evenodd" fill-opacity="0.3" stroke="#000000" stroke-opacity="0.3" stroke-width="3.2"/>
<circle clip-path="url(#clip992)" cx="2131.38" cy="714.383" r="14" fill="#009af9" fill-rule="evenodd" fill-opacity="0.3" stroke="#000000" stroke-opacity="0.3" stroke-width="3.2"/>
<circle clip-path="url(#clip992)" cx="2136.38" cy="744.245" r="14" fill="#009af9" fill-rule="evenodd" fill-opacity="0.3" stroke="#000000" stroke-opacity="0.3" stroke-width="3.2"/>
<circle clip-path="url(#clip992)" cx="2136.38" cy="726.179" r="14" fill="#009af9" fill-rule="evenodd" fill-opacity="0.3" stroke="#000000" stroke-opacity="0.3" stroke-width="3.2"/>
<circle clip-path="url(#clip992)" cx="2142.43" cy="735.212" r="14" fill="#009af9" fill-rule="evenodd" fill-opacity="0.3" stroke="#000000" stroke-opacity="0.3" stroke-width="3.2"/>
<circle clip-path="url(#clip992)" cx="2162.48" cy="749.238" r="14" fill="#009af9" fill-rule="evenodd" fill-opacity="0.3" stroke="#000000" stroke-opacity="0.3" stroke-width="3.2"/>
<circle clip-path="url(#clip992)" cx="2162.48" cy="721.186" r="14" fill="#009af9" fill-rule="evenodd" fill-opacity="0.3" stroke="#000000" stroke-opacity="0.3" stroke-width="3.2"/>
<circle clip-path="url(#clip992)" cx="2168.78" cy="735.212" r="14" fill="#009af9" fill-rule="evenodd" fill-opacity="0.3" stroke="#000000" stroke-opacity="0.3" stroke-width="3.2"/>
<circle clip-path="url(#clip992)" cx="2179.68" cy="738.69" r="14" fill="#009af9" fill-rule="evenodd" fill-opacity="0.3" stroke="#000000" stroke-opacity="0.3" stroke-width="3.2"/>
<circle clip-path="url(#clip992)" cx="2179.68" cy="731.734" r="14" fill="#009af9" fill-rule="evenodd" fill-opacity="0.3" stroke="#000000" stroke-opacity="0.3" stroke-width="3.2"/>
<circle clip-path="url(#clip992)" cx="2196.85" cy="735.212" r="14" fill="#009af9" fill-rule="evenodd" fill-opacity="0.3" stroke="#000000" stroke-opacity="0.3" stroke-width="3.2"/>
<circle clip-path="url(#clip992)" cx="2203.28" cy="735.212" r="14" fill="#009af9" fill-rule="evenodd" fill-opacity="0.3" stroke="#000000" stroke-opacity="0.3" stroke-width="3.2"/>
<circle clip-path="url(#clip992)" cx="2224.3" cy="735.212" r="14" fill="#009af9" fill-rule="evenodd" fill-opacity="0.3" stroke="#000000" stroke-opacity="0.3" stroke-width="3.2"/>
<polyline clip-path="url(#clip992)" style="stroke:#000003; stroke-linecap:butt; stroke-linejoin:round; stroke-width:8; stroke-opacity:1; fill:none" points="
  1924.01,773.019 1926.39,774.117 1926.93,774.346 1930.06,775.672 1930.91,776.032 1933.43,776.999 1935.44,777.769 1937.05,778.325 1939.96,779.339 1940.97,779.652 
  1944.49,780.761 1945.26,780.979 1949.01,782.045 1950.05,782.305 1953.54,783.196 1955.5,783.632 1958.06,784.214 1961.88,784.958 1962.59,785.1 1967.11,785.875 
  1969.98,786.285 1971.64,786.531 1976.16,787.088 1980.69,787.542 1981.55,787.611 1985.21,787.924 1989.74,788.233 1994.26,788.477 1998.79,788.665 2003.31,788.805 
  2007.84,788.901 2010.88,788.938 2012.36,788.957 2016.89,788.97 2021.09,788.938 2021.41,788.936 2025.94,788.852 2030.46,788.712 2034.99,788.506 2039.51,788.227 
  2044.04,787.867 2046.64,787.611 2048.56,787.429 2053.09,786.917 2057.61,786.313 2057.8,786.285 2062.14,785.648 2066.26,784.958 2066.67,784.893 2071.19,784.081 
  2073.44,783.632 2075.72,783.191 2079.85,782.305 2080.24,782.223 2084.77,781.189 2085.6,780.979 2089.29,780.073 2090.84,779.652 2093.82,778.861 2095.63,778.325 
  2098.34,777.54 2100.02,776.999 2102.87,776.094 2104.06,775.672 2107.39,774.501 2107.79,774.346 2111.24,773.019 2111.92,772.757 2114.45,771.693 2116.44,770.84 
  2117.48,770.366 2120.32,769.039 2120.97,768.737 2123.05,767.713 2125.49,766.449 2125.61,766.386 2128.14,765.06 2130.02,764.019 2130.54,763.733 2132.94,762.407 
  2134.54,761.486 2135.27,761.08 2137.62,759.753 2139.07,758.915 2139.94,758.427 2142.27,757.1 2143.59,756.32 2144.58,755.774 2146.9,754.447 2148.12,753.7 
  2149.28,753.121 2151.84,751.794 2152.64,751.352 2156.04,750.467 2157.17,750.207 2161.69,750.414 2162.05,750.467 2166.22,751.029 2170.74,751.433 2175.27,751.381 
  2179.79,750.647 2180.35,750.467 2184.26,749.141 2184.32,749.122 2187.32,747.814 2188.84,747.009 2190.26,746.488 2193.37,745.466 2194.62,745.161 2197.89,744.556 
  2200.68,743.835 2202.42,743.405 2206.94,743.098 2208.81,742.508 2211.47,741.698 2212.33,741.182 2214.15,739.855 2215.14,738.528 2215.59,737.202 2215.76,735.875 
  2215.76,734.549 2215.59,733.222 2215.14,731.896 2214.15,730.569 2212.33,729.242 2211.47,728.726 2208.81,727.916 2206.94,727.325 2202.42,727.019 2200.68,726.589 
  2197.89,725.868 2194.62,725.263 2193.37,724.958 2190.26,723.936 2188.84,723.415 2187.32,722.61 2184.32,721.302 2184.26,721.283 2180.35,719.956 2179.79,719.776 
  2175.27,719.042 2170.74,718.991 2166.22,719.395 2162.05,719.956 2161.69,720.01 2157.17,720.216 2156.04,719.956 2152.64,719.072 2151.84,718.63 2149.28,717.303 
  2148.12,716.724 2146.9,715.977 2144.58,714.65 2143.59,714.104 2142.27,713.324 2139.94,711.997 2139.07,711.509 2137.62,710.67 2135.27,709.344 2134.54,708.938 
  2132.94,708.017 2130.54,706.691 2130.02,706.405 2128.14,705.364 2125.61,704.038 2125.49,703.975 2123.05,702.711 2120.97,701.687 2120.32,701.385 2117.48,700.058 
  2116.44,699.584 2114.45,698.731 2111.92,697.667 2111.24,697.405 2107.79,696.078 2107.39,695.923 2104.06,694.752 2102.87,694.33 2100.02,693.425 2098.34,692.884 
  2095.63,692.099 2093.82,691.563 2090.84,690.772 2089.29,690.351 2085.6,689.445 2084.77,689.235 2080.24,688.2 2079.85,688.119 2075.72,687.233 2073.44,686.792 
  2071.19,686.343 2066.67,685.531 2066.26,685.466 2062.14,684.776 2057.8,684.139 2057.61,684.111 2053.09,683.507 2048.56,682.995 2046.64,682.813 2044.04,682.557 
  2039.51,682.197 2034.99,681.918 2030.46,681.712 2025.94,681.571 2021.41,681.488 2021.09,681.486 2016.89,681.454 2012.36,681.467 2010.88,681.486 2007.84,681.523 
  2003.31,681.619 1998.79,681.759 1994.26,681.947 1989.74,682.191 1985.21,682.499 1981.55,682.813 1980.69,682.882 1976.16,683.336 1971.64,683.893 1969.98,684.139 
  1967.11,684.548 1962.59,685.324 1961.88,685.466 1958.06,686.209 1955.5,686.792 1953.54,687.228 1950.05,688.119 1949.01,688.379 1945.26,689.445 1944.49,689.663 
  1940.97,690.772 1939.96,691.085 1937.05,692.099 1935.44,692.655 1933.43,693.425 1930.91,694.392 1930.06,694.752 1926.93,696.078 1926.39,696.307 1924.01,697.405 
  1921.86,698.42 1921.26,698.731 1918.68,700.058 1917.34,700.767 1916.25,701.385 1913.98,702.711 1912.81,703.412 1911.84,704.038 1909.85,705.364 1908.29,706.465 
  1907.99,706.691 1906.23,708.017 1904.63,709.344 1903.76,710.107 1903.13,710.67 1901.71,711.997 1900.45,713.324 1899.34,714.65 1899.24,714.779 1898.2,715.977 
  1897.17,717.303 1896.28,718.63 1895.51,719.956 1894.86,721.283 1894.71,721.622 1894.16,722.61 1893.51,723.936 1892.95,725.263 1892.49,726.589 1892.1,727.916 
  1891.8,729.242 1891.56,730.569 1891.39,731.896 1891.27,733.222 1891.22,734.549 1891.22,735.875 1891.27,737.202 1891.39,738.528 1891.56,739.855 1891.8,741.182 
  1892.1,742.508 1892.49,743.835 1892.95,745.161 1893.51,746.488 1894.16,747.814 1894.71,748.801 1894.86,749.141 1895.51,750.467 1896.28,751.794 1897.17,753.121 
  1898.2,754.447 1899.24,755.645 1899.34,755.774 1900.45,757.1 1901.71,758.427 1903.13,759.753 1903.76,760.317 1904.63,761.08 1906.23,762.407 1907.99,763.733 
  1908.29,763.959 1909.85,765.06 1911.84,766.386 1912.81,767.012 1913.98,767.713 1916.25,769.039 1917.34,769.657 1918.68,770.366 1921.26,771.693 1921.86,772.004 
  1924.01,773.019 
  "/>
<polyline clip-path="url(#clip992)" style="stroke:#000003; stroke-linecap:butt; stroke-linejoin:round; stroke-width:8; stroke-opacity:1; fill:none" points="
  2226.99,739.855 2229.57,740.961 2234.09,740.344 2234.94,739.855 2236.8,738.528 2237.71,737.202 2238.06,735.875 2238.06,734.549 2237.71,733.222 2236.8,731.896 
  2234.94,730.569 2234.09,730.08 2229.57,729.462 2226.99,730.569 2225.57,731.896 2225.13,733.222 2225.05,734.549 2225.05,735.875 2225.13,737.202 2225.57,738.528 
  2226.99,739.855 
  "/>
</svg>
