<?xml version="1.0" encoding="utf-8"?>
<svg xmlns="http://www.w3.org/2000/svg" xmlns:xlink="http://www.w3.org/1999/xlink" width="600" height="400" viewBox="0 0 2400 1600">
<defs>
  <clipPath id="clip610">
    <rect x="0" y="0" width="2400" height="1600"/>
  </clipPath>
</defs>
<path clip-path="url(#clip610)" d="
M0 1600 L2400 1600 L2400 0 L0 0  Z
  " fill="#ffffff" fill-rule="evenodd" fill-opacity="1"/>
<defs>
  <clipPath id="clip611">
    <rect x="480" y="0" width="1681" height="1600"/>
  </clipPath>
</defs>
<path clip-path="url(#clip610)" d="
M317.528 938.735 L2352.76 938.735 L2352.76 531.689 L317.528 531.689  Z
  " fill="#ffffff" fill-rule="evenodd" fill-opacity="1"/>
<defs>
  <clipPath id="clip612">
    <rect x="317" y="531" width="2036" height="408"/>
  </clipPath>
</defs>
<polyline clip-path="url(#clip610)" style="stroke:#000000; stroke-linecap:butt; stroke-linejoin:round; stroke-width:4; stroke-opacity:1; fill:none" points="
  317.528,938.735 2352.76,938.735 
  "/>
<polyline clip-path="url(#clip610)" style="stroke:#000000; stroke-linecap:butt; stroke-linejoin:round; stroke-width:4; stroke-opacity:1; fill:none" points="
  567.131,938.735 567.131,933.144 
  "/>
<polyline clip-path="url(#clip610)" style="stroke:#000000; stroke-linecap:butt; stroke-linejoin:round; stroke-width:4; stroke-opacity:1; fill:none" points="
  951.137,938.735 951.137,933.144 
  "/>
<polyline clip-path="url(#clip610)" style="stroke:#000000; stroke-linecap:butt; stroke-linejoin:round; stroke-width:4; stroke-opacity:1; fill:none" points="
  1335.14,938.735 1335.14,933.144 
  "/>
<polyline clip-path="url(#clip610)" style="stroke:#000000; stroke-linecap:butt; stroke-linejoin:round; stroke-width:4; stroke-opacity:1; fill:none" points="
  1719.15,938.735 1719.15,933.144 
  "/>
<polyline clip-path="url(#clip610)" style="stroke:#000000; stroke-linecap:butt; stroke-linejoin:round; stroke-width:4; stroke-opacity:1; fill:none" points="
  2103.15,938.735 2103.15,933.144 
  "/>
<path clip-path="url(#clip610)" d="M498.497 984.306 L528.173 984.306 L528.173 988.241 L498.497 988.241 L498.497 984.306 Z" fill="#000000" fill-rule="evenodd" fill-opacity="1" /><path clip-path="url(#clip610)" d="M548.266 969.653 Q544.654 969.653 542.826 973.218 Q541.02 976.76 541.02 983.89 Q541.02 990.996 542.826 994.561 Q544.654 998.102 548.266 998.102 Q551.9 998.102 553.705 994.561 Q555.534 990.996 555.534 983.89 Q555.534 976.76 553.705 973.218 Q551.9 969.653 548.266 969.653 M548.266 965.95 Q554.076 965.95 557.131 970.556 Q560.21 975.14 560.21 983.89 Q560.21 992.616 557.131 997.223 Q554.076 1001.81 548.266 1001.81 Q542.455 1001.81 539.377 997.223 Q536.321 992.616 536.321 983.89 Q536.321 975.14 539.377 970.556 Q542.455 965.95 548.266 965.95 Z" fill="#000000" fill-rule="evenodd" fill-opacity="1" /><path clip-path="url(#clip610)" d="M568.428 995.255 L573.312 995.255 L573.312 1001.13 L568.428 1001.13 L568.428 995.255 Z" fill="#000000" fill-rule="evenodd" fill-opacity="1" /><path clip-path="url(#clip610)" d="M584.307 997.2 L591.946 997.2 L591.946 970.834 L583.636 972.501 L583.636 968.241 L591.9 966.575 L596.576 966.575 L596.576 997.2 L604.214 997.2 L604.214 1001.13 L584.307 1001.13 L584.307 997.2 Z" fill="#000000" fill-rule="evenodd" fill-opacity="1" /><path clip-path="url(#clip610)" d="M624.237 981.991 Q621.089 981.991 619.237 984.144 Q617.409 986.297 617.409 990.047 Q617.409 993.774 619.237 995.95 Q621.089 998.102 624.237 998.102 Q627.386 998.102 629.214 995.95 Q631.066 993.774 631.066 990.047 Q631.066 986.297 629.214 984.144 Q627.386 981.991 624.237 981.991 M633.52 967.339 L633.52 971.598 Q631.761 970.765 629.955 970.325 Q628.173 969.885 626.413 969.885 Q621.784 969.885 619.33 973.01 Q616.899 976.135 616.552 982.454 Q617.918 980.44 619.978 979.376 Q622.038 978.288 624.515 978.288 Q629.723 978.288 632.733 981.459 Q635.765 984.607 635.765 990.047 Q635.765 995.371 632.617 998.588 Q629.469 1001.81 624.237 1001.81 Q618.242 1001.81 615.071 997.223 Q611.9 992.616 611.9 983.89 Q611.9 975.695 615.788 970.834 Q619.677 965.95 626.228 965.95 Q627.987 965.95 629.77 966.297 Q631.575 966.644 633.52 967.339 Z" fill="#000000" fill-rule="evenodd" fill-opacity="1" /><path clip-path="url(#clip610)" d="M882.341 984.306 L912.016 984.306 L912.016 988.241 L882.341 988.241 L882.341 984.306 Z" fill="#000000" fill-rule="evenodd" fill-opacity="1" /><path clip-path="url(#clip610)" d="M932.109 969.653 Q928.498 969.653 926.669 973.218 Q924.864 976.76 924.864 983.89 Q924.864 990.996 926.669 994.561 Q928.498 998.102 932.109 998.102 Q935.743 998.102 937.549 994.561 Q939.377 990.996 939.377 983.89 Q939.377 976.76 937.549 973.218 Q935.743 969.653 932.109 969.653 M932.109 965.95 Q937.919 965.95 940.975 970.556 Q944.053 975.14 944.053 983.89 Q944.053 992.616 940.975 997.223 Q937.919 1001.81 932.109 1001.81 Q926.299 1001.81 923.22 997.223 Q920.164 992.616 920.164 983.89 Q920.164 975.14 923.22 970.556 Q926.299 965.95 932.109 965.95 Z" fill="#000000" fill-rule="evenodd" fill-opacity="1" /><path clip-path="url(#clip610)" d="M952.271 995.255 L957.155 995.255 L957.155 1001.13 L952.271 1001.13 L952.271 995.255 Z" fill="#000000" fill-rule="evenodd" fill-opacity="1" /><path clip-path="url(#clip610)" d="M968.15 997.2 L975.789 997.2 L975.789 970.834 L967.479 972.501 L967.479 968.241 L975.743 966.575 L980.419 966.575 L980.419 997.2 L988.058 997.2 L988.058 1001.13 L968.15 1001.13 L968.15 997.2 Z" fill="#000000" fill-rule="evenodd" fill-opacity="1" /><path clip-path="url(#clip610)" d="M1010.35 970.649 L998.544 989.098 L1010.35 989.098 L1010.35 970.649 M1009.12 966.575 L1015 966.575 L1015 989.098 L1019.93 989.098 L1019.93 992.987 L1015 992.987 L1015 1001.13 L1010.35 1001.13 L1010.35 992.987 L994.747 992.987 L994.747 988.473 L1009.12 966.575 Z" fill="#000000" fill-rule="evenodd" fill-opacity="1" /><path clip-path="url(#clip610)" d="M1267.39 984.306 L1297.06 984.306 L1297.06 988.241 L1267.39 988.241 L1267.39 984.306 Z" fill="#000000" fill-rule="evenodd" fill-opacity="1" /><path clip-path="url(#clip610)" d="M1317.16 969.653 Q1313.54 969.653 1311.72 973.218 Q1309.91 976.76 1309.91 983.89 Q1309.91 990.996 1311.72 994.561 Q1313.54 998.102 1317.16 998.102 Q1320.79 998.102 1322.6 994.561 Q1324.42 990.996 1324.42 983.89 Q1324.42 976.76 1322.6 973.218 Q1320.79 969.653 1317.16 969.653 M1317.16 965.95 Q1322.97 965.95 1326.02 970.556 Q1329.1 975.14 1329.1 983.89 Q1329.1 992.616 1326.02 997.223 Q1322.97 1001.81 1317.16 1001.81 Q1311.35 1001.81 1308.27 997.223 Q1305.21 992.616 1305.21 983.89 Q1305.21 975.14 1308.27 970.556 Q1311.35 965.95 1317.16 965.95 Z" fill="#000000" fill-rule="evenodd" fill-opacity="1" /><path clip-path="url(#clip610)" d="M1337.32 995.255 L1342.2 995.255 L1342.2 1001.13 L1337.32 1001.13 L1337.32 995.255 Z" fill="#000000" fill-rule="evenodd" fill-opacity="1" /><path clip-path="url(#clip610)" d="M1353.2 997.2 L1360.84 997.2 L1360.84 970.834 L1352.53 972.501 L1352.53 968.241 L1360.79 966.575 L1365.47 966.575 L1365.47 997.2 L1373.1 997.2 L1373.1 1001.13 L1353.2 1001.13 L1353.2 997.2 Z" fill="#000000" fill-rule="evenodd" fill-opacity="1" /><path clip-path="url(#clip610)" d="M1386.58 997.2 L1402.9 997.2 L1402.9 1001.13 L1380.95 1001.13 L1380.95 997.2 Q1383.61 994.445 1388.2 989.815 Q1392.8 985.163 1393.98 983.82 Q1396.23 981.297 1397.11 979.561 Q1398.01 977.802 1398.01 976.112 Q1398.01 973.357 1396.07 971.621 Q1394.15 969.885 1391.04 969.885 Q1388.85 969.885 1386.39 970.649 Q1383.96 971.413 1381.18 972.964 L1381.18 968.241 Q1384.01 967.107 1386.46 966.528 Q1388.91 965.95 1390.95 965.95 Q1396.32 965.95 1399.52 968.635 Q1402.71 971.32 1402.71 975.811 Q1402.71 977.94 1401.9 979.862 Q1401.11 981.76 1399.01 984.352 Q1398.43 985.024 1395.33 988.241 Q1392.22 991.436 1386.58 997.2 Z" fill="#000000" fill-rule="evenodd" fill-opacity="1" /><path clip-path="url(#clip610)" d="M1650.59 984.306 L1680.27 984.306 L1680.27 988.241 L1650.59 988.241 L1650.59 984.306 Z" fill="#000000" fill-rule="evenodd" fill-opacity="1" /><path clip-path="url(#clip610)" d="M1700.36 969.653 Q1696.75 969.653 1694.92 973.218 Q1693.12 976.76 1693.12 983.89 Q1693.12 990.996 1694.92 994.561 Q1696.75 998.102 1700.36 998.102 Q1704 998.102 1705.8 994.561 Q1707.63 990.996 1707.63 983.89 Q1707.63 976.76 1705.8 973.218 Q1704 969.653 1700.36 969.653 M1700.36 965.95 Q1706.17 965.95 1709.23 970.556 Q1712.31 975.14 1712.31 983.89 Q1712.31 992.616 1709.23 997.223 Q1706.17 1001.81 1700.36 1001.81 Q1694.55 1001.81 1691.47 997.223 Q1688.42 992.616 1688.42 983.89 Q1688.42 975.14 1691.47 970.556 Q1694.55 965.95 1700.36 965.95 Z" fill="#000000" fill-rule="evenodd" fill-opacity="1" /><path clip-path="url(#clip610)" d="M1720.52 995.255 L1725.41 995.255 L1725.41 1001.13 L1720.52 1001.13 L1720.52 995.255 Z" fill="#000000" fill-rule="evenodd" fill-opacity="1" /><path clip-path="url(#clip610)" d="M1736.4 997.2 L1744.04 997.2 L1744.04 970.834 L1735.73 972.501 L1735.73 968.241 L1744 966.575 L1748.67 966.575 L1748.67 997.2 L1756.31 997.2 L1756.31 1001.13 L1736.4 1001.13 L1736.4 997.2 Z" fill="#000000" fill-rule="evenodd" fill-opacity="1" /><path clip-path="url(#clip610)" d="M1775.76 969.653 Q1772.14 969.653 1770.32 973.218 Q1768.51 976.76 1768.51 983.89 Q1768.51 990.996 1770.32 994.561 Q1772.14 998.102 1775.76 998.102 Q1779.39 998.102 1781.2 994.561 Q1783.02 990.996 1783.02 983.89 Q1783.02 976.76 1781.2 973.218 Q1779.39 969.653 1775.76 969.653 M1775.76 965.95 Q1781.57 965.95 1784.62 970.556 Q1787.7 975.14 1787.7 983.89 Q1787.7 992.616 1784.62 997.223 Q1781.57 1001.81 1775.76 1001.81 Q1769.95 1001.81 1766.87 997.223 Q1763.81 992.616 1763.81 983.89 Q1763.81 975.14 1766.87 970.556 Q1769.95 965.95 1775.76 965.95 Z" fill="#000000" fill-rule="evenodd" fill-opacity="1" /><path clip-path="url(#clip610)" d="M2034.65 984.306 L2064.32 984.306 L2064.32 988.241 L2034.65 988.241 L2034.65 984.306 Z" fill="#000000" fill-rule="evenodd" fill-opacity="1" /><path clip-path="url(#clip610)" d="M2084.41 969.653 Q2080.8 969.653 2078.97 973.218 Q2077.17 976.76 2077.17 983.89 Q2077.17 990.996 2078.97 994.561 Q2080.8 998.102 2084.41 998.102 Q2088.05 998.102 2089.85 994.561 Q2091.68 990.996 2091.68 983.89 Q2091.68 976.76 2089.85 973.218 Q2088.05 969.653 2084.41 969.653 M2084.41 965.95 Q2090.22 965.95 2093.28 970.556 Q2096.36 975.14 2096.36 983.89 Q2096.36 992.616 2093.28 997.223 Q2090.22 1001.81 2084.41 1001.81 Q2078.6 1001.81 2075.53 997.223 Q2072.47 992.616 2072.47 983.89 Q2072.47 975.14 2075.53 970.556 Q2078.6 965.95 2084.41 965.95 Z" fill="#000000" fill-rule="evenodd" fill-opacity="1" /><path clip-path="url(#clip610)" d="M2104.58 995.255 L2109.46 995.255 L2109.46 1001.13 L2104.58 1001.13 L2104.58 995.255 Z" fill="#000000" fill-rule="evenodd" fill-opacity="1" /><path clip-path="url(#clip610)" d="M2129.65 969.653 Q2126.03 969.653 2124.21 973.218 Q2122.4 976.76 2122.4 983.89 Q2122.4 990.996 2124.21 994.561 Q2126.03 998.102 2129.65 998.102 Q2133.28 998.102 2135.09 994.561 Q2136.91 990.996 2136.91 983.89 Q2136.91 976.76 2135.09 973.218 Q2133.28 969.653 2129.65 969.653 M2129.65 965.95 Q2135.46 965.95 2138.51 970.556 Q2141.59 975.14 2141.59 983.89 Q2141.59 992.616 2138.51 997.223 Q2135.46 1001.81 2129.65 1001.81 Q2123.84 1001.81 2120.76 997.223 Q2117.7 992.616 2117.7 983.89 Q2117.7 975.14 2120.76 970.556 Q2123.84 965.95 2129.65 965.95 Z" fill="#000000" fill-rule="evenodd" fill-opacity="1" /><path clip-path="url(#clip610)" d="M2159.81 984.723 Q2156.47 984.723 2154.55 986.505 Q2152.65 988.288 2152.65 991.413 Q2152.65 994.538 2154.55 996.32 Q2156.47 998.102 2159.81 998.102 Q2163.14 998.102 2165.06 996.32 Q2166.98 994.514 2166.98 991.413 Q2166.98 988.288 2165.06 986.505 Q2163.16 984.723 2159.81 984.723 M2155.13 982.732 Q2152.12 981.991 2150.43 979.931 Q2148.77 977.871 2148.77 974.908 Q2148.77 970.765 2151.71 968.357 Q2154.67 965.95 2159.81 965.95 Q2164.97 965.95 2167.91 968.357 Q2170.85 970.765 2170.85 974.908 Q2170.85 977.871 2169.16 979.931 Q2167.49 981.991 2164.51 982.732 Q2167.89 983.519 2169.76 985.811 Q2171.66 988.102 2171.66 991.413 Q2171.66 996.436 2168.58 999.121 Q2165.52 1001.81 2159.81 1001.81 Q2154.09 1001.81 2151.01 999.121 Q2147.96 996.436 2147.96 991.413 Q2147.96 988.102 2149.85 985.811 Q2151.75 983.519 2155.13 982.732 M2153.42 975.348 Q2153.42 978.033 2155.09 979.538 Q2156.77 981.042 2159.81 981.042 Q2162.82 981.042 2164.51 979.538 Q2166.22 978.033 2166.22 975.348 Q2166.22 972.663 2164.51 971.158 Q2162.82 969.653 2159.81 969.653 Q2156.77 969.653 2155.09 971.158 Q2153.42 972.663 2153.42 975.348 Z" fill="#000000" fill-rule="evenodd" fill-opacity="1" /><path clip-path="url(#clip610)" d="M1277.72 1061.32 Q1279.79 1062.02 1281.73 1064.31 Q1283.71 1066.6 1285.68 1070.61 L1292.21 1083.6 L1285.3 1083.6 L1279.22 1071.41 Q1276.86 1066.63 1274.64 1065.07 Q1272.44 1063.51 1268.62 1063.51 L1261.62 1063.51 L1261.62 1083.6 L1255.19 1083.6 L1255.19 1036.08 L1269.7 1036.08 Q1277.85 1036.08 1281.86 1039.48 Q1285.87 1042.89 1285.87 1049.77 Q1285.87 1054.25 1283.77 1057.21 Q1281.7 1060.17 1277.72 1061.32 M1261.62 1041.36 L1261.62 1058.23 L1269.7 1058.23 Q1274.35 1058.23 1276.7 1056.1 Q1279.09 1053.93 1279.09 1049.77 Q1279.09 1045.6 1276.7 1043.49 Q1274.35 1041.36 1269.7 1041.36 L1261.62 1041.36 Z" fill="#000000" fill-rule="evenodd" fill-opacity="1" /><path clip-path="url(#clip610)" d="M1327.79 1064.31 L1327.79 1067.18 L1300.86 1067.18 Q1301.24 1073.22 1304.49 1076.41 Q1307.77 1079.56 1313.59 1079.56 Q1316.97 1079.56 1320.12 1078.73 Q1323.3 1077.9 1326.42 1076.25 L1326.42 1081.78 Q1323.27 1083.12 1319.96 1083.82 Q1316.65 1084.52 1313.24 1084.52 Q1304.71 1084.52 1299.72 1079.56 Q1294.75 1074.59 1294.75 1066.12 Q1294.75 1057.37 1299.46 1052.25 Q1304.2 1047.09 1312.23 1047.09 Q1319.42 1047.09 1323.59 1051.74 Q1327.79 1056.35 1327.79 1064.31 M1321.93 1062.59 Q1321.87 1057.79 1319.23 1054.92 Q1316.62 1052.06 1312.29 1052.06 Q1307.39 1052.06 1304.43 1054.83 Q1301.5 1057.59 1301.05 1062.62 L1321.93 1062.59 Z" fill="#000000" fill-rule="evenodd" fill-opacity="1" /><path clip-path="url(#clip610)" d="M1351.47 1034.14 Q1347.2 1041.46 1345.14 1048.62 Q1343.07 1055.78 1343.07 1063.13 Q1343.07 1070.49 1345.14 1077.71 Q1347.24 1084.9 1351.47 1092.19 L1346.38 1092.19 Q1341.6 1084.71 1339.22 1077.49 Q1336.86 1070.26 1336.86 1063.13 Q1336.86 1056.04 1339.22 1048.84 Q1341.57 1041.65 1346.38 1034.14 L1351.47 1034.14 Z" fill="#000000" fill-rule="evenodd" fill-opacity="1" /><path clip-path="url(#clip610)" d="M1392.47 1047.95 L1379.57 1065.3 L1393.13 1083.6 L1386.23 1083.6 L1375.85 1069.59 L1365.47 1083.6 L1358.57 1083.6 L1372.41 1064.95 L1359.75 1047.95 L1366.65 1047.95 L1376.11 1060.65 L1385.56 1047.95 L1392.47 1047.95 Z" fill="#000000" fill-rule="evenodd" fill-opacity="1" /><path clip-path="url(#clip610)" d="M1400.49 1034.14 L1405.58 1034.14 Q1410.35 1041.65 1412.71 1048.84 Q1415.1 1056.04 1415.1 1063.13 Q1415.1 1070.26 1412.71 1077.49 Q1410.35 1084.71 1405.58 1092.19 L1400.49 1092.19 Q1404.72 1084.9 1406.79 1077.71 Q1408.89 1070.49 1408.89 1063.13 Q1408.89 1055.78 1406.79 1048.62 Q1404.72 1041.46 1400.49 1034.14 Z" fill="#000000" fill-rule="evenodd" fill-opacity="1" /><polyline clip-path="url(#clip610)" style="stroke:#000000; stroke-linecap:butt; stroke-linejoin:round; stroke-width:4; stroke-opacity:1; fill:none" points="
  317.528,938.735 317.528,531.689 
  "/>
<polyline clip-path="url(#clip610)" style="stroke:#000000; stroke-linecap:butt; stroke-linejoin:round; stroke-width:4; stroke-opacity:1; fill:none" points="
  317.528,927.215 336.425,927.215 
  "/>
<polyline clip-path="url(#clip610)" style="stroke:#000000; stroke-linecap:butt; stroke-linejoin:round; stroke-width:4; stroke-opacity:1; fill:none" points="
  317.528,831.213 336.425,831.213 
  "/>
<polyline clip-path="url(#clip610)" style="stroke:#000000; stroke-linecap:butt; stroke-linejoin:round; stroke-width:4; stroke-opacity:1; fill:none" points="
  317.528,735.212 336.425,735.212 
  "/>
<polyline clip-path="url(#clip610)" style="stroke:#000000; stroke-linecap:butt; stroke-linejoin:round; stroke-width:4; stroke-opacity:1; fill:none" points="
  317.528,639.211 336.425,639.211 
  "/>
<polyline clip-path="url(#clip610)" style="stroke:#000000; stroke-linecap:butt; stroke-linejoin:round; stroke-width:4; stroke-opacity:1; fill:none" points="
  317.528,543.209 336.425,543.209 
  "/>
<path clip-path="url(#clip610)" d="M114.26 927.666 L143.936 927.666 L143.936 931.601 L114.26 931.601 L114.26 927.666 Z" fill="#000000" fill-rule="evenodd" fill-opacity="1" /><path clip-path="url(#clip610)" d="M164.028 913.013 Q160.417 913.013 158.589 916.578 Q156.783 920.12 156.783 927.249 Q156.783 934.356 158.589 937.921 Q160.417 941.462 164.028 941.462 Q167.663 941.462 169.468 937.921 Q171.297 934.356 171.297 927.249 Q171.297 920.12 169.468 916.578 Q167.663 913.013 164.028 913.013 M164.028 909.31 Q169.839 909.31 172.894 913.916 Q175.973 918.499 175.973 927.249 Q175.973 935.976 172.894 940.583 Q169.839 945.166 164.028 945.166 Q158.218 945.166 155.14 940.583 Q152.084 935.976 152.084 927.249 Q152.084 918.499 155.14 913.916 Q158.218 909.31 164.028 909.31 Z" fill="#000000" fill-rule="evenodd" fill-opacity="1" /><path clip-path="url(#clip610)" d="M184.19 938.615 L189.075 938.615 L189.075 944.495 L184.19 944.495 L184.19 938.615 Z" fill="#000000" fill-rule="evenodd" fill-opacity="1" /><path clip-path="url(#clip610)" d="M209.26 913.013 Q205.649 913.013 203.82 916.578 Q202.014 920.12 202.014 927.249 Q202.014 934.356 203.82 937.921 Q205.649 941.462 209.26 941.462 Q212.894 941.462 214.699 937.921 Q216.528 934.356 216.528 927.249 Q216.528 920.12 214.699 916.578 Q212.894 913.013 209.26 913.013 M209.26 909.31 Q215.07 909.31 218.125 913.916 Q221.204 918.499 221.204 927.249 Q221.204 935.976 218.125 940.583 Q215.07 945.166 209.26 945.166 Q203.449 945.166 200.371 940.583 Q197.315 935.976 197.315 927.249 Q197.315 918.499 200.371 913.916 Q203.449 909.31 209.26 909.31 Z" fill="#000000" fill-rule="evenodd" fill-opacity="1" /><path clip-path="url(#clip610)" d="M230.232 940.559 L237.871 940.559 L237.871 914.194 L229.56 915.861 L229.56 911.601 L237.824 909.935 L242.5 909.935 L242.5 940.559 L250.139 940.559 L250.139 944.495 L230.232 944.495 L230.232 940.559 Z" fill="#000000" fill-rule="evenodd" fill-opacity="1" /><path clip-path="url(#clip610)" d="M269.583 913.013 Q265.972 913.013 264.144 916.578 Q262.338 920.12 262.338 927.249 Q262.338 934.356 264.144 937.921 Q265.972 941.462 269.583 941.462 Q273.218 941.462 275.023 937.921 Q276.852 934.356 276.852 927.249 Q276.852 920.12 275.023 916.578 Q273.218 913.013 269.583 913.013 M269.583 909.31 Q275.394 909.31 278.449 913.916 Q281.528 918.499 281.528 927.249 Q281.528 935.976 278.449 940.583 Q275.394 945.166 269.583 945.166 Q263.773 945.166 260.695 940.583 Q257.639 935.976 257.639 927.249 Q257.639 918.499 260.695 913.916 Q263.773 909.31 269.583 909.31 Z" fill="#000000" fill-rule="evenodd" fill-opacity="1" /><path clip-path="url(#clip610)" d="M115.256 831.665 L144.931 831.665 L144.931 835.6 L115.256 835.6 L115.256 831.665 Z" fill="#000000" fill-rule="evenodd" fill-opacity="1" /><path clip-path="url(#clip610)" d="M165.024 817.012 Q161.413 817.012 159.584 820.577 Q157.778 824.118 157.778 831.248 Q157.778 838.354 159.584 841.919 Q161.413 845.461 165.024 845.461 Q168.658 845.461 170.464 841.919 Q172.292 838.354 172.292 831.248 Q172.292 824.118 170.464 820.577 Q168.658 817.012 165.024 817.012 M165.024 813.308 Q170.834 813.308 173.889 817.915 Q176.968 822.498 176.968 831.248 Q176.968 839.975 173.889 844.581 Q170.834 849.165 165.024 849.165 Q159.214 849.165 156.135 844.581 Q153.079 839.975 153.079 831.248 Q153.079 822.498 156.135 817.915 Q159.214 813.308 165.024 813.308 Z" fill="#000000" fill-rule="evenodd" fill-opacity="1" /><path clip-path="url(#clip610)" d="M185.186 842.614 L190.07 842.614 L190.07 848.493 L185.186 848.493 L185.186 842.614 Z" fill="#000000" fill-rule="evenodd" fill-opacity="1" /><path clip-path="url(#clip610)" d="M210.255 817.012 Q206.644 817.012 204.815 820.577 Q203.01 824.118 203.01 831.248 Q203.01 838.354 204.815 841.919 Q206.644 845.461 210.255 845.461 Q213.889 845.461 215.695 841.919 Q217.523 838.354 217.523 831.248 Q217.523 824.118 215.695 820.577 Q213.889 817.012 210.255 817.012 M210.255 813.308 Q216.065 813.308 219.121 817.915 Q222.199 822.498 222.199 831.248 Q222.199 839.975 219.121 844.581 Q216.065 849.165 210.255 849.165 Q204.445 849.165 201.366 844.581 Q198.311 839.975 198.311 831.248 Q198.311 822.498 201.366 817.915 Q204.445 813.308 210.255 813.308 Z" fill="#000000" fill-rule="evenodd" fill-opacity="1" /><path clip-path="url(#clip610)" d="M240.417 817.012 Q236.806 817.012 234.977 820.577 Q233.172 824.118 233.172 831.248 Q233.172 838.354 234.977 841.919 Q236.806 845.461 240.417 845.461 Q244.051 845.461 245.857 841.919 Q247.685 838.354 247.685 831.248 Q247.685 824.118 245.857 820.577 Q244.051 817.012 240.417 817.012 M240.417 813.308 Q246.227 813.308 249.283 817.915 Q252.361 822.498 252.361 831.248 Q252.361 839.975 249.283 844.581 Q246.227 849.165 240.417 849.165 Q234.607 849.165 231.528 844.581 Q228.473 839.975 228.473 831.248 Q228.473 822.498 231.528 817.915 Q234.607 813.308 240.417 813.308 Z" fill="#000000" fill-rule="evenodd" fill-opacity="1" /><path clip-path="url(#clip610)" d="M260.625 813.933 L278.981 813.933 L278.981 817.868 L264.907 817.868 L264.907 826.341 Q265.926 825.993 266.945 825.831 Q267.963 825.646 268.982 825.646 Q274.769 825.646 278.148 828.817 Q281.528 831.989 281.528 837.405 Q281.528 842.984 278.056 846.086 Q274.583 849.165 268.264 849.165 Q266.088 849.165 263.82 848.794 Q261.574 848.424 259.167 847.683 L259.167 842.984 Q261.25 844.118 263.472 844.674 Q265.695 845.229 268.171 845.229 Q272.176 845.229 274.514 843.123 Q276.852 841.016 276.852 837.405 Q276.852 833.794 274.514 831.688 Q272.176 829.581 268.171 829.581 Q266.296 829.581 264.421 829.998 Q262.57 830.415 260.625 831.294 L260.625 813.933 Z" fill="#000000" fill-rule="evenodd" fill-opacity="1" /><path clip-path="url(#clip610)" d="M164.028 721.011 Q160.417 721.011 158.589 724.575 Q156.783 728.117 156.783 735.247 Q156.783 742.353 158.589 745.918 Q160.417 749.46 164.028 749.46 Q167.663 749.46 169.468 745.918 Q171.297 742.353 171.297 735.247 Q171.297 728.117 169.468 724.575 Q167.663 721.011 164.028 721.011 M164.028 717.307 Q169.839 717.307 172.894 721.913 Q175.973 726.497 175.973 735.247 Q175.973 743.973 172.894 748.58 Q169.839 753.163 164.028 753.163 Q158.218 753.163 155.14 748.58 Q152.084 743.973 152.084 735.247 Q152.084 726.497 155.14 721.913 Q158.218 717.307 164.028 717.307 Z" fill="#000000" fill-rule="evenodd" fill-opacity="1" /><path clip-path="url(#clip610)" d="M184.19 746.612 L189.075 746.612 L189.075 752.492 L184.19 752.492 L184.19 746.612 Z" fill="#000000" fill-rule="evenodd" fill-opacity="1" /><path clip-path="url(#clip610)" d="M209.26 721.011 Q205.649 721.011 203.82 724.575 Q202.014 728.117 202.014 735.247 Q202.014 742.353 203.82 745.918 Q205.649 749.46 209.26 749.46 Q212.894 749.46 214.699 745.918 Q216.528 742.353 216.528 735.247 Q216.528 728.117 214.699 724.575 Q212.894 721.011 209.26 721.011 M209.26 717.307 Q215.07 717.307 218.125 721.913 Q221.204 726.497 221.204 735.247 Q221.204 743.973 218.125 748.58 Q215.07 753.163 209.26 753.163 Q203.449 753.163 200.371 748.58 Q197.315 743.973 197.315 735.247 Q197.315 726.497 200.371 721.913 Q203.449 717.307 209.26 717.307 Z" fill="#000000" fill-rule="evenodd" fill-opacity="1" /><path clip-path="url(#clip610)" d="M239.422 721.011 Q235.81 721.011 233.982 724.575 Q232.176 728.117 232.176 735.247 Q232.176 742.353 233.982 745.918 Q235.81 749.46 239.422 749.46 Q243.056 749.46 244.861 745.918 Q246.69 742.353 246.69 735.247 Q246.69 728.117 244.861 724.575 Q243.056 721.011 239.422 721.011 M239.422 717.307 Q245.232 717.307 248.287 721.913 Q251.366 726.497 251.366 735.247 Q251.366 743.973 248.287 748.58 Q245.232 753.163 239.422 753.163 Q233.611 753.163 230.533 748.58 Q227.477 743.973 227.477 735.247 Q227.477 726.497 230.533 721.913 Q233.611 717.307 239.422 717.307 Z" fill="#000000" fill-rule="evenodd" fill-opacity="1" /><path clip-path="url(#clip610)" d="M269.583 721.011 Q265.972 721.011 264.144 724.575 Q262.338 728.117 262.338 735.247 Q262.338 742.353 264.144 745.918 Q265.972 749.46 269.583 749.46 Q273.218 749.46 275.023 745.918 Q276.852 742.353 276.852 735.247 Q276.852 728.117 275.023 724.575 Q273.218 721.011 269.583 721.011 M269.583 717.307 Q275.394 717.307 278.449 721.913 Q281.528 726.497 281.528 735.247 Q281.528 743.973 278.449 748.58 Q275.394 753.163 269.583 753.163 Q263.773 753.163 260.695 748.58 Q257.639 743.973 257.639 735.247 Q257.639 726.497 260.695 721.913 Q263.773 717.307 269.583 717.307 Z" fill="#000000" fill-rule="evenodd" fill-opacity="1" /><path clip-path="url(#clip610)" d="M165.024 625.009 Q161.413 625.009 159.584 628.574 Q157.778 632.116 157.778 639.245 Q157.778 646.352 159.584 649.917 Q161.413 653.458 165.024 653.458 Q168.658 653.458 170.464 649.917 Q172.292 646.352 172.292 639.245 Q172.292 632.116 170.464 628.574 Q168.658 625.009 165.024 625.009 M165.024 621.306 Q170.834 621.306 173.889 625.912 Q176.968 630.495 176.968 639.245 Q176.968 647.972 173.889 652.579 Q170.834 657.162 165.024 657.162 Q159.214 657.162 156.135 652.579 Q153.079 647.972 153.079 639.245 Q153.079 630.495 156.135 625.912 Q159.214 621.306 165.024 621.306 Z" fill="#000000" fill-rule="evenodd" fill-opacity="1" /><path clip-path="url(#clip610)" d="M185.186 650.611 L190.07 650.611 L190.07 656.491 L185.186 656.491 L185.186 650.611 Z" fill="#000000" fill-rule="evenodd" fill-opacity="1" /><path clip-path="url(#clip610)" d="M210.255 625.009 Q206.644 625.009 204.815 628.574 Q203.01 632.116 203.01 639.245 Q203.01 646.352 204.815 649.917 Q206.644 653.458 210.255 653.458 Q213.889 653.458 215.695 649.917 Q217.523 646.352 217.523 639.245 Q217.523 632.116 215.695 628.574 Q213.889 625.009 210.255 625.009 M210.255 621.306 Q216.065 621.306 219.121 625.912 Q222.199 630.495 222.199 639.245 Q222.199 647.972 219.121 652.579 Q216.065 657.162 210.255 657.162 Q204.445 657.162 201.366 652.579 Q198.311 647.972 198.311 639.245 Q198.311 630.495 201.366 625.912 Q204.445 621.306 210.255 621.306 Z" fill="#000000" fill-rule="evenodd" fill-opacity="1" /><path clip-path="url(#clip610)" d="M240.417 625.009 Q236.806 625.009 234.977 628.574 Q233.172 632.116 233.172 639.245 Q233.172 646.352 234.977 649.917 Q236.806 653.458 240.417 653.458 Q244.051 653.458 245.857 649.917 Q247.685 646.352 247.685 639.245 Q247.685 632.116 245.857 628.574 Q244.051 625.009 240.417 625.009 M240.417 621.306 Q246.227 621.306 249.283 625.912 Q252.361 630.495 252.361 639.245 Q252.361 647.972 249.283 652.579 Q246.227 657.162 240.417 657.162 Q234.607 657.162 231.528 652.579 Q228.473 647.972 228.473 639.245 Q228.473 630.495 231.528 625.912 Q234.607 621.306 240.417 621.306 Z" fill="#000000" fill-rule="evenodd" fill-opacity="1" /><path clip-path="url(#clip610)" d="M260.625 621.931 L278.981 621.931 L278.981 625.866 L264.907 625.866 L264.907 634.338 Q265.926 633.991 266.945 633.829 Q267.963 633.644 268.982 633.644 Q274.769 633.644 278.148 636.815 Q281.528 639.986 281.528 645.403 Q281.528 650.981 278.056 654.083 Q274.583 657.162 268.264 657.162 Q266.088 657.162 263.82 656.792 Q261.574 656.421 259.167 655.68 L259.167 650.981 Q261.25 652.116 263.472 652.671 Q265.695 653.227 268.171 653.227 Q272.176 653.227 274.514 651.12 Q276.852 649.014 276.852 645.403 Q276.852 641.792 274.514 639.685 Q272.176 637.579 268.171 637.579 Q266.296 637.579 264.421 637.995 Q262.57 638.412 260.625 639.292 L260.625 621.931 Z" fill="#000000" fill-rule="evenodd" fill-opacity="1" /><path clip-path="url(#clip610)" d="M164.028 529.008 Q160.417 529.008 158.589 532.573 Q156.783 536.114 156.783 543.244 Q156.783 550.35 158.589 553.915 Q160.417 557.457 164.028 557.457 Q167.663 557.457 169.468 553.915 Q171.297 550.35 171.297 543.244 Q171.297 536.114 169.468 532.573 Q167.663 529.008 164.028 529.008 M164.028 525.304 Q169.839 525.304 172.894 529.911 Q175.973 534.494 175.973 543.244 Q175.973 551.971 172.894 556.577 Q169.839 561.161 164.028 561.161 Q158.218 561.161 155.14 556.577 Q152.084 551.971 152.084 543.244 Q152.084 534.494 155.14 529.911 Q158.218 525.304 164.028 525.304 Z" fill="#000000" fill-rule="evenodd" fill-opacity="1" /><path clip-path="url(#clip610)" d="M184.19 554.61 L189.075 554.61 L189.075 560.489 L184.19 560.489 L184.19 554.61 Z" fill="#000000" fill-rule="evenodd" fill-opacity="1" /><path clip-path="url(#clip610)" d="M209.26 529.008 Q205.649 529.008 203.82 532.573 Q202.014 536.114 202.014 543.244 Q202.014 550.35 203.82 553.915 Q205.649 557.457 209.26 557.457 Q212.894 557.457 214.699 553.915 Q216.528 550.35 216.528 543.244 Q216.528 536.114 214.699 532.573 Q212.894 529.008 209.26 529.008 M209.26 525.304 Q215.07 525.304 218.125 529.911 Q221.204 534.494 221.204 543.244 Q221.204 551.971 218.125 556.577 Q215.07 561.161 209.26 561.161 Q203.449 561.161 200.371 556.577 Q197.315 551.971 197.315 543.244 Q197.315 534.494 200.371 529.911 Q203.449 525.304 209.26 525.304 Z" fill="#000000" fill-rule="evenodd" fill-opacity="1" /><path clip-path="url(#clip610)" d="M230.232 556.554 L237.871 556.554 L237.871 530.189 L229.56 531.855 L229.56 527.596 L237.824 525.929 L242.5 525.929 L242.5 556.554 L250.139 556.554 L250.139 560.489 L230.232 560.489 L230.232 556.554 Z" fill="#000000" fill-rule="evenodd" fill-opacity="1" /><path clip-path="url(#clip610)" d="M269.583 529.008 Q265.972 529.008 264.144 532.573 Q262.338 536.114 262.338 543.244 Q262.338 550.35 264.144 553.915 Q265.972 557.457 269.583 557.457 Q273.218 557.457 275.023 553.915 Q276.852 550.35 276.852 543.244 Q276.852 536.114 275.023 532.573 Q273.218 529.008 269.583 529.008 M269.583 525.304 Q275.394 525.304 278.449 529.911 Q281.528 534.494 281.528 543.244 Q281.528 551.971 278.449 556.577 Q275.394 561.161 269.583 561.161 Q263.773 561.161 260.695 556.577 Q257.639 551.971 257.639 543.244 Q257.639 534.494 260.695 529.911 Q263.773 525.304 269.583 525.304 Z" fill="#000000" fill-rule="evenodd" fill-opacity="1" /><path clip-path="url(#clip610)" d="M16.4842 815.293 L16.4842 808.863 L64.0042 808.863 L64.0042 815.293 L16.4842 815.293 Z" fill="#000000" fill-rule="evenodd" fill-opacity="1" /><path clip-path="url(#clip610)" d="M35.1993 768.568 Q31.2526 766.372 29.3747 763.317 Q27.4968 760.261 27.4968 756.123 Q27.4968 750.553 31.4117 747.53 Q35.2948 744.506 42.4881 744.506 L64.0042 744.506 L64.0042 750.394 L42.679 750.394 Q37.5546 750.394 35.072 752.208 Q32.5894 754.023 32.5894 757.747 Q32.5894 762.298 35.6131 764.94 Q38.6368 767.582 43.8567 767.582 L64.0042 767.582 L64.0042 773.47 L42.679 773.47 Q37.5228 773.47 35.072 775.284 Q32.5894 777.098 32.5894 780.886 Q32.5894 785.374 35.6449 788.016 Q38.6686 790.657 43.8567 790.657 L64.0042 790.657 L64.0042 796.546 L28.3562 796.546 L28.3562 790.657 L33.8944 790.657 Q30.616 788.652 29.0564 785.851 Q27.4968 783.05 27.4968 779.199 Q27.4968 775.316 29.4702 772.61 Q31.4436 769.873 35.1993 768.568 Z" fill="#000000" fill-rule="evenodd" fill-opacity="1" /><path clip-path="url(#clip610)" d="M14.5426 718.757 Q21.8632 723.022 29.0246 725.09 Q36.186 727.159 43.5384 727.159 Q50.8908 727.159 58.1159 725.09 Q65.3091 722.99 72.5979 718.757 L72.5979 723.849 Q65.1182 728.623 57.8931 731.011 Q50.668 733.366 43.5384 733.366 Q36.4406 733.366 29.2474 731.011 Q22.0542 728.655 14.5426 723.849 L14.5426 718.757 Z" fill="#000000" fill-rule="evenodd" fill-opacity="1" /><path clip-path="url(#clip610)" d="M28.3562 677.761 L45.7028 690.652 L64.0042 677.093 L64.0042 684 L49.9996 694.376 L64.0042 704.752 L64.0042 711.659 L45.3526 697.813 L28.3562 710.481 L28.3562 703.574 L41.0558 694.121 L28.3562 684.668 L28.3562 677.761 Z" fill="#000000" fill-rule="evenodd" fill-opacity="1" /><path clip-path="url(#clip610)" d="M14.5426 669.741 L14.5426 664.648 Q22.0542 659.874 29.2474 657.519 Q36.4406 655.131 43.5384 655.131 Q50.668 655.131 57.8931 657.519 Q65.1182 659.874 72.5979 664.648 L72.5979 669.741 Q65.3091 665.507 58.1159 663.439 Q50.8908 661.338 43.5384 661.338 Q36.186 661.338 29.0246 663.439 Q21.8632 665.507 14.5426 669.741 Z" fill="#000000" fill-rule="evenodd" fill-opacity="1" /><circle clip-path="url(#clip612)" cx="1884.03" cy="737.224" r="14" fill="#00c5cd" fill-rule="evenodd" fill-opacity="0.4" stroke="#000000" stroke-opacity="0.4" stroke-width="3.2"/>
<circle clip-path="url(#clip612)" cx="1884.03" cy="733.2" r="14" fill="#00c5cd" fill-rule="evenodd" fill-opacity="0.4" stroke="#000000" stroke-opacity="0.4" stroke-width="3.2"/>
<circle clip-path="url(#clip612)" cx="1897.18" cy="735.212" r="14" fill="#00c5cd" fill-rule="evenodd" fill-opacity="0.4" stroke="#000000" stroke-opacity="0.4" stroke-width="3.2"/>
<circle clip-path="url(#clip612)" cx="1904.89" cy="750.238" r="14" fill="#00c5cd" fill-rule="evenodd" fill-opacity="0.4" stroke="#000000" stroke-opacity="0.4" stroke-width="3.2"/>
<circle clip-path="url(#clip612)" cx="1904.89" cy="720.186" r="14" fill="#00c5cd" fill-rule="evenodd" fill-opacity="0.4" stroke="#000000" stroke-opacity="0.4" stroke-width="3.2"/>
<circle clip-path="url(#clip612)" cx="1908.52" cy="775.308" r="14" fill="#00c5cd" fill-rule="evenodd" fill-opacity="0.4" stroke="#000000" stroke-opacity="0.4" stroke-width="3.2"/>
<circle clip-path="url(#clip612)" cx="1908.52" cy="695.116" r="14" fill="#00c5cd" fill-rule="evenodd" fill-opacity="0.4" stroke="#000000" stroke-opacity="0.4" stroke-width="3.2"/>
<circle clip-path="url(#clip612)" cx="1925.74" cy="735.212" r="14" fill="#00c5cd" fill-rule="evenodd" fill-opacity="0.4" stroke="#000000" stroke-opacity="0.4" stroke-width="3.2"/>
<circle clip-path="url(#clip612)" cx="1929.82" cy="751.204" r="14" fill="#00c5cd" fill-rule="evenodd" fill-opacity="0.4" stroke="#000000" stroke-opacity="0.4" stroke-width="3.2"/>
<circle clip-path="url(#clip612)" cx="1929.82" cy="719.219" r="14" fill="#00c5cd" fill-rule="evenodd" fill-opacity="0.4" stroke="#000000" stroke-opacity="0.4" stroke-width="3.2"/>
<circle clip-path="url(#clip612)" cx="1940.23" cy="735.212" r="14" fill="#00c5cd" fill-rule="evenodd" fill-opacity="0.4" stroke="#000000" stroke-opacity="0.4" stroke-width="3.2"/>
<circle clip-path="url(#clip612)" cx="1944.53" cy="759.526" r="14" fill="#00c5cd" fill-rule="evenodd" fill-opacity="0.4" stroke="#000000" stroke-opacity="0.4" stroke-width="3.2"/>
<circle clip-path="url(#clip612)" cx="1944.53" cy="710.898" r="14" fill="#00c5cd" fill-rule="evenodd" fill-opacity="0.4" stroke="#000000" stroke-opacity="0.4" stroke-width="3.2"/>
<circle clip-path="url(#clip612)" cx="1951" cy="804.766" r="14" fill="#00c5cd" fill-rule="evenodd" fill-opacity="0.4" stroke="#000000" stroke-opacity="0.4" stroke-width="3.2"/>
<circle clip-path="url(#clip612)" cx="1951" cy="665.658" r="14" fill="#00c5cd" fill-rule="evenodd" fill-opacity="0.4" stroke="#000000" stroke-opacity="0.4" stroke-width="3.2"/>
<circle clip-path="url(#clip612)" cx="1954.21" cy="767.39" r="14" fill="#00c5cd" fill-rule="evenodd" fill-opacity="0.4" stroke="#000000" stroke-opacity="0.4" stroke-width="3.2"/>
<circle clip-path="url(#clip612)" cx="1954.21" cy="703.034" r="14" fill="#00c5cd" fill-rule="evenodd" fill-opacity="0.4" stroke="#000000" stroke-opacity="0.4" stroke-width="3.2"/>
<circle clip-path="url(#clip612)" cx="1954.85" cy="774.59" r="14" fill="#00c5cd" fill-rule="evenodd" fill-opacity="0.4" stroke="#000000" stroke-opacity="0.4" stroke-width="3.2"/>
<circle clip-path="url(#clip612)" cx="1954.85" cy="695.834" r="14" fill="#00c5cd" fill-rule="evenodd" fill-opacity="0.4" stroke="#000000" stroke-opacity="0.4" stroke-width="3.2"/>
<circle clip-path="url(#clip612)" cx="1969.65" cy="780.529" r="14" fill="#00c5cd" fill-rule="evenodd" fill-opacity="0.4" stroke="#000000" stroke-opacity="0.4" stroke-width="3.2"/>
<circle clip-path="url(#clip612)" cx="1969.65" cy="689.895" r="14" fill="#00c5cd" fill-rule="evenodd" fill-opacity="0.4" stroke="#000000" stroke-opacity="0.4" stroke-width="3.2"/>
<circle clip-path="url(#clip612)" cx="1970.35" cy="751.058" r="14" fill="#00c5cd" fill-rule="evenodd" fill-opacity="0.4" stroke="#000000" stroke-opacity="0.4" stroke-width="3.2"/>
<circle clip-path="url(#clip612)" cx="1970.35" cy="719.366" r="14" fill="#00c5cd" fill-rule="evenodd" fill-opacity="0.4" stroke="#000000" stroke-opacity="0.4" stroke-width="3.2"/>
<circle clip-path="url(#clip612)" cx="1976.46" cy="738.07" r="14" fill="#00c5cd" fill-rule="evenodd" fill-opacity="0.4" stroke="#000000" stroke-opacity="0.4" stroke-width="3.2"/>
<circle clip-path="url(#clip612)" cx="1976.46" cy="732.354" r="14" fill="#00c5cd" fill-rule="evenodd" fill-opacity="0.4" stroke="#000000" stroke-opacity="0.4" stroke-width="3.2"/>
<circle clip-path="url(#clip612)" cx="1983.65" cy="769.486" r="14" fill="#00c5cd" fill-rule="evenodd" fill-opacity="0.4" stroke="#000000" stroke-opacity="0.4" stroke-width="3.2"/>
<circle clip-path="url(#clip612)" cx="1983.65" cy="700.938" r="14" fill="#00c5cd" fill-rule="evenodd" fill-opacity="0.4" stroke="#000000" stroke-opacity="0.4" stroke-width="3.2"/>
<circle clip-path="url(#clip612)" cx="1988.95" cy="756.013" r="14" fill="#00c5cd" fill-rule="evenodd" fill-opacity="0.4" stroke="#000000" stroke-opacity="0.4" stroke-width="3.2"/>
<circle clip-path="url(#clip612)" cx="1988.95" cy="714.411" r="14" fill="#00c5cd" fill-rule="evenodd" fill-opacity="0.4" stroke="#000000" stroke-opacity="0.4" stroke-width="3.2"/>
<circle clip-path="url(#clip612)" cx="1990.16" cy="735.212" r="14" fill="#00c5cd" fill-rule="evenodd" fill-opacity="0.4" stroke="#000000" stroke-opacity="0.4" stroke-width="3.2"/>
<circle clip-path="url(#clip612)" cx="1999.7" cy="766.508" r="14" fill="#00c5cd" fill-rule="evenodd" fill-opacity="0.4" stroke="#000000" stroke-opacity="0.4" stroke-width="3.2"/>
<circle clip-path="url(#clip612)" cx="1999.7" cy="703.916" r="14" fill="#00c5cd" fill-rule="evenodd" fill-opacity="0.4" stroke="#000000" stroke-opacity="0.4" stroke-width="3.2"/>
<circle clip-path="url(#clip612)" cx="2003.49" cy="783.313" r="14" fill="#00c5cd" fill-rule="evenodd" fill-opacity="0.4" stroke="#000000" stroke-opacity="0.4" stroke-width="3.2"/>
<circle clip-path="url(#clip612)" cx="2003.49" cy="687.111" r="14" fill="#00c5cd" fill-rule="evenodd" fill-opacity="0.4" stroke="#000000" stroke-opacity="0.4" stroke-width="3.2"/>
<circle clip-path="url(#clip612)" cx="2018.9" cy="779.848" r="14" fill="#00c5cd" fill-rule="evenodd" fill-opacity="0.4" stroke="#000000" stroke-opacity="0.4" stroke-width="3.2"/>
<circle clip-path="url(#clip612)" cx="2018.9" cy="690.576" r="14" fill="#00c5cd" fill-rule="evenodd" fill-opacity="0.4" stroke="#000000" stroke-opacity="0.4" stroke-width="3.2"/>
<circle clip-path="url(#clip612)" cx="2019.69" cy="745.072" r="14" fill="#00c5cd" fill-rule="evenodd" fill-opacity="0.4" stroke="#000000" stroke-opacity="0.4" stroke-width="3.2"/>
<circle clip-path="url(#clip612)" cx="2019.69" cy="725.352" r="14" fill="#00c5cd" fill-rule="evenodd" fill-opacity="0.4" stroke="#000000" stroke-opacity="0.4" stroke-width="3.2"/>
<circle clip-path="url(#clip612)" cx="2019.83" cy="735.212" r="14" fill="#00c5cd" fill-rule="evenodd" fill-opacity="0.4" stroke="#000000" stroke-opacity="0.4" stroke-width="3.2"/>
<circle clip-path="url(#clip612)" cx="2024.16" cy="792.879" r="14" fill="#00c5cd" fill-rule="evenodd" fill-opacity="0.4" stroke="#000000" stroke-opacity="0.4" stroke-width="3.2"/>
<circle clip-path="url(#clip612)" cx="2024.16" cy="677.545" r="14" fill="#00c5cd" fill-rule="evenodd" fill-opacity="0.4" stroke="#000000" stroke-opacity="0.4" stroke-width="3.2"/>
<circle clip-path="url(#clip612)" cx="2029.01" cy="773.459" r="14" fill="#00c5cd" fill-rule="evenodd" fill-opacity="0.4" stroke="#000000" stroke-opacity="0.4" stroke-width="3.2"/>
<circle clip-path="url(#clip612)" cx="2029.01" cy="696.965" r="14" fill="#00c5cd" fill-rule="evenodd" fill-opacity="0.4" stroke="#000000" stroke-opacity="0.4" stroke-width="3.2"/>
<circle clip-path="url(#clip612)" cx="2030.68" cy="754.103" r="14" fill="#00c5cd" fill-rule="evenodd" fill-opacity="0.4" stroke="#000000" stroke-opacity="0.4" stroke-width="3.2"/>
<circle clip-path="url(#clip612)" cx="2030.68" cy="716.321" r="14" fill="#00c5cd" fill-rule="evenodd" fill-opacity="0.4" stroke="#000000" stroke-opacity="0.4" stroke-width="3.2"/>
<circle clip-path="url(#clip612)" cx="2050.76" cy="770.316" r="14" fill="#00c5cd" fill-rule="evenodd" fill-opacity="0.4" stroke="#000000" stroke-opacity="0.4" stroke-width="3.2"/>
<circle clip-path="url(#clip612)" cx="2050.76" cy="700.108" r="14" fill="#00c5cd" fill-rule="evenodd" fill-opacity="0.4" stroke="#000000" stroke-opacity="0.4" stroke-width="3.2"/>
<circle clip-path="url(#clip612)" cx="2050.91" cy="735.212" r="14" fill="#00c5cd" fill-rule="evenodd" fill-opacity="0.4" stroke="#000000" stroke-opacity="0.4" stroke-width="3.2"/>
<circle clip-path="url(#clip612)" cx="2055.03" cy="792.993" r="14" fill="#00c5cd" fill-rule="evenodd" fill-opacity="0.4" stroke="#000000" stroke-opacity="0.4" stroke-width="3.2"/>
<circle clip-path="url(#clip612)" cx="2055.03" cy="677.431" r="14" fill="#00c5cd" fill-rule="evenodd" fill-opacity="0.4" stroke="#000000" stroke-opacity="0.4" stroke-width="3.2"/>
<circle clip-path="url(#clip612)" cx="2055.09" cy="774.166" r="14" fill="#00c5cd" fill-rule="evenodd" fill-opacity="0.4" stroke="#000000" stroke-opacity="0.4" stroke-width="3.2"/>
<circle clip-path="url(#clip612)" cx="2055.09" cy="696.258" r="14" fill="#00c5cd" fill-rule="evenodd" fill-opacity="0.4" stroke="#000000" stroke-opacity="0.4" stroke-width="3.2"/>
<circle clip-path="url(#clip612)" cx="2059.59" cy="762.753" r="14" fill="#00c5cd" fill-rule="evenodd" fill-opacity="0.4" stroke="#000000" stroke-opacity="0.4" stroke-width="3.2"/>
<circle clip-path="url(#clip612)" cx="2059.59" cy="707.671" r="14" fill="#00c5cd" fill-rule="evenodd" fill-opacity="0.4" stroke="#000000" stroke-opacity="0.4" stroke-width="3.2"/>
<circle clip-path="url(#clip612)" cx="2063.52" cy="735.212" r="14" fill="#00c5cd" fill-rule="evenodd" fill-opacity="0.4" stroke="#000000" stroke-opacity="0.4" stroke-width="3.2"/>
<circle clip-path="url(#clip612)" cx="2065.71" cy="785.988" r="14" fill="#00c5cd" fill-rule="evenodd" fill-opacity="0.4" stroke="#000000" stroke-opacity="0.4" stroke-width="3.2"/>
<circle clip-path="url(#clip612)" cx="2065.71" cy="684.436" r="14" fill="#00c5cd" fill-rule="evenodd" fill-opacity="0.4" stroke="#000000" stroke-opacity="0.4" stroke-width="3.2"/>
<circle clip-path="url(#clip612)" cx="2073.48" cy="749.729" r="14" fill="#00c5cd" fill-rule="evenodd" fill-opacity="0.4" stroke="#000000" stroke-opacity="0.4" stroke-width="3.2"/>
<circle clip-path="url(#clip612)" cx="2073.48" cy="720.695" r="14" fill="#00c5cd" fill-rule="evenodd" fill-opacity="0.4" stroke="#000000" stroke-opacity="0.4" stroke-width="3.2"/>
<circle clip-path="url(#clip612)" cx="2073.49" cy="768.062" r="14" fill="#00c5cd" fill-rule="evenodd" fill-opacity="0.4" stroke="#000000" stroke-opacity="0.4" stroke-width="3.2"/>
<circle clip-path="url(#clip612)" cx="2073.49" cy="702.362" r="14" fill="#00c5cd" fill-rule="evenodd" fill-opacity="0.4" stroke="#000000" stroke-opacity="0.4" stroke-width="3.2"/>
<circle clip-path="url(#clip612)" cx="2081.3" cy="735.212" r="14" fill="#00c5cd" fill-rule="evenodd" fill-opacity="0.4" stroke="#000000" stroke-opacity="0.4" stroke-width="3.2"/>
<circle clip-path="url(#clip612)" cx="2085.61" cy="771.781" r="14" fill="#00c5cd" fill-rule="evenodd" fill-opacity="0.4" stroke="#000000" stroke-opacity="0.4" stroke-width="3.2"/>
<circle clip-path="url(#clip612)" cx="2085.61" cy="698.643" r="14" fill="#00c5cd" fill-rule="evenodd" fill-opacity="0.4" stroke="#000000" stroke-opacity="0.4" stroke-width="3.2"/>
<circle clip-path="url(#clip612)" cx="2098.51" cy="735.212" r="14" fill="#00c5cd" fill-rule="evenodd" fill-opacity="0.4" stroke="#000000" stroke-opacity="0.4" stroke-width="3.2"/>
<circle clip-path="url(#clip612)" cx="2098.88" cy="761.54" r="14" fill="#00c5cd" fill-rule="evenodd" fill-opacity="0.4" stroke="#000000" stroke-opacity="0.4" stroke-width="3.2"/>
<circle clip-path="url(#clip612)" cx="2098.88" cy="708.884" r="14" fill="#00c5cd" fill-rule="evenodd" fill-opacity="0.4" stroke="#000000" stroke-opacity="0.4" stroke-width="3.2"/>
<circle clip-path="url(#clip612)" cx="2104.31" cy="735.212" r="14" fill="#00c5cd" fill-rule="evenodd" fill-opacity="0.4" stroke="#000000" stroke-opacity="0.4" stroke-width="3.2"/>
<circle clip-path="url(#clip612)" cx="2107.04" cy="788.782" r="14" fill="#00c5cd" fill-rule="evenodd" fill-opacity="0.4" stroke="#000000" stroke-opacity="0.4" stroke-width="3.2"/>
<circle clip-path="url(#clip612)" cx="2107.04" cy="681.642" r="14" fill="#00c5cd" fill-rule="evenodd" fill-opacity="0.4" stroke="#000000" stroke-opacity="0.4" stroke-width="3.2"/>
<circle clip-path="url(#clip612)" cx="2111.87" cy="771.994" r="14" fill="#00c5cd" fill-rule="evenodd" fill-opacity="0.4" stroke="#000000" stroke-opacity="0.4" stroke-width="3.2"/>
<circle clip-path="url(#clip612)" cx="2111.87" cy="698.429" r="14" fill="#00c5cd" fill-rule="evenodd" fill-opacity="0.4" stroke="#000000" stroke-opacity="0.4" stroke-width="3.2"/>
<circle clip-path="url(#clip612)" cx="2118.29" cy="750.257" r="14" fill="#00c5cd" fill-rule="evenodd" fill-opacity="0.4" stroke="#000000" stroke-opacity="0.4" stroke-width="3.2"/>
<circle clip-path="url(#clip612)" cx="2118.29" cy="720.167" r="14" fill="#00c5cd" fill-rule="evenodd" fill-opacity="0.4" stroke="#000000" stroke-opacity="0.4" stroke-width="3.2"/>
<circle clip-path="url(#clip612)" cx="2128.02" cy="770.268" r="14" fill="#00c5cd" fill-rule="evenodd" fill-opacity="0.4" stroke="#000000" stroke-opacity="0.4" stroke-width="3.2"/>
<circle clip-path="url(#clip612)" cx="2128.02" cy="700.156" r="14" fill="#00c5cd" fill-rule="evenodd" fill-opacity="0.4" stroke="#000000" stroke-opacity="0.4" stroke-width="3.2"/>
<circle clip-path="url(#clip612)" cx="2137.75" cy="740.521" r="14" fill="#00c5cd" fill-rule="evenodd" fill-opacity="0.4" stroke="#000000" stroke-opacity="0.4" stroke-width="3.2"/>
<circle clip-path="url(#clip612)" cx="2137.75" cy="729.903" r="14" fill="#00c5cd" fill-rule="evenodd" fill-opacity="0.4" stroke="#000000" stroke-opacity="0.4" stroke-width="3.2"/>
<circle clip-path="url(#clip612)" cx="2141.16" cy="760.048" r="14" fill="#00c5cd" fill-rule="evenodd" fill-opacity="0.4" stroke="#000000" stroke-opacity="0.4" stroke-width="3.2"/>
<circle clip-path="url(#clip612)" cx="2141.16" cy="710.376" r="14" fill="#00c5cd" fill-rule="evenodd" fill-opacity="0.4" stroke="#000000" stroke-opacity="0.4" stroke-width="3.2"/>
<circle clip-path="url(#clip612)" cx="2142.52" cy="767.581" r="14" fill="#00c5cd" fill-rule="evenodd" fill-opacity="0.4" stroke="#000000" stroke-opacity="0.4" stroke-width="3.2"/>
<circle clip-path="url(#clip612)" cx="2142.52" cy="702.843" r="14" fill="#00c5cd" fill-rule="evenodd" fill-opacity="0.4" stroke="#000000" stroke-opacity="0.4" stroke-width="3.2"/>
<circle clip-path="url(#clip612)" cx="2142.98" cy="777.567" r="14" fill="#00c5cd" fill-rule="evenodd" fill-opacity="0.4" stroke="#000000" stroke-opacity="0.4" stroke-width="3.2"/>
<circle clip-path="url(#clip612)" cx="2142.98" cy="692.857" r="14" fill="#00c5cd" fill-rule="evenodd" fill-opacity="0.4" stroke="#000000" stroke-opacity="0.4" stroke-width="3.2"/>
<circle clip-path="url(#clip612)" cx="2146.8" cy="735.212" r="14" fill="#00c5cd" fill-rule="evenodd" fill-opacity="0.4" stroke="#000000" stroke-opacity="0.4" stroke-width="3.2"/>
<circle clip-path="url(#clip612)" cx="2154.73" cy="735.212" r="14" fill="#00c5cd" fill-rule="evenodd" fill-opacity="0.4" stroke="#000000" stroke-opacity="0.4" stroke-width="3.2"/>
<circle clip-path="url(#clip612)" cx="2169.83" cy="762.762" r="14" fill="#00c5cd" fill-rule="evenodd" fill-opacity="0.4" stroke="#000000" stroke-opacity="0.4" stroke-width="3.2"/>
<circle clip-path="url(#clip612)" cx="2169.83" cy="707.662" r="14" fill="#00c5cd" fill-rule="evenodd" fill-opacity="0.4" stroke="#000000" stroke-opacity="0.4" stroke-width="3.2"/>
<circle clip-path="url(#clip612)" cx="2173.61" cy="748.573" r="14" fill="#00c5cd" fill-rule="evenodd" fill-opacity="0.4" stroke="#000000" stroke-opacity="0.4" stroke-width="3.2"/>
<circle clip-path="url(#clip612)" cx="2173.61" cy="721.851" r="14" fill="#00c5cd" fill-rule="evenodd" fill-opacity="0.4" stroke="#000000" stroke-opacity="0.4" stroke-width="3.2"/>
<circle clip-path="url(#clip612)" cx="2188.23" cy="735.212" r="14" fill="#00c5cd" fill-rule="evenodd" fill-opacity="0.4" stroke="#000000" stroke-opacity="0.4" stroke-width="3.2"/>
<circle clip-path="url(#clip612)" cx="2206.29" cy="752.989" r="14" fill="#00c5cd" fill-rule="evenodd" fill-opacity="0.4" stroke="#000000" stroke-opacity="0.4" stroke-width="3.2"/>
<circle clip-path="url(#clip612)" cx="2206.29" cy="717.434" r="14" fill="#00c5cd" fill-rule="evenodd" fill-opacity="0.4" stroke="#000000" stroke-opacity="0.4" stroke-width="3.2"/>
<circle clip-path="url(#clip612)" cx="2219.01" cy="735.212" r="14" fill="#00c5cd" fill-rule="evenodd" fill-opacity="0.4" stroke="#000000" stroke-opacity="0.4" stroke-width="3.2"/>
<circle clip-path="url(#clip612)" cx="2230.59" cy="735.212" r="14" fill="#00c5cd" fill-rule="evenodd" fill-opacity="0.4" stroke="#000000" stroke-opacity="0.4" stroke-width="3.2"/>
<circle clip-path="url(#clip612)" cx="2232.62" cy="735.212" r="14" fill="#00c5cd" fill-rule="evenodd" fill-opacity="0.4" stroke="#000000" stroke-opacity="0.4" stroke-width="3.2"/>
<circle clip-path="url(#clip612)" cx="2253.85" cy="735.212" r="14" fill="#00c5cd" fill-rule="evenodd" fill-opacity="0.4" stroke="#000000" stroke-opacity="0.4" stroke-width="3.2"/>
<circle clip-path="url(#clip612)" cx="2261.33" cy="735.212" r="14" fill="#00c5cd" fill-rule="evenodd" fill-opacity="0.4" stroke="#000000" stroke-opacity="0.4" stroke-width="3.2"/>
<circle clip-path="url(#clip612)" cx="2286.23" cy="735.212" r="14" fill="#00c5cd" fill-rule="evenodd" fill-opacity="0.4" stroke="#000000" stroke-opacity="0.4" stroke-width="3.2"/>
<polyline clip-path="url(#clip612)" style="stroke:#000003; stroke-linecap:butt; stroke-linejoin:round; stroke-width:8; stroke-opacity:1; fill:none" points="
  1902.21,773.08 1902.97,773.533 1904.92,774.626 1907.77,776.171 1910.18,777.424 1910.78,777.717 1913.94,779.263 1917.28,780.808 1917.38,780.856 1920.86,782.354 
  1924.58,783.877 1924.64,783.9 1928.8,785.445 1931.78,786.522 1933.26,786.991 1938.16,788.537 1938.98,788.799 1943.69,790.082 1946.19,790.765 1949.93,791.628 
  1953.39,792.438 1957.17,793.173 1960.59,793.855 1965.85,794.719 1967.79,795.049 1974.99,796.063 1976.71,796.265 1982.2,796.937 1989.4,797.684 1990.82,797.81 
  1996.6,798.35 2003.8,798.928 2010.09,799.356 2011,799.42 2018.21,799.839 2025.41,800.152 2032.61,800.344 2039.81,800.402 2047.02,800.312 2054.22,800.062 
  2061.42,799.649 2065.11,799.356 2068.62,799.087 2075.82,798.389 2080.78,797.81 2083.03,797.556 2090.23,796.603 2092.43,796.265 2097.43,795.518 2102.02,794.719 
  2104.63,794.275 2110.2,793.173 2111.83,792.856 2117.27,791.628 2119.04,791.236 2123.53,790.082 2126.24,789.388 2129.15,788.537 2133.44,787.276 2134.3,786.991 
  2138.97,785.445 2140.64,784.887 2143.31,783.9 2147.36,782.354 2147.84,782.168 2151.13,780.808 2154.68,779.263 2155.05,779.102 2158.06,777.717 2161.22,776.171 
  2162.25,775.66 2164.3,774.626 2167.23,773.08 2169.45,771.833 2170,771.535 2172.84,769.989 2175.48,768.443 2176.65,767.733 2178.19,766.898 2180.94,765.352 
  2183.49,763.806 2183.85,763.58 2186.58,762.261 2189.65,760.715 2191.06,759.992 2193.82,759.169 2198.26,757.977 2203.5,757.624 2205.46,757.522 2209.87,757.624 
  2212.66,757.685 2219.86,757.668 2220.23,757.624 2227.07,756.937 2230.66,756.078 2234.27,755.214 2236.35,754.532 2240.78,752.987 2241.47,752.738 2245.26,751.441 
  2248.67,750.25 2249.77,749.896 2254.68,748.35 2255.87,747.971 2263.08,746.968 2263.54,746.804 2267.82,745.259 2270.28,743.953 2270.85,743.713 2274.08,742.167 
  2276.07,740.622 2277.15,739.076 2277.48,738.167 2277.63,739.076 2278.33,740.622 2280.17,742.167 2284.68,743.69 2291.88,743.694 2295.05,742.167 2297.03,740.622 
  2298.13,739.076 2298.65,737.53 2298.84,735.985 2298.84,734.439 2298.65,732.894 2298.13,731.348 2297.03,729.802 2295.05,728.257 2291.88,726.729 2284.68,726.734 
  2280.17,728.257 2278.33,729.802 2277.63,731.348 2277.48,732.257 2277.15,731.348 2276.07,729.802 2274.08,728.257 2270.85,726.711 2270.28,726.471 2267.82,725.165 
  2263.54,723.62 2263.08,723.456 2255.87,722.453 2254.68,722.074 2249.77,720.528 2248.67,720.174 2245.26,718.983 2241.47,717.686 2240.78,717.437 2236.35,715.891 
  2234.27,715.21 2230.66,714.346 2227.07,713.487 2220.23,712.8 2219.86,712.756 2212.66,712.739 2209.87,712.8 2205.46,712.902 2203.5,712.8 2198.26,712.447 
  2193.82,711.255 2191.06,710.432 2189.65,709.709 2186.58,708.163 2183.85,706.843 2183.49,706.618 2180.94,705.072 2178.19,703.526 2176.65,702.691 2175.48,701.981 
  2172.84,700.435 2170,698.889 2169.45,698.591 2167.23,697.344 2164.3,695.798 2162.25,694.764 2161.22,694.253 2158.06,692.707 2155.05,691.322 2154.68,691.161 
  2151.13,689.616 2147.84,688.255 2147.36,688.07 2143.31,686.524 2140.64,685.537 2138.97,684.979 2134.3,683.433 2133.44,683.148 2129.15,681.887 2126.24,681.036 
  2123.53,680.342 2119.04,679.188 2117.27,678.796 2111.83,677.568 2110.2,677.25 2104.63,676.149 2102.02,675.705 2097.43,674.906 2092.43,674.159 2090.23,673.821 
  2083.03,672.867 2080.78,672.614 2075.82,672.035 2068.62,671.337 2065.11,671.068 2061.42,670.775 2054.22,670.362 2047.02,670.112 2039.81,670.022 2032.61,670.08 
  2025.41,670.272 2018.21,670.585 2011,671.004 2010.09,671.068 2003.8,671.496 1996.6,672.074 1990.82,672.614 1989.4,672.74 1982.2,673.487 1976.71,674.159 
  1974.99,674.361 1967.79,675.375 1965.85,675.705 1960.59,676.569 1957.17,677.25 1953.39,677.986 1949.93,678.796 1946.19,679.659 1943.69,680.342 1938.98,681.625 
  1938.16,681.887 1933.26,683.433 1931.78,683.902 1928.8,684.979 1924.64,686.524 1924.58,686.547 1920.86,688.07 1917.38,689.568 1917.28,689.616 1913.94,691.161 
  1910.78,692.707 1910.18,693 1907.77,694.253 1904.92,695.798 1902.97,696.891 1902.21,697.344 1899.62,698.889 1897.18,700.435 1895.77,701.353 1894.86,701.981 
  1892.65,703.526 1890.6,705.072 1888.72,706.618 1888.57,706.744 1886.86,708.163 1885.15,709.709 1883.62,711.255 1882.27,712.8 1881.37,713.949 1881.01,714.346 
  1879.67,715.891 1878.49,717.437 1877.45,718.983 1876.57,720.528 1875.82,722.074 1875.21,723.62 1874.72,725.165 1874.34,726.711 1874.17,727.617 1873.94,728.257 
  1873.51,729.802 1873.19,731.348 1872.97,732.894 1872.87,734.439 1872.87,735.985 1872.97,737.53 1873.19,739.076 1873.51,740.622 1873.94,742.167 1874.17,742.807 
  1874.34,743.713 1874.72,745.259 1875.21,746.804 1875.82,748.35 1876.57,749.896 1877.45,751.441 1878.49,752.987 1879.67,754.532 1881.01,756.078 1881.37,756.475 
  1882.27,757.624 1883.62,759.169 1885.15,760.715 1886.86,762.261 1888.57,763.68 1888.72,763.806 1890.6,765.352 1892.65,766.898 1894.86,768.443 1895.77,769.071 
  1897.18,769.989 1899.62,771.535 1902.21,773.08 
  "/>
<circle clip-path="url(#clip612)" cx="1343.15" cy="735.212" r="14" fill="#00c5cd" fill-rule="evenodd" fill-opacity="0.4" stroke="#000000" stroke-opacity="0.4" stroke-width="3.2"/>
<circle clip-path="url(#clip612)" cx="1397.06" cy="735.212" r="14" fill="#00c5cd" fill-rule="evenodd" fill-opacity="0.4" stroke="#000000" stroke-opacity="0.4" stroke-width="3.2"/>
<circle clip-path="url(#clip612)" cx="1421.55" cy="758.91" r="14" fill="#00c5cd" fill-rule="evenodd" fill-opacity="0.4" stroke="#000000" stroke-opacity="0.4" stroke-width="3.2"/>
<circle clip-path="url(#clip612)" cx="1421.55" cy="711.514" r="14" fill="#00c5cd" fill-rule="evenodd" fill-opacity="0.4" stroke="#000000" stroke-opacity="0.4" stroke-width="3.2"/>
<circle clip-path="url(#clip612)" cx="1429.16" cy="770.556" r="14" fill="#00c5cd" fill-rule="evenodd" fill-opacity="0.4" stroke="#000000" stroke-opacity="0.4" stroke-width="3.2"/>
<circle clip-path="url(#clip612)" cx="1429.16" cy="699.868" r="14" fill="#00c5cd" fill-rule="evenodd" fill-opacity="0.4" stroke="#000000" stroke-opacity="0.4" stroke-width="3.2"/>
<circle clip-path="url(#clip612)" cx="1431.08" cy="740.399" r="14" fill="#00c5cd" fill-rule="evenodd" fill-opacity="0.4" stroke="#000000" stroke-opacity="0.4" stroke-width="3.2"/>
<circle clip-path="url(#clip612)" cx="1431.08" cy="730.025" r="14" fill="#00c5cd" fill-rule="evenodd" fill-opacity="0.4" stroke="#000000" stroke-opacity="0.4" stroke-width="3.2"/>
<circle clip-path="url(#clip612)" cx="1446.8" cy="785.287" r="14" fill="#00c5cd" fill-rule="evenodd" fill-opacity="0.4" stroke="#000000" stroke-opacity="0.4" stroke-width="3.2"/>
<circle clip-path="url(#clip612)" cx="1446.8" cy="685.137" r="14" fill="#00c5cd" fill-rule="evenodd" fill-opacity="0.4" stroke="#000000" stroke-opacity="0.4" stroke-width="3.2"/>
<circle clip-path="url(#clip612)" cx="1456.04" cy="735.212" r="14" fill="#00c5cd" fill-rule="evenodd" fill-opacity="0.4" stroke="#000000" stroke-opacity="0.4" stroke-width="3.2"/>
<circle clip-path="url(#clip612)" cx="1465.2" cy="756.145" r="14" fill="#00c5cd" fill-rule="evenodd" fill-opacity="0.4" stroke="#000000" stroke-opacity="0.4" stroke-width="3.2"/>
<circle clip-path="url(#clip612)" cx="1465.2" cy="714.279" r="14" fill="#00c5cd" fill-rule="evenodd" fill-opacity="0.4" stroke="#000000" stroke-opacity="0.4" stroke-width="3.2"/>
<circle clip-path="url(#clip612)" cx="1484.08" cy="743.533" r="14" fill="#00c5cd" fill-rule="evenodd" fill-opacity="0.4" stroke="#000000" stroke-opacity="0.4" stroke-width="3.2"/>
<circle clip-path="url(#clip612)" cx="1484.08" cy="726.891" r="14" fill="#00c5cd" fill-rule="evenodd" fill-opacity="0.4" stroke="#000000" stroke-opacity="0.4" stroke-width="3.2"/>
<circle clip-path="url(#clip612)" cx="1486.72" cy="774.045" r="14" fill="#00c5cd" fill-rule="evenodd" fill-opacity="0.4" stroke="#000000" stroke-opacity="0.4" stroke-width="3.2"/>
<circle clip-path="url(#clip612)" cx="1486.72" cy="696.379" r="14" fill="#00c5cd" fill-rule="evenodd" fill-opacity="0.4" stroke="#000000" stroke-opacity="0.4" stroke-width="3.2"/>
<circle clip-path="url(#clip612)" cx="1513.14" cy="770.815" r="14" fill="#00c5cd" fill-rule="evenodd" fill-opacity="0.4" stroke="#000000" stroke-opacity="0.4" stroke-width="3.2"/>
<circle clip-path="url(#clip612)" cx="1513.14" cy="699.609" r="14" fill="#00c5cd" fill-rule="evenodd" fill-opacity="0.4" stroke="#000000" stroke-opacity="0.4" stroke-width="3.2"/>
<circle clip-path="url(#clip612)" cx="1520.54" cy="764.356" r="14" fill="#00c5cd" fill-rule="evenodd" fill-opacity="0.4" stroke="#000000" stroke-opacity="0.4" stroke-width="3.2"/>
<circle clip-path="url(#clip612)" cx="1520.54" cy="706.068" r="14" fill="#00c5cd" fill-rule="evenodd" fill-opacity="0.4" stroke="#000000" stroke-opacity="0.4" stroke-width="3.2"/>
<circle clip-path="url(#clip612)" cx="1527.7" cy="739.024" r="14" fill="#00c5cd" fill-rule="evenodd" fill-opacity="0.4" stroke="#000000" stroke-opacity="0.4" stroke-width="3.2"/>
<circle clip-path="url(#clip612)" cx="1527.7" cy="731.4" r="14" fill="#00c5cd" fill-rule="evenodd" fill-opacity="0.4" stroke="#000000" stroke-opacity="0.4" stroke-width="3.2"/>
<circle clip-path="url(#clip612)" cx="1534.57" cy="789.181" r="14" fill="#00c5cd" fill-rule="evenodd" fill-opacity="0.4" stroke="#000000" stroke-opacity="0.4" stroke-width="3.2"/>
<circle clip-path="url(#clip612)" cx="1534.57" cy="681.243" r="14" fill="#00c5cd" fill-rule="evenodd" fill-opacity="0.4" stroke="#000000" stroke-opacity="0.4" stroke-width="3.2"/>
<circle clip-path="url(#clip612)" cx="1535.92" cy="735.212" r="14" fill="#00c5cd" fill-rule="evenodd" fill-opacity="0.4" stroke="#000000" stroke-opacity="0.4" stroke-width="3.2"/>
<circle clip-path="url(#clip612)" cx="1543.79" cy="735.212" r="14" fill="#00c5cd" fill-rule="evenodd" fill-opacity="0.4" stroke="#000000" stroke-opacity="0.4" stroke-width="3.2"/>
<circle clip-path="url(#clip612)" cx="1547.96" cy="791.828" r="14" fill="#00c5cd" fill-rule="evenodd" fill-opacity="0.4" stroke="#000000" stroke-opacity="0.4" stroke-width="3.2"/>
<circle clip-path="url(#clip612)" cx="1547.96" cy="678.596" r="14" fill="#00c5cd" fill-rule="evenodd" fill-opacity="0.4" stroke="#000000" stroke-opacity="0.4" stroke-width="3.2"/>
<circle clip-path="url(#clip612)" cx="1552.79" cy="769.25" r="14" fill="#00c5cd" fill-rule="evenodd" fill-opacity="0.4" stroke="#000000" stroke-opacity="0.4" stroke-width="3.2"/>
<circle clip-path="url(#clip612)" cx="1552.79" cy="701.174" r="14" fill="#00c5cd" fill-rule="evenodd" fill-opacity="0.4" stroke="#000000" stroke-opacity="0.4" stroke-width="3.2"/>
<circle clip-path="url(#clip612)" cx="1552.9" cy="810.924" r="14" fill="#00c5cd" fill-rule="evenodd" fill-opacity="0.4" stroke="#000000" stroke-opacity="0.4" stroke-width="3.2"/>
<circle clip-path="url(#clip612)" cx="1552.9" cy="659.5" r="14" fill="#00c5cd" fill-rule="evenodd" fill-opacity="0.4" stroke="#000000" stroke-opacity="0.4" stroke-width="3.2"/>
<circle clip-path="url(#clip612)" cx="1569.27" cy="735.212" r="14" fill="#00c5cd" fill-rule="evenodd" fill-opacity="0.4" stroke="#000000" stroke-opacity="0.4" stroke-width="3.2"/>
<circle clip-path="url(#clip612)" cx="1580.04" cy="763.945" r="14" fill="#00c5cd" fill-rule="evenodd" fill-opacity="0.4" stroke="#000000" stroke-opacity="0.4" stroke-width="3.2"/>
<circle clip-path="url(#clip612)" cx="1580.04" cy="706.479" r="14" fill="#00c5cd" fill-rule="evenodd" fill-opacity="0.4" stroke="#000000" stroke-opacity="0.4" stroke-width="3.2"/>
<circle clip-path="url(#clip612)" cx="1580.97" cy="782.581" r="14" fill="#00c5cd" fill-rule="evenodd" fill-opacity="0.4" stroke="#000000" stroke-opacity="0.4" stroke-width="3.2"/>
<circle clip-path="url(#clip612)" cx="1580.97" cy="687.843" r="14" fill="#00c5cd" fill-rule="evenodd" fill-opacity="0.4" stroke="#000000" stroke-opacity="0.4" stroke-width="3.2"/>
<circle clip-path="url(#clip612)" cx="1593.51" cy="762.567" r="14" fill="#00c5cd" fill-rule="evenodd" fill-opacity="0.4" stroke="#000000" stroke-opacity="0.4" stroke-width="3.2"/>
<circle clip-path="url(#clip612)" cx="1593.51" cy="707.857" r="14" fill="#00c5cd" fill-rule="evenodd" fill-opacity="0.4" stroke="#000000" stroke-opacity="0.4" stroke-width="3.2"/>
<circle clip-path="url(#clip612)" cx="1599.14" cy="817.346" r="14" fill="#00c5cd" fill-rule="evenodd" fill-opacity="0.4" stroke="#000000" stroke-opacity="0.4" stroke-width="3.2"/>
<circle clip-path="url(#clip612)" cx="1599.14" cy="653.078" r="14" fill="#00c5cd" fill-rule="evenodd" fill-opacity="0.4" stroke="#000000" stroke-opacity="0.4" stroke-width="3.2"/>
<circle clip-path="url(#clip612)" cx="1600.16" cy="746.462" r="14" fill="#00c5cd" fill-rule="evenodd" fill-opacity="0.4" stroke="#000000" stroke-opacity="0.4" stroke-width="3.2"/>
<circle clip-path="url(#clip612)" cx="1600.16" cy="723.962" r="14" fill="#00c5cd" fill-rule="evenodd" fill-opacity="0.4" stroke="#000000" stroke-opacity="0.4" stroke-width="3.2"/>
<circle clip-path="url(#clip612)" cx="1604.06" cy="774.344" r="14" fill="#00c5cd" fill-rule="evenodd" fill-opacity="0.4" stroke="#000000" stroke-opacity="0.4" stroke-width="3.2"/>
<circle clip-path="url(#clip612)" cx="1604.06" cy="696.08" r="14" fill="#00c5cd" fill-rule="evenodd" fill-opacity="0.4" stroke="#000000" stroke-opacity="0.4" stroke-width="3.2"/>
<circle clip-path="url(#clip612)" cx="1618.97" cy="789.178" r="14" fill="#00c5cd" fill-rule="evenodd" fill-opacity="0.4" stroke="#000000" stroke-opacity="0.4" stroke-width="3.2"/>
<circle clip-path="url(#clip612)" cx="1618.97" cy="681.246" r="14" fill="#00c5cd" fill-rule="evenodd" fill-opacity="0.4" stroke="#000000" stroke-opacity="0.4" stroke-width="3.2"/>
<circle clip-path="url(#clip612)" cx="1639.46" cy="760.346" r="14" fill="#00c5cd" fill-rule="evenodd" fill-opacity="0.4" stroke="#000000" stroke-opacity="0.4" stroke-width="3.2"/>
<circle clip-path="url(#clip612)" cx="1639.46" cy="710.077" r="14" fill="#00c5cd" fill-rule="evenodd" fill-opacity="0.4" stroke="#000000" stroke-opacity="0.4" stroke-width="3.2"/>
<circle clip-path="url(#clip612)" cx="1640.24" cy="735.212" r="14" fill="#00c5cd" fill-rule="evenodd" fill-opacity="0.4" stroke="#000000" stroke-opacity="0.4" stroke-width="3.2"/>
<circle clip-path="url(#clip612)" cx="1645.78" cy="775.127" r="14" fill="#00c5cd" fill-rule="evenodd" fill-opacity="0.4" stroke="#000000" stroke-opacity="0.4" stroke-width="3.2"/>
<circle clip-path="url(#clip612)" cx="1645.78" cy="695.297" r="14" fill="#00c5cd" fill-rule="evenodd" fill-opacity="0.4" stroke="#000000" stroke-opacity="0.4" stroke-width="3.2"/>
<circle clip-path="url(#clip612)" cx="1646.29" cy="735.212" r="14" fill="#00c5cd" fill-rule="evenodd" fill-opacity="0.4" stroke="#000000" stroke-opacity="0.4" stroke-width="3.2"/>
<circle clip-path="url(#clip612)" cx="1657.56" cy="747.086" r="14" fill="#00c5cd" fill-rule="evenodd" fill-opacity="0.4" stroke="#000000" stroke-opacity="0.4" stroke-width="3.2"/>
<circle clip-path="url(#clip612)" cx="1657.56" cy="723.338" r="14" fill="#00c5cd" fill-rule="evenodd" fill-opacity="0.4" stroke="#000000" stroke-opacity="0.4" stroke-width="3.2"/>
<circle clip-path="url(#clip612)" cx="1659.67" cy="778.844" r="14" fill="#00c5cd" fill-rule="evenodd" fill-opacity="0.4" stroke="#000000" stroke-opacity="0.4" stroke-width="3.2"/>
<circle clip-path="url(#clip612)" cx="1659.67" cy="691.579" r="14" fill="#00c5cd" fill-rule="evenodd" fill-opacity="0.4" stroke="#000000" stroke-opacity="0.4" stroke-width="3.2"/>
<circle clip-path="url(#clip612)" cx="1666.41" cy="763.121" r="14" fill="#00c5cd" fill-rule="evenodd" fill-opacity="0.4" stroke="#000000" stroke-opacity="0.4" stroke-width="3.2"/>
<circle clip-path="url(#clip612)" cx="1666.41" cy="707.303" r="14" fill="#00c5cd" fill-rule="evenodd" fill-opacity="0.4" stroke="#000000" stroke-opacity="0.4" stroke-width="3.2"/>
<circle clip-path="url(#clip612)" cx="1694.99" cy="772.574" r="14" fill="#00c5cd" fill-rule="evenodd" fill-opacity="0.4" stroke="#000000" stroke-opacity="0.4" stroke-width="3.2"/>
<circle clip-path="url(#clip612)" cx="1694.99" cy="697.85" r="14" fill="#00c5cd" fill-rule="evenodd" fill-opacity="0.4" stroke="#000000" stroke-opacity="0.4" stroke-width="3.2"/>
<circle clip-path="url(#clip612)" cx="1697.63" cy="755.217" r="14" fill="#00c5cd" fill-rule="evenodd" fill-opacity="0.4" stroke="#000000" stroke-opacity="0.4" stroke-width="3.2"/>
<circle clip-path="url(#clip612)" cx="1697.63" cy="715.207" r="14" fill="#00c5cd" fill-rule="evenodd" fill-opacity="0.4" stroke="#000000" stroke-opacity="0.4" stroke-width="3.2"/>
<circle clip-path="url(#clip612)" cx="1711.45" cy="735.212" r="14" fill="#00c5cd" fill-rule="evenodd" fill-opacity="0.4" stroke="#000000" stroke-opacity="0.4" stroke-width="3.2"/>
<circle clip-path="url(#clip612)" cx="1714.28" cy="777.694" r="14" fill="#00c5cd" fill-rule="evenodd" fill-opacity="0.4" stroke="#000000" stroke-opacity="0.4" stroke-width="3.2"/>
<circle clip-path="url(#clip612)" cx="1714.28" cy="692.73" r="14" fill="#00c5cd" fill-rule="evenodd" fill-opacity="0.4" stroke="#000000" stroke-opacity="0.4" stroke-width="3.2"/>
<circle clip-path="url(#clip612)" cx="1716.94" cy="745.471" r="14" fill="#00c5cd" fill-rule="evenodd" fill-opacity="0.4" stroke="#000000" stroke-opacity="0.4" stroke-width="3.2"/>
<circle clip-path="url(#clip612)" cx="1716.94" cy="724.953" r="14" fill="#00c5cd" fill-rule="evenodd" fill-opacity="0.4" stroke="#000000" stroke-opacity="0.4" stroke-width="3.2"/>
<circle clip-path="url(#clip612)" cx="1723.26" cy="735.212" r="14" fill="#00c5cd" fill-rule="evenodd" fill-opacity="0.4" stroke="#000000" stroke-opacity="0.4" stroke-width="3.2"/>
<circle clip-path="url(#clip612)" cx="1753.73" cy="735.212" r="14" fill="#00c5cd" fill-rule="evenodd" fill-opacity="0.4" stroke="#000000" stroke-opacity="0.4" stroke-width="3.2"/>
<circle clip-path="url(#clip612)" cx="1756.45" cy="735.212" r="14" fill="#00c5cd" fill-rule="evenodd" fill-opacity="0.4" stroke="#000000" stroke-opacity="0.4" stroke-width="3.2"/>
<circle clip-path="url(#clip612)" cx="1803.9" cy="735.212" r="14" fill="#00c5cd" fill-rule="evenodd" fill-opacity="0.4" stroke="#000000" stroke-opacity="0.4" stroke-width="3.2"/>
<circle clip-path="url(#clip612)" cx="1814.33" cy="735.212" r="14" fill="#00c5cd" fill-rule="evenodd" fill-opacity="0.4" stroke="#000000" stroke-opacity="0.4" stroke-width="3.2"/>
<polyline clip-path="url(#clip612)" style="stroke:#000003; stroke-linecap:butt; stroke-linejoin:round; stroke-width:8; stroke-opacity:1; fill:none" points="
  1396.26,768.978 1399.04,770.369 1400.05,770.803 1404.32,772.629 1407.97,774.098 1409.1,774.454 1414.77,776.279 1416.89,776.97 1421.36,778.104 1425.81,779.297 
  1428.53,779.929 1434.73,781.485 1435.77,781.755 1442.47,783.58 1443.65,783.915 1448.46,785.405 1452.58,786.683 1454.23,787.23 1459.79,789.055 1461.5,789.614 
  1465.36,790.881 1470.42,792.494 1471.11,792.706 1477.05,794.531 1479.34,795.226 1483.29,796.356 1488.26,797.766 1489.83,798.181 1496.67,800.007 1497.19,800.144 
  1503.85,801.832 1506.11,802.4 1511.41,803.657 1515.03,804.512 1519.49,805.482 1523.95,806.447 1528.43,807.307 1532.87,808.157 1538.97,809.133 1541.8,809.587 
  1550.72,810.696 1553.82,810.958 1559.64,811.462 1568.56,811.861 1577.48,811.891 1586.4,811.562 1594.34,810.958 1595.33,810.885 1604.25,809.913 1609.69,809.133 
  1613.17,808.64 1620.89,807.307 1622.09,807.101 1630.2,805.482 1631.01,805.32 1638.4,803.657 1639.94,803.312 1645.86,801.832 1648.86,801.079 1652.78,800.007 
  1657.78,798.62 1659.26,798.181 1665.38,796.356 1666.7,795.959 1671.25,794.531 1675.62,793.129 1676.92,792.706 1682.51,790.881 1684.55,790.211 1688.1,789.055 
  1693.47,787.304 1693.7,787.23 1699.49,785.405 1702.39,784.512 1705.26,783.58 1711,781.755 1711.31,781.659 1716.23,779.929 1720.23,778.512 1721.22,778.104 
  1725.63,776.279 1729.16,774.749 1729.77,774.454 1733.54,772.629 1737.01,770.803 1738.08,770.226 1740.36,768.978 1743.52,767.153 1746.42,765.328 1747,764.956 
  1749.48,763.503 1752.46,761.677 1755.27,759.852 1755.92,759.437 1758.3,758.027 1761.2,756.202 1763.79,754.377 1764.84,753.593 1766.54,752.551 1769.19,750.726 
  1771.27,748.901 1772.79,747.076 1773.76,745.337 1775.94,745.251 1782.69,745.026 1782.79,745.251 1784.07,747.076 1786.44,748.901 1790.74,750.726 1791.61,751.012 
  1798.29,752.551 1800.53,752.936 1802.19,752.551 1809.45,750.86 1809.7,750.726 1812.93,748.901 1815.25,747.076 1816.81,745.251 1817.76,743.425 1818.29,741.6 
  1818.37,741.057 1819.12,739.775 1819.81,737.95 1820.15,736.125 1820.15,734.299 1819.81,732.474 1819.12,730.649 1818.37,729.367 1818.29,728.824 1817.76,726.999 
  1816.81,725.173 1815.25,723.348 1812.93,721.523 1809.7,719.698 1809.45,719.564 1802.19,717.873 1800.53,717.488 1798.29,717.873 1791.61,719.412 1790.74,719.698 
  1786.44,721.523 1784.07,723.348 1782.79,725.173 1782.69,725.398 1775.94,725.173 1773.76,725.086 1772.79,723.348 1771.27,721.523 1769.19,719.698 1766.54,717.873 
  1764.84,716.831 1763.79,716.047 1761.2,714.222 1758.3,712.397 1755.92,710.987 1755.27,710.572 1752.46,708.747 1749.48,706.921 1747,705.468 1746.42,705.096 
  1743.52,703.271 1740.36,701.446 1738.08,700.198 1737.01,699.621 1733.54,697.795 1729.77,695.97 1729.16,695.675 1725.63,694.145 1721.22,692.32 1720.23,691.912 
  1716.23,690.495 1711.31,688.765 1711,688.669 1705.26,686.844 1702.39,685.912 1699.49,685.019 1693.7,683.194 1693.47,683.12 1688.1,681.369 1684.55,680.213 
  1682.51,679.543 1676.92,677.718 1675.62,677.295 1671.25,675.893 1666.7,674.465 1665.38,674.068 1659.26,672.243 1657.78,671.804 1652.78,670.417 1648.86,669.345 
  1645.86,668.592 1639.94,667.112 1638.4,666.767 1631.01,665.104 1630.2,664.942 1622.09,663.323 1620.89,663.117 1613.17,661.784 1609.69,661.291 1604.25,660.511 
  1595.33,659.539 1594.34,659.466 1586.4,658.862 1577.48,658.533 1568.56,658.563 1559.64,658.962 1553.82,659.466 1550.72,659.728 1541.8,660.837 1538.97,661.291 
  1532.87,662.266 1528.43,663.117 1523.95,663.977 1519.49,664.942 1515.03,665.912 1511.41,666.767 1506.11,668.023 1503.85,668.592 1497.19,670.28 1496.67,670.417 
  1489.83,672.243 1488.26,672.658 1483.29,674.068 1479.34,675.197 1477.05,675.893 1471.11,677.718 1470.42,677.929 1465.36,679.543 1461.5,680.81 1459.79,681.369 
  1454.23,683.194 1452.58,683.741 1448.46,685.019 1443.65,686.509 1442.47,686.844 1435.77,688.669 1434.73,688.939 1428.53,690.495 1425.81,691.127 1421.36,692.32 
  1416.89,693.454 1414.77,694.145 1409.1,695.97 1407.97,696.326 1404.32,697.795 1400.05,699.621 1399.04,700.055 1396.26,701.446 1392.89,703.271 1390.12,704.945 
  1389.87,705.096 1386.85,706.921 1384.2,708.747 1381.91,710.572 1381.2,711.189 1379.23,712.397 1376.4,714.222 1373.81,716.047 1372.28,717.208 1363.36,717.854 
  1361.7,717.873 1354.44,717.915 1349.57,719.698 1345.77,721.523 1345.51,721.658 1343.08,723.348 1341.06,725.173 1339.62,726.999 1338.65,728.824 1338.03,730.649 
  1337.68,732.474 1337.52,734.299 1337.52,736.125 1337.68,737.95 1338.03,739.775 1338.65,741.6 1339.62,743.425 1341.06,745.251 1343.08,747.076 1345.51,748.766 
  1345.77,748.901 1349.57,750.726 1354.44,752.509 1361.7,752.551 1363.36,752.569 1372.28,753.216 1373.81,754.377 1376.4,756.202 1379.23,758.027 1381.2,759.235 
  1381.91,759.852 1384.2,761.677 1386.85,763.503 1389.87,765.328 1390.12,765.479 1392.89,767.153 1396.26,768.978 
  "/>
<circle clip-path="url(#clip612)" cx="446.331" cy="735.212" r="14" fill="#00c5cd" fill-rule="evenodd" fill-opacity="0.4" stroke="#000000" stroke-opacity="0.4" stroke-width="3.2"/>
<circle clip-path="url(#clip612)" cx="471.779" cy="735.212" r="14" fill="#00c5cd" fill-rule="evenodd" fill-opacity="0.4" stroke="#000000" stroke-opacity="0.4" stroke-width="3.2"/>
<circle clip-path="url(#clip612)" cx="481.616" cy="735.212" r="14" fill="#00c5cd" fill-rule="evenodd" fill-opacity="0.4" stroke="#000000" stroke-opacity="0.4" stroke-width="3.2"/>
<circle clip-path="url(#clip612)" cx="548.572" cy="735.212" r="14" fill="#00c5cd" fill-rule="evenodd" fill-opacity="0.4" stroke="#000000" stroke-opacity="0.4" stroke-width="3.2"/>
<circle clip-path="url(#clip612)" cx="549.751" cy="735.212" r="14" fill="#00c5cd" fill-rule="evenodd" fill-opacity="0.4" stroke="#000000" stroke-opacity="0.4" stroke-width="3.2"/>
<circle clip-path="url(#clip612)" cx="565.965" cy="735.212" r="14" fill="#00c5cd" fill-rule="evenodd" fill-opacity="0.4" stroke="#000000" stroke-opacity="0.4" stroke-width="3.2"/>
<circle clip-path="url(#clip612)" cx="583.13" cy="805.472" r="14" fill="#00c5cd" fill-rule="evenodd" fill-opacity="0.4" stroke="#000000" stroke-opacity="0.4" stroke-width="3.2"/>
<circle clip-path="url(#clip612)" cx="583.13" cy="664.952" r="14" fill="#00c5cd" fill-rule="evenodd" fill-opacity="0.4" stroke="#000000" stroke-opacity="0.4" stroke-width="3.2"/>
<circle clip-path="url(#clip612)" cx="585.482" cy="739.714" r="14" fill="#00c5cd" fill-rule="evenodd" fill-opacity="0.4" stroke="#000000" stroke-opacity="0.4" stroke-width="3.2"/>
<circle clip-path="url(#clip612)" cx="585.482" cy="730.71" r="14" fill="#00c5cd" fill-rule="evenodd" fill-opacity="0.4" stroke="#000000" stroke-opacity="0.4" stroke-width="3.2"/>
<circle clip-path="url(#clip612)" cx="610.077" cy="791.491" r="14" fill="#00c5cd" fill-rule="evenodd" fill-opacity="0.4" stroke="#000000" stroke-opacity="0.4" stroke-width="3.2"/>
<circle clip-path="url(#clip612)" cx="610.077" cy="678.933" r="14" fill="#00c5cd" fill-rule="evenodd" fill-opacity="0.4" stroke="#000000" stroke-opacity="0.4" stroke-width="3.2"/>
<circle clip-path="url(#clip612)" cx="633.182" cy="759.547" r="14" fill="#00c5cd" fill-rule="evenodd" fill-opacity="0.4" stroke="#000000" stroke-opacity="0.4" stroke-width="3.2"/>
<circle clip-path="url(#clip612)" cx="633.182" cy="710.877" r="14" fill="#00c5cd" fill-rule="evenodd" fill-opacity="0.4" stroke="#000000" stroke-opacity="0.4" stroke-width="3.2"/>
<circle clip-path="url(#clip612)" cx="652.905" cy="794.995" r="14" fill="#00c5cd" fill-rule="evenodd" fill-opacity="0.4" stroke="#000000" stroke-opacity="0.4" stroke-width="3.2"/>
<circle clip-path="url(#clip612)" cx="652.905" cy="675.429" r="14" fill="#00c5cd" fill-rule="evenodd" fill-opacity="0.4" stroke="#000000" stroke-opacity="0.4" stroke-width="3.2"/>
<circle clip-path="url(#clip612)" cx="660.201" cy="735.212" r="14" fill="#00c5cd" fill-rule="evenodd" fill-opacity="0.4" stroke="#000000" stroke-opacity="0.4" stroke-width="3.2"/>
<circle clip-path="url(#clip612)" cx="678.036" cy="814.916" r="14" fill="#00c5cd" fill-rule="evenodd" fill-opacity="0.4" stroke="#000000" stroke-opacity="0.4" stroke-width="3.2"/>
<circle clip-path="url(#clip612)" cx="678.036" cy="655.508" r="14" fill="#00c5cd" fill-rule="evenodd" fill-opacity="0.4" stroke="#000000" stroke-opacity="0.4" stroke-width="3.2"/>
<circle clip-path="url(#clip612)" cx="681.626" cy="735.212" r="14" fill="#00c5cd" fill-rule="evenodd" fill-opacity="0.4" stroke="#000000" stroke-opacity="0.4" stroke-width="3.2"/>
<circle clip-path="url(#clip612)" cx="685.416" cy="758.832" r="14" fill="#00c5cd" fill-rule="evenodd" fill-opacity="0.4" stroke="#000000" stroke-opacity="0.4" stroke-width="3.2"/>
<circle clip-path="url(#clip612)" cx="685.416" cy="711.592" r="14" fill="#00c5cd" fill-rule="evenodd" fill-opacity="0.4" stroke="#000000" stroke-opacity="0.4" stroke-width="3.2"/>
<circle clip-path="url(#clip612)" cx="709.264" cy="803.408" r="14" fill="#00c5cd" fill-rule="evenodd" fill-opacity="0.4" stroke="#000000" stroke-opacity="0.4" stroke-width="3.2"/>
<circle clip-path="url(#clip612)" cx="709.264" cy="667.015" r="14" fill="#00c5cd" fill-rule="evenodd" fill-opacity="0.4" stroke="#000000" stroke-opacity="0.4" stroke-width="3.2"/>
<circle clip-path="url(#clip612)" cx="723.317" cy="784.564" r="14" fill="#00c5cd" fill-rule="evenodd" fill-opacity="0.4" stroke="#000000" stroke-opacity="0.4" stroke-width="3.2"/>
<circle clip-path="url(#clip612)" cx="723.317" cy="685.86" r="14" fill="#00c5cd" fill-rule="evenodd" fill-opacity="0.4" stroke="#000000" stroke-opacity="0.4" stroke-width="3.2"/>
<circle clip-path="url(#clip612)" cx="724.995" cy="747.718" r="14" fill="#00c5cd" fill-rule="evenodd" fill-opacity="0.4" stroke="#000000" stroke-opacity="0.4" stroke-width="3.2"/>
<circle clip-path="url(#clip612)" cx="724.995" cy="722.706" r="14" fill="#00c5cd" fill-rule="evenodd" fill-opacity="0.4" stroke="#000000" stroke-opacity="0.4" stroke-width="3.2"/>
<circle clip-path="url(#clip612)" cx="764.932" cy="779.738" r="14" fill="#00c5cd" fill-rule="evenodd" fill-opacity="0.4" stroke="#000000" stroke-opacity="0.4" stroke-width="3.2"/>
<circle clip-path="url(#clip612)" cx="764.932" cy="690.686" r="14" fill="#00c5cd" fill-rule="evenodd" fill-opacity="0.4" stroke="#000000" stroke-opacity="0.4" stroke-width="3.2"/>
<circle clip-path="url(#clip612)" cx="768.801" cy="803.202" r="14" fill="#00c5cd" fill-rule="evenodd" fill-opacity="0.4" stroke="#000000" stroke-opacity="0.4" stroke-width="3.2"/>
<circle clip-path="url(#clip612)" cx="768.801" cy="667.222" r="14" fill="#00c5cd" fill-rule="evenodd" fill-opacity="0.4" stroke="#000000" stroke-opacity="0.4" stroke-width="3.2"/>
<circle clip-path="url(#clip612)" cx="770.787" cy="766.58" r="14" fill="#00c5cd" fill-rule="evenodd" fill-opacity="0.4" stroke="#000000" stroke-opacity="0.4" stroke-width="3.2"/>
<circle clip-path="url(#clip612)" cx="770.787" cy="703.843" r="14" fill="#00c5cd" fill-rule="evenodd" fill-opacity="0.4" stroke="#000000" stroke-opacity="0.4" stroke-width="3.2"/>
<circle clip-path="url(#clip612)" cx="777.596" cy="828.182" r="14" fill="#00c5cd" fill-rule="evenodd" fill-opacity="0.4" stroke="#000000" stroke-opacity="0.4" stroke-width="3.2"/>
<circle clip-path="url(#clip612)" cx="777.596" cy="642.242" r="14" fill="#00c5cd" fill-rule="evenodd" fill-opacity="0.4" stroke="#000000" stroke-opacity="0.4" stroke-width="3.2"/>
<circle clip-path="url(#clip612)" cx="788.424" cy="735.212" r="14" fill="#00c5cd" fill-rule="evenodd" fill-opacity="0.4" stroke="#000000" stroke-opacity="0.4" stroke-width="3.2"/>
<circle clip-path="url(#clip612)" cx="811.919" cy="735.212" r="14" fill="#00c5cd" fill-rule="evenodd" fill-opacity="0.4" stroke="#000000" stroke-opacity="0.4" stroke-width="3.2"/>
<circle clip-path="url(#clip612)" cx="814.558" cy="795.842" r="14" fill="#00c5cd" fill-rule="evenodd" fill-opacity="0.4" stroke="#000000" stroke-opacity="0.4" stroke-width="3.2"/>
<circle clip-path="url(#clip612)" cx="814.558" cy="674.582" r="14" fill="#00c5cd" fill-rule="evenodd" fill-opacity="0.4" stroke="#000000" stroke-opacity="0.4" stroke-width="3.2"/>
<circle clip-path="url(#clip612)" cx="829.069" cy="771.232" r="14" fill="#00c5cd" fill-rule="evenodd" fill-opacity="0.4" stroke="#000000" stroke-opacity="0.4" stroke-width="3.2"/>
<circle clip-path="url(#clip612)" cx="829.069" cy="699.191" r="14" fill="#00c5cd" fill-rule="evenodd" fill-opacity="0.4" stroke="#000000" stroke-opacity="0.4" stroke-width="3.2"/>
<circle clip-path="url(#clip612)" cx="834.861" cy="735.212" r="14" fill="#00c5cd" fill-rule="evenodd" fill-opacity="0.4" stroke="#000000" stroke-opacity="0.4" stroke-width="3.2"/>
<circle clip-path="url(#clip612)" cx="838.422" cy="773.781" r="14" fill="#00c5cd" fill-rule="evenodd" fill-opacity="0.4" stroke="#000000" stroke-opacity="0.4" stroke-width="3.2"/>
<circle clip-path="url(#clip612)" cx="838.422" cy="696.643" r="14" fill="#00c5cd" fill-rule="evenodd" fill-opacity="0.4" stroke="#000000" stroke-opacity="0.4" stroke-width="3.2"/>
<circle clip-path="url(#clip612)" cx="900.211" cy="735.212" r="14" fill="#00c5cd" fill-rule="evenodd" fill-opacity="0.4" stroke="#000000" stroke-opacity="0.4" stroke-width="3.2"/>
<circle clip-path="url(#clip612)" cx="918.261" cy="761.142" r="14" fill="#00c5cd" fill-rule="evenodd" fill-opacity="0.4" stroke="#000000" stroke-opacity="0.4" stroke-width="3.2"/>
<circle clip-path="url(#clip612)" cx="918.261" cy="709.282" r="14" fill="#00c5cd" fill-rule="evenodd" fill-opacity="0.4" stroke="#000000" stroke-opacity="0.4" stroke-width="3.2"/>
<circle clip-path="url(#clip612)" cx="952.85" cy="735.212" r="14" fill="#00c5cd" fill-rule="evenodd" fill-opacity="0.4" stroke="#000000" stroke-opacity="0.4" stroke-width="3.2"/>
<polyline clip-path="url(#clip612)" style="stroke:#000003; stroke-linecap:butt; stroke-linejoin:round; stroke-width:8; stroke-opacity:1; fill:none" points="
  469.749,771.868 467.68,771.367 459.186,769.301 458.694,769.182 454.543,767.235 450.86,765.169 447.909,763.103 447.639,762.897 445.174,761.037 442.855,758.971 
  440.956,756.905 439.432,754.839 438.238,752.773 437.329,750.707 436.658,748.641 436.584,748.358 435.607,746.575 434.691,744.509 433.982,742.443 433.465,740.377 
  433.127,738.311 432.96,736.245 432.96,734.179 433.127,732.113 433.465,730.047 433.982,727.981 434.691,725.915 435.607,723.849 436.584,722.066 436.658,721.783 
  437.329,719.717 438.238,717.651 439.432,715.585 440.956,713.519 442.855,711.453 445.174,709.387 447.639,707.527 447.909,707.321 450.86,705.255 454.543,703.189 
  458.694,701.241 459.186,701.123 467.68,699.057 469.749,698.556 480.804,698.547 483.936,699.057 491.859,700.687 493.981,701.123 501.555,703.189 502.914,703.707 
  513.968,703.433 514.354,703.189 517.794,701.123 521.585,699.057 525.023,697.323 525.42,696.991 528.083,694.925 531.154,692.859 534.642,690.793 536.078,689.992 
  538.07,688.727 541.641,686.661 545.652,684.595 547.133,683.866 550.035,682.529 554.796,680.463 558.188,679.068 560.12,678.397 566.077,676.331 569.243,675.247 
  572.625,674.265 579.647,672.199 580.298,672.002 587.094,670.133 591.353,668.946 594.612,668.067 602.24,666.001 602.408,665.954 609.91,663.935 613.463,662.986 
  617.835,661.869 624.518,660.176 626.101,659.803 634.863,657.737 635.572,657.569 644.334,655.671 646.627,655.174 654.609,653.605 657.682,652.998 665.904,651.539 
  668.737,651.033 678.615,649.473 679.792,649.286 690.847,647.768 694.088,647.407 701.902,646.526 712.957,645.624 719,645.341 724.012,645.099 735.067,645.005 
  744.236,645.341 746.122,645.406 757.176,646.325 764.986,647.407 768.231,647.847 776.585,649.473 779.286,649.999 785.366,651.539 790.341,652.829 792.818,653.605 
  799.248,655.671 801.396,656.379 805.026,657.737 810.309,659.803 812.451,660.668 815.218,661.869 819.793,663.935 823.506,665.715 824.088,666.001 828.239,668.067 
  832.122,670.133 834.561,671.495 835.853,672.199 839.552,674.265 843.006,676.331 845.616,677.988 846.323,678.397 849.848,680.463 853.157,682.529 856.249,684.595 
  856.671,684.882 859.927,686.661 863.621,688.727 867.224,690.793 867.725,691.077 872.299,692.859 878.082,694.925 878.78,695.15 887.042,696.991 889.835,697.508 
  898.17,699.057 900.89,699.479 907.403,701.123 911.945,702.195 914.588,703.189 919.771,705.255 923,706.717 924.361,707.321 928.826,709.387 932.631,711.453 
  934.055,712.319 941.06,713.519 945.11,713.966 956.165,715.334 956.705,715.585 961.133,717.651 964.447,719.717 966.657,721.783 967.22,722.523 968.719,723.849 
  970.644,725.915 972.064,727.981 973.054,730.047 973.675,732.113 973.974,734.179 973.974,736.245 973.675,738.311 973.054,740.377 972.064,742.443 970.644,744.509 
  968.719,746.575 967.22,747.901 966.657,748.641 964.447,750.707 961.133,752.773 956.705,754.839 956.165,755.09 945.11,756.458 941.06,756.905 934.055,758.105 
  932.631,758.971 928.826,761.037 924.361,763.103 923,763.707 919.771,765.169 914.588,767.235 911.945,768.229 907.403,769.301 900.89,770.945 898.17,771.367 
  889.835,772.916 887.042,773.433 878.78,775.274 878.082,775.499 872.299,777.565 867.725,779.347 867.224,779.631 863.621,781.697 859.927,783.763 856.671,785.542 
  856.249,785.829 853.157,787.895 849.848,789.961 846.323,792.027 845.616,792.436 843.006,794.093 839.552,796.159 835.853,798.225 834.561,798.929 832.122,800.291 
  828.239,802.357 824.088,804.423 823.506,804.709 819.793,806.489 815.218,808.555 812.451,809.756 810.309,810.621 805.026,812.687 801.396,814.045 799.248,814.753 
  792.818,816.819 790.341,817.594 785.366,818.885 779.286,820.425 776.585,820.951 768.231,822.577 764.986,823.017 757.176,824.099 746.122,825.018 744.236,825.083 
  735.067,825.418 724.012,825.325 719,825.083 712.957,824.799 701.902,823.898 694.088,823.017 690.847,822.656 679.792,821.138 678.615,820.951 668.737,819.391 
  665.904,818.885 657.682,817.426 654.609,816.819 646.627,815.25 644.334,814.753 635.572,812.855 634.863,812.687 626.101,810.621 624.518,810.248 617.835,808.555 
  613.463,807.438 609.91,806.489 602.408,804.469 602.24,804.423 594.612,802.357 591.353,801.477 587.094,800.291 580.298,798.422 579.647,798.225 572.625,796.159 
  569.243,795.177 566.077,794.093 560.12,792.027 558.188,791.356 554.796,789.961 550.035,787.895 547.133,786.558 545.652,785.829 541.641,783.763 538.07,781.697 
  536.078,780.432 534.642,779.631 531.154,777.565 528.083,775.499 525.42,773.433 525.023,773.101 521.585,771.367 517.794,769.301 514.354,767.235 513.968,766.991 
  502.914,766.717 501.555,767.235 493.981,769.301 491.859,769.737 483.936,771.367 480.804,771.877 469.749,771.868 
  "/>
</svg>
