<?xml version="1.0" encoding="utf-8"?>
<svg xmlns="http://www.w3.org/2000/svg" xmlns:xlink="http://www.w3.org/1999/xlink" width="600" height="400" viewBox="0 0 2400 1600">
<defs>
  <clipPath id="clip120">
    <rect x="0" y="0" width="2400" height="1600"/>
  </clipPath>
</defs>
<path clip-path="url(#clip120)" d="
M0 1600 L2400 1600 L2400 0 L0 0  Z
  " fill="#ffffff" fill-rule="evenodd" fill-opacity="1"/>
<defs>
  <clipPath id="clip121">
    <rect x="480" y="0" width="1681" height="1600"/>
  </clipPath>
</defs>
<path clip-path="url(#clip120)" d="
M156.112 1486.45 L2352.76 1486.45 L2352.76 47.2441 L156.112 47.2441  Z
  " fill="#ffffff" fill-rule="evenodd" fill-opacity="1"/>
<defs>
  <clipPath id="clip122">
    <rect x="156" y="47" width="2198" height="1440"/>
  </clipPath>
</defs>
<polyline clip-path="url(#clip120)" style="stroke:#000000; stroke-linecap:butt; stroke-linejoin:round; stroke-width:4; stroke-opacity:1; fill:none" points="
  156.112,1486.45 2352.76,1486.45 
  "/>
<polyline clip-path="url(#clip120)" style="stroke:#000000; stroke-linecap:butt; stroke-linejoin:round; stroke-width:4; stroke-opacity:1; fill:none" points="
  156.112,1486.45 156.112,1467.55 
  "/>
<polyline clip-path="url(#clip120)" style="stroke:#000000; stroke-linecap:butt; stroke-linejoin:round; stroke-width:4; stroke-opacity:1; fill:none" points="
  1254.43,1486.45 1254.43,1467.55 
  "/>
<polyline clip-path="url(#clip120)" style="stroke:#000000; stroke-linecap:butt; stroke-linejoin:round; stroke-width:4; stroke-opacity:1; fill:none" points="
  2352.76,1486.45 2352.76,1467.55 
  "/>
<path clip-path="url(#clip120)" d="M156.112 1517.37 Q152.501 1517.37 150.672 1520.93 Q148.867 1524.47 148.867 1531.6 Q148.867 1538.71 150.672 1542.27 Q152.501 1545.82 156.112 1545.82 Q159.746 1545.82 161.552 1542.27 Q163.381 1538.71 163.381 1531.6 Q163.381 1524.47 161.552 1520.93 Q159.746 1517.37 156.112 1517.37 M156.112 1513.66 Q161.922 1513.66 164.978 1518.27 Q168.057 1522.85 168.057 1531.6 Q168.057 1540.33 164.978 1544.94 Q161.922 1549.52 156.112 1549.52 Q150.302 1549.52 147.223 1544.94 Q144.168 1540.33 144.168 1531.6 Q144.168 1522.85 147.223 1518.27 Q150.302 1513.66 156.112 1513.66 Z" fill="#000000" fill-rule="evenodd" fill-opacity="1" /><path clip-path="url(#clip120)" d="M1229.13 1514.29 L1247.49 1514.29 L1247.49 1518.22 L1233.42 1518.22 L1233.42 1526.7 Q1234.43 1526.35 1235.45 1526.19 Q1236.47 1526 1237.49 1526 Q1243.28 1526 1246.66 1529.17 Q1250.04 1532.34 1250.04 1537.76 Q1250.04 1543.34 1246.56 1546.44 Q1243.09 1549.52 1236.77 1549.52 Q1234.6 1549.52 1232.33 1549.15 Q1230.08 1548.78 1227.67 1548.04 L1227.67 1543.34 Q1229.76 1544.47 1231.98 1545.03 Q1234.2 1545.58 1236.68 1545.58 Q1240.68 1545.58 1243.02 1543.48 Q1245.36 1541.37 1245.36 1537.76 Q1245.36 1534.15 1243.02 1532.04 Q1240.68 1529.94 1236.68 1529.94 Q1234.8 1529.94 1232.93 1530.35 Q1231.08 1530.77 1229.13 1531.65 L1229.13 1514.29 Z" fill="#000000" fill-rule="evenodd" fill-opacity="1" /><path clip-path="url(#clip120)" d="M1269.25 1517.37 Q1265.64 1517.37 1263.81 1520.93 Q1262 1524.47 1262 1531.6 Q1262 1538.71 1263.81 1542.27 Q1265.64 1545.82 1269.25 1545.82 Q1272.88 1545.82 1274.69 1542.27 Q1276.52 1538.71 1276.52 1531.6 Q1276.52 1524.47 1274.69 1520.93 Q1272.88 1517.37 1269.25 1517.37 M1269.25 1513.66 Q1275.06 1513.66 1278.11 1518.27 Q1281.19 1522.85 1281.19 1531.6 Q1281.19 1540.33 1278.11 1544.94 Q1275.06 1549.52 1269.25 1549.52 Q1263.44 1549.52 1260.36 1544.94 Q1257.3 1540.33 1257.3 1531.6 Q1257.3 1522.85 1260.36 1518.27 Q1263.44 1513.66 1269.25 1513.66 Z" fill="#000000" fill-rule="evenodd" fill-opacity="1" /><path clip-path="url(#clip120)" d="M2312.36 1544.91 L2320 1544.91 L2320 1518.55 L2311.69 1520.21 L2311.69 1515.95 L2319.96 1514.29 L2324.63 1514.29 L2324.63 1544.91 L2332.27 1544.91 L2332.27 1548.85 L2312.36 1548.85 L2312.36 1544.91 Z" fill="#000000" fill-rule="evenodd" fill-opacity="1" /><path clip-path="url(#clip120)" d="M2351.71 1517.37 Q2348.1 1517.37 2346.27 1520.93 Q2344.47 1524.47 2344.47 1531.6 Q2344.47 1538.71 2346.27 1542.27 Q2348.1 1545.82 2351.71 1545.82 Q2355.35 1545.82 2357.15 1542.27 Q2358.98 1538.71 2358.98 1531.6 Q2358.98 1524.47 2357.15 1520.93 Q2355.35 1517.37 2351.71 1517.37 M2351.71 1513.66 Q2357.52 1513.66 2360.58 1518.27 Q2363.66 1522.85 2363.66 1531.6 Q2363.66 1540.33 2360.58 1544.94 Q2357.52 1549.52 2351.71 1549.52 Q2345.9 1549.52 2342.83 1544.94 Q2339.77 1540.33 2339.77 1531.6 Q2339.77 1522.85 2342.83 1518.27 Q2345.9 1513.66 2351.71 1513.66 Z" fill="#000000" fill-rule="evenodd" fill-opacity="1" /><path clip-path="url(#clip120)" d="M2381.88 1517.37 Q2378.27 1517.37 2376.44 1520.93 Q2374.63 1524.47 2374.63 1531.6 Q2374.63 1538.71 2376.44 1542.27 Q2378.27 1545.82 2381.88 1545.82 Q2385.51 1545.82 2387.32 1542.27 Q2389.14 1538.71 2389.14 1531.6 Q2389.14 1524.47 2387.32 1520.93 Q2385.51 1517.37 2381.88 1517.37 M2381.88 1513.66 Q2387.69 1513.66 2390.74 1518.27 Q2393.82 1522.85 2393.82 1531.6 Q2393.82 1540.33 2390.74 1544.94 Q2387.69 1549.52 2381.88 1549.52 Q2376.07 1549.52 2372.99 1544.94 Q2369.93 1540.33 2369.93 1531.6 Q2369.93 1522.85 2372.99 1518.27 Q2376.07 1513.66 2381.88 1513.66 Z" fill="#000000" fill-rule="evenodd" fill-opacity="1" /><polyline clip-path="url(#clip120)" style="stroke:#000000; stroke-linecap:butt; stroke-linejoin:round; stroke-width:4; stroke-opacity:1; fill:none" points="
  156.112,1486.45 156.112,47.2441 
  "/>
<polyline clip-path="url(#clip120)" style="stroke:#000000; stroke-linecap:butt; stroke-linejoin:round; stroke-width:4; stroke-opacity:1; fill:none" points="
  156.112,1486.45 175.01,1486.45 
  "/>
<polyline clip-path="url(#clip120)" style="stroke:#000000; stroke-linecap:butt; stroke-linejoin:round; stroke-width:4; stroke-opacity:1; fill:none" points="
  156.112,766.846 175.01,766.846 
  "/>
<polyline clip-path="url(#clip120)" style="stroke:#000000; stroke-linecap:butt; stroke-linejoin:round; stroke-width:4; stroke-opacity:1; fill:none" points="
  156.112,47.2441 175.01,47.2441 
  "/>
<path clip-path="url(#clip120)" d="M62.9365 1472.25 Q59.3254 1472.25 57.4967 1475.81 Q55.6912 1479.35 55.6912 1486.48 Q55.6912 1493.59 57.4967 1497.15 Q59.3254 1500.7 62.9365 1500.7 Q66.5707 1500.7 68.3763 1497.15 Q70.205 1493.59 70.205 1486.48 Q70.205 1479.35 68.3763 1475.81 Q66.5707 1472.25 62.9365 1472.25 M62.9365 1468.54 Q68.7467 1468.54 71.8022 1473.15 Q74.8809 1477.73 74.8809 1486.48 Q74.8809 1495.21 71.8022 1499.82 Q68.7467 1504.4 62.9365 1504.4 Q57.1264 1504.4 54.0477 1499.82 Q50.9921 1495.21 50.9921 1486.48 Q50.9921 1477.73 54.0477 1473.15 Q57.1264 1468.54 62.9365 1468.54 Z" fill="#000000" fill-rule="evenodd" fill-opacity="1" /><path clip-path="url(#clip120)" d="M83.0984 1497.85 L87.9827 1497.85 L87.9827 1503.73 L83.0984 1503.73 L83.0984 1497.85 Z" fill="#000000" fill-rule="evenodd" fill-opacity="1" /><path clip-path="url(#clip120)" d="M108.168 1472.25 Q104.557 1472.25 102.728 1475.81 Q100.922 1479.35 100.922 1486.48 Q100.922 1493.59 102.728 1497.15 Q104.557 1500.7 108.168 1500.7 Q111.802 1500.7 113.608 1497.15 Q115.436 1493.59 115.436 1486.48 Q115.436 1479.35 113.608 1475.81 Q111.802 1472.25 108.168 1472.25 M108.168 1468.54 Q113.978 1468.54 117.033 1473.15 Q120.112 1477.73 120.112 1486.48 Q120.112 1495.21 117.033 1499.82 Q113.978 1504.4 108.168 1504.4 Q102.358 1504.4 99.2789 1499.82 Q96.2234 1495.21 96.2234 1486.48 Q96.2234 1477.73 99.2789 1473.15 Q102.358 1468.54 108.168 1468.54 Z" fill="#000000" fill-rule="evenodd" fill-opacity="1" /><path clip-path="url(#clip120)" d="M63.9319 752.645 Q60.3208 752.645 58.4921 756.209 Q56.6865 759.751 56.6865 766.881 Q56.6865 773.987 58.4921 777.552 Q60.3208 781.094 63.9319 781.094 Q67.5661 781.094 69.3717 777.552 Q71.2004 773.987 71.2004 766.881 Q71.2004 759.751 69.3717 756.209 Q67.5661 752.645 63.9319 752.645 M63.9319 748.941 Q69.742 748.941 72.7976 753.547 Q75.8763 758.131 75.8763 766.881 Q75.8763 775.608 72.7976 780.214 Q69.742 784.797 63.9319 784.797 Q58.1217 784.797 55.043 780.214 Q51.9875 775.608 51.9875 766.881 Q51.9875 758.131 55.043 753.547 Q58.1217 748.941 63.9319 748.941 Z" fill="#000000" fill-rule="evenodd" fill-opacity="1" /><path clip-path="url(#clip120)" d="M84.0938 778.246 L88.978 778.246 L88.978 784.126 L84.0938 784.126 L84.0938 778.246 Z" fill="#000000" fill-rule="evenodd" fill-opacity="1" /><path clip-path="url(#clip120)" d="M99.2095 749.566 L117.566 749.566 L117.566 753.501 L103.492 753.501 L103.492 761.973 Q104.51 761.626 105.529 761.464 Q106.547 761.279 107.566 761.279 Q113.353 761.279 116.733 764.45 Q120.112 767.621 120.112 773.038 Q120.112 778.617 116.64 781.719 Q113.168 784.797 106.848 784.797 Q104.672 784.797 102.404 784.427 Q100.159 784.057 97.7511 783.316 L97.7511 778.617 Q99.8345 779.751 102.057 780.307 Q104.279 780.862 106.756 780.862 Q110.76 780.862 113.098 778.756 Q115.436 776.649 115.436 773.038 Q115.436 769.427 113.098 767.321 Q110.76 765.214 106.756 765.214 Q104.881 765.214 103.006 765.631 Q101.154 766.047 99.2095 766.927 L99.2095 749.566 Z" fill="#000000" fill-rule="evenodd" fill-opacity="1" /><path clip-path="url(#clip120)" d="M53.7467 60.5889 L61.3856 60.5889 L61.3856 34.2233 L53.0754 35.89 L53.0754 31.6308 L61.3393 29.9641 L66.0152 29.9641 L66.0152 60.5889 L73.654 60.5889 L73.654 64.5241 L53.7467 64.5241 L53.7467 60.5889 Z" fill="#000000" fill-rule="evenodd" fill-opacity="1" /><path clip-path="url(#clip120)" d="M83.0984 58.6445 L87.9827 58.6445 L87.9827 64.5241 L83.0984 64.5241 L83.0984 58.6445 Z" fill="#000000" fill-rule="evenodd" fill-opacity="1" /><path clip-path="url(#clip120)" d="M108.168 33.0428 Q104.557 33.0428 102.728 36.6076 Q100.922 40.1492 100.922 47.2788 Q100.922 54.3853 102.728 57.9501 Q104.557 61.4917 108.168 61.4917 Q111.802 61.4917 113.608 57.9501 Q115.436 54.3853 115.436 47.2788 Q115.436 40.1492 113.608 36.6076 Q111.802 33.0428 108.168 33.0428 M108.168 29.3391 Q113.978 29.3391 117.033 33.9456 Q120.112 38.5289 120.112 47.2788 Q120.112 56.0056 117.033 60.6121 Q113.978 65.1954 108.168 65.1954 Q102.358 65.1954 99.2789 60.6121 Q96.2234 56.0056 96.2234 47.2788 Q96.2234 38.5289 99.2789 33.9456 Q102.358 29.3391 108.168 29.3391 Z" fill="#000000" fill-rule="evenodd" fill-opacity="1" /><polyline clip-path="url(#clip122)" style="stroke:#009af9; stroke-linecap:butt; stroke-linejoin:round; stroke-width:12; stroke-opacity:1; fill:none" points="
  178.079,61.6361 180.275,63.0753 182.472,64.5145 184.668,65.9537 186.865,67.3929 189.062,68.8322 191.258,70.2714 193.455,71.7106 195.652,73.1498 197.848,74.589 
  200.045,76.0282 202.242,77.4674 204.438,78.9066 206.635,80.3458 208.832,81.785 211.028,83.2242 213.225,84.6634 215.422,86.1026 217.618,87.5418 219.815,88.981 
  222.011,90.4202 224.208,91.8594 226.405,93.2986 228.601,94.7378 230.798,96.177 232.995,97.6162 235.191,99.0554 237.388,100.495 239.585,101.934 241.781,103.373 
  243.978,104.812 246.175,106.251 248.371,107.691 250.568,109.13 252.764,110.569 254.961,112.008 257.158,113.447 259.354,114.887 261.551,116.326 263.748,117.765 
  265.944,119.204 268.141,120.643 270.338,122.083 272.534,123.522 274.731,124.961 276.928,126.4 279.124,127.84 281.321,129.279 283.517,130.718 285.714,132.157 
  287.911,133.596 290.107,135.036 292.304,136.475 294.501,137.914 296.697,139.353 298.894,140.792 301.091,142.232 303.287,143.671 305.484,145.11 307.681,146.549 
  309.877,147.988 312.074,149.428 314.27,150.867 316.467,152.306 318.664,153.745 320.86,155.184 323.057,156.624 325.254,158.063 327.45,159.502 329.647,160.941 
  331.844,162.38 334.04,163.82 336.237,165.259 338.434,166.698 340.63,168.137 342.827,169.576 345.023,171.016 347.22,172.455 349.417,173.894 351.613,175.333 
  353.81,176.772 356.007,178.212 358.203,179.651 360.4,181.09 362.597,182.529 364.793,183.968 366.99,185.408 369.187,186.847 371.383,188.286 373.58,189.725 
  375.777,191.164 377.973,192.604 380.17,194.043 382.366,195.482 384.563,196.921 386.76,198.36 388.956,199.8 391.153,201.239 393.35,202.678 395.546,204.117 
  397.743,205.557 399.94,206.996 402.136,208.435 404.333,209.874 406.53,211.313 408.726,212.753 410.923,214.192 413.119,215.631 415.316,217.07 417.513,218.509 
  419.709,219.949 421.906,221.388 424.103,222.827 426.299,224.266 428.496,225.705 430.693,227.145 432.889,228.584 435.086,230.023 437.283,231.462 439.479,232.901 
  441.676,234.341 443.872,235.78 446.069,237.219 448.266,238.658 450.462,240.097 452.659,241.537 454.856,242.976 457.052,244.415 459.249,245.854 461.446,247.293 
  463.642,248.733 465.839,250.172 468.036,251.611 470.232,253.05 472.429,254.489 474.625,255.929 476.822,257.368 479.019,258.807 481.215,260.246 483.412,261.685 
  485.609,263.125 487.805,264.564 490.002,266.003 492.199,267.442 494.395,268.881 496.592,270.321 498.789,271.76 500.985,273.199 503.182,274.638 505.378,276.077 
  507.575,277.517 509.772,278.956 511.968,280.395 514.165,281.834 516.362,283.274 518.558,284.713 520.755,286.152 522.952,287.591 525.148,289.03 527.345,290.47 
  529.542,291.909 531.738,293.348 533.935,294.787 536.131,296.226 538.328,297.666 540.525,299.105 542.721,300.544 544.918,301.983 547.115,303.422 549.311,304.862 
  551.508,306.301 553.705,307.74 555.901,309.179 558.098,310.618 560.295,312.058 562.491,313.497 564.688,314.936 566.885,316.375 569.081,317.814 571.278,319.254 
  573.474,320.693 575.671,322.132 577.868,323.571 580.064,325.01 582.261,326.45 584.458,327.889 586.654,329.328 588.851,330.767 591.048,332.206 593.244,333.646 
  595.441,335.085 597.638,336.524 599.834,337.963 602.031,339.402 604.227,340.842 606.424,342.281 608.621,343.72 610.817,345.159 613.014,346.598 615.211,348.038 
  617.407,349.477 619.604,350.916 621.801,352.355 623.997,353.794 626.194,355.234 628.391,356.673 630.587,358.112 632.784,359.551 634.98,360.991 637.177,362.43 
  639.374,363.869 641.57,365.308 643.767,366.747 645.964,368.187 648.16,369.626 650.357,371.065 652.554,372.504 654.75,373.943 656.947,375.383 659.144,376.822 
  661.34,378.261 663.537,379.7 665.733,381.139 667.93,382.579 670.127,384.018 672.323,385.457 674.52,386.896 676.717,388.335 678.913,389.775 681.11,391.214 
  683.307,392.653 685.503,394.092 687.7,395.531 689.897,396.971 692.093,398.41 694.29,399.849 696.486,401.288 698.683,402.727 700.88,404.167 703.076,405.606 
  705.273,407.045 707.47,408.484 709.666,409.923 711.863,411.363 714.06,412.802 716.256,414.241 718.453,415.68 720.65,417.119 722.846,418.559 725.043,419.998 
  727.24,421.437 729.436,422.876 731.633,424.315 733.829,425.755 736.026,427.194 738.223,428.633 740.419,430.072 742.616,431.512 744.813,432.951 747.009,434.39 
  749.206,435.829 751.403,437.268 753.599,438.708 755.796,440.147 757.993,441.586 760.189,443.025 762.386,444.464 764.582,445.904 766.779,447.343 768.976,448.782 
  771.172,450.221 773.369,451.66 775.566,453.1 777.762,454.539 779.959,455.978 782.156,457.417 784.352,458.856 786.549,460.296 788.746,461.735 790.942,463.174 
  793.139,464.613 795.335,466.052 797.532,467.492 799.729,468.931 801.925,470.37 804.122,471.809 806.319,473.248 808.515,474.688 810.712,476.127 812.909,477.566 
  815.105,479.005 817.302,480.444 819.499,481.884 821.695,483.323 823.892,484.762 826.088,486.201 828.285,487.64 830.482,489.08 832.678,490.519 834.875,491.958 
  837.072,493.397 839.268,494.836 841.465,496.276 843.662,497.715 845.858,499.154 848.055,500.593 850.252,502.032 852.448,503.472 854.645,504.911 856.841,506.35 
  859.038,507.789 861.235,509.229 863.431,510.668 865.628,512.107 867.825,513.546 870.021,514.985 872.218,516.425 874.415,517.864 876.611,519.303 878.808,520.742 
  881.005,522.181 883.201,523.621 885.398,525.06 887.595,526.499 889.791,527.938 891.988,529.377 894.184,530.817 896.381,532.256 898.578,533.695 900.774,535.134 
  902.971,536.573 905.168,538.013 907.364,539.452 909.561,540.891 911.758,542.33 913.954,543.769 916.151,545.209 918.348,546.648 920.544,548.087 922.741,549.526 
  924.937,550.965 927.134,552.405 929.331,553.844 931.527,555.283 933.724,556.722 935.921,558.161 938.117,559.601 940.314,561.04 942.511,562.479 944.707,563.918 
  946.904,565.357 949.101,566.797 951.297,568.236 953.494,569.675 955.69,571.114 957.887,572.553 960.084,573.993 962.28,575.432 964.477,576.871 966.674,578.31 
  968.87,579.749 971.067,581.189 973.264,582.628 975.46,584.067 977.657,585.506 979.854,586.946 982.05,588.385 984.247,589.824 986.443,591.263 988.64,592.702 
  990.837,594.142 993.033,595.581 995.23,597.02 997.427,598.459 999.623,599.898 1001.82,601.338 1004.02,602.777 1006.21,604.216 1008.41,605.655 1010.61,607.094 
  1012.8,608.534 1015,609.973 1017.2,611.412 1019.39,612.851 1021.59,614.29 1023.79,615.73 1025.98,617.169 1028.18,618.608 1030.38,620.047 1032.57,621.486 
  1034.77,622.926 1036.97,624.365 1039.16,625.804 1041.36,627.243 1043.56,628.682 1045.75,630.122 1047.95,631.561 1050.15,633 1052.34,634.439 1054.54,635.878 
  1056.74,637.318 1058.93,638.757 1061.13,640.196 1063.33,641.635 1065.52,643.074 1067.72,644.514 1069.92,645.953 1072.11,647.392 1074.31,648.831 1076.51,650.27 
  1078.7,651.71 1080.9,653.149 1083.1,654.588 1085.29,656.027 1087.49,657.466 1089.69,658.906 1091.88,660.345 1094.08,661.784 1096.28,663.223 1098.47,664.663 
  1100.67,666.102 1102.87,667.541 1105.06,668.98 1107.26,670.419 1109.46,671.859 1111.65,673.298 1113.85,674.737 1116.05,676.176 1118.24,677.615 1120.44,679.055 
  1122.64,680.494 1124.83,681.933 1127.03,683.372 1129.23,684.811 1131.42,686.251 1133.62,687.69 1135.82,689.129 1138.01,690.568 1140.21,692.007 1142.41,693.447 
  1144.6,694.886 1146.8,696.325 1149,697.764 1151.19,699.203 1153.39,700.643 1155.59,702.082 1157.78,703.521 1159.98,704.96 1162.17,706.399 1164.37,707.839 
  1166.57,709.278 1168.76,710.717 1170.96,712.156 1173.16,713.595 1175.35,715.035 1177.55,716.474 1179.75,717.913 1181.94,719.352 1184.14,720.791 1186.34,722.231 
  1188.53,723.67 1190.73,725.109 1192.93,726.548 1195.12,727.987 1197.32,729.427 1199.52,730.866 1201.71,732.305 1203.91,733.744 1206.11,735.184 1208.3,736.623 
  1210.5,738.062 1212.7,739.501 1214.89,740.94 1217.09,742.38 1219.29,743.819 1221.48,745.258 1223.68,746.697 1225.88,748.136 1228.07,749.576 1230.27,751.015 
  1232.47,752.454 1234.66,753.893 1236.86,755.332 1239.06,756.772 1241.25,758.211 1243.45,759.65 1245.65,761.089 1247.84,762.528 1250.04,763.968 1252.24,765.407 
  1254.43,766.846 1256.63,768.285 1258.83,769.724 1261.02,771.164 1263.22,772.603 1265.42,774.042 1267.61,775.481 1269.81,776.92 1272.01,778.36 1274.2,779.799 
  1276.4,781.238 1278.6,782.677 1280.79,784.116 1282.99,785.556 1285.19,786.995 1287.38,788.434 1289.58,789.873 1291.78,791.312 1293.97,792.752 1296.17,794.191 
  1298.37,795.63 1300.56,797.069 1302.76,798.508 1304.96,799.948 1307.15,801.387 1309.35,802.826 1311.55,804.265 1313.74,805.704 1315.94,807.144 1318.14,808.583 
  1320.33,810.022 1322.53,811.461 1324.73,812.901 1326.92,814.34 1329.12,815.779 1331.32,817.218 1333.51,818.657 1335.71,820.097 1337.91,821.536 1340.1,822.975 
  1342.3,824.414 1344.5,825.853 1346.69,827.293 1348.89,828.732 1351.09,830.171 1353.28,831.61 1355.48,833.049 1357.68,834.489 1359.87,835.928 1362.07,837.367 
  1364.27,838.806 1366.46,840.245 1368.66,841.685 1370.86,843.124 1373.05,844.563 1375.25,846.002 1377.45,847.441 1379.64,848.881 1381.84,850.32 1384.04,851.759 
  1386.23,853.198 1388.43,854.637 1390.63,856.077 1392.82,857.516 1395.02,858.955 1397.22,860.394 1399.41,861.833 1401.61,863.273 1403.81,864.712 1406,866.151 
  1408.2,867.59 1410.4,869.029 1412.59,870.469 1414.79,871.908 1416.99,873.347 1419.18,874.786 1421.38,876.225 1423.58,877.665 1425.77,879.104 1427.97,880.543 
  1430.17,881.982 1432.36,883.421 1434.56,884.861 1436.76,886.3 1438.95,887.739 1441.15,889.178 1443.35,890.618 1445.54,892.057 1447.74,893.496 1449.94,894.935 
  1452.13,896.374 1454.33,897.814 1456.53,899.253 1458.72,900.692 1460.92,902.131 1463.12,903.57 1465.31,905.01 1467.51,906.449 1469.71,907.888 1471.9,909.327 
  1474.1,910.766 1476.3,912.206 1478.49,913.645 1480.69,915.084 1482.88,916.523 1485.08,917.962 1487.28,919.402 1489.47,920.841 1491.67,922.28 1493.87,923.719 
  1496.06,925.158 1498.26,926.598 1500.46,928.037 1502.65,929.476 1504.85,930.915 1507.05,932.354 1509.24,933.794 1511.44,935.233 1513.64,936.672 1515.83,938.111 
  1518.03,939.55 1520.23,940.99 1522.42,942.429 1524.62,943.868 1526.82,945.307 1529.01,946.746 1531.21,948.186 1533.41,949.625 1535.6,951.064 1537.8,952.503 
  1540,953.942 1542.19,955.382 1544.39,956.821 1546.59,958.26 1548.78,959.699 1550.98,961.138 1553.18,962.578 1555.37,964.017 1557.57,965.456 1559.77,966.895 
  1561.96,968.335 1564.16,969.774 1566.36,971.213 1568.55,972.652 1570.75,974.091 1572.95,975.531 1575.14,976.97 1577.34,978.409 1579.54,979.848 1581.73,981.287 
  1583.93,982.727 1586.13,984.166 1588.32,985.605 1590.52,987.044 1592.72,988.483 1594.91,989.923 1597.11,991.362 1599.31,992.801 1601.5,994.24 1603.7,995.679 
  1605.9,997.119 1608.09,998.558 1610.29,999.997 1612.49,1001.44 1614.68,1002.88 1616.88,1004.31 1619.08,1005.75 1621.27,1007.19 1623.47,1008.63 1625.67,1010.07 
  1627.86,1011.51 1630.06,1012.95 1632.26,1014.39 1634.45,1015.83 1636.65,1017.27 1638.85,1018.71 1641.04,1020.15 1643.24,1021.59 1645.44,1023.02 1647.63,1024.46 
  1649.83,1025.9 1652.03,1027.34 1654.22,1028.78 1656.42,1030.22 1658.62,1031.66 1660.81,1033.1 1663.01,1034.54 1665.21,1035.98 1667.4,1037.42 1669.6,1038.86 
  1671.8,1040.29 1673.99,1041.73 1676.19,1043.17 1678.39,1044.61 1680.58,1046.05 1682.78,1047.49 1684.98,1048.93 1687.17,1050.37 1689.37,1051.81 1691.57,1053.25 
  1693.76,1054.69 1695.96,1056.13 1698.16,1057.57 1700.35,1059 1702.55,1060.44 1704.75,1061.88 1706.94,1063.32 1709.14,1064.76 1711.34,1066.2 1713.53,1067.64 
  1715.73,1069.08 1717.93,1070.52 1720.12,1071.96 1722.32,1073.4 1724.52,1074.84 1726.71,1076.27 1728.91,1077.71 1731.11,1079.15 1733.3,1080.59 1735.5,1082.03 
  1737.7,1083.47 1739.89,1084.91 1742.09,1086.35 1744.29,1087.79 1746.48,1089.23 1748.68,1090.67 1750.88,1092.11 1753.07,1093.55 1755.27,1094.98 1757.47,1096.42 
  1759.66,1097.86 1761.86,1099.3 1764.06,1100.74 1766.25,1102.18 1768.45,1103.62 1770.65,1105.06 1772.84,1106.5 1775.04,1107.94 1777.24,1109.38 1779.43,1110.82 
  1781.63,1112.25 1783.83,1113.69 1786.02,1115.13 1788.22,1116.57 1790.42,1118.01 1792.61,1119.45 1794.81,1120.89 1797.01,1122.33 1799.2,1123.77 1801.4,1125.21 
  1803.59,1126.65 1805.79,1128.09 1807.99,1129.53 1810.18,1130.96 1812.38,1132.4 1814.58,1133.84 1816.77,1135.28 1818.97,1136.72 1821.17,1138.16 1823.36,1139.6 
  1825.56,1141.04 1827.76,1142.48 1829.95,1143.92 1832.15,1145.36 1834.35,1146.8 1836.54,1148.23 1838.74,1149.67 1840.94,1151.11 1843.13,1152.55 1845.33,1153.99 
  1847.53,1155.43 1849.72,1156.87 1851.92,1158.31 1854.12,1159.75 1856.31,1161.19 1858.51,1162.63 1860.71,1164.07 1862.9,1165.51 1865.1,1166.94 1867.3,1168.38 
  1869.49,1169.82 1871.69,1171.26 1873.89,1172.7 1876.08,1174.14 1878.28,1175.58 1880.48,1177.02 1882.67,1178.46 1884.87,1179.9 1887.07,1181.34 1889.26,1182.78 
  1891.46,1184.22 1893.66,1185.65 1895.85,1187.09 1898.05,1188.53 1900.25,1189.97 1902.44,1191.41 1904.64,1192.85 1906.84,1194.29 1909.03,1195.73 1911.23,1197.17 
  1913.43,1198.61 1915.62,1200.05 1917.82,1201.49 1920.02,1202.92 1922.21,1204.36 1924.41,1205.8 1926.61,1207.24 1928.8,1208.68 1931,1210.12 1933.2,1211.56 
  1935.39,1213 1937.59,1214.44 1939.79,1215.88 1941.98,1217.32 1944.18,1218.76 1946.38,1220.2 1948.57,1221.63 1950.77,1223.07 1952.97,1224.51 1955.16,1225.95 
  1957.36,1227.39 1959.56,1228.83 1961.75,1230.27 1963.95,1231.71 1966.15,1233.15 1968.34,1234.59 1970.54,1236.03 1972.74,1237.47 1974.93,1238.9 1977.13,1240.34 
  1979.33,1241.78 1981.52,1243.22 1983.72,1244.66 1985.92,1246.1 1988.11,1247.54 1990.31,1248.98 1992.51,1250.42 1994.7,1251.86 1996.9,1253.3 1999.1,1254.74 
  2001.29,1256.18 2003.49,1257.61 2005.69,1259.05 2007.88,1260.49 2010.08,1261.93 2012.28,1263.37 2014.47,1264.81 2016.67,1266.25 2018.87,1267.69 2021.06,1269.13 
  2023.26,1270.57 2025.46,1272.01 2027.65,1273.45 2029.85,1274.88 2032.05,1276.32 2034.24,1277.76 2036.44,1279.2 2038.64,1280.64 2040.83,1282.08 2043.03,1283.52 
  2045.23,1284.96 2047.42,1286.4 2049.62,1287.84 2051.82,1289.28 2054.01,1290.72 2056.21,1292.16 2058.41,1293.59 2060.6,1295.03 2062.8,1296.47 2065,1297.91 
  2067.19,1299.35 2069.39,1300.79 2071.59,1302.23 2073.78,1303.67 2075.98,1305.11 2078.18,1306.55 2080.37,1307.99 2082.57,1309.43 2084.77,1310.87 2086.96,1312.3 
  2089.16,1313.74 2091.36,1315.18 2093.55,1316.62 2095.75,1318.06 2097.95,1319.5 2100.14,1320.94 2102.34,1322.38 2104.54,1323.82 2106.73,1325.26 2108.93,1326.7 
  2111.13,1328.14 2113.32,1329.57 2115.52,1331.01 2117.72,1332.45 2119.91,1333.89 2122.11,1335.33 2124.3,1336.77 2126.5,1338.21 2128.7,1339.65 2130.89,1341.09 
  2133.09,1342.53 2135.29,1343.97 2137.48,1345.41 2139.68,1346.85 2141.88,1348.28 2144.07,1349.72 2146.27,1351.16 2148.47,1352.6 2150.66,1354.04 2152.86,1355.48 
  2155.06,1356.92 2157.25,1358.36 2159.45,1359.8 2161.65,1361.24 2163.84,1362.68 2166.04,1364.12 2168.24,1365.55 2170.43,1366.99 2172.63,1368.43 2174.83,1369.87 
  2177.02,1371.31 2179.22,1372.75 2181.42,1374.19 2183.61,1375.63 2185.81,1377.07 2188.01,1378.51 2190.2,1379.95 2192.4,1381.39 2194.6,1382.83 2196.79,1384.26 
  2198.99,1385.7 2201.19,1387.14 2203.38,1388.58 2205.58,1390.02 2207.78,1391.46 2209.97,1392.9 2212.17,1394.34 2214.37,1395.78 2216.56,1397.22 2218.76,1398.66 
  2220.96,1400.1 2223.15,1401.53 2225.35,1402.97 2227.55,1404.41 2229.74,1405.85 2231.94,1407.29 2234.14,1408.73 2236.33,1410.17 2238.53,1411.61 2240.73,1413.05 
  2242.92,1414.49 2245.12,1415.93 2247.32,1417.37 2249.51,1418.81 2251.71,1420.24 2253.91,1421.68 2256.1,1423.12 2258.3,1424.56 2260.5,1426 2262.69,1427.44 
  2264.89,1428.88 2267.09,1430.32 2269.28,1431.76 2271.48,1433.2 2273.68,1434.64 2275.87,1436.08 2278.07,1437.51 2280.27,1438.95 2282.46,1440.39 2284.66,1441.83 
  2286.86,1443.27 2289.05,1444.71 2291.25,1446.15 2293.45,1447.59 2295.64,1449.03 2297.84,1450.47 2300.04,1451.91 2302.23,1453.35 2304.43,1454.79 2306.63,1456.22 
  2308.82,1457.66 2311.02,1459.1 2313.22,1460.54 2315.41,1461.98 2317.61,1463.42 2319.81,1464.86 2322,1466.3 2324.2,1467.74 2326.4,1469.18 2328.59,1470.62 
  2330.79,1472.06 2332.99,1473.5 2335.18,1474.93 2337.38,1476.37 2339.58,1477.81 2341.77,1479.25 2343.97,1480.69 2346.17,1482.13 2348.36,1483.57 2350.56,1485.01 
  2352.76,1486.45 
  "/>
<polyline clip-path="url(#clip122)" style="stroke:#808080; stroke-linecap:butt; stroke-linejoin:round; stroke-width:12; stroke-opacity:1; fill:none" points="
  178.079,1349.72 180.275,1336.05 182.472,1322.38 184.668,1308.71 186.865,1295.03 189.062,1281.36 191.258,1267.69 193.455,1254.02 195.652,1240.34 197.848,1226.67 
  200.045,1213 202.242,1199.33 204.438,1185.65 206.635,1171.98 208.832,1158.31 211.028,1144.64 213.225,1130.96 215.422,1117.29 217.618,1103.62 219.815,1089.95 
  222.011,1076.27 224.208,1062.6 226.405,1048.93 228.601,1035.26 230.798,1021.59 232.995,1007.91 235.191,994.24 237.388,980.568 239.585,966.895 241.781,953.223 
  243.978,939.55 246.175,925.878 248.371,912.206 250.568,898.533 252.764,884.861 254.961,871.188 257.158,857.516 259.354,843.843 261.551,830.171 263.748,816.499 
  265.944,802.826 268.141,789.154 270.338,775.481 272.534,761.809 274.731,748.136 276.928,734.464 279.124,720.791 281.321,707.119 283.517,693.447 285.714,679.774 
  287.911,666.102 290.107,652.429 292.304,638.757 294.501,625.084 296.697,611.412 298.894,597.74 301.091,584.067 303.287,570.395 305.484,556.722 307.681,543.05 
  309.877,529.377 312.074,515.705 314.27,502.032 316.467,488.36 318.664,474.688 320.86,461.015 323.057,447.343 325.254,433.67 327.45,419.998 329.647,406.325 
  331.844,392.653 334.04,378.981 336.237,365.308 338.434,351.636 340.63,337.963 342.827,324.291 345.023,310.618 347.22,296.946 349.417,283.274 351.613,269.601 
  353.81,255.929 356.007,242.256 358.203,228.584 360.4,214.911 362.597,201.239 364.793,187.566 
  "/>
<polyline clip-path="url(#clip122)" style="stroke:#808080; stroke-linecap:butt; stroke-linejoin:round; stroke-width:12; stroke-opacity:1; fill:none" points="
  178.079,1472.06 180.275,1470.62 182.472,1469.18 184.668,1467.74 186.865,1466.3 189.062,1464.86 191.258,1463.42 193.455,1461.98 195.652,1460.54 197.848,1459.1 
  200.045,1457.66 202.242,1456.22 204.438,1454.79 206.635,1453.35 208.832,1451.91 211.028,1450.47 213.225,1449.03 215.422,1447.59 217.618,1446.15 219.815,1444.71 
  222.011,1443.27 224.208,1441.83 226.405,1440.39 228.601,1438.95 230.798,1437.51 232.995,1436.08 235.191,1434.64 237.388,1433.2 239.585,1431.76 241.781,1430.32 
  243.978,1428.88 246.175,1427.44 248.371,1426 250.568,1424.56 252.764,1423.12 254.961,1421.68 257.158,1420.24 259.354,1418.81 261.551,1417.37 263.748,1415.93 
  265.944,1414.49 268.141,1413.05 270.338,1411.61 272.534,1410.17 274.731,1408.73 276.928,1407.29 279.124,1405.85 281.321,1404.41 283.517,1402.97 285.714,1401.53 
  287.911,1400.1 290.107,1398.66 292.304,1397.22 294.501,1395.78 296.697,1394.34 298.894,1392.9 301.091,1391.46 303.287,1390.02 305.484,1388.58 307.681,1387.14 
  309.877,1385.7 312.074,1384.26 314.27,1382.83 316.467,1381.39 318.664,1379.95 320.86,1378.51 323.057,1377.07 325.254,1375.63 327.45,1374.19 329.647,1372.75 
  331.844,1371.31 334.04,1369.87 336.237,1368.43 338.434,1366.99 340.63,1365.55 342.827,1364.12 345.023,1362.68 347.22,1361.24 349.417,1359.8 351.613,1358.36 
  353.81,1356.92 356.007,1355.48 358.203,1354.04 360.4,1352.6 362.597,1351.16 364.793,1349.72 366.99,1348.28 369.187,1346.85 371.383,1345.41 373.58,1343.97 
  375.777,1342.53 377.973,1341.09 380.17,1339.65 382.366,1338.21 384.563,1336.77 386.76,1335.33 388.956,1333.89 391.153,1332.45 393.35,1331.01 395.546,1329.57 
  397.743,1328.14 399.94,1326.7 402.136,1325.26 404.333,1323.82 406.53,1322.38 408.726,1320.94 410.923,1319.5 413.119,1318.06 415.316,1316.62 417.513,1315.18 
  419.709,1313.74 421.906,1312.3 424.103,1310.87 426.299,1309.43 428.496,1307.99 430.693,1306.55 432.889,1305.11 435.086,1303.67 437.283,1302.23 439.479,1300.79 
  441.676,1299.35 443.872,1297.91 446.069,1296.47 448.266,1295.03 450.462,1293.59 452.659,1292.16 454.856,1290.72 457.052,1289.28 459.249,1287.84 461.446,1286.4 
  463.642,1284.96 465.839,1283.52 468.036,1282.08 470.232,1280.64 472.429,1279.2 474.625,1277.76 476.822,1276.32 479.019,1274.88 481.215,1273.45 483.412,1272.01 
  485.609,1270.57 487.805,1269.13 490.002,1267.69 492.199,1266.25 494.395,1264.81 496.592,1263.37 498.789,1261.93 500.985,1260.49 503.182,1259.05 505.378,1257.61 
  507.575,1256.18 509.772,1254.74 511.968,1253.3 514.165,1251.86 516.362,1250.42 518.558,1248.98 520.755,1247.54 522.952,1246.1 525.148,1244.66 527.345,1243.22 
  529.542,1241.78 531.738,1240.34 533.935,1238.9 536.131,1237.47 538.328,1236.03 540.525,1234.59 542.721,1233.15 544.918,1231.71 547.115,1230.27 549.311,1228.83 
  551.508,1227.39 553.705,1225.95 555.901,1224.51 558.098,1223.07 560.295,1221.63 562.491,1220.2 564.688,1218.76 566.885,1217.32 569.081,1215.88 571.278,1214.44 
  573.474,1213 575.671,1211.56 577.868,1210.12 580.064,1208.68 582.261,1207.24 584.458,1205.8 586.654,1204.36 588.851,1202.92 591.048,1201.49 593.244,1200.05 
  595.441,1198.61 597.638,1197.17 599.834,1195.73 602.031,1194.29 604.227,1192.85 606.424,1191.41 608.621,1189.97 610.817,1188.53 613.014,1187.09 615.211,1185.65 
  617.407,1184.22 619.604,1182.78 621.801,1181.34 623.997,1179.9 626.194,1178.46 628.391,1177.02 630.587,1175.58 632.784,1174.14 634.98,1172.7 637.177,1171.26 
  639.374,1169.82 641.57,1168.38 643.767,1166.94 645.964,1165.51 648.16,1164.07 650.357,1162.63 652.554,1161.19 654.75,1159.75 656.947,1158.31 659.144,1156.87 
  661.34,1155.43 663.537,1153.99 665.733,1152.55 667.93,1151.11 670.127,1149.67 672.323,1148.23 674.52,1146.8 676.717,1145.36 678.913,1143.92 681.11,1142.48 
  683.307,1141.04 685.503,1139.6 687.7,1138.16 689.897,1136.72 692.093,1135.28 694.29,1133.84 696.486,1132.4 698.683,1130.96 700.88,1129.53 703.076,1128.09 
  705.273,1126.65 707.47,1125.21 709.666,1123.77 711.863,1122.33 714.06,1120.89 716.256,1119.45 718.453,1118.01 720.65,1116.57 722.846,1115.13 725.043,1113.69 
  727.24,1112.25 729.436,1110.82 731.633,1109.38 733.829,1107.94 736.026,1106.5 738.223,1105.06 740.419,1103.62 742.616,1102.18 744.813,1100.74 747.009,1099.3 
  749.206,1097.86 751.403,1096.42 753.599,1094.98 755.796,1093.55 757.993,1092.11 760.189,1090.67 762.386,1089.23 764.582,1087.79 766.779,1086.35 768.976,1084.91 
  771.172,1083.47 773.369,1082.03 775.566,1080.59 777.762,1079.15 779.959,1077.71 782.156,1076.27 784.352,1074.84 786.549,1073.4 788.746,1071.96 790.942,1070.52 
  793.139,1069.08 795.335,1067.64 797.532,1066.2 799.729,1064.76 801.925,1063.32 804.122,1061.88 806.319,1060.44 808.515,1059 810.712,1057.57 812.909,1056.13 
  815.105,1054.69 817.302,1053.25 819.499,1051.81 821.695,1050.37 823.892,1048.93 826.088,1047.49 828.285,1046.05 830.482,1044.61 832.678,1043.17 834.875,1041.73 
  837.072,1040.29 839.268,1038.86 841.465,1037.42 843.662,1035.98 845.858,1034.54 848.055,1033.1 850.252,1031.66 852.448,1030.22 854.645,1028.78 856.841,1027.34 
  859.038,1025.9 861.235,1024.46 863.431,1023.02 865.628,1021.59 867.825,1020.15 870.021,1018.71 872.218,1017.27 874.415,1015.83 876.611,1014.39 878.808,1012.95 
  881.005,1011.51 883.201,1010.07 885.398,1008.63 887.595,1007.19 889.791,1005.75 891.988,1004.31 894.184,1002.88 896.381,1001.44 898.578,999.997 900.774,998.558 
  902.971,997.119 905.168,995.679 907.364,994.24 909.561,992.801 911.758,991.362 913.954,989.923 916.151,988.483 918.348,987.044 920.544,985.605 922.741,984.166 
  924.937,982.727 927.134,981.287 929.331,979.848 931.527,978.409 933.724,976.97 935.921,975.531 938.117,974.091 940.314,972.652 942.511,971.213 944.707,969.774 
  946.904,968.335 949.101,966.895 951.297,965.456 953.494,964.017 955.69,962.578 957.887,961.138 960.084,959.699 962.28,958.26 964.477,956.821 966.674,955.382 
  968.87,953.942 971.067,952.503 973.264,951.064 975.46,949.625 977.657,948.186 979.854,946.746 982.05,945.307 984.247,943.868 986.443,942.429 988.64,940.99 
  990.837,939.55 993.033,938.111 995.23,936.672 997.427,935.233 999.623,933.794 1001.82,932.354 1004.02,930.915 1006.21,929.476 1008.41,928.037 1010.61,926.598 
  1012.8,925.158 1015,923.719 1017.2,922.28 1019.39,920.841 1021.59,919.402 1023.79,917.962 1025.98,916.523 1028.18,915.084 1030.38,913.645 1032.57,912.206 
  1034.77,910.766 1036.97,909.327 1039.16,907.888 1041.36,906.449 1043.56,905.01 1045.75,903.57 1047.95,902.131 1050.15,900.692 1052.34,899.253 1054.54,897.814 
  1056.74,896.374 1058.93,894.935 1061.13,893.496 1063.33,892.057 1065.52,890.618 1067.72,889.178 1069.92,887.739 1072.11,886.3 1074.31,884.861 1076.51,883.421 
  1078.7,881.982 1080.9,880.543 1083.1,879.104 1085.29,877.665 1087.49,876.225 1089.69,874.786 1091.88,873.347 1094.08,871.908 1096.28,870.469 1098.47,869.029 
  1100.67,867.59 1102.87,866.151 1105.06,864.712 1107.26,863.273 1109.46,861.833 1111.65,860.394 1113.85,858.955 1116.05,857.516 1118.24,856.077 1120.44,854.637 
  1122.64,853.198 1124.83,851.759 1127.03,850.32 1129.23,848.881 1131.42,847.441 1133.62,846.002 1135.82,844.563 1138.01,843.124 1140.21,841.685 1142.41,840.245 
  1144.6,838.806 1146.8,837.367 1149,835.928 1151.19,834.489 1153.39,833.049 1155.59,831.61 1157.78,830.171 1159.98,828.732 1162.17,827.293 1164.37,825.853 
  1166.57,824.414 1168.76,822.975 1170.96,821.536 1173.16,820.097 1175.35,818.657 1177.55,817.218 1179.75,815.779 1181.94,814.34 1184.14,812.901 1186.34,811.461 
  1188.53,810.022 1190.73,808.583 1192.93,807.144 1195.12,805.704 1197.32,804.265 1199.52,802.826 1201.71,801.387 1203.91,799.948 1206.11,798.508 1208.3,797.069 
  1210.5,795.63 1212.7,794.191 1214.89,792.752 1217.09,791.312 1219.29,789.873 1221.48,788.434 1223.68,786.995 1225.88,785.556 1228.07,784.116 1230.27,782.677 
  1232.47,781.238 1234.66,779.799 1236.86,778.36 1239.06,776.92 1241.25,775.481 1243.45,774.042 1245.65,772.603 1247.84,771.164 1250.04,769.724 1252.24,768.285 
  1254.43,766.846 
  "/>
<polyline clip-path="url(#clip122)" style="stroke:#808080; stroke-linecap:butt; stroke-linejoin:round; stroke-width:12; stroke-opacity:1; fill:none" stroke-dasharray="48, 30" points="
  365.316,184.311 367.513,183.592 369.71,182.872 371.906,182.152 374.103,181.433 376.3,180.713 378.496,179.994 380.693,179.274 382.889,178.554 385.086,177.835 
  387.283,177.115 389.479,176.396 391.676,175.676 393.873,174.956 396.069,174.237 398.266,173.517 400.463,172.797 402.659,172.078 404.856,171.358 407.053,170.639 
  409.249,169.919 411.446,169.199 413.642,168.48 415.839,167.76 418.036,167.041 420.232,166.321 422.429,165.601 424.626,164.882 426.822,164.162 429.019,163.443 
  431.216,162.723 433.412,162.003 435.609,161.284 437.806,160.564 440.002,159.845 442.199,159.125 444.395,158.405 446.592,157.686 448.789,156.966 450.985,156.247 
  453.182,155.527 455.379,154.807 457.575,154.088 459.772,153.368 461.969,152.649 464.165,151.929 466.362,151.209 468.559,150.49 470.755,149.77 472.952,149.051 
  475.148,148.331 477.345,147.611 479.542,146.892 481.738,146.172 483.935,145.453 486.132,144.733 488.328,144.013 490.525,143.294 492.722,142.574 494.918,141.855 
  497.115,141.135 499.312,140.415 501.508,139.696 503.705,138.976 505.901,138.257 508.098,137.537 510.295,136.817 512.491,136.098 514.688,135.378 516.885,134.659 
  519.081,133.939 521.278,133.219 523.475,132.5 525.671,131.78 527.868,131.061 530.065,130.341 532.261,129.621 534.458,128.902 536.655,128.182 538.851,127.463 
  541.048,126.743 543.244,126.023 545.441,125.304 547.638,124.584 549.834,123.865 552.031,123.145 554.228,122.425 556.424,121.706 558.621,120.986 560.818,120.267 
  563.014,119.547 565.211,118.827 567.408,118.108 569.604,117.388 571.801,116.669 573.997,115.949 576.194,115.229 578.391,114.51 580.587,113.79 582.784,113.071 
  584.981,112.351 587.177,111.631 589.374,110.912 591.571,110.192 593.767,109.473 595.964,108.753 598.161,108.033 600.357,107.314 602.554,106.594 604.75,105.875 
  606.947,105.155 609.144,104.435 611.34,103.716 613.537,102.996 615.734,102.277 617.93,101.557 620.127,100.837 622.324,100.118 624.52,99.3981 626.717,98.6785 
  628.914,97.9589 631.11,97.2393 633.307,96.5197 635.503,95.8001 637.7,95.0805 639.897,94.3609 642.093,93.6413 644.29,92.9217 646.487,92.2021 648.683,91.4825 
  650.88,90.7629 653.077,90.0433 655.273,89.3237 657.47,88.6041 659.667,87.8845 661.863,87.1649 664.06,86.4453 666.256,85.7257 668.453,85.0061 670.65,84.2865 
  672.846,83.5669 675.043,82.8473 677.24,82.1277 679.436,81.4081 681.633,80.6884 683.83,79.9688 686.026,79.2492 688.223,78.5296 690.42,77.81 692.616,77.0904 
  694.813,76.3708 697.01,75.6512 699.206,74.9316 701.403,74.212 703.599,73.4924 705.796,72.7728 707.993,72.0532 710.189,71.3336 712.386,70.614 714.583,69.8944 
  716.779,69.1748 718.976,68.4552 721.173,67.7356 723.369,67.016 725.566,66.2964 727.763,65.5768 729.959,64.8572 732.156,64.1376 734.352,63.418 736.549,62.6984 
  738.746,61.9788 740.942,61.2592 743.139,60.5396 745.336,59.82 747.532,59.1004 749.729,58.3808 751.926,57.6612 754.122,56.9416 756.319,56.222 758.516,55.5024 
  760.712,54.7828 762.909,54.0632 765.105,53.3436 767.302,52.624 769.499,51.9044 771.695,51.1848 773.892,50.4652 776.089,49.7456 778.285,49.026 780.482,48.3064 
  782.679,47.5868 784.875,46.8672 787.072,46.1476 789.269,45.428 791.465,44.7084 793.662,43.9888 795.858,43.2692 798.055,42.5495 800.252,41.8299 802.448,41.1103 
  804.645,40.3907 806.842,39.6711 809.038,38.9515 811.235,38.2319 813.432,37.5123 815.628,36.7927 817.825,36.0731 820.022,35.3535 822.218,34.6339 824.415,33.9143 
  826.611,33.1947 828.808,32.4751 831.005,31.7555 833.201,31.0359 835.398,30.3163 837.595,29.5967 839.791,28.8771 841.988,28.1575 844.185,27.4379 846.381,26.7183 
  848.578,25.9987 850.775,25.2791 852.971,24.5595 855.168,23.8399 857.365,23.1203 859.561,22.4007 861.758,21.6811 863.954,20.9615 866.151,20.2419 868.348,19.5223 
  870.544,18.8027 872.741,18.0831 874.938,17.3635 877.134,16.6439 879.331,15.9243 881.528,15.2047 883.724,14.4851 885.921,13.7655 888.118,13.0459 890.314,12.3263 
  892.511,11.6067 894.707,10.8871 896.904,10.1675 899.101,9.44786 901.297,8.72826 903.494,8.00866 905.691,7.28906 907.887,6.56945 910.084,5.84985 912.281,5.13025 
  914.477,4.41065 916.674,3.69105 918.871,2.97144 921.067,2.25184 923.264,1.53224 925.46,0.812639 927.657,0.0930373 929.854,-0.626565 932.05,-1.34617 934.247,-2.06577 
  936.444,-2.78537 938.64,-3.50497 940.837,-4.22457 943.034,-4.94418 945.23,-5.66378 947.427,-6.38338 949.624,-7.10298 951.82,-7.82258 954.017,-8.54219 956.213,-9.26179 
  958.41,-9.98139 960.607,-10.701 962.803,-11.4206 965,-12.1402 967.197,-12.8598 969.393,-13.5794 971.59,-14.299 973.787,-15.0186 975.983,-15.7382 978.18,-16.4578 
  980.377,-17.1774 982.573,-17.897 984.77,-18.6166 986.966,-19.3362 989.163,-20.0558 991.36,-20.7754 993.556,-21.495 995.753,-22.2146 997.95,-22.9342 1000.15,-23.6538 
  1002.34,-24.3734 1004.54,-25.093 1006.74,-25.8126 1008.93,-26.5322 1011.13,-27.2518 1013.33,-27.9714 1015.52,-28.691 1017.72,-29.4106 1019.92,-30.1302 1022.11,-30.8498 
  1024.31,-31.5694 1026.51,-32.289 1028.7,-33.0086 1030.9,-33.7283 1033.1,-34.4479 1035.29,-35.1675 1037.49,-35.8871 1039.69,-36.6067 1041.88,-37.3263 1044.08,-38.0459 
  1046.28,-38.7655 1048.47,-39.4851 1050.67,-40.2047 1052.87,-40.9243 1055.06,-41.6439 1057.26,-42.3635 1059.46,-43.0831 1061.65,-43.8027 1063.85,-44.5223 1066.05,-45.2419 
  1068.24,-45.9615 1070.44,-46.6811 1072.64,-47.4007 1074.83,-48.1203 1077.03,-48.8399 1079.23,-49.5595 1081.42,-50.2791 1083.62,-50.9987 1085.82,-51.7183 1088.01,-52.4379 
  1090.21,-53.1575 1092.41,-53.8771 1094.6,-54.5967 1096.8,-55.3163 1099,-56.0359 1101.19,-56.7555 1103.39,-57.4751 1105.59,-58.1947 1107.78,-58.9143 1109.98,-59.6339 
  1112.18,-60.3535 1114.37,-61.0731 1116.57,-61.7927 1118.77,-62.5123 1120.96,-63.2319 1123.16,-63.9515 1125.36,-64.6711 1127.55,-65.3907 1129.75,-66.1103 1131.94,-66.8299 
  1134.14,-67.5495 1136.34,-68.2691 1138.53,-68.9887 1140.73,-69.7083 1142.93,-70.4279 1145.12,-71.1475 1147.32,-71.8672 1149.52,-72.5868 1151.71,-73.3064 1153.91,-74.026 
  1156.11,-74.7456 1158.3,-75.4652 1160.5,-76.1848 1162.7,-76.9044 1164.89,-77.624 1167.09,-78.3436 1169.29,-79.0632 1171.48,-79.7828 1173.68,-80.5024 1175.88,-81.222 
  1178.07,-81.9416 1180.27,-82.6612 1182.47,-83.3808 1184.66,-84.1004 1186.86,-84.82 1189.06,-85.5396 1191.25,-86.2592 1193.45,-86.9788 1195.65,-87.6984 1197.84,-88.418 
  1200.04,-89.1376 1202.24,-89.8572 1204.43,-90.5768 1206.63,-91.2964 1208.83,-92.016 1211.02,-92.7356 1213.22,-93.4552 1215.42,-94.1748 1217.61,-94.8944 1219.81,-95.614 
  1222.01,-96.3336 1224.2,-97.0532 1226.4,-97.7728 1228.6,-98.4924 1230.79,-99.212 1232.99,-99.9316 1235.19,-100.651 1237.38,-101.371 1239.58,-102.09 1241.78,-102.81 
  1243.97,-103.53 1246.17,-104.249 1248.37,-104.969 1250.56,-105.688 1252.76,-106.408 1254.96,-107.128 1257.15,-107.847 1259.35,-108.567 1261.55,-109.286 1263.74,-110.006 
  1265.94,-110.726 1268.14,-111.445 1270.33,-112.165 1272.53,-112.884 1274.73,-113.604 1276.92,-114.324 1279.12,-115.043 1281.32,-115.763 1283.51,-116.482 1285.71,-117.202 
  1287.91,-117.922 1290.1,-118.641 1292.3,-119.361 1294.5,-120.08 1296.69,-120.8 1298.89,-121.52 1301.09,-122.239 1303.28,-122.959 1305.48,-123.678 1307.68,-124.398 
  1309.87,-125.118 1312.07,-125.837 1314.27,-126.557 1316.46,-127.276 1318.66,-127.996 1320.86,-128.716 1323.05,-129.435 1325.25,-130.155 1327.45,-130.875 1329.64,-131.594 
  1331.84,-132.314 1334.04,-133.033 1336.23,-133.753 1338.43,-134.473 1340.63,-135.192 1342.82,-135.912 1345.02,-136.631 1347.22,-137.351 1349.41,-138.071 1351.61,-138.79 
  1353.81,-139.51 1356,-140.229 1358.2,-140.949 1360.4,-141.669 1362.59,-142.388 1364.79,-143.108 1366.99,-143.827 1369.18,-144.547 1371.38,-145.267 1373.58,-145.986 
  1375.77,-146.706 1377.97,-147.425 1380.17,-148.145 1382.36,-148.865 1384.56,-149.584 1386.76,-150.304 1388.95,-151.023 1391.15,-151.743 1393.35,-152.463 1395.54,-153.182 
  1397.74,-153.902 1399.94,-154.621 1402.13,-155.341 1404.33,-156.061 1406.53,-156.78 1408.72,-157.5 1410.92,-158.219 1413.12,-158.939 1415.31,-159.659 1417.51,-160.378 
  1419.71,-161.098 1421.9,-161.817 1424.1,-162.537 1426.3,-163.257 1428.49,-163.976 1430.69,-164.696 1432.89,-165.415 1435.08,-166.135 1437.28,-166.855 1439.48,-167.574 
  1441.67,-168.294 1443.87,-169.013 1446.07,-169.733 1448.26,-170.453 1450.46,-171.172 1452.65,-171.892 1454.85,-172.611 1457.05,-173.331 1459.24,-174.051 1461.44,-174.77 
  1463.64,-175.49 1465.83,-176.209 1468.03,-176.929 1470.23,-177.649 1472.42,-178.368 1474.62,-179.088 1476.82,-179.807 1479.01,-180.527 1481.21,-181.247 1483.41,-181.966 
  1485.6,-182.686 1487.8,-183.405 1490,-184.125 1492.19,-184.845 1494.39,-185.564 1496.59,-186.284 1498.78,-187.003 1500.98,-187.723 1503.18,-188.443 1505.37,-189.162 
  1507.57,-189.882 1509.77,-190.601 1511.96,-191.321 1514.16,-192.041 1516.36,-192.76 1518.55,-193.48 1520.75,-194.199 1522.95,-194.919 1525.14,-195.639 1527.34,-196.358 
  1529.54,-197.078 1531.73,-197.797 1533.93,-198.517 1536.13,-199.237 1538.32,-199.956 1540.52,-200.676 1542.72,-201.395 1544.91,-202.115 1547.11,-202.835 1549.31,-203.554 
  1551.5,-204.274 1553.7,-204.994 1555.9,-205.713 1558.09,-206.433 1560.29,-207.152 1562.49,-207.872 1564.68,-208.592 1566.88,-209.311 1569.08,-210.031 1571.27,-210.75 
  1573.47,-211.47 1575.67,-212.19 1577.86,-212.909 1580.06,-213.629 1582.26,-214.348 1584.45,-215.068 1586.65,-215.788 1588.85,-216.507 1591.04,-217.227 1593.24,-217.946 
  1595.44,-218.666 1597.63,-219.386 1599.83,-220.105 1602.03,-220.825 1604.22,-221.544 1606.42,-222.264 1608.62,-222.984 1610.81,-223.703 1613.01,-224.423 1615.21,-225.142 
  1617.4,-225.862 1619.6,-226.582 1621.8,-227.301 1623.99,-228.021 1626.19,-228.74 1628.39,-229.46 1630.58,-230.18 1632.78,-230.899 1634.98,-231.619 1637.17,-232.338 
  1639.37,-233.058 1641.57,-233.778 1643.76,-234.497 1645.96,-235.217 1648.16,-235.936 1650.35,-236.656 1652.55,-237.376 1654.75,-238.095 1656.94,-238.815 1659.14,-239.534 
  1661.34,-240.254 1663.53,-240.974 1665.73,-241.693 1667.93,-242.413 1670.12,-243.132 1672.32,-243.852 1674.52,-244.572 1676.71,-245.291 1678.91,-246.011 1681.11,-246.73 
  1683.3,-247.45 1685.5,-248.17 1687.7,-248.889 1689.89,-249.609 1692.09,-250.328 1694.29,-251.048 1696.48,-251.768 1698.68,-252.487 1700.88,-253.207 1703.07,-253.926 
  1705.27,-254.646 1707.47,-255.366 1709.66,-256.085 1711.86,-256.805 1714.06,-257.524 1716.25,-258.244 1718.45,-258.964 1720.65,-259.683 1722.84,-260.403 1725.04,-261.122 
  1727.24,-261.842 1729.43,-262.562 1731.63,-263.281 1733.83,-264.001 1736.02,-264.72 1738.22,-265.44 1740.42,-266.16 1742.61,-266.879 1744.81,-267.599 1747.01,-268.318 
  1749.2,-269.038 1751.4,-269.758 1753.6,-270.477 1755.79,-271.197 1757.99,-271.916 1760.19,-272.636 1762.38,-273.356 1764.58,-274.075 1766.78,-274.795 1768.97,-275.514 
  1771.17,-276.234 1773.36,-276.954 1775.56,-277.673 1777.76,-278.393 1779.95,-279.112 1782.15,-279.832 1784.35,-280.552 1786.54,-281.271 1788.74,-281.991 1790.94,-282.711 
  1793.13,-283.43 1795.33,-284.15 1797.53,-284.869 1799.72,-285.589 1801.92,-286.309 1804.12,-287.028 1806.31,-287.748 1808.51,-288.467 1810.71,-289.187 1812.9,-289.907 
  1815.1,-290.626 1817.3,-291.346 1819.49,-292.065 1821.69,-292.785 1823.89,-293.505 1826.08,-294.224 1828.28,-294.944 1830.48,-295.663 1832.67,-296.383 1834.87,-297.103 
  1837.07,-297.822 1839.26,-298.542 1841.46,-299.261 1843.66,-299.981 1845.85,-300.701 1848.05,-301.42 1850.25,-302.14 1852.44,-302.859 1854.64,-303.579 1856.84,-304.299 
  1859.03,-305.018 1861.23,-305.738 1863.43,-306.457 1865.62,-307.177 1867.82,-307.897 1870.02,-308.616 1872.21,-309.336 1874.41,-310.055 1876.61,-310.775 1878.8,-311.495 
  1881,-312.214 1883.2,-312.934 1885.39,-313.653 1887.59,-314.373 1889.79,-315.093 1891.98,-315.812 1894.18,-316.532 1896.38,-317.251 1898.57,-317.971 1900.77,-318.691 
  1902.97,-319.41 1905.16,-320.13 1907.36,-320.849 1909.56,-321.569 1911.75,-322.289 1913.95,-323.008 1916.15,-323.728 1918.34,-324.447 1920.54,-325.167 1922.74,-325.887 
  1924.93,-326.606 1927.13,-327.326 1929.33,-328.045 1931.52,-328.765 1933.72,-329.485 1935.92,-330.204 1938.11,-330.924 1940.31,-331.643 1942.51,-332.363 1944.7,-333.083 
  1946.9,-333.802 1949.1,-334.522 1951.29,-335.241 1953.49,-335.961 1955.69,-336.681 1957.88,-337.4 1960.08,-338.12 1962.28,-338.839 1964.47,-339.559 1966.67,-340.279 
  1968.87,-340.998 1971.06,-341.718 1973.26,-342.437 1975.46,-343.157 1977.65,-343.877 1979.85,-344.596 1982.05,-345.316 1984.24,-346.035 1986.44,-346.755 1988.64,-347.475 
  1990.83,-348.194 1993.03,-348.914 1995.23,-349.633 1997.42,-350.353 1999.62,-351.073 2001.82,-351.792 2004.01,-352.512 2006.21,-353.231 2008.41,-353.951 2010.6,-354.671 
  2012.8,-355.39 2015,-356.11 2017.19,-356.829 2019.39,-357.549 2021.59,-358.269 2023.78,-358.988 2025.98,-359.708 2028.18,-360.428 2030.37,-361.147 2032.57,-361.867 
  2034.77,-362.586 2036.96,-363.306 2039.16,-364.026 2041.36,-364.745 2043.55,-365.465 2045.75,-366.184 2047.95,-366.904 2050.14,-367.624 2052.34,-368.343 2054.54,-369.063 
  2056.73,-369.782 2058.93,-370.502 2061.13,-371.222 2063.32,-371.941 2065.52,-372.661 2067.72,-373.38 2069.91,-374.1 2072.11,-374.82 2074.31,-375.539 2076.5,-376.259 
  2078.7,-376.978 2080.9,-377.698 2083.09,-378.418 2085.29,-379.137 2087.49,-379.857 2089.68,-380.576 2091.88,-381.296 2094.07,-382.016 2096.27,-382.735 2098.47,-383.455 
  2100.66,-384.174 2102.86,-384.894 2105.06,-385.614 2107.25,-386.333 2109.45,-387.053 2111.65,-387.772 2113.84,-388.492 2116.04,-389.212 2118.24,-389.931 2120.43,-390.651 
  2122.63,-391.37 2124.83,-392.09 2127.02,-392.81 2129.22,-393.529 2131.42,-394.249 2133.61,-394.968 2135.81,-395.688 2138.01,-396.408 2140.2,-397.127 2142.4,-397.847 
  2144.6,-398.566 2146.79,-399.286 2148.99,-400.006 2151.19,-400.725 2153.38,-401.445 2155.58,-402.164 2157.78,-402.884 2159.97,-403.604 2162.17,-404.323 2164.37,-405.043 
  2166.56,-405.762 2168.76,-406.482 2170.96,-407.202 2173.15,-407.921 2175.35,-408.641 2177.55,-409.36 2179.74,-410.08 2181.94,-410.8 2184.14,-411.519 2186.33,-412.239 
  2188.53,-412.958 2190.73,-413.678 2192.92,-414.398 2195.12,-415.117 2197.32,-415.837 2199.51,-416.556 2201.71,-417.276 2203.91,-417.996 2206.1,-418.715 2208.3,-419.435 
  2210.5,-420.154 2212.69,-420.874 2214.89,-421.594 2217.09,-422.313 2219.28,-423.033 2221.48,-423.752 2223.68,-424.472 2225.87,-425.192 2228.07,-425.911 2230.27,-426.631 
  2232.46,-427.35 2234.66,-428.07 2236.86,-428.79 2239.05,-429.509 2241.25,-430.229 2243.45,-430.948 2245.64,-431.668 2247.84,-432.388 2250.04,-433.107 2252.23,-433.827 
  2254.43,-434.547 2256.63,-435.266 2258.82,-435.986 2261.02,-436.705 2263.22,-437.425 2265.41,-438.145 2267.61,-438.864 2269.81,-439.584 2272,-440.303 2274.2,-441.023 
  2276.4,-441.743 2278.59,-442.462 2280.79,-443.182 2282.99,-443.901 2285.18,-444.621 2287.38,-445.341 2289.58,-446.06 2291.77,-446.78 2293.97,-447.499 2296.17,-448.219 
  2298.36,-448.939 2300.56,-449.658 2302.76,-450.378 2304.95,-451.097 2307.15,-451.817 2309.35,-452.537 2311.54,-453.256 2313.74,-453.976 2315.94,-454.695 2318.13,-455.415 
  2320.33,-456.135 2322.53,-456.854 2324.72,-457.574 2326.92,-458.293 2329.12,-459.013 2331.31,-459.733 2333.51,-460.452 2335.71,-461.172 2337.9,-461.891 2340.1,-462.611 
  2342.3,-463.331 2344.49,-464.05 2346.69,-464.77 2348.89,-465.489 2351.08,-466.209 
  "/>
<polyline clip-path="url(#clip122)" style="stroke:#808080; stroke-linecap:butt; stroke-linejoin:round; stroke-width:12; stroke-opacity:1; fill:none" stroke-dasharray="48, 30" points="
  1254.43,766.846 1256.63,766.126 1258.83,765.407 1261.02,764.687 1263.22,763.968 1265.42,763.248 1267.61,762.528 1269.81,761.809 1272.01,761.089 1274.2,760.37 
  1276.4,759.65 1278.6,758.93 1280.79,758.211 1282.99,757.491 1285.19,756.772 1287.38,756.052 1289.58,755.332 1291.78,754.613 1293.97,753.893 1296.17,753.174 
  1298.37,752.454 1300.56,751.734 1302.76,751.015 1304.96,750.295 1307.15,749.576 1309.35,748.856 1311.55,748.136 1313.74,747.417 1315.94,746.697 1318.14,745.978 
  1320.33,745.258 1322.53,744.538 1324.73,743.819 1326.92,743.099 1329.12,742.38 1331.32,741.66 1333.51,740.94 1335.71,740.221 1337.91,739.501 1340.1,738.782 
  1342.3,738.062 1344.5,737.342 1346.69,736.623 1348.89,735.903 1351.09,735.184 1353.28,734.464 1355.48,733.744 1357.68,733.025 1359.87,732.305 1362.07,731.585 
  1364.27,730.866 1366.46,730.146 1368.66,729.427 1370.86,728.707 1373.05,727.987 1375.25,727.268 1377.45,726.548 1379.64,725.829 1381.84,725.109 1384.04,724.389 
  1386.23,723.67 1388.43,722.95 1390.63,722.231 1392.82,721.511 1395.02,720.791 1397.22,720.072 1399.41,719.352 1401.61,718.633 1403.81,717.913 1406,717.193 
  1408.2,716.474 1410.4,715.754 1412.59,715.035 1414.79,714.315 1416.99,713.595 1419.18,712.876 1421.38,712.156 1423.58,711.437 1425.77,710.717 1427.97,709.997 
  1430.17,709.278 1432.36,708.558 1434.56,707.839 1436.76,707.119 1438.95,706.399 1441.15,705.68 1443.35,704.96 1445.54,704.241 1447.74,703.521 1449.94,702.801 
  1452.13,702.082 1454.33,701.362 1456.53,700.643 1458.72,699.923 1460.92,699.203 1463.12,698.484 1465.31,697.764 1467.51,697.045 1469.71,696.325 1471.9,695.605 
  1474.1,694.886 1476.3,694.166 1478.49,693.447 1480.69,692.727 1482.88,692.007 1485.08,691.288 1487.28,690.568 1489.47,689.849 1491.67,689.129 1493.87,688.409 
  1496.06,687.69 1498.26,686.97 1500.46,686.251 1502.65,685.531 1504.85,684.811 1507.05,684.092 1509.24,683.372 1511.44,682.653 1513.64,681.933 1515.83,681.213 
  1518.03,680.494 1520.23,679.774 1522.42,679.055 1524.62,678.335 1526.82,677.615 1529.01,676.896 1531.21,676.176 1533.41,675.457 1535.6,674.737 1537.8,674.017 
  1540,673.298 1542.19,672.578 1544.39,671.859 1546.59,671.139 1548.78,670.419 1550.98,669.7 1553.18,668.98 1555.37,668.261 1557.57,667.541 1559.77,666.821 
  1561.96,666.102 1564.16,665.382 1566.36,664.663 1568.55,663.943 1570.75,663.223 1572.95,662.504 1575.14,661.784 1577.34,661.065 1579.54,660.345 1581.73,659.625 
  1583.93,658.906 1586.13,658.186 1588.32,657.466 1590.52,656.747 1592.72,656.027 1594.91,655.308 1597.11,654.588 1599.31,653.868 1601.5,653.149 1603.7,652.429 
  1605.9,651.71 1608.09,650.99 1610.29,650.27 1612.49,649.551 1614.68,648.831 1616.88,648.112 1619.08,647.392 1621.27,646.672 1623.47,645.953 1625.67,645.233 
  1627.86,644.514 1630.06,643.794 1632.26,643.074 1634.45,642.355 1636.65,641.635 1638.85,640.916 1641.04,640.196 1643.24,639.476 1645.44,638.757 1647.63,638.037 
  1649.83,637.318 1652.03,636.598 1654.22,635.878 1656.42,635.159 1658.62,634.439 1660.81,633.72 1663.01,633 1665.21,632.28 1667.4,631.561 1669.6,630.841 
  1671.8,630.122 1673.99,629.402 1676.19,628.682 1678.39,627.963 1680.58,627.243 1682.78,626.524 1684.98,625.804 1687.17,625.084 1689.37,624.365 1691.57,623.645 
  1693.76,622.926 1695.96,622.206 1698.16,621.486 1700.35,620.767 1702.55,620.047 1704.75,619.328 1706.94,618.608 1709.14,617.888 1711.34,617.169 1713.53,616.449 
  1715.73,615.73 1717.93,615.01 1720.12,614.29 1722.32,613.571 1724.52,612.851 1726.71,612.132 1728.91,611.412 1731.11,610.692 1733.3,609.973 1735.5,609.253 
  1737.7,608.534 1739.89,607.814 1742.09,607.094 1744.29,606.375 1746.48,605.655 1748.68,604.936 1750.88,604.216 1753.07,603.496 1755.27,602.777 1757.47,602.057 
  1759.66,601.338 1761.86,600.618 1764.06,599.898 1766.25,599.179 1768.45,598.459 1770.65,597.74 1772.84,597.02 1775.04,596.3 1777.24,595.581 1779.43,594.861 
  1781.63,594.142 1783.83,593.422 1786.02,592.702 1788.22,591.983 1790.42,591.263 1792.61,590.544 1794.81,589.824 1797.01,589.104 1799.2,588.385 1801.4,587.665 
  1803.59,586.946 1805.79,586.226 1807.99,585.506 1810.18,584.787 1812.38,584.067 1814.58,583.348 1816.77,582.628 1818.97,581.908 1821.17,581.189 1823.36,580.469 
  1825.56,579.749 1827.76,579.03 1829.95,578.31 1832.15,577.591 1834.35,576.871 1836.54,576.151 1838.74,575.432 1840.94,574.712 1843.13,573.993 1845.33,573.273 
  1847.53,572.553 1849.72,571.834 1851.92,571.114 1854.12,570.395 1856.31,569.675 1858.51,568.955 1860.71,568.236 1862.9,567.516 1865.1,566.797 1867.3,566.077 
  1869.49,565.357 1871.69,564.638 1873.89,563.918 1876.08,563.199 1878.28,562.479 1880.48,561.759 1882.67,561.04 1884.87,560.32 1887.07,559.601 1889.26,558.881 
  1891.46,558.161 1893.66,557.442 1895.85,556.722 1898.05,556.003 1900.25,555.283 1902.44,554.563 1904.64,553.844 1906.84,553.124 1909.03,552.405 1911.23,551.685 
  1913.43,550.965 1915.62,550.246 1917.82,549.526 1920.02,548.807 1922.21,548.087 1924.41,547.367 1926.61,546.648 1928.8,545.928 1931,545.209 1933.2,544.489 
  1935.39,543.769 1937.59,543.05 1939.79,542.33 1941.98,541.611 1944.18,540.891 1946.38,540.171 1948.57,539.452 1950.77,538.732 1952.97,538.013 1955.16,537.293 
  1957.36,536.573 1959.56,535.854 1961.75,535.134 1963.95,534.415 1966.15,533.695 1968.34,532.975 1970.54,532.256 1972.74,531.536 1974.93,530.817 1977.13,530.097 
  1979.33,529.377 1981.52,528.658 1983.72,527.938 1985.92,527.219 1988.11,526.499 1990.31,525.779 1992.51,525.06 1994.7,524.34 1996.9,523.621 1999.1,522.901 
  2001.29,522.181 2003.49,521.462 2005.69,520.742 2007.88,520.023 2010.08,519.303 2012.28,518.583 2014.47,517.864 2016.67,517.144 2018.87,516.425 2021.06,515.705 
  2023.26,514.985 2025.46,514.266 2027.65,513.546 2029.85,512.827 2032.05,512.107 2034.24,511.387 2036.44,510.668 2038.64,509.948 2040.83,509.229 2043.03,508.509 
  2045.23,507.789 2047.42,507.07 2049.62,506.35 2051.82,505.63 2054.01,504.911 2056.21,504.191 2058.41,503.472 2060.6,502.752 2062.8,502.032 2065,501.313 
  2067.19,500.593 2069.39,499.874 2071.59,499.154 2073.78,498.434 2075.98,497.715 2078.18,496.995 2080.37,496.276 2082.57,495.556 2084.77,494.836 2086.96,494.117 
  2089.16,493.397 2091.36,492.678 2093.55,491.958 2095.75,491.238 2097.95,490.519 2100.14,489.799 2102.34,489.08 2104.54,488.36 2106.73,487.64 2108.93,486.921 
  2111.13,486.201 2113.32,485.482 2115.52,484.762 2117.72,484.042 2119.91,483.323 2122.11,482.603 2124.3,481.884 2126.5,481.164 2128.7,480.444 2130.89,479.725 
  2133.09,479.005 2135.29,478.286 2137.48,477.566 2139.68,476.846 2141.88,476.127 2144.07,475.407 2146.27,474.688 2148.47,473.968 2150.66,473.248 2152.86,472.529 
  2155.06,471.809 2157.25,471.09 2159.45,470.37 2161.65,469.65 2163.84,468.931 2166.04,468.211 2168.24,467.492 2170.43,466.772 2172.63,466.052 2174.83,465.333 
  2177.02,464.613 2179.22,463.894 2181.42,463.174 2183.61,462.454 2185.81,461.735 2188.01,461.015 2190.2,460.296 2192.4,459.576 2194.6,458.856 2196.79,458.137 
  2198.99,457.417 2201.19,456.698 2203.38,455.978 2205.58,455.258 2207.78,454.539 2209.97,453.819 2212.17,453.1 2214.37,452.38 2216.56,451.66 2218.76,450.941 
  2220.96,450.221 2223.15,449.502 2225.35,448.782 2227.55,448.062 2229.74,447.343 2231.94,446.623 2234.14,445.904 2236.33,445.184 2238.53,444.464 2240.73,443.745 
  2242.92,443.025 2245.12,442.306 2247.32,441.586 2249.51,440.866 2251.71,440.147 2253.91,439.427 2256.1,438.708 2258.3,437.988 2260.5,437.268 2262.69,436.549 
  2264.89,435.829 2267.09,435.11 2269.28,434.39 2271.48,433.67 2273.68,432.951 2275.87,432.231 2278.07,431.512 2280.27,430.792 2282.46,430.072 2284.66,429.353 
  2286.86,428.633 2289.05,427.913 2291.25,427.194 2293.45,426.474 2295.64,425.755 2297.84,425.035 2300.04,424.315 2302.23,423.596 2304.43,422.876 2306.63,422.157 
  2308.82,421.437 2311.02,420.717 2313.22,419.998 2315.41,419.278 2317.61,418.559 2319.81,417.839 2322,417.119 2324.2,416.4 2326.4,415.68 2328.59,414.961 
  2330.79,414.241 2332.99,413.521 2335.18,412.802 2337.38,412.082 2339.58,411.363 2341.77,410.643 2343.97,409.923 2346.17,409.204 2348.36,408.484 2350.56,407.765 
  2352.76,407.045 
  "/>
<polyline clip-path="url(#clip122)" style="stroke:#808080; stroke-linecap:butt; stroke-linejoin:round; stroke-width:8; stroke-opacity:1; fill:none" points="
  365.316,184.311 367.513,184.311 369.71,184.311 371.906,184.311 374.103,184.311 376.3,184.311 378.496,184.311 380.693,184.311 382.889,184.311 385.086,184.311 
  387.283,184.311 389.479,184.311 391.676,184.311 393.873,184.311 396.069,184.311 398.266,184.311 400.463,184.311 402.659,184.311 404.856,184.311 407.053,184.311 
  409.249,184.311 411.446,184.311 413.642,184.311 415.839,184.311 418.036,184.311 420.232,184.311 422.429,184.311 424.626,184.311 426.822,184.311 429.019,184.311 
  431.216,184.311 433.412,184.311 435.609,184.311 437.806,184.311 440.002,184.311 442.199,184.311 444.395,184.311 446.592,184.311 448.789,184.311 450.985,184.311 
  453.182,184.311 455.379,184.311 457.575,184.311 459.772,184.311 461.969,184.311 464.165,184.311 466.362,184.311 468.559,184.311 470.755,184.311 472.952,184.311 
  475.148,184.311 477.345,184.311 479.542,184.311 481.738,184.311 483.935,184.311 486.132,184.311 488.328,184.311 490.525,184.311 492.722,184.311 494.918,184.311 
  497.115,184.311 499.312,184.311 501.508,184.311 503.705,184.311 505.901,184.311 508.098,184.311 510.295,184.311 512.491,184.311 514.688,184.311 516.885,184.311 
  519.081,184.311 521.278,184.311 523.475,184.311 525.671,184.311 527.868,184.311 530.065,184.311 532.261,184.311 534.458,184.311 536.655,184.311 538.851,184.311 
  541.048,184.311 543.244,184.311 545.441,184.311 547.638,184.311 549.834,184.311 552.031,184.311 554.228,184.311 556.424,184.311 558.621,184.311 560.818,184.311 
  563.014,184.311 565.211,184.311 567.408,184.311 569.604,184.311 571.801,184.311 573.997,184.311 576.194,184.311 578.391,184.311 580.587,184.311 582.784,184.311 
  584.981,184.311 587.177,184.311 589.374,184.311 591.571,184.311 593.767,184.311 595.964,184.311 598.161,184.311 600.357,184.311 602.554,184.311 604.75,184.311 
  606.947,184.311 609.144,184.311 611.34,184.311 613.537,184.311 615.734,184.311 617.93,184.311 620.127,184.311 622.324,184.311 624.52,184.311 626.717,184.311 
  628.914,184.311 631.11,184.311 633.307,184.311 635.503,184.311 637.7,184.311 639.897,184.311 642.093,184.311 644.29,184.311 646.487,184.311 648.683,184.311 
  650.88,184.311 653.077,184.311 655.273,184.311 657.47,184.311 659.667,184.311 661.863,184.311 664.06,184.311 666.256,184.311 668.453,184.311 670.65,184.311 
  672.846,184.311 675.043,184.311 677.24,184.311 679.436,184.311 681.633,184.311 683.83,184.311 686.026,184.311 688.223,184.311 690.42,184.311 692.616,184.311 
  694.813,184.311 697.01,184.311 699.206,184.311 701.403,184.311 703.599,184.311 705.796,184.311 707.993,184.311 710.189,184.311 712.386,184.311 714.583,184.311 
  716.779,184.311 718.976,184.311 721.173,184.311 723.369,184.311 725.566,184.311 727.763,184.311 729.959,184.311 732.156,184.311 734.352,184.311 736.549,184.311 
  738.746,184.311 740.942,184.311 743.139,184.311 745.336,184.311 747.532,184.311 749.729,184.311 751.926,184.311 754.122,184.311 756.319,184.311 758.516,184.311 
  760.712,184.311 762.909,184.311 765.105,184.311 767.302,184.311 769.499,184.311 771.695,184.311 773.892,184.311 776.089,184.311 778.285,184.311 780.482,184.311 
  782.679,184.311 784.875,184.311 787.072,184.311 789.269,184.311 791.465,184.311 793.662,184.311 795.858,184.311 798.055,184.311 800.252,184.311 802.448,184.311 
  804.645,184.311 806.842,184.311 809.038,184.311 811.235,184.311 813.432,184.311 815.628,184.311 817.825,184.311 820.022,184.311 822.218,184.311 824.415,184.311 
  826.611,184.311 828.808,184.311 831.005,184.311 833.201,184.311 835.398,184.311 837.595,184.311 839.791,184.311 841.988,184.311 844.185,184.311 846.381,184.311 
  848.578,184.311 850.775,184.311 852.971,184.311 855.168,184.311 857.365,184.311 859.561,184.311 861.758,184.311 863.954,184.311 866.151,184.311 868.348,184.311 
  870.544,184.311 872.741,184.311 874.938,184.311 877.134,184.311 879.331,184.311 881.528,184.311 883.724,184.311 885.921,184.311 888.118,184.311 890.314,184.311 
  892.511,184.311 894.707,184.311 896.904,184.311 899.101,184.311 901.297,184.311 903.494,184.311 905.691,184.311 907.887,184.311 910.084,184.311 912.281,184.311 
  914.477,184.311 916.674,184.311 918.871,184.311 921.067,184.311 923.264,184.311 925.46,184.311 927.657,184.311 929.854,184.311 932.05,184.311 934.247,184.311 
  936.444,184.311 938.64,184.311 940.837,184.311 943.034,184.311 945.23,184.311 947.427,184.311 949.624,184.311 951.82,184.311 954.017,184.311 956.213,184.311 
  958.41,184.311 960.607,184.311 962.803,184.311 965,184.311 967.197,184.311 969.393,184.311 971.59,184.311 973.787,184.311 975.983,184.311 978.18,184.311 
  980.377,184.311 982.573,184.311 984.77,184.311 986.966,184.311 989.163,184.311 991.36,184.311 993.556,184.311 995.753,184.311 997.95,184.311 1000.15,184.311 
  1002.34,184.311 1004.54,184.311 1006.74,184.311 1008.93,184.311 1011.13,184.311 1013.33,184.311 1015.52,184.311 1017.72,184.311 1019.92,184.311 1022.11,184.311 
  1024.31,184.311 1026.51,184.311 1028.7,184.311 1030.9,184.311 1033.1,184.311 1035.29,184.311 1037.49,184.311 1039.69,184.311 1041.88,184.311 1044.08,184.311 
  1046.28,184.311 1048.47,184.311 1050.67,184.311 1052.87,184.311 1055.06,184.311 1057.26,184.311 1059.46,184.311 1061.65,184.311 1063.85,184.311 1066.05,184.311 
  1068.24,184.311 1070.44,184.311 1072.64,184.311 1074.83,184.311 1077.03,184.311 1079.23,184.311 1081.42,184.311 1083.62,184.311 1085.82,184.311 1088.01,184.311 
  1090.21,184.311 1092.41,184.311 1094.6,184.311 1096.8,184.311 1099,184.311 1101.19,184.311 1103.39,184.311 1105.59,184.311 1107.78,184.311 1109.98,184.311 
  1112.18,184.311 1114.37,184.311 1116.57,184.311 1118.77,184.311 1120.96,184.311 1123.16,184.311 1125.36,184.311 1127.55,184.311 1129.75,184.311 1131.94,184.311 
  1134.14,184.311 1136.34,184.311 1138.53,184.311 1140.73,184.311 1142.93,184.311 1145.12,184.311 1147.32,184.311 1149.52,184.311 1151.71,184.311 1153.91,184.311 
  1156.11,184.311 1158.3,184.311 1160.5,184.311 1162.7,184.311 1164.89,184.311 1167.09,184.311 1169.29,184.311 1171.48,184.311 1173.68,184.311 1175.88,184.311 
  1178.07,184.311 1180.27,184.311 1182.47,184.311 1184.66,184.311 1186.86,184.311 1189.06,184.311 1191.25,184.311 1193.45,184.311 1195.65,184.311 1197.84,184.311 
  1200.04,184.311 1202.24,184.311 1204.43,184.311 1206.63,184.311 1208.83,184.311 1211.02,184.311 1213.22,184.311 1215.42,184.311 1217.61,184.311 1219.81,184.311 
  1222.01,184.311 1224.2,184.311 1226.4,184.311 1228.6,184.311 1230.79,184.311 1232.99,184.311 1235.19,184.311 1237.38,184.311 1239.58,184.311 1241.78,184.311 
  1243.97,184.311 1246.17,184.311 1248.37,184.311 1250.56,184.311 1252.76,184.311 1254.96,184.311 1257.15,184.311 1259.35,184.311 1261.55,184.311 1263.74,184.311 
  1265.94,184.311 1268.14,184.311 1270.33,184.311 1272.53,184.311 1274.73,184.311 1276.92,184.311 1279.12,184.311 1281.32,184.311 1283.51,184.311 1285.71,184.311 
  1287.91,184.311 1290.1,184.311 1292.3,184.311 1294.5,184.311 1296.69,184.311 1298.89,184.311 1301.09,184.311 1303.28,184.311 1305.48,184.311 1307.68,184.311 
  1309.87,184.311 1312.07,184.311 1314.27,184.311 1316.46,184.311 1318.66,184.311 1320.86,184.311 1323.05,184.311 1325.25,184.311 1327.45,184.311 1329.64,184.311 
  1331.84,184.311 1334.04,184.311 1336.23,184.311 1338.43,184.311 1340.63,184.311 1342.82,184.311 1345.02,184.311 1347.22,184.311 1349.41,184.311 1351.61,184.311 
  1353.81,184.311 1356,184.311 1358.2,184.311 1360.4,184.311 1362.59,184.311 1364.79,184.311 1366.99,184.311 1369.18,184.311 1371.38,184.311 1373.58,184.311 
  1375.77,184.311 1377.97,184.311 1380.17,184.311 1382.36,184.311 1384.56,184.311 1386.76,184.311 1388.95,184.311 1391.15,184.311 1393.35,184.311 1395.54,184.311 
  1397.74,184.311 1399.94,184.311 1402.13,184.311 1404.33,184.311 1406.53,184.311 1408.72,184.311 1410.92,184.311 1413.12,184.311 1415.31,184.311 1417.51,184.311 
  1419.71,184.311 1421.9,184.311 1424.1,184.311 1426.3,184.311 1428.49,184.311 1430.69,184.311 1432.89,184.311 1435.08,184.311 1437.28,184.311 1439.48,184.311 
  1441.67,184.311 1443.87,184.311 1446.07,184.311 1448.26,184.311 1450.46,184.311 1452.65,184.311 1454.85,184.311 1457.05,184.311 1459.24,184.311 1461.44,184.311 
  1463.64,184.311 1465.83,184.311 1468.03,184.311 1470.23,184.311 1472.42,184.311 1474.62,184.311 1476.82,184.311 1479.01,184.311 1481.21,184.311 1483.41,184.311 
  1485.6,184.311 1487.8,184.311 1490,184.311 1492.19,184.311 1494.39,184.311 1496.59,184.311 1498.78,184.311 1500.98,184.311 1503.18,184.311 1505.37,184.311 
  1507.57,184.311 1509.77,184.311 1511.96,184.311 1514.16,184.311 1516.36,184.311 1518.55,184.311 1520.75,184.311 1522.95,184.311 1525.14,184.311 1527.34,184.311 
  1529.54,184.311 1531.73,184.311 1533.93,184.311 1536.13,184.311 1538.32,184.311 1540.52,184.311 1542.72,184.311 1544.91,184.311 1547.11,184.311 1549.31,184.311 
  1551.5,184.311 1553.7,184.311 1555.9,184.311 1558.09,184.311 1560.29,184.311 1562.49,184.311 1564.68,184.311 1566.88,184.311 1569.08,184.311 1571.27,184.311 
  1573.47,184.311 1575.67,184.311 1577.86,184.311 1580.06,184.311 1582.26,184.311 1584.45,184.311 1586.65,184.311 1588.85,184.311 1591.04,184.311 1593.24,184.311 
  1595.44,184.311 1597.63,184.311 1599.83,184.311 1602.03,184.311 1604.22,184.311 1606.42,184.311 1608.62,184.311 1610.81,184.311 1613.01,184.311 1615.21,184.311 
  1617.4,184.311 1619.6,184.311 1621.8,184.311 1623.99,184.311 1626.19,184.311 1628.39,184.311 1630.58,184.311 1632.78,184.311 1634.98,184.311 1637.17,184.311 
  1639.37,184.311 1641.57,184.311 1643.76,184.311 1645.96,184.311 1648.16,184.311 1650.35,184.311 1652.55,184.311 1654.75,184.311 1656.94,184.311 1659.14,184.311 
  1661.34,184.311 1663.53,184.311 1665.73,184.311 1667.93,184.311 1670.12,184.311 1672.32,184.311 1674.52,184.311 1676.71,184.311 1678.91,184.311 1681.11,184.311 
  1683.3,184.311 1685.5,184.311 1687.7,184.311 1689.89,184.311 1692.09,184.311 1694.29,184.311 1696.48,184.311 1698.68,184.311 1700.88,184.311 1703.07,184.311 
  1705.27,184.311 1707.47,184.311 1709.66,184.311 1711.86,184.311 1714.06,184.311 1716.25,184.311 1718.45,184.311 1720.65,184.311 1722.84,184.311 1725.04,184.311 
  1727.24,184.311 1729.43,184.311 1731.63,184.311 1733.83,184.311 1736.02,184.311 1738.22,184.311 1740.42,184.311 1742.61,184.311 1744.81,184.311 1747.01,184.311 
  1749.2,184.311 1751.4,184.311 1753.6,184.311 1755.79,184.311 1757.99,184.311 1760.19,184.311 1762.38,184.311 1764.58,184.311 1766.78,184.311 1768.97,184.311 
  1771.17,184.311 1773.36,184.311 1775.56,184.311 1777.76,184.311 1779.95,184.311 1782.15,184.311 1784.35,184.311 1786.54,184.311 1788.74,184.311 1790.94,184.311 
  1793.13,184.311 1795.33,184.311 1797.53,184.311 1799.72,184.311 1801.92,184.311 1804.12,184.311 1806.31,184.311 1808.51,184.311 1810.71,184.311 1812.9,184.311 
  1815.1,184.311 1817.3,184.311 1819.49,184.311 1821.69,184.311 1823.89,184.311 1826.08,184.311 1828.28,184.311 1830.48,184.311 1832.67,184.311 1834.87,184.311 
  1837.07,184.311 1839.26,184.311 1841.46,184.311 1843.66,184.311 1845.85,184.311 1848.05,184.311 1850.25,184.311 1852.44,184.311 1854.64,184.311 1856.84,184.311 
  1859.03,184.311 1861.23,184.311 1863.43,184.311 1865.62,184.311 1867.82,184.311 1870.02,184.311 1872.21,184.311 1874.41,184.311 1876.61,184.311 1878.8,184.311 
  1881,184.311 1883.2,184.311 1885.39,184.311 1887.59,184.311 1889.79,184.311 1891.98,184.311 1894.18,184.311 1896.38,184.311 1898.57,184.311 1900.77,184.311 
  1902.97,184.311 1905.16,184.311 1907.36,184.311 1909.56,184.311 1911.75,184.311 1913.95,184.311 1916.15,184.311 1918.34,184.311 1920.54,184.311 1922.74,184.311 
  1924.93,184.311 1927.13,184.311 1929.33,184.311 1931.52,184.311 1933.72,184.311 1935.92,184.311 1938.11,184.311 1940.31,184.311 1942.51,184.311 1944.7,184.311 
  1946.9,184.311 1949.1,184.311 1951.29,184.311 1953.49,184.311 1955.69,184.311 1957.88,184.311 1960.08,184.311 1962.28,184.311 1964.47,184.311 1966.67,184.311 
  1968.87,184.311 1971.06,184.311 1973.26,184.311 1975.46,184.311 1977.65,184.311 1979.85,184.311 1982.05,184.311 1984.24,184.311 1986.44,184.311 1988.64,184.311 
  1990.83,184.311 1993.03,184.311 1995.23,184.311 1997.42,184.311 1999.62,184.311 2001.82,184.311 2004.01,184.311 2006.21,184.311 2008.41,184.311 2010.6,184.311 
  2012.8,184.311 2015,184.311 2017.19,184.311 2019.39,184.311 2021.59,184.311 2023.78,184.311 2025.98,184.311 2028.18,184.311 2030.37,184.311 2032.57,184.311 
  2034.77,184.311 2036.96,184.311 2039.16,184.311 2041.36,184.311 2043.55,184.311 2045.75,184.311 2047.95,184.311 2050.14,184.311 2052.34,184.311 2054.54,184.311 
  2056.73,184.311 2058.93,184.311 2061.13,184.311 2063.32,184.311 2065.52,184.311 2067.72,184.311 2069.91,184.311 2072.11,184.311 2074.31,184.311 2076.5,184.311 
  2078.7,184.311 2080.9,184.311 2083.09,184.311 2085.29,184.311 2087.49,184.311 2089.68,184.311 2091.88,184.311 2094.07,184.311 2096.27,184.311 2098.47,184.311 
  2100.66,184.311 2102.86,184.311 2105.06,184.311 2107.25,184.311 2109.45,184.311 2111.65,184.311 2113.84,184.311 2116.04,184.311 2118.24,184.311 2120.43,184.311 
  2122.63,184.311 2124.83,184.311 2127.02,184.311 2129.22,184.311 2131.42,184.311 2133.61,184.311 2135.81,184.311 2138.01,184.311 2140.2,184.311 2142.4,184.311 
  2144.6,184.311 2146.79,184.311 2148.99,184.311 2151.19,184.311 2153.38,184.311 2155.58,184.311 2157.78,184.311 2159.97,184.311 2162.17,184.311 2164.37,184.311 
  2166.56,184.311 2168.76,184.311 2170.96,184.311 2173.15,184.311 2175.35,184.311 2177.55,184.311 2179.74,184.311 2181.94,184.311 2184.14,184.311 2186.33,184.311 
  2188.53,184.311 2190.73,184.311 2192.92,184.311 2195.12,184.311 2197.32,184.311 2199.51,184.311 2201.71,184.311 2203.91,184.311 2206.1,184.311 2208.3,184.311 
  2210.5,184.311 2212.69,184.311 2214.89,184.311 2217.09,184.311 2219.28,184.311 2221.48,184.311 2223.68,184.311 2225.87,184.311 2228.07,184.311 2230.27,184.311 
  2232.46,184.311 2234.66,184.311 2236.86,184.311 2239.05,184.311 2241.25,184.311 2243.45,184.311 2245.64,184.311 2247.84,184.311 2250.04,184.311 2252.23,184.311 
  2254.43,184.311 2256.63,184.311 2258.82,184.311 2261.02,184.311 2263.22,184.311 2265.41,184.311 2267.61,184.311 2269.81,184.311 2272,184.311 2274.2,184.311 
  2276.4,184.311 2278.59,184.311 2280.79,184.311 2282.99,184.311 2285.18,184.311 2287.38,184.311 2289.58,184.311 2291.77,184.311 2293.97,184.311 2296.17,184.311 
  2298.36,184.311 2300.56,184.311 2302.76,184.311 2304.95,184.311 2307.15,184.311 2309.35,184.311 2311.54,184.311 2313.74,184.311 2315.94,184.311 2318.13,184.311 
  2320.33,184.311 2322.53,184.311 2324.72,184.311 2326.92,184.311 2329.12,184.311 2331.31,184.311 2333.51,184.311 2335.71,184.311 2337.9,184.311 2340.1,184.311 
  2342.3,184.311 2344.49,184.311 2346.69,184.311 2348.89,184.311 2351.08,184.311 
  "/>
<polyline clip-path="url(#clip122)" style="stroke:#808080; stroke-linecap:butt; stroke-linejoin:round; stroke-width:8; stroke-opacity:1; fill:none" points="
  1254.43,766.846 1256.63,766.846 1258.83,766.846 1261.02,766.846 1263.22,766.846 1265.42,766.846 1267.61,766.846 1269.81,766.846 1272.01,766.846 1274.2,766.846 
  1276.4,766.846 1278.6,766.846 1280.79,766.846 1282.99,766.846 1285.19,766.846 1287.38,766.846 1289.58,766.846 1291.78,766.846 1293.97,766.846 1296.17,766.846 
  1298.37,766.846 1300.56,766.846 1302.76,766.846 1304.96,766.846 1307.15,766.846 1309.35,766.846 1311.55,766.846 1313.74,766.846 1315.94,766.846 1318.14,766.846 
  1320.33,766.846 1322.53,766.846 1324.73,766.846 1326.92,766.846 1329.12,766.846 1331.32,766.846 1333.51,766.846 1335.71,766.846 1337.91,766.846 1340.1,766.846 
  1342.3,766.846 1344.5,766.846 1346.69,766.846 1348.89,766.846 1351.09,766.846 1353.28,766.846 1355.48,766.846 1357.68,766.846 1359.87,766.846 1362.07,766.846 
  1364.27,766.846 1366.46,766.846 1368.66,766.846 1370.86,766.846 1373.05,766.846 1375.25,766.846 1377.45,766.846 1379.64,766.846 1381.84,766.846 1384.04,766.846 
  1386.23,766.846 1388.43,766.846 1390.63,766.846 1392.82,766.846 1395.02,766.846 1397.22,766.846 1399.41,766.846 1401.61,766.846 1403.81,766.846 1406,766.846 
  1408.2,766.846 1410.4,766.846 1412.59,766.846 1414.79,766.846 1416.99,766.846 1419.18,766.846 1421.38,766.846 1423.58,766.846 1425.77,766.846 1427.97,766.846 
  1430.17,766.846 1432.36,766.846 1434.56,766.846 1436.76,766.846 1438.95,766.846 1441.15,766.846 1443.35,766.846 1445.54,766.846 1447.74,766.846 1449.94,766.846 
  1452.13,766.846 1454.33,766.846 1456.53,766.846 1458.72,766.846 1460.92,766.846 1463.12,766.846 1465.31,766.846 1467.51,766.846 1469.71,766.846 1471.9,766.846 
  1474.1,766.846 1476.3,766.846 1478.49,766.846 1480.69,766.846 1482.88,766.846 1485.08,766.846 1487.28,766.846 1489.47,766.846 1491.67,766.846 1493.87,766.846 
  1496.06,766.846 1498.26,766.846 1500.46,766.846 1502.65,766.846 1504.85,766.846 1507.05,766.846 1509.24,766.846 1511.44,766.846 1513.64,766.846 1515.83,766.846 
  1518.03,766.846 1520.23,766.846 1522.42,766.846 1524.62,766.846 1526.82,766.846 1529.01,766.846 1531.21,766.846 1533.41,766.846 1535.6,766.846 1537.8,766.846 
  1540,766.846 1542.19,766.846 1544.39,766.846 1546.59,766.846 1548.78,766.846 1550.98,766.846 1553.18,766.846 1555.37,766.846 1557.57,766.846 1559.77,766.846 
  1561.96,766.846 1564.16,766.846 1566.36,766.846 1568.55,766.846 1570.75,766.846 1572.95,766.846 1575.14,766.846 1577.34,766.846 1579.54,766.846 1581.73,766.846 
  1583.93,766.846 1586.13,766.846 1588.32,766.846 1590.52,766.846 1592.72,766.846 1594.91,766.846 1597.11,766.846 1599.31,766.846 1601.5,766.846 1603.7,766.846 
  1605.9,766.846 1608.09,766.846 1610.29,766.846 1612.49,766.846 1614.68,766.846 1616.88,766.846 1619.08,766.846 1621.27,766.846 1623.47,766.846 1625.67,766.846 
  1627.86,766.846 1630.06,766.846 1632.26,766.846 1634.45,766.846 1636.65,766.846 1638.85,766.846 1641.04,766.846 1643.24,766.846 1645.44,766.846 1647.63,766.846 
  1649.83,766.846 1652.03,766.846 1654.22,766.846 1656.42,766.846 1658.62,766.846 1660.81,766.846 1663.01,766.846 1665.21,766.846 1667.4,766.846 1669.6,766.846 
  1671.8,766.846 1673.99,766.846 1676.19,766.846 1678.39,766.846 1680.58,766.846 1682.78,766.846 1684.98,766.846 1687.17,766.846 1689.37,766.846 1691.57,766.846 
  1693.76,766.846 1695.96,766.846 1698.16,766.846 1700.35,766.846 1702.55,766.846 1704.75,766.846 1706.94,766.846 1709.14,766.846 1711.34,766.846 1713.53,766.846 
  1715.73,766.846 1717.93,766.846 1720.12,766.846 1722.32,766.846 1724.52,766.846 1726.71,766.846 1728.91,766.846 1731.11,766.846 1733.3,766.846 1735.5,766.846 
  1737.7,766.846 1739.89,766.846 1742.09,766.846 1744.29,766.846 1746.48,766.846 1748.68,766.846 1750.88,766.846 1753.07,766.846 1755.27,766.846 1757.47,766.846 
  1759.66,766.846 1761.86,766.846 1764.06,766.846 1766.25,766.846 1768.45,766.846 1770.65,766.846 1772.84,766.846 1775.04,766.846 1777.24,766.846 1779.43,766.846 
  1781.63,766.846 1783.83,766.846 1786.02,766.846 1788.22,766.846 1790.42,766.846 1792.61,766.846 1794.81,766.846 1797.01,766.846 1799.2,766.846 1801.4,766.846 
  1803.59,766.846 1805.79,766.846 1807.99,766.846 1810.18,766.846 1812.38,766.846 1814.58,766.846 1816.77,766.846 1818.97,766.846 1821.17,766.846 1823.36,766.846 
  1825.56,766.846 1827.76,766.846 1829.95,766.846 1832.15,766.846 1834.35,766.846 1836.54,766.846 1838.74,766.846 1840.94,766.846 1843.13,766.846 1845.33,766.846 
  1847.53,766.846 1849.72,766.846 1851.92,766.846 1854.12,766.846 1856.31,766.846 1858.51,766.846 1860.71,766.846 1862.9,766.846 1865.1,766.846 1867.3,766.846 
  1869.49,766.846 1871.69,766.846 1873.89,766.846 1876.08,766.846 1878.28,766.846 1880.48,766.846 1882.67,766.846 1884.87,766.846 1887.07,766.846 1889.26,766.846 
  1891.46,766.846 1893.66,766.846 1895.85,766.846 1898.05,766.846 1900.25,766.846 1902.44,766.846 1904.64,766.846 1906.84,766.846 1909.03,766.846 1911.23,766.846 
  1913.43,766.846 1915.62,766.846 1917.82,766.846 1920.02,766.846 1922.21,766.846 1924.41,766.846 1926.61,766.846 1928.8,766.846 1931,766.846 1933.2,766.846 
  1935.39,766.846 1937.59,766.846 1939.79,766.846 1941.98,766.846 1944.18,766.846 1946.38,766.846 1948.57,766.846 1950.77,766.846 1952.97,766.846 1955.16,766.846 
  1957.36,766.846 1959.56,766.846 1961.75,766.846 1963.95,766.846 1966.15,766.846 1968.34,766.846 1970.54,766.846 1972.74,766.846 1974.93,766.846 1977.13,766.846 
  1979.33,766.846 1981.52,766.846 1983.72,766.846 1985.92,766.846 1988.11,766.846 1990.31,766.846 1992.51,766.846 1994.7,766.846 1996.9,766.846 1999.1,766.846 
  2001.29,766.846 2003.49,766.846 2005.69,766.846 2007.88,766.846 2010.08,766.846 2012.28,766.846 2014.47,766.846 2016.67,766.846 2018.87,766.846 2021.06,766.846 
  2023.26,766.846 2025.46,766.846 2027.65,766.846 2029.85,766.846 2032.05,766.846 2034.24,766.846 2036.44,766.846 2038.64,766.846 2040.83,766.846 2043.03,766.846 
  2045.23,766.846 2047.42,766.846 2049.62,766.846 2051.82,766.846 2054.01,766.846 2056.21,766.846 2058.41,766.846 2060.6,766.846 2062.8,766.846 2065,766.846 
  2067.19,766.846 2069.39,766.846 2071.59,766.846 2073.78,766.846 2075.98,766.846 2078.18,766.846 2080.37,766.846 2082.57,766.846 2084.77,766.846 2086.96,766.846 
  2089.16,766.846 2091.36,766.846 2093.55,766.846 2095.75,766.846 2097.95,766.846 2100.14,766.846 2102.34,766.846 2104.54,766.846 2106.73,766.846 2108.93,766.846 
  2111.13,766.846 2113.32,766.846 2115.52,766.846 2117.72,766.846 2119.91,766.846 2122.11,766.846 2124.3,766.846 2126.5,766.846 2128.7,766.846 2130.89,766.846 
  2133.09,766.846 2135.29,766.846 2137.48,766.846 2139.68,766.846 2141.88,766.846 2144.07,766.846 2146.27,766.846 2148.47,766.846 2150.66,766.846 2152.86,766.846 
  2155.06,766.846 2157.25,766.846 2159.45,766.846 2161.65,766.846 2163.84,766.846 2166.04,766.846 2168.24,766.846 2170.43,766.846 2172.63,766.846 2174.83,766.846 
  2177.02,766.846 2179.22,766.846 2181.42,766.846 2183.61,766.846 2185.81,766.846 2188.01,766.846 2190.2,766.846 2192.4,766.846 2194.6,766.846 2196.79,766.846 
  2198.99,766.846 2201.19,766.846 2203.38,766.846 2205.58,766.846 2207.78,766.846 2209.97,766.846 2212.17,766.846 2214.37,766.846 2216.56,766.846 2218.76,766.846 
  2220.96,766.846 2223.15,766.846 2225.35,766.846 2227.55,766.846 2229.74,766.846 2231.94,766.846 2234.14,766.846 2236.33,766.846 2238.53,766.846 2240.73,766.846 
  2242.92,766.846 2245.12,766.846 2247.32,766.846 2249.51,766.846 2251.71,766.846 2253.91,766.846 2256.1,766.846 2258.3,766.846 2260.5,766.846 2262.69,766.846 
  2264.89,766.846 2267.09,766.846 2269.28,766.846 2271.48,766.846 2273.68,766.846 2275.87,766.846 2278.07,766.846 2280.27,766.846 2282.46,766.846 2284.66,766.846 
  2286.86,766.846 2289.05,766.846 2291.25,766.846 2293.45,766.846 2295.64,766.846 2297.84,766.846 2300.04,766.846 2302.23,766.846 2304.43,766.846 2306.63,766.846 
  2308.82,766.846 2311.02,766.846 2313.22,766.846 2315.41,766.846 2317.61,766.846 2319.81,766.846 2322,766.846 2324.2,766.846 2326.4,766.846 2328.59,766.846 
  2330.79,766.846 2332.99,766.846 2335.18,766.846 2337.38,766.846 2339.58,766.846 2341.77,766.846 2343.97,766.846 2346.17,766.846 2348.36,766.846 2350.56,766.846 
  2352.76,766.846 
  "/>
</svg>
