<?xml version="1.0" encoding="utf-8"?>
<svg xmlns="http://www.w3.org/2000/svg" xmlns:xlink="http://www.w3.org/1999/xlink" width="600" height="400" viewBox="0 0 2400 1600">
<defs>
  <clipPath id="clip220">
    <rect x="0" y="0" width="2400" height="1600"/>
  </clipPath>
</defs>
<path clip-path="url(#clip220)" d="
M0 1600 L2400 1600 L2400 0 L0 0  Z
  " fill="#ffffff" fill-rule="evenodd" fill-opacity="1"/>
<defs>
  <clipPath id="clip221">
    <rect x="480" y="0" width="1681" height="1600"/>
  </clipPath>
</defs>
<path clip-path="url(#clip220)" d="
M175.445 1423.18 L2352.76 1423.18 L2352.76 47.2441 L175.445 47.2441  Z
  " fill="#ffffff" fill-rule="evenodd" fill-opacity="1"/>
<defs>
  <clipPath id="clip222">
    <rect x="175" y="47" width="2178" height="1377"/>
  </clipPath>
</defs>
<polyline clip-path="url(#clip222)" style="stroke:#000000; stroke-linecap:butt; stroke-linejoin:round; stroke-width:2; stroke-opacity:0.1; fill:none" points="
  175.445,1423.18 175.445,47.2441 
  "/>
<polyline clip-path="url(#clip222)" style="stroke:#000000; stroke-linecap:butt; stroke-linejoin:round; stroke-width:2; stroke-opacity:0.1; fill:none" points="
  610.907,1423.18 610.907,47.2441 
  "/>
<polyline clip-path="url(#clip222)" style="stroke:#000000; stroke-linecap:butt; stroke-linejoin:round; stroke-width:2; stroke-opacity:0.1; fill:none" points="
  1046.37,1423.18 1046.37,47.2441 
  "/>
<polyline clip-path="url(#clip222)" style="stroke:#000000; stroke-linecap:butt; stroke-linejoin:round; stroke-width:2; stroke-opacity:0.1; fill:none" points="
  1481.83,1423.18 1481.83,47.2441 
  "/>
<polyline clip-path="url(#clip222)" style="stroke:#000000; stroke-linecap:butt; stroke-linejoin:round; stroke-width:2; stroke-opacity:0.1; fill:none" points="
  1917.29,1423.18 1917.29,47.2441 
  "/>
<polyline clip-path="url(#clip222)" style="stroke:#000000; stroke-linecap:butt; stroke-linejoin:round; stroke-width:2; stroke-opacity:0.1; fill:none" points="
  2352.76,1423.18 2352.76,47.2441 
  "/>
<polyline clip-path="url(#clip220)" style="stroke:#000000; stroke-linecap:butt; stroke-linejoin:round; stroke-width:4; stroke-opacity:1; fill:none" points="
  175.445,1423.18 2352.76,1423.18 
  "/>
<polyline clip-path="url(#clip220)" style="stroke:#000000; stroke-linecap:butt; stroke-linejoin:round; stroke-width:4; stroke-opacity:1; fill:none" points="
  175.445,1423.18 175.445,1404.28 
  "/>
<polyline clip-path="url(#clip220)" style="stroke:#000000; stroke-linecap:butt; stroke-linejoin:round; stroke-width:4; stroke-opacity:1; fill:none" points="
  610.907,1423.18 610.907,1404.28 
  "/>
<polyline clip-path="url(#clip220)" style="stroke:#000000; stroke-linecap:butt; stroke-linejoin:round; stroke-width:4; stroke-opacity:1; fill:none" points="
  1046.37,1423.18 1046.37,1404.28 
  "/>
<polyline clip-path="url(#clip220)" style="stroke:#000000; stroke-linecap:butt; stroke-linejoin:round; stroke-width:4; stroke-opacity:1; fill:none" points="
  1481.83,1423.18 1481.83,1404.28 
  "/>
<polyline clip-path="url(#clip220)" style="stroke:#000000; stroke-linecap:butt; stroke-linejoin:round; stroke-width:4; stroke-opacity:1; fill:none" points="
  1917.29,1423.18 1917.29,1404.28 
  "/>
<polyline clip-path="url(#clip220)" style="stroke:#000000; stroke-linecap:butt; stroke-linejoin:round; stroke-width:4; stroke-opacity:1; fill:none" points="
  2352.76,1423.18 2352.76,1404.28 
  "/>
<path clip-path="url(#clip220)" d="M175.445 1454.1 Q171.834 1454.1 170.005 1457.66 Q168.2 1461.2 168.2 1468.33 Q168.2 1475.44 170.005 1479.01 Q171.834 1482.55 175.445 1482.55 Q179.079 1482.55 180.885 1479.01 Q182.714 1475.44 182.714 1468.33 Q182.714 1461.2 180.885 1457.66 Q179.079 1454.1 175.445 1454.1 M175.445 1450.39 Q181.255 1450.39 184.311 1455 Q187.39 1459.58 187.39 1468.33 Q187.39 1477.06 184.311 1481.67 Q181.255 1486.25 175.445 1486.25 Q169.635 1486.25 166.556 1481.67 Q163.501 1477.06 163.501 1468.33 Q163.501 1459.58 166.556 1455 Q169.635 1450.39 175.445 1450.39 Z" fill="#000000" fill-rule="evenodd" fill-opacity="1" /><path clip-path="url(#clip220)" d="M605.56 1481.64 L621.88 1481.64 L621.88 1485.58 L599.935 1485.58 L599.935 1481.64 Q602.597 1478.89 607.181 1474.26 Q611.787 1469.61 612.968 1468.27 Q615.213 1465.74 616.093 1464.01 Q616.995 1462.25 616.995 1460.56 Q616.995 1457.8 615.051 1456.07 Q613.13 1454.33 610.028 1454.33 Q607.829 1454.33 605.375 1455.09 Q602.944 1455.86 600.167 1457.41 L600.167 1452.69 Q602.991 1451.55 605.444 1450.97 Q607.898 1450.39 609.935 1450.39 Q615.305 1450.39 618.5 1453.08 Q621.694 1455.77 621.694 1460.26 Q621.694 1462.39 620.884 1464.31 Q620.097 1466.2 617.991 1468.8 Q617.412 1469.47 614.31 1472.69 Q611.208 1475.88 605.56 1481.64 Z" fill="#000000" fill-rule="evenodd" fill-opacity="1" /><path clip-path="url(#clip220)" d="M1049.38 1455.09 L1037.57 1473.54 L1049.38 1473.54 L1049.38 1455.09 M1048.15 1451.02 L1054.03 1451.02 L1054.03 1473.54 L1058.96 1473.54 L1058.96 1477.43 L1054.03 1477.43 L1054.03 1485.58 L1049.38 1485.58 L1049.38 1477.43 L1033.78 1477.43 L1033.78 1472.92 L1048.15 1451.02 Z" fill="#000000" fill-rule="evenodd" fill-opacity="1" /><path clip-path="url(#clip220)" d="M1482.24 1466.44 Q1479.09 1466.44 1477.24 1468.59 Q1475.41 1470.74 1475.41 1474.49 Q1475.41 1478.22 1477.24 1480.39 Q1479.09 1482.55 1482.24 1482.55 Q1485.38 1482.55 1487.21 1480.39 Q1489.07 1478.22 1489.07 1474.49 Q1489.07 1470.74 1487.21 1468.59 Q1485.38 1466.44 1482.24 1466.44 M1491.52 1451.78 L1491.52 1456.04 Q1489.76 1455.21 1487.95 1454.77 Q1486.17 1454.33 1484.41 1454.33 Q1479.78 1454.33 1477.33 1457.45 Q1474.9 1460.58 1474.55 1466.9 Q1475.92 1464.89 1477.98 1463.82 Q1480.04 1462.73 1482.51 1462.73 Q1487.72 1462.73 1490.73 1465.9 Q1493.76 1469.05 1493.76 1474.49 Q1493.76 1479.82 1490.62 1483.03 Q1487.47 1486.25 1482.24 1486.25 Q1476.24 1486.25 1473.07 1481.67 Q1469.9 1477.06 1469.9 1468.33 Q1469.9 1460.14 1473.79 1455.28 Q1477.68 1450.39 1484.23 1450.39 Q1485.99 1450.39 1487.77 1450.74 Q1489.57 1451.09 1491.52 1451.78 Z" fill="#000000" fill-rule="evenodd" fill-opacity="1" /><path clip-path="url(#clip220)" d="M1917.29 1469.17 Q1913.96 1469.17 1912.04 1470.95 Q1910.14 1472.73 1910.14 1475.86 Q1910.14 1478.98 1912.04 1480.77 Q1913.96 1482.55 1917.29 1482.55 Q1920.63 1482.55 1922.55 1480.77 Q1924.47 1478.96 1924.47 1475.86 Q1924.47 1472.73 1922.55 1470.95 Q1920.65 1469.17 1917.29 1469.17 M1912.62 1467.18 Q1909.61 1466.44 1907.92 1464.38 Q1906.25 1462.32 1906.25 1459.35 Q1906.25 1455.21 1909.19 1452.8 Q1912.15 1450.39 1917.29 1450.39 Q1922.46 1450.39 1925.4 1452.8 Q1928.34 1455.21 1928.34 1459.35 Q1928.34 1462.32 1926.65 1464.38 Q1924.98 1466.44 1921.99 1467.18 Q1925.37 1467.96 1927.25 1470.26 Q1929.15 1472.55 1929.15 1475.86 Q1929.15 1480.88 1926.07 1483.57 Q1923.01 1486.25 1917.29 1486.25 Q1911.58 1486.25 1908.5 1483.57 Q1905.44 1480.88 1905.44 1475.86 Q1905.44 1472.55 1907.34 1470.26 Q1909.24 1467.96 1912.62 1467.18 M1910.9 1459.79 Q1910.9 1462.48 1912.57 1463.98 Q1914.26 1465.49 1917.29 1465.49 Q1920.3 1465.49 1921.99 1463.98 Q1923.71 1462.48 1923.71 1459.79 Q1923.71 1457.11 1921.99 1455.6 Q1920.3 1454.1 1917.29 1454.1 Q1914.26 1454.1 1912.57 1455.6 Q1910.9 1457.11 1910.9 1459.79 Z" fill="#000000" fill-rule="evenodd" fill-opacity="1" /><path clip-path="url(#clip220)" d="M2327.44 1481.64 L2335.08 1481.64 L2335.08 1455.28 L2326.77 1456.95 L2326.77 1452.69 L2335.04 1451.02 L2339.71 1451.02 L2339.71 1481.64 L2347.35 1481.64 L2347.35 1485.58 L2327.44 1485.58 L2327.44 1481.64 Z" fill="#000000" fill-rule="evenodd" fill-opacity="1" /><path clip-path="url(#clip220)" d="M2366.8 1454.1 Q2363.18 1454.1 2361.36 1457.66 Q2359.55 1461.2 2359.55 1468.33 Q2359.55 1475.44 2361.36 1479.01 Q2363.18 1482.55 2366.8 1482.55 Q2370.43 1482.55 2372.23 1479.01 Q2374.06 1475.44 2374.06 1468.33 Q2374.06 1461.2 2372.23 1457.66 Q2370.43 1454.1 2366.8 1454.1 M2366.8 1450.39 Q2372.61 1450.39 2375.66 1455 Q2378.74 1459.58 2378.74 1468.33 Q2378.74 1477.06 2375.66 1481.67 Q2372.61 1486.25 2366.8 1486.25 Q2360.99 1486.25 2357.91 1481.67 Q2354.85 1477.06 2354.85 1468.33 Q2354.85 1459.58 2357.91 1455 Q2360.99 1450.39 2366.8 1450.39 Z" fill="#000000" fill-rule="evenodd" fill-opacity="1" /><path clip-path="url(#clip220)" d="M1263.16 1522.27 L1263.16 1532.4 L1275.22 1532.4 L1275.22 1536.95 L1263.16 1536.95 L1263.16 1556.3 Q1263.16 1560.66 1264.34 1561.9 Q1265.55 1563.14 1269.21 1563.14 L1275.22 1563.14 L1275.22 1568.04 L1269.21 1568.04 Q1262.43 1568.04 1259.85 1565.53 Q1257.27 1562.98 1257.27 1556.3 L1257.27 1536.95 L1252.98 1536.95 L1252.98 1532.4 L1257.27 1532.4 L1257.27 1522.27 L1263.16 1522.27 Z" fill="#000000" fill-rule="evenodd" fill-opacity="1" /><polyline clip-path="url(#clip222)" style="stroke:#000000; stroke-linecap:butt; stroke-linejoin:round; stroke-width:2; stroke-opacity:0.1; fill:none" points="
  175.445,1384.24 2352.76,1384.24 
  "/>
<polyline clip-path="url(#clip222)" style="stroke:#000000; stroke-linecap:butt; stroke-linejoin:round; stroke-width:2; stroke-opacity:0.1; fill:none" points="
  175.445,1064.72 2352.76,1064.72 
  "/>
<polyline clip-path="url(#clip222)" style="stroke:#000000; stroke-linecap:butt; stroke-linejoin:round; stroke-width:2; stroke-opacity:0.1; fill:none" points="
  175.445,745.199 2352.76,745.199 
  "/>
<polyline clip-path="url(#clip222)" style="stroke:#000000; stroke-linecap:butt; stroke-linejoin:round; stroke-width:2; stroke-opacity:0.1; fill:none" points="
  175.445,425.679 2352.76,425.679 
  "/>
<polyline clip-path="url(#clip222)" style="stroke:#000000; stroke-linecap:butt; stroke-linejoin:round; stroke-width:2; stroke-opacity:0.1; fill:none" points="
  175.445,106.159 2352.76,106.159 
  "/>
<polyline clip-path="url(#clip220)" style="stroke:#000000; stroke-linecap:butt; stroke-linejoin:round; stroke-width:4; stroke-opacity:1; fill:none" points="
  175.445,1423.18 175.445,47.2441 
  "/>
<polyline clip-path="url(#clip220)" style="stroke:#000000; stroke-linecap:butt; stroke-linejoin:round; stroke-width:4; stroke-opacity:1; fill:none" points="
  175.445,1384.24 194.343,1384.24 
  "/>
<polyline clip-path="url(#clip220)" style="stroke:#000000; stroke-linecap:butt; stroke-linejoin:round; stroke-width:4; stroke-opacity:1; fill:none" points="
  175.445,1064.72 194.343,1064.72 
  "/>
<polyline clip-path="url(#clip220)" style="stroke:#000000; stroke-linecap:butt; stroke-linejoin:round; stroke-width:4; stroke-opacity:1; fill:none" points="
  175.445,745.199 194.343,745.199 
  "/>
<polyline clip-path="url(#clip220)" style="stroke:#000000; stroke-linecap:butt; stroke-linejoin:round; stroke-width:4; stroke-opacity:1; fill:none" points="
  175.445,425.679 194.343,425.679 
  "/>
<polyline clip-path="url(#clip220)" style="stroke:#000000; stroke-linecap:butt; stroke-linejoin:round; stroke-width:4; stroke-opacity:1; fill:none" points="
  175.445,106.159 194.343,106.159 
  "/>
<path clip-path="url(#clip220)" d="M119.538 1397.58 L127.177 1397.58 L127.177 1371.22 L118.867 1372.88 L118.867 1368.62 L127.13 1366.96 L131.806 1366.96 L131.806 1397.58 L139.445 1397.58 L139.445 1401.52 L119.538 1401.52 L119.538 1397.58 Z" fill="#000000" fill-rule="evenodd" fill-opacity="1" /><path clip-path="url(#clip220)" d="M123.126 1078.06 L139.445 1078.06 L139.445 1082 L117.501 1082 L117.501 1078.06 Q120.163 1075.31 124.746 1070.68 Q129.353 1066.03 130.533 1064.68 Q132.779 1062.16 133.658 1060.42 Q134.561 1058.67 134.561 1056.98 Q134.561 1054.22 132.617 1052.48 Q130.695 1050.75 127.593 1050.75 Q125.394 1050.75 122.941 1051.51 Q120.51 1052.28 117.732 1053.83 L117.732 1049.11 Q120.556 1047.97 123.01 1047.39 Q125.464 1046.81 127.501 1046.81 Q132.871 1046.81 136.066 1049.5 Q139.26 1052.18 139.26 1056.67 Q139.26 1058.8 138.45 1060.73 Q137.663 1062.62 135.556 1065.22 Q134.978 1065.89 131.876 1069.11 Q128.774 1072.3 123.126 1078.06 Z" fill="#000000" fill-rule="evenodd" fill-opacity="1" /><path clip-path="url(#clip220)" d="M132.316 743.845 Q135.672 744.562 137.547 746.831 Q139.445 749.099 139.445 752.432 Q139.445 757.548 135.927 760.349 Q132.408 763.15 125.927 763.15 Q123.751 763.15 121.436 762.71 Q119.144 762.293 116.691 761.437 L116.691 756.923 Q118.635 758.057 120.95 758.636 Q123.265 759.215 125.788 759.215 Q130.186 759.215 132.478 757.479 Q134.792 755.743 134.792 752.432 Q134.792 749.377 132.64 747.664 Q130.51 745.928 126.691 745.928 L122.663 745.928 L122.663 742.085 L126.876 742.085 Q130.325 742.085 132.154 740.72 Q133.982 739.331 133.982 736.738 Q133.982 734.076 132.084 732.664 Q130.209 731.229 126.691 731.229 Q124.769 731.229 122.57 731.646 Q120.371 732.062 117.732 732.942 L117.732 728.775 Q120.394 728.034 122.709 727.664 Q125.047 727.294 127.107 727.294 Q132.431 727.294 135.533 729.724 Q138.635 732.132 138.635 736.252 Q138.635 739.122 136.992 741.113 Q135.348 743.081 132.316 743.845 Z" fill="#000000" fill-rule="evenodd" fill-opacity="1" /><path clip-path="url(#clip220)" d="M129.862 412.473 L118.056 430.922 L129.862 430.922 L129.862 412.473 M128.635 408.399 L134.515 408.399 L134.515 430.922 L139.445 430.922 L139.445 434.811 L134.515 434.811 L134.515 442.959 L129.862 442.959 L129.862 434.811 L114.26 434.811 L114.26 430.297 L128.635 408.399 Z" fill="#000000" fill-rule="evenodd" fill-opacity="1" /><path clip-path="url(#clip220)" d="M118.543 88.8791 L136.899 88.8791 L136.899 92.8143 L122.825 92.8143 L122.825 101.286 Q123.843 100.939 124.862 100.777 Q125.88 100.592 126.899 100.592 Q132.686 100.592 136.066 103.763 Q139.445 106.935 139.445 112.351 Q139.445 117.93 135.973 121.032 Q132.501 124.11 126.181 124.11 Q124.005 124.11 121.737 123.74 Q119.492 123.37 117.084 122.629 L117.084 117.93 Q119.168 119.064 121.39 119.62 Q123.612 120.175 126.089 120.175 Q130.093 120.175 132.431 118.069 Q134.769 115.962 134.769 112.351 Q134.769 108.74 132.431 106.634 Q130.093 104.527 126.089 104.527 Q124.214 104.527 122.339 104.944 Q120.487 105.36 118.543 106.24 L118.543 88.8791 Z" fill="#000000" fill-rule="evenodd" fill-opacity="1" /><path clip-path="url(#clip220)" d="M46.212 970.695 Q39.7508 970.695 36.0905 973.369 Q32.3984 976.011 32.3984 980.658 Q32.3984 985.305 36.0905 987.978 Q39.7508 990.62 46.212 990.62 Q52.6732 990.62 56.3653 987.978 Q60.0256 985.305 60.0256 980.658 Q60.0256 976.011 56.3653 973.369 Q52.6732 970.695 46.212 970.695 M33.7671 990.62 Q30.5842 988.774 29.0564 985.973 Q27.4968 983.14 27.4968 979.225 Q27.4968 972.732 32.6531 968.69 Q37.8093 964.616 46.212 964.616 Q54.6147 964.616 59.771 968.69 Q64.9272 972.732 64.9272 979.225 Q64.9272 983.14 63.3994 985.973 Q61.8398 988.774 58.657 990.62 L64.0042 990.62 L64.0042 996.508 L14.479 996.508 L14.479 990.62 L33.7671 990.62 Z" fill="#000000" fill-rule="evenodd" fill-opacity="1" /><path clip-path="url(#clip220)" d="M28.3562 954.908 L28.3562 949.052 L64.0042 949.052 L64.0042 954.908 L28.3562 954.908 M14.479 954.908 L14.479 949.052 L21.895 949.052 L21.895 954.908 L14.479 954.908 Z" fill="#000000" fill-rule="evenodd" fill-opacity="1" /><path clip-path="url(#clip220)" d="M32.4621 922.984 Q32.4621 927.695 36.1542 930.432 Q39.8145 933.17 46.212 933.17 Q52.6095 933.17 56.3017 930.464 Q59.9619 927.727 59.9619 922.984 Q59.9619 918.306 56.2698 915.568 Q52.5777 912.831 46.212 912.831 Q39.8781 912.831 36.186 915.568 Q32.4621 918.306 32.4621 922.984 M27.4968 922.984 Q27.4968 915.346 32.4621 910.985 Q37.4273 906.625 46.212 906.625 Q54.9649 906.625 59.9619 910.985 Q64.9272 915.346 64.9272 922.984 Q64.9272 930.655 59.9619 935.016 Q54.9649 939.344 46.212 939.344 Q37.4273 939.344 32.4621 935.016 Q27.4968 930.655 27.4968 922.984 Z" fill="#000000" fill-rule="evenodd" fill-opacity="1" /><path clip-path="url(#clip220)" d="M35.1993 869.162 Q31.2526 866.966 29.3747 863.911 Q27.4968 860.855 27.4968 856.717 Q27.4968 851.147 31.4117 848.124 Q35.2948 845.1 42.4881 845.1 L64.0042 845.1 L64.0042 850.988 L42.679 850.988 Q37.5546 850.988 35.072 852.802 Q32.5894 854.617 32.5894 858.341 Q32.5894 862.892 35.6131 865.534 Q38.6368 868.176 43.8567 868.176 L64.0042 868.176 L64.0042 874.064 L42.679 874.064 Q37.5228 874.064 35.072 875.878 Q32.5894 877.692 32.5894 881.48 Q32.5894 885.968 35.6449 888.61 Q38.6686 891.251 43.8567 891.251 L64.0042 891.251 L64.0042 897.14 L28.3562 897.14 L28.3562 891.251 L33.8944 891.251 Q30.616 889.246 29.0564 886.445 Q27.4968 883.644 27.4968 879.793 Q27.4968 875.91 29.4702 873.205 Q31.4436 870.467 35.1993 869.162 Z" fill="#000000" fill-rule="evenodd" fill-opacity="1" /><path clip-path="url(#clip220)" d="M46.0847 817.218 Q46.0847 824.316 47.7079 827.053 Q49.3312 829.79 53.2461 829.79 Q56.3653 829.79 58.2114 827.753 Q60.0256 825.685 60.0256 822.152 Q60.0256 817.282 56.5881 814.354 Q53.1188 811.394 47.3897 811.394 L46.0847 811.394 L46.0847 817.218 M43.6657 805.537 L64.0042 805.537 L64.0042 811.394 L58.5933 811.394 Q61.8398 813.399 63.3994 816.391 Q64.9272 819.383 64.9272 823.711 Q64.9272 829.186 61.8716 832.432 Q58.7843 835.647 53.6281 835.647 Q47.6125 835.647 44.5569 831.637 Q41.5014 827.594 41.5014 819.605 L41.5014 811.394 L40.9285 811.394 Q36.8862 811.394 34.6901 814.067 Q32.4621 816.709 32.4621 821.515 Q32.4621 824.571 33.1941 827.467 Q33.9262 830.363 35.3903 833.037 L29.9795 833.037 Q28.7381 829.822 28.1334 826.799 Q27.4968 823.775 27.4968 820.91 Q27.4968 813.176 31.5072 809.357 Q35.5176 805.537 43.6657 805.537 Z" fill="#000000" fill-rule="evenodd" fill-opacity="1" /><path clip-path="url(#clip220)" d="M29.4065 770.749 L34.9447 770.749 Q33.6716 773.231 33.035 775.905 Q32.3984 778.578 32.3984 781.443 Q32.3984 785.803 33.7352 788 Q35.072 790.164 37.7456 790.164 Q39.7826 790.164 40.9603 788.604 Q42.1061 787.045 43.1565 782.334 L43.6021 780.329 Q44.9389 774.091 47.3897 771.481 Q49.8086 768.839 54.1691 768.839 Q59.1344 768.839 62.0308 772.786 Q64.9272 776.7 64.9272 783.575 Q64.9272 786.44 64.3543 789.559 Q63.8132 792.647 62.6992 796.084 L56.6518 796.084 Q58.3387 792.838 59.198 789.687 Q60.0256 786.535 60.0256 783.448 Q60.0256 779.31 58.6251 777.082 Q57.1929 774.854 54.6147 774.854 Q52.2276 774.854 50.9545 776.478 Q49.6813 778.069 48.5037 783.512 L48.0262 785.549 Q46.8804 790.991 44.5251 793.41 Q42.138 795.829 38.0002 795.829 Q32.9713 795.829 30.2341 792.265 Q27.4968 788.7 27.4968 782.143 Q27.4968 778.897 27.9743 776.032 Q28.4517 773.167 29.4065 770.749 Z" fill="#000000" fill-rule="evenodd" fill-opacity="1" /><path clip-path="url(#clip220)" d="M29.4065 736.787 L34.9447 736.787 Q33.6716 739.27 33.035 741.944 Q32.3984 744.617 32.3984 747.482 Q32.3984 751.842 33.7352 754.039 Q35.072 756.203 37.7456 756.203 Q39.7826 756.203 40.9603 754.643 Q42.1061 753.084 43.1565 748.373 L43.6021 746.368 Q44.9389 740.129 47.3897 737.52 Q49.8086 734.878 54.1691 734.878 Q59.1344 734.878 62.0308 738.825 Q64.9272 742.739 64.9272 749.614 Q64.9272 752.479 64.3543 755.598 Q63.8132 758.686 62.6992 762.123 L56.6518 762.123 Q58.3387 758.876 59.198 755.725 Q60.0256 752.574 60.0256 749.487 Q60.0256 745.349 58.6251 743.121 Q57.1929 740.893 54.6147 740.893 Q52.2276 740.893 50.9545 742.517 Q49.6813 744.108 48.5037 749.551 L48.0262 751.588 Q46.8804 757.03 44.5251 759.449 Q42.138 761.868 38.0002 761.868 Q32.9713 761.868 30.2341 758.304 Q27.4968 754.739 27.4968 748.182 Q27.4968 744.936 27.9743 742.071 Q28.4517 739.206 29.4065 736.787 Z" fill="#000000" fill-rule="evenodd" fill-opacity="1" /><path clip-path="url(#clip220)" d="M33.7671 681.374 L14.479 681.374 L14.479 675.518 L64.0042 675.518 L64.0042 681.374 L58.657 681.374 Q61.8398 683.22 63.3994 686.053 Q64.9272 688.854 64.9272 692.8 Q64.9272 699.262 59.771 703.336 Q54.6147 707.378 46.212 707.378 Q37.8093 707.378 32.6531 703.336 Q27.4968 699.262 27.4968 692.8 Q27.4968 688.854 29.0564 686.053 Q30.5842 683.22 33.7671 681.374 M46.212 701.33 Q52.6732 701.33 56.3653 698.689 Q60.0256 696.015 60.0256 691.368 Q60.0256 686.721 56.3653 684.048 Q52.6732 681.374 46.212 681.374 Q39.7508 681.374 36.0905 684.048 Q32.3984 686.721 32.3984 691.368 Q32.3984 696.015 36.0905 698.689 Q39.7508 701.33 46.212 701.33 Z" fill="#000000" fill-rule="evenodd" fill-opacity="1" /><path clip-path="url(#clip220)" d="M44.7161 632.963 L47.5806 632.963 L47.5806 659.89 Q53.6281 659.508 56.8109 656.261 Q59.9619 652.983 59.9619 647.158 Q59.9619 643.785 59.1344 640.633 Q58.3069 637.451 56.6518 634.331 L62.1899 634.331 Q63.5267 637.482 64.227 640.793 Q64.9272 644.103 64.9272 647.508 Q64.9272 656.038 59.9619 661.036 Q54.9967 666.001 46.5303 666.001 Q37.7774 666.001 32.6531 661.29 Q27.4968 656.548 27.4968 648.527 Q27.4968 641.334 32.1438 637.164 Q36.7589 632.963 44.7161 632.963 M42.9973 638.819 Q38.1912 638.883 35.3266 641.525 Q32.4621 644.135 32.4621 648.463 Q32.4621 653.365 35.2312 656.325 Q38.0002 659.253 43.0292 659.699 L42.9973 638.819 Z" fill="#000000" fill-rule="evenodd" fill-opacity="1" /><path clip-path="url(#clip220)" d="M42.4881 593.718 L64.0042 593.718 L64.0042 599.575 L42.679 599.575 Q37.6183 599.575 35.1038 601.548 Q32.5894 603.521 32.5894 607.468 Q32.5894 612.211 35.6131 614.948 Q38.6368 617.685 43.8567 617.685 L64.0042 617.685 L64.0042 623.573 L28.3562 623.573 L28.3562 617.685 L33.8944 617.685 Q30.6797 615.584 29.0883 612.752 Q27.4968 609.887 27.4968 606.163 Q27.4968 600.02 31.3163 596.869 Q35.1038 593.718 42.4881 593.718 Z" fill="#000000" fill-rule="evenodd" fill-opacity="1" /><path clip-path="url(#clip220)" d="M29.4065 559.312 L34.9447 559.312 Q33.6716 561.794 33.035 564.468 Q32.3984 567.141 32.3984 570.006 Q32.3984 574.366 33.7352 576.563 Q35.072 578.727 37.7456 578.727 Q39.7826 578.727 40.9603 577.167 Q42.1061 575.608 43.1565 570.897 L43.6021 568.892 Q44.9389 562.654 47.3897 560.044 Q49.8086 557.402 54.1691 557.402 Q59.1344 557.402 62.0308 561.349 Q64.9272 565.264 64.9272 572.138 Q64.9272 575.003 64.3543 578.122 Q63.8132 581.21 62.6992 584.647 L56.6518 584.647 Q58.3387 581.401 59.198 578.25 Q60.0256 575.099 60.0256 572.011 Q60.0256 567.873 58.6251 565.645 Q57.1929 563.417 54.6147 563.417 Q52.2276 563.417 50.9545 565.041 Q49.6813 566.632 48.5037 572.075 L48.0262 574.112 Q46.8804 579.555 44.5251 581.973 Q42.138 584.392 38.0002 584.392 Q32.9713 584.392 30.2341 580.828 Q27.4968 577.263 27.4968 570.706 Q27.4968 567.46 27.9743 564.595 Q28.4517 561.731 29.4065 559.312 Z" fill="#000000" fill-rule="evenodd" fill-opacity="1" /><path clip-path="url(#clip220)" d="M28.3562 548.076 L28.3562 542.22 L64.0042 542.22 L64.0042 548.076 L28.3562 548.076 M14.479 548.076 L14.479 542.22 L21.895 542.22 L21.895 548.076 L14.479 548.076 Z" fill="#000000" fill-rule="evenodd" fill-opacity="1" /><path clip-path="url(#clip220)" d="M18.2347 524.173 L28.3562 524.173 L28.3562 512.11 L32.9077 512.11 L32.9077 524.173 L52.2594 524.173 Q56.6199 524.173 57.8613 522.995 Q59.1026 521.786 59.1026 518.125 L59.1026 512.11 L64.0042 512.11 L64.0042 518.125 Q64.0042 524.905 61.4897 527.483 Q58.9434 530.061 52.2594 530.061 L32.9077 530.061 L32.9077 534.358 L28.3562 534.358 L28.3562 530.061 L18.2347 530.061 L18.2347 524.173 Z" fill="#000000" fill-rule="evenodd" fill-opacity="1" /><path clip-path="url(#clip220)" d="M67.3143 489.575 Q73.68 492.058 75.6216 494.413 Q77.5631 496.769 77.5631 500.715 L77.5631 505.394 L72.6615 505.394 L72.6615 501.957 Q72.6615 499.538 71.5157 498.201 Q70.3699 496.864 66.1048 495.241 L63.4312 494.19 L28.3562 508.609 L28.3562 502.402 L56.238 491.262 L28.3562 480.122 L28.3562 473.916 L67.3143 489.575 Z" fill="#000000" fill-rule="evenodd" fill-opacity="1" /><polyline clip-path="url(#clip222)" style="stroke:#009af9; stroke-linecap:butt; stroke-linejoin:round; stroke-width:8; stroke-opacity:1; fill:none" points="
  175.445,1384.24 177.625,1368.25 179.804,1352.27 181.984,1336.33 184.163,1320.42 186.343,1304.56 188.522,1288.76 190.702,1273.04 192.881,1257.39 195.061,1241.83 
  197.24,1226.36 199.42,1210.99 201.599,1195.73 203.779,1180.58 205.958,1165.54 208.138,1150.63 210.317,1135.84 212.497,1121.17 214.676,1106.64 216.856,1092.25 
  219.035,1077.99 221.215,1063.87 223.394,1049.89 225.573,1036.06 227.753,1022.37 229.932,1008.82 232.112,995.426 234.291,982.176 236.471,969.075 238.65,956.122 
  240.83,943.319 243.009,930.666 245.189,918.163 247.368,905.81 249.548,893.608 251.727,881.555 253.907,869.652 256.086,857.898 258.266,846.292 260.445,834.835 
  262.625,823.525 264.804,812.361 266.984,801.343 269.163,790.47 271.343,779.742 273.522,769.156 275.702,758.712 277.881,748.409 280.061,738.246 282.24,728.221 
  284.42,718.334 286.599,708.583 288.779,698.968 290.958,689.486 293.138,680.138 295.317,670.92 297.497,661.833 299.676,652.876 301.856,644.045 304.035,635.342 
  306.215,626.763 308.394,618.309 310.574,609.976 312.753,601.765 314.933,593.673 317.112,585.7 319.292,577.843 321.471,570.102 323.651,562.475 325.83,554.96 
  328.01,547.556 330.189,540.263 332.369,533.078 334.548,526 336.727,519.028 338.907,512.16 341.086,505.396 343.266,498.734 345.445,492.172 347.625,485.71 
  349.804,479.345 351.984,473.078 354.163,466.905 356.343,460.827 358.522,454.842 360.702,448.948 362.881,443.145 365.061,437.431 367.24,431.805 369.42,426.265 
  371.599,420.811 373.779,415.442 375.958,410.155 378.138,404.951 380.317,399.827 382.497,394.782 384.676,389.816 386.856,384.928 389.035,380.115 391.215,375.378 
  393.394,370.714 395.574,366.123 397.753,361.604 399.933,357.156 402.112,352.778 404.292,348.468 406.471,344.226 408.651,340.052 410.83,335.943 413.01,331.898 
  415.189,327.918 417.369,324.001 419.548,320.146 421.728,316.352 423.907,312.618 426.087,308.944 428.266,305.328 430.446,301.769 432.625,298.268 434.805,294.822 
  436.984,291.431 439.164,288.094 441.343,284.811 443.523,281.58 445.702,278.4 447.881,275.272 450.061,272.193 452.24,269.164 454.42,266.183 456.599,263.25 
  458.779,260.364 460.958,257.524 463.138,254.73 465.317,251.98 467.497,249.275 469.676,246.613 471.856,243.993 474.035,241.416 476.215,238.879 478.394,236.384 
  480.574,233.929 482.753,231.513 484.933,229.136 487.112,226.798 489.292,224.497 491.471,222.234 493.651,220.007 495.83,217.817 498.01,215.661 500.189,213.541 
  502.369,211.455 504.548,209.403 506.728,207.385 508.907,205.399 511.087,203.446 513.266,201.524 515.446,199.634 517.625,197.774 519.805,195.945 521.984,194.145 
  524.164,192.375 526.343,190.634 528.523,188.921 530.702,187.236 532.882,185.578 535.061,183.947 537.241,182.343 539.42,180.765 541.6,179.213 543.779,177.686 
  545.959,176.184 548.138,174.706 550.318,173.252 552.497,171.822 554.677,170.415 556.856,169.031 559.035,167.669 561.215,166.329 563.394,165.011 565.574,163.715 
  567.753,162.439 569.933,161.184 572.112,159.95 574.292,158.735 576.471,157.541 578.651,156.366 580.83,155.21 583.01,154.073 585.189,152.955 587.369,151.855 
  589.548,150.774 591.728,149.71 593.907,148.663 596.087,147.634 598.266,146.622 600.446,145.626 602.625,144.647 604.805,143.684 606.984,142.737 609.164,141.805 
  611.343,140.889 613.523,139.988 615.702,139.102 617.882,138.231 620.061,137.374 622.241,136.531 624.42,135.702 626.6,134.887 628.779,134.085 630.959,133.296 
  633.138,132.52 635.318,131.757 637.497,131.007 639.677,130.269 641.856,129.543 644.036,128.829 646.215,128.127 648.395,127.436 650.574,126.757 652.754,126.088 
  654.933,125.431 657.113,124.784 659.292,124.148 661.472,123.522 663.651,122.906 665.831,122.301 668.01,121.705 670.189,121.118 672.369,120.542 674.548,119.974 
  676.728,119.416 678.907,118.867 681.087,118.326 683.266,117.795 685.446,117.273 687.625,116.759 689.805,116.253 691.984,115.756 694.164,115.267 696.343,114.786 
  698.523,114.313 700.702,113.848 702.882,113.39 705.061,112.94 707.241,112.498 709.42,112.063 711.6,111.635 713.779,111.214 715.959,110.801 718.138,110.394 
  720.318,109.994 722.497,109.601 724.677,109.214 726.856,108.834 729.036,108.46 731.215,108.092 733.395,107.731 735.574,107.376 737.754,107.026 739.933,106.682 
  742.113,106.344 744.292,106.012 746.472,105.685 748.651,105.364 750.831,105.048 753.01,104.737 755.19,104.432 757.369,104.131 759.549,103.836 761.728,103.545 
  763.908,103.259 766.087,102.978 768.267,102.701 770.446,102.429 772.626,102.162 774.805,101.899 776.984,101.64 779.164,101.385 781.343,101.134 783.523,100.888 
  785.702,100.645 787.882,100.406 790.061,100.171 792.241,99.94 794.42,99.7125 796.6,99.4886 798.779,99.2682 800.959,99.0515 803.138,98.8382 805.318,98.6284 
  807.497,98.422 809.677,98.2189 811.856,98.0192 814.036,97.8228 816.215,97.6295 818.395,97.4395 820.574,97.2526 822.754,97.0688 824.933,96.888 827.113,96.7103 
  829.292,96.5355 831.472,96.3636 833.651,96.1946 835.831,96.0284 838.01,95.8651 840.19,95.7044 842.369,95.5465 844.549,95.3913 846.728,95.2387 848.908,95.0886 
  851.087,94.9411 853.267,94.7961 855.446,94.6536 857.626,94.5135 859.805,94.3758 861.985,94.2404 864.164,94.1074 866.344,93.9766 868.523,93.848 870.703,93.7216 
  872.882,93.5974 875.062,93.4753 877.241,93.3553 879.421,93.2373 881.6,93.1213 883.78,93.0073 885.959,92.8952 888.138,92.7851 890.318,92.6767 892.497,92.5702 
  894.677,92.4655 896.856,92.3626 899.036,92.2613 901.215,92.1618 903.395,92.0639 905.574,91.9676 907.754,91.8729 909.933,91.7798 912.113,91.6882 914.292,91.5981 
  916.472,91.5094 918.651,91.4221 920.831,91.3363 923.01,91.2518 925.19,91.1686 927.369,91.0867 929.549,91.0061 931.728,90.9267 933.908,90.8486 936.087,90.7716 
  938.267,90.6957 940.446,90.6211 942.626,90.5476 944.805,90.4752 946.985,90.404 949.164,90.3338 951.344,90.2648 953.523,90.1969 955.703,90.13 957.882,90.0642 
  960.062,89.9995 962.241,89.9358 964.421,89.8731 966.6,89.8115 968.78,89.7509 970.959,89.6912 973.139,89.6326 975.318,89.5749 977.498,89.5182 979.677,89.4624 
  981.857,89.4075 984.036,89.3536 986.216,89.3006 988.395,89.2485 990.575,89.1972 992.754,89.1469 994.934,89.0974 997.113,89.0488 999.292,89.001 1001.47,88.954 
  1003.65,88.9078 1005.83,88.8625 1008.01,88.8179 1010.19,88.7741 1012.37,88.7311 1014.55,88.6888 1016.73,88.6473 1018.91,88.6065 1021.09,88.5664 1023.27,88.5271 
  1025.45,88.4884 1027.63,88.4505 1029.81,88.4132 1031.98,88.3765 1034.16,88.3405 1036.34,88.3052 1038.52,88.2705 1040.7,88.2364 1042.88,88.2029 1045.06,88.17 
  1047.24,88.1377 1049.42,88.1059 1051.6,88.0748 1053.78,88.0441 1055.96,88.014 1058.14,87.9844 1060.32,87.9554 1062.5,87.9268 1064.68,87.8988 1066.86,87.8712 
  1069.04,87.8441 1071.22,87.8174 1073.4,87.7912 1075.57,87.7654 1077.75,87.74 1079.93,87.7151 1082.11,87.6906 1084.29,87.6664 1086.47,87.6426 1088.65,87.6192 
  1090.83,87.5962 1093.01,87.5735 1095.19,87.5511 1097.37,87.5291 1099.55,87.5073 1101.73,87.4859 1103.91,87.4648 1106.09,87.4439 1108.27,87.4233 1110.45,87.403 
  1112.63,87.3829 1114.81,87.3631 1116.98,87.3436 1119.16,87.3243 1121.34,87.3053 1123.52,87.2866 1125.7,87.2682 1127.88,87.25 1130.06,87.2321 1132.24,87.2145 
  1134.42,87.1971 1136.6,87.18 1138.78,87.1632 1140.96,87.1466 1143.14,87.1303 1145.32,87.1142 1147.5,87.0984 1149.68,87.0828 1151.86,87.0675 1154.04,87.0525 
  1156.22,87.0376 1158.4,87.0231 1160.57,87.0087 1162.75,86.9946 1164.93,86.9808 1167.11,86.9671 1169.29,86.9537 1171.47,86.9406 1173.65,86.9276 1175.83,86.9149 
  1178.01,86.9025 1180.19,86.8902 1182.37,86.8782 1184.55,86.8663 1186.73,86.8547 1188.91,86.8433 1191.09,86.8321 1193.27,86.8212 1195.45,86.8104 1197.63,86.7998 
  1199.81,86.7894 1201.99,86.7793 1204.16,86.7693 1206.34,86.7595 1208.52,86.7499 1210.7,86.7405 1212.88,86.7313 1215.06,86.7222 1217.24,86.7133 1219.42,86.7047 
  1221.6,86.6961 1223.78,86.6878 1225.96,86.6796 1228.14,86.6716 1230.32,86.6637 1232.5,86.656 1234.68,86.6485 1236.86,86.6411 1239.04,86.6339 1241.22,86.6268 
  1243.4,86.6198 1245.57,86.613 1247.75,86.6063 1249.93,86.5998 1252.11,86.5934 1254.29,86.5871 1256.47,86.581 1258.65,86.5749 1260.83,86.569 1263.01,86.5632 
  1265.19,86.5575 1267.37,86.5519 1269.55,86.5465 1271.73,86.5411 1273.91,86.5358 1276.09,86.5306 1278.27,86.5255 1280.45,86.5205 1282.63,86.5156 1284.81,86.5107 
  1286.99,86.506 1289.16,86.5013 1291.34,86.4967 1293.52,86.4921 1295.7,86.4876 1297.88,86.4832 1300.06,86.4788 1302.24,86.4744 1304.42,86.4701 1306.6,86.4659 
  1308.78,86.4617 1310.96,86.4575 1313.14,86.4534 1315.32,86.4493 1317.5,86.4452 1319.68,86.4411 1321.86,86.437 1324.04,86.433 1326.22,86.4289 1328.4,86.425 
  1330.58,86.421 1332.75,86.4171 1334.93,86.4132 1337.11,86.4094 1339.29,86.4056 1341.47,86.4018 1343.65,86.3981 1345.83,86.3945 1348.01,86.3909 1350.19,86.3873 
  1352.37,86.3838 1354.55,86.3803 1356.73,86.3769 1358.91,86.3735 1361.09,86.3701 1363.27,86.3668 1365.45,86.3636 1367.63,86.3604 1369.81,86.3572 1371.99,86.3541 
  1374.16,86.351 1376.34,86.348 1378.52,86.3451 1380.7,86.3421 1382.88,86.3392 1385.06,86.3364 1387.24,86.3336 1389.42,86.3309 1391.6,86.3282 1393.78,86.3255 
  1395.96,86.3229 1398.14,86.3204 1400.32,86.3179 1402.5,86.3154 1404.68,86.313 1406.86,86.3106 1409.04,86.3083 1411.22,86.3061 1413.4,86.3038 1415.58,86.3016 
  1417.75,86.2995 1419.93,86.2974 1422.11,86.2954 1424.29,86.2934 1426.47,86.2914 1428.65,86.2895 1430.83,86.2876 1433.01,86.2858 1435.19,86.284 1437.37,86.2822 
  1439.55,86.2805 1441.73,86.2789 1443.91,86.2773 1446.09,86.2757 1448.27,86.2742 1450.45,86.2727 1452.63,86.2712 1454.81,86.2698 1456.99,86.2684 1459.16,86.2671 
  1461.34,86.2658 1463.52,86.2645 1465.7,86.2633 1467.88,86.2621 1470.06,86.2609 1472.24,86.2598 1474.42,86.2587 1476.6,86.2577 1478.78,86.2566 1480.96,86.2556 
  1483.14,86.2547 1485.32,86.2538 1487.5,86.2529 1489.68,86.252 1491.86,86.2511 1494.04,86.2503 1496.22,86.2495 1498.4,86.2488 1500.58,86.2481 1502.75,86.2473 
  1504.93,86.2467 1507.11,86.246 1509.29,86.2453 1511.47,86.2447 1513.65,86.2441 1515.83,86.2435 1518.01,86.243 1520.19,86.2424 1522.37,86.2419 1524.55,86.2414 
  1526.73,86.2409 1528.91,86.2404 1531.09,86.2399 1533.27,86.2394 1535.45,86.239 1537.63,86.2385 1539.81,86.2381 1541.99,86.2377 1544.17,86.2372 1546.34,86.2368 
  1548.52,86.2364 1550.7,86.236 1552.88,86.2355 1555.06,86.2351 1557.24,86.2347 1559.42,86.2343 1561.6,86.2338 1563.78,86.2334 1565.96,86.2329 1568.14,86.2325 
  1570.32,86.232 1572.5,86.2316 1574.68,86.2311 1576.86,86.2306 1579.04,86.2301 1581.22,86.2295 1583.4,86.229 1585.58,86.2284 1587.75,86.2278 1589.93,86.2272 
  1592.11,86.2266 1594.29,86.2259 1596.47,86.2253 1598.65,86.2246 1600.83,86.224 1603.01,86.2234 1605.19,86.2227 1607.37,86.2221 1609.55,86.2215 1611.73,86.2208 
  1613.91,86.2202 1616.09,86.2196 1618.27,86.2189 1620.45,86.2183 1622.63,86.2177 1624.81,86.2171 1626.99,86.2165 1629.17,86.2158 1631.34,86.2152 1633.52,86.2146 
  1635.7,86.214 1637.88,86.2134 1640.06,86.2128 1642.24,86.2123 1644.42,86.2117 1646.6,86.2111 1648.78,86.2105 1650.96,86.21 1653.14,86.2094 1655.32,86.2089 
  1657.5,86.2083 1659.68,86.2078 1661.86,86.2073 1664.04,86.2068 1666.22,86.2063 1668.4,86.2057 1670.58,86.2053 1672.75,86.2048 1674.93,86.2043 1677.11,86.2038 
  1679.29,86.2034 1681.47,86.2029 1683.65,86.2025 1685.83,86.202 1688.01,86.2016 1690.19,86.2012 1692.37,86.2008 1694.55,86.2004 1696.73,86.2 1698.91,86.1996 
  1701.09,86.1992 1703.27,86.1989 1705.45,86.1985 1707.63,86.1982 1709.81,86.1978 1711.99,86.1975 1714.17,86.1972 1716.34,86.1969 1718.52,86.1966 1720.7,86.1963 
  1722.88,86.196 1725.06,86.1958 1727.24,86.1955 1729.42,86.1953 1731.6,86.195 1733.78,86.1948 1735.96,86.1946 1738.14,86.1944 1740.32,86.1942 1742.5,86.194 
  1744.68,86.1939 1746.86,86.1937 1749.04,86.1935 1751.22,86.1934 1753.4,86.1933 1755.58,86.1931 1757.76,86.193 1759.93,86.1929 1762.11,86.1928 1764.29,86.1927 
  1766.47,86.1927 1768.65,86.1926 1770.83,86.1925 1773.01,86.1925 1775.19,86.1924 1777.37,86.1924 1779.55,86.1924 1781.73,86.1924 1783.91,86.1924 1786.09,86.1924 
  1788.27,86.1924 1790.45,86.1924 1792.63,86.1924 1794.81,86.1924 1796.99,86.1925 1799.17,86.1925 1801.34,86.1926 1803.52,86.1926 1805.7,86.1927 1807.88,86.1928 
  1810.06,86.1928 1812.24,86.1929 1814.42,86.193 1816.6,86.1931 1818.78,86.1932 1820.96,86.1933 1823.14,86.1934 1825.32,86.1935 1827.5,86.1936 1829.68,86.1938 
  1831.86,86.1939 1834.04,86.194 1836.22,86.1941 1838.4,86.1943 1840.58,86.1944 1842.76,86.1945 1844.93,86.1947 1847.11,86.1948 1849.29,86.195 1851.47,86.1951 
  1853.65,86.1952 1855.83,86.1954 1858.01,86.1955 1860.19,86.1957 1862.37,86.1958 1864.55,86.1959 1866.73,86.1961 1868.91,86.1962 1871.09,86.1963 1873.27,86.1965 
  1875.45,86.1966 1877.63,86.1967 1879.81,86.1968 1881.99,86.1969 1884.17,86.197 1886.35,86.1971 1888.52,86.1972 1890.7,86.1973 1892.88,86.1974 1895.06,86.1975 
  1897.24,86.1975 1899.42,86.1976 1901.6,86.1976 1903.78,86.1977 1905.96,86.1977 1908.14,86.1977 1910.32,86.1977 1912.5,86.1977 1914.68,86.1977 1916.86,86.1977 
  1919.04,86.1977 1921.22,86.1976 1923.4,86.1976 1925.58,86.1975 1927.76,86.1974 1929.93,86.1973 1932.11,86.1971 1934.29,86.197 1936.47,86.1969 1938.65,86.1967 
  1940.83,86.1966 1943.01,86.1964 1945.19,86.1963 1947.37,86.1961 1949.55,86.196 1951.73,86.1958 1953.91,86.1956 1956.09,86.1955 1958.27,86.1953 1960.45,86.1951 
  1962.63,86.195 1964.81,86.1948 1966.99,86.1946 1969.17,86.1944 1971.35,86.1942 1973.52,86.1941 1975.7,86.1939 1977.88,86.1937 1980.06,86.1935 1982.24,86.1933 
  1984.42,86.1932 1986.6,86.193 1988.78,86.1928 1990.96,86.1926 1993.14,86.1924 1995.32,86.1922 1997.5,86.1921 1999.68,86.1919 2001.86,86.1917 2004.04,86.1915 
  2006.22,86.1913 2008.4,86.1912 2010.58,86.191 2012.76,86.1908 2014.93,86.1906 2017.11,86.1905 2019.29,86.1903 2021.47,86.1901 2023.65,86.19 2025.83,86.1898 
  2028.01,86.1896 2030.19,86.1895 2032.37,86.1893 2034.55,86.1892 2036.73,86.189 2038.91,86.1889 2041.09,86.1887 2043.27,86.1886 2045.45,86.1884 2047.63,86.1883 
  2049.81,86.1882 2051.99,86.188 2054.17,86.1879 2056.35,86.1878 2058.52,86.1877 2060.7,86.1875 2062.88,86.1874 2065.06,86.1873 2067.24,86.1872 2069.42,86.1871 
  2071.6,86.187 2073.78,86.1869 2075.96,86.1868 2078.14,86.1867 2080.32,86.1866 2082.5,86.1865 2084.68,86.1864 2086.86,86.1864 2089.04,86.1863 2091.22,86.1862 
  2093.4,86.1862 2095.58,86.1861 2097.76,86.186 2099.94,86.186 2102.11,86.1859 2104.29,86.1859 2106.47,86.1859 2108.65,86.1858 2110.83,86.1858 2113.01,86.1858 
  2115.19,86.1857 2117.37,86.1857 2119.55,86.1857 2121.73,86.1857 2123.91,86.1857 2126.09,86.1857 2128.27,86.1857 2130.45,86.1857 2132.63,86.1857 2134.81,86.1857 
  2136.99,86.1857 2139.17,86.1857 2141.35,86.1858 2143.52,86.1858 2145.7,86.1858 2147.88,86.1858 2150.06,86.1859 2152.24,86.1859 2154.42,86.186 2156.6,86.186 
  2158.78,86.1861 2160.96,86.1861 2163.14,86.1862 2165.32,86.1863 2167.5,86.1863 2169.68,86.1864 2171.86,86.1865 2174.04,86.1866 2176.22,86.1866 2178.4,86.1867 
  2180.58,86.1868 2182.76,86.1869 2184.94,86.187 2187.11,86.1871 2189.29,86.1872 2191.47,86.1873 2193.65,86.1874 2195.83,86.1875 2198.01,86.1876 2200.19,86.1877 
  2202.37,86.1878 2204.55,86.188 2206.73,86.1881 2208.91,86.1882 2211.09,86.1883 2213.27,86.1884 2215.45,86.1886 2217.63,86.1887 2219.81,86.1888 2221.99,86.189 
  2224.17,86.1891 2226.35,86.1892 2228.52,86.1894 2230.7,86.1895 2232.88,86.1896 2235.06,86.1898 2237.24,86.1899 2239.42,86.19 2241.6,86.1902 2243.78,86.1903 
  2245.96,86.1905 2248.14,86.1906 2250.32,86.1907 2252.5,86.1909 2254.68,86.191 2256.86,86.1911 2259.04,86.1913 2261.22,86.1914 2263.4,86.1916 2265.58,86.1917 
  2267.76,86.1918 2269.94,86.1919 2272.11,86.1921 2274.29,86.1922 2276.47,86.1923 2278.65,86.1924 2280.83,86.1926 2283.01,86.1927 2285.19,86.1928 2287.37,86.1929 
  2289.55,86.193 2291.73,86.1931 2293.91,86.1932 2296.09,86.1933 2298.27,86.1934 2300.45,86.1935 2302.63,86.1936 2304.81,86.1937 2306.99,86.1937 2309.17,86.1938 
  2311.35,86.1939 2313.53,86.1939 2315.7,86.194 2317.88,86.194 2320.06,86.1941 2322.24,86.1941 2324.42,86.1941 2326.6,86.1942 2328.78,86.1942 2330.96,86.1942 
  2333.14,86.1942 2335.32,86.1942 2337.5,86.1942 2339.68,86.1941 2341.86,86.1941 2344.04,86.1941 2346.22,86.194 2348.4,86.194 2350.58,86.1939 2352.76,86.1938 
  
  "/>
</svg>
