<?xml version="1.0" encoding="utf-8"?>
<svg xmlns="http://www.w3.org/2000/svg" xmlns:xlink="http://www.w3.org/1999/xlink" width="600" height="400" viewBox="0 0 2400 1600">
<defs>
  <clipPath id="clip190">
    <rect x="0" y="0" width="2400" height="1600"/>
  </clipPath>
</defs>
<path clip-path="url(#clip190)" d="
M0 1600 L2400 1600 L2400 0 L0 0  Z
  " fill="#ffffff" fill-rule="evenodd" fill-opacity="1"/>
<defs>
  <clipPath id="clip191">
    <rect x="480" y="0" width="1681" height="1600"/>
  </clipPath>
</defs>
<path clip-path="url(#clip190)" d="
M276.274 1399.19 L2352.76 1399.19 L2352.76 47.2441 L276.274 47.2441  Z
  " fill="#ffffff" fill-rule="evenodd" fill-opacity="1"/>
<defs>
  <clipPath id="clip192">
    <rect x="276" y="47" width="2077" height="1353"/>
  </clipPath>
</defs>
<polyline clip-path="url(#clip192)" style="stroke:#000000; stroke-linecap:butt; stroke-linejoin:round; stroke-width:2; stroke-opacity:0.1; fill:none" points="
  335.042,1399.19 335.042,47.2441 
  "/>
<polyline clip-path="url(#clip192)" style="stroke:#000000; stroke-linecap:butt; stroke-linejoin:round; stroke-width:2; stroke-opacity:0.1; fill:none" points="
  824.779,1399.19 824.779,47.2441 
  "/>
<polyline clip-path="url(#clip192)" style="stroke:#000000; stroke-linecap:butt; stroke-linejoin:round; stroke-width:2; stroke-opacity:0.1; fill:none" points="
  1314.51,1399.19 1314.51,47.2441 
  "/>
<polyline clip-path="url(#clip192)" style="stroke:#000000; stroke-linecap:butt; stroke-linejoin:round; stroke-width:2; stroke-opacity:0.1; fill:none" points="
  1804.25,1399.19 1804.25,47.2441 
  "/>
<polyline clip-path="url(#clip192)" style="stroke:#000000; stroke-linecap:butt; stroke-linejoin:round; stroke-width:2; stroke-opacity:0.1; fill:none" points="
  2293.99,1399.19 2293.99,47.2441 
  "/>
<polyline clip-path="url(#clip190)" style="stroke:#000000; stroke-linecap:butt; stroke-linejoin:round; stroke-width:4; stroke-opacity:1; fill:none" points="
  276.274,1399.19 2352.76,1399.19 
  "/>
<polyline clip-path="url(#clip190)" style="stroke:#000000; stroke-linecap:butt; stroke-linejoin:round; stroke-width:4; stroke-opacity:1; fill:none" points="
  335.042,1399.19 335.042,1380.29 
  "/>
<polyline clip-path="url(#clip190)" style="stroke:#000000; stroke-linecap:butt; stroke-linejoin:round; stroke-width:4; stroke-opacity:1; fill:none" points="
  824.779,1399.19 824.779,1380.29 
  "/>
<polyline clip-path="url(#clip190)" style="stroke:#000000; stroke-linecap:butt; stroke-linejoin:round; stroke-width:4; stroke-opacity:1; fill:none" points="
  1314.51,1399.19 1314.51,1380.29 
  "/>
<polyline clip-path="url(#clip190)" style="stroke:#000000; stroke-linecap:butt; stroke-linejoin:round; stroke-width:4; stroke-opacity:1; fill:none" points="
  1804.25,1399.19 1804.25,1380.29 
  "/>
<polyline clip-path="url(#clip190)" style="stroke:#000000; stroke-linecap:butt; stroke-linejoin:round; stroke-width:4; stroke-opacity:1; fill:none" points="
  2293.99,1399.19 2293.99,1380.29 
  "/>
<path clip-path="url(#clip190)" d="M271.817 1487.04 L281.365 1487.04 L281.365 1454.08 L270.978 1456.17 L270.978 1450.84 L281.307 1448.76 L287.152 1448.76 L287.152 1487.04 L296.701 1487.04 L296.701 1491.96 L271.817 1491.96 L271.817 1487.04 Z" fill="#000000" fill-rule="evenodd" fill-opacity="1" /><path clip-path="url(#clip190)" d="M321.006 1452.61 Q316.492 1452.61 314.206 1457.07 Q311.95 1461.49 311.95 1470.4 Q311.95 1479.29 314.206 1483.74 Q316.492 1488.17 321.006 1488.17 Q325.549 1488.17 327.806 1483.74 Q330.092 1479.29 330.092 1470.4 Q330.092 1461.49 327.806 1457.07 Q325.549 1452.61 321.006 1452.61 M321.006 1447.98 Q328.269 1447.98 332.088 1453.74 Q335.937 1459.47 335.937 1470.4 Q335.937 1481.31 332.088 1487.07 Q328.269 1492.8 321.006 1492.8 Q313.743 1492.8 309.895 1487.07 Q306.076 1481.31 306.076 1470.4 Q306.076 1459.47 309.895 1453.74 Q313.743 1447.98 321.006 1447.98 Z" fill="#000000" fill-rule="evenodd" fill-opacity="1" /><path clip-path="url(#clip190)" d="M335.937 1440.61 L366.076 1440.61 L366.076 1444.6 L335.937 1444.6 L335.937 1440.61 Z" fill="#000000" fill-rule="evenodd" fill-opacity="1" /><path clip-path="url(#clip190)" d="M389.374 1426.74 L377.384 1445.47 L389.374 1445.47 L389.374 1426.74 M388.128 1422.6 L394.1 1422.6 L394.1 1445.47 L399.107 1445.47 L399.107 1449.42 L394.1 1449.42 L394.1 1457.7 L389.374 1457.7 L389.374 1449.42 L373.529 1449.42 L373.529 1444.84 L388.128 1422.6 Z" fill="#000000" fill-rule="evenodd" fill-opacity="1" /><path clip-path="url(#clip190)" d="M762.611 1487.04 L772.159 1487.04 L772.159 1454.08 L761.772 1456.17 L761.772 1450.84 L772.102 1448.76 L777.946 1448.76 L777.946 1487.04 L787.495 1487.04 L787.495 1491.96 L762.611 1491.96 L762.611 1487.04 Z" fill="#000000" fill-rule="evenodd" fill-opacity="1" /><path clip-path="url(#clip190)" d="M811.8 1452.61 Q807.287 1452.61 805.001 1457.07 Q802.744 1461.49 802.744 1470.4 Q802.744 1479.29 805.001 1483.74 Q807.287 1488.17 811.8 1488.17 Q816.343 1488.17 818.6 1483.74 Q820.886 1479.29 820.886 1470.4 Q820.886 1461.49 818.6 1457.07 Q816.343 1452.61 811.8 1452.61 M811.8 1447.98 Q819.063 1447.98 822.883 1453.74 Q826.731 1459.47 826.731 1470.4 Q826.731 1481.31 822.883 1487.07 Q819.063 1492.8 811.8 1492.8 Q804.538 1492.8 800.689 1487.07 Q796.87 1481.31 796.87 1470.4 Q796.87 1459.47 800.689 1453.74 Q804.538 1447.98 811.8 1447.98 Z" fill="#000000" fill-rule="evenodd" fill-opacity="1" /><path clip-path="url(#clip190)" d="M826.731 1440.61 L856.87 1440.61 L856.87 1444.6 L826.731 1444.6 L826.731 1440.61 Z" fill="#000000" fill-rule="evenodd" fill-opacity="1" /><path clip-path="url(#clip190)" d="M871.211 1453.7 L887.786 1453.7 L887.786 1457.7 L865.498 1457.7 L865.498 1453.7 Q868.202 1450.9 872.857 1446.2 Q877.535 1441.48 878.734 1440.11 Q881.015 1437.55 881.908 1435.79 Q882.825 1434 882.825 1432.28 Q882.825 1429.49 880.85 1427.72 Q878.899 1425.96 875.749 1425.96 Q873.515 1425.96 871.023 1426.74 Q868.555 1427.51 865.733 1429.09 L865.733 1424.29 Q868.602 1423.14 871.094 1422.55 Q873.586 1421.96 875.655 1421.96 Q881.109 1421.96 884.353 1424.69 Q887.598 1427.42 887.598 1431.98 Q887.598 1434.14 886.775 1436.09 Q885.975 1438.02 883.836 1440.65 Q883.248 1441.34 880.098 1444.6 Q876.948 1447.85 871.211 1453.7 Z" fill="#000000" fill-rule="evenodd" fill-opacity="1" /><path clip-path="url(#clip190)" d="M1270.74 1487.04 L1280.29 1487.04 L1280.29 1454.08 L1269.9 1456.17 L1269.9 1450.84 L1280.23 1448.76 L1286.08 1448.76 L1286.08 1487.04 L1295.63 1487.04 L1295.63 1491.96 L1270.74 1491.96 L1270.74 1487.04 Z" fill="#000000" fill-rule="evenodd" fill-opacity="1" /><path clip-path="url(#clip190)" d="M1319.93 1452.61 Q1315.42 1452.61 1313.13 1457.07 Q1310.88 1461.49 1310.88 1470.4 Q1310.88 1479.29 1313.13 1483.74 Q1315.42 1488.17 1319.93 1488.17 Q1324.48 1488.17 1326.73 1483.74 Q1329.02 1479.29 1329.02 1470.4 Q1329.02 1461.49 1326.73 1457.07 Q1324.48 1452.61 1319.93 1452.61 M1319.93 1447.98 Q1327.2 1447.98 1331.02 1453.74 Q1334.86 1459.47 1334.86 1470.4 Q1334.86 1481.31 1331.02 1487.07 Q1327.2 1492.8 1319.93 1492.8 Q1312.67 1492.8 1308.82 1487.07 Q1305 1481.31 1305 1470.4 Q1305 1459.47 1308.82 1453.74 Q1312.67 1447.98 1319.93 1447.98 Z" fill="#000000" fill-rule="evenodd" fill-opacity="1" /><path clip-path="url(#clip190)" d="M1346.99 1425.72 Q1343.33 1425.72 1341.47 1429.35 Q1339.64 1432.94 1339.64 1440.18 Q1339.64 1447.4 1341.47 1451.02 Q1343.33 1454.62 1346.99 1454.62 Q1350.69 1454.62 1352.52 1451.02 Q1354.38 1447.4 1354.38 1440.18 Q1354.38 1432.94 1352.52 1429.35 Q1350.69 1425.72 1346.99 1425.72 M1346.99 1421.96 Q1352.9 1421.96 1356 1426.64 Q1359.13 1431.3 1359.13 1440.18 Q1359.13 1449.05 1356 1453.72 Q1352.9 1458.38 1346.99 1458.38 Q1341.09 1458.38 1337.97 1453.72 Q1334.86 1449.05 1334.86 1440.18 Q1334.86 1431.3 1337.97 1426.64 Q1341.09 1421.96 1346.99 1421.96 Z" fill="#000000" fill-rule="evenodd" fill-opacity="1" /><path clip-path="url(#clip190)" d="M1761.47 1487.04 L1771.02 1487.04 L1771.02 1454.08 L1760.63 1456.17 L1760.63 1450.84 L1770.96 1448.76 L1776.8 1448.76 L1776.8 1487.04 L1786.35 1487.04 L1786.35 1491.96 L1761.47 1491.96 L1761.47 1487.04 Z" fill="#000000" fill-rule="evenodd" fill-opacity="1" /><path clip-path="url(#clip190)" d="M1810.66 1452.61 Q1806.14 1452.61 1803.86 1457.07 Q1801.6 1461.49 1801.6 1470.4 Q1801.6 1479.29 1803.86 1483.74 Q1806.14 1488.17 1810.66 1488.17 Q1815.2 1488.17 1817.46 1483.74 Q1819.74 1479.29 1819.74 1470.4 Q1819.74 1461.49 1817.46 1457.07 Q1815.2 1452.61 1810.66 1452.61 M1810.66 1447.98 Q1817.92 1447.98 1821.74 1453.74 Q1825.59 1459.47 1825.59 1470.4 Q1825.59 1481.31 1821.74 1487.07 Q1817.92 1492.8 1810.66 1492.8 Q1803.39 1492.8 1799.55 1487.07 Q1795.73 1481.31 1795.73 1470.4 Q1795.73 1459.47 1799.55 1453.74 Q1803.39 1447.98 1810.66 1447.98 Z" fill="#000000" fill-rule="evenodd" fill-opacity="1" /><path clip-path="url(#clip190)" d="M1831.3 1453.7 L1847.87 1453.7 L1847.87 1457.7 L1825.59 1457.7 L1825.59 1453.7 Q1828.29 1450.9 1832.95 1446.2 Q1837.62 1441.48 1838.82 1440.11 Q1841.1 1437.55 1842 1435.79 Q1842.91 1434 1842.91 1432.28 Q1842.91 1429.49 1840.94 1427.72 Q1838.99 1425.96 1835.84 1425.96 Q1833.6 1425.96 1831.11 1426.74 Q1828.64 1427.51 1825.82 1429.09 L1825.82 1424.29 Q1828.69 1423.14 1831.18 1422.55 Q1833.67 1421.96 1835.74 1421.96 Q1841.2 1421.96 1844.44 1424.69 Q1847.69 1427.42 1847.69 1431.98 Q1847.69 1434.14 1846.86 1436.09 Q1846.06 1438.02 1843.92 1440.65 Q1843.34 1441.34 1840.19 1444.6 Q1837.04 1447.85 1831.3 1453.7 Z" fill="#000000" fill-rule="evenodd" fill-opacity="1" /><path clip-path="url(#clip190)" d="M2249.56 1487.04 L2259.11 1487.04 L2259.11 1454.08 L2248.72 1456.17 L2248.72 1450.84 L2259.05 1448.76 L2264.89 1448.76 L2264.89 1487.04 L2274.44 1487.04 L2274.44 1491.96 L2249.56 1491.96 L2249.56 1487.04 Z" fill="#000000" fill-rule="evenodd" fill-opacity="1" /><path clip-path="url(#clip190)" d="M2298.75 1452.61 Q2294.23 1452.61 2291.95 1457.07 Q2289.69 1461.49 2289.69 1470.4 Q2289.69 1479.29 2291.95 1483.74 Q2294.23 1488.17 2298.75 1488.17 Q2303.29 1488.17 2305.55 1483.74 Q2307.83 1479.29 2307.83 1470.4 Q2307.83 1461.49 2305.55 1457.07 Q2303.29 1452.61 2298.75 1452.61 M2298.75 1447.98 Q2306.01 1447.98 2309.83 1453.74 Q2313.68 1459.47 2313.68 1470.4 Q2313.68 1481.31 2309.83 1487.07 Q2306.01 1492.8 2298.75 1492.8 Q2291.48 1492.8 2287.64 1487.07 Q2283.82 1481.31 2283.82 1470.4 Q2283.82 1459.47 2287.64 1453.74 Q2291.48 1447.98 2298.75 1447.98 Z" fill="#000000" fill-rule="evenodd" fill-opacity="1" /><path clip-path="url(#clip190)" d="M2329.52 1426.74 L2317.53 1445.47 L2329.52 1445.47 L2329.52 1426.74 M2328.28 1422.6 L2334.25 1422.6 L2334.25 1445.47 L2339.26 1445.47 L2339.26 1449.42 L2334.25 1449.42 L2334.25 1457.7 L2329.52 1457.7 L2329.52 1449.42 L2313.68 1449.42 L2313.68 1444.84 L2328.28 1422.6 Z" fill="#000000" fill-rule="evenodd" fill-opacity="1" /><path clip-path="url(#clip190)" d="M1079.03 1562.25 Q1079.03 1555.79 1076.36 1552.13 Q1073.72 1548.44 1069.07 1548.44 Q1064.42 1548.44 1061.75 1552.13 Q1059.11 1555.79 1059.11 1562.25 Q1059.11 1568.71 1061.75 1572.4 Q1064.42 1576.06 1069.07 1576.06 Q1073.72 1576.06 1076.36 1572.4 Q1079.03 1568.71 1079.03 1562.25 M1059.11 1549.8 Q1060.95 1546.62 1063.75 1545.09 Q1066.59 1543.53 1070.5 1543.53 Q1076.99 1543.53 1081.04 1548.69 Q1085.11 1553.85 1085.11 1562.25 Q1085.11 1570.65 1081.04 1575.81 Q1076.99 1580.96 1070.5 1580.96 Q1066.59 1580.96 1063.75 1579.44 Q1060.95 1577.88 1059.11 1574.69 L1059.11 1580.04 L1053.22 1580.04 L1053.22 1530.52 L1059.11 1530.52 L1059.11 1549.8 Z" fill="#000000" fill-rule="evenodd" fill-opacity="1" /><path clip-path="url(#clip190)" d="M1094.82 1544.39 L1100.67 1544.39 L1100.67 1580.04 L1094.82 1580.04 L1094.82 1544.39 M1094.82 1530.52 L1100.67 1530.52 L1100.67 1537.93 L1094.82 1537.93 L1094.82 1530.52 Z" fill="#000000" fill-rule="evenodd" fill-opacity="1" /><path clip-path="url(#clip190)" d="M1126.74 1548.5 Q1122.03 1548.5 1119.29 1552.19 Q1116.56 1555.85 1116.56 1562.25 Q1116.56 1568.65 1119.26 1572.34 Q1122 1576 1126.74 1576 Q1131.42 1576 1134.16 1572.31 Q1136.9 1568.61 1136.9 1562.25 Q1136.9 1555.91 1134.16 1552.22 Q1131.42 1548.5 1126.74 1548.5 M1126.74 1543.53 Q1134.38 1543.53 1138.74 1548.5 Q1143.1 1553.46 1143.1 1562.25 Q1143.1 1571 1138.74 1576 Q1134.38 1580.96 1126.74 1580.96 Q1119.07 1580.96 1114.71 1576 Q1110.38 1571 1110.38 1562.25 Q1110.38 1553.46 1114.71 1548.5 Q1119.07 1543.53 1126.74 1543.53 Z" fill="#000000" fill-rule="evenodd" fill-opacity="1" /><path clip-path="url(#clip190)" d="M1180.56 1551.24 Q1182.76 1547.29 1185.82 1545.41 Q1188.87 1543.53 1193.01 1543.53 Q1198.58 1543.53 1201.6 1547.45 Q1204.63 1551.33 1204.63 1558.52 L1204.63 1580.04 L1198.74 1580.04 L1198.74 1558.72 Q1198.74 1553.59 1196.92 1551.11 Q1195.11 1548.63 1191.39 1548.63 Q1186.83 1548.63 1184.19 1551.65 Q1181.55 1554.67 1181.55 1559.89 L1181.55 1580.04 L1175.66 1580.04 L1175.66 1558.72 Q1175.66 1553.56 1173.85 1551.11 Q1172.03 1548.63 1168.25 1548.63 Q1163.76 1548.63 1161.12 1551.68 Q1158.48 1554.71 1158.48 1559.89 L1158.48 1580.04 L1152.59 1580.04 L1152.59 1544.39 L1158.48 1544.39 L1158.48 1549.93 Q1160.48 1546.65 1163.28 1545.09 Q1166.08 1543.53 1169.93 1543.53 Q1173.82 1543.53 1176.52 1545.51 Q1179.26 1547.48 1180.56 1551.24 Z" fill="#000000" fill-rule="evenodd" fill-opacity="1" /><path clip-path="url(#clip190)" d="M1232.51 1562.12 Q1225.41 1562.12 1222.67 1563.74 Q1219.94 1565.37 1219.94 1569.28 Q1219.94 1572.4 1221.97 1574.25 Q1224.04 1576.06 1227.58 1576.06 Q1232.45 1576.06 1235.37 1572.62 Q1238.33 1569.16 1238.33 1563.43 L1238.33 1562.12 L1232.51 1562.12 M1244.19 1559.7 L1244.19 1580.04 L1238.33 1580.04 L1238.33 1574.63 Q1236.33 1577.88 1233.34 1579.44 Q1230.34 1580.96 1226.02 1580.96 Q1220.54 1580.96 1217.29 1577.91 Q1214.08 1574.82 1214.08 1569.66 Q1214.08 1563.65 1218.09 1560.59 Q1222.13 1557.54 1230.12 1557.54 L1238.33 1557.54 L1238.33 1556.97 Q1238.33 1552.92 1235.66 1550.73 Q1233.02 1548.5 1228.21 1548.5 Q1225.16 1548.5 1222.26 1549.23 Q1219.36 1549.96 1216.69 1551.43 L1216.69 1546.02 Q1219.9 1544.77 1222.93 1544.17 Q1225.95 1543.53 1228.82 1543.53 Q1236.55 1543.53 1240.37 1547.54 Q1244.19 1551.55 1244.19 1559.7 Z" fill="#000000" fill-rule="evenodd" fill-opacity="1" /><path clip-path="url(#clip190)" d="M1278.98 1545.44 L1278.98 1550.98 Q1276.5 1549.71 1273.82 1549.07 Q1271.15 1548.44 1268.28 1548.44 Q1263.92 1548.44 1261.73 1549.77 Q1259.56 1551.11 1259.56 1553.78 Q1259.56 1555.82 1261.12 1557 Q1262.68 1558.14 1267.39 1559.19 L1269.4 1559.64 Q1275.64 1560.98 1278.25 1563.43 Q1280.89 1565.85 1280.89 1570.21 Q1280.89 1575.17 1276.94 1578.07 Q1273.03 1580.96 1266.15 1580.96 Q1263.29 1580.96 1260.17 1580.39 Q1257.08 1579.85 1253.64 1578.74 L1253.64 1572.69 Q1256.89 1574.38 1260.04 1575.23 Q1263.19 1576.06 1266.28 1576.06 Q1270.42 1576.06 1272.64 1574.66 Q1274.87 1573.23 1274.87 1570.65 Q1274.87 1568.26 1273.25 1566.99 Q1271.66 1565.72 1266.22 1564.54 L1264.18 1564.06 Q1258.74 1562.92 1256.32 1560.56 Q1253.9 1558.17 1253.9 1554.04 Q1253.9 1549.01 1257.46 1546.27 Q1261.03 1543.53 1267.58 1543.53 Q1270.83 1543.53 1273.69 1544.01 Q1276.56 1544.49 1278.98 1545.44 Z" fill="#000000" fill-rule="evenodd" fill-opacity="1" /><path clip-path="url(#clip190)" d="M1312.94 1545.44 L1312.94 1550.98 Q1310.46 1549.71 1307.78 1549.07 Q1305.11 1548.44 1302.25 1548.44 Q1297.88 1548.44 1295.69 1549.77 Q1293.52 1551.11 1293.52 1553.78 Q1293.52 1555.82 1295.08 1557 Q1296.64 1558.14 1301.35 1559.19 L1303.36 1559.64 Q1309.6 1560.98 1312.21 1563.43 Q1314.85 1565.85 1314.85 1570.21 Q1314.85 1575.17 1310.9 1578.07 Q1306.99 1580.96 1300.11 1580.96 Q1297.25 1580.96 1294.13 1580.39 Q1291.04 1579.85 1287.6 1578.74 L1287.6 1572.69 Q1290.85 1574.38 1294 1575.23 Q1297.15 1576.06 1300.24 1576.06 Q1304.38 1576.06 1306.61 1574.66 Q1308.83 1573.23 1308.83 1570.65 Q1308.83 1568.26 1307.21 1566.99 Q1305.62 1565.72 1300.18 1564.54 L1298.14 1564.06 Q1292.7 1562.92 1290.28 1560.56 Q1287.86 1558.17 1287.86 1554.04 Q1287.86 1549.01 1291.42 1546.27 Q1294.99 1543.53 1301.54 1543.53 Q1304.79 1543.53 1307.66 1544.01 Q1310.52 1544.49 1312.94 1545.44 Z" fill="#000000" fill-rule="evenodd" fill-opacity="1" /><path clip-path="url(#clip190)" d="M1368.35 1549.8 L1368.35 1530.52 L1374.21 1530.52 L1374.21 1580.04 L1368.35 1580.04 L1368.35 1574.69 Q1366.51 1577.88 1363.67 1579.44 Q1360.87 1580.96 1356.93 1580.96 Q1350.47 1580.96 1346.39 1575.81 Q1342.35 1570.65 1342.35 1562.25 Q1342.35 1553.85 1346.39 1548.69 Q1350.47 1543.53 1356.93 1543.53 Q1360.87 1543.53 1363.67 1545.09 Q1366.51 1546.62 1368.35 1549.8 M1348.4 1562.25 Q1348.4 1568.71 1351.04 1572.4 Q1353.71 1576.06 1358.36 1576.06 Q1363.01 1576.06 1365.68 1572.4 Q1368.35 1568.71 1368.35 1562.25 Q1368.35 1555.79 1365.68 1552.13 Q1363.01 1548.44 1358.36 1548.44 Q1353.71 1548.44 1351.04 1552.13 Q1348.4 1555.79 1348.4 1562.25 Z" fill="#000000" fill-rule="evenodd" fill-opacity="1" /><path clip-path="url(#clip190)" d="M1416.76 1560.75 L1416.76 1563.62 L1389.84 1563.62 Q1390.22 1569.66 1393.47 1572.85 Q1396.74 1576 1402.57 1576 Q1405.94 1576 1409.09 1575.17 Q1412.28 1574.34 1415.4 1572.69 L1415.4 1578.23 Q1412.24 1579.56 1408.93 1580.26 Q1405.62 1580.96 1402.22 1580.96 Q1393.69 1580.96 1388.69 1576 Q1383.73 1571.03 1383.73 1562.57 Q1383.73 1553.81 1388.44 1548.69 Q1393.18 1543.53 1401.2 1543.53 Q1408.39 1543.53 1412.56 1548.18 Q1416.76 1552.8 1416.76 1560.75 M1410.91 1559.03 Q1410.84 1554.23 1408.2 1551.36 Q1405.59 1548.5 1401.26 1548.5 Q1396.36 1548.5 1393.4 1551.27 Q1390.47 1554.04 1390.03 1559.07 L1410.91 1559.03 Z" fill="#000000" fill-rule="evenodd" fill-opacity="1" /><path clip-path="url(#clip190)" d="M1456.01 1558.52 L1456.01 1580.04 L1450.15 1580.04 L1450.15 1558.72 Q1450.15 1553.65 1448.18 1551.14 Q1446.21 1548.63 1442.26 1548.63 Q1437.52 1548.63 1434.78 1551.65 Q1432.04 1554.67 1432.04 1559.89 L1432.04 1580.04 L1426.15 1580.04 L1426.15 1544.39 L1432.04 1544.39 L1432.04 1549.93 Q1434.14 1546.72 1436.98 1545.12 Q1439.84 1543.53 1443.56 1543.53 Q1449.71 1543.53 1452.86 1547.35 Q1456.01 1551.14 1456.01 1558.52 Z" fill="#000000" fill-rule="evenodd" fill-opacity="1" /><path clip-path="url(#clip190)" d="M1490.42 1545.44 L1490.42 1550.98 Q1487.93 1549.71 1485.26 1549.07 Q1482.59 1548.44 1479.72 1548.44 Q1475.36 1548.44 1473.16 1549.77 Q1471 1551.11 1471 1553.78 Q1471 1555.82 1472.56 1557 Q1474.12 1558.14 1478.83 1559.19 L1480.83 1559.64 Q1487.07 1560.98 1489.68 1563.43 Q1492.33 1565.85 1492.33 1570.21 Q1492.33 1575.17 1488.38 1578.07 Q1484.46 1580.96 1477.59 1580.96 Q1474.72 1580.96 1471.6 1580.39 Q1468.52 1579.85 1465.08 1578.74 L1465.08 1572.69 Q1468.33 1574.38 1471.48 1575.23 Q1474.63 1576.06 1477.72 1576.06 Q1481.85 1576.06 1484.08 1574.66 Q1486.31 1573.23 1486.31 1570.65 Q1486.31 1568.26 1484.69 1566.99 Q1483.09 1565.72 1477.65 1564.54 L1475.62 1564.06 Q1470.17 1562.92 1467.75 1560.56 Q1465.33 1558.17 1465.33 1554.04 Q1465.33 1549.01 1468.9 1546.27 Q1472.46 1543.53 1479.02 1543.53 Q1482.27 1543.53 1485.13 1544.01 Q1488 1544.49 1490.42 1545.44 Z" fill="#000000" fill-rule="evenodd" fill-opacity="1" /><path clip-path="url(#clip190)" d="M1501.65 1544.39 L1507.51 1544.39 L1507.51 1580.04 L1501.65 1580.04 L1501.65 1544.39 M1501.65 1530.52 L1507.51 1530.52 L1507.51 1537.93 L1501.65 1537.93 L1501.65 1530.52 Z" fill="#000000" fill-rule="evenodd" fill-opacity="1" /><path clip-path="url(#clip190)" d="M1525.55 1534.27 L1525.55 1544.39 L1537.62 1544.39 L1537.62 1548.94 L1525.55 1548.94 L1525.55 1568.3 Q1525.55 1572.66 1526.73 1573.9 Q1527.94 1575.14 1531.6 1575.14 L1537.62 1575.14 L1537.62 1580.04 L1531.6 1580.04 Q1524.82 1580.04 1522.24 1577.53 Q1519.67 1574.98 1519.67 1568.3 L1519.67 1548.94 L1515.37 1548.94 L1515.37 1544.39 L1519.67 1544.39 L1519.67 1534.27 L1525.55 1534.27 Z" fill="#000000" fill-rule="evenodd" fill-opacity="1" /><path clip-path="url(#clip190)" d="M1560.15 1583.35 Q1557.67 1589.72 1555.31 1591.66 Q1552.96 1593.6 1549.01 1593.6 L1544.33 1593.6 L1544.33 1588.7 L1547.77 1588.7 Q1550.19 1588.7 1551.53 1587.55 Q1552.86 1586.41 1554.49 1582.14 L1555.54 1579.47 L1541.12 1544.39 L1547.32 1544.39 L1558.46 1572.27 L1569.6 1544.39 L1575.81 1544.39 L1560.15 1583.35 Z" fill="#000000" fill-rule="evenodd" fill-opacity="1" /><polyline clip-path="url(#clip192)" style="stroke:#000000; stroke-linecap:butt; stroke-linejoin:round; stroke-width:2; stroke-opacity:0.1; fill:none" points="
  276.274,1178.72 2352.76,1178.72 
  "/>
<polyline clip-path="url(#clip192)" style="stroke:#000000; stroke-linecap:butt; stroke-linejoin:round; stroke-width:2; stroke-opacity:0.1; fill:none" points="
  276.274,814.316 2352.76,814.316 
  "/>
<polyline clip-path="url(#clip192)" style="stroke:#000000; stroke-linecap:butt; stroke-linejoin:round; stroke-width:2; stroke-opacity:0.1; fill:none" points="
  276.274,449.911 2352.76,449.911 
  "/>
<polyline clip-path="url(#clip192)" style="stroke:#000000; stroke-linecap:butt; stroke-linejoin:round; stroke-width:2; stroke-opacity:0.1; fill:none" points="
  276.274,85.5066 2352.76,85.5066 
  "/>
<polyline clip-path="url(#clip190)" style="stroke:#000000; stroke-linecap:butt; stroke-linejoin:round; stroke-width:4; stroke-opacity:1; fill:none" points="
  276.274,1399.19 276.274,47.2441 
  "/>
<polyline clip-path="url(#clip190)" style="stroke:#000000; stroke-linecap:butt; stroke-linejoin:round; stroke-width:4; stroke-opacity:1; fill:none" points="
  276.274,1178.72 295.172,1178.72 
  "/>
<polyline clip-path="url(#clip190)" style="stroke:#000000; stroke-linecap:butt; stroke-linejoin:round; stroke-width:4; stroke-opacity:1; fill:none" points="
  276.274,814.316 295.172,814.316 
  "/>
<polyline clip-path="url(#clip190)" style="stroke:#000000; stroke-linecap:butt; stroke-linejoin:round; stroke-width:4; stroke-opacity:1; fill:none" points="
  276.274,449.911 295.172,449.911 
  "/>
<polyline clip-path="url(#clip190)" style="stroke:#000000; stroke-linecap:butt; stroke-linejoin:round; stroke-width:4; stroke-opacity:1; fill:none" points="
  276.274,85.5066 295.172,85.5066 
  "/>
<path clip-path="url(#clip190)" d="M115.099 1203.46 L124.648 1203.46 L124.648 1170.5 L114.26 1172.59 L114.26 1167.26 L124.59 1165.18 L130.435 1165.18 L130.435 1203.46 L139.983 1203.46 L139.983 1208.38 L115.099 1208.38 L115.099 1203.46 Z" fill="#000000" fill-rule="evenodd" fill-opacity="1" /><path clip-path="url(#clip190)" d="M164.289 1169.03 Q159.775 1169.03 157.489 1173.48 Q155.232 1177.91 155.232 1186.82 Q155.232 1195.71 157.489 1200.16 Q159.775 1204.59 164.289 1204.59 Q168.832 1204.59 171.089 1200.16 Q173.374 1195.71 173.374 1186.82 Q173.374 1177.91 171.089 1173.48 Q168.832 1169.03 164.289 1169.03 M164.289 1164.4 Q171.552 1164.4 175.371 1170.16 Q179.219 1175.89 179.219 1186.82 Q179.219 1197.73 175.371 1203.49 Q171.552 1209.22 164.289 1209.22 Q157.026 1209.22 153.178 1203.49 Q149.358 1197.73 149.358 1186.82 Q149.358 1175.89 153.178 1170.16 Q157.026 1164.4 164.289 1164.4 Z" fill="#000000" fill-rule="evenodd" fill-opacity="1" /><path clip-path="url(#clip190)" d="M179.219 1157.03 L209.359 1157.03 L209.359 1161.02 L179.219 1161.02 L179.219 1157.03 Z" fill="#000000" fill-rule="evenodd" fill-opacity="1" /><path clip-path="url(#clip190)" d="M223.7 1170.12 L240.274 1170.12 L240.274 1174.12 L217.987 1174.12 L217.987 1170.12 Q220.69 1167.32 225.345 1162.62 Q230.024 1157.9 231.223 1156.53 Q233.503 1153.97 234.397 1152.21 Q235.313 1150.42 235.313 1148.7 Q235.313 1145.91 233.339 1144.14 Q231.387 1142.38 228.237 1142.38 Q226.004 1142.38 223.512 1143.16 Q221.043 1143.93 218.222 1145.51 L218.222 1140.71 Q221.09 1139.56 223.582 1138.97 Q226.074 1138.38 228.143 1138.38 Q233.597 1138.38 236.842 1141.11 Q240.086 1143.84 240.086 1148.4 Q240.086 1150.56 239.263 1152.51 Q238.464 1154.44 236.324 1157.07 Q235.737 1157.75 232.586 1161.02 Q229.436 1164.27 223.7 1170.12 Z" fill="#000000" fill-rule="evenodd" fill-opacity="1" /><path clip-path="url(#clip190)" d="M151.892 839.057 L161.441 839.057 L161.441 806.1 L151.053 808.183 L151.053 802.859 L161.383 800.776 L167.228 800.776 L167.228 839.057 L176.776 839.057 L176.776 843.976 L151.892 843.976 L151.892 839.057 Z" fill="#000000" fill-rule="evenodd" fill-opacity="1" /><path clip-path="url(#clip190)" d="M201.082 804.624 Q196.568 804.624 194.282 809.08 Q192.025 813.507 192.025 822.419 Q192.025 831.302 194.282 835.758 Q196.568 840.185 201.082 840.185 Q205.624 840.185 207.881 835.758 Q210.167 831.302 210.167 822.419 Q210.167 813.507 207.881 809.08 Q205.624 804.624 201.082 804.624 M201.082 799.994 Q208.344 799.994 212.164 805.752 Q216.012 811.482 216.012 822.419 Q216.012 833.328 212.164 839.086 Q208.344 844.815 201.082 844.815 Q193.819 844.815 189.97 839.086 Q186.151 833.328 186.151 822.419 Q186.151 811.482 189.97 805.752 Q193.819 799.994 201.082 799.994 Z" fill="#000000" fill-rule="evenodd" fill-opacity="1" /><path clip-path="url(#clip190)" d="M228.143 777.739 Q224.475 777.739 222.618 781.36 Q220.784 784.957 220.784 792.198 Q220.784 799.415 222.618 803.036 Q224.475 806.633 228.143 806.633 Q231.834 806.633 233.668 803.036 Q235.525 799.415 235.525 792.198 Q235.525 784.957 233.668 781.36 Q231.834 777.739 228.143 777.739 M228.143 773.978 Q234.044 773.978 237.147 778.656 Q240.274 783.311 240.274 792.198 Q240.274 801.061 237.147 805.74 Q234.044 810.394 228.143 810.394 Q222.242 810.394 219.115 805.74 Q216.012 801.061 216.012 792.198 Q216.012 783.311 219.115 778.656 Q222.242 773.978 228.143 773.978 Z" fill="#000000" fill-rule="evenodd" fill-opacity="1" /><path clip-path="url(#clip190)" d="M153.867 474.652 L163.415 474.652 L163.415 441.695 L153.028 443.778 L153.028 438.454 L163.357 436.371 L169.202 436.371 L169.202 474.652 L178.751 474.652 L178.751 479.571 L153.867 479.571 L153.867 474.652 Z" fill="#000000" fill-rule="evenodd" fill-opacity="1" /><path clip-path="url(#clip190)" d="M203.056 440.219 Q198.542 440.219 196.257 444.675 Q194 449.102 194 458.014 Q194 466.897 196.257 471.353 Q198.542 475.78 203.056 475.78 Q207.599 475.78 209.856 471.353 Q212.142 466.897 212.142 458.014 Q212.142 449.102 209.856 444.675 Q207.599 440.219 203.056 440.219 M203.056 435.59 Q210.319 435.59 214.138 441.348 Q217.987 447.077 217.987 458.014 Q217.987 468.923 214.138 474.681 Q210.319 480.41 203.056 480.41 Q195.794 480.41 191.945 474.681 Q188.126 468.923 188.126 458.014 Q188.126 447.077 191.945 441.348 Q195.794 435.59 203.056 435.59 Z" fill="#000000" fill-rule="evenodd" fill-opacity="1" /><path clip-path="url(#clip190)" d="M223.7 441.311 L240.274 441.311 L240.274 445.308 L217.987 445.308 L217.987 441.311 Q220.69 438.514 225.345 433.812 Q230.024 429.086 231.223 427.723 Q233.503 425.16 234.397 423.397 Q235.313 421.61 235.313 419.894 Q235.313 417.096 233.339 415.333 Q231.387 413.57 228.237 413.57 Q226.004 413.57 223.512 414.346 Q221.043 415.121 218.222 416.697 L218.222 411.901 Q221.09 410.749 223.582 410.161 Q226.074 409.573 228.143 409.573 Q233.597 409.573 236.842 412.3 Q240.086 415.027 240.086 419.588 Q240.086 421.751 239.263 423.702 Q238.464 425.63 236.324 428.263 Q235.737 428.945 232.586 432.213 Q229.436 435.457 223.7 441.311 Z" fill="#000000" fill-rule="evenodd" fill-opacity="1" /><path clip-path="url(#clip190)" d="M150.575 110.247 L160.124 110.247 L160.124 77.2901 L149.736 79.3735 L149.736 74.0494 L160.066 71.9661 L165.911 71.9661 L165.911 110.247 L175.46 110.247 L175.46 115.166 L150.575 115.166 L150.575 110.247 Z" fill="#000000" fill-rule="evenodd" fill-opacity="1" /><path clip-path="url(#clip190)" d="M199.765 75.8144 Q195.251 75.8144 192.965 80.2704 Q190.708 84.6975 190.708 93.6095 Q190.708 102.493 192.965 106.949 Q195.251 111.376 199.765 111.376 Q204.308 111.376 206.565 106.949 Q208.851 102.493 208.851 93.6095 Q208.851 84.6975 206.565 80.2704 Q204.308 75.8144 199.765 75.8144 M199.765 71.1848 Q207.028 71.1848 210.847 76.9429 Q214.695 82.6721 214.695 93.6095 Q214.695 104.518 210.847 110.276 Q207.028 116.005 199.765 116.005 Q192.502 116.005 188.654 110.276 Q184.835 104.518 184.835 93.6095 Q184.835 82.6721 188.654 76.9429 Q192.502 71.1848 199.765 71.1848 Z" fill="#000000" fill-rule="evenodd" fill-opacity="1" /><path clip-path="url(#clip190)" d="M230.541 49.9408 L218.551 68.678 L230.541 68.678 L230.541 49.9408 M229.295 45.8031 L235.266 45.8031 L235.266 68.678 L240.274 68.678 L240.274 72.6277 L235.266 72.6277 L235.266 80.9031 L230.541 80.9031 L230.541 72.6277 L214.695 72.6277 L214.695 68.0433 L229.295 45.8031 Z" fill="#000000" fill-rule="evenodd" fill-opacity="1" /><path clip-path="url(#clip190)" d="M58.657 886.607 L77.5631 886.607 L77.5631 892.495 L28.3562 892.495 L28.3562 886.607 L33.7671 886.607 Q30.5842 884.761 29.0564 881.96 Q27.4968 879.127 27.4968 875.212 Q27.4968 868.719 32.6531 864.677 Q37.8093 860.603 46.212 860.603 Q54.6147 860.603 59.771 864.677 Q64.9272 868.719 64.9272 875.212 Q64.9272 879.127 63.3994 881.96 Q61.8398 884.761 58.657 886.607 M46.212 866.682 Q39.7508 866.682 36.0905 869.356 Q32.3984 871.997 32.3984 876.644 Q32.3984 881.291 36.0905 883.965 Q39.7508 886.607 46.212 886.607 Q52.6732 886.607 56.3653 883.965 Q60.0256 881.291 60.0256 876.644 Q60.0256 871.997 56.3653 869.356 Q52.6732 866.682 46.212 866.682 Z" fill="#000000" fill-rule="evenodd" fill-opacity="1" /><path clip-path="url(#clip190)" d="M33.8307 830.238 Q33.2578 831.225 33.0032 832.403 Q32.7167 833.549 32.7167 834.949 Q32.7167 839.914 35.9632 842.588 Q39.1779 845.23 45.2253 845.23 L64.0042 845.23 L64.0042 851.118 L28.3562 851.118 L28.3562 845.23 L33.8944 845.23 Q30.6479 843.384 29.0883 840.424 Q27.4968 837.463 27.4968 833.23 Q27.4968 832.626 27.5923 831.893 Q27.656 831.161 27.8151 830.27 L33.8307 830.238 Z" fill="#000000" fill-rule="evenodd" fill-opacity="1" /><path clip-path="url(#clip190)" d="M32.4621 811.714 Q32.4621 816.425 36.1542 819.162 Q39.8145 821.899 46.212 821.899 Q52.6095 821.899 56.3017 819.194 Q59.9619 816.457 59.9619 811.714 Q59.9619 807.035 56.2698 804.298 Q52.5777 801.561 46.212 801.561 Q39.8781 801.561 36.186 804.298 Q32.4621 807.035 32.4621 811.714 M27.4968 811.714 Q27.4968 804.075 32.4621 799.715 Q37.4273 795.354 46.212 795.354 Q54.9649 795.354 59.9619 799.715 Q64.9272 804.075 64.9272 811.714 Q64.9272 819.385 59.9619 823.745 Q54.9649 828.074 46.212 828.074 Q37.4273 828.074 32.4621 823.745 Q27.4968 819.385 27.4968 811.714 Z" fill="#000000" fill-rule="evenodd" fill-opacity="1" /><path clip-path="url(#clip190)" d="M33.7671 762.189 L14.479 762.189 L14.479 756.333 L64.0042 756.333 L64.0042 762.189 L58.657 762.189 Q61.8398 764.035 63.3994 766.868 Q64.9272 769.669 64.9272 773.615 Q64.9272 780.077 59.771 784.151 Q54.6147 788.193 46.212 788.193 Q37.8093 788.193 32.6531 784.151 Q27.4968 780.077 27.4968 773.615 Q27.4968 769.669 29.0564 766.868 Q30.5842 764.035 33.7671 762.189 M46.212 782.145 Q52.6732 782.145 56.3653 779.504 Q60.0256 776.83 60.0256 772.183 Q60.0256 767.536 56.3653 764.863 Q52.6732 762.189 46.212 762.189 Q39.7508 762.189 36.0905 764.863 Q32.3984 767.536 32.3984 772.183 Q32.3984 776.83 36.0905 779.504 Q39.7508 782.145 46.212 782.145 Z" fill="#000000" fill-rule="evenodd" fill-opacity="1" /><path clip-path="url(#clip190)" d="M49.9359 744.874 L28.3562 744.874 L28.3562 739.018 L49.7131 739.018 Q54.7739 739.018 57.3202 737.044 Q59.8346 735.071 59.8346 731.124 Q59.8346 726.382 56.8109 723.645 Q53.7872 720.876 48.5673 720.876 L28.3562 720.876 L28.3562 715.019 L64.0042 715.019 L64.0042 720.876 L58.5296 720.876 Q61.7762 723.008 63.3676 725.841 Q64.9272 728.642 64.9272 732.366 Q64.9272 738.509 61.1078 741.691 Q57.2883 744.874 49.9359 744.874 M27.4968 730.138 L27.4968 730.138 Z" fill="#000000" fill-rule="evenodd" fill-opacity="1" /><path clip-path="url(#clip190)" d="M29.7248 677.302 L35.1993 677.302 Q33.8307 679.785 33.1623 682.299 Q32.4621 684.782 32.4621 687.328 Q32.4621 693.026 36.0905 696.177 Q39.6872 699.328 46.212 699.328 Q52.7369 699.328 56.3653 696.177 Q59.9619 693.026 59.9619 687.328 Q59.9619 684.782 59.2935 682.299 Q58.5933 679.785 57.2247 677.302 L62.6355 677.302 Q63.7814 679.753 64.3543 682.395 Q64.9272 685.005 64.9272 687.965 Q64.9272 696.017 59.8664 700.76 Q54.8057 705.502 46.212 705.502 Q37.491 705.502 32.4939 700.728 Q27.4968 695.922 27.4968 687.583 Q27.4968 684.878 28.0697 682.299 Q28.6108 679.721 29.7248 677.302 Z" fill="#000000" fill-rule="evenodd" fill-opacity="1" /><path clip-path="url(#clip190)" d="M18.2347 661.324 L28.3562 661.324 L28.3562 649.261 L32.9077 649.261 L32.9077 661.324 L52.2594 661.324 Q56.6199 661.324 57.8613 660.147 Q59.1026 658.937 59.1026 655.277 L59.1026 649.261 L64.0042 649.261 L64.0042 655.277 Q64.0042 662.056 61.4897 664.635 Q58.9434 667.213 52.2594 667.213 L32.9077 667.213 L32.9077 671.51 L28.3562 671.51 L28.3562 667.213 L18.2347 667.213 L18.2347 661.324 Z" fill="#000000" fill-rule="evenodd" fill-opacity="1" /><path clip-path="url(#clip190)" d="M28.3562 641.559 L28.3562 635.702 L64.0042 635.702 L64.0042 641.559 L28.3562 641.559 M14.479 641.559 L14.479 635.702 L21.895 635.702 L21.895 641.559 L14.479 641.559 Z" fill="#000000" fill-rule="evenodd" fill-opacity="1" /><path clip-path="url(#clip190)" d="M32.4621 609.635 Q32.4621 614.345 36.1542 617.083 Q39.8145 619.82 46.212 619.82 Q52.6095 619.82 56.3017 617.115 Q59.9619 614.377 59.9619 609.635 Q59.9619 604.956 56.2698 602.219 Q52.5777 599.482 46.212 599.482 Q39.8781 599.482 36.186 602.219 Q32.4621 604.956 32.4621 609.635 M27.4968 609.635 Q27.4968 601.996 32.4621 597.635 Q37.4273 593.275 46.212 593.275 Q54.9649 593.275 59.9619 597.635 Q64.9272 601.996 64.9272 609.635 Q64.9272 617.306 59.9619 621.666 Q54.9649 625.995 46.212 625.995 Q37.4273 625.995 32.4621 621.666 Q27.4968 617.306 27.4968 609.635 Z" fill="#000000" fill-rule="evenodd" fill-opacity="1" /><path clip-path="url(#clip190)" d="M42.4881 553.935 L64.0042 553.935 L64.0042 559.791 L42.679 559.791 Q37.6183 559.791 35.1038 561.765 Q32.5894 563.738 32.5894 567.685 Q32.5894 572.427 35.6131 575.165 Q38.6368 577.902 43.8567 577.902 L64.0042 577.902 L64.0042 583.79 L28.3562 583.79 L28.3562 577.902 L33.8944 577.902 Q30.6797 575.801 29.0883 572.968 Q27.4968 570.104 27.4968 566.38 Q27.4968 560.237 31.3163 557.086 Q35.1038 553.935 42.4881 553.935 Z" fill="#000000" fill-rule="evenodd" fill-opacity="1" /><polyline clip-path="url(#clip192)" style="stroke:#ff0000; stroke-linecap:butt; stroke-linejoin:round; stroke-width:20; stroke-opacity:1; fill:none" points="
  335.042,1178.72 552.703,1057.25 770.364,935.784 988.024,814.316 1205.68,692.848 1423.35,571.38 1641.01,449.911 1858.67,328.443 2076.33,206.975 2293.99,85.5066 
  
  "/>
<polyline clip-path="url(#clip192)" style="stroke:#000000; stroke-linecap:butt; stroke-linejoin:round; stroke-width:12; stroke-opacity:1; fill:none" stroke-dasharray="48, 30" points="
  335.042,1360.92 552.703,1239.46 770.364,1117.99 988.024,996.519 1205.68,875.05 1423.35,753.582 1641.01,632.114 1858.67,510.646 2076.33,389.177 2293.99,267.709 
  
  "/>
<path clip-path="url(#clip190)" d="
M1876.71 1354.12 L2283.54 1354.12 L2283.54 1250.44 L1876.71 1250.44  Z
  " fill="#ffffff" fill-rule="evenodd" fill-opacity="1"/>
<polyline clip-path="url(#clip190)" style="stroke:#000000; stroke-linecap:butt; stroke-linejoin:round; stroke-width:4; stroke-opacity:1; fill:none" points="
  1876.71,1354.12 2283.54,1354.12 2283.54,1250.44 1876.71,1250.44 1876.71,1354.12 
  "/>
<polyline clip-path="url(#clip190)" style="stroke:#000000; stroke-linecap:butt; stroke-linejoin:round; stroke-width:4; stroke-opacity:1; fill:none" stroke-dasharray="16, 10" points="
  1899.78,1302.28 2038.21,1302.28 
  "/>
<path clip-path="url(#clip190)" d="M2090.96 1300.65 L2090.96 1304.77 Q2088.53 1306.6 2086.45 1307.39 Q2084.39 1308.17 2082.14 1308.17 Q2079.6 1308.17 2076.22 1306.81 Q2075.96 1306.71 2075.85 1306.67 Q2075.68 1306.6 2075.34 1306.48 Q2071.75 1305.05 2069.57 1305.05 Q2067.54 1305.05 2065.54 1305.95 Q2063.55 1306.83 2061.29 1308.75 L2061.29 1304.63 Q2063.72 1302.8 2065.78 1302.01 Q2067.86 1301.2 2070.11 1301.2 Q2072.65 1301.2 2076.05 1302.59 Q2076.29 1302.69 2076.4 1302.73 Q2076.59 1302.8 2076.91 1302.92 Q2080.5 1304.35 2082.67 1304.35 Q2084.67 1304.35 2086.61 1303.47 Q2088.58 1302.59 2090.96 1300.65 Z" fill="#000000" fill-rule="evenodd" fill-opacity="1" /><path clip-path="url(#clip190)" d="M2122 1293.64 L2112.63 1306.25 L2122.49 1319.56 L2117.47 1319.56 L2109.92 1309.38 L2102.37 1319.56 L2097.35 1319.56 L2107.42 1306 L2098.21 1293.64 L2103.23 1293.64 L2110.1 1302.87 L2116.98 1293.64 L2122 1293.64 Z" fill="#000000" fill-rule="evenodd" fill-opacity="1" /><path clip-path="url(#clip190)" d="M2146.17 1285 L2158.74 1297.89 L2154.09 1297.89 L2143.9 1288.75 L2133.72 1297.89 L2129.06 1297.89 L2141.63 1285 L2146.17 1285 Z" fill="#000000" fill-rule="evenodd" fill-opacity="1" /><path clip-path="url(#clip190)" d="M2183 1300.93 Q2186.35 1301.64 2188.23 1303.91 Q2190.13 1306.18 2190.13 1309.51 Q2190.13 1314.63 2186.61 1317.43 Q2183.09 1320.23 2176.61 1320.23 Q2174.43 1320.23 2172.12 1319.79 Q2169.83 1319.38 2167.37 1318.52 L2167.37 1314.01 Q2169.32 1315.14 2171.63 1315.72 Q2173.95 1316.3 2176.47 1316.3 Q2180.87 1316.3 2183.16 1314.56 Q2185.47 1312.83 2185.47 1309.51 Q2185.47 1306.46 2183.32 1304.75 Q2181.19 1303.01 2177.37 1303.01 L2173.35 1303.01 L2173.35 1299.17 L2177.56 1299.17 Q2181.01 1299.17 2182.84 1297.8 Q2184.66 1296.41 2184.66 1293.82 Q2184.66 1291.16 2182.77 1289.75 Q2180.89 1288.31 2177.37 1288.31 Q2175.45 1288.31 2173.25 1288.73 Q2171.05 1289.14 2168.41 1290.02 L2168.41 1285.86 Q2171.08 1285.12 2173.39 1284.75 Q2175.73 1284.38 2177.79 1284.38 Q2183.11 1284.38 2186.22 1286.81 Q2189.32 1289.21 2189.32 1293.33 Q2189.32 1296.2 2187.67 1298.2 Q2186.03 1300.16 2183 1300.93 Z" fill="#000000" fill-rule="evenodd" fill-opacity="1" /><path clip-path="url(#clip190)" d="M2205.96 1285 L2209.9 1285 L2197.86 1323.96 L2193.92 1323.96 L2205.96 1285 Z" fill="#000000" fill-rule="evenodd" fill-opacity="1" /><path clip-path="url(#clip190)" d="M2227.81 1289.08 L2216.01 1307.52 L2227.81 1307.52 L2227.81 1289.08 M2226.59 1285 L2232.47 1285 L2232.47 1307.52 L2237.4 1307.52 L2237.4 1311.41 L2232.47 1311.41 L2232.47 1319.56 L2227.81 1319.56 L2227.81 1311.41 L2212.21 1311.41 L2212.21 1306.9 L2226.59 1285 Z" fill="#000000" fill-rule="evenodd" fill-opacity="1" /></svg>
