<?xml version="1.0" encoding="utf-8"?>
<svg xmlns="http://www.w3.org/2000/svg" xmlns:xlink="http://www.w3.org/1999/xlink" width="600" height="400" viewBox="0 0 2400 1600">
<defs>
  <clipPath id="clip310">
    <rect x="0" y="0" width="2400" height="1600"/>
  </clipPath>
</defs>
<path clip-path="url(#clip310)" d="
M0 1600 L2400 1600 L2400 0 L0 0  Z
  " fill="#ffffff" fill-rule="evenodd" fill-opacity="1"/>
<defs>
  <clipPath id="clip311">
    <rect x="480" y="0" width="1681" height="1600"/>
  </clipPath>
</defs>
<defs>
  <clipPath id="clip312">
    <rect x="261" y="47" width="2092" height="1365"/>
  </clipPath>
</defs>
<path clip-path="url(#clip310)" d="
M261.498 1411.22 L2352.76 1411.22 L2352.76 47.2441 L261.498 47.2441  Z
  " fill="#ffffff" fill-rule="evenodd" fill-opacity="1"/>
<polyline clip-path="url(#clip310)" style="stroke:#000000; stroke-linecap:butt; stroke-linejoin:round; stroke-width:4; stroke-opacity:1; fill:none" points="
  261.498,1411.22 2352.76,1411.22 
  "/>
<polyline clip-path="url(#clip310)" style="stroke:#000000; stroke-linecap:butt; stroke-linejoin:round; stroke-width:4; stroke-opacity:1; fill:none" points="
  320.685,1411.22 320.685,1392.33 
  "/>
<polyline clip-path="url(#clip310)" style="stroke:#000000; stroke-linecap:butt; stroke-linejoin:round; stroke-width:4; stroke-opacity:1; fill:none" points="
  813.906,1411.22 813.906,1392.33 
  "/>
<polyline clip-path="url(#clip310)" style="stroke:#000000; stroke-linecap:butt; stroke-linejoin:round; stroke-width:4; stroke-opacity:1; fill:none" points="
  1307.13,1411.22 1307.13,1392.33 
  "/>
<polyline clip-path="url(#clip310)" style="stroke:#000000; stroke-linecap:butt; stroke-linejoin:round; stroke-width:4; stroke-opacity:1; fill:none" points="
  1800.35,1411.22 1800.35,1392.33 
  "/>
<polyline clip-path="url(#clip310)" style="stroke:#000000; stroke-linecap:butt; stroke-linejoin:round; stroke-width:4; stroke-opacity:1; fill:none" points="
  2293.57,1411.22 2293.57,1392.33 
  "/>
<path clip-path="url(#clip310)" d="M290.442 1456.79 L320.118 1456.79 L320.118 1460.73 L290.442 1460.73 L290.442 1456.79 Z" fill="#000000" fill-rule="evenodd" fill-opacity="1" /><path clip-path="url(#clip310)" d="M331.02 1469.69 L338.659 1469.69 L338.659 1443.32 L330.349 1444.99 L330.349 1440.73 L338.613 1439.06 L343.289 1439.06 L343.289 1469.69 L350.928 1469.69 L350.928 1473.62 L331.02 1473.62 L331.02 1469.69 Z" fill="#000000" fill-rule="evenodd" fill-opacity="1" /><path clip-path="url(#clip310)" d="M813.906 1442.14 Q810.295 1442.14 808.466 1445.71 Q806.661 1449.25 806.661 1456.38 Q806.661 1463.48 808.466 1467.05 Q810.295 1470.59 813.906 1470.59 Q817.54 1470.59 819.346 1467.05 Q821.174 1463.48 821.174 1456.38 Q821.174 1449.25 819.346 1445.71 Q817.54 1442.14 813.906 1442.14 M813.906 1438.44 Q819.716 1438.44 822.772 1443.05 Q825.85 1447.63 825.85 1456.38 Q825.85 1465.11 822.772 1469.71 Q819.716 1474.29 813.906 1474.29 Q808.096 1474.29 805.017 1469.71 Q801.962 1465.11 801.962 1456.38 Q801.962 1447.63 805.017 1443.05 Q808.096 1438.44 813.906 1438.44 Z" fill="#000000" fill-rule="evenodd" fill-opacity="1" /><path clip-path="url(#clip310)" d="M1297.51 1469.69 L1305.15 1469.69 L1305.15 1443.32 L1296.84 1444.99 L1296.84 1440.73 L1305.1 1439.06 L1309.78 1439.06 L1309.78 1469.69 L1317.42 1469.69 L1317.42 1473.62 L1297.51 1473.62 L1297.51 1469.69 Z" fill="#000000" fill-rule="evenodd" fill-opacity="1" /><path clip-path="url(#clip310)" d="M1795 1469.69 L1811.32 1469.69 L1811.32 1473.62 L1789.38 1473.62 L1789.38 1469.69 Q1792.04 1466.93 1796.62 1462.3 Q1801.23 1457.65 1802.41 1456.31 Q1804.65 1453.79 1805.53 1452.05 Q1806.44 1450.29 1806.44 1448.6 Q1806.44 1445.85 1804.49 1444.11 Q1802.57 1442.37 1799.47 1442.37 Q1797.27 1442.37 1794.82 1443.14 Q1792.39 1443.9 1789.61 1445.45 L1789.61 1440.73 Q1792.43 1439.6 1794.89 1439.02 Q1797.34 1438.44 1799.38 1438.44 Q1804.75 1438.44 1807.94 1441.12 Q1811.14 1443.81 1811.14 1448.3 Q1811.14 1450.43 1810.33 1452.35 Q1809.54 1454.25 1807.43 1456.84 Q1806.85 1457.51 1803.75 1460.73 Q1800.65 1463.92 1795 1469.69 Z" fill="#000000" fill-rule="evenodd" fill-opacity="1" /><path clip-path="url(#clip310)" d="M2297.82 1454.99 Q2301.17 1455.71 2303.05 1457.98 Q2304.95 1460.24 2304.95 1463.58 Q2304.95 1468.69 2301.43 1471.49 Q2297.91 1474.29 2291.43 1474.29 Q2289.25 1474.29 2286.94 1473.86 Q2284.65 1473.44 2282.19 1472.58 L2282.19 1468.07 Q2284.14 1469.2 2286.45 1469.78 Q2288.77 1470.36 2291.29 1470.36 Q2295.69 1470.36 2297.98 1468.62 Q2300.29 1466.89 2300.29 1463.58 Q2300.29 1460.52 2298.14 1458.81 Q2296.01 1457.07 2292.19 1457.07 L2288.16 1457.07 L2288.16 1453.23 L2292.38 1453.23 Q2295.83 1453.23 2297.65 1451.86 Q2299.48 1450.48 2299.48 1447.88 Q2299.48 1445.22 2297.59 1443.81 Q2295.71 1442.37 2292.19 1442.37 Q2290.27 1442.37 2288.07 1442.79 Q2285.87 1443.21 2283.23 1444.09 L2283.23 1439.92 Q2285.9 1439.18 2288.21 1438.81 Q2290.55 1438.44 2292.61 1438.44 Q2297.93 1438.44 2301.03 1440.87 Q2304.14 1443.28 2304.14 1447.4 Q2304.14 1450.27 2302.49 1452.26 Q2300.85 1454.23 2297.82 1454.99 Z" fill="#000000" fill-rule="evenodd" fill-opacity="1" /><path clip-path="url(#clip310)" d="M1146.58 1562.84 Q1146.58 1567.48 1144.23 1572.02 Q1141.91 1576.53 1138.17 1579.36 Q1134.47 1582.19 1130.67 1582.19 Q1126.97 1582.19 1124.61 1579.36 Q1122.3 1576.49 1122.3 1571.82 Q1122.3 1570.18 1122.49 1569.02 Q1122.68 1567.86 1123.36 1565.16 L1128.77 1543.64 Q1129.7 1539.62 1129.7 1539.59 Q1129.7 1539.2 1129.54 1539.01 Q1129.41 1538.78 1128.64 1538.62 Q1127.87 1538.46 1126.39 1538.46 Q1125.77 1538.46 1125.48 1538.43 Q1125.23 1538.39 1125 1538.23 Q1124.81 1538.04 1124.81 1537.65 Q1124.81 1537.11 1125.03 1536.82 Q1125.29 1536.49 1125.48 1536.43 Q1125.68 1536.37 1126.06 1536.33 Q1126.61 1536.3 1128.45 1536.14 Q1130.28 1535.95 1131.86 1535.82 Q1133.44 1535.69 1134.11 1535.69 Q1134.5 1535.69 1134.69 1535.88 Q1134.92 1536.04 1134.92 1536.24 L1134.95 1536.4 L1130.09 1556.27 Q1133.92 1552.31 1137.82 1552.31 Q1141.72 1552.31 1144.13 1555.3 Q1146.58 1558.3 1146.58 1562.84 M1141.81 1559.94 Q1141.81 1556.88 1140.65 1555.33 Q1139.53 1553.76 1137.66 1553.76 Q1136.08 1553.76 1134.02 1554.95 Q1131.96 1556.14 1129.77 1559.04 Q1129.35 1559.59 1129.19 1559.91 Q1129.06 1560.23 1128.77 1561.33 L1127.32 1567.41 Q1126.26 1571.57 1126.26 1574.08 Q1126.26 1577.49 1127.51 1579.1 Q1128.77 1580.71 1130.67 1580.71 Q1132.67 1580.71 1134.76 1578.94 Q1136.85 1577.17 1138.46 1573.95 Q1139.46 1571.82 1140.62 1567.25 Q1141.81 1562.65 1141.81 1559.94 Z" fill="#000000" fill-rule="evenodd" fill-opacity="1" /><path clip-path="url(#clip310)" d="M1166.19 1522.51 Q1166.19 1521.72 1167.25 1521.2 L1173.68 1518.16 L1167.16 1515.12 Q1166.19 1514.66 1166.19 1513.88 Q1166.19 1513.42 1166.55 1513.02 Q1166.94 1512.59 1167.43 1512.59 Q1167.79 1512.59 1168.45 1513.09 L1174.17 1517.23 Q1173.48 1509.62 1173.5 1509.39 Q1173.5 1508.94 1173.84 1508.6 Q1174.17 1508.24 1174.74 1508.24 Q1175.19 1508.24 1175.55 1508.58 Q1175.93 1508.89 1175.93 1509.39 L1175.26 1517.23 L1180.37 1513.45 Q1181.57 1512.57 1182 1512.59 Q1182.52 1512.59 1182.88 1513 Q1183.24 1513.4 1183.24 1513.88 Q1183.24 1514.66 1182.18 1515.16 L1175.75 1518.2 L1182.27 1521.27 Q1183.24 1521.72 1183.24 1522.51 Q1183.24 1522.96 1182.85 1523.39 Q1182.49 1523.8 1182 1523.8 Q1181.73 1523.8 1181.25 1523.52 Q1181.16 1523.48 1180.19 1522.76 Q1179.22 1522.04 1177.71 1520.93 Q1176.23 1519.83 1175.26 1519.13 Q1175.96 1526.75 1175.93 1526.97 Q1175.93 1527.42 1175.59 1527.79 Q1175.26 1528.15 1174.69 1528.15 Q1174.24 1528.15 1173.86 1527.83 Q1173.5 1527.49 1173.5 1526.97 L1174.17 1519.13 L1167.73 1523.8 Q1167.03 1523.8 1166.64 1523.46 Q1166.28 1523.1 1166.24 1522.89 Q1166.19 1522.69 1166.19 1522.51 Z" fill="#000000" fill-rule="evenodd" fill-opacity="1" /><path clip-path="url(#clip310)" d="M1208.91 1564.96 Q1208.91 1553.82 1213.07 1544.84 Q1214.84 1541.07 1217.32 1537.91 Q1219.8 1534.76 1221.44 1533.37 Q1223.08 1531.99 1223.53 1531.99 Q1224.18 1531.99 1224.21 1532.63 Q1224.21 1532.95 1223.34 1533.76 Q1212.71 1544.58 1212.74 1564.96 Q1212.74 1585.42 1223.08 1595.82 Q1224.21 1596.94 1224.21 1597.3 Q1224.21 1597.94 1223.53 1597.94 Q1223.08 1597.94 1221.5 1596.62 Q1219.92 1595.3 1217.48 1592.28 Q1215.03 1589.25 1213.26 1585.54 Q1208.91 1576.56 1208.91 1564.96 Z" fill="#000000" fill-rule="evenodd" fill-opacity="1" /><path clip-path="url(#clip310)" d="M1230.54 1581.45 L1230.54 1579.42 Q1234.05 1579.42 1234.86 1579.01 Q1235.66 1578.56 1235.66 1576.43 L1235.66 1542.13 Q1235.66 1539.68 1234.79 1539.07 Q1233.96 1538.46 1230.54 1538.46 L1230.54 1536.4 L1240.01 1535.69 L1240.01 1576.43 Q1240.01 1578.56 1240.85 1579.01 Q1241.69 1579.42 1245.16 1579.42 L1245.16 1581.45 Q1244.36 1581.45 1242.68 1581.39 Q1241.01 1581.33 1239.79 1581.29 Q1238.56 1581.26 1237.85 1581.26 Q1237.08 1581.26 1230.54 1581.45 Z" fill="#000000" fill-rule="evenodd" fill-opacity="1" /><path clip-path="url(#clip310)" d="M1255.09 1577.91 Q1250.74 1573.6 1250.74 1567.35 Q1250.74 1561.07 1254.99 1556.49 Q1259.27 1551.89 1265.39 1551.89 Q1271.38 1551.89 1275.67 1556.46 Q1279.98 1561 1279.98 1567.35 Q1279.98 1573.56 1275.64 1577.88 Q1271.32 1582.19 1265.33 1582.19 Q1259.47 1582.19 1255.09 1577.91 M1256.22 1566.8 Q1256.22 1573.21 1257.89 1576.11 Q1260.47 1580.52 1265.39 1580.52 Q1267.84 1580.52 1269.87 1579.2 Q1271.93 1577.88 1273.06 1575.66 Q1274.51 1572.76 1274.51 1566.8 Q1274.51 1560.46 1272.77 1557.65 Q1270.19 1553.37 1265.33 1553.37 Q1263.2 1553.37 1261.11 1554.5 Q1259.05 1555.59 1257.79 1557.78 Q1256.22 1560.68 1256.22 1566.8 Z" fill="#000000" fill-rule="evenodd" fill-opacity="1" /><path clip-path="url(#clip310)" d="M1281.03 1586.67 Q1281.03 1584.55 1282.64 1582.71 Q1284.28 1580.87 1287.12 1580.07 Q1284.22 1578.23 1284.22 1574.21 Q1284.22 1571.12 1286.25 1568.73 Q1283.15 1566.16 1283.15 1561.94 Q1283.15 1558.04 1286.25 1555.17 Q1289.34 1552.31 1293.85 1552.31 Q1297.81 1552.31 1300.84 1554.69 Q1303.99 1551.6 1307.82 1551.57 Q1309.53 1551.57 1310.34 1552.63 Q1311.17 1553.69 1311.17 1554.82 Q1311.17 1555.82 1310.53 1556.3 Q1309.92 1556.78 1309.27 1556.78 Q1308.47 1556.78 1307.89 1556.27 Q1307.34 1555.72 1307.34 1554.88 Q1307.34 1553.5 1308.4 1553.08 Q1308.21 1553.02 1307.76 1553.02 Q1304.54 1553.02 1301.8 1555.59 Q1304.51 1558.1 1304.51 1562 Q1304.51 1565.9 1301.41 1568.76 Q1298.32 1571.63 1293.85 1571.63 Q1290.14 1571.63 1287.31 1569.57 Q1286.18 1570.89 1286.18 1572.69 Q1286.18 1574.34 1287.18 1575.62 Q1288.18 1576.91 1289.69 1577.11 Q1290.14 1577.17 1294.62 1577.17 Q1297.26 1577.17 1298.71 1577.23 Q1300.16 1577.3 1302.22 1577.75 Q1304.31 1578.17 1305.96 1579.01 Q1310.24 1581.39 1310.27 1586.54 Q1310.27 1590.31 1305.92 1592.66 Q1301.61 1595.04 1295.62 1595.04 Q1289.56 1595.04 1285.28 1592.63 Q1281.03 1590.25 1281.03 1586.67 M1284.47 1586.67 Q1284.47 1589.38 1287.66 1591.44 Q1290.85 1593.53 1295.68 1593.53 Q1300.42 1593.53 1303.6 1591.47 Q1306.83 1589.44 1306.83 1586.67 Q1306.83 1584.71 1305.7 1583.45 Q1304.57 1582.19 1302.25 1581.68 Q1299.97 1581.2 1298.36 1581.1 Q1296.74 1581 1293.78 1581 L1289.89 1581 Q1287.63 1581.13 1286.05 1582.77 Q1284.47 1584.42 1284.47 1586.67 M1288.08 1562 Q1288.08 1570.12 1293.85 1570.12 Q1296.74 1570.12 1298.52 1567.48 Q1299.58 1565.71 1299.58 1561.94 Q1299.58 1553.82 1293.85 1553.82 Q1290.95 1553.82 1289.14 1556.46 Q1288.08 1558.23 1288.08 1562 Z" fill="#000000" fill-rule="evenodd" fill-opacity="1" /><path clip-path="url(#clip310)" d="M1331.12 1580.58 L1331.12 1571.89 Q1331.12 1571.15 1331.16 1570.89 Q1331.19 1570.63 1331.38 1570.44 Q1331.57 1570.25 1331.96 1570.25 Q1332.41 1570.25 1332.57 1570.44 Q1332.77 1570.63 1332.89 1571.37 Q1333.89 1575.91 1336.02 1578.33 Q1338.18 1580.71 1342.07 1580.71 Q1345.78 1580.71 1347.65 1579.07 Q1349.51 1577.43 1349.51 1574.72 Q1349.51 1569.89 1342.65 1568.67 Q1338.69 1567.86 1337.05 1567.35 Q1335.41 1566.8 1333.96 1565.61 Q1331.12 1563.29 1331.12 1560 Q1331.12 1556.72 1333.6 1554.3 Q1336.12 1551.89 1341.65 1551.89 Q1345.36 1551.89 1347.87 1553.76 Q1348.61 1553.18 1349 1552.69 Q1349.87 1551.89 1350.32 1551.89 Q1350.83 1551.89 1350.93 1552.24 Q1351.03 1552.57 1351.03 1553.5 L1351.03 1560.13 Q1351.03 1560.87 1350.99 1561.13 Q1350.96 1561.39 1350.77 1561.58 Q1350.58 1561.74 1350.16 1561.74 Q1349.42 1561.74 1349.38 1561.13 Q1348.87 1553.14 1341.65 1553.14 Q1337.76 1553.14 1336.02 1554.66 Q1334.28 1556.14 1334.28 1558.17 Q1334.28 1559.3 1334.79 1560.17 Q1335.34 1561 1336.02 1561.52 Q1336.73 1562 1338.02 1562.48 Q1339.3 1562.94 1340.08 1563.1 Q1340.88 1563.26 1342.4 1563.58 Q1347.68 1564.58 1349.9 1566.74 Q1352.67 1569.51 1352.67 1573.02 Q1352.67 1576.91 1350.03 1579.55 Q1347.39 1582.19 1342.07 1582.19 Q1337.79 1582.19 1334.79 1579.33 Q1334.41 1579.71 1334.12 1580.07 Q1333.83 1580.39 1333.7 1580.52 Q1333.6 1580.65 1333.57 1580.75 Q1333.54 1580.81 1333.47 1580.87 Q1332.15 1582.19 1331.83 1582.19 Q1331.32 1582.19 1331.22 1581.84 Q1331.12 1581.52 1331.12 1580.58 Z" fill="#000000" fill-rule="evenodd" fill-opacity="1" /><path clip-path="url(#clip310)" d="M1360.76 1577.85 Q1356.57 1573.47 1356.57 1567.22 Q1356.57 1560.94 1360.69 1556.43 Q1364.81 1551.89 1370.87 1551.89 Q1374.89 1551.89 1377.92 1553.82 Q1380.95 1555.72 1380.95 1558.97 Q1380.95 1560.42 1380.08 1561.26 Q1379.24 1562.07 1377.92 1562.07 Q1376.54 1562.07 1375.7 1561.23 Q1374.89 1560.36 1374.89 1559.04 Q1374.89 1558.46 1375.09 1557.88 Q1375.28 1557.3 1375.99 1556.69 Q1376.73 1556.08 1377.99 1555.98 Q1375.64 1553.56 1371.06 1553.56 Q1371 1553.56 1370.93 1553.56 Q1367.58 1553.56 1364.81 1556.72 Q1362.04 1559.88 1362.04 1567.09 Q1362.04 1570.86 1362.95 1573.63 Q1363.88 1576.37 1365.39 1577.78 Q1366.91 1579.2 1368.39 1579.88 Q1369.87 1580.52 1371.32 1580.52 Q1377.79 1580.52 1379.98 1573.6 Q1380.18 1572.95 1380.82 1572.95 Q1381.69 1572.95 1381.69 1573.6 Q1381.69 1573.92 1381.43 1574.76 Q1381.17 1575.59 1380.37 1576.91 Q1379.56 1578.23 1378.41 1579.39 Q1377.28 1580.52 1375.25 1581.36 Q1373.25 1582.19 1370.74 1582.19 Q1364.94 1582.19 1360.76 1577.85 Z" fill="#000000" fill-rule="evenodd" fill-opacity="1" /><path clip-path="url(#clip310)" d="M1385.04 1575.17 Q1385.04 1569.57 1391.64 1566.61 Q1395.6 1564.71 1403.78 1564.22 L1403.78 1561.81 Q1403.78 1557.72 1401.62 1555.56 Q1399.5 1553.37 1396.79 1553.37 Q1391.96 1553.37 1389.64 1556.4 Q1391.61 1556.46 1392.32 1557.46 Q1393.02 1558.43 1393.02 1559.43 Q1393.02 1560.75 1392.19 1561.62 Q1391.38 1562.45 1390 1562.45 Q1388.68 1562.45 1387.81 1561.65 Q1386.94 1560.81 1386.94 1559.36 Q1386.94 1556.14 1389.84 1554.01 Q1392.77 1551.89 1396.92 1551.89 Q1402.33 1551.89 1405.94 1555.53 Q1407.07 1556.66 1407.61 1558.1 Q1408.19 1559.55 1408.26 1560.52 Q1408.32 1561.45 1408.32 1563.32 L1408.32 1576.49 Q1408.32 1576.88 1408.45 1577.52 Q1408.58 1578.17 1409.16 1579.01 Q1409.77 1579.81 1410.77 1579.81 Q1413.15 1579.81 1413.12 1575.59 L1413.12 1571.89 L1414.8 1571.89 L1414.8 1575.59 Q1414.8 1579.1 1412.93 1580.49 Q1411.09 1581.84 1409.38 1581.84 Q1407.19 1581.84 1405.81 1580.23 Q1404.43 1578.62 1404.23 1576.43 Q1403.23 1578.94 1400.95 1580.58 Q1398.69 1582.19 1395.6 1582.19 Q1393.22 1582.19 1390.96 1581.58 Q1388.74 1581 1386.87 1579.36 Q1385.04 1577.69 1385.04 1575.17 M1390.13 1575.11 Q1390.13 1577.56 1391.87 1579.14 Q1393.6 1580.71 1396.05 1580.71 Q1398.82 1580.71 1401.3 1578.59 Q1403.78 1576.43 1403.78 1572.21 L1403.78 1565.61 Q1396.47 1565.87 1393.28 1568.8 Q1390.13 1571.7 1390.13 1575.11 Z" fill="#000000" fill-rule="evenodd" fill-opacity="1" /><path clip-path="url(#clip310)" d="M1417.44 1581.45 L1417.44 1579.42 Q1420.95 1579.42 1421.75 1579.01 Q1422.56 1578.56 1422.56 1576.43 L1422.56 1542.13 Q1422.56 1539.68 1421.69 1539.07 Q1420.85 1538.46 1417.44 1538.46 L1417.44 1536.4 L1426.91 1535.69 L1426.91 1576.43 Q1426.91 1578.56 1427.74 1579.01 Q1428.58 1579.42 1432.06 1579.42 L1432.06 1581.45 Q1431.25 1581.45 1429.58 1581.39 Q1427.9 1581.33 1426.68 1581.29 Q1425.46 1581.26 1424.75 1581.26 Q1423.98 1581.26 1417.44 1581.45 Z" fill="#000000" fill-rule="evenodd" fill-opacity="1" /><path clip-path="url(#clip310)" d="M1436.32 1566.93 Q1436.32 1560.71 1440.31 1556.3 Q1444.3 1551.89 1450.04 1551.89 Q1455.83 1551.89 1458.83 1555.66 Q1461.86 1559.43 1461.86 1564.84 Q1461.86 1565.83 1461.6 1566.03 Q1461.34 1566.22 1460.21 1566.22 L1441.79 1566.22 Q1441.79 1572.95 1443.79 1576.11 Q1446.56 1580.52 1451.23 1580.52 Q1451.87 1580.52 1452.64 1580.39 Q1453.42 1580.26 1455 1579.71 Q1456.57 1579.14 1457.96 1577.62 Q1459.34 1576.11 1460.15 1573.72 Q1460.34 1572.79 1460.99 1572.82 Q1461.86 1572.82 1461.86 1573.6 Q1461.86 1574.18 1461.21 1575.5 Q1460.6 1576.78 1459.41 1578.33 Q1458.22 1579.88 1455.9 1581.04 Q1453.61 1582.19 1450.84 1582.19 Q1445.04 1582.19 1440.66 1577.81 Q1436.32 1573.4 1436.32 1566.93 M1441.86 1564.84 L1457.51 1564.84 Q1457.51 1563.45 1457.25 1561.9 Q1457.02 1560.36 1456.32 1558.23 Q1455.64 1556.08 1454.03 1554.72 Q1452.42 1553.37 1450.04 1553.37 Q1448.97 1553.37 1447.81 1553.82 Q1446.69 1554.27 1445.3 1555.37 Q1443.92 1556.46 1442.95 1558.94 Q1441.98 1561.42 1441.86 1564.84 Z" fill="#000000" fill-rule="evenodd" fill-opacity="1" /><path clip-path="url(#clip310)" d="M1466.63 1597.3 Q1466.63 1596.98 1467.47 1596.17 Q1478.1 1585.35 1478.1 1564.96 Q1478.1 1544.51 1467.89 1534.18 Q1466.63 1532.98 1466.63 1532.63 Q1466.63 1531.99 1467.28 1531.99 Q1467.73 1531.99 1469.3 1533.31 Q1470.91 1534.63 1473.33 1537.65 Q1475.78 1540.68 1477.58 1544.38 Q1481.93 1553.37 1481.93 1564.96 Q1481.93 1576.11 1477.77 1585.09 Q1476 1588.86 1473.52 1592.02 Q1471.04 1595.17 1469.4 1596.56 Q1467.76 1597.94 1467.28 1597.94 Q1466.63 1597.94 1466.63 1597.3 Z" fill="#000000" fill-rule="evenodd" fill-opacity="1" /><polyline clip-path="url(#clip310)" style="stroke:#000000; stroke-linecap:butt; stroke-linejoin:round; stroke-width:4; stroke-opacity:1; fill:none" points="
  261.498,1411.22 261.498,47.2441 
  "/>
<polyline clip-path="url(#clip310)" style="stroke:#000000; stroke-linecap:butt; stroke-linejoin:round; stroke-width:4; stroke-opacity:1; fill:none" points="
  261.498,1372.62 280.396,1372.62 
  "/>
<polyline clip-path="url(#clip310)" style="stroke:#000000; stroke-linecap:butt; stroke-linejoin:round; stroke-width:4; stroke-opacity:1; fill:none" points="
  261.498,1058.77 280.396,1058.77 
  "/>
<polyline clip-path="url(#clip310)" style="stroke:#000000; stroke-linecap:butt; stroke-linejoin:round; stroke-width:4; stroke-opacity:1; fill:none" points="
  261.498,744.926 280.396,744.926 
  "/>
<polyline clip-path="url(#clip310)" style="stroke:#000000; stroke-linecap:butt; stroke-linejoin:round; stroke-width:4; stroke-opacity:1; fill:none" points="
  261.498,431.079 280.396,431.079 
  "/>
<polyline clip-path="url(#clip310)" style="stroke:#000000; stroke-linecap:butt; stroke-linejoin:round; stroke-width:4; stroke-opacity:1; fill:none" points="
  261.498,117.232 280.396,117.232 
  "/>
<path clip-path="url(#clip310)" d="M138.161 1358.42 Q134.55 1358.42 132.721 1361.98 Q130.915 1365.53 130.915 1372.66 Q130.915 1379.76 132.721 1383.33 Q134.55 1386.87 138.161 1386.87 Q141.795 1386.87 143.601 1383.33 Q145.429 1379.76 145.429 1372.66 Q145.429 1365.53 143.601 1361.98 Q141.795 1358.42 138.161 1358.42 M138.161 1354.72 Q143.971 1354.72 147.027 1359.32 Q150.105 1363.91 150.105 1372.66 Q150.105 1381.38 147.027 1385.99 Q143.971 1390.57 138.161 1390.57 Q132.351 1390.57 129.272 1385.99 Q126.216 1381.38 126.216 1372.66 Q126.216 1363.91 129.272 1359.32 Q132.351 1354.72 138.161 1354.72 Z" fill="#000000" fill-rule="evenodd" fill-opacity="1" /><path clip-path="url(#clip310)" d="M158.323 1384.02 L163.207 1384.02 L163.207 1389.9 L158.323 1389.9 L158.323 1384.02 Z" fill="#000000" fill-rule="evenodd" fill-opacity="1" /><path clip-path="url(#clip310)" d="M183.392 1358.42 Q179.781 1358.42 177.952 1361.98 Q176.147 1365.53 176.147 1372.66 Q176.147 1379.76 177.952 1383.33 Q179.781 1386.87 183.392 1386.87 Q187.026 1386.87 188.832 1383.33 Q190.661 1379.76 190.661 1372.66 Q190.661 1365.53 188.832 1361.98 Q187.026 1358.42 183.392 1358.42 M183.392 1354.72 Q189.202 1354.72 192.258 1359.32 Q195.336 1363.91 195.336 1372.66 Q195.336 1381.38 192.258 1385.99 Q189.202 1390.57 183.392 1390.57 Q177.582 1390.57 174.503 1385.99 Q171.448 1381.38 171.448 1372.66 Q171.448 1363.91 174.503 1359.32 Q177.582 1354.72 183.392 1354.72 Z" fill="#000000" fill-rule="evenodd" fill-opacity="1" /><path clip-path="url(#clip310)" d="M213.554 1358.42 Q209.943 1358.42 208.114 1361.98 Q206.309 1365.53 206.309 1372.66 Q206.309 1379.76 208.114 1383.33 Q209.943 1386.87 213.554 1386.87 Q217.188 1386.87 218.994 1383.33 Q220.822 1379.76 220.822 1372.66 Q220.822 1365.53 218.994 1361.98 Q217.188 1358.42 213.554 1358.42 M213.554 1354.72 Q219.364 1354.72 222.42 1359.32 Q225.498 1363.91 225.498 1372.66 Q225.498 1381.38 222.42 1385.99 Q219.364 1390.57 213.554 1390.57 Q207.744 1390.57 204.665 1385.99 Q201.61 1381.38 201.61 1372.66 Q201.61 1363.91 204.665 1359.32 Q207.744 1354.72 213.554 1354.72 Z" fill="#000000" fill-rule="evenodd" fill-opacity="1" /><path clip-path="url(#clip310)" d="M139.156 1044.57 Q135.545 1044.57 133.716 1048.14 Q131.911 1051.68 131.911 1058.81 Q131.911 1065.91 133.716 1069.48 Q135.545 1073.02 139.156 1073.02 Q142.79 1073.02 144.596 1069.48 Q146.425 1065.91 146.425 1058.81 Q146.425 1051.68 144.596 1048.14 Q142.79 1044.57 139.156 1044.57 M139.156 1040.87 Q144.966 1040.87 148.022 1045.47 Q151.101 1050.06 151.101 1058.81 Q151.101 1067.53 148.022 1072.14 Q144.966 1076.72 139.156 1076.72 Q133.346 1076.72 130.267 1072.14 Q127.212 1067.53 127.212 1058.81 Q127.212 1050.06 130.267 1045.47 Q133.346 1040.87 139.156 1040.87 Z" fill="#000000" fill-rule="evenodd" fill-opacity="1" /><path clip-path="url(#clip310)" d="M159.318 1070.17 L164.202 1070.17 L164.202 1076.05 L159.318 1076.05 L159.318 1070.17 Z" fill="#000000" fill-rule="evenodd" fill-opacity="1" /><path clip-path="url(#clip310)" d="M178.415 1072.12 L194.735 1072.12 L194.735 1076.05 L172.79 1076.05 L172.79 1072.12 Q175.452 1069.36 180.036 1064.73 Q184.642 1060.08 185.823 1058.74 Q188.068 1056.22 188.948 1054.48 Q189.85 1052.72 189.85 1051.03 Q189.85 1048.28 187.906 1046.54 Q185.985 1044.8 182.883 1044.8 Q180.684 1044.8 178.23 1045.57 Q175.799 1046.33 173.022 1047.88 L173.022 1043.16 Q175.846 1042.03 178.299 1041.45 Q180.753 1040.87 182.79 1040.87 Q188.161 1040.87 191.355 1043.55 Q194.549 1046.24 194.549 1050.73 Q194.549 1052.86 193.739 1054.78 Q192.952 1056.68 190.846 1059.27 Q190.267 1059.94 187.165 1063.16 Q184.063 1066.35 178.415 1072.12 Z" fill="#000000" fill-rule="evenodd" fill-opacity="1" /><path clip-path="url(#clip310)" d="M204.596 1041.49 L222.952 1041.49 L222.952 1045.43 L208.878 1045.43 L208.878 1053.9 Q209.897 1053.55 210.915 1053.39 Q211.934 1053.21 212.952 1053.21 Q218.739 1053.21 222.119 1056.38 Q225.498 1059.55 225.498 1064.97 Q225.498 1070.54 222.026 1073.65 Q218.554 1076.72 212.234 1076.72 Q210.059 1076.72 207.79 1076.35 Q205.545 1075.98 203.137 1075.24 L203.137 1070.54 Q205.221 1071.68 207.443 1072.23 Q209.665 1072.79 212.142 1072.79 Q216.147 1072.79 218.484 1070.68 Q220.822 1068.58 220.822 1064.97 Q220.822 1061.35 218.484 1059.25 Q216.147 1057.14 212.142 1057.14 Q210.267 1057.14 208.392 1057.56 Q206.54 1057.97 204.596 1058.85 L204.596 1041.49 Z" fill="#000000" fill-rule="evenodd" fill-opacity="1" /><path clip-path="url(#clip310)" d="M138.161 730.725 Q134.55 730.725 132.721 734.29 Q130.915 737.831 130.915 744.961 Q130.915 752.067 132.721 755.632 Q134.55 759.174 138.161 759.174 Q141.795 759.174 143.601 755.632 Q145.429 752.067 145.429 744.961 Q145.429 737.831 143.601 734.29 Q141.795 730.725 138.161 730.725 M138.161 727.021 Q143.971 727.021 147.027 731.628 Q150.105 736.211 150.105 744.961 Q150.105 753.688 147.027 758.294 Q143.971 762.877 138.161 762.877 Q132.351 762.877 129.272 758.294 Q126.216 753.688 126.216 744.961 Q126.216 736.211 129.272 731.628 Q132.351 727.021 138.161 727.021 Z" fill="#000000" fill-rule="evenodd" fill-opacity="1" /><path clip-path="url(#clip310)" d="M158.323 756.327 L163.207 756.327 L163.207 762.206 L158.323 762.206 L158.323 756.327 Z" fill="#000000" fill-rule="evenodd" fill-opacity="1" /><path clip-path="url(#clip310)" d="M173.438 727.646 L191.795 727.646 L191.795 731.581 L177.721 731.581 L177.721 740.054 Q178.739 739.706 179.758 739.544 Q180.776 739.359 181.795 739.359 Q187.582 739.359 190.961 742.53 Q194.341 745.702 194.341 751.118 Q194.341 756.697 190.869 759.799 Q187.397 762.877 181.077 762.877 Q178.901 762.877 176.633 762.507 Q174.387 762.137 171.98 761.396 L171.98 756.697 Q174.063 757.831 176.286 758.387 Q178.508 758.942 180.985 758.942 Q184.989 758.942 187.327 756.836 Q189.665 754.729 189.665 751.118 Q189.665 747.507 187.327 745.401 Q184.989 743.294 180.985 743.294 Q179.11 743.294 177.235 743.711 Q175.383 744.128 173.438 745.007 L173.438 727.646 Z" fill="#000000" fill-rule="evenodd" fill-opacity="1" /><path clip-path="url(#clip310)" d="M213.554 730.725 Q209.943 730.725 208.114 734.29 Q206.309 737.831 206.309 744.961 Q206.309 752.067 208.114 755.632 Q209.943 759.174 213.554 759.174 Q217.188 759.174 218.994 755.632 Q220.822 752.067 220.822 744.961 Q220.822 737.831 218.994 734.29 Q217.188 730.725 213.554 730.725 M213.554 727.021 Q219.364 727.021 222.42 731.628 Q225.498 736.211 225.498 744.961 Q225.498 753.688 222.42 758.294 Q219.364 762.877 213.554 762.877 Q207.744 762.877 204.665 758.294 Q201.61 753.688 201.61 744.961 Q201.61 736.211 204.665 731.628 Q207.744 727.021 213.554 727.021 Z" fill="#000000" fill-rule="evenodd" fill-opacity="1" /><path clip-path="url(#clip310)" d="M139.156 416.878 Q135.545 416.878 133.716 420.443 Q131.911 423.984 131.911 431.114 Q131.911 438.22 133.716 441.785 Q135.545 445.327 139.156 445.327 Q142.79 445.327 144.596 441.785 Q146.425 438.22 146.425 431.114 Q146.425 423.984 144.596 420.443 Q142.79 416.878 139.156 416.878 M139.156 413.174 Q144.966 413.174 148.022 417.781 Q151.101 422.364 151.101 431.114 Q151.101 439.841 148.022 444.447 Q144.966 449.03 139.156 449.03 Q133.346 449.03 130.267 444.447 Q127.212 439.841 127.212 431.114 Q127.212 422.364 130.267 417.781 Q133.346 413.174 139.156 413.174 Z" fill="#000000" fill-rule="evenodd" fill-opacity="1" /><path clip-path="url(#clip310)" d="M159.318 442.479 L164.202 442.479 L164.202 448.359 L159.318 448.359 L159.318 442.479 Z" fill="#000000" fill-rule="evenodd" fill-opacity="1" /><path clip-path="url(#clip310)" d="M173.207 413.799 L195.429 413.799 L195.429 415.79 L182.883 448.359 L177.999 448.359 L189.804 417.734 L173.207 417.734 L173.207 413.799 Z" fill="#000000" fill-rule="evenodd" fill-opacity="1" /><path clip-path="url(#clip310)" d="M204.596 413.799 L222.952 413.799 L222.952 417.734 L208.878 417.734 L208.878 426.206 Q209.897 425.859 210.915 425.697 Q211.934 425.512 212.952 425.512 Q218.739 425.512 222.119 428.683 Q225.498 431.855 225.498 437.271 Q225.498 442.85 222.026 445.952 Q218.554 449.03 212.234 449.03 Q210.059 449.03 207.79 448.66 Q205.545 448.29 203.137 447.549 L203.137 442.85 Q205.221 443.984 207.443 444.54 Q209.665 445.095 212.142 445.095 Q216.147 445.095 218.484 442.989 Q220.822 440.882 220.822 437.271 Q220.822 433.66 218.484 431.554 Q216.147 429.447 212.142 429.447 Q210.267 429.447 208.392 429.864 Q206.54 430.28 204.596 431.16 L204.596 413.799 Z" fill="#000000" fill-rule="evenodd" fill-opacity="1" /><path clip-path="url(#clip310)" d="M128.971 130.577 L136.61 130.577 L136.61 104.211 L128.3 105.878 L128.3 101.619 L136.564 99.952 L141.239 99.952 L141.239 130.577 L148.878 130.577 L148.878 134.512 L128.971 134.512 L128.971 130.577 Z" fill="#000000" fill-rule="evenodd" fill-opacity="1" /><path clip-path="url(#clip310)" d="M158.323 128.632 L163.207 128.632 L163.207 134.512 L158.323 134.512 L158.323 128.632 Z" fill="#000000" fill-rule="evenodd" fill-opacity="1" /><path clip-path="url(#clip310)" d="M183.392 103.031 Q179.781 103.031 177.952 106.595 Q176.147 110.137 176.147 117.267 Q176.147 124.373 177.952 127.938 Q179.781 131.48 183.392 131.48 Q187.026 131.48 188.832 127.938 Q190.661 124.373 190.661 117.267 Q190.661 110.137 188.832 106.595 Q187.026 103.031 183.392 103.031 M183.392 99.327 Q189.202 99.327 192.258 103.933 Q195.336 108.517 195.336 117.267 Q195.336 125.994 192.258 130.6 Q189.202 135.183 183.392 135.183 Q177.582 135.183 174.503 130.6 Q171.448 125.994 171.448 117.267 Q171.448 108.517 174.503 103.933 Q177.582 99.327 183.392 99.327 Z" fill="#000000" fill-rule="evenodd" fill-opacity="1" /><path clip-path="url(#clip310)" d="M213.554 103.031 Q209.943 103.031 208.114 106.595 Q206.309 110.137 206.309 117.267 Q206.309 124.373 208.114 127.938 Q209.943 131.48 213.554 131.48 Q217.188 131.48 218.994 127.938 Q220.822 124.373 220.822 117.267 Q220.822 110.137 218.994 106.595 Q217.188 103.031 213.554 103.031 M213.554 99.327 Q219.364 99.327 222.42 103.933 Q225.498 108.517 225.498 117.267 Q225.498 125.994 222.42 130.6 Q219.364 135.183 213.554 135.183 Q207.744 135.183 204.665 130.6 Q201.61 125.994 201.61 117.267 Q201.61 108.517 204.665 103.933 Q207.744 99.327 213.554 99.327 Z" fill="#000000" fill-rule="evenodd" fill-opacity="1" /><path clip-path="url(#clip310)" d="M48.2879 777.945 Q51.895 777.945 55.2122 780.618 Q58.5294 783.259 60.5584 787.575 Q62.5551 791.858 62.5551 796.464 L62.5551 807.671 L79.0445 811.761 Q79.1411 811.794 79.5598 811.89 Q79.9463 811.987 80.1717 811.987 Q80.9769 811.987 81.1701 810.988 Q81.3633 809.958 81.3633 807.671 Q81.3633 806.19 81.621 805.964 Q81.782 805.836 82.0719 805.836 Q82.5227 805.836 82.8448 805.964 Q83.1347 806.093 83.2313 806.351 Q83.3279 806.576 83.3601 806.737 Q83.3923 806.898 83.3923 807.156 Q83.3923 807.832 83.3279 809.282 Q83.2635 810.699 83.2635 811.439 L83.1991 815.658 L83.3923 824.032 Q83.3923 825.03 82.5872 825.03 Q81.9752 825.03 81.7176 824.773 Q81.4277 824.515 81.3955 824.225 Q81.3633 823.935 81.3633 823.195 Q81.3633 821.584 81.2667 820.618 Q81.1701 819.652 81.0413 819.04 Q80.8802 818.396 80.4294 818.074 Q79.9785 817.72 79.592 817.558 Q79.1733 817.397 78.2394 817.172 L42.8129 808.348 Q41.7501 808.09 41.5891 808.09 Q41.0416 808.09 40.8484 808.412 Q40.6229 808.702 40.5263 809.539 Q40.3975 811.15 40.3975 812.373 Q40.3975 813.178 40.3653 813.501 Q40.3331 813.79 40.172 814.048 Q39.9788 814.273 39.5923 814.273 Q38.9804 814.273 38.7228 814.016 Q38.4329 813.726 38.4007 813.404 Q38.3363 813.082 38.3363 812.309 L38.3363 790.924 Q38.3363 784.773 41.267 781.359 Q44.1978 777.945 48.2879 777.945 M46.7098 784.064 Q40.3975 784.064 40.3975 793.05 L40.3975 799.362 Q40.3975 801.456 40.784 801.971 Q41.1382 802.486 42.9095 802.937 L60.8482 807.414 L60.8482 798.106 Q60.8482 791.858 57.3378 787.961 Q55.7275 786.19 52.3781 785.127 Q49.0287 784.064 46.7098 784.064 Z" fill="#000000" fill-rule="evenodd" fill-opacity="1" /><path clip-path="url(#clip310)" d="M66.9029 770.708 Q55.7597 770.708 46.7742 766.553 Q43.0062 764.782 39.85 762.302 Q36.6938 759.822 35.309 758.18 Q33.9241 756.537 33.9241 756.086 Q33.9241 755.442 34.5682 755.41 Q34.8903 755.41 35.6954 756.279 Q46.5166 766.907 66.9029 766.875 Q87.3536 766.875 97.7561 756.537 Q98.8833 755.41 99.2376 755.41 Q99.8817 755.41 99.8817 756.086 Q99.8817 756.537 98.5613 758.115 Q97.2408 759.693 94.2135 762.141 Q91.1861 764.589 87.4825 766.36 Q78.497 770.708 66.9029 770.708 Z" fill="#000000" fill-rule="evenodd" fill-opacity="1" /><path clip-path="url(#clip310)" d="M64.7773 721.097 Q69.415 721.097 73.956 723.448 Q78.4648 725.767 81.2989 729.503 Q84.133 733.206 84.133 737.007 Q84.133 740.71 81.2989 743.061 Q78.4326 745.38 73.7628 745.38 Q72.1203 745.38 70.9608 745.187 Q69.8014 744.994 67.0961 744.317 L45.5826 738.907 Q41.5569 737.973 41.5247 737.973 Q41.1382 737.973 40.945 738.134 Q40.7195 738.263 40.5585 739.036 Q40.3975 739.809 40.3975 741.29 Q40.3975 741.902 40.3653 742.192 Q40.3331 742.449 40.172 742.675 Q39.9788 742.868 39.5923 742.868 Q39.0448 742.868 38.755 742.643 Q38.4329 742.385 38.3685 742.192 Q38.3041 741.999 38.2719 741.612 Q38.2397 741.065 38.0787 739.229 Q37.8854 737.393 37.7566 735.815 Q37.6278 734.237 37.6278 733.561 Q37.6278 733.174 37.821 732.981 Q37.982 732.756 38.1753 732.756 L38.3363 732.723 L58.2073 737.586 Q54.246 733.754 54.246 729.857 Q54.246 725.96 57.2411 723.545 Q60.2363 721.097 64.7773 721.097 M61.8788 725.863 Q58.8192 725.863 57.2734 727.023 Q55.6953 728.15 55.6953 730.018 Q55.6953 731.596 56.8869 733.657 Q58.0785 735.718 60.977 737.908 Q61.5245 738.327 61.8466 738.488 Q62.1686 738.617 63.2636 738.907 L69.3506 740.356 Q73.5051 741.419 76.0172 741.419 Q79.431 741.419 81.0413 740.163 Q82.6516 738.907 82.6516 737.007 Q82.6516 735.01 80.8802 732.917 Q79.1089 730.823 75.8883 729.213 Q73.7628 728.214 69.1895 727.055 Q64.5841 725.863 61.8788 725.863 Z" fill="#000000" fill-rule="evenodd" fill-opacity="1" /><path clip-path="url(#clip310)" d="M24.4487 701.482 Q23.6597 701.482 23.1411 700.422 L20.0977 693.997 L17.0542 700.512 Q16.6033 701.482 15.8143 701.482 Q15.3634 701.482 14.9576 701.121 Q14.5293 700.738 14.5293 700.242 Q14.5293 699.881 15.0253 699.227 L19.1734 693.501 Q11.5535 694.2 11.328 694.177 Q10.8771 694.177 10.539 693.839 Q10.1783 693.501 10.1783 692.937 Q10.1783 692.486 10.5164 692.126 Q10.8321 691.742 11.328 691.742 L19.1734 692.419 L15.386 687.301 Q14.5067 686.106 14.5293 685.678 Q14.5293 685.16 14.9351 684.799 Q15.3409 684.438 15.8143 684.438 Q16.6033 684.438 17.0993 685.498 L20.1428 691.923 L23.2088 685.408 Q23.6597 684.438 24.4487 684.438 Q24.8996 684.438 25.3279 684.821 Q25.7337 685.182 25.7337 685.678 Q25.7337 685.949 25.4632 686.422 Q25.4181 686.512 24.6967 687.482 Q23.9753 688.451 22.8706 689.961 Q21.7659 691.449 21.0671 692.419 Q28.687 691.72 28.9124 691.742 Q29.3633 691.742 29.724 692.081 Q30.0847 692.419 30.0847 692.982 Q30.0847 693.433 29.7691 693.817 Q29.4309 694.177 28.9124 694.177 L21.0671 693.501 L25.7337 699.949 Q25.7337 700.647 25.3955 701.031 Q25.0348 701.391 24.8319 701.436 Q24.629 701.482 24.4487 701.482 Z" fill="#000000" fill-rule="evenodd" fill-opacity="1" /><path clip-path="url(#clip310)" d="M99.2376 658.765 Q98.9155 658.765 98.1104 657.927 Q87.2892 647.3 66.9029 647.3 Q46.4522 647.3 36.1141 657.509 Q34.9225 658.765 34.5682 658.765 Q33.9241 658.765 33.9241 658.121 Q33.9241 657.67 35.2445 656.092 Q36.565 654.481 39.5923 652.066 Q42.6197 649.618 46.3234 647.815 Q55.3088 643.467 66.9029 643.467 Q78.0461 643.467 87.0316 647.622 Q90.7997 649.393 93.9558 651.873 Q97.112 654.353 98.4969 655.995 Q99.8817 657.638 99.8817 658.121 Q99.8817 658.765 99.2376 658.765 Z" fill="#000000" fill-rule="evenodd" fill-opacity="1" /><path clip-path="url(#clip312)" d="
M517.973 1341.24 L517.973 1372.62 L616.618 1372.62 L616.618 1341.24 L517.973 1341.24 L517.973 1341.24  Z
  " fill="#808080" fill-rule="evenodd" fill-opacity="0.5"/>
<polyline clip-path="url(#clip312)" style="stroke:#000000; stroke-linecap:butt; stroke-linejoin:round; stroke-width:4; stroke-opacity:0.5; fill:none" points="
  517.973,1341.24 517.973,1372.62 616.618,1372.62 616.618,1341.24 517.973,1341.24 
  "/>
<path clip-path="url(#clip312)" d="
M616.618 1309.85 L616.618 1372.62 L715.262 1372.62 L715.262 1309.85 L616.618 1309.85 L616.618 1309.85  Z
  " fill="#808080" fill-rule="evenodd" fill-opacity="0.5"/>
<polyline clip-path="url(#clip312)" style="stroke:#000000; stroke-linecap:butt; stroke-linejoin:round; stroke-width:4; stroke-opacity:0.5; fill:none" points="
  616.618,1309.85 616.618,1372.62 715.262,1372.62 715.262,1309.85 616.618,1309.85 
  "/>
<path clip-path="url(#clip312)" d="
M715.262 1221.97 L715.262 1372.62 L813.906 1372.62 L813.906 1221.97 L715.262 1221.97 L715.262 1221.97  Z
  " fill="#808080" fill-rule="evenodd" fill-opacity="0.5"/>
<polyline clip-path="url(#clip312)" style="stroke:#000000; stroke-linecap:butt; stroke-linejoin:round; stroke-width:4; stroke-opacity:0.5; fill:none" points="
  715.262,1221.97 715.262,1372.62 813.906,1372.62 813.906,1221.97 715.262,1221.97 
  "/>
<path clip-path="url(#clip312)" d="
M813.906 977.173 L813.906 1372.62 L912.55 1372.62 L912.55 977.173 L813.906 977.173 L813.906 977.173  Z
  " fill="#808080" fill-rule="evenodd" fill-opacity="0.5"/>
<polyline clip-path="url(#clip312)" style="stroke:#000000; stroke-linecap:butt; stroke-linejoin:round; stroke-width:4; stroke-opacity:0.5; fill:none" points="
  813.906,977.173 813.906,1372.62 912.55,1372.62 912.55,977.173 813.906,977.173 
  "/>
<path clip-path="url(#clip312)" d="
M912.55 675.88 L912.55 1372.62 L1011.19 1372.62 L1011.19 675.88 L912.55 675.88 L912.55 675.88  Z
  " fill="#808080" fill-rule="evenodd" fill-opacity="0.5"/>
<polyline clip-path="url(#clip312)" style="stroke:#000000; stroke-linecap:butt; stroke-linejoin:round; stroke-width:4; stroke-opacity:0.5; fill:none" points="
  912.55,675.88 912.55,1372.62 1011.19,1372.62 1011.19,675.88 912.55,675.88 
  "/>
<path clip-path="url(#clip312)" d="
M1011.19 387.14 L1011.19 1372.62 L1109.84 1372.62 L1109.84 387.14 L1011.19 387.14 L1011.19 387.14  Z
  " fill="#808080" fill-rule="evenodd" fill-opacity="0.5"/>
<polyline clip-path="url(#clip312)" style="stroke:#000000; stroke-linecap:butt; stroke-linejoin:round; stroke-width:4; stroke-opacity:0.5; fill:none" points="
  1011.19,387.14 1011.19,1372.62 1109.84,1372.62 1109.84,387.14 1011.19,387.14 
  "/>
<path clip-path="url(#clip312)" d="
M1109.84 85.8473 L1109.84 1372.62 L1208.48 1372.62 L1208.48 85.8473 L1109.84 85.8473 L1109.84 85.8473  Z
  " fill="#808080" fill-rule="evenodd" fill-opacity="0.5"/>
<polyline clip-path="url(#clip312)" style="stroke:#000000; stroke-linecap:butt; stroke-linejoin:round; stroke-width:4; stroke-opacity:0.5; fill:none" points="
  1109.84,85.8473 1109.84,1372.62 1208.48,1372.62 1208.48,85.8473 1109.84,85.8473 
  "/>
<path clip-path="url(#clip312)" d="
M1208.48 324.371 L1208.48 1372.62 L1307.13 1372.62 L1307.13 324.371 L1208.48 324.371 L1208.48 324.371  Z
  " fill="#808080" fill-rule="evenodd" fill-opacity="0.5"/>
<polyline clip-path="url(#clip312)" style="stroke:#000000; stroke-linecap:butt; stroke-linejoin:round; stroke-width:4; stroke-opacity:0.5; fill:none" points="
  1208.48,324.371 1208.48,1372.62 1307.13,1372.62 1307.13,324.371 1208.48,324.371 
  "/>
<path clip-path="url(#clip312)" d="
M1307.13 606.833 L1307.13 1372.62 L1405.77 1372.62 L1405.77 606.833 L1307.13 606.833 L1307.13 606.833  Z
  " fill="#808080" fill-rule="evenodd" fill-opacity="0.5"/>
<polyline clip-path="url(#clip312)" style="stroke:#000000; stroke-linecap:butt; stroke-linejoin:round; stroke-width:4; stroke-opacity:0.5; fill:none" points="
  1307.13,606.833 1307.13,1372.62 1405.77,1372.62 1405.77,606.833 1307.13,606.833 
  "/>
<path clip-path="url(#clip312)" d="
M1405.77 876.742 L1405.77 1372.62 L1504.42 1372.62 L1504.42 876.742 L1405.77 876.742 L1405.77 876.742  Z
  " fill="#808080" fill-rule="evenodd" fill-opacity="0.5"/>
<polyline clip-path="url(#clip312)" style="stroke:#000000; stroke-linecap:butt; stroke-linejoin:round; stroke-width:4; stroke-opacity:0.5; fill:none" points="
  1405.77,876.742 1405.77,1372.62 1504.42,1372.62 1504.42,876.742 1405.77,876.742 
  "/>
<path clip-path="url(#clip312)" d="
M1504.42 1140.37 L1504.42 1372.62 L1603.06 1372.62 L1603.06 1140.37 L1504.42 1140.37 L1504.42 1140.37  Z
  " fill="#808080" fill-rule="evenodd" fill-opacity="0.5"/>
<polyline clip-path="url(#clip312)" style="stroke:#000000; stroke-linecap:butt; stroke-linejoin:round; stroke-width:4; stroke-opacity:0.5; fill:none" points="
  1504.42,1140.37 1504.42,1372.62 1603.06,1372.62 1603.06,1140.37 1504.42,1140.37 
  "/>
<path clip-path="url(#clip312)" d="
M1603.06 1284.74 L1603.06 1372.62 L1701.7 1372.62 L1701.7 1284.74 L1603.06 1284.74 L1603.06 1284.74  Z
  " fill="#808080" fill-rule="evenodd" fill-opacity="0.5"/>
<polyline clip-path="url(#clip312)" style="stroke:#000000; stroke-linecap:butt; stroke-linejoin:round; stroke-width:4; stroke-opacity:0.5; fill:none" points="
  1603.06,1284.74 1603.06,1372.62 1701.7,1372.62 1701.7,1284.74 1603.06,1284.74 
  "/>
<path clip-path="url(#clip312)" d="
M1701.7 1347.51 L1701.7 1372.62 L1800.35 1372.62 L1800.35 1347.51 L1701.7 1347.51 L1701.7 1347.51  Z
  " fill="#808080" fill-rule="evenodd" fill-opacity="0.5"/>
<polyline clip-path="url(#clip312)" style="stroke:#000000; stroke-linecap:butt; stroke-linejoin:round; stroke-width:4; stroke-opacity:0.5; fill:none" points="
  1701.7,1347.51 1701.7,1372.62 1800.35,1372.62 1800.35,1347.51 1701.7,1347.51 
  "/>
<path clip-path="url(#clip312)" d="
M1800.35 1360.07 L1800.35 1372.62 L1898.99 1372.62 L1898.99 1360.07 L1800.35 1360.07 L1800.35 1360.07  Z
  " fill="#808080" fill-rule="evenodd" fill-opacity="0.5"/>
<polyline clip-path="url(#clip312)" style="stroke:#000000; stroke-linecap:butt; stroke-linejoin:round; stroke-width:4; stroke-opacity:0.5; fill:none" points="
  1800.35,1360.07 1800.35,1372.62 1898.99,1372.62 1898.99,1360.07 1800.35,1360.07 
  "/>
<circle clip-path="url(#clip312)" style="fill:#808080; stroke:none; fill-opacity:0" cx="567.295" cy="1341.24" r="2"/>
<circle clip-path="url(#clip312)" style="fill:#808080; stroke:none; fill-opacity:0" cx="665.94" cy="1309.85" r="2"/>
<circle clip-path="url(#clip312)" style="fill:#808080; stroke:none; fill-opacity:0" cx="764.584" cy="1221.97" r="2"/>
<circle clip-path="url(#clip312)" style="fill:#808080; stroke:none; fill-opacity:0" cx="863.228" cy="977.173" r="2"/>
<circle clip-path="url(#clip312)" style="fill:#808080; stroke:none; fill-opacity:0" cx="961.872" cy="675.88" r="2"/>
<circle clip-path="url(#clip312)" style="fill:#808080; stroke:none; fill-opacity:0" cx="1060.52" cy="387.14" r="2"/>
<circle clip-path="url(#clip312)" style="fill:#808080; stroke:none; fill-opacity:0" cx="1159.16" cy="85.8473" r="2"/>
<circle clip-path="url(#clip312)" style="fill:#808080; stroke:none; fill-opacity:0" cx="1257.8" cy="324.371" r="2"/>
<circle clip-path="url(#clip312)" style="fill:#808080; stroke:none; fill-opacity:0" cx="1356.45" cy="606.833" r="2"/>
<circle clip-path="url(#clip312)" style="fill:#808080; stroke:none; fill-opacity:0" cx="1455.09" cy="876.742" r="2"/>
<circle clip-path="url(#clip312)" style="fill:#808080; stroke:none; fill-opacity:0" cx="1553.74" cy="1140.37" r="2"/>
<circle clip-path="url(#clip312)" style="fill:#808080; stroke:none; fill-opacity:0" cx="1652.38" cy="1284.74" r="2"/>
<circle clip-path="url(#clip312)" style="fill:#808080; stroke:none; fill-opacity:0" cx="1751.03" cy="1347.51" r="2"/>
<circle clip-path="url(#clip312)" style="fill:#808080; stroke:none; fill-opacity:0" cx="1849.67" cy="1360.07" r="2"/>
<polyline clip-path="url(#clip312)" style="stroke:#000000; stroke-linecap:butt; stroke-linejoin:round; stroke-width:8; stroke-opacity:1; fill:none" points="
  320.685,1372.52 325.617,1372.51 330.549,1372.49 335.481,1372.48 340.414,1372.46 345.346,1372.45 350.278,1372.43 355.21,1372.41 360.143,1372.38 365.075,1372.36 
  370.007,1372.33 374.939,1372.3 379.871,1372.26 384.804,1372.22 389.736,1372.18 394.668,1372.14 399.6,1372.09 404.532,1372.03 409.465,1371.97 414.397,1371.91 
  419.329,1371.83 424.261,1371.75 429.193,1371.67 434.126,1371.57 439.058,1371.47 443.99,1371.36 448.922,1371.24 453.855,1371.1 458.787,1370.96 463.719,1370.8 
  468.651,1370.63 473.583,1370.44 478.516,1370.24 483.448,1370.02 488.38,1369.78 493.312,1369.53 498.244,1369.25 503.177,1368.95 508.109,1368.62 513.041,1368.27 
  517.973,1367.89 522.906,1367.48 527.838,1367.03 532.77,1366.56 537.702,1366.04 542.634,1365.49 547.567,1364.9 552.499,1364.26 557.431,1363.57 562.363,1362.83 
  567.295,1362.05 572.228,1361.2 577.16,1360.29 582.092,1359.32 587.024,1358.29 591.956,1357.18 596.889,1356 601.821,1354.74 606.753,1353.39 611.685,1351.96 
  616.618,1350.43 621.55,1348.8 626.482,1347.07 631.414,1345.24 636.346,1343.29 641.279,1341.22 646.211,1339.02 651.143,1336.7 656.075,1334.23 661.007,1331.63 
  665.94,1328.87 670.872,1325.96 675.804,1322.88 680.736,1319.64 685.668,1316.22 690.601,1312.61 695.533,1308.82 700.465,1304.83 705.397,1300.63 710.33,1296.22 
  715.262,1291.6 720.194,1286.74 725.126,1281.65 730.058,1276.32 734.991,1270.74 739.923,1264.91 744.855,1258.81 749.787,1252.45 754.719,1245.8 759.652,1238.87 
  764.584,1231.66 769.516,1224.14 774.448,1216.32 779.38,1208.2 784.313,1199.76 789.245,1191 794.177,1181.91 799.109,1172.5 804.042,1162.75 808.974,1152.66 
  813.906,1142.24 818.838,1131.47 823.77,1120.35 828.703,1108.89 833.635,1097.07 838.567,1084.91 843.499,1072.4 848.431,1059.55 853.364,1046.34 858.296,1032.79 
  863.228,1018.9 868.16,1004.67 873.093,990.111 878.025,975.222 882.957,960.011 887.889,944.485 892.821,928.652 897.754,912.522 902.686,896.104 907.618,879.408 
  912.55,862.446 917.482,845.231 922.415,827.775 927.347,810.093 932.279,792.2 937.211,774.112 942.143,755.846 947.076,737.42 952.008,718.852 956.94,700.162 
  961.872,681.37 966.805,662.496 971.737,643.563 976.669,624.593 981.601,605.608 986.533,586.634 991.466,567.693 996.398,548.81 1001.33,530.012 1006.26,511.323 
  1011.19,492.769 1016.13,474.378 1021.06,456.175 1025.99,438.187 1030.92,420.442 1035.86,402.966 1040.79,385.786 1045.72,368.929 1050.65,352.422 1055.58,336.291 
  1060.52,320.563 1065.45,305.264 1070.38,290.419 1075.31,276.053 1080.25,262.191 1085.18,248.855 1090.11,236.071 1095.04,223.859 1099.97,212.241 1104.91,201.238 
  1109.84,190.869 1114.77,181.154 1119.7,172.11 1124.64,163.752 1129.57,156.097 1134.5,149.158 1139.43,142.949 1144.36,137.48 1149.3,132.762 1154.23,128.804 
  1159.16,125.612 1164.09,123.194 1169.03,121.553 1173.96,120.692 1178.89,120.614 1183.82,121.318 1188.75,122.803 1193.69,125.067 1198.62,128.104 1203.55,131.909 
  1208.48,136.476 1213.42,141.795 1218.35,147.858 1223.28,154.651 1228.21,162.164 1233.14,170.383 1238.08,179.291 1243.01,188.874 1247.94,199.113 1252.87,209.99 
  1257.8,221.487 1262.74,233.582 1267.67,246.254 1272.6,259.481 1277.53,273.239 1282.47,287.507 1287.4,302.258 1292.33,317.469 1297.26,333.113 1302.19,349.165 
  1307.13,365.599 1312.06,382.388 1316.99,399.505 1321.92,416.924 1326.86,434.618 1331.79,452.559 1336.72,470.721 1341.65,489.077 1346.58,507.601 1351.52,526.264 
  1356.45,545.043 1361.38,563.911 1366.31,582.842 1371.25,601.812 1376.18,620.796 1381.11,639.771 1386.04,658.714 1390.97,677.601 1395.91,696.411 1400.84,715.124 
  1405.77,733.717 1410.7,752.174 1415.64,770.473 1420.57,788.598 1425.5,806.531 1430.43,824.256 1435.36,841.758 1440.3,859.023 1445.23,876.036 1450.16,892.786 
  1455.09,909.261 1460.03,925.45 1464.96,941.343 1469.89,956.93 1474.82,972.205 1479.75,987.159 1484.69,1001.79 1489.62,1016.08 1494.55,1030.04 1499.48,1043.66 
  1504.42,1056.93 1509.35,1069.86 1514.28,1082.44 1519.21,1094.67 1524.14,1106.55 1529.08,1118.08 1534.01,1129.27 1538.94,1140.11 1543.87,1150.6 1548.81,1160.76 
  1553.74,1170.57 1558.67,1180.05 1563.6,1189.21 1568.53,1198.03 1573.47,1206.53 1578.4,1214.72 1583.33,1222.6 1588.26,1230.18 1593.2,1237.45 1598.13,1244.44 
  1603.06,1251.14 1607.99,1257.56 1612.92,1263.71 1617.86,1269.6 1622.79,1275.23 1627.72,1280.61 1632.65,1285.74 1637.59,1290.64 1642.52,1295.32 1647.45,1299.77 
  1652.38,1304.01 1657.31,1308.04 1662.25,1311.87 1667.18,1315.51 1672.11,1318.97 1677.04,1322.25 1681.98,1325.36 1686.91,1328.3 1691.84,1331.09 1696.77,1333.72 
  1701.7,1336.21 1706.64,1338.57 1711.57,1340.79 1716.5,1342.88 1721.43,1344.86 1726.37,1346.72 1731.3,1348.47 1736.23,1350.11 1741.16,1351.66 1746.09,1353.11 
  1751.03,1354.47 1755.96,1355.75 1760.89,1356.95 1765.82,1358.07 1770.75,1359.12 1775.69,1360.11 1780.62,1361.02 1785.55,1361.88 1790.48,1362.68 1795.42,1363.43 
  1800.35,1364.12 1805.28,1364.77 1810.21,1365.37 1815.14,1365.93 1820.08,1366.46 1825.01,1366.94 1829.94,1367.39 1834.87,1367.81 1839.81,1368.19 1844.74,1368.55 
  1849.67,1368.88 1854.6,1369.19 1859.53,1369.47 1864.47,1369.73 1869.4,1369.98 1874.33,1370.2 1879.26,1370.4 1884.2,1370.59 1889.13,1370.77 1894.06,1370.93 
  1898.99,1371.08 1903.92,1371.21 1908.86,1371.34 1913.79,1371.45 1918.72,1371.55 1923.65,1371.65 1928.59,1371.74 1933.52,1371.82 1938.45,1371.89 1943.38,1371.96 
  1948.31,1372.02 1953.25,1372.08 1958.18,1372.13 1963.11,1372.17 1968.04,1372.22 1972.98,1372.26 1977.91,1372.29 1982.84,1372.32 1987.77,1372.35 1992.7,1372.38 
  1997.64,1372.4 2002.57,1372.42 2007.5,1372.44 2012.43,1372.46 2017.37,1372.48 2022.3,1372.49 2027.23,1372.5 2032.16,1372.52 2037.09,1372.53 2042.03,1372.54 
  2046.96,1372.55 2051.89,1372.55 2056.82,1372.56 2061.76,1372.57 2066.69,1372.57 2071.62,1372.58 2076.55,1372.58 2081.48,1372.59 2086.42,1372.59 2091.35,1372.59 
  2096.28,1372.6 2101.21,1372.6 2106.15,1372.6 2111.08,1372.6 2116.01,1372.61 2120.94,1372.61 2125.87,1372.61 2130.81,1372.61 2135.74,1372.61 2140.67,1372.61 
  2145.6,1372.61 2150.54,1372.61 2155.47,1372.61 2160.4,1372.62 2165.33,1372.62 2170.26,1372.62 2175.2,1372.62 2180.13,1372.62 2185.06,1372.62 2189.99,1372.62 
  2194.93,1372.62 2199.86,1372.62 2204.79,1372.62 2209.72,1372.62 2214.65,1372.62 2219.59,1372.62 2224.52,1372.62 2229.45,1372.62 2234.38,1372.62 2239.32,1372.62 
  2244.25,1372.62 2249.18,1372.62 2254.11,1372.62 2259.04,1372.62 2263.98,1372.62 2268.91,1372.62 2273.84,1372.62 2278.77,1372.62 2283.7,1372.62 2288.64,1372.62 
  2293.57,1372.62 
  "/>
<path clip-path="url(#clip310)" d="
M1911.73 196.39 L2283.05 196.39 L2283.05 92.7101 L1911.73 92.7101  Z
  " fill="#ffffff" fill-rule="evenodd" fill-opacity="1"/>
<polyline clip-path="url(#clip310)" style="stroke:#000000; stroke-linecap:butt; stroke-linejoin:round; stroke-width:4; stroke-opacity:1; fill:none" points="
  1911.73,196.39 2283.05,196.39 2283.05,92.7101 1911.73,92.7101 1911.73,196.39 
  "/>
<polyline clip-path="url(#clip310)" style="stroke:#000000; stroke-linecap:butt; stroke-linejoin:round; stroke-width:4; stroke-opacity:1; fill:none" points="
  1934.96,144.55 2074.38,144.55 
  "/>
<path clip-path="url(#clip310)" d="M2118.13 136.9 L2118.13 140.881 Q2116.32 139.886 2114.49 139.4 Q2112.69 138.89 2110.83 138.89 Q2106.69 138.89 2104.4 141.529 Q2102.11 144.145 2102.11 148.89 Q2102.11 153.636 2104.4 156.275 Q2106.69 158.89 2110.83 158.89 Q2112.69 158.89 2114.49 158.404 Q2116.32 157.895 2118.13 156.9 L2118.13 160.835 Q2116.34 161.668 2114.42 162.085 Q2112.52 162.501 2110.37 162.501 Q2104.52 162.501 2101.07 158.821 Q2097.62 155.14 2097.62 148.89 Q2097.62 142.548 2101.09 138.914 Q2104.58 135.279 2110.65 135.279 Q2112.62 135.279 2114.49 135.696 Q2116.37 136.089 2118.13 136.9 Z" fill="#000000" fill-rule="evenodd" fill-opacity="1" /><path clip-path="url(#clip310)" d="M2137.32 148.798 Q2132.15 148.798 2130.16 149.978 Q2128.17 151.159 2128.17 154.006 Q2128.17 156.275 2129.65 157.617 Q2131.16 158.937 2133.73 158.937 Q2137.27 158.937 2139.4 156.437 Q2141.55 153.913 2141.55 149.747 L2141.55 148.798 L2137.32 148.798 M2145.81 147.038 L2145.81 161.83 L2141.55 161.83 L2141.55 157.895 Q2140.09 160.256 2137.92 161.39 Q2135.74 162.501 2132.59 162.501 Q2128.61 162.501 2126.25 160.279 Q2123.91 158.034 2123.91 154.284 Q2123.91 149.909 2126.83 147.687 Q2129.77 145.464 2135.58 145.464 L2141.55 145.464 L2141.55 145.048 Q2141.55 142.108 2139.61 140.511 Q2137.69 138.89 2134.19 138.89 Q2131.97 138.89 2129.86 139.423 Q2127.76 139.955 2125.81 141.02 L2125.81 137.085 Q2128.15 136.182 2130.35 135.742 Q2132.55 135.279 2134.63 135.279 Q2140.26 135.279 2143.03 138.196 Q2145.81 141.113 2145.81 147.038 Z" fill="#000000" fill-rule="evenodd" fill-opacity="1" /><path clip-path="url(#clip310)" d="M2151.53 135.904 L2156.04 135.904 L2164.14 157.663 L2172.25 135.904 L2176.76 135.904 L2167.04 161.83 L2161.25 161.83 L2151.53 135.904 Z" fill="#000000" fill-rule="evenodd" fill-opacity="1" /><path clip-path="url(#clip310)" d="M2182.64 135.904 L2186.9 135.904 L2186.9 161.83 L2182.64 161.83 L2182.64 135.904 M2182.64 125.812 L2186.9 125.812 L2186.9 131.205 L2182.64 131.205 L2182.64 125.812 Z" fill="#000000" fill-rule="evenodd" fill-opacity="1" /><path clip-path="url(#clip310)" d="M2200.02 128.543 L2200.02 135.904 L2208.8 135.904 L2208.8 139.214 L2200.02 139.214 L2200.02 153.288 Q2200.02 156.46 2200.88 157.363 Q2201.76 158.265 2204.42 158.265 L2208.8 158.265 L2208.8 161.83 L2204.42 161.83 Q2199.49 161.83 2197.62 160.001 Q2195.74 158.15 2195.74 153.288 L2195.74 139.214 L2192.62 139.214 L2192.62 135.904 L2195.74 135.904 L2195.74 128.543 L2200.02 128.543 Z" fill="#000000" fill-rule="evenodd" fill-opacity="1" /><path clip-path="url(#clip310)" d="M2225.19 164.237 Q2223.38 168.867 2221.67 170.279 Q2219.95 171.691 2217.08 171.691 L2213.68 171.691 L2213.68 168.126 L2216.18 168.126 Q2217.94 168.126 2218.91 167.293 Q2219.89 166.46 2221.07 163.358 L2221.83 161.413 L2211.34 135.904 L2215.86 135.904 L2223.96 156.182 L2232.06 135.904 L2236.57 135.904 L2225.19 164.237 Z" fill="#000000" fill-rule="evenodd" fill-opacity="1" /></svg>
