<?xml version="1.0" encoding="utf-8"?>
<svg xmlns="http://www.w3.org/2000/svg" xmlns:xlink="http://www.w3.org/1999/xlink" width="600" height="400" viewBox="0 0 2400 1600">
<defs>
  <clipPath id="clip250">
    <rect x="0" y="0" width="2400" height="1600"/>
  </clipPath>
</defs>
<path clip-path="url(#clip250)" d="
M0 1600 L2400 1600 L2400 0 L0 0  Z
  " fill="#ffffff" fill-rule="evenodd" fill-opacity="1"/>
<defs>
  <clipPath id="clip251">
    <rect x="480" y="0" width="1681" height="1600"/>
  </clipPath>
</defs>
<defs>
  <clipPath id="clip252">
    <rect x="261" y="47" width="2092" height="1365"/>
  </clipPath>
</defs>
<path clip-path="url(#clip250)" d="
M261.498 1411.22 L2352.76 1411.22 L2352.76 47.2441 L261.498 47.2441  Z
  " fill="#ffffff" fill-rule="evenodd" fill-opacity="1"/>
<polyline clip-path="url(#clip250)" style="stroke:#000000; stroke-linecap:butt; stroke-linejoin:round; stroke-width:4; stroke-opacity:1; fill:none" points="
  261.498,1411.22 2352.76,1411.22 
  "/>
<polyline clip-path="url(#clip250)" style="stroke:#000000; stroke-linecap:butt; stroke-linejoin:round; stroke-width:4; stroke-opacity:1; fill:none" points="
  320.685,1411.22 320.685,1392.33 
  "/>
<polyline clip-path="url(#clip250)" style="stroke:#000000; stroke-linecap:butt; stroke-linejoin:round; stroke-width:4; stroke-opacity:1; fill:none" points="
  813.906,1411.22 813.906,1392.33 
  "/>
<polyline clip-path="url(#clip250)" style="stroke:#000000; stroke-linecap:butt; stroke-linejoin:round; stroke-width:4; stroke-opacity:1; fill:none" points="
  1307.13,1411.22 1307.13,1392.33 
  "/>
<polyline clip-path="url(#clip250)" style="stroke:#000000; stroke-linecap:butt; stroke-linejoin:round; stroke-width:4; stroke-opacity:1; fill:none" points="
  1800.35,1411.22 1800.35,1392.33 
  "/>
<polyline clip-path="url(#clip250)" style="stroke:#000000; stroke-linecap:butt; stroke-linejoin:round; stroke-width:4; stroke-opacity:1; fill:none" points="
  2293.57,1411.22 2293.57,1392.33 
  "/>
<path clip-path="url(#clip250)" d="M290.442 1456.79 L320.118 1456.79 L320.118 1460.73 L290.442 1460.73 L290.442 1456.79 Z" fill="#000000" fill-rule="evenodd" fill-opacity="1" /><path clip-path="url(#clip250)" d="M331.02 1469.69 L338.659 1469.69 L338.659 1443.32 L330.349 1444.99 L330.349 1440.73 L338.613 1439.06 L343.289 1439.06 L343.289 1469.69 L350.928 1469.69 L350.928 1473.62 L331.02 1473.62 L331.02 1469.69 Z" fill="#000000" fill-rule="evenodd" fill-opacity="1" /><path clip-path="url(#clip250)" d="M813.906 1442.14 Q810.295 1442.14 808.466 1445.71 Q806.661 1449.25 806.661 1456.38 Q806.661 1463.48 808.466 1467.05 Q810.295 1470.59 813.906 1470.59 Q817.54 1470.59 819.346 1467.05 Q821.174 1463.48 821.174 1456.38 Q821.174 1449.25 819.346 1445.71 Q817.54 1442.14 813.906 1442.14 M813.906 1438.44 Q819.716 1438.44 822.772 1443.05 Q825.85 1447.63 825.85 1456.38 Q825.85 1465.11 822.772 1469.71 Q819.716 1474.29 813.906 1474.29 Q808.096 1474.29 805.017 1469.71 Q801.962 1465.11 801.962 1456.38 Q801.962 1447.63 805.017 1443.05 Q808.096 1438.44 813.906 1438.44 Z" fill="#000000" fill-rule="evenodd" fill-opacity="1" /><path clip-path="url(#clip250)" d="M1297.51 1469.69 L1305.15 1469.69 L1305.15 1443.32 L1296.84 1444.99 L1296.84 1440.73 L1305.1 1439.06 L1309.78 1439.06 L1309.78 1469.69 L1317.42 1469.69 L1317.42 1473.62 L1297.51 1473.62 L1297.51 1469.69 Z" fill="#000000" fill-rule="evenodd" fill-opacity="1" /><path clip-path="url(#clip250)" d="M1795 1469.69 L1811.32 1469.69 L1811.32 1473.62 L1789.38 1473.62 L1789.38 1469.69 Q1792.04 1466.93 1796.62 1462.3 Q1801.23 1457.65 1802.41 1456.31 Q1804.65 1453.79 1805.53 1452.05 Q1806.44 1450.29 1806.44 1448.6 Q1806.44 1445.85 1804.49 1444.11 Q1802.57 1442.37 1799.47 1442.37 Q1797.27 1442.37 1794.82 1443.14 Q1792.39 1443.9 1789.61 1445.45 L1789.61 1440.73 Q1792.43 1439.6 1794.89 1439.02 Q1797.34 1438.44 1799.38 1438.44 Q1804.75 1438.44 1807.94 1441.12 Q1811.14 1443.81 1811.14 1448.3 Q1811.14 1450.43 1810.33 1452.35 Q1809.54 1454.25 1807.43 1456.84 Q1806.85 1457.51 1803.75 1460.73 Q1800.65 1463.92 1795 1469.69 Z" fill="#000000" fill-rule="evenodd" fill-opacity="1" /><path clip-path="url(#clip250)" d="M2297.82 1454.99 Q2301.17 1455.71 2303.05 1457.98 Q2304.95 1460.24 2304.95 1463.58 Q2304.95 1468.69 2301.43 1471.49 Q2297.91 1474.29 2291.43 1474.29 Q2289.25 1474.29 2286.94 1473.86 Q2284.65 1473.44 2282.19 1472.58 L2282.19 1468.07 Q2284.14 1469.2 2286.45 1469.78 Q2288.77 1470.36 2291.29 1470.36 Q2295.69 1470.36 2297.98 1468.62 Q2300.29 1466.89 2300.29 1463.58 Q2300.29 1460.52 2298.14 1458.81 Q2296.01 1457.07 2292.19 1457.07 L2288.16 1457.07 L2288.16 1453.23 L2292.38 1453.23 Q2295.83 1453.23 2297.65 1451.86 Q2299.48 1450.48 2299.48 1447.88 Q2299.48 1445.22 2297.59 1443.81 Q2295.71 1442.37 2292.19 1442.37 Q2290.27 1442.37 2288.07 1442.79 Q2285.87 1443.21 2283.23 1444.09 L2283.23 1439.92 Q2285.9 1439.18 2288.21 1438.81 Q2290.55 1438.44 2292.61 1438.44 Q2297.93 1438.44 2301.03 1440.87 Q2304.14 1443.28 2304.14 1447.4 Q2304.14 1450.27 2302.49 1452.26 Q2300.85 1454.23 2297.82 1454.99 Z" fill="#000000" fill-rule="evenodd" fill-opacity="1" /><path clip-path="url(#clip250)" d="M1146.58 1562.84 Q1146.58 1567.48 1144.23 1572.02 Q1141.91 1576.53 1138.17 1579.36 Q1134.47 1582.19 1130.67 1582.19 Q1126.97 1582.19 1124.61 1579.36 Q1122.3 1576.49 1122.3 1571.82 Q1122.3 1570.18 1122.49 1569.02 Q1122.68 1567.86 1123.36 1565.16 L1128.77 1543.64 Q1129.7 1539.62 1129.7 1539.59 Q1129.7 1539.2 1129.54 1539.01 Q1129.41 1538.78 1128.64 1538.62 Q1127.87 1538.46 1126.39 1538.46 Q1125.77 1538.46 1125.48 1538.43 Q1125.23 1538.39 1125 1538.23 Q1124.81 1538.04 1124.81 1537.65 Q1124.81 1537.11 1125.03 1536.82 Q1125.29 1536.49 1125.48 1536.43 Q1125.68 1536.37 1126.06 1536.33 Q1126.61 1536.3 1128.45 1536.14 Q1130.28 1535.95 1131.86 1535.82 Q1133.44 1535.69 1134.11 1535.69 Q1134.5 1535.69 1134.69 1535.88 Q1134.92 1536.04 1134.92 1536.24 L1134.95 1536.4 L1130.09 1556.27 Q1133.92 1552.31 1137.82 1552.31 Q1141.72 1552.31 1144.13 1555.3 Q1146.58 1558.3 1146.58 1562.84 M1141.81 1559.94 Q1141.81 1556.88 1140.65 1555.33 Q1139.53 1553.76 1137.66 1553.76 Q1136.08 1553.76 1134.02 1554.95 Q1131.96 1556.14 1129.77 1559.04 Q1129.35 1559.59 1129.19 1559.91 Q1129.06 1560.23 1128.77 1561.33 L1127.32 1567.41 Q1126.26 1571.57 1126.26 1574.08 Q1126.26 1577.49 1127.51 1579.1 Q1128.77 1580.71 1130.67 1580.71 Q1132.67 1580.71 1134.76 1578.94 Q1136.85 1577.17 1138.46 1573.95 Q1139.46 1571.82 1140.62 1567.25 Q1141.81 1562.65 1141.81 1559.94 Z" fill="#000000" fill-rule="evenodd" fill-opacity="1" /><path clip-path="url(#clip250)" d="M1166.19 1522.51 Q1166.19 1521.72 1167.25 1521.2 L1173.68 1518.16 L1167.16 1515.12 Q1166.19 1514.66 1166.19 1513.88 Q1166.19 1513.42 1166.55 1513.02 Q1166.94 1512.59 1167.43 1512.59 Q1167.79 1512.59 1168.45 1513.09 L1174.17 1517.23 Q1173.48 1509.62 1173.5 1509.39 Q1173.5 1508.94 1173.84 1508.6 Q1174.17 1508.24 1174.74 1508.24 Q1175.19 1508.24 1175.55 1508.58 Q1175.93 1508.89 1175.93 1509.39 L1175.26 1517.23 L1180.37 1513.45 Q1181.57 1512.57 1182 1512.59 Q1182.52 1512.59 1182.88 1513 Q1183.24 1513.4 1183.24 1513.88 Q1183.24 1514.66 1182.18 1515.16 L1175.75 1518.2 L1182.27 1521.27 Q1183.24 1521.72 1183.24 1522.51 Q1183.24 1522.96 1182.85 1523.39 Q1182.49 1523.8 1182 1523.8 Q1181.73 1523.8 1181.25 1523.52 Q1181.16 1523.48 1180.19 1522.76 Q1179.22 1522.04 1177.71 1520.93 Q1176.23 1519.83 1175.26 1519.13 Q1175.96 1526.75 1175.93 1526.97 Q1175.93 1527.42 1175.59 1527.79 Q1175.26 1528.15 1174.69 1528.15 Q1174.24 1528.15 1173.86 1527.83 Q1173.5 1527.49 1173.5 1526.97 L1174.17 1519.13 L1167.73 1523.8 Q1167.03 1523.8 1166.64 1523.46 Q1166.28 1523.1 1166.24 1522.89 Q1166.19 1522.69 1166.19 1522.51 Z" fill="#000000" fill-rule="evenodd" fill-opacity="1" /><path clip-path="url(#clip250)" d="M1208.91 1564.96 Q1208.91 1553.82 1213.07 1544.84 Q1214.84 1541.07 1217.32 1537.91 Q1219.8 1534.76 1221.44 1533.37 Q1223.08 1531.99 1223.53 1531.99 Q1224.18 1531.99 1224.21 1532.63 Q1224.21 1532.95 1223.34 1533.76 Q1212.71 1544.58 1212.74 1564.96 Q1212.74 1585.42 1223.08 1595.82 Q1224.21 1596.94 1224.21 1597.3 Q1224.21 1597.94 1223.53 1597.94 Q1223.08 1597.94 1221.5 1596.62 Q1219.92 1595.3 1217.48 1592.28 Q1215.03 1589.25 1213.26 1585.54 Q1208.91 1576.56 1208.91 1564.96 Z" fill="#000000" fill-rule="evenodd" fill-opacity="1" /><path clip-path="url(#clip250)" d="M1230.54 1581.45 L1230.54 1579.42 Q1234.05 1579.42 1234.86 1579.01 Q1235.66 1578.56 1235.66 1576.43 L1235.66 1542.13 Q1235.66 1539.68 1234.79 1539.07 Q1233.96 1538.46 1230.54 1538.46 L1230.54 1536.4 L1240.01 1535.69 L1240.01 1576.43 Q1240.01 1578.56 1240.85 1579.01 Q1241.69 1579.42 1245.16 1579.42 L1245.16 1581.45 Q1244.36 1581.45 1242.68 1581.39 Q1241.01 1581.33 1239.79 1581.29 Q1238.56 1581.26 1237.85 1581.26 Q1237.08 1581.26 1230.54 1581.45 Z" fill="#000000" fill-rule="evenodd" fill-opacity="1" /><path clip-path="url(#clip250)" d="M1255.09 1577.91 Q1250.74 1573.6 1250.74 1567.35 Q1250.74 1561.07 1254.99 1556.49 Q1259.27 1551.89 1265.39 1551.89 Q1271.38 1551.89 1275.67 1556.46 Q1279.98 1561 1279.98 1567.35 Q1279.98 1573.56 1275.64 1577.88 Q1271.32 1582.19 1265.33 1582.19 Q1259.47 1582.19 1255.09 1577.91 M1256.22 1566.8 Q1256.22 1573.21 1257.89 1576.11 Q1260.47 1580.52 1265.39 1580.52 Q1267.84 1580.52 1269.87 1579.2 Q1271.93 1577.88 1273.06 1575.66 Q1274.51 1572.76 1274.51 1566.8 Q1274.51 1560.46 1272.77 1557.65 Q1270.19 1553.37 1265.33 1553.37 Q1263.2 1553.37 1261.11 1554.5 Q1259.05 1555.59 1257.79 1557.78 Q1256.22 1560.68 1256.22 1566.8 Z" fill="#000000" fill-rule="evenodd" fill-opacity="1" /><path clip-path="url(#clip250)" d="M1281.03 1586.67 Q1281.03 1584.55 1282.64 1582.71 Q1284.28 1580.87 1287.12 1580.07 Q1284.22 1578.23 1284.22 1574.21 Q1284.22 1571.12 1286.25 1568.73 Q1283.15 1566.16 1283.15 1561.94 Q1283.15 1558.04 1286.25 1555.17 Q1289.34 1552.31 1293.85 1552.31 Q1297.81 1552.31 1300.84 1554.69 Q1303.99 1551.6 1307.82 1551.57 Q1309.53 1551.57 1310.34 1552.63 Q1311.17 1553.69 1311.17 1554.82 Q1311.17 1555.82 1310.53 1556.3 Q1309.92 1556.78 1309.27 1556.78 Q1308.47 1556.78 1307.89 1556.27 Q1307.34 1555.72 1307.34 1554.88 Q1307.34 1553.5 1308.4 1553.08 Q1308.21 1553.02 1307.76 1553.02 Q1304.54 1553.02 1301.8 1555.59 Q1304.51 1558.1 1304.51 1562 Q1304.51 1565.9 1301.41 1568.76 Q1298.32 1571.63 1293.85 1571.63 Q1290.14 1571.63 1287.31 1569.57 Q1286.18 1570.89 1286.18 1572.69 Q1286.18 1574.34 1287.18 1575.62 Q1288.18 1576.91 1289.69 1577.11 Q1290.14 1577.17 1294.62 1577.17 Q1297.26 1577.17 1298.71 1577.23 Q1300.16 1577.3 1302.22 1577.75 Q1304.31 1578.17 1305.96 1579.01 Q1310.24 1581.39 1310.27 1586.54 Q1310.27 1590.31 1305.92 1592.66 Q1301.61 1595.04 1295.62 1595.04 Q1289.56 1595.04 1285.28 1592.63 Q1281.03 1590.25 1281.03 1586.67 M1284.47 1586.67 Q1284.47 1589.38 1287.66 1591.44 Q1290.85 1593.53 1295.68 1593.53 Q1300.42 1593.53 1303.6 1591.47 Q1306.83 1589.44 1306.83 1586.67 Q1306.83 1584.71 1305.7 1583.45 Q1304.57 1582.19 1302.25 1581.68 Q1299.97 1581.2 1298.36 1581.1 Q1296.74 1581 1293.78 1581 L1289.89 1581 Q1287.63 1581.13 1286.05 1582.77 Q1284.47 1584.42 1284.47 1586.67 M1288.08 1562 Q1288.08 1570.12 1293.85 1570.12 Q1296.74 1570.12 1298.52 1567.48 Q1299.58 1565.71 1299.58 1561.94 Q1299.58 1553.82 1293.85 1553.82 Q1290.95 1553.82 1289.14 1556.46 Q1288.08 1558.23 1288.08 1562 Z" fill="#000000" fill-rule="evenodd" fill-opacity="1" /><path clip-path="url(#clip250)" d="M1331.12 1580.58 L1331.12 1571.89 Q1331.12 1571.15 1331.16 1570.89 Q1331.19 1570.63 1331.38 1570.44 Q1331.57 1570.25 1331.96 1570.25 Q1332.41 1570.25 1332.57 1570.44 Q1332.77 1570.63 1332.89 1571.37 Q1333.89 1575.91 1336.02 1578.33 Q1338.18 1580.71 1342.07 1580.71 Q1345.78 1580.71 1347.65 1579.07 Q1349.51 1577.43 1349.51 1574.72 Q1349.51 1569.89 1342.65 1568.67 Q1338.69 1567.86 1337.05 1567.35 Q1335.41 1566.8 1333.96 1565.61 Q1331.12 1563.29 1331.12 1560 Q1331.12 1556.72 1333.6 1554.3 Q1336.12 1551.89 1341.65 1551.89 Q1345.36 1551.89 1347.87 1553.76 Q1348.61 1553.18 1349 1552.69 Q1349.87 1551.89 1350.32 1551.89 Q1350.83 1551.89 1350.93 1552.24 Q1351.03 1552.57 1351.03 1553.5 L1351.03 1560.13 Q1351.03 1560.87 1350.99 1561.13 Q1350.96 1561.39 1350.77 1561.58 Q1350.58 1561.74 1350.16 1561.74 Q1349.42 1561.74 1349.38 1561.13 Q1348.87 1553.14 1341.65 1553.14 Q1337.76 1553.14 1336.02 1554.66 Q1334.28 1556.14 1334.28 1558.17 Q1334.28 1559.3 1334.79 1560.17 Q1335.34 1561 1336.02 1561.52 Q1336.73 1562 1338.02 1562.48 Q1339.3 1562.94 1340.08 1563.1 Q1340.88 1563.26 1342.4 1563.58 Q1347.68 1564.58 1349.9 1566.74 Q1352.67 1569.51 1352.67 1573.02 Q1352.67 1576.91 1350.03 1579.55 Q1347.39 1582.19 1342.07 1582.19 Q1337.79 1582.19 1334.79 1579.33 Q1334.41 1579.71 1334.12 1580.07 Q1333.83 1580.39 1333.7 1580.52 Q1333.6 1580.65 1333.57 1580.75 Q1333.54 1580.81 1333.47 1580.87 Q1332.15 1582.19 1331.83 1582.19 Q1331.32 1582.19 1331.22 1581.84 Q1331.12 1581.52 1331.12 1580.58 Z" fill="#000000" fill-rule="evenodd" fill-opacity="1" /><path clip-path="url(#clip250)" d="M1360.76 1577.85 Q1356.57 1573.47 1356.57 1567.22 Q1356.57 1560.94 1360.69 1556.43 Q1364.81 1551.89 1370.87 1551.89 Q1374.89 1551.89 1377.92 1553.82 Q1380.95 1555.72 1380.95 1558.97 Q1380.95 1560.42 1380.08 1561.26 Q1379.24 1562.07 1377.92 1562.07 Q1376.54 1562.07 1375.7 1561.23 Q1374.89 1560.36 1374.89 1559.04 Q1374.89 1558.46 1375.09 1557.88 Q1375.28 1557.3 1375.99 1556.69 Q1376.73 1556.08 1377.99 1555.98 Q1375.64 1553.56 1371.06 1553.56 Q1371 1553.56 1370.93 1553.56 Q1367.58 1553.56 1364.81 1556.72 Q1362.04 1559.88 1362.04 1567.09 Q1362.04 1570.86 1362.95 1573.63 Q1363.88 1576.37 1365.39 1577.78 Q1366.91 1579.2 1368.39 1579.88 Q1369.87 1580.52 1371.32 1580.52 Q1377.79 1580.52 1379.98 1573.6 Q1380.18 1572.95 1380.82 1572.95 Q1381.69 1572.95 1381.69 1573.6 Q1381.69 1573.92 1381.43 1574.76 Q1381.17 1575.59 1380.37 1576.91 Q1379.56 1578.23 1378.41 1579.39 Q1377.28 1580.52 1375.25 1581.36 Q1373.25 1582.19 1370.74 1582.19 Q1364.94 1582.19 1360.76 1577.85 Z" fill="#000000" fill-rule="evenodd" fill-opacity="1" /><path clip-path="url(#clip250)" d="M1385.04 1575.17 Q1385.04 1569.57 1391.64 1566.61 Q1395.6 1564.71 1403.78 1564.22 L1403.78 1561.81 Q1403.78 1557.72 1401.62 1555.56 Q1399.5 1553.37 1396.79 1553.37 Q1391.96 1553.37 1389.64 1556.4 Q1391.61 1556.46 1392.32 1557.46 Q1393.02 1558.43 1393.02 1559.43 Q1393.02 1560.75 1392.19 1561.62 Q1391.38 1562.45 1390 1562.45 Q1388.68 1562.45 1387.81 1561.65 Q1386.94 1560.81 1386.94 1559.36 Q1386.94 1556.14 1389.84 1554.01 Q1392.77 1551.89 1396.92 1551.89 Q1402.33 1551.89 1405.94 1555.53 Q1407.07 1556.66 1407.61 1558.1 Q1408.19 1559.55 1408.26 1560.52 Q1408.32 1561.45 1408.32 1563.32 L1408.32 1576.49 Q1408.32 1576.88 1408.45 1577.52 Q1408.58 1578.17 1409.16 1579.01 Q1409.77 1579.81 1410.77 1579.81 Q1413.15 1579.81 1413.12 1575.59 L1413.12 1571.89 L1414.8 1571.89 L1414.8 1575.59 Q1414.8 1579.1 1412.93 1580.49 Q1411.09 1581.84 1409.38 1581.84 Q1407.19 1581.84 1405.81 1580.23 Q1404.43 1578.62 1404.23 1576.43 Q1403.23 1578.94 1400.95 1580.58 Q1398.69 1582.19 1395.6 1582.19 Q1393.22 1582.19 1390.96 1581.58 Q1388.74 1581 1386.87 1579.36 Q1385.04 1577.69 1385.04 1575.17 M1390.13 1575.11 Q1390.13 1577.56 1391.87 1579.14 Q1393.6 1580.71 1396.05 1580.71 Q1398.82 1580.71 1401.3 1578.59 Q1403.78 1576.43 1403.78 1572.21 L1403.78 1565.61 Q1396.47 1565.87 1393.28 1568.8 Q1390.13 1571.7 1390.13 1575.11 Z" fill="#000000" fill-rule="evenodd" fill-opacity="1" /><path clip-path="url(#clip250)" d="M1417.44 1581.45 L1417.44 1579.42 Q1420.95 1579.42 1421.75 1579.01 Q1422.56 1578.56 1422.56 1576.43 L1422.56 1542.13 Q1422.56 1539.68 1421.69 1539.07 Q1420.85 1538.46 1417.44 1538.46 L1417.44 1536.4 L1426.91 1535.69 L1426.91 1576.43 Q1426.91 1578.56 1427.74 1579.01 Q1428.58 1579.42 1432.06 1579.42 L1432.06 1581.45 Q1431.25 1581.45 1429.58 1581.39 Q1427.9 1581.33 1426.68 1581.29 Q1425.46 1581.26 1424.75 1581.26 Q1423.98 1581.26 1417.44 1581.45 Z" fill="#000000" fill-rule="evenodd" fill-opacity="1" /><path clip-path="url(#clip250)" d="M1436.32 1566.93 Q1436.32 1560.71 1440.31 1556.3 Q1444.3 1551.89 1450.04 1551.89 Q1455.83 1551.89 1458.83 1555.66 Q1461.86 1559.43 1461.86 1564.84 Q1461.86 1565.83 1461.6 1566.03 Q1461.34 1566.22 1460.21 1566.22 L1441.79 1566.22 Q1441.79 1572.95 1443.79 1576.11 Q1446.56 1580.52 1451.23 1580.52 Q1451.87 1580.52 1452.64 1580.39 Q1453.42 1580.26 1455 1579.71 Q1456.57 1579.14 1457.96 1577.62 Q1459.34 1576.11 1460.15 1573.72 Q1460.34 1572.79 1460.99 1572.82 Q1461.86 1572.82 1461.86 1573.6 Q1461.86 1574.18 1461.21 1575.5 Q1460.6 1576.78 1459.41 1578.33 Q1458.22 1579.88 1455.9 1581.04 Q1453.61 1582.19 1450.84 1582.19 Q1445.04 1582.19 1440.66 1577.81 Q1436.32 1573.4 1436.32 1566.93 M1441.86 1564.84 L1457.51 1564.84 Q1457.51 1563.45 1457.25 1561.9 Q1457.02 1560.36 1456.32 1558.23 Q1455.64 1556.08 1454.03 1554.72 Q1452.42 1553.37 1450.04 1553.37 Q1448.97 1553.37 1447.81 1553.82 Q1446.69 1554.27 1445.3 1555.37 Q1443.92 1556.46 1442.95 1558.94 Q1441.98 1561.42 1441.86 1564.84 Z" fill="#000000" fill-rule="evenodd" fill-opacity="1" /><path clip-path="url(#clip250)" d="M1466.63 1597.3 Q1466.63 1596.98 1467.47 1596.17 Q1478.1 1585.35 1478.1 1564.96 Q1478.1 1544.51 1467.89 1534.18 Q1466.63 1532.98 1466.63 1532.63 Q1466.63 1531.99 1467.28 1531.99 Q1467.73 1531.99 1469.3 1533.31 Q1470.91 1534.63 1473.33 1537.65 Q1475.78 1540.68 1477.58 1544.38 Q1481.93 1553.37 1481.93 1564.96 Q1481.93 1576.11 1477.77 1585.09 Q1476 1588.86 1473.52 1592.02 Q1471.04 1595.17 1469.4 1596.56 Q1467.76 1597.94 1467.28 1597.94 Q1466.63 1597.94 1466.63 1597.3 Z" fill="#000000" fill-rule="evenodd" fill-opacity="1" /><polyline clip-path="url(#clip250)" style="stroke:#000000; stroke-linecap:butt; stroke-linejoin:round; stroke-width:4; stroke-opacity:1; fill:none" points="
  261.498,1411.22 261.498,47.2441 
  "/>
<polyline clip-path="url(#clip250)" style="stroke:#000000; stroke-linecap:butt; stroke-linejoin:round; stroke-width:4; stroke-opacity:1; fill:none" points="
  261.498,1372.62 280.396,1372.62 
  "/>
<polyline clip-path="url(#clip250)" style="stroke:#000000; stroke-linecap:butt; stroke-linejoin:round; stroke-width:4; stroke-opacity:1; fill:none" points="
  261.498,1050.06 280.396,1050.06 
  "/>
<polyline clip-path="url(#clip250)" style="stroke:#000000; stroke-linecap:butt; stroke-linejoin:round; stroke-width:4; stroke-opacity:1; fill:none" points="
  261.498,727.496 280.396,727.496 
  "/>
<polyline clip-path="url(#clip250)" style="stroke:#000000; stroke-linecap:butt; stroke-linejoin:round; stroke-width:4; stroke-opacity:1; fill:none" points="
  261.498,404.933 280.396,404.933 
  "/>
<polyline clip-path="url(#clip250)" style="stroke:#000000; stroke-linecap:butt; stroke-linejoin:round; stroke-width:4; stroke-opacity:1; fill:none" points="
  261.498,82.3711 280.396,82.3711 
  "/>
<path clip-path="url(#clip250)" d="M138.161 1358.42 Q134.55 1358.42 132.721 1361.98 Q130.915 1365.53 130.915 1372.66 Q130.915 1379.76 132.721 1383.33 Q134.55 1386.87 138.161 1386.87 Q141.795 1386.87 143.601 1383.33 Q145.429 1379.76 145.429 1372.66 Q145.429 1365.53 143.601 1361.98 Q141.795 1358.42 138.161 1358.42 M138.161 1354.72 Q143.971 1354.72 147.027 1359.32 Q150.105 1363.91 150.105 1372.66 Q150.105 1381.38 147.027 1385.99 Q143.971 1390.57 138.161 1390.57 Q132.351 1390.57 129.272 1385.99 Q126.216 1381.38 126.216 1372.66 Q126.216 1363.91 129.272 1359.32 Q132.351 1354.72 138.161 1354.72 Z" fill="#000000" fill-rule="evenodd" fill-opacity="1" /><path clip-path="url(#clip250)" d="M158.323 1384.02 L163.207 1384.02 L163.207 1389.9 L158.323 1389.9 L158.323 1384.02 Z" fill="#000000" fill-rule="evenodd" fill-opacity="1" /><path clip-path="url(#clip250)" d="M183.392 1358.42 Q179.781 1358.42 177.952 1361.98 Q176.147 1365.53 176.147 1372.66 Q176.147 1379.76 177.952 1383.33 Q179.781 1386.87 183.392 1386.87 Q187.026 1386.87 188.832 1383.33 Q190.661 1379.76 190.661 1372.66 Q190.661 1365.53 188.832 1361.98 Q187.026 1358.42 183.392 1358.42 M183.392 1354.72 Q189.202 1354.72 192.258 1359.32 Q195.336 1363.91 195.336 1372.66 Q195.336 1381.38 192.258 1385.99 Q189.202 1390.57 183.392 1390.57 Q177.582 1390.57 174.503 1385.99 Q171.448 1381.38 171.448 1372.66 Q171.448 1363.91 174.503 1359.32 Q177.582 1354.72 183.392 1354.72 Z" fill="#000000" fill-rule="evenodd" fill-opacity="1" /><path clip-path="url(#clip250)" d="M213.554 1358.42 Q209.943 1358.42 208.114 1361.98 Q206.309 1365.53 206.309 1372.66 Q206.309 1379.76 208.114 1383.33 Q209.943 1386.87 213.554 1386.87 Q217.188 1386.87 218.994 1383.33 Q220.822 1379.76 220.822 1372.66 Q220.822 1365.53 218.994 1361.98 Q217.188 1358.42 213.554 1358.42 M213.554 1354.72 Q219.364 1354.72 222.42 1359.32 Q225.498 1363.91 225.498 1372.66 Q225.498 1381.38 222.42 1385.99 Q219.364 1390.57 213.554 1390.57 Q207.744 1390.57 204.665 1385.99 Q201.61 1381.38 201.61 1372.66 Q201.61 1363.91 204.665 1359.32 Q207.744 1354.72 213.554 1354.72 Z" fill="#000000" fill-rule="evenodd" fill-opacity="1" /><path clip-path="url(#clip250)" d="M139.156 1035.86 Q135.545 1035.86 133.716 1039.42 Q131.911 1042.96 131.911 1050.09 Q131.911 1057.2 133.716 1060.76 Q135.545 1064.31 139.156 1064.31 Q142.79 1064.31 144.596 1060.76 Q146.425 1057.2 146.425 1050.09 Q146.425 1042.96 144.596 1039.42 Q142.79 1035.86 139.156 1035.86 M139.156 1032.15 Q144.966 1032.15 148.022 1036.76 Q151.101 1041.34 151.101 1050.09 Q151.101 1058.82 148.022 1063.43 Q144.966 1068.01 139.156 1068.01 Q133.346 1068.01 130.267 1063.43 Q127.212 1058.82 127.212 1050.09 Q127.212 1041.34 130.267 1036.76 Q133.346 1032.15 139.156 1032.15 Z" fill="#000000" fill-rule="evenodd" fill-opacity="1" /><path clip-path="url(#clip250)" d="M159.318 1061.46 L164.202 1061.46 L164.202 1067.34 L159.318 1067.34 L159.318 1061.46 Z" fill="#000000" fill-rule="evenodd" fill-opacity="1" /><path clip-path="url(#clip250)" d="M178.415 1063.4 L194.735 1063.4 L194.735 1067.34 L172.79 1067.34 L172.79 1063.4 Q175.452 1060.65 180.036 1056.02 Q184.642 1051.37 185.823 1050.02 Q188.068 1047.5 188.948 1045.76 Q189.85 1044 189.85 1042.32 Q189.85 1039.56 187.906 1037.82 Q185.985 1036.09 182.883 1036.09 Q180.684 1036.09 178.23 1036.85 Q175.799 1037.62 173.022 1039.17 L173.022 1034.44 Q175.846 1033.31 178.299 1032.73 Q180.753 1032.15 182.79 1032.15 Q188.161 1032.15 191.355 1034.84 Q194.549 1037.52 194.549 1042.01 Q194.549 1044.14 193.739 1046.07 Q192.952 1047.96 190.846 1050.56 Q190.267 1051.23 187.165 1054.44 Q184.063 1057.64 178.415 1063.4 Z" fill="#000000" fill-rule="evenodd" fill-opacity="1" /><path clip-path="url(#clip250)" d="M204.596 1032.78 L222.952 1032.78 L222.952 1036.71 L208.878 1036.71 L208.878 1045.19 Q209.897 1044.84 210.915 1044.68 Q211.934 1044.49 212.952 1044.49 Q218.739 1044.49 222.119 1047.66 Q225.498 1050.83 225.498 1056.25 Q225.498 1061.83 222.026 1064.93 Q218.554 1068.01 212.234 1068.01 Q210.059 1068.01 207.79 1067.64 Q205.545 1067.27 203.137 1066.53 L203.137 1061.83 Q205.221 1062.96 207.443 1063.52 Q209.665 1064.07 212.142 1064.07 Q216.147 1064.07 218.484 1061.97 Q220.822 1059.86 220.822 1056.25 Q220.822 1052.64 218.484 1050.53 Q216.147 1048.43 212.142 1048.43 Q210.267 1048.43 208.392 1048.84 Q206.54 1049.26 204.596 1050.14 L204.596 1032.78 Z" fill="#000000" fill-rule="evenodd" fill-opacity="1" /><path clip-path="url(#clip250)" d="M138.161 713.294 Q134.55 713.294 132.721 716.859 Q130.915 720.401 130.915 727.53 Q130.915 734.637 132.721 738.202 Q134.55 741.743 138.161 741.743 Q141.795 741.743 143.601 738.202 Q145.429 734.637 145.429 727.53 Q145.429 720.401 143.601 716.859 Q141.795 713.294 138.161 713.294 M138.161 709.591 Q143.971 709.591 147.027 714.197 Q150.105 718.781 150.105 727.53 Q150.105 736.257 147.027 740.864 Q143.971 745.447 138.161 745.447 Q132.351 745.447 129.272 740.864 Q126.216 736.257 126.216 727.53 Q126.216 718.781 129.272 714.197 Q132.351 709.591 138.161 709.591 Z" fill="#000000" fill-rule="evenodd" fill-opacity="1" /><path clip-path="url(#clip250)" d="M158.323 738.896 L163.207 738.896 L163.207 744.776 L158.323 744.776 L158.323 738.896 Z" fill="#000000" fill-rule="evenodd" fill-opacity="1" /><path clip-path="url(#clip250)" d="M173.438 710.216 L191.795 710.216 L191.795 714.151 L177.721 714.151 L177.721 722.623 Q178.739 722.276 179.758 722.114 Q180.776 721.929 181.795 721.929 Q187.582 721.929 190.961 725.1 Q194.341 728.271 194.341 733.688 Q194.341 739.267 190.869 742.368 Q187.397 745.447 181.077 745.447 Q178.901 745.447 176.633 745.077 Q174.387 744.706 171.98 743.966 L171.98 739.267 Q174.063 740.401 176.286 740.956 Q178.508 741.512 180.985 741.512 Q184.989 741.512 187.327 739.405 Q189.665 737.299 189.665 733.688 Q189.665 730.077 187.327 727.97 Q184.989 725.864 180.985 725.864 Q179.11 725.864 177.235 726.28 Q175.383 726.697 173.438 727.577 L173.438 710.216 Z" fill="#000000" fill-rule="evenodd" fill-opacity="1" /><path clip-path="url(#clip250)" d="M213.554 713.294 Q209.943 713.294 208.114 716.859 Q206.309 720.401 206.309 727.53 Q206.309 734.637 208.114 738.202 Q209.943 741.743 213.554 741.743 Q217.188 741.743 218.994 738.202 Q220.822 734.637 220.822 727.53 Q220.822 720.401 218.994 716.859 Q217.188 713.294 213.554 713.294 M213.554 709.591 Q219.364 709.591 222.42 714.197 Q225.498 718.781 225.498 727.53 Q225.498 736.257 222.42 740.864 Q219.364 745.447 213.554 745.447 Q207.744 745.447 204.665 740.864 Q201.61 736.257 201.61 727.53 Q201.61 718.781 204.665 714.197 Q207.744 709.591 213.554 709.591 Z" fill="#000000" fill-rule="evenodd" fill-opacity="1" /><path clip-path="url(#clip250)" d="M139.156 390.732 Q135.545 390.732 133.716 394.297 Q131.911 397.839 131.911 404.968 Q131.911 412.075 133.716 415.639 Q135.545 419.181 139.156 419.181 Q142.79 419.181 144.596 415.639 Q146.425 412.075 146.425 404.968 Q146.425 397.839 144.596 394.297 Q142.79 390.732 139.156 390.732 M139.156 387.028 Q144.966 387.028 148.022 391.635 Q151.101 396.218 151.101 404.968 Q151.101 413.695 148.022 418.301 Q144.966 422.885 139.156 422.885 Q133.346 422.885 130.267 418.301 Q127.212 413.695 127.212 404.968 Q127.212 396.218 130.267 391.635 Q133.346 387.028 139.156 387.028 Z" fill="#000000" fill-rule="evenodd" fill-opacity="1" /><path clip-path="url(#clip250)" d="M159.318 416.334 L164.202 416.334 L164.202 422.213 L159.318 422.213 L159.318 416.334 Z" fill="#000000" fill-rule="evenodd" fill-opacity="1" /><path clip-path="url(#clip250)" d="M173.207 387.653 L195.429 387.653 L195.429 389.644 L182.883 422.213 L177.999 422.213 L189.804 391.589 L173.207 391.589 L173.207 387.653 Z" fill="#000000" fill-rule="evenodd" fill-opacity="1" /><path clip-path="url(#clip250)" d="M204.596 387.653 L222.952 387.653 L222.952 391.589 L208.878 391.589 L208.878 400.061 Q209.897 399.714 210.915 399.552 Q211.934 399.366 212.952 399.366 Q218.739 399.366 222.119 402.538 Q225.498 405.709 225.498 411.126 Q225.498 416.704 222.026 419.806 Q218.554 422.885 212.234 422.885 Q210.059 422.885 207.79 422.514 Q205.545 422.144 203.137 421.403 L203.137 416.704 Q205.221 417.838 207.443 418.394 Q209.665 418.95 212.142 418.95 Q216.147 418.95 218.484 416.843 Q220.822 414.737 220.822 411.126 Q220.822 407.514 218.484 405.408 Q216.147 403.302 212.142 403.302 Q210.267 403.302 208.392 403.718 Q206.54 404.135 204.596 405.014 L204.596 387.653 Z" fill="#000000" fill-rule="evenodd" fill-opacity="1" /><path clip-path="url(#clip250)" d="M128.971 95.716 L136.61 95.716 L136.61 69.3504 L128.3 71.017 L128.3 66.7578 L136.564 65.0911 L141.239 65.0911 L141.239 95.716 L148.878 95.716 L148.878 99.6511 L128.971 99.6511 L128.971 95.716 Z" fill="#000000" fill-rule="evenodd" fill-opacity="1" /><path clip-path="url(#clip250)" d="M158.323 93.7715 L163.207 93.7715 L163.207 99.6511 L158.323 99.6511 L158.323 93.7715 Z" fill="#000000" fill-rule="evenodd" fill-opacity="1" /><path clip-path="url(#clip250)" d="M183.392 68.1698 Q179.781 68.1698 177.952 71.7346 Q176.147 75.2763 176.147 82.4059 Q176.147 89.5123 177.952 93.0771 Q179.781 96.6188 183.392 96.6188 Q187.026 96.6188 188.832 93.0771 Q190.661 89.5123 190.661 82.4059 Q190.661 75.2763 188.832 71.7346 Q187.026 68.1698 183.392 68.1698 M183.392 64.4661 Q189.202 64.4661 192.258 69.0726 Q195.336 73.6559 195.336 82.4059 Q195.336 91.1327 192.258 95.7391 Q189.202 100.322 183.392 100.322 Q177.582 100.322 174.503 95.7391 Q171.448 91.1327 171.448 82.4059 Q171.448 73.6559 174.503 69.0726 Q177.582 64.4661 183.392 64.4661 Z" fill="#000000" fill-rule="evenodd" fill-opacity="1" /><path clip-path="url(#clip250)" d="M213.554 68.1698 Q209.943 68.1698 208.114 71.7346 Q206.309 75.2763 206.309 82.4059 Q206.309 89.5123 208.114 93.0771 Q209.943 96.6188 213.554 96.6188 Q217.188 96.6188 218.994 93.0771 Q220.822 89.5123 220.822 82.4059 Q220.822 75.2763 218.994 71.7346 Q217.188 68.1698 213.554 68.1698 M213.554 64.4661 Q219.364 64.4661 222.42 69.0726 Q225.498 73.6559 225.498 82.4059 Q225.498 91.1327 222.42 95.7391 Q219.364 100.322 213.554 100.322 Q207.744 100.322 204.665 95.7391 Q201.61 91.1327 201.61 82.4059 Q201.61 73.6559 204.665 69.0726 Q207.744 64.4661 213.554 64.4661 Z" fill="#000000" fill-rule="evenodd" fill-opacity="1" /><path clip-path="url(#clip250)" d="M48.2879 777.945 Q51.895 777.945 55.2122 780.618 Q58.5294 783.259 60.5584 787.575 Q62.5551 791.858 62.5551 796.464 L62.5551 807.671 L79.0445 811.761 Q79.1411 811.794 79.5598 811.89 Q79.9463 811.987 80.1717 811.987 Q80.9769 811.987 81.1701 810.988 Q81.3633 809.958 81.3633 807.671 Q81.3633 806.19 81.621 805.964 Q81.782 805.836 82.0719 805.836 Q82.5227 805.836 82.8448 805.964 Q83.1347 806.093 83.2313 806.351 Q83.3279 806.576 83.3601 806.737 Q83.3923 806.898 83.3923 807.156 Q83.3923 807.832 83.3279 809.282 Q83.2635 810.699 83.2635 811.439 L83.1991 815.658 L83.3923 824.032 Q83.3923 825.03 82.5872 825.03 Q81.9752 825.03 81.7176 824.773 Q81.4277 824.515 81.3955 824.225 Q81.3633 823.935 81.3633 823.195 Q81.3633 821.584 81.2667 820.618 Q81.1701 819.652 81.0413 819.04 Q80.8802 818.396 80.4294 818.074 Q79.9785 817.72 79.592 817.558 Q79.1733 817.397 78.2394 817.172 L42.8129 808.348 Q41.7501 808.09 41.5891 808.09 Q41.0416 808.09 40.8484 808.412 Q40.6229 808.702 40.5263 809.539 Q40.3975 811.15 40.3975 812.373 Q40.3975 813.178 40.3653 813.501 Q40.3331 813.79 40.172 814.048 Q39.9788 814.273 39.5923 814.273 Q38.9804 814.273 38.7228 814.016 Q38.4329 813.726 38.4007 813.404 Q38.3363 813.082 38.3363 812.309 L38.3363 790.924 Q38.3363 784.773 41.267 781.359 Q44.1978 777.945 48.2879 777.945 M46.7098 784.064 Q40.3975 784.064 40.3975 793.05 L40.3975 799.362 Q40.3975 801.456 40.784 801.971 Q41.1382 802.486 42.9095 802.937 L60.8482 807.414 L60.8482 798.106 Q60.8482 791.858 57.3378 787.961 Q55.7275 786.19 52.3781 785.127 Q49.0287 784.064 46.7098 784.064 Z" fill="#000000" fill-rule="evenodd" fill-opacity="1" /><path clip-path="url(#clip250)" d="M66.9029 770.708 Q55.7597 770.708 46.7742 766.553 Q43.0062 764.782 39.85 762.302 Q36.6938 759.822 35.309 758.18 Q33.9241 756.537 33.9241 756.086 Q33.9241 755.442 34.5682 755.41 Q34.8903 755.41 35.6954 756.279 Q46.5166 766.907 66.9029 766.875 Q87.3536 766.875 97.7561 756.537 Q98.8833 755.41 99.2376 755.41 Q99.8817 755.41 99.8817 756.086 Q99.8817 756.537 98.5613 758.115 Q97.2408 759.693 94.2135 762.141 Q91.1861 764.589 87.4825 766.36 Q78.497 770.708 66.9029 770.708 Z" fill="#000000" fill-rule="evenodd" fill-opacity="1" /><path clip-path="url(#clip250)" d="M64.7773 721.097 Q69.415 721.097 73.956 723.448 Q78.4648 725.767 81.2989 729.503 Q84.133 733.206 84.133 737.007 Q84.133 740.71 81.2989 743.061 Q78.4326 745.38 73.7628 745.38 Q72.1203 745.38 70.9608 745.187 Q69.8014 744.994 67.0961 744.317 L45.5826 738.907 Q41.5569 737.973 41.5247 737.973 Q41.1382 737.973 40.945 738.134 Q40.7195 738.263 40.5585 739.036 Q40.3975 739.809 40.3975 741.29 Q40.3975 741.902 40.3653 742.192 Q40.3331 742.449 40.172 742.675 Q39.9788 742.868 39.5923 742.868 Q39.0448 742.868 38.755 742.643 Q38.4329 742.385 38.3685 742.192 Q38.3041 741.999 38.2719 741.612 Q38.2397 741.065 38.0787 739.229 Q37.8854 737.393 37.7566 735.815 Q37.6278 734.237 37.6278 733.561 Q37.6278 733.174 37.821 732.981 Q37.982 732.756 38.1753 732.756 L38.3363 732.723 L58.2073 737.586 Q54.246 733.754 54.246 729.857 Q54.246 725.96 57.2411 723.545 Q60.2363 721.097 64.7773 721.097 M61.8788 725.863 Q58.8192 725.863 57.2734 727.023 Q55.6953 728.15 55.6953 730.018 Q55.6953 731.596 56.8869 733.657 Q58.0785 735.718 60.977 737.908 Q61.5245 738.327 61.8466 738.488 Q62.1686 738.617 63.2636 738.907 L69.3506 740.356 Q73.5051 741.419 76.0172 741.419 Q79.431 741.419 81.0413 740.163 Q82.6516 738.907 82.6516 737.007 Q82.6516 735.01 80.8802 732.917 Q79.1089 730.823 75.8883 729.213 Q73.7628 728.214 69.1895 727.055 Q64.5841 725.863 61.8788 725.863 Z" fill="#000000" fill-rule="evenodd" fill-opacity="1" /><path clip-path="url(#clip250)" d="M24.4487 701.482 Q23.6597 701.482 23.1411 700.422 L20.0977 693.997 L17.0542 700.512 Q16.6033 701.482 15.8143 701.482 Q15.3634 701.482 14.9576 701.121 Q14.5293 700.738 14.5293 700.242 Q14.5293 699.881 15.0253 699.227 L19.1734 693.501 Q11.5535 694.2 11.328 694.177 Q10.8771 694.177 10.539 693.839 Q10.1783 693.501 10.1783 692.937 Q10.1783 692.486 10.5164 692.126 Q10.8321 691.742 11.328 691.742 L19.1734 692.419 L15.386 687.301 Q14.5067 686.106 14.5293 685.678 Q14.5293 685.16 14.9351 684.799 Q15.3409 684.438 15.8143 684.438 Q16.6033 684.438 17.0993 685.498 L20.1428 691.923 L23.2088 685.408 Q23.6597 684.438 24.4487 684.438 Q24.8996 684.438 25.3279 684.821 Q25.7337 685.182 25.7337 685.678 Q25.7337 685.949 25.4632 686.422 Q25.4181 686.512 24.6967 687.482 Q23.9753 688.451 22.8706 689.961 Q21.7659 691.449 21.0671 692.419 Q28.687 691.72 28.9124 691.742 Q29.3633 691.742 29.724 692.081 Q30.0847 692.419 30.0847 692.982 Q30.0847 693.433 29.7691 693.817 Q29.4309 694.177 28.9124 694.177 L21.0671 693.501 L25.7337 699.949 Q25.7337 700.647 25.3955 701.031 Q25.0348 701.391 24.8319 701.436 Q24.629 701.482 24.4487 701.482 Z" fill="#000000" fill-rule="evenodd" fill-opacity="1" /><path clip-path="url(#clip250)" d="M99.2376 658.765 Q98.9155 658.765 98.1104 657.927 Q87.2892 647.3 66.9029 647.3 Q46.4522 647.3 36.1141 657.509 Q34.9225 658.765 34.5682 658.765 Q33.9241 658.765 33.9241 658.121 Q33.9241 657.67 35.2445 656.092 Q36.565 654.481 39.5923 652.066 Q42.6197 649.618 46.3234 647.815 Q55.3088 643.467 66.9029 643.467 Q78.0461 643.467 87.0316 647.622 Q90.7997 649.393 93.9558 651.873 Q97.112 654.353 98.4969 655.995 Q99.8817 657.638 99.8817 658.121 Q99.8817 658.765 99.2376 658.765 Z" fill="#000000" fill-rule="evenodd" fill-opacity="1" /><path clip-path="url(#clip252)" d="
M419.329 1366.17 L419.329 1372.62 L517.973 1372.62 L517.973 1366.17 L419.329 1366.17 L419.329 1366.17  Z
  " fill="#808080" fill-rule="evenodd" fill-opacity="0.5"/>
<polyline clip-path="url(#clip252)" style="stroke:#000000; stroke-linecap:butt; stroke-linejoin:round; stroke-width:4; stroke-opacity:0.5; fill:none" points="
  419.329,1366.17 419.329,1372.62 517.973,1372.62 517.973,1366.17 419.329,1366.17 
  "/>
<path clip-path="url(#clip252)" d="
M517.973 1366.17 L517.973 1372.62 L616.618 1372.62 L616.618 1366.17 L517.973 1366.17 L517.973 1366.17  Z
  " fill="#808080" fill-rule="evenodd" fill-opacity="0.5"/>
<polyline clip-path="url(#clip252)" style="stroke:#000000; stroke-linecap:butt; stroke-linejoin:round; stroke-width:4; stroke-opacity:0.5; fill:none" points="
  517.973,1366.17 517.973,1372.62 616.618,1372.62 616.618,1366.17 517.973,1366.17 
  "/>
<path clip-path="url(#clip252)" d="
M616.618 1314.56 L616.618 1372.62 L715.262 1372.62 L715.262 1314.56 L616.618 1314.56 L616.618 1314.56  Z
  " fill="#808080" fill-rule="evenodd" fill-opacity="0.5"/>
<polyline clip-path="url(#clip252)" style="stroke:#000000; stroke-linecap:butt; stroke-linejoin:round; stroke-width:4; stroke-opacity:0.5; fill:none" points="
  616.618,1314.56 616.618,1372.62 715.262,1372.62 715.262,1314.56 616.618,1314.56 
  "/>
<path clip-path="url(#clip252)" d="
M715.262 1224.24 L715.262 1372.62 L813.906 1372.62 L813.906 1224.24 L715.262 1224.24 L715.262 1224.24  Z
  " fill="#808080" fill-rule="evenodd" fill-opacity="0.5"/>
<polyline clip-path="url(#clip252)" style="stroke:#000000; stroke-linecap:butt; stroke-linejoin:round; stroke-width:4; stroke-opacity:0.5; fill:none" points="
  715.262,1224.24 715.262,1372.62 813.906,1372.62 813.906,1224.24 715.262,1224.24 
  "/>
<path clip-path="url(#clip252)" d="
M813.906 985.546 L813.906 1372.62 L912.55 1372.62 L912.55 985.546 L813.906 985.546 L813.906 985.546  Z
  " fill="#808080" fill-rule="evenodd" fill-opacity="0.5"/>
<polyline clip-path="url(#clip252)" style="stroke:#000000; stroke-linecap:butt; stroke-linejoin:round; stroke-width:4; stroke-opacity:0.5; fill:none" points="
  813.906,985.546 813.906,1372.62 912.55,1372.62 912.55,985.546 813.906,985.546 
  "/>
<path clip-path="url(#clip252)" d="
M912.55 656.532 L912.55 1372.62 L1011.19 1372.62 L1011.19 656.532 L912.55 656.532 L912.55 656.532  Z
  " fill="#808080" fill-rule="evenodd" fill-opacity="0.5"/>
<polyline clip-path="url(#clip252)" style="stroke:#000000; stroke-linecap:butt; stroke-linejoin:round; stroke-width:4; stroke-opacity:0.5; fill:none" points="
  912.55,656.532 912.55,1372.62 1011.19,1372.62 1011.19,656.532 912.55,656.532 
  "/>
<path clip-path="url(#clip252)" d="
M1011.19 204.945 L1011.19 1372.62 L1109.84 1372.62 L1109.84 204.945 L1011.19 204.945 L1011.19 204.945  Z
  " fill="#808080" fill-rule="evenodd" fill-opacity="0.5"/>
<polyline clip-path="url(#clip252)" style="stroke:#000000; stroke-linecap:butt; stroke-linejoin:round; stroke-width:4; stroke-opacity:0.5; fill:none" points="
  1011.19,204.945 1011.19,1372.62 1109.84,1372.62 1109.84,204.945 1011.19,204.945 
  "/>
<path clip-path="url(#clip252)" d="
M1109.84 217.847 L1109.84 1372.62 L1208.48 1372.62 L1208.48 217.847 L1109.84 217.847 L1109.84 217.847  Z
  " fill="#808080" fill-rule="evenodd" fill-opacity="0.5"/>
<polyline clip-path="url(#clip252)" style="stroke:#000000; stroke-linecap:butt; stroke-linejoin:round; stroke-width:4; stroke-opacity:0.5; fill:none" points="
  1109.84,217.847 1109.84,1372.62 1208.48,1372.62 1208.48,217.847 1109.84,217.847 
  "/>
<path clip-path="url(#clip252)" d="
M1208.48 230.75 L1208.48 1372.62 L1307.13 1372.62 L1307.13 230.75 L1208.48 230.75 L1208.48 230.75  Z
  " fill="#808080" fill-rule="evenodd" fill-opacity="0.5"/>
<polyline clip-path="url(#clip252)" style="stroke:#000000; stroke-linecap:butt; stroke-linejoin:round; stroke-width:4; stroke-opacity:0.5; fill:none" points="
  1208.48,230.75 1208.48,1372.62 1307.13,1372.62 1307.13,230.75 1208.48,230.75 
  "/>
<path clip-path="url(#clip252)" d="
M1307.13 501.702 L1307.13 1372.62 L1405.77 1372.62 L1405.77 501.702 L1307.13 501.702 L1307.13 501.702  Z
  " fill="#808080" fill-rule="evenodd" fill-opacity="0.5"/>
<polyline clip-path="url(#clip252)" style="stroke:#000000; stroke-linecap:butt; stroke-linejoin:round; stroke-width:4; stroke-opacity:0.5; fill:none" points="
  1307.13,501.702 1307.13,1372.62 1405.77,1372.62 1405.77,501.702 1307.13,501.702 
  "/>
<path clip-path="url(#clip252)" d="
M1405.77 921.033 L1405.77 1372.62 L1504.42 1372.62 L1504.42 921.033 L1405.77 921.033 L1405.77 921.033  Z
  " fill="#808080" fill-rule="evenodd" fill-opacity="0.5"/>
<polyline clip-path="url(#clip252)" style="stroke:#000000; stroke-linecap:butt; stroke-linejoin:round; stroke-width:4; stroke-opacity:0.5; fill:none" points="
  1405.77,921.033 1405.77,1372.62 1504.42,1372.62 1504.42,921.033 1405.77,921.033 
  "/>
<path clip-path="url(#clip252)" d="
M1504.42 1146.83 L1504.42 1372.62 L1603.06 1372.62 L1603.06 1146.83 L1504.42 1146.83 L1504.42 1146.83  Z
  " fill="#808080" fill-rule="evenodd" fill-opacity="0.5"/>
<polyline clip-path="url(#clip252)" style="stroke:#000000; stroke-linecap:butt; stroke-linejoin:round; stroke-width:4; stroke-opacity:0.5; fill:none" points="
  1504.42,1146.83 1504.42,1372.62 1603.06,1372.62 1603.06,1146.83 1504.42,1146.83 
  "/>
<path clip-path="url(#clip252)" d="
M1603.06 1295.21 L1603.06 1372.62 L1701.7 1372.62 L1701.7 1295.21 L1603.06 1295.21 L1603.06 1295.21  Z
  " fill="#808080" fill-rule="evenodd" fill-opacity="0.5"/>
<polyline clip-path="url(#clip252)" style="stroke:#000000; stroke-linecap:butt; stroke-linejoin:round; stroke-width:4; stroke-opacity:0.5; fill:none" points="
  1603.06,1295.21 1603.06,1372.62 1701.7,1372.62 1701.7,1295.21 1603.06,1295.21 
  "/>
<path clip-path="url(#clip252)" d="
M1701.7 1340.36 L1701.7 1372.62 L1800.35 1372.62 L1800.35 1340.36 L1701.7 1340.36 L1701.7 1340.36  Z
  " fill="#808080" fill-rule="evenodd" fill-opacity="0.5"/>
<polyline clip-path="url(#clip252)" style="stroke:#000000; stroke-linecap:butt; stroke-linejoin:round; stroke-width:4; stroke-opacity:0.5; fill:none" points="
  1701.7,1340.36 1701.7,1372.62 1800.35,1372.62 1800.35,1340.36 1701.7,1340.36 
  "/>
<path clip-path="url(#clip252)" d="
M1800.35 1366.17 L1800.35 1372.62 L1898.99 1372.62 L1898.99 1366.17 L1800.35 1366.17 L1800.35 1366.17  Z
  " fill="#808080" fill-rule="evenodd" fill-opacity="0.5"/>
<polyline clip-path="url(#clip252)" style="stroke:#000000; stroke-linecap:butt; stroke-linejoin:round; stroke-width:4; stroke-opacity:0.5; fill:none" points="
  1800.35,1366.17 1800.35,1372.62 1898.99,1372.62 1898.99,1366.17 1800.35,1366.17 
  "/>
<circle clip-path="url(#clip252)" style="fill:#808080; stroke:none; fill-opacity:0" cx="468.651" cy="1366.17" r="2"/>
<circle clip-path="url(#clip252)" style="fill:#808080; stroke:none; fill-opacity:0" cx="567.295" cy="1366.17" r="2"/>
<circle clip-path="url(#clip252)" style="fill:#808080; stroke:none; fill-opacity:0" cx="665.94" cy="1314.56" r="2"/>
<circle clip-path="url(#clip252)" style="fill:#808080; stroke:none; fill-opacity:0" cx="764.584" cy="1224.24" r="2"/>
<circle clip-path="url(#clip252)" style="fill:#808080; stroke:none; fill-opacity:0" cx="863.228" cy="985.546" r="2"/>
<circle clip-path="url(#clip252)" style="fill:#808080; stroke:none; fill-opacity:0" cx="961.872" cy="656.532" r="2"/>
<circle clip-path="url(#clip252)" style="fill:#808080; stroke:none; fill-opacity:0" cx="1060.52" cy="204.945" r="2"/>
<circle clip-path="url(#clip252)" style="fill:#808080; stroke:none; fill-opacity:0" cx="1159.16" cy="217.847" r="2"/>
<circle clip-path="url(#clip252)" style="fill:#808080; stroke:none; fill-opacity:0" cx="1257.8" cy="230.75" r="2"/>
<circle clip-path="url(#clip252)" style="fill:#808080; stroke:none; fill-opacity:0" cx="1356.45" cy="501.702" r="2"/>
<circle clip-path="url(#clip252)" style="fill:#808080; stroke:none; fill-opacity:0" cx="1455.09" cy="921.033" r="2"/>
<circle clip-path="url(#clip252)" style="fill:#808080; stroke:none; fill-opacity:0" cx="1553.74" cy="1146.83" r="2"/>
<circle clip-path="url(#clip252)" style="fill:#808080; stroke:none; fill-opacity:0" cx="1652.38" cy="1295.21" r="2"/>
<circle clip-path="url(#clip252)" style="fill:#808080; stroke:none; fill-opacity:0" cx="1751.03" cy="1340.36" r="2"/>
<circle clip-path="url(#clip252)" style="fill:#808080; stroke:none; fill-opacity:0" cx="1849.67" cy="1366.17" r="2"/>
<polyline clip-path="url(#clip252)" style="stroke:#000000; stroke-linecap:butt; stroke-linejoin:round; stroke-width:8; stroke-opacity:1; fill:none" points="
  320.685,1372.52 325.617,1372.5 330.549,1372.49 335.481,1372.48 340.414,1372.46 345.346,1372.44 350.278,1372.42 355.21,1372.4 360.143,1372.38 365.075,1372.35 
  370.007,1372.32 374.939,1372.29 379.871,1372.25 384.804,1372.21 389.736,1372.17 394.668,1372.12 399.6,1372.07 404.532,1372.02 409.465,1371.95 414.397,1371.89 
  419.329,1371.81 424.261,1371.73 429.193,1371.64 434.126,1371.55 439.058,1371.44 443.99,1371.32 448.922,1371.2 453.855,1371.06 458.787,1370.91 463.719,1370.75 
  468.651,1370.57 473.583,1370.38 478.516,1370.18 483.448,1369.95 488.38,1369.71 493.312,1369.44 498.244,1369.15 503.177,1368.84 508.109,1368.51 513.041,1368.15 
  517.973,1367.76 522.906,1367.33 527.838,1366.88 532.77,1366.39 537.702,1365.86 542.634,1365.29 547.567,1364.68 552.499,1364.02 557.431,1363.32 562.363,1362.56 
  567.295,1361.75 572.228,1360.88 577.16,1359.95 582.092,1358.96 587.024,1357.89 591.956,1356.75 596.889,1355.54 601.821,1354.24 606.753,1352.86 611.685,1351.38 
  616.618,1349.81 621.55,1348.14 626.482,1346.36 631.414,1344.48 636.346,1342.47 641.279,1340.34 646.211,1338.09 651.143,1335.7 656.075,1333.17 661.007,1330.49 
  665.94,1327.65 670.872,1324.66 675.804,1321.5 680.736,1318.17 685.668,1314.65 690.601,1310.95 695.533,1307.05 700.465,1302.95 705.397,1298.63 710.33,1294.1 
  715.262,1289.35 720.194,1284.36 725.126,1279.13 730.058,1273.65 734.991,1267.92 739.923,1261.92 744.855,1255.65 749.787,1249.11 754.719,1242.28 759.652,1235.16 
  764.584,1227.74 769.516,1220.02 774.448,1211.98 779.38,1203.63 784.313,1194.96 789.245,1185.95 794.177,1176.61 799.109,1166.94 804.042,1156.92 808.974,1146.55 
  813.906,1135.84 818.838,1124.77 823.77,1113.34 828.703,1101.56 833.635,1089.42 838.567,1076.92 843.499,1064.07 848.431,1050.85 853.364,1037.28 858.296,1023.36 
  863.228,1009.08 868.16,994.455 873.093,979.489 878.025,964.186 882.957,948.553 887.889,932.596 892.821,916.324 897.754,899.746 902.686,882.871 907.618,865.712 
  912.55,848.279 917.482,830.585 922.415,812.645 927.347,794.472 932.279,776.082 937.211,757.492 942.143,738.719 947.076,719.781 952.008,700.698 956.94,681.489 
  961.872,662.174 966.805,642.777 971.737,623.318 976.669,603.821 981.601,584.309 986.533,564.808 991.466,545.341 996.398,525.934 1001.33,506.613 1006.26,487.406 
  1011.19,468.337 1016.13,449.435 1021.06,430.726 1025.99,412.239 1030.92,394.001 1035.86,376.039 1040.79,358.382 1045.72,341.057 1050.65,324.092 1055.58,307.514 
  1060.52,291.349 1065.45,275.625 1070.38,260.367 1075.31,245.602 1080.25,231.355 1085.18,217.65 1090.11,204.51 1095.04,191.959 1099.97,180.018 1104.91,168.71 
  1109.84,158.053 1114.77,148.068 1119.7,138.773 1124.64,130.183 1129.57,122.315 1134.5,115.184 1139.43,108.802 1144.36,103.181 1149.3,98.3324 1154.23,94.2641 
  1159.16,90.9841 1164.09,88.4985 1169.03,86.812 1173.96,85.9277 1178.89,85.8473 1183.82,86.5709 1188.75,88.0972 1193.69,90.4233 1198.62,93.5448 1203.55,97.456 
  1208.48,102.149 1213.42,107.617 1218.35,113.847 1223.28,120.83 1228.21,128.551 1233.14,136.998 1238.08,146.153 1243.01,156.002 1247.94,166.526 1252.87,177.705 
  1257.8,189.521 1262.74,201.952 1267.67,214.976 1272.6,228.57 1277.53,242.711 1282.47,257.374 1287.4,272.535 1292.33,288.168 1297.26,304.247 1302.19,320.745 
  1307.13,337.635 1312.06,354.89 1316.99,372.483 1321.92,390.386 1326.86,408.571 1331.79,427.01 1336.72,445.677 1341.65,464.542 1346.58,483.58 1351.52,502.762 
  1356.45,522.062 1361.38,541.454 1366.31,560.911 1371.25,580.407 1376.18,599.919 1381.11,619.421 1386.04,638.889 1390.97,658.301 1395.91,677.634 1400.84,696.866 
  1405.77,715.976 1410.7,734.944 1415.64,753.752 1420.57,772.38 1425.5,790.811 1430.43,809.028 1435.36,827.017 1440.3,844.761 1445.23,862.247 1450.16,879.462 
  1455.09,896.394 1460.03,913.032 1464.96,929.366 1469.89,945.387 1474.82,961.086 1479.75,976.456 1484.69,991.489 1489.62,1006.18 1494.55,1020.53 1499.48,1034.52 
  1504.42,1048.17 1509.35,1061.45 1514.28,1074.38 1519.21,1086.95 1524.14,1099.16 1529.08,1111.02 1534.01,1122.51 1538.94,1133.65 1543.87,1144.44 1548.81,1154.87 
  1553.74,1164.96 1558.67,1174.71 1563.6,1184.11 1568.53,1193.18 1573.47,1201.92 1578.4,1210.34 1583.33,1218.44 1588.26,1226.22 1593.2,1233.7 1598.13,1240.88 
  1603.06,1247.77 1607.99,1254.37 1612.92,1260.69 1617.86,1266.74 1622.79,1272.52 1627.72,1278.05 1632.65,1283.33 1637.59,1288.37 1642.52,1293.17 1647.45,1297.74 
  1652.38,1302.1 1657.31,1306.24 1662.25,1310.18 1667.18,1313.93 1672.11,1317.48 1677.04,1320.85 1681.98,1324.04 1686.91,1327.07 1691.84,1329.93 1696.77,1332.64 
  1701.7,1335.2 1706.64,1337.62 1711.57,1339.9 1716.5,1342.06 1721.43,1344.09 1726.37,1346 1731.3,1347.79 1736.23,1349.49 1741.16,1351.08 1746.09,1352.57 
  1751.03,1353.97 1755.96,1355.28 1760.89,1356.52 1765.82,1357.67 1770.75,1358.75 1775.69,1359.76 1780.62,1360.7 1785.55,1361.58 1790.48,1362.41 1795.42,1363.17 
  1800.35,1363.89 1805.28,1364.55 1810.21,1365.17 1815.14,1365.75 1820.08,1366.29 1825.01,1366.78 1829.94,1367.24 1834.87,1367.67 1839.81,1368.07 1844.74,1368.44 
  1849.67,1368.78 1854.6,1369.09 1859.53,1369.39 1864.47,1369.65 1869.4,1369.9 1874.33,1370.13 1879.26,1370.34 1884.2,1370.54 1889.13,1370.72 1894.06,1370.88 
  1898.99,1371.03 1903.92,1371.17 1908.86,1371.3 1913.79,1371.42 1918.72,1371.52 1923.65,1371.62 1928.59,1371.71 1933.52,1371.8 1938.45,1371.87 1943.38,1371.94 
  1948.31,1372 1953.25,1372.06 1958.18,1372.11 1963.11,1372.16 1968.04,1372.21 1972.98,1372.25 1977.91,1372.28 1982.84,1372.31 1987.77,1372.34 1992.7,1372.37 
  1997.64,1372.4 2002.57,1372.42 2007.5,1372.44 2012.43,1372.46 2017.37,1372.47 2022.3,1372.49 2027.23,1372.5 2032.16,1372.51 2037.09,1372.52 2042.03,1372.53 
  2046.96,1372.54 2051.89,1372.55 2056.82,1372.56 2061.76,1372.57 2066.69,1372.57 2071.62,1372.58 2076.55,1372.58 2081.48,1372.59 2086.42,1372.59 2091.35,1372.59 
  2096.28,1372.6 2101.21,1372.6 2106.15,1372.6 2111.08,1372.6 2116.01,1372.6 2120.94,1372.61 2125.87,1372.61 2130.81,1372.61 2135.74,1372.61 2140.67,1372.61 
  2145.6,1372.61 2150.54,1372.61 2155.47,1372.61 2160.4,1372.62 2165.33,1372.62 2170.26,1372.62 2175.2,1372.62 2180.13,1372.62 2185.06,1372.62 2189.99,1372.62 
  2194.93,1372.62 2199.86,1372.62 2204.79,1372.62 2209.72,1372.62 2214.65,1372.62 2219.59,1372.62 2224.52,1372.62 2229.45,1372.62 2234.38,1372.62 2239.32,1372.62 
  2244.25,1372.62 2249.18,1372.62 2254.11,1372.62 2259.04,1372.62 2263.98,1372.62 2268.91,1372.62 2273.84,1372.62 2278.77,1372.62 2283.7,1372.62 2288.64,1372.62 
  2293.57,1372.62 
  "/>
<path clip-path="url(#clip250)" d="
M1911.73 196.39 L2283.05 196.39 L2283.05 92.7101 L1911.73 92.7101  Z
  " fill="#ffffff" fill-rule="evenodd" fill-opacity="1"/>
<polyline clip-path="url(#clip250)" style="stroke:#000000; stroke-linecap:butt; stroke-linejoin:round; stroke-width:4; stroke-opacity:1; fill:none" points="
  1911.73,196.39 2283.05,196.39 2283.05,92.7101 1911.73,92.7101 1911.73,196.39 
  "/>
<polyline clip-path="url(#clip250)" style="stroke:#000000; stroke-linecap:butt; stroke-linejoin:round; stroke-width:4; stroke-opacity:1; fill:none" points="
  1934.96,144.55 2074.38,144.55 
  "/>
<path clip-path="url(#clip250)" d="M2118.13 136.9 L2118.13 140.881 Q2116.32 139.886 2114.49 139.4 Q2112.69 138.89 2110.83 138.89 Q2106.69 138.89 2104.4 141.529 Q2102.11 144.145 2102.11 148.89 Q2102.11 153.636 2104.4 156.275 Q2106.69 158.89 2110.83 158.89 Q2112.69 158.89 2114.49 158.404 Q2116.32 157.895 2118.13 156.9 L2118.13 160.835 Q2116.34 161.668 2114.42 162.085 Q2112.52 162.501 2110.37 162.501 Q2104.52 162.501 2101.07 158.821 Q2097.62 155.14 2097.62 148.89 Q2097.62 142.548 2101.09 138.914 Q2104.58 135.279 2110.65 135.279 Q2112.62 135.279 2114.49 135.696 Q2116.37 136.089 2118.13 136.9 Z" fill="#000000" fill-rule="evenodd" fill-opacity="1" /><path clip-path="url(#clip250)" d="M2137.32 148.798 Q2132.15 148.798 2130.16 149.978 Q2128.17 151.159 2128.17 154.006 Q2128.17 156.275 2129.65 157.617 Q2131.16 158.937 2133.73 158.937 Q2137.27 158.937 2139.4 156.437 Q2141.55 153.913 2141.55 149.747 L2141.55 148.798 L2137.32 148.798 M2145.81 147.038 L2145.81 161.83 L2141.55 161.83 L2141.55 157.895 Q2140.09 160.256 2137.92 161.39 Q2135.74 162.501 2132.59 162.501 Q2128.61 162.501 2126.25 160.279 Q2123.91 158.034 2123.91 154.284 Q2123.91 149.909 2126.83 147.687 Q2129.77 145.464 2135.58 145.464 L2141.55 145.464 L2141.55 145.048 Q2141.55 142.108 2139.61 140.511 Q2137.69 138.89 2134.19 138.89 Q2131.97 138.89 2129.86 139.423 Q2127.76 139.955 2125.81 141.02 L2125.81 137.085 Q2128.15 136.182 2130.35 135.742 Q2132.55 135.279 2134.63 135.279 Q2140.26 135.279 2143.03 138.196 Q2145.81 141.113 2145.81 147.038 Z" fill="#000000" fill-rule="evenodd" fill-opacity="1" /><path clip-path="url(#clip250)" d="M2151.53 135.904 L2156.04 135.904 L2164.14 157.663 L2172.25 135.904 L2176.76 135.904 L2167.04 161.83 L2161.25 161.83 L2151.53 135.904 Z" fill="#000000" fill-rule="evenodd" fill-opacity="1" /><path clip-path="url(#clip250)" d="M2182.64 135.904 L2186.9 135.904 L2186.9 161.83 L2182.64 161.83 L2182.64 135.904 M2182.64 125.812 L2186.9 125.812 L2186.9 131.205 L2182.64 131.205 L2182.64 125.812 Z" fill="#000000" fill-rule="evenodd" fill-opacity="1" /><path clip-path="url(#clip250)" d="M2200.02 128.543 L2200.02 135.904 L2208.8 135.904 L2208.8 139.214 L2200.02 139.214 L2200.02 153.288 Q2200.02 156.46 2200.88 157.363 Q2201.76 158.265 2204.42 158.265 L2208.8 158.265 L2208.8 161.83 L2204.42 161.83 Q2199.49 161.83 2197.62 160.001 Q2195.74 158.15 2195.74 153.288 L2195.74 139.214 L2192.62 139.214 L2192.62 135.904 L2195.74 135.904 L2195.74 128.543 L2200.02 128.543 Z" fill="#000000" fill-rule="evenodd" fill-opacity="1" /><path clip-path="url(#clip250)" d="M2225.19 164.237 Q2223.38 168.867 2221.67 170.279 Q2219.95 171.691 2217.08 171.691 L2213.68 171.691 L2213.68 168.126 L2216.18 168.126 Q2217.94 168.126 2218.91 167.293 Q2219.89 166.46 2221.07 163.358 L2221.83 161.413 L2211.34 135.904 L2215.86 135.904 L2223.96 156.182 L2232.06 135.904 L2236.57 135.904 L2225.19 164.237 Z" fill="#000000" fill-rule="evenodd" fill-opacity="1" /></svg>
