<?xml version="1.0" encoding="utf-8"?>
<svg xmlns="http://www.w3.org/2000/svg" xmlns:xlink="http://www.w3.org/1999/xlink" width="600" height="400" viewBox="0 0 2400 1600">
<defs>
  <clipPath id="clip330">
    <rect x="0" y="0" width="2400" height="1600"/>
  </clipPath>
</defs>
<path clip-path="url(#clip330)" d="
M0 1600 L2400 1600 L2400 0 L0 0  Z
  " fill="#ffffff" fill-rule="evenodd" fill-opacity="1"/>
<defs>
  <clipPath id="clip331">
    <rect x="480" y="0" width="1681" height="1600"/>
  </clipPath>
</defs>
<path clip-path="url(#clip330)" d="
M186.274 1486.45 L2352.76 1486.45 L2352.76 47.2441 L186.274 47.2441  Z
  " fill="#ffffff" fill-rule="evenodd" fill-opacity="1"/>
<defs>
  <clipPath id="clip332">
    <rect x="186" y="47" width="2167" height="1440"/>
  </clipPath>
</defs>
<polyline clip-path="url(#clip330)" style="stroke:#000000; stroke-linecap:butt; stroke-linejoin:round; stroke-width:4; stroke-opacity:1; fill:none" points="
  186.274,1486.45 2352.76,1486.45 
  "/>
<polyline clip-path="url(#clip330)" style="stroke:#000000; stroke-linecap:butt; stroke-linejoin:round; stroke-width:4; stroke-opacity:1; fill:none" points="
  186.274,1486.45 186.274,1467.55 
  "/>
<polyline clip-path="url(#clip330)" style="stroke:#000000; stroke-linecap:butt; stroke-linejoin:round; stroke-width:4; stroke-opacity:1; fill:none" points="
  908.435,1486.45 908.435,1467.55 
  "/>
<polyline clip-path="url(#clip330)" style="stroke:#000000; stroke-linecap:butt; stroke-linejoin:round; stroke-width:4; stroke-opacity:1; fill:none" points="
  1630.6,1486.45 1630.6,1467.55 
  "/>
<polyline clip-path="url(#clip330)" style="stroke:#000000; stroke-linecap:butt; stroke-linejoin:round; stroke-width:4; stroke-opacity:1; fill:none" points="
  2352.76,1486.45 2352.76,1467.55 
  "/>
<path clip-path="url(#clip330)" d="M186.274 1517.37 Q182.663 1517.37 180.834 1520.93 Q179.029 1524.47 179.029 1531.6 Q179.029 1538.71 180.834 1542.27 Q182.663 1545.82 186.274 1545.82 Q189.908 1545.82 191.714 1542.27 Q193.542 1538.71 193.542 1531.6 Q193.542 1524.47 191.714 1520.93 Q189.908 1517.37 186.274 1517.37 M186.274 1513.66 Q192.084 1513.66 195.14 1518.27 Q198.218 1522.85 198.218 1531.6 Q198.218 1540.33 195.14 1544.94 Q192.084 1549.52 186.274 1549.52 Q180.464 1549.52 177.385 1544.94 Q174.33 1540.33 174.33 1531.6 Q174.33 1522.85 177.385 1518.27 Q180.464 1513.66 186.274 1513.66 Z" fill="#000000" fill-rule="evenodd" fill-opacity="1" /><path clip-path="url(#clip330)" d="M898.817 1544.91 L906.455 1544.91 L906.455 1518.55 L898.145 1520.21 L898.145 1515.95 L906.409 1514.29 L911.085 1514.29 L911.085 1544.91 L918.724 1544.91 L918.724 1548.85 L898.817 1548.85 L898.817 1544.91 Z" fill="#000000" fill-rule="evenodd" fill-opacity="1" /><path clip-path="url(#clip330)" d="M1625.25 1544.91 L1641.57 1544.91 L1641.57 1548.85 L1619.62 1548.85 L1619.62 1544.91 Q1622.29 1542.16 1626.87 1537.53 Q1631.47 1532.88 1632.66 1531.53 Q1634.9 1529.01 1635.78 1527.27 Q1636.68 1525.51 1636.68 1523.82 Q1636.68 1521.07 1634.74 1519.33 Q1632.82 1517.6 1629.72 1517.6 Q1627.52 1517.6 1625.06 1518.36 Q1622.63 1519.13 1619.85 1520.68 L1619.85 1515.95 Q1622.68 1514.82 1625.13 1514.24 Q1627.59 1513.66 1629.62 1513.66 Q1634.99 1513.66 1638.19 1516.35 Q1641.38 1519.03 1641.38 1523.52 Q1641.38 1525.65 1640.57 1527.57 Q1639.79 1529.47 1637.68 1532.07 Q1637.1 1532.74 1634 1535.95 Q1630.9 1539.15 1625.25 1544.91 Z" fill="#000000" fill-rule="evenodd" fill-opacity="1" /><path clip-path="url(#clip330)" d="M2357 1530.21 Q2360.36 1530.93 2362.24 1533.2 Q2364.13 1535.47 2364.13 1538.8 Q2364.13 1543.92 2360.61 1546.72 Q2357.1 1549.52 2350.61 1549.52 Q2348.44 1549.52 2346.12 1549.08 Q2343.83 1548.66 2341.38 1547.81 L2341.38 1543.29 Q2343.32 1544.43 2345.64 1545.01 Q2347.95 1545.58 2350.48 1545.58 Q2354.87 1545.58 2357.17 1543.85 Q2359.48 1542.11 2359.48 1538.8 Q2359.48 1535.75 2357.33 1534.03 Q2355.2 1532.3 2351.38 1532.3 L2347.35 1532.3 L2347.35 1528.45 L2351.56 1528.45 Q2355.01 1528.45 2356.84 1527.09 Q2358.67 1525.7 2358.67 1523.11 Q2358.67 1520.45 2356.77 1519.03 Q2354.9 1517.6 2351.38 1517.6 Q2349.46 1517.6 2347.26 1518.01 Q2345.06 1518.43 2342.42 1519.31 L2342.42 1515.14 Q2345.08 1514.4 2347.4 1514.03 Q2349.74 1513.66 2351.8 1513.66 Q2357.12 1513.66 2360.22 1516.09 Q2363.32 1518.5 2363.32 1522.62 Q2363.32 1525.49 2361.68 1527.48 Q2360.04 1529.45 2357 1530.21 Z" fill="#000000" fill-rule="evenodd" fill-opacity="1" /><polyline clip-path="url(#clip330)" style="stroke:#000000; stroke-linecap:butt; stroke-linejoin:round; stroke-width:4; stroke-opacity:1; fill:none" points="
  186.274,1486.45 186.274,47.2441 
  "/>
<polyline clip-path="url(#clip330)" style="stroke:#000000; stroke-linecap:butt; stroke-linejoin:round; stroke-width:4; stroke-opacity:1; fill:none" points="
  186.274,1486.45 205.172,1486.45 
  "/>
<polyline clip-path="url(#clip330)" style="stroke:#000000; stroke-linecap:butt; stroke-linejoin:round; stroke-width:4; stroke-opacity:1; fill:none" points="
  186.274,1130.21 205.172,1130.21 
  "/>
<polyline clip-path="url(#clip330)" style="stroke:#000000; stroke-linecap:butt; stroke-linejoin:round; stroke-width:4; stroke-opacity:1; fill:none" points="
  186.274,773.971 205.172,773.971 
  "/>
<polyline clip-path="url(#clip330)" style="stroke:#000000; stroke-linecap:butt; stroke-linejoin:round; stroke-width:4; stroke-opacity:1; fill:none" points="
  186.274,417.732 205.172,417.732 
  "/>
<polyline clip-path="url(#clip330)" style="stroke:#000000; stroke-linecap:butt; stroke-linejoin:round; stroke-width:4; stroke-opacity:1; fill:none" points="
  186.274,61.4936 205.172,61.4936 
  "/>
<path clip-path="url(#clip330)" d="M62.9365 1472.25 Q59.3254 1472.25 57.4967 1475.81 Q55.6912 1479.35 55.6912 1486.48 Q55.6912 1493.59 57.4967 1497.15 Q59.3254 1500.7 62.9365 1500.7 Q66.5707 1500.7 68.3763 1497.15 Q70.205 1493.59 70.205 1486.48 Q70.205 1479.35 68.3763 1475.81 Q66.5707 1472.25 62.9365 1472.25 M62.9365 1468.54 Q68.7467 1468.54 71.8022 1473.15 Q74.8809 1477.73 74.8809 1486.48 Q74.8809 1495.21 71.8022 1499.82 Q68.7467 1504.4 62.9365 1504.4 Q57.1264 1504.4 54.0477 1499.82 Q50.9921 1495.21 50.9921 1486.48 Q50.9921 1477.73 54.0477 1473.15 Q57.1264 1468.54 62.9365 1468.54 Z" fill="#000000" fill-rule="evenodd" fill-opacity="1" /><path clip-path="url(#clip330)" d="M83.0984 1497.85 L87.9827 1497.85 L87.9827 1503.73 L83.0984 1503.73 L83.0984 1497.85 Z" fill="#000000" fill-rule="evenodd" fill-opacity="1" /><path clip-path="url(#clip330)" d="M108.168 1472.25 Q104.557 1472.25 102.728 1475.81 Q100.922 1479.35 100.922 1486.48 Q100.922 1493.59 102.728 1497.15 Q104.557 1500.7 108.168 1500.7 Q111.802 1500.7 113.608 1497.15 Q115.436 1493.59 115.436 1486.48 Q115.436 1479.35 113.608 1475.81 Q111.802 1472.25 108.168 1472.25 M108.168 1468.54 Q113.978 1468.54 117.033 1473.15 Q120.112 1477.73 120.112 1486.48 Q120.112 1495.21 117.033 1499.82 Q113.978 1504.4 108.168 1504.4 Q102.358 1504.4 99.2789 1499.82 Q96.2234 1495.21 96.2234 1486.48 Q96.2234 1477.73 99.2789 1473.15 Q102.358 1468.54 108.168 1468.54 Z" fill="#000000" fill-rule="evenodd" fill-opacity="1" /><path clip-path="url(#clip330)" d="M138.33 1472.25 Q134.719 1472.25 132.89 1475.81 Q131.084 1479.35 131.084 1486.48 Q131.084 1493.59 132.89 1497.15 Q134.719 1500.7 138.33 1500.7 Q141.964 1500.7 143.769 1497.15 Q145.598 1493.59 145.598 1486.48 Q145.598 1479.35 143.769 1475.81 Q141.964 1472.25 138.33 1472.25 M138.33 1468.54 Q144.14 1468.54 147.195 1473.15 Q150.274 1477.73 150.274 1486.48 Q150.274 1495.21 147.195 1499.82 Q144.14 1504.4 138.33 1504.4 Q132.519 1504.4 129.441 1499.82 Q126.385 1495.21 126.385 1486.48 Q126.385 1477.73 129.441 1473.15 Q132.519 1468.54 138.33 1468.54 Z" fill="#000000" fill-rule="evenodd" fill-opacity="1" /><path clip-path="url(#clip330)" d="M63.9319 1116.01 Q60.3208 1116.01 58.4921 1119.57 Q56.6865 1123.11 56.6865 1130.24 Q56.6865 1137.35 58.4921 1140.92 Q60.3208 1144.46 63.9319 1144.46 Q67.5661 1144.46 69.3717 1140.92 Q71.2004 1137.35 71.2004 1130.24 Q71.2004 1123.11 69.3717 1119.57 Q67.5661 1116.01 63.9319 1116.01 M63.9319 1112.3 Q69.742 1112.3 72.7976 1116.91 Q75.8763 1121.49 75.8763 1130.24 Q75.8763 1138.97 72.7976 1143.58 Q69.742 1148.16 63.9319 1148.16 Q58.1217 1148.16 55.043 1143.58 Q51.9875 1138.97 51.9875 1130.24 Q51.9875 1121.49 55.043 1116.91 Q58.1217 1112.3 63.9319 1112.3 Z" fill="#000000" fill-rule="evenodd" fill-opacity="1" /><path clip-path="url(#clip330)" d="M84.0938 1141.61 L88.978 1141.61 L88.978 1147.49 L84.0938 1147.49 L84.0938 1141.61 Z" fill="#000000" fill-rule="evenodd" fill-opacity="1" /><path clip-path="url(#clip330)" d="M103.191 1143.55 L119.51 1143.55 L119.51 1147.49 L97.566 1147.49 L97.566 1143.55 Q100.228 1140.8 104.811 1136.17 Q109.418 1131.52 110.598 1130.17 Q112.844 1127.65 113.723 1125.92 Q114.626 1124.16 114.626 1122.47 Q114.626 1119.71 112.682 1117.98 Q110.76 1116.24 107.658 1116.24 Q105.459 1116.24 103.006 1117 Q100.575 1117.77 97.7974 1119.32 L97.7974 1114.6 Q100.621 1113.46 103.075 1112.88 Q105.529 1112.3 107.566 1112.3 Q112.936 1112.3 116.131 1114.99 Q119.325 1117.67 119.325 1122.17 Q119.325 1124.29 118.515 1126.22 Q117.728 1128.11 115.621 1130.71 Q115.043 1131.38 111.941 1134.6 Q108.839 1137.79 103.191 1143.55 Z" fill="#000000" fill-rule="evenodd" fill-opacity="1" /><path clip-path="url(#clip330)" d="M129.371 1112.93 L147.728 1112.93 L147.728 1116.86 L133.654 1116.86 L133.654 1125.34 Q134.672 1124.99 135.691 1124.83 Q136.709 1124.64 137.728 1124.64 Q143.515 1124.64 146.894 1127.81 Q150.274 1130.98 150.274 1136.4 Q150.274 1141.98 146.802 1145.08 Q143.33 1148.16 137.01 1148.16 Q134.834 1148.16 132.566 1147.79 Q130.32 1147.42 127.913 1146.68 L127.913 1141.98 Q129.996 1143.11 132.219 1143.67 Q134.441 1144.23 136.918 1144.23 Q140.922 1144.23 143.26 1142.12 Q145.598 1140.01 145.598 1136.4 Q145.598 1132.79 143.26 1130.68 Q140.922 1128.58 136.918 1128.58 Q135.043 1128.58 133.168 1128.99 Q131.316 1129.41 129.371 1130.29 L129.371 1112.93 Z" fill="#000000" fill-rule="evenodd" fill-opacity="1" /><path clip-path="url(#clip330)" d="M62.9365 759.769 Q59.3254 759.769 57.4967 763.334 Q55.6912 766.876 55.6912 774.005 Q55.6912 781.112 57.4967 784.677 Q59.3254 788.218 62.9365 788.218 Q66.5707 788.218 68.3763 784.677 Q70.205 781.112 70.205 774.005 Q70.205 766.876 68.3763 763.334 Q66.5707 759.769 62.9365 759.769 M62.9365 756.066 Q68.7467 756.066 71.8022 760.672 Q74.8809 765.256 74.8809 774.005 Q74.8809 782.732 71.8022 787.339 Q68.7467 791.922 62.9365 791.922 Q57.1264 791.922 54.0477 787.339 Q50.9921 782.732 50.9921 774.005 Q50.9921 765.256 54.0477 760.672 Q57.1264 756.066 62.9365 756.066 Z" fill="#000000" fill-rule="evenodd" fill-opacity="1" /><path clip-path="url(#clip330)" d="M83.0984 785.371 L87.9827 785.371 L87.9827 791.251 L83.0984 791.251 L83.0984 785.371 Z" fill="#000000" fill-rule="evenodd" fill-opacity="1" /><path clip-path="url(#clip330)" d="M98.2141 756.691 L116.57 756.691 L116.57 760.626 L102.496 760.626 L102.496 769.098 Q103.515 768.751 104.534 768.589 Q105.552 768.404 106.571 768.404 Q112.358 768.404 115.737 771.575 Q119.117 774.746 119.117 780.163 Q119.117 785.742 115.645 788.843 Q112.172 791.922 105.853 791.922 Q103.677 791.922 101.409 791.552 Q99.1632 791.181 96.7558 790.441 L96.7558 785.742 Q98.8391 786.876 101.061 787.431 Q103.284 787.987 105.76 787.987 Q109.765 787.987 112.103 785.88 Q114.441 783.774 114.441 780.163 Q114.441 776.552 112.103 774.445 Q109.765 772.339 105.76 772.339 Q103.885 772.339 102.01 772.755 Q100.159 773.172 98.2141 774.052 L98.2141 756.691 Z" fill="#000000" fill-rule="evenodd" fill-opacity="1" /><path clip-path="url(#clip330)" d="M138.33 759.769 Q134.719 759.769 132.89 763.334 Q131.084 766.876 131.084 774.005 Q131.084 781.112 132.89 784.677 Q134.719 788.218 138.33 788.218 Q141.964 788.218 143.769 784.677 Q145.598 781.112 145.598 774.005 Q145.598 766.876 143.769 763.334 Q141.964 759.769 138.33 759.769 M138.33 756.066 Q144.14 756.066 147.195 760.672 Q150.274 765.256 150.274 774.005 Q150.274 782.732 147.195 787.339 Q144.14 791.922 138.33 791.922 Q132.519 791.922 129.441 787.339 Q126.385 782.732 126.385 774.005 Q126.385 765.256 129.441 760.672 Q132.519 756.066 138.33 756.066 Z" fill="#000000" fill-rule="evenodd" fill-opacity="1" /><path clip-path="url(#clip330)" d="M63.9319 403.531 Q60.3208 403.531 58.4921 407.096 Q56.6865 410.637 56.6865 417.767 Q56.6865 424.873 58.4921 428.438 Q60.3208 431.98 63.9319 431.98 Q67.5661 431.98 69.3717 428.438 Q71.2004 424.873 71.2004 417.767 Q71.2004 410.637 69.3717 407.096 Q67.5661 403.531 63.9319 403.531 M63.9319 399.827 Q69.742 399.827 72.7976 404.434 Q75.8763 409.017 75.8763 417.767 Q75.8763 426.494 72.7976 431.1 Q69.742 435.683 63.9319 435.683 Q58.1217 435.683 55.043 431.1 Q51.9875 426.494 51.9875 417.767 Q51.9875 409.017 55.043 404.434 Q58.1217 399.827 63.9319 399.827 Z" fill="#000000" fill-rule="evenodd" fill-opacity="1" /><path clip-path="url(#clip330)" d="M84.0938 429.133 L88.978 429.133 L88.978 435.012 L84.0938 435.012 L84.0938 429.133 Z" fill="#000000" fill-rule="evenodd" fill-opacity="1" /><path clip-path="url(#clip330)" d="M97.9826 400.452 L120.205 400.452 L120.205 402.443 L107.658 435.012 L102.774 435.012 L114.58 404.387 L97.9826 404.387 L97.9826 400.452 Z" fill="#000000" fill-rule="evenodd" fill-opacity="1" /><path clip-path="url(#clip330)" d="M129.371 400.452 L147.728 400.452 L147.728 404.387 L133.654 404.387 L133.654 412.86 Q134.672 412.512 135.691 412.35 Q136.709 412.165 137.728 412.165 Q143.515 412.165 146.894 415.336 Q150.274 418.508 150.274 423.924 Q150.274 429.503 146.802 432.605 Q143.33 435.683 137.01 435.683 Q134.834 435.683 132.566 435.313 Q130.32 434.943 127.913 434.202 L127.913 429.503 Q129.996 430.637 132.219 431.193 Q134.441 431.748 136.918 431.748 Q140.922 431.748 143.26 429.642 Q145.598 427.535 145.598 423.924 Q145.598 420.313 143.26 418.207 Q140.922 416.1 136.918 416.1 Q135.043 416.1 133.168 416.517 Q131.316 416.934 129.371 417.813 L129.371 400.452 Z" fill="#000000" fill-rule="evenodd" fill-opacity="1" /><path clip-path="url(#clip330)" d="M53.7467 74.8385 L61.3856 74.8385 L61.3856 48.4729 L53.0754 50.1395 L53.0754 45.8803 L61.3393 44.2136 L66.0152 44.2136 L66.0152 74.8385 L73.654 74.8385 L73.654 78.7736 L53.7467 78.7736 L53.7467 74.8385 Z" fill="#000000" fill-rule="evenodd" fill-opacity="1" /><path clip-path="url(#clip330)" d="M83.0984 72.894 L87.9827 72.894 L87.9827 78.7736 L83.0984 78.7736 L83.0984 72.894 Z" fill="#000000" fill-rule="evenodd" fill-opacity="1" /><path clip-path="url(#clip330)" d="M108.168 47.2923 Q104.557 47.2923 102.728 50.8571 Q100.922 54.3988 100.922 61.5284 Q100.922 68.6348 102.728 72.1996 Q104.557 75.7412 108.168 75.7412 Q111.802 75.7412 113.608 72.1996 Q115.436 68.6348 115.436 61.5284 Q115.436 54.3988 113.608 50.8571 Q111.802 47.2923 108.168 47.2923 M108.168 43.5886 Q113.978 43.5886 117.033 48.1951 Q120.112 52.7784 120.112 61.5284 Q120.112 70.2552 117.033 74.8616 Q113.978 79.4449 108.168 79.4449 Q102.358 79.4449 99.2789 74.8616 Q96.2234 70.2552 96.2234 61.5284 Q96.2234 52.7784 99.2789 48.1951 Q102.358 43.5886 108.168 43.5886 Z" fill="#000000" fill-rule="evenodd" fill-opacity="1" /><path clip-path="url(#clip330)" d="M138.33 47.2923 Q134.719 47.2923 132.89 50.8571 Q131.084 54.3988 131.084 61.5284 Q131.084 68.6348 132.89 72.1996 Q134.719 75.7412 138.33 75.7412 Q141.964 75.7412 143.769 72.1996 Q145.598 68.6348 145.598 61.5284 Q145.598 54.3988 143.769 50.8571 Q141.964 47.2923 138.33 47.2923 M138.33 43.5886 Q144.14 43.5886 147.195 48.1951 Q150.274 52.7784 150.274 61.5284 Q150.274 70.2552 147.195 74.8616 Q144.14 79.4449 138.33 79.4449 Q132.519 79.4449 129.441 74.8616 Q126.385 70.2552 126.385 61.5284 Q126.385 52.7784 129.441 48.1951 Q132.519 43.5886 138.33 43.5886 Z" fill="#000000" fill-rule="evenodd" fill-opacity="1" /><polyline clip-path="url(#clip332)" style="stroke:#e26f46; stroke-linecap:butt; stroke-linejoin:round; stroke-width:12; stroke-opacity:1; fill:none" points="
  908.435,61.4936 980.651,95.0455 1052.87,124.986 1125.08,151.959 1197.3,176.455 1269.51,198.856 1341.73,219.464 1413.95,238.522 1486.16,256.228 1558.38,272.745 
  1630.6,288.209 1702.81,302.736 1775.03,316.423 1847.24,329.353 1919.46,341.599 1991.68,353.223 2063.89,364.281 2136.11,374.819 2208.32,384.88 2280.54,394.501 
  2352.76,403.717 
  "/>
<polyline clip-path="url(#clip332)" style="stroke:#000000; stroke-linecap:butt; stroke-linejoin:round; stroke-width:8; stroke-opacity:0.5; fill:none" stroke-dasharray="32, 20" points="
  908.435,2925.65 908.435,-1391.96 
  "/>
<polyline clip-path="url(#clip332)" style="stroke:#e26f46; stroke-linecap:butt; stroke-linejoin:round; stroke-width:12; stroke-opacity:1; fill:none" points="
  186.274,61.4936 258.49,61.4936 330.706,61.4936 402.922,61.4936 475.138,61.4936 547.354,61.4936 619.57,61.4936 691.786,61.4936 764.003,61.4936 836.219,61.4936 
  908.435,61.4936 
  "/>
<polyline clip-path="url(#clip332)" style="stroke:#e26f46; stroke-linecap:butt; stroke-linejoin:round; stroke-width:12; stroke-opacity:1; fill:none" points="
  186.274,61.4936 258.49,61.4936 330.706,61.4936 402.922,61.4936 475.138,61.4936 547.354,61.4936 619.57,61.4936 691.786,61.4936 764.003,61.4936 836.219,61.4936 
  908.435,61.4936 
  "/>
<polyline clip-path="url(#clip332)" style="stroke:#e26f46; stroke-linecap:butt; stroke-linejoin:round; stroke-width:12; stroke-opacity:1; fill:none" points="
  186.274,61.4936 258.49,61.4936 330.706,61.4936 402.922,61.4936 475.138,61.4936 547.354,61.4936 619.57,61.4936 691.786,61.4936 764.003,61.4936 836.219,61.4936 
  908.435,61.4936 
  "/>
<polyline clip-path="url(#clip332)" style="stroke:#e26f46; stroke-linecap:butt; stroke-linejoin:round; stroke-width:12; stroke-opacity:1; fill:none" points="
  186.274,61.4936 258.49,61.4936 330.706,61.4936 402.922,61.4936 475.138,61.4936 547.354,61.4936 619.57,61.4936 691.786,61.4936 764.003,61.4936 836.219,61.4936 
  908.435,61.4936 
  "/>
</svg>
