<?xml version="1.0" encoding="utf-8"?>
<svg xmlns="http://www.w3.org/2000/svg" xmlns:xlink="http://www.w3.org/1999/xlink" width="600" height="400" viewBox="0 0 2400 1600">
<defs>
  <clipPath id="clip250">
    <rect x="0" y="0" width="2400" height="1600"/>
  </clipPath>
</defs>
<path clip-path="url(#clip250)" d="
M0 1600 L2400 1600 L2400 0 L0 0  Z
  " fill="#ffffff" fill-rule="evenodd" fill-opacity="1"/>
<defs>
  <clipPath id="clip251">
    <rect x="480" y="0" width="1681" height="1600"/>
  </clipPath>
</defs>
<defs>
  <clipPath id="clip252">
    <rect x="231" y="47" width="2122" height="1365"/>
  </clipPath>
</defs>
<path clip-path="url(#clip250)" d="
M231.336 1411.22 L2352.76 1411.22 L2352.76 47.2441 L231.336 47.2441  Z
  " fill="#ffffff" fill-rule="evenodd" fill-opacity="1"/>
<polyline clip-path="url(#clip250)" style="stroke:#000000; stroke-linecap:butt; stroke-linejoin:round; stroke-width:4; stroke-opacity:1; fill:none" points="
  231.336,1411.22 2352.76,1411.22 
  "/>
<polyline clip-path="url(#clip250)" style="stroke:#000000; stroke-linecap:butt; stroke-linejoin:round; stroke-width:4; stroke-opacity:1; fill:none" points="
  273.016,1411.22 273.016,1392.33 
  "/>
<polyline clip-path="url(#clip250)" style="stroke:#000000; stroke-linecap:butt; stroke-linejoin:round; stroke-width:4; stroke-opacity:1; fill:none" points="
  732.038,1411.22 732.038,1392.33 
  "/>
<polyline clip-path="url(#clip250)" style="stroke:#000000; stroke-linecap:butt; stroke-linejoin:round; stroke-width:4; stroke-opacity:1; fill:none" points="
  1191.06,1411.22 1191.06,1392.33 
  "/>
<polyline clip-path="url(#clip250)" style="stroke:#000000; stroke-linecap:butt; stroke-linejoin:round; stroke-width:4; stroke-opacity:1; fill:none" points="
  1650.08,1411.22 1650.08,1392.33 
  "/>
<polyline clip-path="url(#clip250)" style="stroke:#000000; stroke-linecap:butt; stroke-linejoin:round; stroke-width:4; stroke-opacity:1; fill:none" points="
  2109.11,1411.22 2109.11,1392.33 
  "/>
<path clip-path="url(#clip250)" d="M250.4 1442.14 Q246.789 1442.14 244.96 1445.71 Q243.155 1449.25 243.155 1456.38 Q243.155 1463.48 244.96 1467.05 Q246.789 1470.59 250.4 1470.59 Q254.034 1470.59 255.84 1467.05 Q257.669 1463.48 257.669 1456.38 Q257.669 1449.25 255.84 1445.71 Q254.034 1442.14 250.4 1442.14 M250.4 1438.44 Q256.21 1438.44 259.266 1443.05 Q262.344 1447.63 262.344 1456.38 Q262.344 1465.11 259.266 1469.71 Q256.21 1474.29 250.4 1474.29 Q244.59 1474.29 241.511 1469.71 Q238.456 1465.11 238.456 1456.38 Q238.456 1447.63 241.511 1443.05 Q244.59 1438.44 250.4 1438.44 Z" fill="#000000" fill-rule="evenodd" fill-opacity="1" /><path clip-path="url(#clip250)" d="M270.562 1467.74 L275.446 1467.74 L275.446 1473.62 L270.562 1473.62 L270.562 1467.74 Z" fill="#000000" fill-rule="evenodd" fill-opacity="1" /><path clip-path="url(#clip250)" d="M295.631 1442.14 Q292.02 1442.14 290.192 1445.71 Q288.386 1449.25 288.386 1456.38 Q288.386 1463.48 290.192 1467.05 Q292.02 1470.59 295.631 1470.59 Q299.266 1470.59 301.071 1467.05 Q302.9 1463.48 302.9 1456.38 Q302.9 1449.25 301.071 1445.71 Q299.266 1442.14 295.631 1442.14 M295.631 1438.44 Q301.441 1438.44 304.497 1443.05 Q307.576 1447.63 307.576 1456.38 Q307.576 1465.11 304.497 1469.71 Q301.441 1474.29 295.631 1474.29 Q289.821 1474.29 286.742 1469.71 Q283.687 1465.11 283.687 1456.38 Q283.687 1447.63 286.742 1443.05 Q289.821 1438.44 295.631 1438.44 Z" fill="#000000" fill-rule="evenodd" fill-opacity="1" /><path clip-path="url(#clip250)" d="M703.775 1469.69 L720.094 1469.69 L720.094 1473.62 L698.15 1473.62 L698.15 1469.69 Q700.812 1466.93 705.395 1462.3 Q710.002 1457.65 711.182 1456.31 Q713.427 1453.79 714.307 1452.05 Q715.21 1450.29 715.21 1448.6 Q715.21 1445.85 713.265 1444.11 Q711.344 1442.37 708.242 1442.37 Q706.043 1442.37 703.59 1443.14 Q701.159 1443.9 698.381 1445.45 L698.381 1440.73 Q701.205 1439.6 703.659 1439.02 Q706.113 1438.44 708.15 1438.44 Q713.52 1438.44 716.714 1441.12 Q719.909 1443.81 719.909 1448.3 Q719.909 1450.43 719.099 1452.35 Q718.312 1454.25 716.205 1456.84 Q715.626 1457.51 712.525 1460.73 Q709.423 1463.92 703.775 1469.69 Z" fill="#000000" fill-rule="evenodd" fill-opacity="1" /><path clip-path="url(#clip250)" d="M729.909 1467.74 L734.793 1467.74 L734.793 1473.62 L729.909 1473.62 L729.909 1467.74 Z" fill="#000000" fill-rule="evenodd" fill-opacity="1" /><path clip-path="url(#clip250)" d="M745.024 1439.06 L763.381 1439.06 L763.381 1443 L749.307 1443 L749.307 1451.47 Q750.325 1451.12 751.344 1450.96 Q752.362 1450.78 753.381 1450.78 Q759.168 1450.78 762.548 1453.95 Q765.927 1457.12 765.927 1462.54 Q765.927 1468.11 762.455 1471.22 Q758.983 1474.29 752.663 1474.29 Q750.487 1474.29 748.219 1473.92 Q745.974 1473.55 743.566 1472.81 L743.566 1468.11 Q745.649 1469.25 747.872 1469.8 Q750.094 1470.36 752.571 1470.36 Q756.575 1470.36 758.913 1468.25 Q761.251 1466.15 761.251 1462.54 Q761.251 1458.92 758.913 1456.82 Q756.575 1454.71 752.571 1454.71 Q750.696 1454.71 748.821 1455.13 Q746.969 1455.54 745.024 1456.42 L745.024 1439.06 Z" fill="#000000" fill-rule="evenodd" fill-opacity="1" /><path clip-path="url(#clip250)" d="M1158.23 1439.06 L1176.58 1439.06 L1176.58 1443 L1162.51 1443 L1162.51 1451.47 Q1163.53 1451.12 1164.55 1450.96 Q1165.56 1450.78 1166.58 1450.78 Q1172.37 1450.78 1175.75 1453.95 Q1179.13 1457.12 1179.13 1462.54 Q1179.13 1468.11 1175.66 1471.22 Q1172.18 1474.29 1165.86 1474.29 Q1163.69 1474.29 1161.42 1473.92 Q1159.17 1473.55 1156.77 1472.81 L1156.77 1468.11 Q1158.85 1469.25 1161.07 1469.8 Q1163.3 1470.36 1165.77 1470.36 Q1169.78 1470.36 1172.11 1468.25 Q1174.45 1466.15 1174.45 1462.54 Q1174.45 1458.92 1172.11 1456.82 Q1169.78 1454.71 1165.77 1454.71 Q1163.9 1454.71 1162.02 1455.13 Q1160.17 1455.54 1158.23 1456.42 L1158.23 1439.06 Z" fill="#000000" fill-rule="evenodd" fill-opacity="1" /><path clip-path="url(#clip250)" d="M1188.34 1467.74 L1193.23 1467.74 L1193.23 1473.62 L1188.34 1473.62 L1188.34 1467.74 Z" fill="#000000" fill-rule="evenodd" fill-opacity="1" /><path clip-path="url(#clip250)" d="M1213.41 1442.14 Q1209.8 1442.14 1207.97 1445.71 Q1206.17 1449.25 1206.17 1456.38 Q1206.17 1463.48 1207.97 1467.05 Q1209.8 1470.59 1213.41 1470.59 Q1217.04 1470.59 1218.85 1467.05 Q1220.68 1463.48 1220.68 1456.38 Q1220.68 1449.25 1218.85 1445.71 Q1217.04 1442.14 1213.41 1442.14 M1213.41 1438.44 Q1219.22 1438.44 1222.28 1443.05 Q1225.35 1447.63 1225.35 1456.38 Q1225.35 1465.11 1222.28 1469.71 Q1219.22 1474.29 1213.41 1474.29 Q1207.6 1474.29 1204.52 1469.71 Q1201.47 1465.11 1201.47 1456.38 Q1201.47 1447.63 1204.52 1443.05 Q1207.6 1438.44 1213.41 1438.44 Z" fill="#000000" fill-rule="evenodd" fill-opacity="1" /><path clip-path="url(#clip250)" d="M1616.4 1439.06 L1638.63 1439.06 L1638.63 1441.05 L1626.08 1473.62 L1621.2 1473.62 L1633 1443 L1616.4 1443 L1616.4 1439.06 Z" fill="#000000" fill-rule="evenodd" fill-opacity="1" /><path clip-path="url(#clip250)" d="M1647.75 1467.74 L1652.63 1467.74 L1652.63 1473.62 L1647.75 1473.62 L1647.75 1467.74 Z" fill="#000000" fill-rule="evenodd" fill-opacity="1" /><path clip-path="url(#clip250)" d="M1662.86 1439.06 L1681.22 1439.06 L1681.22 1443 L1667.14 1443 L1667.14 1451.47 Q1668.16 1451.12 1669.18 1450.96 Q1670.2 1450.78 1671.22 1450.78 Q1677.01 1450.78 1680.38 1453.95 Q1683.76 1457.12 1683.76 1462.54 Q1683.76 1468.11 1680.29 1471.22 Q1676.82 1474.29 1670.5 1474.29 Q1668.32 1474.29 1666.06 1473.92 Q1663.81 1473.55 1661.4 1472.81 L1661.4 1468.11 Q1663.49 1469.25 1665.71 1469.8 Q1667.93 1470.36 1670.41 1470.36 Q1674.41 1470.36 1676.75 1468.25 Q1679.09 1466.15 1679.09 1462.54 Q1679.09 1458.92 1676.75 1456.82 Q1674.41 1454.71 1670.41 1454.71 Q1668.53 1454.71 1666.66 1455.13 Q1664.81 1455.54 1662.86 1456.42 L1662.86 1439.06 Z" fill="#000000" fill-rule="evenodd" fill-opacity="1" /><path clip-path="url(#clip250)" d="M2061.18 1469.69 L2068.82 1469.69 L2068.82 1443.32 L2060.51 1444.99 L2060.51 1440.73 L2068.77 1439.06 L2073.45 1439.06 L2073.45 1469.69 L2081.09 1469.69 L2081.09 1473.62 L2061.18 1473.62 L2061.18 1469.69 Z" fill="#000000" fill-rule="evenodd" fill-opacity="1" /><path clip-path="url(#clip250)" d="M2100.53 1442.14 Q2096.92 1442.14 2095.09 1445.71 Q2093.28 1449.25 2093.28 1456.38 Q2093.28 1463.48 2095.09 1467.05 Q2096.92 1470.59 2100.53 1470.59 Q2104.16 1470.59 2105.97 1467.05 Q2107.8 1463.48 2107.8 1456.38 Q2107.8 1449.25 2105.97 1445.71 Q2104.16 1442.14 2100.53 1442.14 M2100.53 1438.44 Q2106.34 1438.44 2109.4 1443.05 Q2112.47 1447.63 2112.47 1456.38 Q2112.47 1465.11 2109.4 1469.71 Q2106.34 1474.29 2100.53 1474.29 Q2094.72 1474.29 2091.64 1469.71 Q2088.59 1465.11 2088.59 1456.38 Q2088.59 1447.63 2091.64 1443.05 Q2094.72 1438.44 2100.53 1438.44 Z" fill="#000000" fill-rule="evenodd" fill-opacity="1" /><path clip-path="url(#clip250)" d="M2120.69 1467.74 L2125.58 1467.74 L2125.58 1473.62 L2120.69 1473.62 L2120.69 1467.74 Z" fill="#000000" fill-rule="evenodd" fill-opacity="1" /><path clip-path="url(#clip250)" d="M2145.76 1442.14 Q2142.15 1442.14 2140.32 1445.71 Q2138.52 1449.25 2138.52 1456.38 Q2138.52 1463.48 2140.32 1467.05 Q2142.15 1470.59 2145.76 1470.59 Q2149.4 1470.59 2151.2 1467.05 Q2153.03 1463.48 2153.03 1456.38 Q2153.03 1449.25 2151.2 1445.71 Q2149.4 1442.14 2145.76 1442.14 M2145.76 1438.44 Q2151.57 1438.44 2154.63 1443.05 Q2157.71 1447.63 2157.71 1456.38 Q2157.71 1465.11 2154.63 1469.71 Q2151.57 1474.29 2145.76 1474.29 Q2139.95 1474.29 2136.87 1469.71 Q2133.82 1465.11 2133.82 1456.38 Q2133.82 1447.63 2136.87 1443.05 Q2139.95 1438.44 2145.76 1438.44 Z" fill="#000000" fill-rule="evenodd" fill-opacity="1" /><path clip-path="url(#clip250)" d="M1099.35 1562.84 Q1099.35 1567.48 1097 1572.02 Q1094.68 1576.53 1090.94 1579.36 Q1087.24 1582.19 1083.44 1582.19 Q1079.73 1582.19 1077.38 1579.36 Q1075.06 1576.49 1075.06 1571.82 Q1075.06 1570.18 1075.26 1569.02 Q1075.45 1567.86 1076.13 1565.16 L1081.54 1543.64 Q1082.47 1539.62 1082.47 1539.59 Q1082.47 1539.2 1082.31 1539.01 Q1082.18 1538.78 1081.41 1538.62 Q1080.63 1538.46 1079.15 1538.46 Q1078.54 1538.46 1078.25 1538.43 Q1077.99 1538.39 1077.77 1538.23 Q1077.58 1538.04 1077.58 1537.65 Q1077.58 1537.11 1077.8 1536.82 Q1078.06 1536.49 1078.25 1536.43 Q1078.44 1536.37 1078.83 1536.33 Q1079.38 1536.3 1081.21 1536.14 Q1083.05 1535.95 1084.63 1535.82 Q1086.21 1535.69 1086.88 1535.69 Q1087.27 1535.69 1087.46 1535.88 Q1087.69 1536.04 1087.69 1536.24 L1087.72 1536.4 L1082.86 1556.27 Q1086.69 1552.31 1090.59 1552.31 Q1094.48 1552.31 1096.9 1555.3 Q1099.35 1558.3 1099.35 1562.84 M1094.58 1559.94 Q1094.58 1556.88 1093.42 1555.33 Q1092.29 1553.76 1090.43 1553.76 Q1088.85 1553.76 1086.79 1554.95 Q1084.72 1556.14 1082.53 1559.04 Q1082.12 1559.59 1081.96 1559.91 Q1081.83 1560.23 1081.54 1561.33 L1080.09 1567.41 Q1079.02 1571.57 1079.02 1574.08 Q1079.02 1577.49 1080.28 1579.1 Q1081.54 1580.71 1083.44 1580.71 Q1085.43 1580.71 1087.53 1578.94 Q1089.62 1577.17 1091.23 1573.95 Q1092.23 1571.82 1093.39 1567.25 Q1094.58 1562.65 1094.58 1559.94 Z" fill="#000000" fill-rule="evenodd" fill-opacity="1" /><path clip-path="url(#clip250)" d="M1118.96 1522.51 Q1118.96 1521.72 1120.02 1521.2 L1126.45 1518.16 L1119.93 1515.12 Q1118.96 1514.66 1118.96 1513.88 Q1118.96 1513.42 1119.32 1513.02 Q1119.71 1512.59 1120.2 1512.59 Q1120.56 1512.59 1121.22 1513.09 L1126.94 1517.23 Q1126.24 1509.62 1126.27 1509.39 Q1126.27 1508.94 1126.6 1508.6 Q1126.94 1508.24 1127.51 1508.24 Q1127.96 1508.24 1128.32 1508.58 Q1128.7 1508.89 1128.7 1509.39 L1128.02 1517.23 L1133.14 1513.45 Q1134.34 1512.57 1134.77 1512.59 Q1135.28 1512.59 1135.64 1513 Q1136.01 1513.4 1136.01 1513.88 Q1136.01 1514.66 1134.95 1515.16 L1128.52 1518.2 L1135.04 1521.27 Q1136.01 1521.72 1136.01 1522.51 Q1136.01 1522.96 1135.62 1523.39 Q1135.26 1523.8 1134.77 1523.8 Q1134.49 1523.8 1134.02 1523.52 Q1133.93 1523.48 1132.96 1522.76 Q1131.99 1522.04 1130.48 1520.93 Q1128.99 1519.83 1128.02 1519.13 Q1128.72 1526.75 1128.7 1526.97 Q1128.7 1527.42 1128.36 1527.79 Q1128.02 1528.15 1127.46 1528.15 Q1127.01 1528.15 1126.63 1527.83 Q1126.27 1527.49 1126.27 1526.97 L1126.94 1519.13 L1120.49 1523.8 Q1119.8 1523.8 1119.41 1523.46 Q1119.05 1523.1 1119.01 1522.89 Q1118.96 1522.69 1118.96 1522.51 Z" fill="#000000" fill-rule="evenodd" fill-opacity="1" /><path clip-path="url(#clip250)" d="M1161.68 1564.96 Q1161.68 1553.82 1165.83 1544.84 Q1167.6 1541.07 1170.08 1537.91 Q1172.56 1534.76 1174.21 1533.37 Q1175.85 1531.99 1176.3 1531.99 Q1176.94 1531.99 1176.98 1532.63 Q1176.98 1532.95 1176.11 1533.76 Q1165.48 1544.58 1165.51 1564.96 Q1165.51 1585.42 1175.85 1595.82 Q1176.98 1596.94 1176.98 1597.3 Q1176.98 1597.94 1176.3 1597.94 Q1175.85 1597.94 1174.27 1596.62 Q1172.69 1595.3 1170.25 1592.28 Q1167.8 1589.25 1166.03 1585.54 Q1161.68 1576.56 1161.68 1564.96 Z" fill="#000000" fill-rule="evenodd" fill-opacity="1" /><path clip-path="url(#clip250)" d="M1183.31 1581.45 L1183.31 1579.42 Q1186.82 1579.42 1187.63 1579.01 Q1188.43 1578.56 1188.43 1576.43 L1188.43 1542.13 Q1188.43 1539.68 1187.56 1539.07 Q1186.72 1538.46 1183.31 1538.46 L1183.31 1536.4 L1192.78 1535.69 L1192.78 1576.43 Q1192.78 1578.56 1193.62 1579.01 Q1194.45 1579.42 1197.93 1579.42 L1197.93 1581.45 Q1197.13 1581.45 1195.45 1581.39 Q1193.78 1581.33 1192.55 1581.29 Q1191.33 1581.26 1190.62 1581.26 Q1189.85 1581.26 1183.31 1581.45 Z" fill="#000000" fill-rule="evenodd" fill-opacity="1" /><path clip-path="url(#clip250)" d="M1207.86 1577.91 Q1203.51 1573.6 1203.51 1567.35 Q1203.51 1561.07 1207.76 1556.49 Q1212.04 1551.89 1218.16 1551.89 Q1224.15 1551.89 1228.44 1556.46 Q1232.75 1561 1232.75 1567.35 Q1232.75 1573.56 1228.4 1577.88 Q1224.09 1582.19 1218.1 1582.19 Q1212.24 1582.19 1207.86 1577.91 M1208.98 1566.8 Q1208.98 1573.21 1210.66 1576.11 Q1213.23 1580.52 1218.16 1580.52 Q1220.61 1580.52 1222.64 1579.2 Q1224.7 1577.88 1225.83 1575.66 Q1227.28 1572.76 1227.28 1566.8 Q1227.28 1560.46 1225.54 1557.65 Q1222.96 1553.37 1218.1 1553.37 Q1215.97 1553.37 1213.88 1554.5 Q1211.82 1555.59 1210.56 1557.78 Q1208.98 1560.68 1208.98 1566.8 Z" fill="#000000" fill-rule="evenodd" fill-opacity="1" /><path clip-path="url(#clip250)" d="M1233.8 1586.67 Q1233.8 1584.55 1235.41 1582.71 Q1237.05 1580.87 1239.88 1580.07 Q1236.98 1578.23 1236.98 1574.21 Q1236.98 1571.12 1239.01 1568.73 Q1235.92 1566.16 1235.92 1561.94 Q1235.92 1558.04 1239.01 1555.17 Q1242.11 1552.31 1246.61 1552.31 Q1250.58 1552.31 1253.6 1554.69 Q1256.76 1551.6 1260.59 1551.57 Q1262.3 1551.57 1263.1 1552.63 Q1263.94 1553.69 1263.94 1554.82 Q1263.94 1555.82 1263.3 1556.3 Q1262.69 1556.78 1262.04 1556.78 Q1261.24 1556.78 1260.66 1556.27 Q1260.11 1555.72 1260.11 1554.88 Q1260.11 1553.5 1261.17 1553.08 Q1260.98 1553.02 1260.53 1553.02 Q1257.31 1553.02 1254.57 1555.59 Q1257.27 1558.1 1257.27 1562 Q1257.27 1565.9 1254.18 1568.76 Q1251.09 1571.63 1246.61 1571.63 Q1242.91 1571.63 1240.08 1569.57 Q1238.95 1570.89 1238.95 1572.69 Q1238.95 1574.34 1239.95 1575.62 Q1240.95 1576.91 1242.46 1577.11 Q1242.91 1577.17 1247.39 1577.17 Q1250.03 1577.17 1251.48 1577.23 Q1252.93 1577.3 1254.99 1577.75 Q1257.08 1578.17 1258.72 1579.01 Q1263.01 1581.39 1263.04 1586.54 Q1263.04 1590.31 1258.69 1592.66 Q1254.38 1595.04 1248.39 1595.04 Q1242.33 1595.04 1238.05 1592.63 Q1233.8 1590.25 1233.8 1586.67 M1237.24 1586.67 Q1237.24 1589.38 1240.43 1591.44 Q1243.62 1593.53 1248.45 1593.53 Q1253.18 1593.53 1256.37 1591.47 Q1259.59 1589.44 1259.59 1586.67 Q1259.59 1584.71 1258.47 1583.45 Q1257.34 1582.19 1255.02 1581.68 Q1252.73 1581.2 1251.12 1581.1 Q1249.51 1581 1246.55 1581 L1242.65 1581 Q1240.4 1581.13 1238.82 1582.77 Q1237.24 1584.42 1237.24 1586.67 M1240.85 1562 Q1240.85 1570.12 1246.61 1570.12 Q1249.51 1570.12 1251.28 1567.48 Q1252.35 1565.71 1252.35 1561.94 Q1252.35 1553.82 1246.61 1553.82 Q1243.72 1553.82 1241.91 1556.46 Q1240.85 1558.23 1240.85 1562 Z" fill="#000000" fill-rule="evenodd" fill-opacity="1" /><path clip-path="url(#clip250)" d="M1273.06 1543.81 L1273.06 1541.74 Q1280.98 1541.74 1285.07 1537.53 Q1286.2 1537.53 1286.39 1537.78 Q1286.59 1538.04 1286.59 1539.23 L1286.59 1576.24 Q1286.59 1578.2 1287.55 1578.81 Q1288.52 1579.42 1292.74 1579.42 L1294.83 1579.42 L1294.83 1581.45 Q1292.51 1581.26 1284.14 1581.26 Q1275.77 1581.26 1273.48 1581.45 L1273.48 1579.42 L1275.57 1579.42 Q1279.73 1579.42 1280.73 1578.85 Q1281.72 1578.23 1281.72 1576.24 L1281.72 1542.07 Q1278.28 1543.81 1273.06 1543.81 Z" fill="#000000" fill-rule="evenodd" fill-opacity="1" /><path clip-path="url(#clip250)" d="M1298.1 1560.36 Q1298.1 1550.67 1300.55 1545.38 Q1303.96 1537.53 1312.01 1537.53 Q1313.72 1537.53 1315.49 1538.01 Q1317.29 1538.46 1319.55 1540.23 Q1321.83 1542 1323.22 1544.9 Q1325.86 1550.5 1325.86 1560.36 Q1325.86 1569.99 1323.41 1575.24 Q1319.84 1582.9 1311.95 1582.9 Q1308.98 1582.9 1305.96 1581.39 Q1302.96 1579.88 1301.06 1576.24 Q1298.1 1570.79 1298.1 1560.36 M1303.57 1559.55 Q1303.57 1569.51 1304.28 1573.47 Q1305.09 1577.75 1307.28 1579.62 Q1309.5 1581.45 1311.95 1581.45 Q1314.59 1581.45 1316.78 1579.49 Q1319 1577.49 1319.68 1573.21 Q1320.42 1568.99 1320.39 1559.55 Q1320.39 1550.38 1319.74 1546.7 Q1318.87 1542.42 1316.55 1540.71 Q1314.27 1538.97 1311.95 1538.97 Q1311.08 1538.97 1310.14 1539.23 Q1309.24 1539.49 1307.92 1540.23 Q1306.6 1540.97 1305.57 1542.81 Q1304.57 1544.64 1304.09 1547.41 Q1303.57 1550.99 1303.57 1559.55 Z" fill="#000000" fill-rule="evenodd" fill-opacity="1" /><path clip-path="url(#clip250)" d="M1348.19 1580.58 L1348.19 1571.89 Q1348.19 1571.15 1348.23 1570.89 Q1348.26 1570.63 1348.45 1570.44 Q1348.64 1570.25 1349.03 1570.25 Q1349.48 1570.25 1349.64 1570.44 Q1349.84 1570.63 1349.96 1571.37 Q1350.96 1575.91 1353.09 1578.33 Q1355.25 1580.71 1359.14 1580.71 Q1362.85 1580.71 1364.72 1579.07 Q1366.58 1577.43 1366.58 1574.72 Q1366.58 1569.89 1359.72 1568.67 Q1355.76 1567.86 1354.12 1567.35 Q1352.48 1566.8 1351.03 1565.61 Q1348.19 1563.29 1348.19 1560 Q1348.19 1556.72 1350.67 1554.3 Q1353.19 1551.89 1358.72 1551.89 Q1362.43 1551.89 1364.94 1553.76 Q1365.68 1553.18 1366.07 1552.69 Q1366.94 1551.89 1367.39 1551.89 Q1367.9 1551.89 1368 1552.24 Q1368.1 1552.57 1368.1 1553.5 L1368.1 1560.13 Q1368.1 1560.87 1368.06 1561.13 Q1368.03 1561.39 1367.84 1561.58 Q1367.65 1561.74 1367.23 1561.74 Q1366.49 1561.74 1366.45 1561.13 Q1365.94 1553.14 1358.72 1553.14 Q1354.83 1553.14 1353.09 1554.66 Q1351.35 1556.14 1351.35 1558.17 Q1351.35 1559.3 1351.87 1560.17 Q1352.41 1561 1353.09 1561.52 Q1353.8 1562 1355.09 1562.48 Q1356.37 1562.94 1357.15 1563.1 Q1357.95 1563.26 1359.47 1563.58 Q1364.75 1564.58 1366.97 1566.74 Q1369.74 1569.51 1369.74 1573.02 Q1369.74 1576.91 1367.1 1579.55 Q1364.46 1582.19 1359.14 1582.19 Q1354.86 1582.19 1351.87 1579.33 Q1351.48 1579.71 1351.19 1580.07 Q1350.9 1580.39 1350.77 1580.52 Q1350.67 1580.65 1350.64 1580.75 Q1350.61 1580.81 1350.54 1580.87 Q1349.22 1582.19 1348.9 1582.19 Q1348.39 1582.19 1348.29 1581.84 Q1348.19 1581.52 1348.19 1580.58 Z" fill="#000000" fill-rule="evenodd" fill-opacity="1" /><path clip-path="url(#clip250)" d="M1377.83 1577.85 Q1373.64 1573.47 1373.64 1567.22 Q1373.64 1560.94 1377.76 1556.43 Q1381.88 1551.89 1387.94 1551.89 Q1391.96 1551.89 1394.99 1553.82 Q1398.02 1555.72 1398.02 1558.97 Q1398.02 1560.42 1397.15 1561.26 Q1396.31 1562.07 1394.99 1562.07 Q1393.61 1562.07 1392.77 1561.23 Q1391.96 1560.36 1391.96 1559.04 Q1391.96 1558.46 1392.16 1557.88 Q1392.35 1557.3 1393.06 1556.69 Q1393.8 1556.08 1395.06 1555.98 Q1392.71 1553.56 1388.13 1553.56 Q1388.07 1553.56 1388 1553.56 Q1384.65 1553.56 1381.88 1556.72 Q1379.11 1559.88 1379.11 1567.09 Q1379.11 1570.86 1380.02 1573.63 Q1380.95 1576.37 1382.46 1577.78 Q1383.98 1579.2 1385.46 1579.88 Q1386.94 1580.52 1388.39 1580.52 Q1394.86 1580.52 1397.05 1573.6 Q1397.25 1572.95 1397.89 1572.95 Q1398.76 1572.95 1398.76 1573.6 Q1398.76 1573.92 1398.5 1574.76 Q1398.25 1575.59 1397.44 1576.91 Q1396.63 1578.23 1395.48 1579.39 Q1394.35 1580.52 1392.32 1581.36 Q1390.32 1582.19 1387.81 1582.19 Q1382.01 1582.19 1377.83 1577.85 Z" fill="#000000" fill-rule="evenodd" fill-opacity="1" /><path clip-path="url(#clip250)" d="M1402.11 1575.17 Q1402.11 1569.57 1408.71 1566.61 Q1412.67 1564.71 1420.85 1564.22 L1420.85 1561.81 Q1420.85 1557.72 1418.69 1555.56 Q1416.57 1553.37 1413.86 1553.37 Q1409.03 1553.37 1406.71 1556.4 Q1408.68 1556.46 1409.39 1557.46 Q1410.09 1558.43 1410.09 1559.43 Q1410.09 1560.75 1409.26 1561.62 Q1408.45 1562.45 1407.07 1562.45 Q1405.75 1562.45 1404.88 1561.65 Q1404.01 1560.81 1404.01 1559.36 Q1404.01 1556.14 1406.91 1554.01 Q1409.84 1551.89 1413.99 1551.89 Q1419.4 1551.89 1423.01 1555.53 Q1424.14 1556.66 1424.68 1558.1 Q1425.26 1559.55 1425.33 1560.52 Q1425.39 1561.45 1425.39 1563.32 L1425.39 1576.49 Q1425.39 1576.88 1425.52 1577.52 Q1425.65 1578.17 1426.23 1579.01 Q1426.84 1579.81 1427.84 1579.81 Q1430.22 1579.81 1430.19 1575.59 L1430.19 1571.89 L1431.87 1571.89 L1431.87 1575.59 Q1431.87 1579.1 1430 1580.49 Q1428.16 1581.84 1426.46 1581.84 Q1424.27 1581.84 1422.88 1580.23 Q1421.5 1578.62 1421.3 1576.43 Q1420.3 1578.94 1418.02 1580.58 Q1415.76 1582.19 1412.67 1582.19 Q1410.29 1582.19 1408.03 1581.58 Q1405.81 1581 1403.94 1579.36 Q1402.11 1577.69 1402.11 1575.17 M1407.2 1575.11 Q1407.2 1577.56 1408.94 1579.14 Q1410.67 1580.71 1413.12 1580.71 Q1415.89 1580.71 1418.37 1578.59 Q1420.85 1576.43 1420.85 1572.21 L1420.85 1565.61 Q1413.54 1565.87 1410.35 1568.8 Q1407.2 1571.7 1407.2 1575.11 Z" fill="#000000" fill-rule="evenodd" fill-opacity="1" /><path clip-path="url(#clip250)" d="M1434.51 1581.45 L1434.51 1579.42 Q1438.02 1579.42 1438.82 1579.01 Q1439.63 1578.56 1439.63 1576.43 L1439.63 1542.13 Q1439.63 1539.68 1438.76 1539.07 Q1437.92 1538.46 1434.51 1538.46 L1434.51 1536.4 L1443.98 1535.69 L1443.98 1576.43 Q1443.98 1578.56 1444.81 1579.01 Q1445.65 1579.42 1449.13 1579.42 L1449.13 1581.45 Q1448.32 1581.45 1446.65 1581.39 Q1444.97 1581.33 1443.75 1581.29 Q1442.53 1581.26 1441.82 1581.26 Q1441.05 1581.26 1434.51 1581.45 Z" fill="#000000" fill-rule="evenodd" fill-opacity="1" /><path clip-path="url(#clip250)" d="M1453.39 1566.93 Q1453.39 1560.71 1457.38 1556.3 Q1461.37 1551.89 1467.11 1551.89 Q1472.9 1551.89 1475.9 1555.66 Q1478.93 1559.43 1478.93 1564.84 Q1478.93 1565.83 1478.67 1566.03 Q1478.41 1566.22 1477.28 1566.22 L1458.86 1566.22 Q1458.86 1572.95 1460.86 1576.11 Q1463.63 1580.52 1468.3 1580.52 Q1468.94 1580.52 1469.71 1580.39 Q1470.49 1580.26 1472.07 1579.71 Q1473.64 1579.14 1475.03 1577.62 Q1476.41 1576.11 1477.22 1573.72 Q1477.41 1572.79 1478.06 1572.82 Q1478.93 1572.82 1478.93 1573.6 Q1478.93 1574.18 1478.28 1575.5 Q1477.67 1576.78 1476.48 1578.33 Q1475.29 1579.88 1472.97 1581.04 Q1470.68 1582.19 1467.91 1582.19 Q1462.11 1582.19 1457.73 1577.81 Q1453.39 1573.4 1453.39 1566.93 M1458.93 1564.84 L1474.58 1564.84 Q1474.58 1563.45 1474.32 1561.9 Q1474.09 1560.36 1473.39 1558.23 Q1472.71 1556.08 1471.1 1554.72 Q1469.49 1553.37 1467.11 1553.37 Q1466.04 1553.37 1464.88 1553.82 Q1463.76 1554.27 1462.37 1555.37 Q1460.99 1556.46 1460.02 1558.94 Q1459.05 1561.42 1458.93 1564.84 Z" fill="#000000" fill-rule="evenodd" fill-opacity="1" /><path clip-path="url(#clip250)" d="M1483.7 1597.3 Q1483.7 1596.98 1484.54 1596.17 Q1495.17 1585.35 1495.17 1564.96 Q1495.17 1544.51 1484.96 1534.18 Q1483.7 1532.98 1483.7 1532.63 Q1483.7 1531.99 1484.35 1531.99 Q1484.8 1531.99 1486.37 1533.31 Q1487.99 1534.63 1490.4 1537.65 Q1492.85 1540.68 1494.65 1544.38 Q1499 1553.37 1499 1564.96 Q1499 1576.11 1494.84 1585.09 Q1493.07 1588.86 1490.59 1592.02 Q1488.11 1595.17 1486.47 1596.56 Q1484.83 1597.94 1484.35 1597.94 Q1483.7 1597.94 1483.7 1597.3 Z" fill="#000000" fill-rule="evenodd" fill-opacity="1" /><polyline clip-path="url(#clip250)" style="stroke:#000000; stroke-linecap:butt; stroke-linejoin:round; stroke-width:4; stroke-opacity:1; fill:none" points="
  231.336,1411.22 231.336,47.2441 
  "/>
<polyline clip-path="url(#clip250)" style="stroke:#000000; stroke-linecap:butt; stroke-linejoin:round; stroke-width:4; stroke-opacity:1; fill:none" points="
  231.336,1372.62 250.234,1372.62 
  "/>
<polyline clip-path="url(#clip250)" style="stroke:#000000; stroke-linecap:butt; stroke-linejoin:round; stroke-width:4; stroke-opacity:1; fill:none" points="
  231.336,939.734 250.234,939.734 
  "/>
<polyline clip-path="url(#clip250)" style="stroke:#000000; stroke-linecap:butt; stroke-linejoin:round; stroke-width:4; stroke-opacity:1; fill:none" points="
  231.336,506.847 250.234,506.847 
  "/>
<polyline clip-path="url(#clip250)" style="stroke:#000000; stroke-linecap:butt; stroke-linejoin:round; stroke-width:4; stroke-opacity:1; fill:none" points="
  231.336,73.9606 250.234,73.9606 
  "/>
<path clip-path="url(#clip250)" d="M138.161 1358.42 Q134.55 1358.42 132.721 1361.98 Q130.915 1365.53 130.915 1372.66 Q130.915 1379.76 132.721 1383.33 Q134.55 1386.87 138.161 1386.87 Q141.795 1386.87 143.601 1383.33 Q145.429 1379.76 145.429 1372.66 Q145.429 1365.53 143.601 1361.98 Q141.795 1358.42 138.161 1358.42 M138.161 1354.72 Q143.971 1354.72 147.027 1359.32 Q150.105 1363.91 150.105 1372.66 Q150.105 1381.38 147.027 1385.99 Q143.971 1390.57 138.161 1390.57 Q132.351 1390.57 129.272 1385.99 Q126.216 1381.38 126.216 1372.66 Q126.216 1363.91 129.272 1359.32 Q132.351 1354.72 138.161 1354.72 Z" fill="#000000" fill-rule="evenodd" fill-opacity="1" /><path clip-path="url(#clip250)" d="M158.323 1384.02 L163.207 1384.02 L163.207 1389.9 L158.323 1389.9 L158.323 1384.02 Z" fill="#000000" fill-rule="evenodd" fill-opacity="1" /><path clip-path="url(#clip250)" d="M183.392 1358.42 Q179.781 1358.42 177.952 1361.98 Q176.147 1365.53 176.147 1372.66 Q176.147 1379.76 177.952 1383.33 Q179.781 1386.87 183.392 1386.87 Q187.026 1386.87 188.832 1383.33 Q190.661 1379.76 190.661 1372.66 Q190.661 1365.53 188.832 1361.98 Q187.026 1358.42 183.392 1358.42 M183.392 1354.72 Q189.202 1354.72 192.258 1359.32 Q195.336 1363.91 195.336 1372.66 Q195.336 1381.38 192.258 1385.99 Q189.202 1390.57 183.392 1390.57 Q177.582 1390.57 174.503 1385.99 Q171.448 1381.38 171.448 1372.66 Q171.448 1363.91 174.503 1359.32 Q177.582 1354.72 183.392 1354.72 Z" fill="#000000" fill-rule="evenodd" fill-opacity="1" /><path clip-path="url(#clip250)" d="M139.388 925.532 Q135.777 925.532 133.948 929.097 Q132.142 932.639 132.142 939.769 Q132.142 946.875 133.948 950.44 Q135.777 953.981 139.388 953.981 Q143.022 953.981 144.827 950.44 Q146.656 946.875 146.656 939.769 Q146.656 932.639 144.827 929.097 Q143.022 925.532 139.388 925.532 M139.388 921.829 Q145.198 921.829 148.253 926.435 Q151.332 931.019 151.332 939.769 Q151.332 948.495 148.253 953.102 Q145.198 957.685 139.388 957.685 Q133.578 957.685 130.499 953.102 Q127.443 948.495 127.443 939.769 Q127.443 931.019 130.499 926.435 Q133.578 921.829 139.388 921.829 Z" fill="#000000" fill-rule="evenodd" fill-opacity="1" /><path clip-path="url(#clip250)" d="M159.55 951.134 L164.434 951.134 L164.434 957.014 L159.55 957.014 L159.55 951.134 Z" fill="#000000" fill-rule="evenodd" fill-opacity="1" /><path clip-path="url(#clip250)" d="M175.429 953.079 L183.068 953.079 L183.068 926.713 L174.758 928.38 L174.758 924.12 L183.022 922.454 L187.698 922.454 L187.698 953.079 L195.336 953.079 L195.336 957.014 L175.429 957.014 L175.429 953.079 Z" fill="#000000" fill-rule="evenodd" fill-opacity="1" /><path clip-path="url(#clip250)" d="M139.758 492.646 Q136.147 492.646 134.318 496.211 Q132.513 499.752 132.513 506.882 Q132.513 513.988 134.318 517.553 Q136.147 521.095 139.758 521.095 Q143.392 521.095 145.198 517.553 Q147.027 513.988 147.027 506.882 Q147.027 499.752 145.198 496.211 Q143.392 492.646 139.758 492.646 M139.758 488.942 Q145.568 488.942 148.624 493.549 Q151.702 498.132 151.702 506.882 Q151.702 515.609 148.624 520.215 Q145.568 524.798 139.758 524.798 Q133.948 524.798 130.869 520.215 Q127.814 515.609 127.814 506.882 Q127.814 498.132 130.869 493.549 Q133.948 488.942 139.758 488.942 Z" fill="#000000" fill-rule="evenodd" fill-opacity="1" /><path clip-path="url(#clip250)" d="M159.92 518.248 L164.804 518.248 L164.804 524.127 L159.92 524.127 L159.92 518.248 Z" fill="#000000" fill-rule="evenodd" fill-opacity="1" /><path clip-path="url(#clip250)" d="M179.017 520.192 L195.336 520.192 L195.336 524.127 L173.392 524.127 L173.392 520.192 Q176.054 517.437 180.637 512.808 Q185.244 508.155 186.424 506.812 Q188.67 504.289 189.549 502.553 Q190.452 500.794 190.452 499.104 Q190.452 496.35 188.508 494.613 Q186.586 492.877 183.485 492.877 Q181.286 492.877 178.832 493.641 Q176.401 494.405 173.624 495.956 L173.624 491.234 Q176.448 490.1 178.901 489.521 Q181.355 488.942 183.392 488.942 Q188.762 488.942 191.957 491.627 Q195.151 494.313 195.151 498.803 Q195.151 500.933 194.341 502.854 Q193.554 504.752 191.448 507.345 Q190.869 508.016 187.767 511.234 Q184.665 514.428 179.017 520.192 Z" fill="#000000" fill-rule="evenodd" fill-opacity="1" /><path clip-path="url(#clip250)" d="M138.809 59.7593 Q135.198 59.7593 133.369 63.3241 Q131.564 66.8657 131.564 73.9953 Q131.564 81.1018 133.369 84.6666 Q135.198 88.2082 138.809 88.2082 Q142.443 88.2082 144.249 84.6666 Q146.077 81.1018 146.077 73.9953 Q146.077 66.8657 144.249 63.3241 Q142.443 59.7593 138.809 59.7593 M138.809 56.0556 Q144.619 56.0556 147.675 60.6621 Q150.753 65.2454 150.753 73.9953 Q150.753 82.7221 147.675 87.3286 Q144.619 91.9119 138.809 91.9119 Q132.999 91.9119 129.92 87.3286 Q126.865 82.7221 126.865 73.9953 Q126.865 65.2454 129.92 60.6621 Q132.999 56.0556 138.809 56.0556 Z" fill="#000000" fill-rule="evenodd" fill-opacity="1" /><path clip-path="url(#clip250)" d="M158.971 85.361 L163.855 85.361 L163.855 91.2406 L158.971 91.2406 L158.971 85.361 Z" fill="#000000" fill-rule="evenodd" fill-opacity="1" /><path clip-path="url(#clip250)" d="M188.207 72.6064 Q191.563 73.324 193.438 75.5925 Q195.336 77.861 195.336 81.1944 Q195.336 86.3101 191.818 89.111 Q188.299 91.9119 181.818 91.9119 Q179.642 91.9119 177.327 91.4721 Q175.036 91.0554 172.582 90.1989 L172.582 85.6851 Q174.526 86.8193 176.841 87.398 Q179.156 87.9767 181.679 87.9767 Q186.077 87.9767 188.369 86.2406 Q190.684 84.5045 190.684 81.1944 Q190.684 78.1388 188.531 76.4259 Q186.401 74.6898 182.582 74.6898 L178.554 74.6898 L178.554 70.8472 L182.767 70.8472 Q186.216 70.8472 188.045 69.4815 Q189.873 68.0926 189.873 65.5 Q189.873 62.838 187.975 61.4259 Q186.1 59.9908 182.582 59.9908 Q180.661 59.9908 178.462 60.4074 Q176.262 60.8241 173.624 61.7037 L173.624 57.5371 Q176.286 56.7963 178.6 56.426 Q180.938 56.0556 182.999 56.0556 Q188.323 56.0556 191.424 58.4861 Q194.526 60.8935 194.526 65.0139 Q194.526 67.8842 192.883 69.875 Q191.239 71.8426 188.207 72.6064 Z" fill="#000000" fill-rule="evenodd" fill-opacity="1" /><path clip-path="url(#clip250)" d="M48.2879 777.945 Q51.895 777.945 55.2122 780.618 Q58.5294 783.259 60.5584 787.575 Q62.5551 791.858 62.5551 796.464 L62.5551 807.671 L79.0445 811.761 Q79.1411 811.794 79.5598 811.89 Q79.9463 811.987 80.1717 811.987 Q80.9769 811.987 81.1701 810.988 Q81.3633 809.958 81.3633 807.671 Q81.3633 806.19 81.621 805.964 Q81.782 805.836 82.0719 805.836 Q82.5227 805.836 82.8448 805.964 Q83.1347 806.093 83.2313 806.351 Q83.3279 806.576 83.3601 806.737 Q83.3923 806.898 83.3923 807.156 Q83.3923 807.832 83.3279 809.282 Q83.2635 810.699 83.2635 811.439 L83.1991 815.658 L83.3923 824.032 Q83.3923 825.03 82.5872 825.03 Q81.9752 825.03 81.7176 824.773 Q81.4277 824.515 81.3955 824.225 Q81.3633 823.935 81.3633 823.195 Q81.3633 821.584 81.2667 820.618 Q81.1701 819.652 81.0413 819.04 Q80.8802 818.396 80.4294 818.074 Q79.9785 817.72 79.592 817.558 Q79.1733 817.397 78.2394 817.172 L42.8129 808.348 Q41.7501 808.09 41.5891 808.09 Q41.0416 808.09 40.8484 808.412 Q40.6229 808.702 40.5263 809.539 Q40.3975 811.15 40.3975 812.373 Q40.3975 813.178 40.3653 813.501 Q40.3331 813.79 40.172 814.048 Q39.9788 814.273 39.5923 814.273 Q38.9804 814.273 38.7228 814.016 Q38.4329 813.726 38.4007 813.404 Q38.3363 813.082 38.3363 812.309 L38.3363 790.924 Q38.3363 784.773 41.267 781.359 Q44.1978 777.945 48.2879 777.945 M46.7098 784.064 Q40.3975 784.064 40.3975 793.05 L40.3975 799.362 Q40.3975 801.456 40.784 801.971 Q41.1382 802.486 42.9095 802.937 L60.8482 807.414 L60.8482 798.106 Q60.8482 791.858 57.3378 787.961 Q55.7275 786.19 52.3781 785.127 Q49.0287 784.064 46.7098 784.064 Z" fill="#000000" fill-rule="evenodd" fill-opacity="1" /><path clip-path="url(#clip250)" d="M66.9029 770.708 Q55.7597 770.708 46.7742 766.553 Q43.0062 764.782 39.85 762.302 Q36.6938 759.822 35.309 758.18 Q33.9241 756.537 33.9241 756.086 Q33.9241 755.442 34.5682 755.41 Q34.8903 755.41 35.6954 756.279 Q46.5166 766.907 66.9029 766.875 Q87.3536 766.875 97.7561 756.537 Q98.8833 755.41 99.2376 755.41 Q99.8817 755.41 99.8817 756.086 Q99.8817 756.537 98.5613 758.115 Q97.2408 759.693 94.2135 762.141 Q91.1861 764.589 87.4825 766.36 Q78.497 770.708 66.9029 770.708 Z" fill="#000000" fill-rule="evenodd" fill-opacity="1" /><path clip-path="url(#clip250)" d="M64.7773 721.097 Q69.415 721.097 73.956 723.448 Q78.4648 725.767 81.2989 729.503 Q84.133 733.206 84.133 737.007 Q84.133 740.71 81.2989 743.061 Q78.4326 745.38 73.7628 745.38 Q72.1203 745.38 70.9608 745.187 Q69.8014 744.994 67.0961 744.317 L45.5826 738.907 Q41.5569 737.973 41.5247 737.973 Q41.1382 737.973 40.945 738.134 Q40.7195 738.263 40.5585 739.036 Q40.3975 739.809 40.3975 741.29 Q40.3975 741.902 40.3653 742.192 Q40.3331 742.449 40.172 742.675 Q39.9788 742.868 39.5923 742.868 Q39.0448 742.868 38.755 742.643 Q38.4329 742.385 38.3685 742.192 Q38.3041 741.999 38.2719 741.612 Q38.2397 741.065 38.0787 739.229 Q37.8854 737.393 37.7566 735.815 Q37.6278 734.237 37.6278 733.561 Q37.6278 733.174 37.821 732.981 Q37.982 732.756 38.1753 732.756 L38.3363 732.723 L58.2073 737.586 Q54.246 733.754 54.246 729.857 Q54.246 725.96 57.2411 723.545 Q60.2363 721.097 64.7773 721.097 M61.8788 725.863 Q58.8192 725.863 57.2734 727.023 Q55.6953 728.15 55.6953 730.018 Q55.6953 731.596 56.8869 733.657 Q58.0785 735.718 60.977 737.908 Q61.5245 738.327 61.8466 738.488 Q62.1686 738.617 63.2636 738.907 L69.3506 740.356 Q73.5051 741.419 76.0172 741.419 Q79.431 741.419 81.0413 740.163 Q82.6516 738.907 82.6516 737.007 Q82.6516 735.01 80.8802 732.917 Q79.1089 730.823 75.8883 729.213 Q73.7628 728.214 69.1895 727.055 Q64.5841 725.863 61.8788 725.863 Z" fill="#000000" fill-rule="evenodd" fill-opacity="1" /><path clip-path="url(#clip250)" d="M24.4487 701.482 Q23.6597 701.482 23.1411 700.422 L20.0977 693.997 L17.0542 700.512 Q16.6033 701.482 15.8143 701.482 Q15.3634 701.482 14.9576 701.121 Q14.5293 700.738 14.5293 700.242 Q14.5293 699.881 15.0253 699.227 L19.1734 693.501 Q11.5535 694.2 11.328 694.177 Q10.8771 694.177 10.539 693.839 Q10.1783 693.501 10.1783 692.937 Q10.1783 692.486 10.5164 692.126 Q10.8321 691.742 11.328 691.742 L19.1734 692.419 L15.386 687.301 Q14.5067 686.106 14.5293 685.678 Q14.5293 685.16 14.9351 684.799 Q15.3409 684.438 15.8143 684.438 Q16.6033 684.438 17.0993 685.498 L20.1428 691.923 L23.2088 685.408 Q23.6597 684.438 24.4487 684.438 Q24.8996 684.438 25.3279 684.821 Q25.7337 685.182 25.7337 685.678 Q25.7337 685.949 25.4632 686.422 Q25.4181 686.512 24.6967 687.482 Q23.9753 688.451 22.8706 689.961 Q21.7659 691.449 21.0671 692.419 Q28.687 691.72 28.9124 691.742 Q29.3633 691.742 29.724 692.081 Q30.0847 692.419 30.0847 692.982 Q30.0847 693.433 29.7691 693.817 Q29.4309 694.177 28.9124 694.177 L21.0671 693.501 L25.7337 699.949 Q25.7337 700.647 25.3955 701.031 Q25.0348 701.391 24.8319 701.436 Q24.629 701.482 24.4487 701.482 Z" fill="#000000" fill-rule="evenodd" fill-opacity="1" /><path clip-path="url(#clip250)" d="M99.2376 658.765 Q98.9155 658.765 98.1104 657.927 Q87.2892 647.3 66.9029 647.3 Q46.4522 647.3 36.1141 657.509 Q34.9225 658.765 34.5682 658.765 Q33.9241 658.765 33.9241 658.121 Q33.9241 657.67 35.2445 656.092 Q36.565 654.481 39.5923 652.066 Q42.6197 649.618 46.3234 647.815 Q55.3088 643.467 66.9029 643.467 Q78.0461 643.467 87.0316 647.622 Q90.7997 649.393 93.9558 651.873 Q97.112 654.353 98.4969 655.995 Q99.8817 657.638 99.8817 658.121 Q99.8817 658.765 99.2376 658.765 Z" fill="#000000" fill-rule="evenodd" fill-opacity="1" /><path clip-path="url(#clip252)" d="
M456.625 1164.83 L456.625 1372.62 L548.429 1372.62 L548.429 1164.83 L456.625 1164.83 L456.625 1164.83  Z
  " fill="#808080" fill-rule="evenodd" fill-opacity="0.5"/>
<polyline clip-path="url(#clip252)" style="stroke:#000000; stroke-linecap:butt; stroke-linejoin:round; stroke-width:4; stroke-opacity:0.5; fill:none" points="
  456.625,1164.83 456.625,1372.62 548.429,1372.62 548.429,1164.83 456.625,1164.83 
  "/>
<path clip-path="url(#clip252)" d="
M548.429 783.895 L548.429 1372.62 L640.234 1372.62 L640.234 783.895 L548.429 783.895 L548.429 783.895  Z
  " fill="#808080" fill-rule="evenodd" fill-opacity="0.5"/>
<polyline clip-path="url(#clip252)" style="stroke:#000000; stroke-linecap:butt; stroke-linejoin:round; stroke-width:4; stroke-opacity:0.5; fill:none" points="
  548.429,783.895 548.429,1372.62 640.234,1372.62 640.234,783.895 548.429,783.895 
  "/>
<path clip-path="url(#clip252)" d="
M640.234 368.323 L640.234 1372.62 L732.038 1372.62 L732.038 368.323 L640.234 368.323 L640.234 368.323  Z
  " fill="#808080" fill-rule="evenodd" fill-opacity="0.5"/>
<polyline clip-path="url(#clip252)" style="stroke:#000000; stroke-linecap:butt; stroke-linejoin:round; stroke-width:4; stroke-opacity:0.5; fill:none" points="
  640.234,368.323 640.234,1372.62 732.038,1372.62 732.038,368.323 640.234,368.323 
  "/>
<path clip-path="url(#clip252)" d="
M732.038 385.639 L732.038 1372.62 L823.843 1372.62 L823.843 385.639 L732.038 385.639 L732.038 385.639  Z
  " fill="#808080" fill-rule="evenodd" fill-opacity="0.5"/>
<polyline clip-path="url(#clip252)" style="stroke:#000000; stroke-linecap:butt; stroke-linejoin:round; stroke-width:4; stroke-opacity:0.5; fill:none" points="
  732.038,385.639 732.038,1372.62 823.843,1372.62 823.843,385.639 732.038,385.639 
  "/>
<path clip-path="url(#clip252)" d="
M823.843 177.853 L823.843 1372.62 L915.648 1372.62 L915.648 177.853 L823.843 177.853 L823.843 177.853  Z
  " fill="#808080" fill-rule="evenodd" fill-opacity="0.5"/>
<polyline clip-path="url(#clip252)" style="stroke:#000000; stroke-linecap:butt; stroke-linejoin:round; stroke-width:4; stroke-opacity:0.5; fill:none" points="
  823.843,177.853 823.843,1372.62 915.648,1372.62 915.648,177.853 823.843,177.853 
  "/>
<path clip-path="url(#clip252)" d="
M915.648 125.907 L915.648 1372.62 L1007.45 1372.62 L1007.45 125.907 L915.648 125.907 L915.648 125.907  Z
  " fill="#808080" fill-rule="evenodd" fill-opacity="0.5"/>
<polyline clip-path="url(#clip252)" style="stroke:#000000; stroke-linecap:butt; stroke-linejoin:round; stroke-width:4; stroke-opacity:0.5; fill:none" points="
  915.648,125.907 915.648,1372.62 1007.45,1372.62 1007.45,125.907 915.648,125.907 
  "/>
<path clip-path="url(#clip252)" d="
M1007.45 766.579 L1007.45 1372.62 L1099.26 1372.62 L1099.26 766.579 L1007.45 766.579 L1007.45 766.579  Z
  " fill="#808080" fill-rule="evenodd" fill-opacity="0.5"/>
<polyline clip-path="url(#clip252)" style="stroke:#000000; stroke-linecap:butt; stroke-linejoin:round; stroke-width:4; stroke-opacity:0.5; fill:none" points="
  1007.45,766.579 1007.45,1372.62 1099.26,1372.62 1099.26,766.579 1007.45,766.579 
  "/>
<path clip-path="url(#clip252)" d="
M1099.26 610.74 L1099.26 1372.62 L1191.06 1372.62 L1191.06 610.74 L1099.26 610.74 L1099.26 610.74  Z
  " fill="#808080" fill-rule="evenodd" fill-opacity="0.5"/>
<polyline clip-path="url(#clip252)" style="stroke:#000000; stroke-linecap:butt; stroke-linejoin:round; stroke-width:4; stroke-opacity:0.5; fill:none" points="
  1099.26,610.74 1099.26,1372.62 1191.06,1372.62 1191.06,610.74 1099.26,610.74 
  "/>
<path clip-path="url(#clip252)" d="
M1191.06 905.103 L1191.06 1372.62 L1282.87 1372.62 L1282.87 905.103 L1191.06 905.103 L1191.06 905.103  Z
  " fill="#808080" fill-rule="evenodd" fill-opacity="0.5"/>
<polyline clip-path="url(#clip252)" style="stroke:#000000; stroke-linecap:butt; stroke-linejoin:round; stroke-width:4; stroke-opacity:0.5; fill:none" points="
  1191.06,905.103 1191.06,1372.62 1282.87,1372.62 1282.87,905.103 1191.06,905.103 
  "/>
<path clip-path="url(#clip252)" d="
M1282.87 1009 L1282.87 1372.62 L1374.67 1372.62 L1374.67 1009 L1282.87 1009 L1282.87 1009  Z
  " fill="#808080" fill-rule="evenodd" fill-opacity="0.5"/>
<polyline clip-path="url(#clip252)" style="stroke:#000000; stroke-linecap:butt; stroke-linejoin:round; stroke-width:4; stroke-opacity:0.5; fill:none" points="
  1282.87,1009 1282.87,1372.62 1374.67,1372.62 1374.67,1009 1282.87,1009 
  "/>
<path clip-path="url(#clip252)" d="
M1374.67 957.049 L1374.67 1372.62 L1466.47 1372.62 L1466.47 957.049 L1374.67 957.049 L1374.67 957.049  Z
  " fill="#808080" fill-rule="evenodd" fill-opacity="0.5"/>
<polyline clip-path="url(#clip252)" style="stroke:#000000; stroke-linecap:butt; stroke-linejoin:round; stroke-width:4; stroke-opacity:0.5; fill:none" points="
  1374.67,957.049 1374.67,1372.62 1466.47,1372.62 1466.47,957.049 1374.67,957.049 
  "/>
<path clip-path="url(#clip252)" d="
M1466.47 1060.94 L1466.47 1372.62 L1558.28 1372.62 L1558.28 1060.94 L1466.47 1060.94 L1466.47 1060.94  Z
  " fill="#808080" fill-rule="evenodd" fill-opacity="0.5"/>
<polyline clip-path="url(#clip252)" style="stroke:#000000; stroke-linecap:butt; stroke-linejoin:round; stroke-width:4; stroke-opacity:0.5; fill:none" points="
  1466.47,1060.94 1466.47,1372.62 1558.28,1372.62 1558.28,1060.94 1466.47,1060.94 
  "/>
<path clip-path="url(#clip252)" d="
M1558.28 1234.1 L1558.28 1372.62 L1650.08 1372.62 L1650.08 1234.1 L1558.28 1234.1 L1558.28 1234.1  Z
  " fill="#808080" fill-rule="evenodd" fill-opacity="0.5"/>
<polyline clip-path="url(#clip252)" style="stroke:#000000; stroke-linecap:butt; stroke-linejoin:round; stroke-width:4; stroke-opacity:0.5; fill:none" points="
  1558.28,1234.1 1558.28,1372.62 1650.08,1372.62 1650.08,1234.1 1558.28,1234.1 
  "/>
<path clip-path="url(#clip252)" d="
M1650.08 1234.1 L1650.08 1372.62 L1741.89 1372.62 L1741.89 1234.1 L1650.08 1234.1 L1650.08 1234.1  Z
  " fill="#808080" fill-rule="evenodd" fill-opacity="0.5"/>
<polyline clip-path="url(#clip252)" style="stroke:#000000; stroke-linecap:butt; stroke-linejoin:round; stroke-width:4; stroke-opacity:0.5; fill:none" points="
  1650.08,1234.1 1650.08,1372.62 1741.89,1372.62 1741.89,1234.1 1650.08,1234.1 
  "/>
<path clip-path="url(#clip252)" d="
M1741.89 1337.99 L1741.89 1372.62 L1833.69 1372.62 L1833.69 1337.99 L1741.89 1337.99 L1741.89 1337.99  Z
  " fill="#808080" fill-rule="evenodd" fill-opacity="0.5"/>
<polyline clip-path="url(#clip252)" style="stroke:#000000; stroke-linecap:butt; stroke-linejoin:round; stroke-width:4; stroke-opacity:0.5; fill:none" points="
  1741.89,1337.99 1741.89,1372.62 1833.69,1372.62 1833.69,1337.99 1741.89,1337.99 
  "/>
<path clip-path="url(#clip252)" d="
M1833.69 1268.73 L1833.69 1372.62 L1925.5 1372.62 L1925.5 1268.73 L1833.69 1268.73 L1833.69 1268.73  Z
  " fill="#808080" fill-rule="evenodd" fill-opacity="0.5"/>
<polyline clip-path="url(#clip252)" style="stroke:#000000; stroke-linecap:butt; stroke-linejoin:round; stroke-width:4; stroke-opacity:0.5; fill:none" points="
  1833.69,1268.73 1833.69,1372.62 1925.5,1372.62 1925.5,1268.73 1833.69,1268.73 
  "/>
<path clip-path="url(#clip252)" d="
M1925.5 1320.67 L1925.5 1372.62 L2017.3 1372.62 L2017.3 1320.67 L1925.5 1320.67 L1925.5 1320.67  Z
  " fill="#808080" fill-rule="evenodd" fill-opacity="0.5"/>
<polyline clip-path="url(#clip252)" style="stroke:#000000; stroke-linecap:butt; stroke-linejoin:round; stroke-width:4; stroke-opacity:0.5; fill:none" points="
  1925.5,1320.67 1925.5,1372.62 2017.3,1372.62 2017.3,1320.67 1925.5,1320.67 
  "/>
<path clip-path="url(#clip252)" d="
M2017.3 1355.3 L2017.3 1372.62 L2109.11 1372.62 L2109.11 1355.3 L2017.3 1355.3 L2017.3 1355.3  Z
  " fill="#808080" fill-rule="evenodd" fill-opacity="0.5"/>
<polyline clip-path="url(#clip252)" style="stroke:#000000; stroke-linecap:butt; stroke-linejoin:round; stroke-width:4; stroke-opacity:0.5; fill:none" points="
  2017.3,1355.3 2017.3,1372.62 2109.11,1372.62 2109.11,1355.3 2017.3,1355.3 
  "/>
<path clip-path="url(#clip252)" d="
M2109.11 1355.3 L2109.11 1372.62 L2200.91 1372.62 L2200.91 1355.3 L2109.11 1355.3 L2109.11 1355.3  Z
  " fill="#808080" fill-rule="evenodd" fill-opacity="0.5"/>
<polyline clip-path="url(#clip252)" style="stroke:#000000; stroke-linecap:butt; stroke-linejoin:round; stroke-width:4; stroke-opacity:0.5; fill:none" points="
  2109.11,1355.3 2109.11,1372.62 2200.91,1372.62 2200.91,1355.3 2109.11,1355.3 
  "/>
<circle clip-path="url(#clip252)" style="fill:#808080; stroke:none; fill-opacity:0" cx="502.527" cy="1164.83" r="2"/>
<circle clip-path="url(#clip252)" style="fill:#808080; stroke:none; fill-opacity:0" cx="594.332" cy="783.895" r="2"/>
<circle clip-path="url(#clip252)" style="fill:#808080; stroke:none; fill-opacity:0" cx="686.136" cy="368.323" r="2"/>
<circle clip-path="url(#clip252)" style="fill:#808080; stroke:none; fill-opacity:0" cx="777.941" cy="385.639" r="2"/>
<circle clip-path="url(#clip252)" style="fill:#808080; stroke:none; fill-opacity:0" cx="869.745" cy="177.853" r="2"/>
<circle clip-path="url(#clip252)" style="fill:#808080; stroke:none; fill-opacity:0" cx="961.55" cy="125.907" r="2"/>
<circle clip-path="url(#clip252)" style="fill:#808080; stroke:none; fill-opacity:0" cx="1053.35" cy="766.579" r="2"/>
<circle clip-path="url(#clip252)" style="fill:#808080; stroke:none; fill-opacity:0" cx="1145.16" cy="610.74" r="2"/>
<circle clip-path="url(#clip252)" style="fill:#808080; stroke:none; fill-opacity:0" cx="1236.96" cy="905.103" r="2"/>
<circle clip-path="url(#clip252)" style="fill:#808080; stroke:none; fill-opacity:0" cx="1328.77" cy="1009" r="2"/>
<circle clip-path="url(#clip252)" style="fill:#808080; stroke:none; fill-opacity:0" cx="1420.57" cy="957.049" r="2"/>
<circle clip-path="url(#clip252)" style="fill:#808080; stroke:none; fill-opacity:0" cx="1512.38" cy="1060.94" r="2"/>
<circle clip-path="url(#clip252)" style="fill:#808080; stroke:none; fill-opacity:0" cx="1604.18" cy="1234.1" r="2"/>
<circle clip-path="url(#clip252)" style="fill:#808080; stroke:none; fill-opacity:0" cx="1695.99" cy="1234.1" r="2"/>
<circle clip-path="url(#clip252)" style="fill:#808080; stroke:none; fill-opacity:0" cx="1787.79" cy="1337.99" r="2"/>
<circle clip-path="url(#clip252)" style="fill:#808080; stroke:none; fill-opacity:0" cx="1879.6" cy="1268.73" r="2"/>
<circle clip-path="url(#clip252)" style="fill:#808080; stroke:none; fill-opacity:0" cx="1971.4" cy="1320.67" r="2"/>
<circle clip-path="url(#clip252)" style="fill:#808080; stroke:none; fill-opacity:0" cx="2063.2" cy="1355.3" r="2"/>
<circle clip-path="url(#clip252)" style="fill:#808080; stroke:none; fill-opacity:0" cx="2155.01" cy="1355.3" r="2"/>
<polyline clip-path="url(#clip252)" style="stroke:#000000; stroke-linecap:butt; stroke-linejoin:round; stroke-width:8; stroke-opacity:1; fill:none" points="
  291.377,1372.62 293.213,1372.62 295.049,1372.62 296.885,1372.62 298.721,1372.62 300.557,1372.62 302.393,1372.62 304.229,1372.62 306.065,1372.62 307.901,1372.62 
  309.738,1372.62 311.574,1372.62 313.41,1372.62 315.246,1372.62 317.082,1372.62 318.918,1372.62 320.754,1372.62 322.59,1372.62 324.426,1372.62 326.262,1372.62 
  328.098,1372.62 329.935,1372.62 331.771,1372.62 333.607,1372.62 335.443,1372.62 337.279,1372.62 339.115,1372.62 340.951,1372.62 342.787,1372.62 344.623,1372.62 
  346.459,1372.62 348.295,1372.62 350.132,1372.62 351.968,1372.61 353.804,1372.61 355.64,1372.61 357.476,1372.61 359.312,1372.6 361.148,1372.6 362.984,1372.59 
  364.82,1372.58 366.656,1372.57 368.492,1372.56 370.329,1372.54 372.165,1372.53 374.001,1372.51 375.837,1372.48 377.673,1372.45 379.509,1372.42 381.345,1372.38 
  383.181,1372.34 385.017,1372.28 386.853,1372.22 388.689,1372.16 390.526,1372.08 392.362,1371.99 394.198,1371.89 396.034,1371.77 397.87,1371.64 399.706,1371.5 
  401.542,1371.34 403.378,1371.16 405.214,1370.96 407.05,1370.74 408.886,1370.49 410.723,1370.22 412.559,1369.93 414.395,1369.6 416.231,1369.24 418.067,1368.85 
  419.903,1368.43 421.739,1367.96 423.575,1367.46 425.411,1366.92 427.247,1366.33 429.083,1365.7 430.92,1365.01 432.756,1364.28 434.592,1363.49 436.428,1362.65 
  438.264,1361.74 440.1,1360.78 441.936,1359.75 443.772,1358.65 445.608,1357.49 447.444,1356.25 449.28,1354.94 451.117,1353.56 452.953,1352.09 454.789,1350.54 
  456.625,1348.91 458.461,1347.19 460.297,1345.38 462.133,1343.48 463.969,1341.49 465.805,1339.4 467.641,1337.21 469.477,1334.92 471.314,1332.53 473.15,1330.03 
  474.986,1327.43 476.822,1324.71 478.658,1321.89 480.494,1318.95 482.33,1315.9 484.166,1312.74 486.002,1309.45 487.838,1306.05 489.674,1302.53 491.511,1298.89 
  493.347,1295.12 495.183,1291.23 497.019,1287.22 498.855,1283.08 500.691,1278.81 502.527,1274.42 504.363,1269.9 506.199,1265.26 508.035,1260.48 509.871,1255.58 
  511.708,1250.55 513.544,1245.39 515.38,1240.1 517.216,1234.69 519.052,1229.14 520.888,1223.47 522.724,1217.68 524.56,1211.75 526.396,1205.7 528.232,1199.53 
  530.068,1193.23 531.905,1186.81 533.741,1180.27 535.577,1173.61 537.413,1166.82 539.249,1159.93 541.085,1152.91 542.921,1145.78 544.757,1138.53 546.593,1131.18 
  548.429,1123.71 550.265,1116.14 552.102,1108.46 553.938,1100.68 555.774,1092.79 557.61,1084.81 559.446,1076.73 561.282,1068.55 563.118,1060.28 564.954,1051.92 
  566.79,1043.47 568.626,1034.93 570.462,1026.31 572.299,1017.62 574.135,1008.84 575.971,999.986 577.807,991.062 579.643,982.067 581.479,973.006 583.315,963.88 
  585.151,954.692 586.987,945.446 588.823,936.144 590.659,926.789 592.496,917.384 594.332,907.932 596.168,898.436 598.004,888.898 599.84,879.322 601.676,869.711 
  603.512,860.067 605.348,850.394 607.184,840.694 609.02,830.971 610.856,821.227 612.693,811.465 614.529,801.688 616.365,791.9 618.201,782.103 620.037,772.299 
  621.873,762.492 623.709,752.685 625.545,742.88 627.381,733.081 629.217,723.289 631.053,713.508 632.89,703.741 634.726,693.99 636.562,684.258 638.398,674.547 
  640.234,664.861 642.07,655.201 643.906,645.57 645.742,635.972 647.578,626.407 649.414,616.88 651.25,607.391 653.087,597.944 654.923,588.541 656.759,579.184 
  658.595,569.876 660.431,560.618 662.267,551.412 664.103,542.262 665.939,533.169 667.775,524.135 669.611,515.161 671.447,506.251 673.284,497.406 675.12,488.627 
  676.956,479.918 678.792,471.278 680.628,462.711 682.464,454.217 684.3,445.799 686.136,437.458 687.972,429.196 689.808,421.014 691.644,412.914 693.481,404.896 
  695.317,396.963 697.153,389.116 698.989,381.356 700.825,373.684 702.661,366.102 704.497,358.61 706.333,351.21 708.169,343.903 710.005,336.689 711.841,329.571 
  713.678,322.548 715.514,315.622 717.35,308.794 719.186,302.064 721.022,295.433 722.858,288.902 724.694,282.471 726.53,276.141 728.366,269.914 730.202,263.788 
  732.038,257.766 733.875,251.847 735.711,246.032 737.547,240.321 739.383,234.715 741.219,229.213 743.055,223.817 744.891,218.527 746.727,213.342 748.563,208.264 
  750.399,203.291 752.235,198.425 754.072,193.666 755.908,189.013 757.744,184.466 759.58,180.026 761.416,175.693 763.252,171.466 765.088,167.345 766.924,163.331 
  768.76,159.423 770.596,155.622 772.432,151.926 774.269,148.335 776.105,144.85 777.941,141.47 779.777,138.195 781.613,135.025 783.449,131.959 785.285,128.996 
  787.121,126.137 788.957,123.381 790.793,120.728 792.629,118.177 794.466,115.728 796.302,113.38 798.138,111.133 799.974,108.986 801.81,106.938 803.646,104.99 
  805.482,103.141 807.318,101.389 809.154,99.7351 810.99,98.1777 812.826,96.7165 814.663,95.3508 816.499,94.0799 818.335,92.9031 820.171,91.8199 822.007,90.8294 
  823.843,89.931 825.679,89.124 827.515,88.4076 829.351,87.781 831.187,87.2436 833.023,86.7945 834.86,86.433 836.696,86.1584 838.532,85.9697 840.368,85.8663 
  842.204,85.8473 844.04,85.9119 845.876,86.0593 847.712,86.2887 849.548,86.5992 851.384,86.99 853.22,87.4603 855.057,88.0093 856.893,88.636 858.729,89.3396 
  860.565,90.1192 862.401,90.9741 864.237,91.9033 866.073,92.906 867.909,93.9813 869.745,95.1283 871.581,96.3462 873.417,97.6341 875.254,98.991 877.09,100.416 
  878.926,101.909 880.762,103.468 882.598,105.092 884.434,106.782 886.27,108.535 888.106,110.351 889.942,112.229 891.778,114.169 893.614,116.168 895.451,118.228 
  897.287,120.345 899.123,122.521 900.959,124.753 902.795,127.041 904.631,129.385 906.467,131.783 908.303,134.234 910.139,136.737 911.975,139.292 913.811,141.899 
  915.648,144.555 917.484,147.26 919.32,150.013 921.156,152.814 922.992,155.662 924.828,158.556 926.664,161.494 928.5,164.477 930.336,167.503 932.172,170.571 
  934.008,173.681 935.845,176.833 937.681,180.024 939.517,183.255 941.353,186.524 943.189,189.831 945.025,193.175 946.861,196.556 948.697,199.972 950.533,203.422 
  952.369,206.907 954.205,210.425 956.042,213.975 957.878,217.557 959.714,221.171 961.55,224.814 963.386,228.487 965.222,232.189 967.058,235.919 968.894,239.677 
  970.73,243.461 972.566,247.272 974.402,251.108 976.239,254.969 978.075,258.853 979.911,262.762 981.747,266.693 983.583,270.646 985.419,274.62 987.255,278.616 
  989.091,282.632 990.927,286.667 992.763,290.721 994.599,294.794 996.436,298.884 998.272,302.992 1000.11,307.116 1001.94,311.256 1003.78,315.412 1005.62,319.582 
  1007.45,323.767 1009.29,327.966 1011.12,332.177 1012.96,336.402 1014.8,340.638 1016.63,344.886 1018.47,349.145 1020.3,353.415 1022.14,357.695 1023.98,361.984 
  1025.81,366.282 1027.65,370.589 1029.49,374.904 1031.32,379.226 1033.16,383.555 1034.99,387.891 1036.83,392.234 1038.67,396.582 1040.5,400.935 1042.34,405.293 
  1044.17,409.655 1046.01,414.021 1047.85,418.391 1049.68,422.764 1051.52,427.14 1053.35,431.518 1055.19,435.897 1057.03,440.279 1058.86,444.661 1060.7,449.044 
  1062.53,453.428 1064.37,457.811 1066.21,462.194 1068.04,466.576 1069.88,470.957 1071.72,475.337 1073.55,479.715 1075.39,484.091 1077.22,488.464 1079.06,492.835 
  1080.9,497.202 1082.73,501.566 1084.57,505.926 1086.4,510.282 1088.24,514.634 1090.08,518.982 1091.91,523.324 1093.75,527.661 1095.58,531.992 1097.42,536.318 
  1099.26,540.638 1101.09,544.951 1102.93,549.258 1104.76,553.558 1106.6,557.851 1108.44,562.137 1110.27,566.415 1112.11,570.685 1113.95,574.947 1115.78,579.201 
  1117.62,583.446 1119.45,587.683 1121.29,591.911 1123.13,596.13 1124.96,600.339 1126.8,604.539 1128.63,608.729 1130.47,612.909 1132.31,617.079 1134.14,621.239 
  1135.98,625.389 1137.81,629.527 1139.65,633.655 1141.49,637.772 1143.32,641.877 1145.16,645.972 1146.99,650.055 1148.83,654.126 1150.67,658.185 1152.5,662.233 
  1154.34,666.268 1156.18,670.291 1158.01,674.302 1159.85,678.3 1161.68,682.286 1163.52,686.259 1165.36,690.219 1167.19,694.166 1169.03,698.101 1170.86,702.021 
  1172.7,705.929 1174.54,709.823 1176.37,713.703 1178.21,717.57 1180.04,721.424 1181.88,725.263 1183.72,729.088 1185.55,732.9 1187.39,736.697 1189.23,740.48 
  1191.06,744.249 1192.9,748.004 1194.73,751.744 1196.57,755.47 1198.41,759.181 1200.24,762.877 1202.08,766.559 1203.91,770.226 1205.75,773.878 1207.59,777.516 
  1209.42,781.138 1211.26,784.746 1213.09,788.338 1214.93,791.916 1216.77,795.478 1218.6,799.025 1220.44,802.557 1222.27,806.074 1224.11,809.575 1225.95,813.062 
  1227.78,816.532 1229.62,819.988 1231.46,823.428 1233.29,826.852 1235.13,830.262 1236.96,833.655 1238.8,837.033 1240.64,840.396 1242.47,843.743 1244.31,847.075 
  1246.14,850.391 1247.98,853.691 1249.82,856.976 1251.65,860.245 1253.49,863.499 1255.32,866.737 1257.16,869.959 1259,873.166 1260.83,876.357 1262.67,879.533 
  1264.5,882.693 1266.34,885.837 1268.18,888.966 1270.01,892.079 1271.85,895.176 1273.69,898.258 1275.52,901.324 1277.36,904.375 1279.19,907.41 1281.03,910.43 
  1282.87,913.434 1284.7,916.423 1286.54,919.396 1288.37,922.353 1290.21,925.295 1292.05,928.222 1293.88,931.133 1295.72,934.029 1297.55,936.91 1299.39,939.775 
  1301.23,942.625 1303.06,945.46 1304.9,948.279 1306.73,951.083 1308.57,953.872 1310.41,956.646 1312.24,959.404 1314.08,962.148 1315.92,964.876 1317.75,967.589 
  1319.59,970.288 1321.42,972.971 1323.26,975.639 1325.1,978.293 1326.93,980.931 1328.77,983.555 1330.6,986.164 1332.44,988.759 1334.28,991.338 1336.11,993.903 
  1337.95,996.453 1339.78,998.989 1341.62,1001.51 1343.46,1004.02 1345.29,1006.51 1347.13,1008.99 1348.96,1011.45 1350.8,1013.9 1352.64,1016.33 1354.47,1018.75 
  1356.31,1021.16 1358.15,1023.55 1359.98,1025.93 1361.82,1028.3 1363.65,1030.65 1365.49,1032.98 1367.33,1035.3 1369.16,1037.61 1371,1039.91 1372.83,1042.19 
  1374.67,1044.45 1376.51,1046.71 1378.34,1048.95 1380.18,1051.17 1382.01,1053.39 1383.85,1055.59 1385.69,1057.77 1387.52,1059.95 1389.36,1062.11 1391.2,1064.25 
  1393.03,1066.39 1394.87,1068.51 1396.7,1070.61 1398.54,1072.71 1400.38,1074.79 1402.21,1076.86 1404.05,1078.91 1405.88,1080.95 1407.72,1082.98 1409.56,1085 
  1411.39,1087.01 1413.23,1089 1415.06,1090.98 1416.9,1092.94 1418.74,1094.9 1420.57,1096.84 1422.41,1098.77 1424.24,1100.69 1426.08,1102.59 1427.92,1104.49 
  1429.75,1106.37 1431.59,1108.24 1433.43,1110.1 1435.26,1111.94 1437.1,1113.78 1438.93,1115.6 1440.77,1117.41 1442.61,1119.21 1444.44,1120.99 1446.28,1122.77 
  1448.11,1124.53 1449.95,1126.29 1451.79,1128.03 1453.62,1129.76 1455.46,1131.48 1457.29,1133.18 1459.13,1134.88 1460.97,1136.57 1462.8,1138.24 1464.64,1139.9 
  1466.47,1141.56 1468.31,1143.2 1470.15,1144.83 1471.98,1146.45 1473.82,1148.06 1475.66,1149.66 1477.49,1151.24 1479.33,1152.82 1481.16,1154.39 1483,1155.95 
  1484.84,1157.49 1486.67,1159.03 1488.51,1160.55 1490.34,1162.07 1492.18,1163.57 1494.02,1165.07 1495.85,1166.56 1497.69,1168.03 1499.52,1169.5 1501.36,1170.95 
  1503.2,1172.4 1505.03,1173.84 1506.87,1175.26 1508.7,1176.68 1510.54,1178.09 1512.38,1179.48 1514.21,1180.87 1516.05,1182.25 1517.89,1183.62 1519.72,1184.98 
  1521.56,1186.33 1523.39,1187.67 1525.23,1189.01 1527.07,1190.33 1528.9,1191.65 1530.74,1192.95 1532.57,1194.25 1534.41,1195.54 1536.25,1196.81 1538.08,1198.08 
  1539.92,1199.35 1541.75,1200.6 1543.59,1201.84 1545.43,1203.08 1547.26,1204.31 1549.1,1205.53 1550.93,1206.74 1552.77,1207.94 1554.61,1209.13 1556.44,1210.32 
  1558.28,1211.49 1560.12,1212.66 1561.95,1213.82 1563.79,1214.98 1565.62,1216.12 1567.46,1217.26 1569.3,1218.39 1571.13,1219.51 1572.97,1220.62 1574.8,1221.73 
  1576.64,1222.82 1578.48,1223.91 1580.31,1225 1582.15,1226.07 1583.98,1227.14 1585.82,1228.2 1587.66,1229.25 1589.49,1230.3 1591.33,1231.33 1593.17,1232.36 
  1595,1233.39 1596.84,1234.4 1598.67,1235.41 1600.51,1236.41 1602.35,1237.41 1604.18,1238.4 1606.02,1239.38 1607.85,1240.35 1609.69,1241.32 1611.53,1242.28 
  1613.36,1243.23 1615.2,1244.18 1617.03,1245.12 1618.87,1246.05 1620.71,1246.98 1622.54,1247.9 1624.38,1248.81 1626.21,1249.72 1628.05,1250.62 1629.89,1251.51 
  1631.72,1252.4 1633.56,1253.28 1635.4,1254.15 1637.23,1255.02 1639.07,1255.88 1640.9,1256.74 1642.74,1257.59 1644.58,1258.44 1646.41,1259.27 1648.25,1260.11 
  1650.08,1260.93 1651.92,1261.75 1653.76,1262.57 1655.59,1263.37 1657.43,1264.18 1659.26,1264.97 1661.1,1265.77 1662.94,1266.55 1664.77,1267.33 1666.61,1268.1 
  1668.44,1268.87 1670.28,1269.64 1672.12,1270.39 1673.95,1271.15 1675.79,1271.89 1677.63,1272.63 1679.46,1273.37 1681.3,1274.1 1683.13,1274.83 1684.97,1275.55 
  1686.81,1276.26 1688.64,1276.97 1690.48,1277.68 1692.31,1278.37 1694.15,1279.07 1695.99,1279.76 1697.82,1280.44 1699.66,1281.12 1701.49,1281.8 1703.33,1282.47 
  1705.17,1283.13 1707,1283.79 1708.84,1284.45 1710.67,1285.1 1712.51,1285.74 1714.35,1286.38 1716.18,1287.02 1718.02,1287.65 1719.86,1288.28 1721.69,1288.9 
  1723.53,1289.52 1725.36,1290.13 1727.2,1290.74 1729.04,1291.34 1730.87,1291.94 1732.71,1292.54 1734.54,1293.13 1736.38,1293.72 1738.22,1294.3 1740.05,1294.88 
  1741.89,1295.45 1743.72,1296.02 1745.56,1296.59 1747.4,1297.15 1749.23,1297.71 1751.07,1298.26 1752.9,1298.81 1754.74,1299.36 1756.58,1299.9 1758.41,1300.44 
  1760.25,1300.97 1762.09,1301.5 1763.92,1302.02 1765.76,1302.55 1767.59,1303.06 1769.43,1303.58 1771.27,1304.09 1773.1,1304.6 1774.94,1305.1 1776.77,1305.6 
  1778.61,1306.09 1780.45,1306.58 1782.28,1307.07 1784.12,1307.56 1785.95,1308.04 1787.79,1308.52 1789.63,1308.99 1791.46,1309.46 1793.3,1309.93 1795.14,1310.39 
  1796.97,1310.85 1798.81,1311.31 1800.64,1311.76 1802.48,1312.21 1804.32,1312.66 1806.15,1313.1 1807.99,1313.54 1809.82,1313.98 1811.66,1314.41 1813.5,1314.84 
  1815.33,1315.27 1817.17,1315.69 1819,1316.12 1820.84,1316.53 1822.68,1316.95 1824.51,1317.36 1826.35,1317.77 1828.18,1318.17 1830.02,1318.58 1831.86,1318.98 
  1833.69,1319.37 1835.53,1319.77 1837.37,1320.16 1839.2,1320.55 1841.04,1320.93 1842.87,1321.31 1844.71,1321.69 1846.55,1322.07 1848.38,1322.44 1850.22,1322.81 
  1852.05,1323.18 1853.89,1323.55 1855.73,1323.91 1857.56,1324.27 1859.4,1324.63 1861.23,1324.98 1863.07,1325.34 1864.91,1325.69 1866.74,1326.03 1868.58,1326.38 
  1870.41,1326.72 1872.25,1327.06 1874.09,1327.39 1875.92,1327.73 1877.76,1328.06 1879.6,1328.39 1881.43,1328.72 1883.27,1329.04 1885.1,1329.36 1886.94,1329.68 
  1888.78,1330 1890.61,1330.32 1892.45,1330.63 1894.28,1330.94 1896.12,1331.25 1897.96,1331.55 1899.79,1331.86 1901.63,1332.16 1903.46,1332.46 1905.3,1332.75 
  1907.14,1333.05 1908.97,1333.34 1910.81,1333.63 1912.64,1333.92 1914.48,1334.2 1916.32,1334.49 1918.15,1334.77 1919.99,1335.05 1921.83,1335.32 1923.66,1335.6 
  1925.5,1335.87 1927.33,1336.14 1929.17,1336.41 1931.01,1336.68 1932.84,1336.95 1934.68,1337.21 1936.51,1337.47 1938.35,1337.73 1940.19,1337.99 1942.02,1338.24 
  1943.86,1338.5 1945.69,1338.75 1947.53,1339 1949.37,1339.25 1951.2,1339.49 1953.04,1339.74 1954.87,1339.98 1956.71,1340.22 1958.55,1340.46 1960.38,1340.69 
  1962.22,1340.93 1964.06,1341.16 1965.89,1341.39 1967.73,1341.62 1969.56,1341.85 1971.4,1342.08 1973.24,1342.3 1975.07,1342.53 1976.91,1342.75 1978.74,1342.97 
  1980.58,1343.19 1982.42,1343.4 1984.25,1343.62 1986.09,1343.83 1987.92,1344.04 1989.76,1344.26 1991.6,1344.46 1993.43,1344.67 1995.27,1344.88 1997.11,1345.08 
  1998.94,1345.28 2000.78,1345.48 2002.61,1345.68 2004.45,1345.88 2006.29,1346.08 2008.12,1346.27 2009.96,1346.47 2011.79,1346.66 2013.63,1346.85 2015.47,1347.04 
  2017.3,1347.23 2019.14,1347.41 2020.97,1347.6 2022.81,1347.78 2024.65,1347.97 2026.48,1348.15 2028.32,1348.33 2030.15,1348.5 2031.99,1348.68 2033.83,1348.86 
  2035.66,1349.03 2037.5,1349.2 2039.34,1349.38 2041.17,1349.55 2043.01,1349.72 2044.84,1349.88 2046.68,1350.05 2048.52,1350.22 2050.35,1350.38 2052.19,1350.54 
  2054.02,1350.71 2055.86,1350.87 2057.7,1351.03 2059.53,1351.18 2061.37,1351.34 2063.2,1351.5 2065.04,1351.65 2066.88,1351.8 2068.71,1351.96 2070.55,1352.11 
  2072.38,1352.26 2074.22,1352.41 2076.06,1352.56 2077.89,1352.7 2079.73,1352.85 2081.57,1352.99 2083.4,1353.14 2085.24,1353.28 2087.07,1353.42 2088.91,1353.56 
  2090.75,1353.7 2092.58,1353.84 2094.42,1353.98 2096.25,1354.11 2098.09,1354.25 2099.93,1354.38 2101.76,1354.51 2103.6,1354.65 2105.43,1354.78 2107.27,1354.91 
  2109.11,1355.04 2110.94,1355.17 2112.78,1355.29 2114.61,1355.42 2116.45,1355.54 2118.29,1355.67 2120.12,1355.79 2121.96,1355.92 2123.8,1356.04 2125.63,1356.16 
  2127.47,1356.28 2129.3,1356.4 2131.14,1356.52 2132.98,1356.63 2134.81,1356.75 2136.65,1356.86 2138.48,1356.98 2140.32,1357.09 2142.16,1357.21 2143.99,1357.32 
  2145.83,1357.43 2147.66,1357.54 2149.5,1357.65 2151.34,1357.76 2153.17,1357.87 2155.01,1357.97 2156.85,1358.08 2158.68,1358.19 2160.52,1358.29 2162.35,1358.4 
  2164.19,1358.5 2166.03,1358.6 2167.86,1358.7 2169.7,1358.8 2171.53,1358.9 2173.37,1359 2175.21,1359.1 2177.04,1359.2 2178.88,1359.3 2180.71,1359.4 
  2182.55,1359.49 2184.39,1359.59 2186.22,1359.68 2188.06,1359.77 2189.89,1359.87 2191.73,1359.96 2193.57,1360.05 2195.4,1360.14 2197.24,1360.23 2199.08,1360.32 
  2200.91,1360.41 2202.75,1360.5 2204.58,1360.59 2206.42,1360.68 2208.26,1360.76 2210.09,1360.85 2211.93,1360.93 2213.76,1361.02 2215.6,1361.1 2217.44,1361.18 
  2219.27,1361.27 2221.11,1361.35 2222.94,1361.43 2224.78,1361.51 2226.62,1361.59 2228.45,1361.67 2230.29,1361.75 2232.12,1361.83 2233.96,1361.91 2235.8,1361.98 
  2237.63,1362.06 2239.47,1362.14 2241.31,1362.21 2243.14,1362.29 2244.98,1362.36 2246.81,1362.44 2248.65,1362.51 2250.49,1362.58 2252.32,1362.65 2254.16,1362.73 
  2255.99,1362.8 2257.83,1362.87 2259.67,1362.94 2261.5,1363.01 2263.34,1363.08 2265.17,1363.15 2267.01,1363.21 2268.85,1363.28 2270.68,1363.35 2272.52,1363.42 
  2274.35,1363.48 2276.19,1363.55 2278.03,1363.61 2279.86,1363.68 2281.7,1363.74 2283.54,1363.81 2285.37,1363.87 2287.21,1363.93 2289.04,1363.99 2290.88,1364.06 
  2292.72,1364.12 
  "/>
<path clip-path="url(#clip250)" d="
M1907.37 196.39 L2282.04 196.39 L2282.04 92.7101 L1907.37 92.7101  Z
  " fill="#ffffff" fill-rule="evenodd" fill-opacity="1"/>
<polyline clip-path="url(#clip250)" style="stroke:#000000; stroke-linecap:butt; stroke-linejoin:round; stroke-width:4; stroke-opacity:1; fill:none" points="
  1907.37,196.39 2282.04,196.39 2282.04,92.7101 1907.37,92.7101 1907.37,196.39 
  "/>
<polyline clip-path="url(#clip250)" style="stroke:#000000; stroke-linecap:butt; stroke-linejoin:round; stroke-width:4; stroke-opacity:1; fill:none" points="
  1930.94,144.55 2072.37,144.55 
  "/>
<path clip-path="url(#clip250)" d="M2116.45 136.9 L2116.45 140.881 Q2114.65 139.886 2112.82 139.4 Q2111.01 138.89 2109.16 138.89 Q2105.02 138.89 2102.72 141.529 Q2100.43 144.145 2100.43 148.89 Q2100.43 153.636 2102.72 156.275 Q2105.02 158.89 2109.16 158.89 Q2111.01 158.89 2112.82 158.404 Q2114.65 157.895 2116.45 156.9 L2116.45 160.835 Q2114.67 161.668 2112.75 162.085 Q2110.85 162.501 2108.7 162.501 Q2102.84 162.501 2099.39 158.821 Q2095.94 155.14 2095.94 148.89 Q2095.94 142.548 2099.41 138.914 Q2102.91 135.279 2108.97 135.279 Q2110.94 135.279 2112.82 135.696 Q2114.69 136.089 2116.45 136.9 Z" fill="#000000" fill-rule="evenodd" fill-opacity="1" /><path clip-path="url(#clip250)" d="M2135.64 148.798 Q2130.48 148.798 2128.49 149.978 Q2126.5 151.159 2126.5 154.006 Q2126.5 156.275 2127.98 157.617 Q2129.48 158.937 2132.05 158.937 Q2135.59 158.937 2137.72 156.437 Q2139.88 153.913 2139.88 149.747 L2139.88 148.798 L2135.64 148.798 M2144.14 147.038 L2144.14 161.83 L2139.88 161.83 L2139.88 157.895 Q2138.42 160.256 2136.24 161.39 Q2134.07 162.501 2130.92 162.501 Q2126.94 162.501 2124.58 160.279 Q2122.24 158.034 2122.24 154.284 Q2122.24 149.909 2125.15 147.687 Q2128.09 145.464 2133.9 145.464 L2139.88 145.464 L2139.88 145.048 Q2139.88 142.108 2137.93 140.511 Q2136.01 138.89 2132.52 138.89 Q2130.29 138.89 2128.19 139.423 Q2126.08 139.955 2124.14 141.02 L2124.14 137.085 Q2126.47 136.182 2128.67 135.742 Q2130.87 135.279 2132.96 135.279 Q2138.58 135.279 2141.36 138.196 Q2144.14 141.113 2144.14 147.038 Z" fill="#000000" fill-rule="evenodd" fill-opacity="1" /><path clip-path="url(#clip250)" d="M2149.85 135.904 L2154.37 135.904 L2162.47 157.663 L2170.57 135.904 L2175.08 135.904 L2165.36 161.83 L2159.58 161.83 L2149.85 135.904 Z" fill="#000000" fill-rule="evenodd" fill-opacity="1" /><path clip-path="url(#clip250)" d="M2180.96 135.904 L2185.22 135.904 L2185.22 161.83 L2180.96 161.83 L2180.96 135.904 M2180.96 125.812 L2185.22 125.812 L2185.22 131.205 L2180.96 131.205 L2180.96 125.812 Z" fill="#000000" fill-rule="evenodd" fill-opacity="1" /><path clip-path="url(#clip250)" d="M2198.35 128.543 L2198.35 135.904 L2207.12 135.904 L2207.12 139.214 L2198.35 139.214 L2198.35 153.288 Q2198.35 156.46 2199.21 157.363 Q2200.08 158.265 2202.75 158.265 L2207.12 158.265 L2207.12 161.83 L2202.75 161.83 Q2197.82 161.83 2195.94 160.001 Q2194.07 158.15 2194.07 153.288 L2194.07 139.214 L2190.94 139.214 L2190.94 135.904 L2194.07 135.904 L2194.07 128.543 L2198.35 128.543 Z" fill="#000000" fill-rule="evenodd" fill-opacity="1" /><path clip-path="url(#clip250)" d="M2223.51 164.237 Q2221.7 168.867 2219.99 170.279 Q2218.28 171.691 2215.41 171.691 L2212.01 171.691 L2212.01 168.126 L2214.51 168.126 Q2216.27 168.126 2217.24 167.293 Q2218.21 166.46 2219.39 163.358 L2220.15 161.413 L2209.67 135.904 L2214.18 135.904 L2222.28 156.182 L2230.39 135.904 L2234.9 135.904 L2223.51 164.237 Z" fill="#000000" fill-rule="evenodd" fill-opacity="1" /></svg>
