<?xml version="1.0" encoding="UTF-8" standalone="no"?>
<svg
   width="600"
   height="400"
   viewBox="0 0 2400 1600"
   version="1.1"
   id="svg597"
   sodipodi:docname="SM-species-abd-growth-rate.svg"
   inkscape:version="1.2 (1:1.2+202206011327+fc4e4096c5)"
   xmlns:inkscape="http://www.inkscape.org/namespaces/inkscape"
   xmlns:sodipodi="http://sodipodi.sourceforge.net/DTD/sodipodi-0.dtd"
   xmlns="http://www.w3.org/2000/svg"
   xmlns:svg="http://www.w3.org/2000/svg"
   xmlns:ns2="http://www.iki.fi/pav/software/textext/">
  <sodipodi:namedview
     id="namedview599"
     pagecolor="#ffffff"
     bordercolor="#666666"
     borderopacity="1.0"
     inkscape:showpageshadow="2"
     inkscape:pageopacity="0.0"
     inkscape:pagecheckerboard="0"
     inkscape:deskcolor="#d1d1d1"
     showgrid="false"
     inkscape:zoom="1.575507"
     inkscape:cx="253.56917"
     inkscape:cy="164.70888"
     inkscape:window-width="1366"
     inkscape:window-height="704"
     inkscape:window-x="0"
     inkscape:window-y="339"
     inkscape:window-maximized="1"
     inkscape:current-layer="svg597" />
  <defs
     id="defs5">
    <clipPath
       id="clip680">
      <rect
         x="0"
         y="0"
         width="2400"
         height="1600"
         id="rect2" />
    </clipPath>
  </defs>
  <defs
     id="defs12">
    <clipPath
       id="clip681">
      <rect
         x="480"
         y="0"
         width="1681"
         height="1600"
         id="rect9" />
    </clipPath>
  </defs>
  <defs
     id="defs17">
    <clipPath
       id="clip682">
      <rect
         x="219"
         y="47"
         width="2134"
         height="1365"
         id="rect14" />
    </clipPath>
  </defs>
  <path
     clip-path="url(#clip680)"
     d=" M219.866 1410.9 L2352.76 1410.9 L2352.76 47.2441 L219.866 47.2441  Z   "
     fill="#ffffff"
     fill-rule="evenodd"
     fill-opacity="1"
     id="path19" />
  <polyline
     clip-path="url(#clip680)"
     style="stroke:#000000; stroke-linecap:butt; stroke-linejoin:round; stroke-width:4; stroke-opacity:1; fill:none"
     points="   219.866,1410.9 2352.76,1410.9    "
     id="polyline21" />
  <polyline
     clip-path="url(#clip680)"
     style="stroke:#000000; stroke-linecap:butt; stroke-linejoin:round; stroke-width:4; stroke-opacity:1; fill:none"
     points="   310.193,1410.9 310.193,1392    "
     id="polyline23" />
  <polyline
     clip-path="url(#clip680)"
     style="stroke:#000000; stroke-linecap:butt; stroke-linejoin:round; stroke-width:4; stroke-opacity:1; fill:none"
     points="   1174.92,1410.9 1174.92,1392    "
     id="polyline25" />
  <polyline
     clip-path="url(#clip680)"
     style="stroke:#000000; stroke-linecap:butt; stroke-linejoin:round; stroke-width:4; stroke-opacity:1; fill:none"
     points="   2039.65,1410.9 2039.65,1392    "
     id="polyline27" />
  <path
     clip-path="url(#clip680)"
     d="M260.308 1485.02 L267.947 1485.02 L267.947 1458.66 L259.637 1460.32 L259.637 1456.06 L267.901 1454.4 L272.577 1454.4 L272.577 1485.02 L280.215 1485.02 L280.215 1488.96 L260.308 1488.96 L260.308 1485.02 Z"
     fill="#000000"
     fill-rule="evenodd"
     fill-opacity="1"
     id="path29" />
  <path
     clip-path="url(#clip680)"
     d="M299.66 1457.48 Q296.049 1457.48 294.22 1461.04 Q292.414 1464.58 292.414 1471.71 Q292.414 1478.82 294.22 1482.38 Q296.049 1485.92 299.66 1485.92 Q303.294 1485.92 305.1 1482.38 Q306.928 1478.82 306.928 1471.71 Q306.928 1464.58 305.1 1461.04 Q303.294 1457.48 299.66 1457.48 M299.66 1453.77 Q305.47 1453.77 308.525 1458.38 Q311.604 1462.96 311.604 1471.71 Q311.604 1480.44 308.525 1485.04 Q305.47 1489.63 299.66 1489.63 Q293.85 1489.63 290.771 1485.04 Q287.715 1480.44 287.715 1471.71 Q287.715 1462.96 290.771 1458.38 Q293.85 1453.77 299.66 1453.77 Z"
     fill="#000000"
     fill-rule="evenodd"
     fill-opacity="1"
     id="path31" />
  <path
     clip-path="url(#clip680)"
     d="M311.604 1447.87 L335.716 1447.87 L335.716 1451.07 L311.604 1451.07 L311.604 1447.87 Z"
     fill="#000000"
     fill-rule="evenodd"
     fill-opacity="1"
     id="path33" />
  <path
     clip-path="url(#clip680)"
     d="M344.574 1458.35 L350.781 1458.35 L350.781 1436.93 L344.029 1438.28 L344.029 1434.82 L350.743 1433.47 L354.542 1433.47 L354.542 1458.35 L360.749 1458.35 L360.749 1461.55 L344.574 1461.55 L344.574 1458.35 Z"
     fill="#000000"
     fill-rule="evenodd"
     fill-opacity="1"
     id="path35" />
  <path
     clip-path="url(#clip680)"
     d="M1139.91 1485.02 L1147.55 1485.02 L1147.55 1458.66 L1139.24 1460.32 L1139.24 1456.06 L1147.5 1454.4 L1152.18 1454.4 L1152.18 1485.02 L1159.81 1485.02 L1159.81 1488.96 L1139.91 1488.96 L1139.91 1485.02 Z"
     fill="#000000"
     fill-rule="evenodd"
     fill-opacity="1"
     id="path37" />
  <path
     clip-path="url(#clip680)"
     d="M1179.26 1457.48 Q1175.65 1457.48 1173.82 1461.04 Q1172.01 1464.58 1172.01 1471.71 Q1172.01 1478.82 1173.82 1482.38 Q1175.65 1485.92 1179.26 1485.92 Q1182.89 1485.92 1184.7 1482.38 Q1186.53 1478.82 1186.53 1471.71 Q1186.53 1464.58 1184.7 1461.04 Q1182.89 1457.48 1179.26 1457.48 M1179.26 1453.77 Q1185.07 1453.77 1188.12 1458.38 Q1191.2 1462.96 1191.2 1471.71 Q1191.2 1480.44 1188.12 1485.04 Q1185.07 1489.63 1179.26 1489.63 Q1173.45 1489.63 1170.37 1485.04 Q1167.31 1480.44 1167.31 1471.71 Q1167.31 1462.96 1170.37 1458.38 Q1173.45 1453.77 1179.26 1453.77 Z"
     fill="#000000"
     fill-rule="evenodd"
     fill-opacity="1"
     id="path39" />
  <path
     clip-path="url(#clip680)"
     d="M1200.91 1435.97 Q1197.97 1435.97 1196.49 1438.86 Q1195.02 1441.74 1195.02 1447.53 Q1195.02 1453.31 1196.49 1456.2 Q1197.97 1459.08 1200.91 1459.08 Q1203.86 1459.08 1205.33 1456.2 Q1206.81 1453.31 1206.81 1447.53 Q1206.81 1441.74 1205.33 1438.86 Q1203.86 1435.97 1200.91 1435.97 M1200.91 1432.96 Q1205.63 1432.96 1208.11 1436.7 Q1210.61 1440.43 1210.61 1447.53 Q1210.61 1454.62 1208.11 1458.37 Q1205.63 1462.09 1200.91 1462.09 Q1196.19 1462.09 1193.69 1458.37 Q1191.2 1454.62 1191.2 1447.53 Q1191.2 1440.43 1193.69 1436.7 Q1196.19 1432.96 1200.91 1432.96 Z"
     fill="#000000"
     fill-rule="evenodd"
     fill-opacity="1"
     id="path41" />
  <path
     clip-path="url(#clip680)"
     d="M2005.98 1485.02 L2013.62 1485.02 L2013.62 1458.66 L2005.31 1460.32 L2005.31 1456.06 L2013.58 1454.4 L2018.25 1454.4 L2018.25 1485.02 L2025.89 1485.02 L2025.89 1488.96 L2005.98 1488.96 L2005.98 1485.02 Z"
     fill="#000000"
     fill-rule="evenodd"
     fill-opacity="1"
     id="path43" />
  <path
     clip-path="url(#clip680)"
     d="M2045.33 1457.48 Q2041.72 1457.48 2039.89 1461.04 Q2038.09 1464.58 2038.09 1471.71 Q2038.09 1478.82 2039.89 1482.38 Q2041.72 1485.92 2045.33 1485.92 Q2048.97 1485.92 2050.77 1482.38 Q2052.6 1478.82 2052.6 1471.71 Q2052.6 1464.58 2050.77 1461.04 Q2048.97 1457.48 2045.33 1457.48 M2045.33 1453.77 Q2051.14 1453.77 2054.2 1458.38 Q2057.28 1462.96 2057.28 1471.71 Q2057.28 1480.44 2054.2 1485.04 Q2051.14 1489.63 2045.33 1489.63 Q2039.52 1489.63 2036.45 1485.04 Q2033.39 1480.44 2033.39 1471.71 Q2033.39 1462.96 2036.45 1458.38 Q2039.52 1453.77 2045.33 1453.77 Z"
     fill="#000000"
     fill-rule="evenodd"
     fill-opacity="1"
     id="path45" />
  <path
     clip-path="url(#clip680)"
     d="M2057.82 1458.35 L2064.03 1458.35 L2064.03 1436.93 L2057.28 1438.28 L2057.28 1434.82 L2063.99 1433.47 L2067.79 1433.47 L2067.79 1458.35 L2074 1458.35 L2074 1461.55 L2057.82 1461.55 L2057.82 1458.35 Z"
     fill="#000000"
     fill-rule="evenodd"
     fill-opacity="1"
     id="path47" />
  <path
     clip-path="url(#clip680)"
     d="m 1350.78,1553.44 q 0,1.8 -1.13,2.83 -1.13,1 -2.42,1 -1.22,0 -1.87,-0.71 -0.64,-0.71 -0.64,-1.61 0,-1.22 0.9,-2.29 0.9,-1.06 2.26,-1.28 -1.32,-0.84 -3.29,-0.84 -1.29,0 -2.41,0.67 -1.1,0.68 -1.78,1.55 -0.64,0.87 -1.22,2.13 -0.55,1.22 -0.77,1.96 -0.2,0.71 -0.36,1.48 l -2.25,9.02 q -1.1,4.28 -1.1,5.8 0,1.86 0.91,3.12 0.9,1.22 2.7,1.22 0.71,0 1.52,-0.19 0.8,-0.22 1.83,-0.8 1.06,-0.62 2,-1.52 0.96,-0.93 1.9,-2.51 0.93,-1.58 1.54,-3.61 0.2,-0.71 0.84,-0.71 0.81,0 0.81,0.65 0,0.55 -0.45,1.71 -0.42,1.12 -1.36,2.6 -0.9,1.45 -2.09,2.77 -1.19,1.29 -2.96,2.19 -1.77,0.91 -3.71,0.91 -2.77,0 -4.6,-1.49 -1.84,-1.48 -2.51,-3.54 -0.17,0.29 -0.39,0.68 -0.23,0.38 -0.9,1.25 -0.65,0.84 -1.39,1.49 -0.74,0.61 -1.9,1.09 -1.13,0.52 -2.35,0.52 -1.54,0 -2.93,-0.46 -1.35,-0.45 -2.32,-1.48 -0.96,-1.03 -0.96,-2.44 0,-1.58 1.06,-2.68 1.09,-1.12 2.57,-1.12 0.94,0 1.68,0.54 0.77,0.55 0.77,1.74 0,1.32 -0.9,2.32 -0.9,1 -2.19,1.26 1.32,0.83 3.29,0.83 2.12,0 3.8,-1.86 1.67,-1.87 2.48,-5 1.99,-7.5 2.77,-10.85 0.77,-3.38 0.77,-4.83 0,-1.35 -0.36,-2.29 -0.35,-0.93 -0.96,-1.35 -0.58,-0.45 -1.13,-0.61 -0.51,-0.16 -1.09,-0.16 -0.97,0 -2.07,0.38 -1.06,0.39 -2.35,1.29 -1.25,0.87 -2.44,2.68 -1.2,1.8 -2,4.28 -0.16,0.74 -0.87,0.74 -0.77,-0.03 -0.77,-0.68 0,-0.54 0.42,-1.67 0.45,-1.16 1.35,-2.61 0.93,-1.45 2.12,-2.74 1.23,-1.32 3,-2.22 1.8,-0.9 3.73,-0.9 0.87,0 1.71,0.19 0.87,0.16 1.9,0.65 1.06,0.48 2,1.54 0.93,1.06 1.51,2.61 0.39,-0.74 0.9,-1.45 0.55,-0.71 1.39,-1.58 0.87,-0.9 2.06,-1.41 1.22,-0.55 2.58,-0.55 1.32,0 2.6,0.35 1.29,0.33 2.39,1.39 1.13,1.03 1.13,2.61 z"
     fill="#000000"
     fill-rule="evenodd"
     fill-opacity="1"
     id="path55"
     transform="translate(-48)" />
  <polyline
     clip-path="url(#clip680)"
     style="stroke:#000000; stroke-linecap:butt; stroke-linejoin:round; stroke-width:4; stroke-opacity:1; fill:none"
     points="   219.866,1410.9 219.866,47.2441    "
     id="polyline57" />
  <polyline
     clip-path="url(#clip680)"
     style="stroke:#000000; stroke-linecap:butt; stroke-linejoin:round; stroke-width:4; stroke-opacity:1; fill:none"
     points="   219.866,1372.3 238.764,1372.3    "
     id="polyline59" />
  <polyline
     clip-path="url(#clip680)"
     style="stroke:#000000; stroke-linecap:butt; stroke-linejoin:round; stroke-width:4; stroke-opacity:1; fill:none"
     points="   219.866,1090.6 238.764,1090.6    "
     id="polyline61" />
  <polyline
     clip-path="url(#clip680)"
     style="stroke:#000000; stroke-linecap:butt; stroke-linejoin:round; stroke-width:4; stroke-opacity:1; fill:none"
     points="   219.866,808.896 238.764,808.896    "
     id="polyline63" />
  <polyline
     clip-path="url(#clip680)"
     style="stroke:#000000; stroke-linecap:butt; stroke-linejoin:round; stroke-width:4; stroke-opacity:1; fill:none"
     points="   219.866,527.192 238.764,527.192    "
     id="polyline65" />
  <polyline
     clip-path="url(#clip680)"
     style="stroke:#000000; stroke-linecap:butt; stroke-linejoin:round; stroke-width:4; stroke-opacity:1; fill:none"
     points="   219.866,245.489 238.764,245.489    "
     id="polyline67" />
  <path
     clip-path="url(#clip680)"
     d="M126.691 1358.1 Q123.08 1358.1 121.251 1361.67 Q119.445 1365.21 119.445 1372.34 Q119.445 1379.44 121.251 1383.01 Q123.08 1386.55 126.691 1386.55 Q130.325 1386.55 132.13 1383.01 Q133.959 1379.44 133.959 1372.34 Q133.959 1365.21 132.13 1361.67 Q130.325 1358.1 126.691 1358.1 M126.691 1354.4 Q132.501 1354.4 135.556 1359 Q138.635 1363.59 138.635 1372.34 Q138.635 1381.06 135.556 1385.67 Q132.501 1390.25 126.691 1390.25 Q120.88 1390.25 117.802 1385.67 Q114.746 1381.06 114.746 1372.34 Q114.746 1363.59 117.802 1359 Q120.88 1354.4 126.691 1354.4 Z"
     fill="#000000"
     fill-rule="evenodd"
     fill-opacity="1"
     id="path69" />
  <path
     clip-path="url(#clip680)"
     d="M146.853 1383.7 L151.737 1383.7 L151.737 1389.58 L146.853 1389.58 L146.853 1383.7 Z"
     fill="#000000"
     fill-rule="evenodd"
     fill-opacity="1"
     id="path71" />
  <path
     clip-path="url(#clip680)"
     d="M171.922 1358.1 Q168.311 1358.1 166.482 1361.67 Q164.677 1365.21 164.677 1372.34 Q164.677 1379.44 166.482 1383.01 Q168.311 1386.55 171.922 1386.55 Q175.556 1386.55 177.362 1383.01 Q179.19 1379.44 179.19 1372.34 Q179.19 1365.21 177.362 1361.67 Q175.556 1358.1 171.922 1358.1 M171.922 1354.4 Q177.732 1354.4 180.788 1359 Q183.866 1363.59 183.866 1372.34 Q183.866 1381.06 180.788 1385.67 Q177.732 1390.25 171.922 1390.25 Q166.112 1390.25 163.033 1385.67 Q159.978 1381.06 159.978 1372.34 Q159.978 1363.59 163.033 1359 Q166.112 1354.4 171.922 1354.4 Z"
     fill="#000000"
     fill-rule="evenodd"
     fill-opacity="1"
     id="path73" />
  <path
     clip-path="url(#clip680)"
     d="M128.288 1076.4 Q124.677 1076.4 122.848 1079.96 Q121.043 1083.5 121.043 1090.63 Q121.043 1097.74 122.848 1101.31 Q124.677 1104.85 128.288 1104.85 Q131.922 1104.85 133.728 1101.31 Q135.556 1097.74 135.556 1090.63 Q135.556 1083.5 133.728 1079.96 Q131.922 1076.4 128.288 1076.4 M128.288 1072.69 Q134.098 1072.69 137.154 1077.3 Q140.232 1081.88 140.232 1090.63 Q140.232 1099.36 137.154 1103.97 Q134.098 1108.55 128.288 1108.55 Q122.478 1108.55 119.399 1103.97 Q116.343 1099.36 116.343 1090.63 Q116.343 1081.88 119.399 1077.3 Q122.478 1072.69 128.288 1072.69 Z"
     fill="#000000"
     fill-rule="evenodd"
     fill-opacity="1"
     id="path75" />
  <path
     clip-path="url(#clip680)"
     d="M148.45 1102 L153.334 1102 L153.334 1107.88 L148.45 1107.88 L148.45 1102 Z"
     fill="#000000"
     fill-rule="evenodd"
     fill-opacity="1"
     id="path77" />
  <path
     clip-path="url(#clip680)"
     d="M167.547 1103.94 L183.866 1103.94 L183.866 1107.88 L161.922 1107.88 L161.922 1103.94 Q164.584 1101.19 169.167 1096.56 Q173.774 1091.91 174.954 1090.56 Q177.2 1088.04 178.079 1086.31 Q178.982 1084.55 178.982 1082.86 Q178.982 1080.1 177.038 1078.37 Q175.116 1076.63 172.014 1076.63 Q169.815 1076.63 167.362 1077.39 Q164.931 1078.16 162.153 1079.71 L162.153 1074.99 Q164.977 1073.85 167.431 1073.27 Q169.885 1072.69 171.922 1072.69 Q177.292 1072.69 180.487 1075.38 Q183.681 1078.06 183.681 1082.56 Q183.681 1084.68 182.871 1086.61 Q182.084 1088.5 179.977 1091.1 Q179.399 1091.77 176.297 1094.99 Q173.195 1098.18 167.547 1103.94 Z"
     fill="#000000"
     fill-rule="evenodd"
     fill-opacity="1"
     id="path79" />
  <path
     clip-path="url(#clip680)"
     d="M126.205 794.695 Q122.593 794.695 120.765 798.259 Q118.959 801.801 118.959 808.931 Q118.959 816.037 120.765 819.602 Q122.593 823.144 126.205 823.144 Q129.839 823.144 131.644 819.602 Q133.473 816.037 133.473 808.931 Q133.473 801.801 131.644 798.259 Q129.839 794.695 126.205 794.695 M126.205 790.991 Q132.015 790.991 135.07 795.597 Q138.149 800.181 138.149 808.931 Q138.149 817.657 135.07 822.264 Q132.015 826.847 126.205 826.847 Q120.394 826.847 117.316 822.264 Q114.26 817.657 114.26 808.931 Q114.26 800.181 117.316 795.597 Q120.394 790.991 126.205 790.991 Z"
     fill="#000000"
     fill-rule="evenodd"
     fill-opacity="1"
     id="path81" />
  <path
     clip-path="url(#clip680)"
     d="M146.366 820.296 L151.251 820.296 L151.251 826.176 L146.366 826.176 L146.366 820.296 Z"
     fill="#000000"
     fill-rule="evenodd"
     fill-opacity="1"
     id="path83" />
  <path
     clip-path="url(#clip680)"
     d="M174.283 795.69 L162.477 814.139 L174.283 814.139 L174.283 795.69 M173.056 791.616 L178.936 791.616 L178.936 814.139 L183.866 814.139 L183.866 818.028 L178.936 818.028 L178.936 826.176 L174.283 826.176 L174.283 818.028 L158.681 818.028 L158.681 813.514 L173.056 791.616 Z"
     fill="#000000"
     fill-rule="evenodd"
     fill-opacity="1"
     id="path85" />
  <path
     clip-path="url(#clip680)"
     d="M126.529 512.991 Q122.918 512.991 121.089 516.556 Q119.283 520.098 119.283 527.227 Q119.283 534.334 121.089 537.898 Q122.918 541.44 126.529 541.44 Q130.163 541.44 131.968 537.898 Q133.797 534.334 133.797 527.227 Q133.797 520.098 131.968 516.556 Q130.163 512.991 126.529 512.991 M126.529 509.288 Q132.339 509.288 135.394 513.894 Q138.473 518.477 138.473 527.227 Q138.473 535.954 135.394 540.56 Q132.339 545.144 126.529 545.144 Q120.718 545.144 117.64 540.56 Q114.584 535.954 114.584 527.227 Q114.584 518.477 117.64 513.894 Q120.718 509.288 126.529 509.288 Z"
     fill="#000000"
     fill-rule="evenodd"
     fill-opacity="1"
     id="path87" />
  <path
     clip-path="url(#clip680)"
     d="M146.691 538.593 L151.575 538.593 L151.575 544.472 L146.691 544.472 L146.691 538.593 Z"
     fill="#000000"
     fill-rule="evenodd"
     fill-opacity="1"
     id="path89" />
  <path
     clip-path="url(#clip680)"
     d="M172.339 525.329 Q169.19 525.329 167.339 527.482 Q165.51 529.635 165.51 533.385 Q165.51 537.111 167.339 539.287 Q169.19 541.44 172.339 541.44 Q175.487 541.44 177.315 539.287 Q179.167 537.111 179.167 533.385 Q179.167 529.635 177.315 527.482 Q175.487 525.329 172.339 525.329 M181.621 510.676 L181.621 514.936 Q179.862 514.102 178.056 513.662 Q176.274 513.223 174.514 513.223 Q169.885 513.223 167.431 516.348 Q165.001 519.473 164.653 525.792 Q166.019 523.778 168.079 522.713 Q170.139 521.625 172.616 521.625 Q177.825 521.625 180.834 524.797 Q183.866 527.945 183.866 533.385 Q183.866 538.709 180.718 541.926 Q177.57 545.144 172.339 545.144 Q166.343 545.144 163.172 540.56 Q160.001 535.954 160.001 527.227 Q160.001 519.033 163.89 514.172 Q167.778 509.288 174.329 509.288 Q176.089 509.288 177.871 509.635 Q179.676 509.982 181.621 510.676 Z"
     fill="#000000"
     fill-rule="evenodd"
     fill-opacity="1"
     id="path91" />
  <path
     clip-path="url(#clip680)"
     d="M126.783 231.288 Q123.172 231.288 121.343 234.853 Q119.538 238.394 119.538 245.524 Q119.538 252.63 121.343 256.195 Q123.172 259.737 126.783 259.737 Q130.417 259.737 132.223 256.195 Q134.052 252.63 134.052 245.524 Q134.052 238.394 132.223 234.853 Q130.417 231.288 126.783 231.288 M126.783 227.584 Q132.593 227.584 135.649 232.191 Q138.728 236.774 138.728 245.524 Q138.728 254.251 135.649 258.857 Q132.593 263.44 126.783 263.44 Q120.973 263.44 117.894 258.857 Q114.839 254.251 114.839 245.524 Q114.839 236.774 117.894 232.191 Q120.973 227.584 126.783 227.584 Z"
     fill="#000000"
     fill-rule="evenodd"
     fill-opacity="1"
     id="path93" />
  <path
     clip-path="url(#clip680)"
     d="M146.945 256.889 L151.829 256.889 L151.829 262.769 L146.945 262.769 L146.945 256.889 Z"
     fill="#000000"
     fill-rule="evenodd"
     fill-opacity="1"
     id="path95" />
  <path
     clip-path="url(#clip680)"
     d="M172.014 246.357 Q168.681 246.357 166.76 248.14 Q164.862 249.922 164.862 253.047 Q164.862 256.172 166.76 257.954 Q168.681 259.737 172.014 259.737 Q175.348 259.737 177.269 257.954 Q179.19 256.149 179.19 253.047 Q179.19 249.922 177.269 248.14 Q175.371 246.357 172.014 246.357 M167.339 244.366 Q164.329 243.626 162.64 241.566 Q160.973 239.505 160.973 236.542 Q160.973 232.399 163.913 229.991 Q166.876 227.584 172.014 227.584 Q177.176 227.584 180.116 229.991 Q183.056 232.399 183.056 236.542 Q183.056 239.505 181.366 241.566 Q179.7 243.626 176.714 244.366 Q180.093 245.153 181.968 247.445 Q183.866 249.737 183.866 253.047 Q183.866 258.07 180.788 260.755 Q177.732 263.44 172.014 263.44 Q166.297 263.44 163.218 260.755 Q160.163 258.07 160.163 253.047 Q160.163 249.737 162.061 247.445 Q163.959 245.153 167.339 244.366 M165.626 236.982 Q165.626 239.667 167.292 241.172 Q168.982 242.677 172.014 242.677 Q175.024 242.677 176.714 241.172 Q178.426 239.667 178.426 236.982 Q178.426 234.297 176.714 232.792 Q175.024 231.288 172.014 231.288 Q168.982 231.288 167.292 232.792 Q165.626 234.297 165.626 236.982 Z"
     fill="#000000"
     fill-rule="evenodd"
     fill-opacity="1"
     id="path97" />
  <path
     clip-path="url(#clip680)"
     d="M33.3557 751.567 Q36.9628 751.567 40.28 754.24 Q43.5972 756.881 45.6261 761.196 Q47.6229 765.48 47.6229 770.085 L47.6229 781.293 L64.1123 785.383 Q64.2089 785.415 64.6276 785.512 Q65.0141 785.608 65.2395 785.608 Q66.0447 785.608 66.2379 784.61 Q66.4311 783.579 66.4311 781.293 Q66.4311 779.811 66.6888 779.586 Q66.8498 779.457 67.1397 779.457 Q67.5905 779.457 67.9126 779.586 Q68.2024 779.715 68.2991 779.972 Q68.3957 780.198 68.4279 780.359 Q68.4601 780.52 68.4601 780.777 Q68.4601 781.454 68.3957 782.903 Q68.3313 784.32 68.3313 785.061 L68.2669 789.28 L68.4601 797.653 Q68.4601 798.652 67.6549 798.652 Q67.043 798.652 66.7854 798.394 Q66.4955 798.136 66.4633 797.847 Q66.4311 797.557 66.4311 796.816 Q66.4311 795.206 66.3345 794.239 Q66.2379 793.273 66.1091 792.661 Q65.948 792.017 65.4972 791.695 Q65.0463 791.341 64.6598 791.18 Q64.2411 791.019 63.3072 790.793 L27.8807 781.969 Q26.8179 781.711 26.6569 781.711 Q26.1094 781.711 25.9162 782.033 Q25.6907 782.323 25.5941 783.161 Q25.4653 784.771 25.4653 785.995 Q25.4653 786.8 25.4331 787.122 Q25.4009 787.412 25.2398 787.669 Q25.0466 787.895 24.6601 787.895 Q24.0482 787.895 23.7906 787.637 Q23.5007 787.347 23.4685 787.025 Q23.4041 786.703 23.4041 785.93 L23.4041 764.546 Q23.4041 758.394 26.3348 754.981 Q29.2656 751.567 33.3557 751.567 M31.7776 757.686 Q25.4653 757.686 25.4653 766.671 L25.4653 772.984 Q25.4653 775.077 25.8517 775.592 Q26.206 776.108 27.9773 776.558 L45.916 781.035 L45.916 771.728 Q45.916 765.48 42.4056 761.583 Q40.7953 759.811 37.4459 758.749 Q34.0964 757.686 31.7776 757.686 Z"
     fill="#000000"
     fill-rule="evenodd"
     fill-opacity="1"
     id="path99" />
  <path
     clip-path="url(#clip680)"
     d="M51.9707 744.329 Q40.8275 744.329 31.842 740.174 Q28.0739 738.403 24.9178 735.923 Q21.7616 733.443 20.3767 731.801 Q18.9919 730.158 18.9919 729.708 Q18.9919 729.063 19.636 729.031 Q19.9581 729.031 20.7632 729.901 Q31.5844 740.529 51.9707 740.497 Q72.4214 740.497 82.8239 730.158 Q83.9511 729.031 84.3054 729.031 Q84.9495 729.031 84.9495 729.708 Q84.9495 730.158 83.6291 731.737 Q82.3086 733.315 79.2813 735.762 Q76.2539 738.21 72.5502 739.981 Q63.5648 744.329 51.9707 744.329 Z"
     fill="#000000"
     fill-rule="evenodd"
     fill-opacity="1"
     id="path101" />
  <path
     clip-path="url(#clip680)"
     d="M43.6616 691.168 Q45.4651 691.168 46.4957 692.295 Q47.4941 693.422 47.4941 694.71 Q47.4941 695.934 46.7856 696.578 Q46.077 697.222 45.1753 697.222 Q43.9514 697.222 42.8886 696.321 Q41.8258 695.419 41.6004 694.066 Q40.7631 695.387 40.7631 697.351 Q40.7631 698.639 41.4394 699.767 Q42.1157 700.862 42.9853 701.538 Q43.8548 702.182 45.1108 702.762 Q46.3347 703.309 47.0754 703.535 Q47.7839 703.728 48.5569 703.889 L57.5745 706.143 Q61.8579 707.238 63.3716 707.238 Q65.2395 707.238 66.4955 706.337 Q67.7194 705.435 67.7194 703.631 Q67.7194 702.923 67.5261 702.118 Q67.3007 701.312 66.721 700.282 Q66.1091 699.219 65.2073 698.285 Q64.2733 697.319 62.6952 696.385 Q61.1172 695.451 59.0882 694.839 Q58.3797 694.646 58.3797 694.002 Q58.3797 693.197 59.0238 693.197 Q59.5713 693.197 60.7307 693.647 Q61.8579 694.066 63.3394 695 Q64.7886 695.902 66.1091 697.094 Q67.3973 698.285 68.2991 700.056 Q69.2008 701.828 69.2008 703.76 Q69.2008 706.53 67.7194 708.366 Q66.2379 710.201 64.1767 710.878 Q64.4666 711.039 64.853 711.264 Q65.2395 711.49 66.1091 712.166 Q66.9464 712.81 67.5905 713.551 Q68.2024 714.291 68.6855 715.451 Q69.2008 716.578 69.2008 717.802 Q69.2008 719.348 68.7499 720.733 Q68.2991 722.085 67.2685 723.051 Q66.2379 724.018 64.8208 724.018 Q63.2427 724.018 62.1477 722.955 Q61.0205 721.86 61.0205 720.378 Q61.0205 719.444 61.568 718.704 Q62.1155 717.931 63.3072 717.931 Q64.6276 717.931 65.626 718.832 Q66.6244 719.734 66.882 721.022 Q67.7194 719.702 67.7194 717.737 Q67.7194 715.612 65.8514 713.937 Q63.9835 712.262 60.8595 711.457 Q53.3555 709.461 50.0061 708.688 Q46.6245 707.915 45.1753 707.915 Q43.8226 707.915 42.8886 708.269 Q41.9547 708.623 41.536 709.235 Q41.0851 709.815 40.9241 710.362 Q40.7631 710.878 40.7631 711.457 Q40.7631 712.424 41.1495 713.519 Q41.536 714.581 42.4378 715.87 Q43.3073 717.126 45.1108 718.317 Q46.9144 719.509 49.3942 720.314 Q50.135 720.475 50.135 721.184 Q50.1028 721.956 49.4586 721.956 Q48.9111 721.956 47.7839 721.538 Q46.6245 721.087 45.1753 720.185 Q43.726 719.251 42.4378 718.06 Q41.1173 716.836 40.2156 715.064 Q39.3138 713.261 39.3138 711.329 Q39.3138 710.459 39.507 709.622 Q39.6681 708.752 40.1511 707.721 Q40.6342 706.659 41.697 705.725 Q42.7598 704.791 44.3057 704.211 Q43.565 703.825 42.8564 703.309 Q42.1479 702.762 41.2783 701.924 Q40.3766 701.055 39.8613 699.863 Q39.3138 698.639 39.3138 697.287 Q39.3138 695.966 39.6681 694.678 Q39.9901 693.39 41.0529 692.295 Q42.0835 691.168 43.6616 691.168 Z"
     fill="#000000"
     fill-rule="evenodd"
     fill-opacity="1"
     id="path103" />
  <path
     clip-path="url(#clip680)"
     d="M84.3054 684.816 Q83.9833 684.816 83.1782 683.979 Q72.357 673.351 51.9707 673.351 Q31.52 673.351 21.1819 683.56 Q19.9903 684.816 19.636 684.816 Q18.9919 684.816 18.9919 684.172 Q18.9919 683.721 20.3123 682.143 Q21.6328 680.533 24.6601 678.118 Q27.6875 675.67 31.3911 673.866 Q40.3766 669.519 51.9707 669.519 Q63.1139 669.519 72.0994 673.673 Q75.8674 675.445 79.0236 677.924 Q82.1798 680.404 83.5646 682.047 Q84.9495 683.689 84.9495 684.172 Q84.9495 684.816 84.3054 684.816 Z"
     fill="#000000"
     fill-rule="evenodd"
     fill-opacity="1"
     id="path105" />
  <path
     clip-path="url(#clip682)"
     d=" M1254.71 1372.3 L1254.71 1372.3 L1297.95 1372.3 L1297.95 1372.3 L1254.71 1372.3 L1254.71 1372.3  Z   "
     fill="#009af9"
     fill-rule="evenodd"
     fill-opacity="0.5"
     id="path107" />
  <polyline
     clip-path="url(#clip682)"
     style="stroke:#000000; stroke-linecap:butt; stroke-linejoin:round; stroke-width:4; stroke-opacity:0.5; fill:none"
     points="   1254.71,1372.3 1254.71,1372.3 1297.95,1372.3 1254.71,1372.3    "
     id="polyline109" />
  <path
     clip-path="url(#clip682)"
     d=" M1297.95 1372.3 L1297.95 1372.3 L1341.19 1372.3 L1341.19 1372.3 L1297.95 1372.3 L1297.95 1372.3  Z   "
     fill="#009af9"
     fill-rule="evenodd"
     fill-opacity="0.5"
     id="path111" />
  <polyline
     clip-path="url(#clip682)"
     style="stroke:#000000; stroke-linecap:butt; stroke-linejoin:round; stroke-width:4; stroke-opacity:0.5; fill:none"
     points="   1297.95,1372.3 1297.95,1372.3 1341.19,1372.3 1297.95,1372.3    "
     id="polyline113" />
  <path
     clip-path="url(#clip682)"
     d=" M1341.19 1342.65 L1341.19 1372.3 L1384.42 1372.3 L1384.42 1342.65 L1341.19 1342.65 L1341.19 1342.65  Z   "
     fill="#009af9"
     fill-rule="evenodd"
     fill-opacity="0.5"
     id="path115"
     style="fill:#008000;opacity:0.5" />
  <polyline
     clip-path="url(#clip682)"
     style="stroke:#000000;stroke-linecap:butt;stroke-linejoin:round;stroke-width:4;stroke-opacity:0.5;fill:#008000;opacity:0.5"
     points="   1341.19,1342.65 1341.19,1372.3 1384.42,1372.3 1384.42,1342.65 1341.19,1342.65    "
     id="polyline117" />
  <path
     clip-path="url(#clip682)"
     d=" M1384.42 1273.18 L1384.42 1372.3 L1427.66 1372.3 L1427.66 1273.18 L1384.42 1273.18 L1384.42 1273.18  Z   "
     fill="#009af9"
     fill-rule="evenodd"
     fill-opacity="0.5"
     id="path119"
     style="fill:#008000;opacity:0.5" />
  <polyline
     clip-path="url(#clip682)"
     style="stroke:#000000;stroke-linecap:butt;stroke-linejoin:round;stroke-width:4;stroke-opacity:0.5;fill:#008000;opacity:0.5"
     points="   1384.42,1273.18 1384.42,1372.3 1427.66,1372.3 1427.66,1273.18 1384.42,1273.18    "
     id="polyline121" />
  <path
     clip-path="url(#clip682)"
     d=" M1427.66 1001.28 L1427.66 1372.3 L1470.9 1372.3 L1470.9 1001.28 L1427.66 1001.28 L1427.66 1001.28  Z   "
     fill="#009af9"
     fill-rule="evenodd"
     fill-opacity="0.5"
     id="path123"
     style="fill:#008000;opacity:1" />
  <polyline
     clip-path="url(#clip682)"
     style="stroke:#000000; stroke-linecap:butt; stroke-linejoin:round; stroke-width:4; stroke-opacity:0.5; fill:none"
     points="   1427.66,1001.28 1427.66,1372.3 1470.9,1372.3 1470.9,1001.28 1427.66,1001.28    "
     id="polyline125" />
  <path
     clip-path="url(#clip682)"
     d=" M1470.9 417.01 L1470.9 1372.3 L1514.13 1372.3 L1514.13 417.01 L1470.9 417.01 L1470.9 417.01  Z   "
     fill="#009af9"
     fill-rule="evenodd"
     fill-opacity="0.5"
     id="path127"
     style="fill:#008000;opacity:1" />
  <polyline
     clip-path="url(#clip682)"
     style="stroke:#000000; stroke-linecap:butt; stroke-linejoin:round; stroke-width:4; stroke-opacity:0.5; fill:none"
     points="   1470.9,417.01 1470.9,1372.3 1514.13,1372.3 1514.13,417.01 1470.9,417.01    "
     id="polyline129" />
  <path
     clip-path="url(#clip682)"
     d=" M1514.13 85.838 L1514.13 1372.3 L1557.37 1372.3 L1557.37 85.838 L1514.13 85.838 L1514.13 85.838  Z   "
     fill="#009af9"
     fill-rule="evenodd"
     fill-opacity="0.5"
     id="path131"
     style="fill:#008000;opacity:1" />
  <polyline
     clip-path="url(#clip682)"
     style="stroke:#000000; stroke-linecap:butt; stroke-linejoin:round; stroke-width:4; stroke-opacity:0.5; fill:none"
     points="   1514.13,85.838 1514.13,1372.3 1557.37,1372.3 1557.37,85.838 1514.13,85.838    "
     id="polyline133" />
  <path
     clip-path="url(#clip682)"
     d=" M1557.37 179.877 L1557.37 1372.3 L1600.61 1372.3 L1600.61 179.877 L1557.37 179.877 L1557.37 179.877  Z   "
     fill="#009af9"
     fill-rule="evenodd"
     fill-opacity="0.5"
     id="path135"
     style="fill:#008000;opacity:1" />
  <polyline
     clip-path="url(#clip682)"
     style="stroke:#000000; stroke-linecap:butt; stroke-linejoin:round; stroke-width:4; stroke-opacity:0.5; fill:none"
     points="   1557.37,179.877 1557.37,1372.3 1600.61,1372.3 1600.61,179.877 1557.37,179.877    "
     id="polyline137" />
  <path
     clip-path="url(#clip682)"
     d=" M1600.61 837.212 L1600.61 1372.3 L1643.84 1372.3 L1643.84 837.212 L1600.61 837.212 L1600.61 837.212  Z   "
     fill="#009af9"
     fill-rule="evenodd"
     fill-opacity="0.5"
     id="path139"
     style="fill:#008000;opacity:1" />
  <polyline
     clip-path="url(#clip682)"
     style="stroke:#000000; stroke-linecap:butt; stroke-linejoin:round; stroke-width:4; stroke-opacity:0.5; fill:none"
     points="   1600.61,837.212 1600.61,1372.3 1643.84,1372.3 1643.84,837.212 1600.61,837.212    "
     id="polyline141" />
  <path
     clip-path="url(#clip682)"
     d=" M1643.84 1276.26 L1643.84 1372.3 L1687.08 1372.3 L1687.08 1276.26 L1643.84 1276.26 L1643.84 1276.26  Z   "
     fill="#009af9"
     fill-rule="evenodd"
     fill-opacity="0.5"
     id="path143"
     style="fill:#008000;opacity:0.5" />
  <polyline
     clip-path="url(#clip682)"
     style="stroke:#000000;stroke-linecap:butt;stroke-linejoin:round;stroke-width:4;stroke-opacity:0.5;fill:#008000;opacity:0.5"
     points="   1643.84,1276.26 1643.84,1372.3 1687.08,1372.3 1687.08,1276.26 1643.84,1276.26    "
     id="polyline145" />
  <path
     clip-path="url(#clip682)"
     d=" M1687.08 1366.4 L1687.08 1372.3 L1730.32 1372.3 L1730.32 1366.4 L1687.08 1366.4 L1687.08 1366.4  Z   "
     fill="#009af9"
     fill-rule="evenodd"
     fill-opacity="0.5"
     id="path147"
     style="fill:#008000;opacity:0.5" />
  <polyline
     clip-path="url(#clip682)"
     style="stroke:#000000;stroke-linecap:butt;stroke-linejoin:round;stroke-width:4;stroke-opacity:0.5;fill:#008000;opacity:0.5"
     points="   1687.08,1366.4 1687.08,1372.3 1730.32,1372.3 1730.32,1366.4 1687.08,1366.4    "
     id="polyline149" />
  <path
     clip-path="url(#clip682)"
     d=" M1730.32 1372.3 L1730.32 1372.3 L1773.55 1372.3 L1773.55 1372.3 L1730.32 1372.3 L1730.32 1372.3  Z   "
     fill="#009af9"
     fill-rule="evenodd"
     fill-opacity="0.5"
     id="path151" />
  <polyline
     clip-path="url(#clip682)"
     style="stroke:#000000; stroke-linecap:butt; stroke-linejoin:round; stroke-width:4; stroke-opacity:0.5; fill:none"
     points="   1730.32,1372.3 1730.32,1372.3 1773.55,1372.3 1730.32,1372.3    "
     id="polyline153" />
  <path
     clip-path="url(#clip682)"
     d=" M1773.55 1372.3 L1773.55 1372.3 L1816.79 1372.3 L1816.79 1372.3 L1773.55 1372.3 L1773.55 1372.3  Z   "
     fill="#009af9"
     fill-rule="evenodd"
     fill-opacity="0.5"
     id="path155" />
  <polyline
     clip-path="url(#clip682)"
     style="stroke:#000000; stroke-linecap:butt; stroke-linejoin:round; stroke-width:4; stroke-opacity:0.5; fill:none"
     points="   1773.55,1372.3 1773.55,1372.3 1816.79,1372.3 1773.55,1372.3    "
     id="polyline157" />
  <path
     clip-path="url(#clip682)"
     d=" M1816.79 1372.3 L1816.79 1372.3 L1860.03 1372.3 L1860.03 1372.3 L1816.79 1372.3 L1816.79 1372.3  Z   "
     fill="#009af9"
     fill-rule="evenodd"
     fill-opacity="0.5"
     id="path159" />
  <polyline
     clip-path="url(#clip682)"
     style="stroke:#000000; stroke-linecap:butt; stroke-linejoin:round; stroke-width:4; stroke-opacity:0.5; fill:none"
     points="   1816.79,1372.3 1816.79,1372.3 1860.03,1372.3 1816.79,1372.3    "
     id="polyline161" />
  <path
     clip-path="url(#clip682)"
     d=" M1860.03 1372.3 L1860.03 1372.3 L1903.26 1372.3 L1903.26 1372.3 L1860.03 1372.3 L1860.03 1372.3  Z   "
     fill="#009af9"
     fill-rule="evenodd"
     fill-opacity="0.5"
     id="path163" />
  <polyline
     clip-path="url(#clip682)"
     style="stroke:#000000; stroke-linecap:butt; stroke-linejoin:round; stroke-width:4; stroke-opacity:0.5; fill:none"
     points="   1860.03,1372.3 1860.03,1372.3 1903.26,1372.3 1860.03,1372.3    "
     id="polyline165" />
  <path
     clip-path="url(#clip682)"
     d=" M1903.26 1372.3 L1903.26 1372.3 L1946.5 1372.3 L1946.5 1372.3 L1903.26 1372.3 L1903.26 1372.3  Z   "
     fill="#009af9"
     fill-rule="evenodd"
     fill-opacity="0.5"
     id="path167" />
  <polyline
     clip-path="url(#clip682)"
     style="stroke:#000000; stroke-linecap:butt; stroke-linejoin:round; stroke-width:4; stroke-opacity:0.5; fill:none"
     points="   1903.26,1372.3 1903.26,1372.3 1946.5,1372.3 1903.26,1372.3    "
     id="polyline169" />
  <path
     clip-path="url(#clip682)"
     d=" M1946.5 1372.3 L1946.5 1372.3 L1989.74 1372.3 L1989.74 1372.3 L1946.5 1372.3 L1946.5 1372.3  Z   "
     fill="#009af9"
     fill-rule="evenodd"
     fill-opacity="0.5"
     id="path171" />
  <polyline
     clip-path="url(#clip682)"
     style="stroke:#000000; stroke-linecap:butt; stroke-linejoin:round; stroke-width:4; stroke-opacity:0.5; fill:none"
     points="   1946.5,1372.3 1946.5,1372.3 1989.74,1372.3 1946.5,1372.3    "
     id="polyline173" />
  <path
     clip-path="url(#clip682)"
     d=" M1989.74 1372.3 L1989.74 1372.3 L2032.97 1372.3 L2032.97 1372.3 L1989.74 1372.3 L1989.74 1372.3  Z   "
     fill="#009af9"
     fill-rule="evenodd"
     fill-opacity="0.5"
     id="path175" />
  <polyline
     clip-path="url(#clip682)"
     style="stroke:#000000; stroke-linecap:butt; stroke-linejoin:round; stroke-width:4; stroke-opacity:0.5; fill:none"
     points="   1989.74,1372.3 1989.74,1372.3 2032.97,1372.3 1989.74,1372.3    "
     id="polyline177" />
  <path
     clip-path="url(#clip682)"
     d=" M2032.97 1372.3 L2032.97 1372.3 L2076.21 1372.3 L2076.21 1372.3 L2032.97 1372.3 L2032.97 1372.3  Z   "
     fill="#009af9"
     fill-rule="evenodd"
     fill-opacity="0.5"
     id="path179" />
  <polyline
     clip-path="url(#clip682)"
     style="stroke:#000000; stroke-linecap:butt; stroke-linejoin:round; stroke-width:4; stroke-opacity:0.5; fill:none"
     points="   2032.97,1372.3 2032.97,1372.3 2076.21,1372.3 2032.97,1372.3    "
     id="polyline181" />
  <path
     clip-path="url(#clip682)"
     d=" M2076.21 1372.3 L2076.21 1372.3 L2119.44 1372.3 L2119.44 1372.3 L2076.21 1372.3 L2076.21 1372.3  Z   "
     fill="#009af9"
     fill-rule="evenodd"
     fill-opacity="0.5"
     id="path183" />
  <polyline
     clip-path="url(#clip682)"
     style="stroke:#000000; stroke-linecap:butt; stroke-linejoin:round; stroke-width:4; stroke-opacity:0.5; fill:none"
     points="   2076.21,1372.3 2076.21,1372.3 2119.44,1372.3 2076.21,1372.3    "
     id="polyline185" />
  <path
     clip-path="url(#clip682)"
     d=" M2119.44 1372.3 L2119.44 1372.3 L2162.68 1372.3 L2162.68 1372.3 L2119.44 1372.3 L2119.44 1372.3  Z   "
     fill="#009af9"
     fill-rule="evenodd"
     fill-opacity="0.5"
     id="path187" />
  <polyline
     clip-path="url(#clip682)"
     style="stroke:#000000; stroke-linecap:butt; stroke-linejoin:round; stroke-width:4; stroke-opacity:0.5; fill:none"
     points="   2119.44,1372.3 2119.44,1372.3 2162.68,1372.3 2119.44,1372.3    "
     id="polyline189" />
  <path
     clip-path="url(#clip682)"
     d=" M2162.68 1372.3 L2162.68 1372.3 L2205.92 1372.3 L2205.92 1372.3 L2162.68 1372.3 L2162.68 1372.3  Z   "
     fill="#009af9"
     fill-rule="evenodd"
     fill-opacity="0.5"
     id="path191" />
  <polyline
     clip-path="url(#clip682)"
     style="stroke:#000000; stroke-linecap:butt; stroke-linejoin:round; stroke-width:4; stroke-opacity:0.5; fill:none"
     points="   2162.68,1372.3 2162.68,1372.3 2205.92,1372.3 2162.68,1372.3    "
     id="polyline193" />
  <path
     clip-path="url(#clip682)"
     d=" M2205.92 1372.3 L2205.92 1372.3 L2249.15 1372.3 L2249.15 1372.3 L2205.92 1372.3 L2205.92 1372.3  Z   "
     fill="#009af9"
     fill-rule="evenodd"
     fill-opacity="0.5"
     id="path195" />
  <polyline
     clip-path="url(#clip682)"
     style="stroke:#000000; stroke-linecap:butt; stroke-linejoin:round; stroke-width:4; stroke-opacity:0.5; fill:none"
     points="   2205.92,1372.3 2205.92,1372.3 2249.15,1372.3 2205.92,1372.3    "
     id="polyline197" />
  <path
     clip-path="url(#clip682)"
     d=" M2249.15 1372.3 L2249.15 1372.3 L2292.39 1372.3 L2292.39 1372.3 L2249.15 1372.3 L2249.15 1372.3  Z   "
     fill="#009af9"
     fill-rule="evenodd"
     fill-opacity="0.5"
     id="path199" />
  <polyline
     clip-path="url(#clip682)"
     style="stroke:#000000; stroke-linecap:butt; stroke-linejoin:round; stroke-width:4; stroke-opacity:0.5; fill:none"
     points="   2249.15,1372.3 2249.15,1372.3 2292.39,1372.3 2249.15,1372.3    "
     id="polyline201" />
  <circle
     clip-path="url(#clip682)"
     style="fill:#009af9; stroke:none; fill-opacity:0"
     cx="1276.95"
     cy="1372.3"
     r="2"
     id="circle203" />
  <circle
     clip-path="url(#clip682)"
     style="fill:#009af9; stroke:none; fill-opacity:0"
     cx="1320.19"
     cy="1372.3"
     r="2"
     id="circle205" />
  <circle
     clip-path="url(#clip682)"
     style="fill:#008000;stroke:none;fill-opacity:0;opacity:0.5"
     cx="1363.43"
     cy="1342.65"
     r="2"
     id="circle207" />
  <circle
     clip-path="url(#clip682)"
     style="fill:#008000;stroke:none;fill-opacity:0;opacity:0.5"
     cx="1406.66"
     cy="1273.18"
     r="2"
     id="circle209" />
  <circle
     clip-path="url(#clip682)"
     style="fill:#009af9; stroke:none; fill-opacity:0"
     cx="1449.9"
     cy="1001.28"
     r="2"
     id="circle211" />
  <circle
     clip-path="url(#clip682)"
     style="fill:#009af9; stroke:none; fill-opacity:0"
     cx="1493.14"
     cy="417.01"
     r="2"
     id="circle213" />
  <circle
     clip-path="url(#clip682)"
     style="fill:#009af9; stroke:none; fill-opacity:0"
     cx="1536.37"
     cy="85.838"
     r="2"
     id="circle215" />
  <circle
     clip-path="url(#clip682)"
     style="fill:#009af9; stroke:none; fill-opacity:0"
     cx="1579.61"
     cy="179.877"
     r="2"
     id="circle217" />
  <circle
     clip-path="url(#clip682)"
     style="fill:#009af9; stroke:none; fill-opacity:0"
     cx="1622.85"
     cy="837.212"
     r="2"
     id="circle219" />
  <circle
     clip-path="url(#clip682)"
     style="fill:#008000;stroke:none;fill-opacity:0;opacity:0.5"
     cx="1666.08"
     cy="1276.26"
     r="2"
     id="circle221" />
  <circle
     clip-path="url(#clip682)"
     style="fill:#008000;stroke:none;fill-opacity:0;opacity:0.5"
     cx="1709.32"
     cy="1366.4"
     r="2"
     id="circle223" />
  <circle
     clip-path="url(#clip682)"
     style="fill:#009af9; stroke:none; fill-opacity:0"
     cx="1752.56"
     cy="1372.3"
     r="2"
     id="circle225" />
  <circle
     clip-path="url(#clip682)"
     style="fill:#009af9; stroke:none; fill-opacity:0"
     cx="1795.79"
     cy="1372.3"
     r="2"
     id="circle227" />
  <circle
     clip-path="url(#clip682)"
     style="fill:#009af9; stroke:none; fill-opacity:0"
     cx="1839.03"
     cy="1372.3"
     r="2"
     id="circle229" />
  <circle
     clip-path="url(#clip682)"
     style="fill:#009af9; stroke:none; fill-opacity:0"
     cx="1882.27"
     cy="1372.3"
     r="2"
     id="circle231" />
  <circle
     clip-path="url(#clip682)"
     style="fill:#009af9; stroke:none; fill-opacity:0"
     cx="1925.5"
     cy="1372.3"
     r="2"
     id="circle233" />
  <circle
     clip-path="url(#clip682)"
     style="fill:#009af9; stroke:none; fill-opacity:0"
     cx="1968.74"
     cy="1372.3"
     r="2"
     id="circle235" />
  <circle
     clip-path="url(#clip682)"
     style="fill:#009af9; stroke:none; fill-opacity:0"
     cx="2011.98"
     cy="1372.3"
     r="2"
     id="circle237" />
  <circle
     clip-path="url(#clip682)"
     style="fill:#009af9; stroke:none; fill-opacity:0"
     cx="2055.21"
     cy="1372.3"
     r="2"
     id="circle239" />
  <circle
     clip-path="url(#clip682)"
     style="fill:#009af9; stroke:none; fill-opacity:0"
     cx="2098.45"
     cy="1372.3"
     r="2"
     id="circle241" />
  <circle
     clip-path="url(#clip682)"
     style="fill:#009af9; stroke:none; fill-opacity:0"
     cx="2141.69"
     cy="1372.3"
     r="2"
     id="circle243" />
  <circle
     clip-path="url(#clip682)"
     style="fill:#009af9; stroke:none; fill-opacity:0"
     cx="2184.92"
     cy="1372.3"
     r="2"
     id="circle245" />
  <circle
     clip-path="url(#clip682)"
     style="fill:#009af9; stroke:none; fill-opacity:0"
     cx="2228.16"
     cy="1372.3"
     r="2"
     id="circle247" />
  <circle
     clip-path="url(#clip682)"
     style="fill:#009af9; stroke:none; fill-opacity:0"
     cx="2271.39"
     cy="1372.3"
     r="2"
     id="circle249" />
  <path
     clip-path="url(#clip682)"
     d=" M280.231 1372.3 L280.231 1372.3 L323.468 1372.3 L323.468 1372.3 L280.231 1372.3 L280.231 1372.3  Z   "
     fill="#e26f46"
     fill-rule="evenodd"
     fill-opacity="0.5"
     id="path251" />
  <polyline
     clip-path="url(#clip682)"
     style="stroke:#000000; stroke-linecap:butt; stroke-linejoin:round; stroke-width:4; stroke-opacity:0.5; fill:none"
     points="   280.231,1372.3 280.231,1372.3 323.468,1372.3 280.231,1372.3    "
     id="polyline253" />
  <path
     clip-path="url(#clip682)"
     d=" M323.468 1372.3 L323.468 1372.3 L366.704 1372.3 L366.704 1372.3 L323.468 1372.3 L323.468 1372.3  Z   "
     fill="#e26f46"
     fill-rule="evenodd"
     fill-opacity="0.5"
     id="path255" />
  <polyline
     clip-path="url(#clip682)"
     style="stroke:#000000; stroke-linecap:butt; stroke-linejoin:round; stroke-width:4; stroke-opacity:0.5; fill:none"
     points="   323.468,1372.3 323.468,1372.3 366.704,1372.3 323.468,1372.3    "
     id="polyline257" />
  <path
     clip-path="url(#clip682)"
     d=" M366.704 1272.99 L366.704 1372.3 L409.941 1372.3 L409.941 1272.99 L366.704 1272.99 L366.704 1272.99  Z   "
     fill="#e26f46"
     fill-rule="evenodd"
     fill-opacity="0.5"
     id="path259" />
  <polyline
     clip-path="url(#clip682)"
     style="stroke:#000000; stroke-linecap:butt; stroke-linejoin:round; stroke-width:4; stroke-opacity:0.5; fill:none"
     points="   366.704,1272.99 366.704,1372.3 409.941,1372.3 409.941,1272.99 366.704,1272.99    "
     id="polyline261" />
  <path
     clip-path="url(#clip682)"
     d=" M409.941 1283.79 L409.941 1372.3 L453.177 1372.3 L453.177 1283.79 L409.941 1283.79 L409.941 1283.79  Z   "
     fill="#e26f46"
     fill-rule="evenodd"
     fill-opacity="0.5"
     id="path263" />
  <polyline
     clip-path="url(#clip682)"
     style="stroke:#000000; stroke-linecap:butt; stroke-linejoin:round; stroke-width:4; stroke-opacity:0.5; fill:none"
     points="   409.941,1283.79 409.941,1372.3 453.177,1372.3 453.177,1283.79 409.941,1283.79    "
     id="polyline265" />
  <path
     clip-path="url(#clip682)"
     d=" M453.177 1372.3 L453.177 1372.3 L496.414 1372.3 L496.414 1372.3 L453.177 1372.3 L453.177 1372.3  Z   "
     fill="#e26f46"
     fill-rule="evenodd"
     fill-opacity="0.5"
     id="path267" />
  <polyline
     clip-path="url(#clip682)"
     style="stroke:#000000; stroke-linecap:butt; stroke-linejoin:round; stroke-width:4; stroke-opacity:0.5; fill:none"
     points="   453.177,1372.3 453.177,1372.3 496.414,1372.3 453.177,1372.3    "
     id="polyline269" />
  <path
     clip-path="url(#clip682)"
     d=" M496.414 1302 L496.414 1372.3 L539.65 1372.3 L539.65 1302 L496.414 1302 L496.414 1302  Z   "
     fill="#e26f46"
     fill-rule="evenodd"
     fill-opacity="0.5"
     id="path271" />
  <polyline
     clip-path="url(#clip682)"
     style="stroke:#000000; stroke-linecap:butt; stroke-linejoin:round; stroke-width:4; stroke-opacity:0.5; fill:none"
     points="   496.414,1302 496.414,1372.3 539.65,1372.3 539.65,1302 496.414,1302    "
     id="polyline273" />
  <path
     clip-path="url(#clip682)"
     d=" M539.65 1372.3 L539.65 1372.3 L582.887 1372.3 L582.887 1372.3 L539.65 1372.3 L539.65 1372.3  Z   "
     fill="#e26f46"
     fill-rule="evenodd"
     fill-opacity="0.5"
     id="path275" />
  <polyline
     clip-path="url(#clip682)"
     style="stroke:#000000; stroke-linecap:butt; stroke-linejoin:round; stroke-width:4; stroke-opacity:0.5; fill:none"
     points="   539.65,1372.3 539.65,1372.3 582.887,1372.3 539.65,1372.3    "
     id="polyline277" />
  <path
     clip-path="url(#clip682)"
     d=" M582.887 1204.77 L582.887 1372.3 L626.123 1372.3 L626.123 1204.77 L582.887 1204.77 L582.887 1204.77  Z   "
     fill="#e26f46"
     fill-rule="evenodd"
     fill-opacity="0.5"
     id="path279" />
  <polyline
     clip-path="url(#clip682)"
     style="stroke:#000000; stroke-linecap:butt; stroke-linejoin:round; stroke-width:4; stroke-opacity:0.5; fill:none"
     points="   582.887,1204.77 582.887,1372.3 626.123,1372.3 626.123,1204.77 582.887,1204.77    "
     id="polyline281" />
  <path
     clip-path="url(#clip682)"
     d=" M626.123 1272.76 L626.123 1372.3 L669.36 1372.3 L669.36 1272.76 L626.123 1272.76 L626.123 1272.76  Z   "
     fill="#e26f46"
     fill-rule="evenodd"
     fill-opacity="0.5"
     id="path283" />
  <polyline
     clip-path="url(#clip682)"
     style="stroke:#000000; stroke-linecap:butt; stroke-linejoin:round; stroke-width:4; stroke-opacity:0.5; fill:none"
     points="   626.123,1272.76 626.123,1372.3 669.36,1372.3 669.36,1272.76 626.123,1272.76    "
     id="polyline285" />
  <path
     clip-path="url(#clip682)"
     d=" M669.36 1150.51 L669.36 1372.3 L712.597 1372.3 L712.597 1150.51 L669.36 1150.51 L669.36 1150.51  Z   "
     fill="#e26f46"
     fill-rule="evenodd"
     fill-opacity="0.5"
     id="path287" />
  <polyline
     clip-path="url(#clip682)"
     style="stroke:#000000; stroke-linecap:butt; stroke-linejoin:round; stroke-width:4; stroke-opacity:0.5; fill:none"
     points="   669.36,1150.51 669.36,1372.3 712.597,1372.3 712.597,1150.51 669.36,1150.51    "
     id="polyline289" />
  <path
     clip-path="url(#clip682)"
     d=" M712.597 1293.23 L712.597 1372.3 L755.833 1372.3 L755.833 1293.23 L712.597 1293.23 L712.597 1293.23  Z   "
     fill="#e26f46"
     fill-rule="evenodd"
     fill-opacity="0.5"
     id="path291" />
  <polyline
     clip-path="url(#clip682)"
     style="stroke:#000000; stroke-linecap:butt; stroke-linejoin:round; stroke-width:4; stroke-opacity:0.5; fill:none"
     points="   712.597,1293.23 712.597,1372.3 755.833,1372.3 755.833,1293.23 712.597,1293.23    "
     id="polyline293" />
  <path
     clip-path="url(#clip682)"
     d=" M755.833 949.472 L755.833 1372.3 L799.07 1372.3 L799.07 949.472 L755.833 949.472 L755.833 949.472  Z   "
     fill="#e26f46"
     fill-rule="evenodd"
     fill-opacity="0.5"
     id="path295" />
  <polyline
     clip-path="url(#clip682)"
     style="stroke:#000000; stroke-linecap:butt; stroke-linejoin:round; stroke-width:4; stroke-opacity:0.5; fill:none"
     points="   755.833,949.472 755.833,1372.3 799.07,1372.3 799.07,949.472 755.833,949.472    "
     id="polyline297" />
  <path
     clip-path="url(#clip682)"
     d=" M799.07 1121.07 L799.07 1372.3 L842.306 1372.3 L842.306 1121.07 L799.07 1121.07 L799.07 1121.07  Z   "
     fill="#e26f46"
     fill-rule="evenodd"
     fill-opacity="0.5"
     id="path299" />
  <polyline
     clip-path="url(#clip682)"
     style="stroke:#000000; stroke-linecap:butt; stroke-linejoin:round; stroke-width:4; stroke-opacity:0.5; fill:none"
     points="   799.07,1121.07 799.07,1372.3 842.306,1372.3 842.306,1121.07 799.07,1121.07    "
     id="polyline301" />
  <path
     clip-path="url(#clip682)"
     d=" M842.306 980.459 L842.306 1372.3 L885.543 1372.3 L885.543 980.459 L842.306 980.459 L842.306 980.459  Z   "
     fill="#e26f46"
     fill-rule="evenodd"
     fill-opacity="0.5"
     id="path303" />
  <polyline
     clip-path="url(#clip682)"
     style="stroke:#000000; stroke-linecap:butt; stroke-linejoin:round; stroke-width:4; stroke-opacity:0.5; fill:none"
     points="   842.306,980.459 842.306,1372.3 885.543,1372.3 885.543,980.459 842.306,980.459    "
     id="polyline305" />
  <path
     clip-path="url(#clip682)"
     d=" M885.543 848.456 L885.543 1372.3 L928.779 1372.3 L928.779 848.456 L885.543 848.456 L885.543 848.456  Z   "
     fill="#e26f46"
     fill-rule="evenodd"
     fill-opacity="0.5"
     id="path307" />
  <polyline
     clip-path="url(#clip682)"
     style="stroke:#000000; stroke-linecap:butt; stroke-linejoin:round; stroke-width:4; stroke-opacity:0.5; fill:none"
     points="   885.543,848.456 885.543,1372.3 928.779,1372.3 928.779,848.456 885.543,848.456    "
     id="polyline309" />
  <path
     clip-path="url(#clip682)"
     d=" M928.779 972.121 L928.779 1372.3 L972.016 1372.3 L972.016 972.121 L928.779 972.121 L928.779 972.121  Z   "
     fill="#e26f46"
     fill-rule="evenodd"
     fill-opacity="0.5"
     id="path311" />
  <polyline
     clip-path="url(#clip682)"
     style="stroke:#000000; stroke-linecap:butt; stroke-linejoin:round; stroke-width:4; stroke-opacity:0.5; fill:none"
     points="   928.779,972.121 928.779,1372.3 972.016,1372.3 972.016,972.121 928.779,972.121    "
     id="polyline313" />
  <path
     clip-path="url(#clip682)"
     d=" M972.016 758.05 L972.016 1372.3 L1015.25 1372.3 L1015.25 758.05 L972.016 758.05 L972.016 758.05  Z   "
     fill="#e26f46"
     fill-rule="evenodd"
     fill-opacity="0.5"
     id="path315" />
  <polyline
     clip-path="url(#clip682)"
     style="stroke:#000000; stroke-linecap:butt; stroke-linejoin:round; stroke-width:4; stroke-opacity:0.5; fill:none"
     points="   972.016,758.05 972.016,1372.3 1015.25,1372.3 1015.25,758.05 972.016,758.05    "
     id="polyline317" />
  <path
     clip-path="url(#clip682)"
     d=" M1015.25 1019.11 L1015.25 1372.3 L1058.49 1372.3 L1058.49 1019.11 L1015.25 1019.11 L1015.25 1019.11  Z   "
     fill="#e26f46"
     fill-rule="evenodd"
     fill-opacity="0.5"
     id="path319" />
  <polyline
     clip-path="url(#clip682)"
     style="stroke:#000000; stroke-linecap:butt; stroke-linejoin:round; stroke-width:4; stroke-opacity:0.5; fill:none"
     points="   1015.25,1019.11 1015.25,1372.3 1058.49,1372.3 1058.49,1019.11 1015.25,1019.11    "
     id="polyline321" />
  <path
     clip-path="url(#clip682)"
     d=" M1058.49 774.21 L1058.49 1372.3 L1101.73 1372.3 L1101.73 774.21 L1058.49 774.21 L1058.49 774.21  Z   "
     fill="#e26f46"
     fill-rule="evenodd"
     fill-opacity="0.5"
     id="path323" />
  <polyline
     clip-path="url(#clip682)"
     style="stroke:#000000; stroke-linecap:butt; stroke-linejoin:round; stroke-width:4; stroke-opacity:0.5; fill:none"
     points="   1058.49,774.21 1058.49,1372.3 1101.73,1372.3 1101.73,774.21 1058.49,774.21    "
     id="polyline325" />
  <path
     clip-path="url(#clip682)"
     d=" M1101.73 867.307 L1101.73 1372.3 L1144.96 1372.3 L1144.96 867.307 L1101.73 867.307 L1101.73 867.307  Z   "
     fill="#e26f46"
     fill-rule="evenodd"
     fill-opacity="0.5"
     id="path327" />
  <polyline
     clip-path="url(#clip682)"
     style="stroke:#000000; stroke-linecap:butt; stroke-linejoin:round; stroke-width:4; stroke-opacity:0.5; fill:none"
     points="   1101.73,867.307 1101.73,1372.3 1144.96,1372.3 1144.96,867.307 1101.73,867.307    "
     id="polyline329" />
  <path
     clip-path="url(#clip682)"
     d=" M1144.96 834.71 L1144.96 1372.3 L1188.2 1372.3 L1188.2 834.71 L1144.96 834.71 L1144.96 834.71  Z   "
     fill="#e26f46"
     fill-rule="evenodd"
     fill-opacity="0.5"
     id="path331" />
  <polyline
     clip-path="url(#clip682)"
     style="stroke:#000000; stroke-linecap:butt; stroke-linejoin:round; stroke-width:4; stroke-opacity:0.5; fill:none"
     points="   1144.96,834.71 1144.96,1372.3 1188.2,1372.3 1188.2,834.71 1144.96,834.71    "
     id="polyline333" />
  <path
     clip-path="url(#clip682)"
     d=" M1188.2 815.174 L1188.2 1372.3 L1231.44 1372.3 L1231.44 815.174 L1188.2 815.174 L1188.2 815.174  Z   "
     fill="#e26f46"
     fill-rule="evenodd"
     fill-opacity="0.5"
     id="path335" />
  <polyline
     clip-path="url(#clip682)"
     style="stroke:#000000; stroke-linecap:butt; stroke-linejoin:round; stroke-width:4; stroke-opacity:0.5; fill:none"
     points="   1188.2,815.174 1188.2,1372.3 1231.44,1372.3 1231.44,815.174 1188.2,815.174    "
     id="polyline337" />
  <path
     clip-path="url(#clip682)"
     d=" M1231.44 865.831 L1231.44 1372.3 L1274.67 1372.3 L1274.67 865.831 L1231.44 865.831 L1231.44 865.831  Z   "
     fill="#e26f46"
     fill-rule="evenodd"
     fill-opacity="0.5"
     id="path339" />
  <polyline
     clip-path="url(#clip682)"
     style="stroke:#000000; stroke-linecap:butt; stroke-linejoin:round; stroke-width:4; stroke-opacity:0.5; fill:none"
     points="   1231.44,865.831 1231.44,1372.3 1274.67,1372.3 1274.67,865.831 1231.44,865.831    "
     id="polyline341" />
  <path
     clip-path="url(#clip682)"
     d=" M1274.67 920.909 L1274.67 1372.3 L1317.91 1372.3 L1317.91 920.909 L1274.67 920.909 L1274.67 920.909  Z   "
     fill="#e26f46"
     fill-rule="evenodd"
     fill-opacity="0.5"
     id="path343" />
  <polyline
     clip-path="url(#clip682)"
     style="stroke:#000000; stroke-linecap:butt; stroke-linejoin:round; stroke-width:4; stroke-opacity:0.5; fill:none"
     points="   1274.67,920.909 1274.67,1372.3 1317.91,1372.3 1317.91,920.909 1274.67,920.909    "
     id="polyline345" />
  <path
     clip-path="url(#clip682)"
     d=" M1317.91 922.668 L1317.91 1372.3 L1361.14 1372.3 L1361.14 922.668 L1317.91 922.668 L1317.91 922.668  Z   "
     fill="#e26f46"
     fill-rule="evenodd"
     fill-opacity="0.5"
     id="path347" />
  <polyline
     clip-path="url(#clip682)"
     style="stroke:#000000; stroke-linecap:butt; stroke-linejoin:round; stroke-width:4; stroke-opacity:0.5; fill:none"
     points="   1317.91,922.668 1317.91,1372.3 1361.14,1372.3 1361.14,922.668 1317.91,922.668    "
     id="polyline349" />
  <path
     clip-path="url(#clip682)"
     d=" M1361.14 1006.72 L1361.14 1372.3 L1404.38 1372.3 L1404.38 1006.72 L1361.14 1006.72 L1361.14 1006.72  Z   "
     fill="#e26f46"
     fill-rule="evenodd"
     fill-opacity="0.5"
     id="path351" />
  <polyline
     clip-path="url(#clip682)"
     style="stroke:#000000; stroke-linecap:butt; stroke-linejoin:round; stroke-width:4; stroke-opacity:0.5; fill:none"
     points="   1361.14,1006.72 1361.14,1372.3 1404.38,1372.3 1404.38,1006.72 1361.14,1006.72    "
     id="polyline353" />
  <path
     clip-path="url(#clip682)"
     d=" M1404.38 1077.8 L1404.38 1372.3 L1447.62 1372.3 L1447.62 1077.8 L1404.38 1077.8 L1404.38 1077.8  Z   "
     fill="#e26f46"
     fill-rule="evenodd"
     fill-opacity="0.5"
     id="path355" />
  <polyline
     clip-path="url(#clip682)"
     style="stroke:#000000; stroke-linecap:butt; stroke-linejoin:round; stroke-width:4; stroke-opacity:0.5; fill:none"
     points="   1404.38,1077.8 1404.38,1372.3 1447.62,1372.3 1447.62,1077.8 1404.38,1077.8    "
     id="polyline357" />
  <path
     clip-path="url(#clip682)"
     d=" M1447.62 1053.99 L1447.62 1372.3 L1490.85 1372.3 L1490.85 1053.99 L1447.62 1053.99 L1447.62 1053.99  Z   "
     fill="#e26f46"
     fill-rule="evenodd"
     fill-opacity="0.5"
     id="path359" />
  <polyline
     clip-path="url(#clip682)"
     style="stroke:#000000; stroke-linecap:butt; stroke-linejoin:round; stroke-width:4; stroke-opacity:0.5; fill:none"
     points="   1447.62,1053.99 1447.62,1372.3 1490.85,1372.3 1490.85,1053.99 1447.62,1053.99    "
     id="polyline361" />
  <path
     clip-path="url(#clip682)"
     d=" M1490.85 1113.49 L1490.85 1372.3 L1534.09 1372.3 L1534.09 1113.49 L1490.85 1113.49 L1490.85 1113.49  Z   "
     fill="#e26f46"
     fill-rule="evenodd"
     fill-opacity="0.5"
     id="path363" />
  <polyline
     clip-path="url(#clip682)"
     style="stroke:#000000; stroke-linecap:butt; stroke-linejoin:round; stroke-width:4; stroke-opacity:0.5; fill:none"
     points="   1490.85,1113.49 1490.85,1372.3 1534.09,1372.3 1534.09,1113.49 1490.85,1113.49    "
     id="polyline365" />
  <path
     clip-path="url(#clip682)"
     d=" M1534.09 1172.69 L1534.09 1372.3 L1577.33 1372.3 L1577.33 1172.69 L1534.09 1172.69 L1534.09 1172.69  Z   "
     fill="#e26f46"
     fill-rule="evenodd"
     fill-opacity="0.5"
     id="path367" />
  <polyline
     clip-path="url(#clip682)"
     style="stroke:#000000; stroke-linecap:butt; stroke-linejoin:round; stroke-width:4; stroke-opacity:0.5; fill:none"
     points="   1534.09,1172.69 1534.09,1372.3 1577.33,1372.3 1577.33,1172.69 1534.09,1172.69    "
     id="polyline369" />
  <path
     clip-path="url(#clip682)"
     d=" M1577.33 1170.67 L1577.33 1372.3 L1620.56 1372.3 L1620.56 1170.67 L1577.33 1170.67 L1577.33 1170.67  Z   "
     fill="#e26f46"
     fill-rule="evenodd"
     fill-opacity="0.5"
     id="path371" />
  <polyline
     clip-path="url(#clip682)"
     style="stroke:#000000; stroke-linecap:butt; stroke-linejoin:round; stroke-width:4; stroke-opacity:0.5; fill:none"
     points="   1577.33,1170.67 1577.33,1372.3 1620.56,1372.3 1620.56,1170.67 1577.33,1170.67    "
     id="polyline373" />
  <path
     clip-path="url(#clip682)"
     d=" M1620.56 1192.6 L1620.56 1372.3 L1663.8 1372.3 L1663.8 1192.6 L1620.56 1192.6 L1620.56 1192.6  Z   "
     fill="#e26f46"
     fill-rule="evenodd"
     fill-opacity="0.5"
     id="path375" />
  <polyline
     clip-path="url(#clip682)"
     style="stroke:#000000; stroke-linecap:butt; stroke-linejoin:round; stroke-width:4; stroke-opacity:0.5; fill:none"
     points="   1620.56,1192.6 1620.56,1372.3 1663.8,1372.3 1663.8,1192.6 1620.56,1192.6    "
     id="polyline377" />
  <path
     clip-path="url(#clip682)"
     d=" M1663.8 1249.83 L1663.8 1372.3 L1707.04 1372.3 L1707.04 1249.83 L1663.8 1249.83 L1663.8 1249.83  Z   "
     fill="#e26f46"
     fill-rule="evenodd"
     fill-opacity="0.5"
     id="path379" />
  <polyline
     clip-path="url(#clip682)"
     style="stroke:#000000; stroke-linecap:butt; stroke-linejoin:round; stroke-width:4; stroke-opacity:0.5; fill:none"
     points="   1663.8,1249.83 1663.8,1372.3 1707.04,1372.3 1707.04,1249.83 1663.8,1249.83    "
     id="polyline381" />
  <path
     clip-path="url(#clip682)"
     d=" M1707.04 1291.14 L1707.04 1372.3 L1750.27 1372.3 L1750.27 1291.14 L1707.04 1291.14 L1707.04 1291.14  Z   "
     fill="#e26f46"
     fill-rule="evenodd"
     fill-opacity="0.5"
     id="path383" />
  <polyline
     clip-path="url(#clip682)"
     style="stroke:#000000; stroke-linecap:butt; stroke-linejoin:round; stroke-width:4; stroke-opacity:0.5; fill:none"
     points="   1707.04,1291.14 1707.04,1372.3 1750.27,1372.3 1750.27,1291.14 1707.04,1291.14    "
     id="polyline385" />
  <path
     clip-path="url(#clip682)"
     d=" M1750.27 1307.45 L1750.27 1372.3 L1793.51 1372.3 L1793.51 1307.45 L1750.27 1307.45 L1750.27 1307.45  Z   "
     fill="#e26f46"
     fill-rule="evenodd"
     fill-opacity="0.5"
     id="path387" />
  <polyline
     clip-path="url(#clip682)"
     style="stroke:#000000; stroke-linecap:butt; stroke-linejoin:round; stroke-width:4; stroke-opacity:0.5; fill:none"
     points="   1750.27,1307.45 1750.27,1372.3 1793.51,1372.3 1793.51,1307.45 1750.27,1307.45    "
     id="polyline389" />
  <path
     clip-path="url(#clip682)"
     d=" M1793.51 1303.38 L1793.51 1372.3 L1836.75 1372.3 L1836.75 1303.38 L1793.51 1303.38 L1793.51 1303.38  Z   "
     fill="#e26f46"
     fill-rule="evenodd"
     fill-opacity="0.5"
     id="path391" />
  <polyline
     clip-path="url(#clip682)"
     style="stroke:#000000; stroke-linecap:butt; stroke-linejoin:round; stroke-width:4; stroke-opacity:0.5; fill:none"
     points="   1793.51,1303.38 1793.51,1372.3 1836.75,1372.3 1836.75,1303.38 1793.51,1303.38    "
     id="polyline393" />
  <path
     clip-path="url(#clip682)"
     d=" M1836.75 1344.56 L1836.75 1372.3 L1879.98 1372.3 L1879.98 1344.56 L1836.75 1344.56 L1836.75 1344.56  Z   "
     fill="#e26f46"
     fill-rule="evenodd"
     fill-opacity="0.5"
     id="path395" />
  <polyline
     clip-path="url(#clip682)"
     style="stroke:#000000; stroke-linecap:butt; stroke-linejoin:round; stroke-width:4; stroke-opacity:0.5; fill:none"
     points="   1836.75,1344.56 1836.75,1372.3 1879.98,1372.3 1879.98,1344.56 1836.75,1344.56    "
     id="polyline397" />
  <path
     clip-path="url(#clip682)"
     d=" M1879.98 1351.11 L1879.98 1372.3 L1923.22 1372.3 L1923.22 1351.11 L1879.98 1351.11 L1879.98 1351.11  Z   "
     fill="#e26f46"
     fill-rule="evenodd"
     fill-opacity="0.5"
     id="path399" />
  <polyline
     clip-path="url(#clip682)"
     style="stroke:#000000; stroke-linecap:butt; stroke-linejoin:round; stroke-width:4; stroke-opacity:0.5; fill:none"
     points="   1879.98,1351.11 1879.98,1372.3 1923.22,1372.3 1923.22,1351.11 1879.98,1351.11    "
     id="polyline401" />
  <path
     clip-path="url(#clip682)"
     d=" M1923.22 1364.43 L1923.22 1372.3 L1966.46 1372.3 L1966.46 1364.43 L1923.22 1364.43 L1923.22 1364.43  Z   "
     fill="#e26f46"
     fill-rule="evenodd"
     fill-opacity="0.5"
     id="path403" />
  <polyline
     clip-path="url(#clip682)"
     style="stroke:#000000; stroke-linecap:butt; stroke-linejoin:round; stroke-width:4; stroke-opacity:0.5; fill:none"
     points="   1923.22,1364.43 1923.22,1372.3 1966.46,1372.3 1966.46,1364.43 1923.22,1364.43    "
     id="polyline405" />
  <path
     clip-path="url(#clip682)"
     d=" M1966.46 1359.68 L1966.46 1372.3 L2009.69 1372.3 L2009.69 1359.68 L1966.46 1359.68 L1966.46 1359.68  Z   "
     fill="#e26f46"
     fill-rule="evenodd"
     fill-opacity="0.5"
     id="path407" />
  <polyline
     clip-path="url(#clip682)"
     style="stroke:#000000; stroke-linecap:butt; stroke-linejoin:round; stroke-width:4; stroke-opacity:0.5; fill:none"
     points="   1966.46,1359.68 1966.46,1372.3 2009.69,1372.3 2009.69,1359.68 1966.46,1359.68    "
     id="polyline409" />
  <path
     clip-path="url(#clip682)"
     d=" M2009.69 1369.8 L2009.69 1372.3 L2052.93 1372.3 L2052.93 1369.8 L2009.69 1369.8 L2009.69 1369.8  Z   "
     fill="#e26f46"
     fill-rule="evenodd"
     fill-opacity="0.5"
     id="path411" />
  <polyline
     clip-path="url(#clip682)"
     style="stroke:#000000; stroke-linecap:butt; stroke-linejoin:round; stroke-width:4; stroke-opacity:0.5; fill:none"
     points="   2009.69,1369.8 2009.69,1372.3 2052.93,1372.3 2052.93,1369.8 2009.69,1369.8    "
     id="polyline413" />
  <path
     clip-path="url(#clip682)"
     d=" M2052.93 1365.62 L2052.93 1372.3 L2096.17 1372.3 L2096.17 1365.62 L2052.93 1365.62 L2052.93 1365.62  Z   "
     fill="#e26f46"
     fill-rule="evenodd"
     fill-opacity="0.5"
     id="path415" />
  <polyline
     clip-path="url(#clip682)"
     style="stroke:#000000; stroke-linecap:butt; stroke-linejoin:round; stroke-width:4; stroke-opacity:0.5; fill:none"
     points="   2052.93,1365.62 2052.93,1372.3 2096.17,1372.3 2096.17,1365.62 2052.93,1365.62    "
     id="polyline417" />
  <path
     clip-path="url(#clip682)"
     d=" M2096.17 1368.33 L2096.17 1372.3 L2139.4 1372.3 L2139.4 1368.33 L2096.17 1368.33 L2096.17 1368.33  Z   "
     fill="#e26f46"
     fill-rule="evenodd"
     fill-opacity="0.5"
     id="path419" />
  <polyline
     clip-path="url(#clip682)"
     style="stroke:#000000; stroke-linecap:butt; stroke-linejoin:round; stroke-width:4; stroke-opacity:0.5; fill:none"
     points="   2096.17,1368.33 2096.17,1372.3 2139.4,1372.3 2139.4,1368.33 2096.17,1368.33    "
     id="polyline421" />
  <path
     clip-path="url(#clip682)"
     d=" M2139.4 1370.53 L2139.4 1372.3 L2182.64 1372.3 L2182.64 1370.53 L2139.4 1370.53 L2139.4 1370.53  Z   "
     fill="#e26f46"
     fill-rule="evenodd"
     fill-opacity="0.5"
     id="path423" />
  <polyline
     clip-path="url(#clip682)"
     style="stroke:#000000; stroke-linecap:butt; stroke-linejoin:round; stroke-width:4; stroke-opacity:0.5; fill:none"
     points="   2139.4,1370.53 2139.4,1372.3 2182.64,1372.3 2182.64,1370.53 2139.4,1370.53    "
     id="polyline425" />
  <path
     clip-path="url(#clip682)"
     d=" M2182.64 1371.51 L2182.64 1372.3 L2225.88 1372.3 L2225.88 1371.51 L2182.64 1371.51 L2182.64 1371.51  Z   "
     fill="#e26f46"
     fill-rule="evenodd"
     fill-opacity="0.5"
     id="path427" />
  <polyline
     clip-path="url(#clip682)"
     style="stroke:#000000; stroke-linecap:butt; stroke-linejoin:round; stroke-width:4; stroke-opacity:0.5; fill:none"
     points="   2182.64,1371.51 2182.64,1372.3 2225.88,1372.3 2225.88,1371.51 2182.64,1371.51    "
     id="polyline429" />
  <path
     clip-path="url(#clip682)"
     d=" M2225.88 1372.3 L2225.88 1372.3 L2269.11 1372.3 L2269.11 1372.3 L2225.88 1372.3 L2225.88 1372.3  Z   "
     fill="#e26f46"
     fill-rule="evenodd"
     fill-opacity="0.5"
     id="path431" />
  <polyline
     clip-path="url(#clip682)"
     style="stroke:#000000; stroke-linecap:butt; stroke-linejoin:round; stroke-width:4; stroke-opacity:0.5; fill:none"
     points="   2225.88,1372.3 2225.88,1372.3 2269.11,1372.3 2225.88,1372.3    "
     id="polyline433" />
  <path
     clip-path="url(#clip682)"
     d=" M2269.11 1372.3 L2269.11 1372.3 L2312.35 1372.3 L2312.35 1372.3 L2269.11 1372.3 L2269.11 1372.3  Z   "
     fill="#e26f46"
     fill-rule="evenodd"
     fill-opacity="0.5"
     id="path435" />
  <polyline
     clip-path="url(#clip682)"
     style="stroke:#000000; stroke-linecap:butt; stroke-linejoin:round; stroke-width:4; stroke-opacity:0.5; fill:none"
     points="   2269.11,1372.3 2269.11,1372.3 2312.35,1372.3 2269.11,1372.3    "
     id="polyline437" />
  <path
     clip-path="url(#clip682)"
     d=" M2312.35 1372.3 L2312.35 1372.3 L2355.59 1372.3 L2355.59 1372.3 L2312.35 1372.3 L2312.35 1372.3  Z   "
     fill="#e26f46"
     fill-rule="evenodd"
     fill-opacity="0.5"
     id="path439" />
  <polyline
     clip-path="url(#clip682)"
     style="stroke:#000000; stroke-linecap:butt; stroke-linejoin:round; stroke-width:4; stroke-opacity:0.5; fill:none"
     points="   2312.35,1372.3 2312.35,1372.3 2355.59,1372.3 2312.35,1372.3    "
     id="polyline441" />
  <path
     clip-path="url(#clip682)"
     d=" M2355.59 1372.3 L2355.59 1372.3 L2398.82 1372.3 L2398.82 1372.3 L2355.59 1372.3 L2355.59 1372.3  Z   "
     fill="#e26f46"
     fill-rule="evenodd"
     fill-opacity="0.5"
     id="path443" />
  <polyline
     clip-path="url(#clip682)"
     style="stroke:#000000; stroke-linecap:butt; stroke-linejoin:round; stroke-width:4; stroke-opacity:0.5; fill:none"
     points="   2355.59,1372.3 2355.59,1372.3 2398.82,1372.3 2355.59,1372.3    "
     id="polyline445" />
  <path
     clip-path="url(#clip682)"
     d=" M2398.82 1372.3 L2398.82 1372.3 L2442.06 1372.3 L2442.06 1372.3 L2398.82 1372.3 L2398.82 1372.3  Z   "
     fill="#e26f46"
     fill-rule="evenodd"
     fill-opacity="0.5"
     id="path447" />
  <polyline
     clip-path="url(#clip682)"
     style="stroke:#000000; stroke-linecap:butt; stroke-linejoin:round; stroke-width:4; stroke-opacity:0.5; fill:none"
     points="   2398.82,1372.3 2398.82,1372.3 2442.06,1372.3 2398.82,1372.3    "
     id="polyline449" />
  <path
     clip-path="url(#clip682)"
     d=" M2442.06 1372.3 L2442.06 1372.3 L2485.3 1372.3 L2485.3 1372.3 L2442.06 1372.3 L2442.06 1372.3  Z   "
     fill="#e26f46"
     fill-rule="evenodd"
     fill-opacity="0.5"
     id="path451" />
  <polyline
     clip-path="url(#clip682)"
     style="stroke:#000000; stroke-linecap:butt; stroke-linejoin:round; stroke-width:4; stroke-opacity:0.5; fill:none"
     points="   2442.06,1372.3 2442.06,1372.3 2485.3,1372.3 2442.06,1372.3    "
     id="polyline453" />
  <path
     clip-path="url(#clip682)"
     d=" M2485.3 1372.3 L2485.3 1372.3 L2528.53 1372.3 L2528.53 1372.3 L2485.3 1372.3 L2485.3 1372.3  Z   "
     fill="#e26f46"
     fill-rule="evenodd"
     fill-opacity="0.5"
     id="path455" />
  <polyline
     clip-path="url(#clip682)"
     style="stroke:#000000; stroke-linecap:butt; stroke-linejoin:round; stroke-width:4; stroke-opacity:0.5; fill:none"
     points="   2485.3,1372.3 2485.3,1372.3 2528.53,1372.3 2485.3,1372.3    "
     id="polyline457" />
  <path
     clip-path="url(#clip682)"
     d=" M2528.53 1372.3 L2528.53 1372.3 L2571.77 1372.3 L2571.77 1372.3 L2528.53 1372.3 L2528.53 1372.3  Z   "
     fill="#e26f46"
     fill-rule="evenodd"
     fill-opacity="0.5"
     id="path459" />
  <polyline
     clip-path="url(#clip682)"
     style="stroke:#000000; stroke-linecap:butt; stroke-linejoin:round; stroke-width:4; stroke-opacity:0.5; fill:none"
     points="   2528.53,1372.3 2528.53,1372.3 2571.77,1372.3 2528.53,1372.3    "
     id="polyline461" />
  <path
     clip-path="url(#clip682)"
     d=" M2571.77 1372.3 L2571.77 1372.3 L2615 1372.3 L2615 1372.3 L2571.77 1372.3 L2571.77 1372.3  Z   "
     fill="#e26f46"
     fill-rule="evenodd"
     fill-opacity="0.5"
     id="path463" />
  <polyline
     clip-path="url(#clip682)"
     style="stroke:#000000; stroke-linecap:butt; stroke-linejoin:round; stroke-width:4; stroke-opacity:0.5; fill:none"
     points="   2571.77,1372.3 2571.77,1372.3 2615,1372.3 2571.77,1372.3    "
     id="polyline465" />
  <path
     clip-path="url(#clip682)"
     d=" M2615 1372.3 L2615 1372.3 L2658.24 1372.3 L2658.24 1372.3 L2615 1372.3 L2615 1372.3  Z   "
     fill="#e26f46"
     fill-rule="evenodd"
     fill-opacity="0.5"
     id="path467" />
  <polyline
     clip-path="url(#clip682)"
     style="stroke:#000000; stroke-linecap:butt; stroke-linejoin:round; stroke-width:4; stroke-opacity:0.5; fill:none"
     points="   2615,1372.3 2615,1372.3 2658.24,1372.3 2615,1372.3    "
     id="polyline469" />
  <path
     clip-path="url(#clip682)"
     d=" M2658.24 1372.3 L2658.24 1372.3 L2701.48 1372.3 L2701.48 1372.3 L2658.24 1372.3 L2658.24 1372.3  Z   "
     fill="#e26f46"
     fill-rule="evenodd"
     fill-opacity="0.5"
     id="path471" />
  <polyline
     clip-path="url(#clip682)"
     style="stroke:#000000; stroke-linecap:butt; stroke-linejoin:round; stroke-width:4; stroke-opacity:0.5; fill:none"
     points="   2658.24,1372.3 2658.24,1372.3 2701.48,1372.3 2658.24,1372.3    "
     id="polyline473" />
  <path
     clip-path="url(#clip682)"
     d=" M2701.48 1372.3 L2701.48 1372.3 L2744.71 1372.3 L2744.71 1372.3 L2701.48 1372.3 L2701.48 1372.3  Z   "
     fill="#e26f46"
     fill-rule="evenodd"
     fill-opacity="0.5"
     id="path475" />
  <polyline
     clip-path="url(#clip682)"
     style="stroke:#000000; stroke-linecap:butt; stroke-linejoin:round; stroke-width:4; stroke-opacity:0.5; fill:none"
     points="   2701.48,1372.3 2701.48,1372.3 2744.71,1372.3 2701.48,1372.3    "
     id="polyline477" />
  <path
     clip-path="url(#clip682)"
     d=" M2744.71 1372.3 L2744.71 1372.3 L2787.95 1372.3 L2787.95 1372.3 L2744.71 1372.3 L2744.71 1372.3  Z   "
     fill="#e26f46"
     fill-rule="evenodd"
     fill-opacity="0.5"
     id="path479" />
  <polyline
     clip-path="url(#clip682)"
     style="stroke:#000000; stroke-linecap:butt; stroke-linejoin:round; stroke-width:4; stroke-opacity:0.5; fill:none"
     points="   2744.71,1372.3 2744.71,1372.3 2787.95,1372.3 2744.71,1372.3    "
     id="polyline481" />
  <circle
     clip-path="url(#clip682)"
     style="fill:#e26f46; stroke:none; fill-opacity:0"
     cx="302.471"
     cy="1372.3"
     r="2"
     id="circle483" />
  <circle
     clip-path="url(#clip682)"
     style="fill:#e26f46; stroke:none; fill-opacity:0"
     cx="345.708"
     cy="1372.3"
     r="2"
     id="circle485" />
  <circle
     clip-path="url(#clip682)"
     style="fill:#e26f46; stroke:none; fill-opacity:0"
     cx="388.944"
     cy="1272.99"
     r="2"
     id="circle487" />
  <circle
     clip-path="url(#clip682)"
     style="fill:#e26f46; stroke:none; fill-opacity:0"
     cx="432.181"
     cy="1283.79"
     r="2"
     id="circle489" />
  <circle
     clip-path="url(#clip682)"
     style="fill:#e26f46; stroke:none; fill-opacity:0"
     cx="475.417"
     cy="1372.3"
     r="2"
     id="circle491" />
  <circle
     clip-path="url(#clip682)"
     style="fill:#e26f46; stroke:none; fill-opacity:0"
     cx="518.654"
     cy="1302"
     r="2"
     id="circle493" />
  <circle
     clip-path="url(#clip682)"
     style="fill:#e26f46; stroke:none; fill-opacity:0"
     cx="561.891"
     cy="1372.3"
     r="2"
     id="circle495" />
  <circle
     clip-path="url(#clip682)"
     style="fill:#e26f46; stroke:none; fill-opacity:0"
     cx="605.127"
     cy="1204.77"
     r="2"
     id="circle497" />
  <circle
     clip-path="url(#clip682)"
     style="fill:#e26f46; stroke:none; fill-opacity:0"
     cx="648.364"
     cy="1272.76"
     r="2"
     id="circle499" />
  <circle
     clip-path="url(#clip682)"
     style="fill:#e26f46; stroke:none; fill-opacity:0"
     cx="691.6"
     cy="1150.51"
     r="2"
     id="circle501" />
  <circle
     clip-path="url(#clip682)"
     style="fill:#e26f46; stroke:none; fill-opacity:0"
     cx="734.837"
     cy="1293.23"
     r="2"
     id="circle503" />
  <circle
     clip-path="url(#clip682)"
     style="fill:#e26f46; stroke:none; fill-opacity:0"
     cx="778.073"
     cy="949.472"
     r="2"
     id="circle505" />
  <circle
     clip-path="url(#clip682)"
     style="fill:#e26f46; stroke:none; fill-opacity:0"
     cx="821.31"
     cy="1121.07"
     r="2"
     id="circle507" />
  <circle
     clip-path="url(#clip682)"
     style="fill:#e26f46; stroke:none; fill-opacity:0"
     cx="864.546"
     cy="980.459"
     r="2"
     id="circle509" />
  <circle
     clip-path="url(#clip682)"
     style="fill:#e26f46; stroke:none; fill-opacity:0"
     cx="907.783"
     cy="848.456"
     r="2"
     id="circle511" />
  <circle
     clip-path="url(#clip682)"
     style="fill:#e26f46; stroke:none; fill-opacity:0"
     cx="951.02"
     cy="972.121"
     r="2"
     id="circle513" />
  <circle
     clip-path="url(#clip682)"
     style="fill:#e26f46; stroke:none; fill-opacity:0"
     cx="994.256"
     cy="758.05"
     r="2"
     id="circle515" />
  <circle
     clip-path="url(#clip682)"
     style="fill:#e26f46; stroke:none; fill-opacity:0"
     cx="1037.49"
     cy="1019.11"
     r="2"
     id="circle517" />
  <circle
     clip-path="url(#clip682)"
     style="fill:#e26f46; stroke:none; fill-opacity:0"
     cx="1080.73"
     cy="774.21"
     r="2"
     id="circle519" />
  <circle
     clip-path="url(#clip682)"
     style="fill:#e26f46; stroke:none; fill-opacity:0"
     cx="1123.97"
     cy="867.307"
     r="2"
     id="circle521" />
  <circle
     clip-path="url(#clip682)"
     style="fill:#e26f46; stroke:none; fill-opacity:0"
     cx="1167.2"
     cy="834.71"
     r="2"
     id="circle523" />
  <circle
     clip-path="url(#clip682)"
     style="fill:#e26f46; stroke:none; fill-opacity:0"
     cx="1210.44"
     cy="815.174"
     r="2"
     id="circle525" />
  <circle
     clip-path="url(#clip682)"
     style="fill:#e26f46; stroke:none; fill-opacity:0"
     cx="1253.68"
     cy="865.831"
     r="2"
     id="circle527" />
  <circle
     clip-path="url(#clip682)"
     style="fill:#e26f46; stroke:none; fill-opacity:0"
     cx="1296.91"
     cy="920.909"
     r="2"
     id="circle529" />
  <circle
     clip-path="url(#clip682)"
     style="fill:#e26f46; stroke:none; fill-opacity:0"
     cx="1340.15"
     cy="922.668"
     r="2"
     id="circle531" />
  <circle
     clip-path="url(#clip682)"
     style="fill:#e26f46; stroke:none; fill-opacity:0"
     cx="1383.39"
     cy="1006.72"
     r="2"
     id="circle533" />
  <circle
     clip-path="url(#clip682)"
     style="fill:#e26f46; stroke:none; fill-opacity:0"
     cx="1426.62"
     cy="1077.8"
     r="2"
     id="circle535" />
  <circle
     clip-path="url(#clip682)"
     style="fill:#e26f46; stroke:none; fill-opacity:0"
     cx="1469.86"
     cy="1053.99"
     r="2"
     id="circle537" />
  <circle
     clip-path="url(#clip682)"
     style="fill:#e26f46; stroke:none; fill-opacity:0"
     cx="1513.09"
     cy="1113.49"
     r="2"
     id="circle539" />
  <circle
     clip-path="url(#clip682)"
     style="fill:#e26f46; stroke:none; fill-opacity:0"
     cx="1556.33"
     cy="1172.69"
     r="2"
     id="circle541" />
  <circle
     clip-path="url(#clip682)"
     style="fill:#e26f46; stroke:none; fill-opacity:0"
     cx="1599.57"
     cy="1170.67"
     r="2"
     id="circle543" />
  <circle
     clip-path="url(#clip682)"
     style="fill:#e26f46; stroke:none; fill-opacity:0"
     cx="1642.8"
     cy="1192.6"
     r="2"
     id="circle545" />
  <circle
     clip-path="url(#clip682)"
     style="fill:#e26f46; stroke:none; fill-opacity:0"
     cx="1686.04"
     cy="1249.83"
     r="2"
     id="circle547" />
  <circle
     clip-path="url(#clip682)"
     style="fill:#008000;stroke:none;fill-opacity:0;opacity:0.5"
     cx="1729.28"
     cy="1291.14"
     r="2"
     id="circle549" />
  <circle
     clip-path="url(#clip682)"
     style="fill:#e26f46; stroke:none; fill-opacity:0"
     cx="1772.51"
     cy="1307.45"
     r="2"
     id="circle551" />
  <circle
     clip-path="url(#clip682)"
     style="fill:#e26f46; stroke:none; fill-opacity:0"
     cx="1815.75"
     cy="1303.38"
     r="2"
     id="circle553" />
  <circle
     clip-path="url(#clip682)"
     style="fill:#e26f46; stroke:none; fill-opacity:0"
     cx="1858.99"
     cy="1344.56"
     r="2"
     id="circle555" />
  <circle
     clip-path="url(#clip682)"
     style="fill:#e26f46; stroke:none; fill-opacity:0"
     cx="1902.22"
     cy="1351.11"
     r="2"
     id="circle557" />
  <circle
     clip-path="url(#clip682)"
     style="fill:#e26f46; stroke:none; fill-opacity:0"
     cx="1945.46"
     cy="1364.43"
     r="2"
     id="circle559" />
  <circle
     clip-path="url(#clip682)"
     style="fill:#e26f46; stroke:none; fill-opacity:0"
     cx="1988.7"
     cy="1359.68"
     r="2"
     id="circle561" />
  <circle
     clip-path="url(#clip682)"
     style="fill:#e26f46; stroke:none; fill-opacity:0"
     cx="2031.93"
     cy="1369.8"
     r="2"
     id="circle563" />
  <circle
     clip-path="url(#clip682)"
     style="fill:#e26f46; stroke:none; fill-opacity:0"
     cx="2075.17"
     cy="1365.62"
     r="2"
     id="circle565" />
  <circle
     clip-path="url(#clip682)"
     style="fill:#e26f46; stroke:none; fill-opacity:0"
     cx="2118.41"
     cy="1368.33"
     r="2"
     id="circle567" />
  <circle
     clip-path="url(#clip682)"
     style="fill:#e26f46; stroke:none; fill-opacity:0"
     cx="2161.64"
     cy="1370.53"
     r="2"
     id="circle569" />
  <circle
     clip-path="url(#clip682)"
     style="fill:#e26f46; stroke:none; fill-opacity:0"
     cx="2204.88"
     cy="1371.51"
     r="2"
     id="circle571" />
  <circle
     clip-path="url(#clip682)"
     style="fill:#e26f46; stroke:none; fill-opacity:0"
     cx="2248.12"
     cy="1372.3"
     r="2"
     id="circle573" />
  <circle
     clip-path="url(#clip682)"
     style="fill:#e26f46; stroke:none; fill-opacity:0"
     cx="2291.35"
     cy="1372.3"
     r="2"
     id="circle575" />
  <circle
     clip-path="url(#clip682)"
     style="fill:#e26f46; stroke:none; fill-opacity:0"
     cx="2334.59"
     cy="1372.3"
     r="2"
     id="circle577" />
  <path
     clip-path="url(#clip680)"
     d=" M1981.7 253.262 L2281.66 253.262 L2281.66 92.6992 L1981.7 92.6992  Z   "
     fill="#ffffff"
     fill-rule="evenodd"
     fill-opacity="1"
     id="path579" />
  <polyline
     clip-path="url(#clip680)"
     style="stroke:#000000; stroke-linecap:butt; stroke-linejoin:round; stroke-width:4; stroke-opacity:1; fill:none"
     points="   1981.7,253.262 2281.66,253.262 2281.66,92.6992 1981.7,92.6992 1981.7,253.262    "
     id="polyline581" />
  <path
     clip-path="url(#clip680)"
     d=" M2005.39 167.629 L2147.59 167.629 L2147.59 124.812 L2005.39 124.812 L2005.39 167.629  Z   "
     fill="#009af9"
     fill-rule="evenodd"
     fill-opacity="0.5"
     id="path583" />
  <polyline
     clip-path="url(#clip680)"
     style="stroke:#000000;stroke-linecap:butt;stroke-linejoin:round;stroke-width:4;stroke-opacity:1;fill:#008000;opacity:0.5"
     points="   2005.39,167.629 2147.59,167.629 2147.59,124.812 2005.39,124.812 2005.39,167.629    "
     id="polyline585" />
  <path
     clip-path="url(#clip680)"
     d="m 2190.82,145.277 q 0,1.241 -0.82,2.037 -0.8,0.797 -1.83,0.797 -0.89,0 -1.35,-0.515 -0.47,-0.516 -0.47,-1.172 0,-0.936 0.72,-1.709 0.73,-0.773 1.78,-0.937 -0.77,-0.562 -2.01,-0.562 -2.04,0 -3.84,1.569 -0.8,0.726 -1.67,2.061 -0.86,1.312 -1.03,1.874 l -1.52,6.254 q -0.14,0.702 -1.01,4.075 -0.84,3.35 -0.91,3.49 -0.23,0.656 -0.75,1.007 -0.51,0.352 -1.03,0.352 -0.59,0 -0.98,-0.352 -0.4,-0.351 -0.4,-0.96 0,-0.094 0.07,-0.445 0.07,-0.351 0.19,-0.843 0.11,-0.492 0.16,-0.773 l 2.79,-11.079 q 0.51,-2.014 0.63,-2.647 0.14,-0.656 0.14,-1.382 0,-1.265 -0.4,-1.733 -0.4,-0.468 -1.1,-0.468 -1.22,0 -2.01,1.452 -0.8,1.452 -1.48,4.263 -0.21,0.773 -0.35,0.937 -0.12,0.163 -0.47,0.163 -0.58,-0.023 -0.58,-0.491 0,-0.118 0.18,-0.867 0.19,-0.773 0.54,-1.897 0.38,-1.148 0.78,-1.874 0.23,-0.492 0.44,-0.82 0.21,-0.328 0.63,-0.843 0.42,-0.515 1.06,-0.796 0.63,-0.281 1.4,-0.281 1.69,0 2.88,1.03 1.22,1.031 1.5,2.647 0.59,-0.843 1.31,-1.569 0.73,-0.75 2.06,-1.429 1.34,-0.679 2.77,-0.679 1.78,0 2.88,0.913 1.1,0.89 1.1,2.202 z"
     fill="#000000"
     fill-rule="evenodd"
     fill-opacity="1"
     id="path587"
     transform="matrix(1.3363101,0,0,1.3363101,-730.22675,-55.120552)" />
  <path
     clip-path="url(#clip680)"
     d=" M2005.39 221.15 L2147.59 221.15 L2147.59 178.333 L2005.39 178.333 L2005.39 221.15  Z   "
     fill="#e26f46"
     fill-rule="evenodd"
     fill-opacity="0.5"
     id="path589" />
  <polyline
     clip-path="url(#clip680)"
     style="stroke:#000000;stroke-linecap:butt;stroke-linejoin:round;stroke-width:4;stroke-opacity:1;fill:none;opacity:0.5"
     points="   2005.39,221.15 2147.59,221.15 2147.59,178.333 2005.39,178.333 2005.39,221.15    "
     id="polyline591" />
  <g
     transform="matrix(6.1366891,0,0,6.1366891,2164.7483,176.8744)"
     ns2:version="1.7.1"
     ns2:texconverter="pdflatex"
     ns2:pdfconverter="inkscape"
     ns2:text="$n^*$"
     ns2:preamble="/home/onofrio/.config/inkscape/extensions/textext/default_packages.tex"
     ns2:scale="5.194290728475818"
     ns2:alignment="middle center"
     ns2:stroke-to-path="0"
     ns2:inkscapeversion="1.2"
     ns2:jacobian_sqrt="6.9257"
     id="g1365">
    <defs
       id="id-07567fb6-e0e6-4f0a-bf8c-4ff8d7e5e479">
      <g
         id="id-1d20a717-bf03-445c-a96d-b88d34132cd1">
        <symbol
           overflow="visible"
           id="id-0b27c4ee-8a9f-4697-98ad-c355ceda89ba">
          <path
             style="stroke:none;stroke-width:0"
             d=""
             id="id-d1b3505e-74dc-4feb-ab9e-6c34f4f6cb83" />
        </symbol>
        <symbol
           overflow="visible"
           id="id-75db9ce7-decc-4d0f-a39e-d70fc2b95de4">
          <path
             style="stroke:none;stroke-width:0"
             d="m 0.875,-0.59375 c -0.03125,0.15625 -0.09375,0.390625 -0.09375,0.4375 0,0.171875 0.140625,0.265625 0.296875,0.265625 0.125,0 0.296875,-0.078125 0.375,-0.28125 0,-0.015625 0.125,-0.484375 0.1875,-0.734375 l 0.21875,-0.890625 C 1.90625,-2.03125 1.96875,-2.25 2.03125,-2.46875 c 0.03125,-0.171875 0.109375,-0.46875 0.125,-0.5 0.140625,-0.3125 0.671875,-1.21875 1.625,-1.21875 0.453125,0 0.53125,0.375 0.53125,0.703125 0,0.609375 -0.484375,1.890625 -0.640625,2.3125 C 3.578125,-0.9375 3.5625,-0.8125 3.5625,-0.703125 c 0,0.46875 0.359375,0.8125 0.828125,0.8125 0.9375,0 1.296875,-1.453125 1.296875,-1.53125 0,-0.109375 -0.078125,-0.109375 -0.109375,-0.109375 -0.109375,0 -0.109375,0.03125 -0.15625,0.1875 -0.203125,0.671875 -0.53125,1.234375 -1.015625,1.234375 -0.171875,0 -0.234375,-0.09375 -0.234375,-0.328125 0,-0.25 0.078125,-0.484375 0.171875,-0.703125 0.1875,-0.53125 0.609375,-1.625 0.609375,-2.203125 0,-0.65625 -0.421875,-1.0625 -1.140625,-1.0625 -0.90625,0 -1.390625,0.640625 -1.5625,0.875 -0.046875,-0.5625 -0.453125,-0.875 -0.921875,-0.875 -0.453125,0 -0.640625,0.390625 -0.734375,0.5625 C 0.421875,-3.5 0.296875,-2.90625 0.296875,-2.875 c 0,0.109375 0.09375,0.109375 0.109375,0.109375 0.109375,0 0.109375,-0.015625 0.171875,-0.234375 0.171875,-0.703125 0.375,-1.1875 0.734375,-1.1875 0.1875,0 0.296875,0.125 0.296875,0.453125 0,0.21875 -0.03125,0.328125 -0.15625,0.84375 z m 0,0"
             id="id-ecb7c39a-b613-4d34-9cf5-dd8205118014" />
        </symbol>
        <symbol
           overflow="visible"
           id="id-691a4faf-9ab0-4fd6-a1ee-980e60056365">
          <path
             style="stroke:none;stroke-width:0"
             d=""
             id="id-ac991ec7-a582-492b-9e51-039eb95c1930" />
        </symbol>
        <symbol
           overflow="visible"
           id="id-9f8cd96a-8244-4503-9000-31d36a209430">
          <path
             style="stroke:none;stroke-width:0"
             d="m 2.25,-1.734375 c 0.578125,-0.25 0.828125,-0.34375 1,-0.4375 0.140625,-0.046875 0.203125,-0.078125 0.203125,-0.21875 0,-0.109375 -0.09375,-0.21875 -0.21875,-0.21875 -0.046875,0 -0.0625,0 -0.140625,0.0625 L 2.140625,-1.90625 2.25,-2.9375 c 0.015625,-0.125 0,-0.296875 -0.21875,-0.296875 -0.078125,0 -0.21875,0.046875 -0.21875,0.203125 0,0.0625 0.03125,0.265625 0.046875,0.34375 0.015625,0.109375 0.0625,0.625 0.078125,0.78125 L 0.984375,-2.546875 c -0.0625,-0.03125 -0.078125,-0.0625 -0.140625,-0.0625 -0.140625,0 -0.21875,0.109375 -0.21875,0.21875 0,0.140625 0.078125,0.1875 0.140625,0.203125 L 1.8125,-1.734375 c -0.5625,0.25 -0.828125,0.34375 -1,0.421875 -0.125,0.0625 -0.1875,0.09375 -0.1875,0.21875 0,0.125 0.078125,0.21875 0.21875,0.21875 0.046875,0 0.0625,0 0.140625,-0.0625 l 0.953125,-0.625 -0.125,1.109375 c 0,0.15625 0.140625,0.21875 0.21875,0.21875 0.09375,0 0.21875,-0.0625 0.21875,-0.21875 0,-0.0625 -0.03125,-0.265625 -0.03125,-0.328125 -0.015625,-0.125 -0.0625,-0.625 -0.078125,-0.78125 L 2.96875,-1.015625 C 3.15625,-0.875 3.171875,-0.875 3.234375,-0.875 c 0.125,0 0.21875,-0.09375 0.21875,-0.21875 0,-0.140625 -0.09375,-0.171875 -0.15625,-0.203125 z m 0,0"
             id="id-285f1fb2-4be9-43cd-8997-ad51780e7297" />
        </symbol>
      </g>
    </defs>
    <g
       id="id-49bfa9ed-08e7-4405-bce0-230cf73b6f93"
       transform="translate(-149.009,-127.915)">
      <g
         style="fill:#000000;fill-opacity:1"
         id="id-16bc5b1b-128f-4706-8286-767ddfc83dd9">
        <g
           transform="translate(148.712,134.765)"
           id="g1357">
          <path
             style="stroke:none;stroke-width:0"
             d="m 0.875,-0.59375 c -0.03125,0.15625 -0.09375,0.390625 -0.09375,0.4375 0,0.171875 0.140625,0.265625 0.296875,0.265625 0.125,0 0.296875,-0.078125 0.375,-0.28125 0,-0.015625 0.125,-0.484375 0.1875,-0.734375 l 0.21875,-0.890625 C 1.90625,-2.03125 1.96875,-2.25 2.03125,-2.46875 c 0.03125,-0.171875 0.109375,-0.46875 0.125,-0.5 0.140625,-0.3125 0.671875,-1.21875 1.625,-1.21875 0.453125,0 0.53125,0.375 0.53125,0.703125 0,0.609375 -0.484375,1.890625 -0.640625,2.3125 C 3.578125,-0.9375 3.5625,-0.8125 3.5625,-0.703125 c 0,0.46875 0.359375,0.8125 0.828125,0.8125 0.9375,0 1.296875,-1.453125 1.296875,-1.53125 0,-0.109375 -0.078125,-0.109375 -0.109375,-0.109375 -0.109375,0 -0.109375,0.03125 -0.15625,0.1875 -0.203125,0.671875 -0.53125,1.234375 -1.015625,1.234375 -0.171875,0 -0.234375,-0.09375 -0.234375,-0.328125 0,-0.25 0.078125,-0.484375 0.171875,-0.703125 0.1875,-0.53125 0.609375,-1.625 0.609375,-2.203125 0,-0.65625 -0.421875,-1.0625 -1.140625,-1.0625 -0.90625,0 -1.390625,0.640625 -1.5625,0.875 -0.046875,-0.5625 -0.453125,-0.875 -0.921875,-0.875 -0.453125,0 -0.640625,0.390625 -0.734375,0.5625 C 0.421875,-3.5 0.296875,-2.90625 0.296875,-2.875 c 0,0.109375 0.09375,0.109375 0.109375,0.109375 0.109375,0 0.109375,-0.015625 0.171875,-0.234375 0.171875,-0.703125 0.375,-1.1875 0.734375,-1.1875 0.1875,0 0.296875,0.125 0.296875,0.453125 0,0.21875 -0.03125,0.328125 -0.15625,0.84375 z m 0,0"
             id="id-7a2bf7e9-6ee1-4133-b959-f491e25b5678" />
        </g>
      </g>
      <g
         style="fill:#000000;fill-opacity:1"
         id="id-37093620-0439-4ff1-a167-f89fdc231f18">
        <g
           transform="translate(154.692,131.149)"
           id="g1361">
          <path
             style="stroke:none;stroke-width:0"
             d="m 2.25,-1.734375 c 0.578125,-0.25 0.828125,-0.34375 1,-0.4375 0.140625,-0.046875 0.203125,-0.078125 0.203125,-0.21875 0,-0.109375 -0.09375,-0.21875 -0.21875,-0.21875 -0.046875,0 -0.0625,0 -0.140625,0.0625 L 2.140625,-1.90625 2.25,-2.9375 c 0.015625,-0.125 0,-0.296875 -0.21875,-0.296875 -0.078125,0 -0.21875,0.046875 -0.21875,0.203125 0,0.0625 0.03125,0.265625 0.046875,0.34375 0.015625,0.109375 0.0625,0.625 0.078125,0.78125 L 0.984375,-2.546875 c -0.0625,-0.03125 -0.078125,-0.0625 -0.140625,-0.0625 -0.140625,0 -0.21875,0.109375 -0.21875,0.21875 0,0.140625 0.078125,0.1875 0.140625,0.203125 L 1.8125,-1.734375 c -0.5625,0.25 -0.828125,0.34375 -1,0.421875 -0.125,0.0625 -0.1875,0.09375 -0.1875,0.21875 0,0.125 0.078125,0.21875 0.21875,0.21875 0.046875,0 0.0625,0 0.140625,-0.0625 l 0.953125,-0.625 -0.125,1.109375 c 0,0.15625 0.140625,0.21875 0.21875,0.21875 0.09375,0 0.21875,-0.0625 0.21875,-0.21875 0,-0.0625 -0.03125,-0.265625 -0.03125,-0.328125 -0.015625,-0.125 -0.0625,-0.625 -0.078125,-0.78125 L 2.96875,-1.015625 C 3.15625,-0.875 3.171875,-0.875 3.234375,-0.875 c 0.125,0 0.21875,-0.09375 0.21875,-0.21875 0,-0.140625 -0.09375,-0.171875 -0.15625,-0.203125 z m 0,0"
             id="id-e81feb98-15d2-46b0-8b1f-dc759740c282" />
        </g>
      </g>
    </g>
  </g>
</svg>
