<?xml version="1.0" encoding="utf-8"?>
<svg xmlns="http://www.w3.org/2000/svg" xmlns:xlink="http://www.w3.org/1999/xlink" width="600" height="400" viewBox="0 0 2400 1600">
<defs>
  <clipPath id="clip150">
    <rect x="0" y="0" width="2400" height="1600"/>
  </clipPath>
</defs>
<path clip-path="url(#clip150)" d="
M0 1600 L2400 1600 L2400 0 L0 0  Z
  " fill="#ffffff" fill-rule="evenodd" fill-opacity="1"/>
<defs>
  <clipPath id="clip151">
    <rect x="480" y="0" width="1681" height="1600"/>
  </clipPath>
</defs>
<defs>
  <clipPath id="clip152">
    <rect x="231" y="47" width="2122" height="1365"/>
  </clipPath>
</defs>
<path clip-path="url(#clip150)" d="
M231.336 1411.22 L2352.76 1411.22 L2352.76 47.2441 L231.336 47.2441  Z
  " fill="#ffffff" fill-rule="evenodd" fill-opacity="1"/>
<polyline clip-path="url(#clip150)" style="stroke:#000000; stroke-linecap:butt; stroke-linejoin:round; stroke-width:4; stroke-opacity:1; fill:none" points="
  231.336,1411.22 2352.76,1411.22 
  "/>
<polyline clip-path="url(#clip150)" style="stroke:#000000; stroke-linecap:butt; stroke-linejoin:round; stroke-width:4; stroke-opacity:1; fill:none" points="
  273.016,1411.22 273.016,1392.33 
  "/>
<polyline clip-path="url(#clip150)" style="stroke:#000000; stroke-linecap:butt; stroke-linejoin:round; stroke-width:4; stroke-opacity:1; fill:none" points="
  732.038,1411.22 732.038,1392.33 
  "/>
<polyline clip-path="url(#clip150)" style="stroke:#000000; stroke-linecap:butt; stroke-linejoin:round; stroke-width:4; stroke-opacity:1; fill:none" points="
  1191.06,1411.22 1191.06,1392.33 
  "/>
<polyline clip-path="url(#clip150)" style="stroke:#000000; stroke-linecap:butt; stroke-linejoin:round; stroke-width:4; stroke-opacity:1; fill:none" points="
  1650.08,1411.22 1650.08,1392.33 
  "/>
<polyline clip-path="url(#clip150)" style="stroke:#000000; stroke-linecap:butt; stroke-linejoin:round; stroke-width:4; stroke-opacity:1; fill:none" points="
  2109.11,1411.22 2109.11,1392.33 
  "/>
<path clip-path="url(#clip150)" d="M250.4 1442.14 Q246.789 1442.14 244.96 1445.71 Q243.155 1449.25 243.155 1456.38 Q243.155 1463.48 244.96 1467.05 Q246.789 1470.59 250.4 1470.59 Q254.034 1470.59 255.84 1467.05 Q257.669 1463.48 257.669 1456.38 Q257.669 1449.25 255.84 1445.71 Q254.034 1442.14 250.4 1442.14 M250.4 1438.44 Q256.21 1438.44 259.266 1443.05 Q262.344 1447.63 262.344 1456.38 Q262.344 1465.11 259.266 1469.71 Q256.21 1474.29 250.4 1474.29 Q244.59 1474.29 241.511 1469.71 Q238.456 1465.11 238.456 1456.38 Q238.456 1447.63 241.511 1443.05 Q244.59 1438.44 250.4 1438.44 Z" fill="#000000" fill-rule="evenodd" fill-opacity="1" /><path clip-path="url(#clip150)" d="M270.562 1467.74 L275.446 1467.74 L275.446 1473.62 L270.562 1473.62 L270.562 1467.74 Z" fill="#000000" fill-rule="evenodd" fill-opacity="1" /><path clip-path="url(#clip150)" d="M295.631 1442.14 Q292.02 1442.14 290.192 1445.71 Q288.386 1449.25 288.386 1456.38 Q288.386 1463.48 290.192 1467.05 Q292.02 1470.59 295.631 1470.59 Q299.266 1470.59 301.071 1467.05 Q302.9 1463.48 302.9 1456.38 Q302.9 1449.25 301.071 1445.71 Q299.266 1442.14 295.631 1442.14 M295.631 1438.44 Q301.441 1438.44 304.497 1443.05 Q307.576 1447.63 307.576 1456.38 Q307.576 1465.11 304.497 1469.71 Q301.441 1474.29 295.631 1474.29 Q289.821 1474.29 286.742 1469.71 Q283.687 1465.11 283.687 1456.38 Q283.687 1447.63 286.742 1443.05 Q289.821 1438.44 295.631 1438.44 Z" fill="#000000" fill-rule="evenodd" fill-opacity="1" /><path clip-path="url(#clip150)" d="M703.775 1469.69 L720.094 1469.69 L720.094 1473.62 L698.15 1473.62 L698.15 1469.69 Q700.812 1466.93 705.395 1462.3 Q710.002 1457.65 711.182 1456.31 Q713.427 1453.79 714.307 1452.05 Q715.21 1450.29 715.21 1448.6 Q715.21 1445.85 713.265 1444.11 Q711.344 1442.37 708.242 1442.37 Q706.043 1442.37 703.59 1443.14 Q701.159 1443.9 698.381 1445.45 L698.381 1440.73 Q701.205 1439.6 703.659 1439.02 Q706.113 1438.44 708.15 1438.44 Q713.52 1438.44 716.714 1441.12 Q719.909 1443.81 719.909 1448.3 Q719.909 1450.43 719.099 1452.35 Q718.312 1454.25 716.205 1456.84 Q715.626 1457.51 712.525 1460.73 Q709.423 1463.92 703.775 1469.69 Z" fill="#000000" fill-rule="evenodd" fill-opacity="1" /><path clip-path="url(#clip150)" d="M729.909 1467.74 L734.793 1467.74 L734.793 1473.62 L729.909 1473.62 L729.909 1467.74 Z" fill="#000000" fill-rule="evenodd" fill-opacity="1" /><path clip-path="url(#clip150)" d="M745.024 1439.06 L763.381 1439.06 L763.381 1443 L749.307 1443 L749.307 1451.47 Q750.325 1451.12 751.344 1450.96 Q752.362 1450.78 753.381 1450.78 Q759.168 1450.78 762.548 1453.95 Q765.927 1457.12 765.927 1462.54 Q765.927 1468.11 762.455 1471.22 Q758.983 1474.29 752.663 1474.29 Q750.487 1474.29 748.219 1473.92 Q745.974 1473.55 743.566 1472.81 L743.566 1468.11 Q745.649 1469.25 747.872 1469.8 Q750.094 1470.36 752.571 1470.36 Q756.575 1470.36 758.913 1468.25 Q761.251 1466.15 761.251 1462.54 Q761.251 1458.92 758.913 1456.82 Q756.575 1454.71 752.571 1454.71 Q750.696 1454.71 748.821 1455.13 Q746.969 1455.54 745.024 1456.42 L745.024 1439.06 Z" fill="#000000" fill-rule="evenodd" fill-opacity="1" /><path clip-path="url(#clip150)" d="M1158.23 1439.06 L1176.58 1439.06 L1176.58 1443 L1162.51 1443 L1162.51 1451.47 Q1163.53 1451.12 1164.55 1450.96 Q1165.56 1450.78 1166.58 1450.78 Q1172.37 1450.78 1175.75 1453.95 Q1179.13 1457.12 1179.13 1462.54 Q1179.13 1468.11 1175.66 1471.22 Q1172.18 1474.29 1165.86 1474.29 Q1163.69 1474.29 1161.42 1473.92 Q1159.17 1473.55 1156.77 1472.81 L1156.77 1468.11 Q1158.85 1469.25 1161.07 1469.8 Q1163.3 1470.36 1165.77 1470.36 Q1169.78 1470.36 1172.11 1468.25 Q1174.45 1466.15 1174.45 1462.54 Q1174.45 1458.92 1172.11 1456.82 Q1169.78 1454.71 1165.77 1454.71 Q1163.9 1454.71 1162.02 1455.13 Q1160.17 1455.54 1158.23 1456.42 L1158.23 1439.06 Z" fill="#000000" fill-rule="evenodd" fill-opacity="1" /><path clip-path="url(#clip150)" d="M1188.34 1467.74 L1193.23 1467.74 L1193.23 1473.62 L1188.34 1473.62 L1188.34 1467.74 Z" fill="#000000" fill-rule="evenodd" fill-opacity="1" /><path clip-path="url(#clip150)" d="M1213.41 1442.14 Q1209.8 1442.14 1207.97 1445.71 Q1206.17 1449.25 1206.17 1456.38 Q1206.17 1463.48 1207.97 1467.05 Q1209.8 1470.59 1213.41 1470.59 Q1217.04 1470.59 1218.85 1467.05 Q1220.68 1463.48 1220.68 1456.38 Q1220.68 1449.25 1218.85 1445.71 Q1217.04 1442.14 1213.41 1442.14 M1213.41 1438.44 Q1219.22 1438.44 1222.28 1443.05 Q1225.35 1447.63 1225.35 1456.38 Q1225.35 1465.11 1222.28 1469.71 Q1219.22 1474.29 1213.41 1474.29 Q1207.6 1474.29 1204.52 1469.71 Q1201.47 1465.11 1201.47 1456.38 Q1201.47 1447.63 1204.52 1443.05 Q1207.6 1438.44 1213.41 1438.44 Z" fill="#000000" fill-rule="evenodd" fill-opacity="1" /><path clip-path="url(#clip150)" d="M1616.4 1439.06 L1638.63 1439.06 L1638.63 1441.05 L1626.08 1473.62 L1621.2 1473.62 L1633 1443 L1616.4 1443 L1616.4 1439.06 Z" fill="#000000" fill-rule="evenodd" fill-opacity="1" /><path clip-path="url(#clip150)" d="M1647.75 1467.74 L1652.63 1467.74 L1652.63 1473.62 L1647.75 1473.62 L1647.75 1467.74 Z" fill="#000000" fill-rule="evenodd" fill-opacity="1" /><path clip-path="url(#clip150)" d="M1662.86 1439.06 L1681.22 1439.06 L1681.22 1443 L1667.14 1443 L1667.14 1451.47 Q1668.16 1451.12 1669.18 1450.96 Q1670.2 1450.78 1671.22 1450.78 Q1677.01 1450.78 1680.38 1453.95 Q1683.76 1457.12 1683.76 1462.54 Q1683.76 1468.11 1680.29 1471.22 Q1676.82 1474.29 1670.5 1474.29 Q1668.32 1474.29 1666.06 1473.92 Q1663.81 1473.55 1661.4 1472.81 L1661.4 1468.11 Q1663.49 1469.25 1665.71 1469.8 Q1667.93 1470.36 1670.41 1470.36 Q1674.41 1470.36 1676.75 1468.25 Q1679.09 1466.15 1679.09 1462.54 Q1679.09 1458.92 1676.75 1456.82 Q1674.41 1454.71 1670.41 1454.71 Q1668.53 1454.71 1666.66 1455.13 Q1664.81 1455.54 1662.86 1456.42 L1662.86 1439.06 Z" fill="#000000" fill-rule="evenodd" fill-opacity="1" /><path clip-path="url(#clip150)" d="M2061.18 1469.69 L2068.82 1469.69 L2068.82 1443.32 L2060.51 1444.99 L2060.51 1440.73 L2068.77 1439.06 L2073.45 1439.06 L2073.45 1469.69 L2081.09 1469.69 L2081.09 1473.62 L2061.18 1473.62 L2061.18 1469.69 Z" fill="#000000" fill-rule="evenodd" fill-opacity="1" /><path clip-path="url(#clip150)" d="M2100.53 1442.14 Q2096.92 1442.14 2095.09 1445.71 Q2093.28 1449.25 2093.28 1456.38 Q2093.28 1463.48 2095.09 1467.05 Q2096.92 1470.59 2100.53 1470.59 Q2104.16 1470.59 2105.97 1467.05 Q2107.8 1463.48 2107.8 1456.38 Q2107.8 1449.25 2105.97 1445.71 Q2104.16 1442.14 2100.53 1442.14 M2100.53 1438.44 Q2106.34 1438.44 2109.4 1443.05 Q2112.47 1447.63 2112.47 1456.38 Q2112.47 1465.11 2109.4 1469.71 Q2106.34 1474.29 2100.53 1474.29 Q2094.72 1474.29 2091.64 1469.71 Q2088.59 1465.11 2088.59 1456.38 Q2088.59 1447.63 2091.64 1443.05 Q2094.72 1438.44 2100.53 1438.44 Z" fill="#000000" fill-rule="evenodd" fill-opacity="1" /><path clip-path="url(#clip150)" d="M2120.69 1467.74 L2125.58 1467.74 L2125.58 1473.62 L2120.69 1473.62 L2120.69 1467.74 Z" fill="#000000" fill-rule="evenodd" fill-opacity="1" /><path clip-path="url(#clip150)" d="M2145.76 1442.14 Q2142.15 1442.14 2140.32 1445.71 Q2138.52 1449.25 2138.52 1456.38 Q2138.52 1463.48 2140.32 1467.05 Q2142.15 1470.59 2145.76 1470.59 Q2149.4 1470.59 2151.2 1467.05 Q2153.03 1463.48 2153.03 1456.38 Q2153.03 1449.25 2151.2 1445.71 Q2149.4 1442.14 2145.76 1442.14 M2145.76 1438.44 Q2151.57 1438.44 2154.63 1443.05 Q2157.71 1447.63 2157.71 1456.38 Q2157.71 1465.11 2154.63 1469.71 Q2151.57 1474.29 2145.76 1474.29 Q2139.95 1474.29 2136.87 1469.71 Q2133.82 1465.11 2133.82 1456.38 Q2133.82 1447.63 2136.87 1443.05 Q2139.95 1438.44 2145.76 1438.44 Z" fill="#000000" fill-rule="evenodd" fill-opacity="1" /><path clip-path="url(#clip150)" d="M1099.35 1562.84 Q1099.35 1567.48 1097 1572.02 Q1094.68 1576.53 1090.94 1579.36 Q1087.24 1582.19 1083.44 1582.19 Q1079.73 1582.19 1077.38 1579.36 Q1075.06 1576.49 1075.06 1571.82 Q1075.06 1570.18 1075.26 1569.02 Q1075.45 1567.86 1076.13 1565.16 L1081.54 1543.64 Q1082.47 1539.62 1082.47 1539.59 Q1082.47 1539.2 1082.31 1539.01 Q1082.18 1538.78 1081.41 1538.62 Q1080.63 1538.46 1079.15 1538.46 Q1078.54 1538.46 1078.25 1538.43 Q1077.99 1538.39 1077.77 1538.23 Q1077.58 1538.04 1077.58 1537.65 Q1077.58 1537.11 1077.8 1536.82 Q1078.06 1536.49 1078.25 1536.43 Q1078.44 1536.37 1078.83 1536.33 Q1079.38 1536.3 1081.21 1536.14 Q1083.05 1535.95 1084.63 1535.82 Q1086.21 1535.69 1086.88 1535.69 Q1087.27 1535.69 1087.46 1535.88 Q1087.69 1536.04 1087.69 1536.24 L1087.72 1536.4 L1082.86 1556.27 Q1086.69 1552.31 1090.59 1552.31 Q1094.48 1552.31 1096.9 1555.3 Q1099.35 1558.3 1099.35 1562.84 M1094.58 1559.94 Q1094.58 1556.88 1093.42 1555.33 Q1092.29 1553.76 1090.43 1553.76 Q1088.85 1553.76 1086.79 1554.95 Q1084.72 1556.14 1082.53 1559.04 Q1082.12 1559.59 1081.96 1559.91 Q1081.83 1560.23 1081.54 1561.33 L1080.09 1567.41 Q1079.02 1571.57 1079.02 1574.08 Q1079.02 1577.49 1080.28 1579.1 Q1081.54 1580.71 1083.44 1580.71 Q1085.43 1580.71 1087.53 1578.94 Q1089.62 1577.17 1091.23 1573.95 Q1092.23 1571.82 1093.39 1567.25 Q1094.58 1562.65 1094.58 1559.94 Z" fill="#000000" fill-rule="evenodd" fill-opacity="1" /><path clip-path="url(#clip150)" d="M1118.96 1522.51 Q1118.96 1521.72 1120.02 1521.2 L1126.45 1518.16 L1119.93 1515.12 Q1118.96 1514.66 1118.96 1513.88 Q1118.96 1513.42 1119.32 1513.02 Q1119.71 1512.59 1120.2 1512.59 Q1120.56 1512.59 1121.22 1513.09 L1126.94 1517.23 Q1126.24 1509.62 1126.27 1509.39 Q1126.27 1508.94 1126.6 1508.6 Q1126.94 1508.24 1127.51 1508.24 Q1127.96 1508.24 1128.32 1508.58 Q1128.7 1508.89 1128.7 1509.39 L1128.02 1517.23 L1133.14 1513.45 Q1134.34 1512.57 1134.77 1512.59 Q1135.28 1512.59 1135.64 1513 Q1136.01 1513.4 1136.01 1513.88 Q1136.01 1514.66 1134.95 1515.16 L1128.52 1518.2 L1135.04 1521.27 Q1136.01 1521.72 1136.01 1522.51 Q1136.01 1522.96 1135.62 1523.39 Q1135.26 1523.8 1134.77 1523.8 Q1134.49 1523.8 1134.02 1523.52 Q1133.93 1523.48 1132.96 1522.76 Q1131.99 1522.04 1130.48 1520.93 Q1128.99 1519.83 1128.02 1519.13 Q1128.72 1526.75 1128.7 1526.97 Q1128.7 1527.42 1128.36 1527.79 Q1128.02 1528.15 1127.46 1528.15 Q1127.01 1528.15 1126.63 1527.83 Q1126.27 1527.49 1126.27 1526.97 L1126.94 1519.13 L1120.49 1523.8 Q1119.8 1523.8 1119.41 1523.46 Q1119.05 1523.1 1119.01 1522.89 Q1118.96 1522.69 1118.96 1522.51 Z" fill="#000000" fill-rule="evenodd" fill-opacity="1" /><path clip-path="url(#clip150)" d="M1161.68 1564.96 Q1161.68 1553.82 1165.83 1544.84 Q1167.6 1541.07 1170.08 1537.91 Q1172.56 1534.76 1174.21 1533.37 Q1175.85 1531.99 1176.3 1531.99 Q1176.94 1531.99 1176.98 1532.63 Q1176.98 1532.95 1176.11 1533.76 Q1165.48 1544.58 1165.51 1564.96 Q1165.51 1585.42 1175.85 1595.82 Q1176.98 1596.94 1176.98 1597.3 Q1176.98 1597.94 1176.3 1597.94 Q1175.85 1597.94 1174.27 1596.62 Q1172.69 1595.3 1170.25 1592.28 Q1167.8 1589.25 1166.03 1585.54 Q1161.68 1576.56 1161.68 1564.96 Z" fill="#000000" fill-rule="evenodd" fill-opacity="1" /><path clip-path="url(#clip150)" d="M1183.31 1581.45 L1183.31 1579.42 Q1186.82 1579.42 1187.63 1579.01 Q1188.43 1578.56 1188.43 1576.43 L1188.43 1542.13 Q1188.43 1539.68 1187.56 1539.07 Q1186.72 1538.46 1183.31 1538.46 L1183.31 1536.4 L1192.78 1535.69 L1192.78 1576.43 Q1192.78 1578.56 1193.62 1579.01 Q1194.45 1579.42 1197.93 1579.42 L1197.93 1581.45 Q1197.13 1581.45 1195.45 1581.39 Q1193.78 1581.33 1192.55 1581.29 Q1191.33 1581.26 1190.62 1581.26 Q1189.85 1581.26 1183.31 1581.45 Z" fill="#000000" fill-rule="evenodd" fill-opacity="1" /><path clip-path="url(#clip150)" d="M1207.86 1577.91 Q1203.51 1573.6 1203.51 1567.35 Q1203.51 1561.07 1207.76 1556.49 Q1212.04 1551.89 1218.16 1551.89 Q1224.15 1551.89 1228.44 1556.46 Q1232.75 1561 1232.75 1567.35 Q1232.75 1573.56 1228.4 1577.88 Q1224.09 1582.19 1218.1 1582.19 Q1212.24 1582.19 1207.86 1577.91 M1208.98 1566.8 Q1208.98 1573.21 1210.66 1576.11 Q1213.23 1580.52 1218.16 1580.52 Q1220.61 1580.52 1222.64 1579.2 Q1224.7 1577.88 1225.83 1575.66 Q1227.28 1572.76 1227.28 1566.8 Q1227.28 1560.46 1225.54 1557.65 Q1222.96 1553.37 1218.1 1553.37 Q1215.97 1553.37 1213.88 1554.5 Q1211.82 1555.59 1210.56 1557.78 Q1208.98 1560.68 1208.98 1566.8 Z" fill="#000000" fill-rule="evenodd" fill-opacity="1" /><path clip-path="url(#clip150)" d="M1233.8 1586.67 Q1233.8 1584.55 1235.41 1582.71 Q1237.05 1580.87 1239.88 1580.07 Q1236.98 1578.23 1236.98 1574.21 Q1236.98 1571.12 1239.01 1568.73 Q1235.92 1566.16 1235.92 1561.94 Q1235.92 1558.04 1239.01 1555.17 Q1242.11 1552.31 1246.61 1552.31 Q1250.58 1552.31 1253.6 1554.69 Q1256.76 1551.6 1260.59 1551.57 Q1262.3 1551.57 1263.1 1552.63 Q1263.94 1553.69 1263.94 1554.82 Q1263.94 1555.82 1263.3 1556.3 Q1262.69 1556.78 1262.04 1556.78 Q1261.24 1556.78 1260.66 1556.27 Q1260.11 1555.72 1260.11 1554.88 Q1260.11 1553.5 1261.17 1553.08 Q1260.98 1553.02 1260.53 1553.02 Q1257.31 1553.02 1254.57 1555.59 Q1257.27 1558.1 1257.27 1562 Q1257.27 1565.9 1254.18 1568.76 Q1251.09 1571.63 1246.61 1571.63 Q1242.91 1571.63 1240.08 1569.57 Q1238.95 1570.89 1238.95 1572.69 Q1238.95 1574.34 1239.95 1575.62 Q1240.95 1576.91 1242.46 1577.11 Q1242.91 1577.17 1247.39 1577.17 Q1250.03 1577.17 1251.48 1577.23 Q1252.93 1577.3 1254.99 1577.75 Q1257.08 1578.17 1258.72 1579.01 Q1263.01 1581.39 1263.04 1586.54 Q1263.04 1590.31 1258.69 1592.66 Q1254.38 1595.04 1248.39 1595.04 Q1242.33 1595.04 1238.05 1592.63 Q1233.8 1590.25 1233.8 1586.67 M1237.24 1586.67 Q1237.24 1589.38 1240.43 1591.44 Q1243.62 1593.53 1248.45 1593.53 Q1253.18 1593.53 1256.37 1591.47 Q1259.59 1589.44 1259.59 1586.67 Q1259.59 1584.71 1258.47 1583.45 Q1257.34 1582.19 1255.02 1581.68 Q1252.73 1581.2 1251.12 1581.1 Q1249.51 1581 1246.55 1581 L1242.65 1581 Q1240.4 1581.13 1238.82 1582.77 Q1237.24 1584.42 1237.24 1586.67 M1240.85 1562 Q1240.85 1570.12 1246.61 1570.12 Q1249.51 1570.12 1251.28 1567.48 Q1252.35 1565.71 1252.35 1561.94 Q1252.35 1553.82 1246.61 1553.82 Q1243.72 1553.82 1241.91 1556.46 Q1240.85 1558.23 1240.85 1562 Z" fill="#000000" fill-rule="evenodd" fill-opacity="1" /><path clip-path="url(#clip150)" d="M1273.06 1543.81 L1273.06 1541.74 Q1280.98 1541.74 1285.07 1537.53 Q1286.2 1537.53 1286.39 1537.78 Q1286.59 1538.04 1286.59 1539.23 L1286.59 1576.24 Q1286.59 1578.2 1287.55 1578.81 Q1288.52 1579.42 1292.74 1579.42 L1294.83 1579.42 L1294.83 1581.45 Q1292.51 1581.26 1284.14 1581.26 Q1275.77 1581.26 1273.48 1581.45 L1273.48 1579.42 L1275.57 1579.42 Q1279.73 1579.42 1280.73 1578.85 Q1281.72 1578.23 1281.72 1576.24 L1281.72 1542.07 Q1278.28 1543.81 1273.06 1543.81 Z" fill="#000000" fill-rule="evenodd" fill-opacity="1" /><path clip-path="url(#clip150)" d="M1298.1 1560.36 Q1298.1 1550.67 1300.55 1545.38 Q1303.96 1537.53 1312.01 1537.53 Q1313.72 1537.53 1315.49 1538.01 Q1317.29 1538.46 1319.55 1540.23 Q1321.83 1542 1323.22 1544.9 Q1325.86 1550.5 1325.86 1560.36 Q1325.86 1569.99 1323.41 1575.24 Q1319.84 1582.9 1311.95 1582.9 Q1308.98 1582.9 1305.96 1581.39 Q1302.96 1579.88 1301.06 1576.24 Q1298.1 1570.79 1298.1 1560.36 M1303.57 1559.55 Q1303.57 1569.51 1304.28 1573.47 Q1305.09 1577.75 1307.28 1579.62 Q1309.5 1581.45 1311.95 1581.45 Q1314.59 1581.45 1316.78 1579.49 Q1319 1577.49 1319.68 1573.21 Q1320.42 1568.99 1320.39 1559.55 Q1320.39 1550.38 1319.74 1546.7 Q1318.87 1542.42 1316.55 1540.71 Q1314.27 1538.97 1311.95 1538.97 Q1311.08 1538.97 1310.14 1539.23 Q1309.24 1539.49 1307.92 1540.23 Q1306.6 1540.97 1305.57 1542.81 Q1304.57 1544.64 1304.09 1547.41 Q1303.57 1550.99 1303.57 1559.55 Z" fill="#000000" fill-rule="evenodd" fill-opacity="1" /><path clip-path="url(#clip150)" d="M1348.19 1580.58 L1348.19 1571.89 Q1348.19 1571.15 1348.23 1570.89 Q1348.26 1570.63 1348.45 1570.44 Q1348.64 1570.25 1349.03 1570.25 Q1349.48 1570.25 1349.64 1570.44 Q1349.84 1570.63 1349.96 1571.37 Q1350.96 1575.91 1353.09 1578.33 Q1355.25 1580.71 1359.14 1580.71 Q1362.85 1580.71 1364.72 1579.07 Q1366.58 1577.43 1366.58 1574.72 Q1366.58 1569.89 1359.72 1568.67 Q1355.76 1567.86 1354.12 1567.35 Q1352.48 1566.8 1351.03 1565.61 Q1348.19 1563.29 1348.19 1560 Q1348.19 1556.72 1350.67 1554.3 Q1353.19 1551.89 1358.72 1551.89 Q1362.43 1551.89 1364.94 1553.76 Q1365.68 1553.18 1366.07 1552.69 Q1366.94 1551.89 1367.39 1551.89 Q1367.9 1551.89 1368 1552.24 Q1368.1 1552.57 1368.1 1553.5 L1368.1 1560.13 Q1368.1 1560.87 1368.06 1561.13 Q1368.03 1561.39 1367.84 1561.58 Q1367.65 1561.74 1367.23 1561.74 Q1366.49 1561.74 1366.45 1561.13 Q1365.94 1553.14 1358.72 1553.14 Q1354.83 1553.14 1353.09 1554.66 Q1351.35 1556.14 1351.35 1558.17 Q1351.35 1559.3 1351.87 1560.17 Q1352.41 1561 1353.09 1561.52 Q1353.8 1562 1355.09 1562.48 Q1356.37 1562.94 1357.15 1563.1 Q1357.95 1563.26 1359.47 1563.58 Q1364.75 1564.58 1366.97 1566.74 Q1369.74 1569.51 1369.74 1573.02 Q1369.74 1576.91 1367.1 1579.55 Q1364.46 1582.19 1359.14 1582.19 Q1354.86 1582.19 1351.87 1579.33 Q1351.48 1579.71 1351.19 1580.07 Q1350.9 1580.39 1350.77 1580.52 Q1350.67 1580.65 1350.64 1580.75 Q1350.61 1580.81 1350.54 1580.87 Q1349.22 1582.19 1348.9 1582.19 Q1348.39 1582.19 1348.29 1581.84 Q1348.19 1581.52 1348.19 1580.58 Z" fill="#000000" fill-rule="evenodd" fill-opacity="1" /><path clip-path="url(#clip150)" d="M1377.83 1577.85 Q1373.64 1573.47 1373.64 1567.22 Q1373.64 1560.94 1377.76 1556.43 Q1381.88 1551.89 1387.94 1551.89 Q1391.96 1551.89 1394.99 1553.82 Q1398.02 1555.72 1398.02 1558.97 Q1398.02 1560.42 1397.15 1561.26 Q1396.31 1562.07 1394.99 1562.07 Q1393.61 1562.07 1392.77 1561.23 Q1391.96 1560.36 1391.96 1559.04 Q1391.96 1558.46 1392.16 1557.88 Q1392.35 1557.3 1393.06 1556.69 Q1393.8 1556.08 1395.06 1555.98 Q1392.71 1553.56 1388.13 1553.56 Q1388.07 1553.56 1388 1553.56 Q1384.65 1553.56 1381.88 1556.72 Q1379.11 1559.88 1379.11 1567.09 Q1379.11 1570.86 1380.02 1573.63 Q1380.95 1576.37 1382.46 1577.78 Q1383.98 1579.2 1385.46 1579.88 Q1386.94 1580.52 1388.39 1580.52 Q1394.86 1580.52 1397.05 1573.6 Q1397.25 1572.95 1397.89 1572.95 Q1398.76 1572.95 1398.76 1573.6 Q1398.76 1573.92 1398.5 1574.76 Q1398.25 1575.59 1397.44 1576.91 Q1396.63 1578.23 1395.48 1579.39 Q1394.35 1580.52 1392.32 1581.36 Q1390.32 1582.19 1387.81 1582.19 Q1382.01 1582.19 1377.83 1577.85 Z" fill="#000000" fill-rule="evenodd" fill-opacity="1" /><path clip-path="url(#clip150)" d="M1402.11 1575.17 Q1402.11 1569.57 1408.71 1566.61 Q1412.67 1564.71 1420.85 1564.22 L1420.85 1561.81 Q1420.85 1557.72 1418.69 1555.56 Q1416.57 1553.37 1413.86 1553.37 Q1409.03 1553.37 1406.71 1556.4 Q1408.68 1556.46 1409.39 1557.46 Q1410.09 1558.43 1410.09 1559.43 Q1410.09 1560.75 1409.26 1561.62 Q1408.45 1562.45 1407.07 1562.45 Q1405.75 1562.45 1404.88 1561.65 Q1404.01 1560.81 1404.01 1559.36 Q1404.01 1556.14 1406.91 1554.01 Q1409.84 1551.89 1413.99 1551.89 Q1419.4 1551.89 1423.01 1555.53 Q1424.14 1556.66 1424.68 1558.1 Q1425.26 1559.55 1425.33 1560.52 Q1425.39 1561.45 1425.39 1563.32 L1425.39 1576.49 Q1425.39 1576.88 1425.52 1577.52 Q1425.65 1578.17 1426.23 1579.01 Q1426.84 1579.81 1427.84 1579.81 Q1430.22 1579.81 1430.19 1575.59 L1430.19 1571.89 L1431.87 1571.89 L1431.87 1575.59 Q1431.87 1579.1 1430 1580.49 Q1428.16 1581.84 1426.46 1581.84 Q1424.27 1581.84 1422.88 1580.23 Q1421.5 1578.62 1421.3 1576.43 Q1420.3 1578.94 1418.02 1580.58 Q1415.76 1582.19 1412.67 1582.19 Q1410.29 1582.19 1408.03 1581.58 Q1405.81 1581 1403.94 1579.36 Q1402.11 1577.69 1402.11 1575.17 M1407.2 1575.11 Q1407.2 1577.56 1408.94 1579.14 Q1410.67 1580.71 1413.12 1580.71 Q1415.89 1580.71 1418.37 1578.59 Q1420.85 1576.43 1420.85 1572.21 L1420.85 1565.61 Q1413.54 1565.87 1410.35 1568.8 Q1407.2 1571.7 1407.2 1575.11 Z" fill="#000000" fill-rule="evenodd" fill-opacity="1" /><path clip-path="url(#clip150)" d="M1434.51 1581.45 L1434.51 1579.42 Q1438.02 1579.42 1438.82 1579.01 Q1439.63 1578.56 1439.63 1576.43 L1439.63 1542.13 Q1439.63 1539.68 1438.76 1539.07 Q1437.92 1538.46 1434.51 1538.46 L1434.51 1536.4 L1443.98 1535.69 L1443.98 1576.43 Q1443.98 1578.56 1444.81 1579.01 Q1445.65 1579.42 1449.13 1579.42 L1449.13 1581.45 Q1448.32 1581.45 1446.65 1581.39 Q1444.97 1581.33 1443.75 1581.29 Q1442.53 1581.26 1441.82 1581.26 Q1441.05 1581.26 1434.51 1581.45 Z" fill="#000000" fill-rule="evenodd" fill-opacity="1" /><path clip-path="url(#clip150)" d="M1453.39 1566.93 Q1453.39 1560.71 1457.38 1556.3 Q1461.37 1551.89 1467.11 1551.89 Q1472.9 1551.89 1475.9 1555.66 Q1478.93 1559.43 1478.93 1564.84 Q1478.93 1565.83 1478.67 1566.03 Q1478.41 1566.22 1477.28 1566.22 L1458.86 1566.22 Q1458.86 1572.95 1460.86 1576.11 Q1463.63 1580.52 1468.3 1580.52 Q1468.94 1580.52 1469.71 1580.39 Q1470.49 1580.26 1472.07 1579.71 Q1473.64 1579.14 1475.03 1577.62 Q1476.41 1576.11 1477.22 1573.72 Q1477.41 1572.79 1478.06 1572.82 Q1478.93 1572.82 1478.93 1573.6 Q1478.93 1574.18 1478.28 1575.5 Q1477.67 1576.78 1476.48 1578.33 Q1475.29 1579.88 1472.97 1581.04 Q1470.68 1582.19 1467.91 1582.19 Q1462.11 1582.19 1457.73 1577.81 Q1453.39 1573.4 1453.39 1566.93 M1458.93 1564.84 L1474.58 1564.84 Q1474.58 1563.45 1474.32 1561.9 Q1474.09 1560.36 1473.39 1558.23 Q1472.71 1556.08 1471.1 1554.72 Q1469.49 1553.37 1467.11 1553.37 Q1466.04 1553.37 1464.88 1553.82 Q1463.76 1554.27 1462.37 1555.37 Q1460.99 1556.46 1460.02 1558.94 Q1459.05 1561.42 1458.93 1564.84 Z" fill="#000000" fill-rule="evenodd" fill-opacity="1" /><path clip-path="url(#clip150)" d="M1483.7 1597.3 Q1483.7 1596.98 1484.54 1596.17 Q1495.17 1585.35 1495.17 1564.96 Q1495.17 1544.51 1484.96 1534.18 Q1483.7 1532.98 1483.7 1532.63 Q1483.7 1531.99 1484.35 1531.99 Q1484.8 1531.99 1486.37 1533.31 Q1487.99 1534.63 1490.4 1537.65 Q1492.85 1540.68 1494.65 1544.38 Q1499 1553.37 1499 1564.96 Q1499 1576.11 1494.84 1585.09 Q1493.07 1588.86 1490.59 1592.02 Q1488.11 1595.17 1486.47 1596.56 Q1484.83 1597.94 1484.35 1597.94 Q1483.7 1597.94 1483.7 1597.3 Z" fill="#000000" fill-rule="evenodd" fill-opacity="1" /><polyline clip-path="url(#clip150)" style="stroke:#000000; stroke-linecap:butt; stroke-linejoin:round; stroke-width:4; stroke-opacity:1; fill:none" points="
  231.336,1411.22 231.336,47.2441 
  "/>
<polyline clip-path="url(#clip150)" style="stroke:#000000; stroke-linecap:butt; stroke-linejoin:round; stroke-width:4; stroke-opacity:1; fill:none" points="
  231.336,1372.62 250.234,1372.62 
  "/>
<polyline clip-path="url(#clip150)" style="stroke:#000000; stroke-linecap:butt; stroke-linejoin:round; stroke-width:4; stroke-opacity:1; fill:none" points="
  231.336,1002.86 250.234,1002.86 
  "/>
<polyline clip-path="url(#clip150)" style="stroke:#000000; stroke-linecap:butt; stroke-linejoin:round; stroke-width:4; stroke-opacity:1; fill:none" points="
  231.336,633.096 250.234,633.096 
  "/>
<polyline clip-path="url(#clip150)" style="stroke:#000000; stroke-linecap:butt; stroke-linejoin:round; stroke-width:4; stroke-opacity:1; fill:none" points="
  231.336,263.333 250.234,263.333 
  "/>
<path clip-path="url(#clip150)" d="M138.161 1358.42 Q134.55 1358.42 132.721 1361.98 Q130.915 1365.53 130.915 1372.66 Q130.915 1379.76 132.721 1383.33 Q134.55 1386.87 138.161 1386.87 Q141.795 1386.87 143.601 1383.33 Q145.429 1379.76 145.429 1372.66 Q145.429 1365.53 143.601 1361.98 Q141.795 1358.42 138.161 1358.42 M138.161 1354.72 Q143.971 1354.72 147.027 1359.32 Q150.105 1363.91 150.105 1372.66 Q150.105 1381.38 147.027 1385.99 Q143.971 1390.57 138.161 1390.57 Q132.351 1390.57 129.272 1385.99 Q126.216 1381.38 126.216 1372.66 Q126.216 1363.91 129.272 1359.32 Q132.351 1354.72 138.161 1354.72 Z" fill="#000000" fill-rule="evenodd" fill-opacity="1" /><path clip-path="url(#clip150)" d="M158.323 1384.02 L163.207 1384.02 L163.207 1389.9 L158.323 1389.9 L158.323 1384.02 Z" fill="#000000" fill-rule="evenodd" fill-opacity="1" /><path clip-path="url(#clip150)" d="M183.392 1358.42 Q179.781 1358.42 177.952 1361.98 Q176.147 1365.53 176.147 1372.66 Q176.147 1379.76 177.952 1383.33 Q179.781 1386.87 183.392 1386.87 Q187.026 1386.87 188.832 1383.33 Q190.661 1379.76 190.661 1372.66 Q190.661 1365.53 188.832 1361.98 Q187.026 1358.42 183.392 1358.42 M183.392 1354.72 Q189.202 1354.72 192.258 1359.32 Q195.336 1363.91 195.336 1372.66 Q195.336 1381.38 192.258 1385.99 Q189.202 1390.57 183.392 1390.57 Q177.582 1390.57 174.503 1385.99 Q171.448 1381.38 171.448 1372.66 Q171.448 1363.91 174.503 1359.32 Q177.582 1354.72 183.392 1354.72 Z" fill="#000000" fill-rule="evenodd" fill-opacity="1" /><path clip-path="url(#clip150)" d="M139.388 988.657 Q135.777 988.657 133.948 992.221 Q132.142 995.763 132.142 1002.89 Q132.142 1010 133.948 1013.56 Q135.777 1017.11 139.388 1017.11 Q143.022 1017.11 144.827 1013.56 Q146.656 1010 146.656 1002.89 Q146.656 995.763 144.827 992.221 Q143.022 988.657 139.388 988.657 M139.388 984.953 Q145.198 984.953 148.253 989.559 Q151.332 994.143 151.332 1002.89 Q151.332 1011.62 148.253 1016.23 Q145.198 1020.81 139.388 1020.81 Q133.578 1020.81 130.499 1016.23 Q127.443 1011.62 127.443 1002.89 Q127.443 994.143 130.499 989.559 Q133.578 984.953 139.388 984.953 Z" fill="#000000" fill-rule="evenodd" fill-opacity="1" /><path clip-path="url(#clip150)" d="M159.55 1014.26 L164.434 1014.26 L164.434 1020.14 L159.55 1020.14 L159.55 1014.26 Z" fill="#000000" fill-rule="evenodd" fill-opacity="1" /><path clip-path="url(#clip150)" d="M175.429 1016.2 L183.068 1016.2 L183.068 989.837 L174.758 991.504 L174.758 987.245 L183.022 985.578 L187.698 985.578 L187.698 1016.2 L195.336 1016.2 L195.336 1020.14 L175.429 1020.14 L175.429 1016.2 Z" fill="#000000" fill-rule="evenodd" fill-opacity="1" /><path clip-path="url(#clip150)" d="M139.758 618.894 Q136.147 618.894 134.318 622.459 Q132.513 626.001 132.513 633.13 Q132.513 640.237 134.318 643.802 Q136.147 647.343 139.758 647.343 Q143.392 647.343 145.198 643.802 Q147.027 640.237 147.027 633.13 Q147.027 626.001 145.198 622.459 Q143.392 618.894 139.758 618.894 M139.758 615.191 Q145.568 615.191 148.624 619.797 Q151.702 624.38 151.702 633.13 Q151.702 641.857 148.624 646.464 Q145.568 651.047 139.758 651.047 Q133.948 651.047 130.869 646.464 Q127.814 641.857 127.814 633.13 Q127.814 624.38 130.869 619.797 Q133.948 615.191 139.758 615.191 Z" fill="#000000" fill-rule="evenodd" fill-opacity="1" /><path clip-path="url(#clip150)" d="M159.92 644.496 L164.804 644.496 L164.804 650.376 L159.92 650.376 L159.92 644.496 Z" fill="#000000" fill-rule="evenodd" fill-opacity="1" /><path clip-path="url(#clip150)" d="M179.017 646.44 L195.336 646.44 L195.336 650.376 L173.392 650.376 L173.392 646.44 Q176.054 643.686 180.637 639.056 Q185.244 634.403 186.424 633.061 Q188.67 630.538 189.549 628.802 Q190.452 627.042 190.452 625.353 Q190.452 622.598 188.508 620.862 Q186.586 619.126 183.485 619.126 Q181.286 619.126 178.832 619.89 Q176.401 620.654 173.624 622.204 L173.624 617.482 Q176.448 616.348 178.901 615.769 Q181.355 615.191 183.392 615.191 Q188.762 615.191 191.957 617.876 Q195.151 620.561 195.151 625.052 Q195.151 627.181 194.341 629.103 Q193.554 631.001 191.448 633.593 Q190.869 634.265 187.767 637.482 Q184.665 640.677 179.017 646.44 Z" fill="#000000" fill-rule="evenodd" fill-opacity="1" /><path clip-path="url(#clip150)" d="M138.809 249.132 Q135.198 249.132 133.369 252.697 Q131.564 256.238 131.564 263.368 Q131.564 270.474 133.369 274.039 Q135.198 277.581 138.809 277.581 Q142.443 277.581 144.249 274.039 Q146.077 270.474 146.077 263.368 Q146.077 256.238 144.249 252.697 Q142.443 249.132 138.809 249.132 M138.809 245.428 Q144.619 245.428 147.675 250.035 Q150.753 254.618 150.753 263.368 Q150.753 272.095 147.675 276.701 Q144.619 281.285 138.809 281.285 Q132.999 281.285 129.92 276.701 Q126.865 272.095 126.865 263.368 Q126.865 254.618 129.92 250.035 Q132.999 245.428 138.809 245.428 Z" fill="#000000" fill-rule="evenodd" fill-opacity="1" /><path clip-path="url(#clip150)" d="M158.971 274.734 L163.855 274.734 L163.855 280.613 L158.971 280.613 L158.971 274.734 Z" fill="#000000" fill-rule="evenodd" fill-opacity="1" /><path clip-path="url(#clip150)" d="M188.207 261.979 Q191.563 262.697 193.438 264.965 Q195.336 267.234 195.336 270.567 Q195.336 275.683 191.818 278.484 Q188.299 281.285 181.818 281.285 Q179.642 281.285 177.327 280.845 Q175.036 280.428 172.582 279.572 L172.582 275.058 Q174.526 276.192 176.841 276.771 Q179.156 277.349 181.679 277.349 Q186.077 277.349 188.369 275.613 Q190.684 273.877 190.684 270.567 Q190.684 267.511 188.531 265.798 Q186.401 264.062 182.582 264.062 L178.554 264.062 L178.554 260.22 L182.767 260.22 Q186.216 260.22 188.045 258.854 Q189.873 257.465 189.873 254.873 Q189.873 252.211 187.975 250.799 Q186.1 249.363 182.582 249.363 Q180.661 249.363 178.462 249.78 Q176.262 250.197 173.624 251.076 L173.624 246.91 Q176.286 246.169 178.6 245.799 Q180.938 245.428 182.999 245.428 Q188.323 245.428 191.424 247.859 Q194.526 250.266 194.526 254.387 Q194.526 257.257 192.883 259.248 Q191.239 261.215 188.207 261.979 Z" fill="#000000" fill-rule="evenodd" fill-opacity="1" /><path clip-path="url(#clip150)" d="M48.2879 777.945 Q51.895 777.945 55.2122 780.618 Q58.5294 783.259 60.5584 787.575 Q62.5551 791.858 62.5551 796.464 L62.5551 807.671 L79.0445 811.761 Q79.1411 811.794 79.5598 811.89 Q79.9463 811.987 80.1717 811.987 Q80.9769 811.987 81.1701 810.988 Q81.3633 809.958 81.3633 807.671 Q81.3633 806.19 81.621 805.964 Q81.782 805.836 82.0719 805.836 Q82.5227 805.836 82.8448 805.964 Q83.1347 806.093 83.2313 806.351 Q83.3279 806.576 83.3601 806.737 Q83.3923 806.898 83.3923 807.156 Q83.3923 807.832 83.3279 809.282 Q83.2635 810.699 83.2635 811.439 L83.1991 815.658 L83.3923 824.032 Q83.3923 825.03 82.5872 825.03 Q81.9752 825.03 81.7176 824.773 Q81.4277 824.515 81.3955 824.225 Q81.3633 823.935 81.3633 823.195 Q81.3633 821.584 81.2667 820.618 Q81.1701 819.652 81.0413 819.04 Q80.8802 818.396 80.4294 818.074 Q79.9785 817.72 79.592 817.558 Q79.1733 817.397 78.2394 817.172 L42.8129 808.348 Q41.7501 808.09 41.5891 808.09 Q41.0416 808.09 40.8484 808.412 Q40.6229 808.702 40.5263 809.539 Q40.3975 811.15 40.3975 812.373 Q40.3975 813.178 40.3653 813.501 Q40.3331 813.79 40.172 814.048 Q39.9788 814.273 39.5923 814.273 Q38.9804 814.273 38.7228 814.016 Q38.4329 813.726 38.4007 813.404 Q38.3363 813.082 38.3363 812.309 L38.3363 790.924 Q38.3363 784.773 41.267 781.359 Q44.1978 777.945 48.2879 777.945 M46.7098 784.064 Q40.3975 784.064 40.3975 793.05 L40.3975 799.362 Q40.3975 801.456 40.784 801.971 Q41.1382 802.486 42.9095 802.937 L60.8482 807.414 L60.8482 798.106 Q60.8482 791.858 57.3378 787.961 Q55.7275 786.19 52.3781 785.127 Q49.0287 784.064 46.7098 784.064 Z" fill="#000000" fill-rule="evenodd" fill-opacity="1" /><path clip-path="url(#clip150)" d="M66.9029 770.708 Q55.7597 770.708 46.7742 766.553 Q43.0062 764.782 39.85 762.302 Q36.6938 759.822 35.309 758.18 Q33.9241 756.537 33.9241 756.086 Q33.9241 755.442 34.5682 755.41 Q34.8903 755.41 35.6954 756.279 Q46.5166 766.907 66.9029 766.875 Q87.3536 766.875 97.7561 756.537 Q98.8833 755.41 99.2376 755.41 Q99.8817 755.41 99.8817 756.086 Q99.8817 756.537 98.5613 758.115 Q97.2408 759.693 94.2135 762.141 Q91.1861 764.589 87.4825 766.36 Q78.497 770.708 66.9029 770.708 Z" fill="#000000" fill-rule="evenodd" fill-opacity="1" /><path clip-path="url(#clip150)" d="M64.7773 721.097 Q69.415 721.097 73.956 723.448 Q78.4648 725.767 81.2989 729.503 Q84.133 733.206 84.133 737.007 Q84.133 740.71 81.2989 743.061 Q78.4326 745.38 73.7628 745.38 Q72.1203 745.38 70.9608 745.187 Q69.8014 744.994 67.0961 744.317 L45.5826 738.907 Q41.5569 737.973 41.5247 737.973 Q41.1382 737.973 40.945 738.134 Q40.7195 738.263 40.5585 739.036 Q40.3975 739.809 40.3975 741.29 Q40.3975 741.902 40.3653 742.192 Q40.3331 742.449 40.172 742.675 Q39.9788 742.868 39.5923 742.868 Q39.0448 742.868 38.755 742.643 Q38.4329 742.385 38.3685 742.192 Q38.3041 741.999 38.2719 741.612 Q38.2397 741.065 38.0787 739.229 Q37.8854 737.393 37.7566 735.815 Q37.6278 734.237 37.6278 733.561 Q37.6278 733.174 37.821 732.981 Q37.982 732.756 38.1753 732.756 L38.3363 732.723 L58.2073 737.586 Q54.246 733.754 54.246 729.857 Q54.246 725.96 57.2411 723.545 Q60.2363 721.097 64.7773 721.097 M61.8788 725.863 Q58.8192 725.863 57.2734 727.023 Q55.6953 728.15 55.6953 730.018 Q55.6953 731.596 56.8869 733.657 Q58.0785 735.718 60.977 737.908 Q61.5245 738.327 61.8466 738.488 Q62.1686 738.617 63.2636 738.907 L69.3506 740.356 Q73.5051 741.419 76.0172 741.419 Q79.431 741.419 81.0413 740.163 Q82.6516 738.907 82.6516 737.007 Q82.6516 735.01 80.8802 732.917 Q79.1089 730.823 75.8883 729.213 Q73.7628 728.214 69.1895 727.055 Q64.5841 725.863 61.8788 725.863 Z" fill="#000000" fill-rule="evenodd" fill-opacity="1" /><path clip-path="url(#clip150)" d="M24.4487 701.482 Q23.6597 701.482 23.1411 700.422 L20.0977 693.997 L17.0542 700.512 Q16.6033 701.482 15.8143 701.482 Q15.3634 701.482 14.9576 701.121 Q14.5293 700.738 14.5293 700.242 Q14.5293 699.881 15.0253 699.227 L19.1734 693.501 Q11.5535 694.2 11.328 694.177 Q10.8771 694.177 10.539 693.839 Q10.1783 693.501 10.1783 692.937 Q10.1783 692.486 10.5164 692.126 Q10.8321 691.742 11.328 691.742 L19.1734 692.419 L15.386 687.301 Q14.5067 686.106 14.5293 685.678 Q14.5293 685.16 14.9351 684.799 Q15.3409 684.438 15.8143 684.438 Q16.6033 684.438 17.0993 685.498 L20.1428 691.923 L23.2088 685.408 Q23.6597 684.438 24.4487 684.438 Q24.8996 684.438 25.3279 684.821 Q25.7337 685.182 25.7337 685.678 Q25.7337 685.949 25.4632 686.422 Q25.4181 686.512 24.6967 687.482 Q23.9753 688.451 22.8706 689.961 Q21.7659 691.449 21.0671 692.419 Q28.687 691.72 28.9124 691.742 Q29.3633 691.742 29.724 692.081 Q30.0847 692.419 30.0847 692.982 Q30.0847 693.433 29.7691 693.817 Q29.4309 694.177 28.9124 694.177 L21.0671 693.501 L25.7337 699.949 Q25.7337 700.647 25.3955 701.031 Q25.0348 701.391 24.8319 701.436 Q24.629 701.482 24.4487 701.482 Z" fill="#000000" fill-rule="evenodd" fill-opacity="1" /><path clip-path="url(#clip150)" d="M99.2376 658.765 Q98.9155 658.765 98.1104 657.927 Q87.2892 647.3 66.9029 647.3 Q46.4522 647.3 36.1141 657.509 Q34.9225 658.765 34.5682 658.765 Q33.9241 658.765 33.9241 658.121 Q33.9241 657.67 35.2445 656.092 Q36.565 654.481 39.5923 652.066 Q42.6197 649.618 46.3234 647.815 Q55.3088 643.467 66.9029 643.467 Q78.0461 643.467 87.0316 647.622 Q90.7997 649.393 93.9558 651.873 Q97.112 654.353 98.4969 655.995 Q99.8817 657.638 99.8817 658.121 Q99.8817 658.765 99.2376 658.765 Z" fill="#000000" fill-rule="evenodd" fill-opacity="1" /><path clip-path="url(#clip152)" d="
M456.625 1269.09 L456.625 1372.62 L548.429 1372.62 L548.429 1269.09 L456.625 1269.09 L456.625 1269.09  Z
  " fill="#808080" fill-rule="evenodd" fill-opacity="0.5"/>
<polyline clip-path="url(#clip152)" style="stroke:#000000; stroke-linecap:butt; stroke-linejoin:round; stroke-width:4; stroke-opacity:0.5; fill:none" points="
  456.625,1269.09 456.625,1372.62 548.429,1372.62 548.429,1269.09 456.625,1269.09 
  "/>
<path clip-path="url(#clip152)" d="
M548.429 928.906 L548.429 1372.62 L640.234 1372.62 L640.234 928.906 L548.429 928.906 L548.429 928.906  Z
  " fill="#808080" fill-rule="evenodd" fill-opacity="0.5"/>
<polyline clip-path="url(#clip152)" style="stroke:#000000; stroke-linecap:butt; stroke-linejoin:round; stroke-width:4; stroke-opacity:0.5; fill:none" points="
  548.429,928.906 548.429,1372.62 640.234,1372.62 640.234,928.906 548.429,928.906 
  "/>
<path clip-path="url(#clip152)" d="
M640.234 721.839 L640.234 1372.62 L732.038 1372.62 L732.038 721.839 L640.234 721.839 L640.234 721.839  Z
  " fill="#808080" fill-rule="evenodd" fill-opacity="0.5"/>
<polyline clip-path="url(#clip152)" style="stroke:#000000; stroke-linecap:butt; stroke-linejoin:round; stroke-width:4; stroke-opacity:0.5; fill:none" points="
  640.234,721.839 640.234,1372.62 732.038,1372.62 732.038,721.839 640.234,721.839 
  "/>
<path clip-path="url(#clip152)" d="
M732.038 366.867 L732.038 1372.62 L823.843 1372.62 L823.843 366.867 L732.038 366.867 L732.038 366.867  Z
  " fill="#808080" fill-rule="evenodd" fill-opacity="0.5"/>
<polyline clip-path="url(#clip152)" style="stroke:#000000; stroke-linecap:butt; stroke-linejoin:round; stroke-width:4; stroke-opacity:0.5; fill:none" points="
  732.038,366.867 732.038,1372.62 823.843,1372.62 823.843,366.867 732.038,366.867 
  "/>
<path clip-path="url(#clip152)" d="
M823.843 426.029 L823.843 1372.62 L915.648 1372.62 L915.648 426.029 L823.843 426.029 L823.843 426.029  Z
  " fill="#808080" fill-rule="evenodd" fill-opacity="0.5"/>
<polyline clip-path="url(#clip152)" style="stroke:#000000; stroke-linecap:butt; stroke-linejoin:round; stroke-width:4; stroke-opacity:0.5; fill:none" points="
  823.843,426.029 823.843,1372.62 915.648,1372.62 915.648,426.029 823.843,426.029 
  "/>
<path clip-path="url(#clip152)" d="
M915.648 85.8473 L915.648 1372.62 L1007.45 1372.62 L1007.45 85.8473 L915.648 85.8473 L915.648 85.8473  Z
  " fill="#808080" fill-rule="evenodd" fill-opacity="0.5"/>
<polyline clip-path="url(#clip152)" style="stroke:#000000; stroke-linecap:butt; stroke-linejoin:round; stroke-width:4; stroke-opacity:0.5; fill:none" points="
  915.648,85.8473 915.648,1372.62 1007.45,1372.62 1007.45,85.8473 915.648,85.8473 
  "/>
<path clip-path="url(#clip152)" d="
M1007.45 544.353 L1007.45 1372.62 L1099.26 1372.62 L1099.26 544.353 L1007.45 544.353 L1007.45 544.353  Z
  " fill="#808080" fill-rule="evenodd" fill-opacity="0.5"/>
<polyline clip-path="url(#clip152)" style="stroke:#000000; stroke-linecap:butt; stroke-linejoin:round; stroke-width:4; stroke-opacity:0.5; fill:none" points="
  1007.45,544.353 1007.45,1372.62 1099.26,1372.62 1099.26,544.353 1007.45,544.353 
  "/>
<path clip-path="url(#clip152)" d="
M1099.26 692.258 L1099.26 1372.62 L1191.06 1372.62 L1191.06 692.258 L1099.26 692.258 L1099.26 692.258  Z
  " fill="#808080" fill-rule="evenodd" fill-opacity="0.5"/>
<polyline clip-path="url(#clip152)" style="stroke:#000000; stroke-linecap:butt; stroke-linejoin:round; stroke-width:4; stroke-opacity:0.5; fill:none" points="
  1099.26,692.258 1099.26,1372.62 1191.06,1372.62 1191.06,692.258 1099.26,692.258 
  "/>
<path clip-path="url(#clip152)" d="
M1191.06 958.487 L1191.06 1372.62 L1282.87 1372.62 L1282.87 958.487 L1191.06 958.487 L1191.06 958.487  Z
  " fill="#808080" fill-rule="evenodd" fill-opacity="0.5"/>
<polyline clip-path="url(#clip152)" style="stroke:#000000; stroke-linecap:butt; stroke-linejoin:round; stroke-width:4; stroke-opacity:0.5; fill:none" points="
  1191.06,958.487 1191.06,1372.62 1282.87,1372.62 1282.87,958.487 1191.06,958.487 
  "/>
<path clip-path="url(#clip152)" d="
M1282.87 1032.44 L1282.87 1372.62 L1374.67 1372.62 L1374.67 1032.44 L1282.87 1032.44 L1282.87 1032.44  Z
  " fill="#808080" fill-rule="evenodd" fill-opacity="0.5"/>
<polyline clip-path="url(#clip152)" style="stroke:#000000; stroke-linecap:butt; stroke-linejoin:round; stroke-width:4; stroke-opacity:0.5; fill:none" points="
  1282.87,1032.44 1282.87,1372.62 1374.67,1372.62 1374.67,1032.44 1282.87,1032.44 
  "/>
<path clip-path="url(#clip152)" d="
M1374.67 1150.76 L1374.67 1372.62 L1466.47 1372.62 L1466.47 1150.76 L1374.67 1150.76 L1374.67 1150.76  Z
  " fill="#808080" fill-rule="evenodd" fill-opacity="0.5"/>
<polyline clip-path="url(#clip152)" style="stroke:#000000; stroke-linecap:butt; stroke-linejoin:round; stroke-width:4; stroke-opacity:0.5; fill:none" points="
  1374.67,1150.76 1374.67,1372.62 1466.47,1372.62 1466.47,1150.76 1374.67,1150.76 
  "/>
<path clip-path="url(#clip152)" d="
M1466.47 1269.09 L1466.47 1372.62 L1558.28 1372.62 L1558.28 1269.09 L1466.47 1269.09 L1466.47 1269.09  Z
  " fill="#808080" fill-rule="evenodd" fill-opacity="0.5"/>
<polyline clip-path="url(#clip152)" style="stroke:#000000; stroke-linecap:butt; stroke-linejoin:round; stroke-width:4; stroke-opacity:0.5; fill:none" points="
  1466.47,1269.09 1466.47,1372.62 1558.28,1372.62 1558.28,1269.09 1466.47,1269.09 
  "/>
<path clip-path="url(#clip152)" d="
M1558.28 1269.09 L1558.28 1372.62 L1650.08 1372.62 L1650.08 1269.09 L1558.28 1269.09 L1558.28 1269.09  Z
  " fill="#808080" fill-rule="evenodd" fill-opacity="0.5"/>
<polyline clip-path="url(#clip152)" style="stroke:#000000; stroke-linecap:butt; stroke-linejoin:round; stroke-width:4; stroke-opacity:0.5; fill:none" points="
  1558.28,1269.09 1558.28,1372.62 1650.08,1372.62 1650.08,1269.09 1558.28,1269.09 
  "/>
<path clip-path="url(#clip152)" d="
M1650.08 1239.51 L1650.08 1372.62 L1741.89 1372.62 L1741.89 1239.51 L1650.08 1239.51 L1650.08 1239.51  Z
  " fill="#808080" fill-rule="evenodd" fill-opacity="0.5"/>
<polyline clip-path="url(#clip152)" style="stroke:#000000; stroke-linecap:butt; stroke-linejoin:round; stroke-width:4; stroke-opacity:0.5; fill:none" points="
  1650.08,1239.51 1650.08,1372.62 1741.89,1372.62 1741.89,1239.51 1650.08,1239.51 
  "/>
<path clip-path="url(#clip152)" d="
M1741.89 1283.88 L1741.89 1372.62 L1833.69 1372.62 L1833.69 1283.88 L1741.89 1283.88 L1741.89 1283.88  Z
  " fill="#808080" fill-rule="evenodd" fill-opacity="0.5"/>
<polyline clip-path="url(#clip152)" style="stroke:#000000; stroke-linecap:butt; stroke-linejoin:round; stroke-width:4; stroke-opacity:0.5; fill:none" points="
  1741.89,1283.88 1741.89,1372.62 1833.69,1372.62 1833.69,1283.88 1741.89,1283.88 
  "/>
<path clip-path="url(#clip152)" d="
M1833.69 1372.62 L1833.69 1372.62 L1925.5 1372.62 L1925.5 1372.62 L1833.69 1372.62 L1833.69 1372.62  Z
  " fill="#808080" fill-rule="evenodd" fill-opacity="0.5"/>
<polyline clip-path="url(#clip152)" style="stroke:#000000; stroke-linecap:butt; stroke-linejoin:round; stroke-width:4; stroke-opacity:0.5; fill:none" points="
  1833.69,1372.62 1833.69,1372.62 1925.5,1372.62 1833.69,1372.62 
  "/>
<path clip-path="url(#clip152)" d="
M1925.5 1372.62 L1925.5 1372.62 L2017.3 1372.62 L2017.3 1372.62 L1925.5 1372.62 L1925.5 1372.62  Z
  " fill="#808080" fill-rule="evenodd" fill-opacity="0.5"/>
<polyline clip-path="url(#clip152)" style="stroke:#000000; stroke-linecap:butt; stroke-linejoin:round; stroke-width:4; stroke-opacity:0.5; fill:none" points="
  1925.5,1372.62 1925.5,1372.62 2017.3,1372.62 1925.5,1372.62 
  "/>
<path clip-path="url(#clip152)" d="
M2017.3 1357.83 L2017.3 1372.62 L2109.11 1372.62 L2109.11 1357.83 L2017.3 1357.83 L2017.3 1357.83  Z
  " fill="#808080" fill-rule="evenodd" fill-opacity="0.5"/>
<polyline clip-path="url(#clip152)" style="stroke:#000000; stroke-linecap:butt; stroke-linejoin:round; stroke-width:4; stroke-opacity:0.5; fill:none" points="
  2017.3,1357.83 2017.3,1372.62 2109.11,1372.62 2109.11,1357.83 2017.3,1357.83 
  "/>
<path clip-path="url(#clip152)" d="
M2109.11 1343.04 L2109.11 1372.62 L2200.91 1372.62 L2200.91 1343.04 L2109.11 1343.04 L2109.11 1343.04  Z
  " fill="#808080" fill-rule="evenodd" fill-opacity="0.5"/>
<polyline clip-path="url(#clip152)" style="stroke:#000000; stroke-linecap:butt; stroke-linejoin:round; stroke-width:4; stroke-opacity:0.5; fill:none" points="
  2109.11,1343.04 2109.11,1372.62 2200.91,1372.62 2200.91,1343.04 2109.11,1343.04 
  "/>
<circle clip-path="url(#clip152)" style="fill:#808080; stroke:none; fill-opacity:0" cx="502.527" cy="1269.09" r="2"/>
<circle clip-path="url(#clip152)" style="fill:#808080; stroke:none; fill-opacity:0" cx="594.332" cy="928.906" r="2"/>
<circle clip-path="url(#clip152)" style="fill:#808080; stroke:none; fill-opacity:0" cx="686.136" cy="721.839" r="2"/>
<circle clip-path="url(#clip152)" style="fill:#808080; stroke:none; fill-opacity:0" cx="777.941" cy="366.867" r="2"/>
<circle clip-path="url(#clip152)" style="fill:#808080; stroke:none; fill-opacity:0" cx="869.745" cy="426.029" r="2"/>
<circle clip-path="url(#clip152)" style="fill:#808080; stroke:none; fill-opacity:0" cx="961.55" cy="85.8473" r="2"/>
<circle clip-path="url(#clip152)" style="fill:#808080; stroke:none; fill-opacity:0" cx="1053.35" cy="544.353" r="2"/>
<circle clip-path="url(#clip152)" style="fill:#808080; stroke:none; fill-opacity:0" cx="1145.16" cy="692.258" r="2"/>
<circle clip-path="url(#clip152)" style="fill:#808080; stroke:none; fill-opacity:0" cx="1236.96" cy="958.487" r="2"/>
<circle clip-path="url(#clip152)" style="fill:#808080; stroke:none; fill-opacity:0" cx="1328.77" cy="1032.44" r="2"/>
<circle clip-path="url(#clip152)" style="fill:#808080; stroke:none; fill-opacity:0" cx="1420.57" cy="1150.76" r="2"/>
<circle clip-path="url(#clip152)" style="fill:#808080; stroke:none; fill-opacity:0" cx="1512.38" cy="1269.09" r="2"/>
<circle clip-path="url(#clip152)" style="fill:#808080; stroke:none; fill-opacity:0" cx="1604.18" cy="1269.09" r="2"/>
<circle clip-path="url(#clip152)" style="fill:#808080; stroke:none; fill-opacity:0" cx="1695.99" cy="1239.51" r="2"/>
<circle clip-path="url(#clip152)" style="fill:#808080; stroke:none; fill-opacity:0" cx="1787.79" cy="1283.88" r="2"/>
<circle clip-path="url(#clip152)" style="fill:#808080; stroke:none; fill-opacity:0" cx="1879.6" cy="1372.62" r="2"/>
<circle clip-path="url(#clip152)" style="fill:#808080; stroke:none; fill-opacity:0" cx="1971.4" cy="1372.62" r="2"/>
<circle clip-path="url(#clip152)" style="fill:#808080; stroke:none; fill-opacity:0" cx="2063.2" cy="1357.83" r="2"/>
<circle clip-path="url(#clip152)" style="fill:#808080; stroke:none; fill-opacity:0" cx="2155.01" cy="1343.04" r="2"/>
<polyline clip-path="url(#clip152)" style="stroke:#000000; stroke-linecap:butt; stroke-linejoin:round; stroke-width:8; stroke-opacity:1; fill:none" points="
  291.377,1372.62 293.213,1372.62 295.049,1372.62 296.885,1372.62 298.721,1372.62 300.557,1372.62 302.393,1372.62 304.229,1372.62 306.065,1372.62 307.901,1372.62 
  309.738,1372.62 311.574,1372.62 313.41,1372.62 315.246,1372.62 317.082,1372.62 318.918,1372.62 320.754,1372.62 322.59,1372.62 324.426,1372.62 326.262,1372.62 
  328.098,1372.62 329.935,1372.62 331.771,1372.62 333.607,1372.62 335.443,1372.62 337.279,1372.62 339.115,1372.62 340.951,1372.62 342.787,1372.62 344.623,1372.62 
  346.459,1372.62 348.295,1372.62 350.132,1372.62 351.968,1372.61 353.804,1372.61 355.64,1372.61 357.476,1372.61 359.312,1372.6 361.148,1372.6 362.984,1372.59 
  364.82,1372.59 366.656,1372.58 368.492,1372.57 370.329,1372.56 372.165,1372.54 374.001,1372.52 375.837,1372.5 377.673,1372.48 379.509,1372.45 381.345,1372.42 
  383.181,1372.38 385.017,1372.33 386.853,1372.28 388.689,1372.22 390.526,1372.16 392.362,1372.08 394.198,1371.99 396.034,1371.9 397.87,1371.79 399.706,1371.66 
  401.542,1371.53 403.378,1371.37 405.214,1371.2 407.05,1371.01 408.886,1370.8 410.723,1370.57 412.559,1370.32 414.395,1370.04 416.231,1369.73 418.067,1369.4 
  419.903,1369.04 421.739,1368.64 423.575,1368.21 425.411,1367.75 427.247,1367.25 429.083,1366.71 430.92,1366.12 432.756,1365.49 434.592,1364.82 436.428,1364.1 
  438.264,1363.33 440.1,1362.5 441.936,1361.63 443.772,1360.69 445.608,1359.7 447.444,1358.64 449.28,1357.52 451.117,1356.34 452.953,1355.08 454.789,1353.76 
  456.625,1352.37 458.461,1350.9 460.297,1349.35 462.133,1347.73 463.969,1346.03 465.805,1344.24 467.641,1342.37 469.477,1340.42 471.314,1338.37 473.15,1336.24 
  474.986,1334.02 476.822,1331.7 478.658,1329.29 480.494,1326.78 482.33,1324.17 484.166,1321.47 486.002,1318.66 487.838,1315.76 489.674,1312.75 491.511,1309.64 
  493.347,1306.42 495.183,1303.1 497.019,1299.67 498.855,1296.14 500.691,1292.49 502.527,1288.74 504.363,1284.88 506.199,1280.91 508.035,1276.83 509.871,1272.65 
  511.708,1268.35 513.544,1263.94 515.38,1259.43 517.216,1254.8 519.052,1250.07 520.888,1245.22 522.724,1240.27 524.56,1235.21 526.396,1230.04 528.232,1224.77 
  530.068,1219.39 531.905,1213.91 533.741,1208.32 535.577,1202.63 537.413,1196.83 539.249,1190.94 541.085,1184.95 542.921,1178.86 544.757,1172.67 546.593,1166.39 
  548.429,1160.01 550.265,1153.54 552.102,1146.98 553.938,1140.33 555.774,1133.6 557.61,1126.78 559.446,1119.87 561.282,1112.89 563.118,1105.82 564.954,1098.68 
  566.79,1091.46 568.626,1084.17 570.462,1076.81 572.299,1069.38 574.135,1061.89 575.971,1054.32 577.807,1046.7 579.643,1039.02 581.479,1031.28 583.315,1023.48 
  585.151,1015.64 586.987,1007.74 588.823,999.792 590.659,991.801 592.496,983.767 594.332,975.694 596.168,967.582 598.004,959.435 599.84,951.256 601.676,943.046 
  603.512,934.808 605.348,926.546 607.184,918.26 609.02,909.955 610.856,901.632 612.693,893.294 614.529,884.943 616.365,876.582 618.201,868.213 620.037,859.839 
  621.873,851.462 623.709,843.085 625.545,834.71 627.381,826.339 629.217,817.976 631.053,809.621 632.89,801.278 634.726,792.949 636.562,784.636 638.398,776.341 
  640.234,768.067 642.07,759.816 643.906,751.59 645.742,743.391 647.578,735.221 649.414,727.083 651.25,718.978 653.087,710.909 654.923,702.877 656.759,694.884 
  658.595,686.933 660.431,679.025 662.267,671.162 664.103,663.346 665.939,655.579 667.775,647.862 669.611,640.197 671.447,632.586 673.284,625.031 675.12,617.533 
  676.956,610.093 678.792,602.713 680.628,595.395 682.464,588.14 684.3,580.95 686.136,573.825 687.972,566.768 689.808,559.779 691.644,552.86 693.481,546.011 
  695.317,539.235 697.153,532.532 698.989,525.904 700.825,519.35 702.661,512.874 704.497,506.474 706.333,500.154 708.169,493.912 710.005,487.751 711.841,481.67 
  713.678,475.671 715.514,469.755 717.35,463.923 719.186,458.174 721.022,452.51 722.858,446.931 724.694,441.438 726.53,436.032 728.366,430.712 730.202,425.48 
  732.038,420.336 733.875,415.28 735.711,410.313 737.547,405.435 739.383,400.646 741.219,395.947 743.055,391.338 744.891,386.819 746.727,382.39 748.563,378.052 
  750.399,373.805 752.235,369.648 754.072,365.583 755.908,361.608 757.744,357.725 759.58,353.932 761.416,350.231 763.252,346.62 765.088,343.101 766.924,339.672 
  768.76,336.334 770.596,333.086 772.432,329.929 774.269,326.862 776.105,323.886 777.941,320.999 779.777,318.201 781.613,315.493 783.449,312.874 785.285,310.343 
  787.121,307.901 788.957,305.547 790.793,303.281 792.629,301.102 794.466,299.01 796.302,297.004 798.138,295.085 799.974,293.251 801.81,291.502 803.646,289.838 
  805.482,288.258 807.318,286.762 809.154,285.349 810.99,284.019 812.826,282.771 814.663,281.604 816.499,280.519 818.335,279.514 820.171,278.588 822.007,277.742 
  823.843,276.975 825.679,276.285 827.515,275.674 829.351,275.138 831.187,274.679 833.023,274.296 834.86,273.987 836.696,273.752 838.532,273.591 840.368,273.503 
  842.204,273.487 844.04,273.542 845.876,273.668 847.712,273.864 849.548,274.129 851.384,274.463 853.22,274.864 855.057,275.333 856.893,275.869 858.729,276.47 
  860.565,277.136 862.401,277.866 864.237,278.66 866.073,279.516 867.909,280.434 869.745,281.414 871.581,282.455 873.417,283.555 875.254,284.714 877.09,285.931 
  878.926,287.206 880.762,288.538 882.598,289.925 884.434,291.368 886.27,292.866 888.106,294.417 889.942,296.021 891.778,297.678 893.614,299.386 895.451,301.145 
  897.287,302.954 899.123,304.812 900.959,306.719 902.795,308.674 904.631,310.675 906.467,312.723 908.303,314.817 910.139,316.956 911.975,319.138 913.811,321.364 
  915.648,323.633 917.484,325.944 919.32,328.296 921.156,330.688 922.992,333.121 924.828,335.592 926.664,338.102 928.5,340.65 930.336,343.235 932.172,345.856 
  934.008,348.513 935.845,351.204 937.681,353.93 939.517,356.69 941.353,359.483 943.189,362.308 945.025,365.164 946.861,368.051 948.697,370.969 950.533,373.917 
  952.369,376.893 954.205,379.898 956.042,382.931 957.878,385.991 959.714,389.077 961.55,392.189 963.386,395.327 965.222,398.489 967.058,401.675 968.894,404.885 
  970.73,408.117 972.566,411.372 974.402,414.649 976.239,417.946 978.075,421.265 979.911,424.603 981.747,427.961 983.583,431.338 985.419,434.733 987.255,438.145 
  989.091,441.576 990.927,445.022 992.763,448.485 994.599,451.964 996.436,455.458 998.272,458.967 1000.11,462.49 1001.94,466.026 1003.78,469.576 1005.62,473.138 
  1007.45,476.713 1009.29,480.299 1011.12,483.897 1012.96,487.505 1014.8,491.124 1016.63,494.752 1018.47,498.39 1020.3,502.037 1022.14,505.693 1023.98,509.357 
  1025.81,513.028 1027.65,516.707 1029.49,520.392 1031.32,524.084 1033.16,527.782 1034.99,531.486 1036.83,535.195 1038.67,538.909 1040.5,542.627 1042.34,546.35 
  1044.17,550.076 1046.01,553.806 1047.85,557.538 1049.68,561.274 1051.52,565.011 1053.35,568.751 1055.19,572.492 1057.03,576.234 1058.86,579.978 1060.7,583.721 
  1062.53,587.466 1064.37,591.21 1066.21,594.954 1068.04,598.697 1069.88,602.439 1071.72,606.18 1073.55,609.92 1075.39,613.658 1077.22,617.393 1079.06,621.126 
  1080.9,624.857 1082.73,628.585 1084.57,632.309 1086.4,636.03 1088.24,639.747 1090.08,643.46 1091.91,647.17 1093.75,650.874 1095.58,654.574 1097.42,658.269 
  1099.26,661.959 1101.09,665.643 1102.93,669.322 1104.76,672.995 1106.6,676.662 1108.44,680.323 1110.27,683.977 1112.11,687.624 1113.95,691.265 1115.78,694.899 
  1117.62,698.525 1119.45,702.144 1121.29,705.755 1123.13,709.359 1124.96,712.954 1126.8,716.542 1128.63,720.121 1130.47,723.692 1132.31,727.254 1134.14,730.807 
  1135.98,734.351 1137.81,737.886 1139.65,741.412 1141.49,744.929 1143.32,748.436 1145.16,751.933 1146.99,755.42 1148.83,758.898 1150.67,762.365 1152.5,765.823 
  1154.34,769.27 1156.18,772.706 1158.01,776.132 1159.85,779.547 1161.68,782.952 1163.52,786.345 1165.36,789.728 1167.19,793.1 1169.03,796.46 1170.86,799.809 
  1172.7,803.147 1174.54,806.473 1176.37,809.788 1178.21,813.091 1180.04,816.382 1181.88,819.662 1183.72,822.929 1185.55,826.185 1187.39,829.428 1189.23,832.66 
  1191.06,835.879 1192.9,839.086 1194.73,842.281 1196.57,845.463 1198.41,848.633 1200.24,851.791 1202.08,854.936 1203.91,858.068 1205.75,861.188 1207.59,864.295 
  1209.42,867.389 1211.26,870.471 1213.09,873.539 1214.93,876.595 1216.77,879.638 1218.6,882.668 1220.44,885.685 1222.27,888.689 1224.11,891.679 1225.95,894.657 
  1227.78,897.622 1229.62,900.574 1231.46,903.512 1233.29,906.437 1235.13,909.349 1236.96,912.248 1238.8,915.134 1240.64,918.006 1242.47,920.865 1244.31,923.711 
  1246.14,926.543 1247.98,929.362 1249.82,932.168 1251.65,934.961 1253.49,937.74 1255.32,940.506 1257.16,943.258 1259,945.997 1260.83,948.723 1262.67,951.435 
  1264.5,954.135 1266.34,956.82 1268.18,959.493 1270.01,962.152 1271.85,964.798 1273.69,967.43 1275.52,970.049 1277.36,972.655 1279.19,975.248 1281.03,977.827 
  1282.87,980.393 1284.7,982.946 1286.54,985.486 1288.37,988.012 1290.21,990.525 1292.05,993.025 1293.88,995.512 1295.72,997.985 1297.55,1000.45 1299.39,1002.89 
  1301.23,1005.33 1303.06,1007.75 1304.9,1010.16 1306.73,1012.55 1308.57,1014.93 1310.41,1017.3 1312.24,1019.66 1314.08,1022 1315.92,1024.33 1317.75,1026.65 
  1319.59,1028.96 1321.42,1031.25 1323.26,1033.53 1325.1,1035.79 1326.93,1038.05 1328.77,1040.29 1330.6,1042.52 1332.44,1044.73 1334.28,1046.94 1336.11,1049.13 
  1337.95,1051.31 1339.78,1053.47 1341.62,1055.63 1343.46,1057.77 1345.29,1059.9 1347.13,1062.01 1348.96,1064.12 1350.8,1066.21 1352.64,1068.29 1354.47,1070.36 
  1356.31,1072.41 1358.15,1074.45 1359.98,1076.49 1361.82,1078.51 1363.65,1080.51 1365.49,1082.51 1367.33,1084.49 1369.16,1086.46 1371,1088.42 1372.83,1090.37 
  1374.67,1092.31 1376.51,1094.23 1378.34,1096.15 1380.18,1098.05 1382.01,1099.94 1383.85,1101.82 1385.69,1103.68 1387.52,1105.54 1389.36,1107.39 1391.2,1109.22 
  1393.03,1111.04 1394.87,1112.85 1396.7,1114.65 1398.54,1116.44 1400.38,1118.22 1402.21,1119.98 1404.05,1121.74 1405.88,1123.48 1407.72,1125.22 1409.56,1126.94 
  1411.39,1128.65 1413.23,1130.36 1415.06,1132.05 1416.9,1133.73 1418.74,1135.4 1420.57,1137.06 1422.41,1138.7 1424.24,1140.34 1426.08,1141.97 1427.92,1143.59 
  1429.75,1145.19 1431.59,1146.79 1433.43,1148.38 1435.26,1149.95 1437.1,1151.52 1438.93,1153.08 1440.77,1154.62 1442.61,1156.16 1444.44,1157.69 1446.28,1159.2 
  1448.11,1160.71 1449.95,1162.21 1451.79,1163.69 1453.62,1165.17 1455.46,1166.64 1457.29,1168.1 1459.13,1169.55 1460.97,1170.99 1462.8,1172.42 1464.64,1173.84 
  1466.47,1175.25 1468.31,1176.65 1470.15,1178.04 1471.98,1179.43 1473.82,1180.8 1475.66,1182.17 1477.49,1183.53 1479.33,1184.87 1481.16,1186.21 1483,1187.54 
  1484.84,1188.86 1486.67,1190.17 1488.51,1191.48 1490.34,1192.77 1492.18,1194.06 1494.02,1195.34 1495.85,1196.6 1497.69,1197.86 1499.52,1199.12 1501.36,1200.36 
  1503.2,1201.6 1505.03,1202.82 1506.87,1204.04 1508.7,1205.25 1510.54,1206.45 1512.38,1207.65 1514.21,1208.83 1516.05,1210.01 1517.89,1211.18 1519.72,1212.34 
  1521.56,1213.5 1523.39,1214.64 1525.23,1215.78 1527.07,1216.91 1528.9,1218.04 1530.74,1219.15 1532.57,1220.26 1534.41,1221.36 1536.25,1222.45 1538.08,1223.54 
  1539.92,1224.61 1541.75,1225.68 1543.59,1226.75 1545.43,1227.8 1547.26,1228.85 1549.1,1229.89 1550.93,1230.92 1552.77,1231.95 1554.61,1232.97 1556.44,1233.98 
  1558.28,1234.99 1560.12,1235.99 1561.95,1236.98 1563.79,1237.96 1565.62,1238.94 1567.46,1239.91 1569.3,1240.88 1571.13,1241.83 1572.97,1242.79 1574.8,1243.73 
  1576.64,1244.67 1578.48,1245.6 1580.31,1246.52 1582.15,1247.44 1583.98,1248.35 1585.82,1249.26 1587.66,1250.16 1589.49,1251.05 1591.33,1251.94 1593.17,1252.82 
  1595,1253.69 1596.84,1254.56 1598.67,1255.42 1600.51,1256.28 1602.35,1257.13 1604.18,1257.97 1606.02,1258.81 1607.85,1259.64 1609.69,1260.46 1611.53,1261.28 
  1613.36,1262.1 1615.2,1262.91 1617.03,1263.71 1618.87,1264.51 1620.71,1265.3 1622.54,1266.08 1624.38,1266.86 1626.21,1267.64 1628.05,1268.41 1629.89,1269.17 
  1631.72,1269.93 1633.56,1270.68 1635.4,1271.43 1637.23,1272.17 1639.07,1272.91 1640.9,1273.64 1642.74,1274.36 1644.58,1275.09 1646.41,1275.8 1648.25,1276.51 
  1650.08,1277.22 1651.92,1277.92 1653.76,1278.61 1655.59,1279.3 1657.43,1279.99 1659.26,1280.67 1661.1,1281.35 1662.94,1282.02 1664.77,1282.68 1666.61,1283.35 
  1668.44,1284 1670.28,1284.65 1672.12,1285.3 1673.95,1285.94 1675.79,1286.58 1677.63,1287.21 1679.46,1287.84 1681.3,1288.47 1683.13,1289.09 1684.97,1289.7 
  1686.81,1290.31 1688.64,1290.92 1690.48,1291.52 1692.31,1292.12 1694.15,1292.71 1695.99,1293.3 1697.82,1293.88 1699.66,1294.46 1701.49,1295.04 1703.33,1295.61 
  1705.17,1296.18 1707,1296.74 1708.84,1297.3 1710.67,1297.86 1712.51,1298.41 1714.35,1298.96 1716.18,1299.5 1718.02,1300.04 1719.86,1300.58 1721.69,1301.11 
  1723.53,1301.64 1725.36,1302.16 1727.2,1302.68 1729.04,1303.2 1730.87,1303.71 1732.71,1304.22 1734.54,1304.72 1736.38,1305.22 1738.22,1305.72 1740.05,1306.22 
  1741.89,1306.71 1743.72,1307.19 1745.56,1307.68 1747.4,1308.16 1749.23,1308.63 1751.07,1309.11 1752.9,1309.57 1754.74,1310.04 1756.58,1310.5 1758.41,1310.96 
  1760.25,1311.42 1762.09,1311.87 1763.92,1312.32 1765.76,1312.76 1767.59,1313.21 1769.43,1313.65 1771.27,1314.08 1773.1,1314.51 1774.94,1314.94 1776.77,1315.37 
  1778.61,1315.79 1780.45,1316.21 1782.28,1316.63 1784.12,1317.05 1785.95,1317.46 1787.79,1317.86 1789.63,1318.27 1791.46,1318.67 1793.3,1319.07 1795.14,1319.47 
  1796.97,1319.86 1798.81,1320.25 1800.64,1320.64 1802.48,1321.02 1804.32,1321.4 1806.15,1321.78 1807.99,1322.16 1809.82,1322.53 1811.66,1322.9 1813.5,1323.27 
  1815.33,1323.63 1817.17,1324 1819,1324.36 1820.84,1324.71 1822.68,1325.07 1824.51,1325.42 1826.35,1325.77 1828.18,1326.11 1830.02,1326.46 1831.86,1326.8 
  1833.69,1327.14 1835.53,1327.47 1837.37,1327.81 1839.2,1328.14 1841.04,1328.47 1842.87,1328.8 1844.71,1329.12 1846.55,1329.44 1848.38,1329.76 1850.22,1330.08 
  1852.05,1330.39 1853.89,1330.7 1855.73,1331.01 1857.56,1331.32 1859.4,1331.63 1861.23,1331.93 1863.07,1332.23 1864.91,1332.53 1866.74,1332.83 1868.58,1333.12 
  1870.41,1333.41 1872.25,1333.7 1874.09,1333.99 1875.92,1334.28 1877.76,1334.56 1879.6,1334.84 1881.43,1335.12 1883.27,1335.4 1885.1,1335.67 1886.94,1335.94 
  1888.78,1336.22 1890.61,1336.48 1892.45,1336.75 1894.28,1337.02 1896.12,1337.28 1897.96,1337.54 1899.79,1337.8 1901.63,1338.06 1903.46,1338.31 1905.3,1338.57 
  1907.14,1338.82 1908.97,1339.07 1910.81,1339.31 1912.64,1339.56 1914.48,1339.8 1916.32,1340.05 1918.15,1340.29 1919.99,1340.53 1921.83,1340.76 1923.66,1341 
  1925.5,1341.23 1927.33,1341.46 1929.17,1341.69 1931.01,1341.92 1932.84,1342.15 1934.68,1342.37 1936.51,1342.6 1938.35,1342.82 1940.19,1343.04 1942.02,1343.26 
  1943.86,1343.47 1945.69,1343.69 1947.53,1343.9 1949.37,1344.11 1951.2,1344.32 1953.04,1344.53 1954.87,1344.74 1956.71,1344.94 1958.55,1345.15 1960.38,1345.35 
  1962.22,1345.55 1964.06,1345.75 1965.89,1345.95 1967.73,1346.14 1969.56,1346.34 1971.4,1346.53 1973.24,1346.73 1975.07,1346.92 1976.91,1347.11 1978.74,1347.29 
  1980.58,1347.48 1982.42,1347.66 1984.25,1347.85 1986.09,1348.03 1987.92,1348.21 1989.76,1348.39 1991.6,1348.57 1993.43,1348.75 1995.27,1348.92 1997.11,1349.1 
  1998.94,1349.27 2000.78,1349.44 2002.61,1349.61 2004.45,1349.78 2006.29,1349.95 2008.12,1350.12 2009.96,1350.28 2011.79,1350.44 2013.63,1350.61 2015.47,1350.77 
  2017.3,1350.93 2019.14,1351.09 2020.97,1351.25 2022.81,1351.4 2024.65,1351.56 2026.48,1351.72 2028.32,1351.87 2030.15,1352.02 2031.99,1352.17 2033.83,1352.32 
  2035.66,1352.47 2037.5,1352.62 2039.34,1352.77 2041.17,1352.91 2043.01,1353.06 2044.84,1353.2 2046.68,1353.34 2048.52,1353.48 2050.35,1353.62 2052.19,1353.76 
  2054.02,1353.9 2055.86,1354.04 2057.7,1354.17 2059.53,1354.31 2061.37,1354.44 2063.2,1354.58 2065.04,1354.71 2066.88,1354.84 2068.71,1354.97 2070.55,1355.1 
  2072.38,1355.23 2074.22,1355.35 2076.06,1355.48 2077.89,1355.61 2079.73,1355.73 2081.57,1355.85 2083.4,1355.98 2085.24,1356.1 2087.07,1356.22 2088.91,1356.34 
  2090.75,1356.46 2092.58,1356.58 2094.42,1356.69 2096.25,1356.81 2098.09,1356.93 2099.93,1357.04 2101.76,1357.15 2103.6,1357.27 2105.43,1357.38 2107.27,1357.49 
  2109.11,1357.6 2110.94,1357.71 2112.78,1357.82 2114.61,1357.93 2116.45,1358.03 2118.29,1358.14 2120.12,1358.25 2121.96,1358.35 2123.8,1358.46 2125.63,1358.56 
  2127.47,1358.66 2129.3,1358.76 2131.14,1358.86 2132.98,1358.96 2134.81,1359.06 2136.65,1359.16 2138.48,1359.26 2140.32,1359.36 2142.16,1359.45 2143.99,1359.55 
  2145.83,1359.65 2147.66,1359.74 2149.5,1359.83 2151.34,1359.93 2153.17,1360.02 2155.01,1360.11 2156.85,1360.2 2158.68,1360.29 2160.52,1360.38 2162.35,1360.47 
  2164.19,1360.56 2166.03,1360.65 2167.86,1360.73 2169.7,1360.82 2171.53,1360.9 2173.37,1360.99 2175.21,1361.07 2177.04,1361.16 2178.88,1361.24 2180.71,1361.32 
  2182.55,1361.41 2184.39,1361.49 2186.22,1361.57 2188.06,1361.65 2189.89,1361.73 2191.73,1361.81 2193.57,1361.88 2195.4,1361.96 2197.24,1362.04 2199.08,1362.12 
  2200.91,1362.19 2202.75,1362.27 2204.58,1362.34 2206.42,1362.42 2208.26,1362.49 2210.09,1362.56 2211.93,1362.64 2213.76,1362.71 2215.6,1362.78 2217.44,1362.85 
  2219.27,1362.92 2221.11,1362.99 2222.94,1363.06 2224.78,1363.13 2226.62,1363.2 2228.45,1363.27 2230.29,1363.34 2232.12,1363.4 2233.96,1363.47 2235.8,1363.54 
  2237.63,1363.6 2239.47,1363.67 2241.31,1363.73 2243.14,1363.79 2244.98,1363.86 2246.81,1363.92 2248.65,1363.98 2250.49,1364.05 2252.32,1364.11 2254.16,1364.17 
  2255.99,1364.23 2257.83,1364.29 2259.67,1364.35 2261.5,1364.41 2263.34,1364.47 2265.17,1364.53 2267.01,1364.59 2268.85,1364.64 2270.68,1364.7 2272.52,1364.76 
  2274.35,1364.81 2276.19,1364.87 2278.03,1364.93 2279.86,1364.98 2281.7,1365.04 2283.54,1365.09 2285.37,1365.15 2287.21,1365.2 2289.04,1365.25 2290.88,1365.31 
  2292.72,1365.36 
  "/>
<path clip-path="url(#clip150)" d="
M1907.37 196.39 L2282.04 196.39 L2282.04 92.7101 L1907.37 92.7101  Z
  " fill="#ffffff" fill-rule="evenodd" fill-opacity="1"/>
<polyline clip-path="url(#clip150)" style="stroke:#000000; stroke-linecap:butt; stroke-linejoin:round; stroke-width:4; stroke-opacity:1; fill:none" points="
  1907.37,196.39 2282.04,196.39 2282.04,92.7101 1907.37,92.7101 1907.37,196.39 
  "/>
<polyline clip-path="url(#clip150)" style="stroke:#000000; stroke-linecap:butt; stroke-linejoin:round; stroke-width:4; stroke-opacity:1; fill:none" points="
  1930.94,144.55 2072.37,144.55 
  "/>
<path clip-path="url(#clip150)" d="M2116.45 136.9 L2116.45 140.881 Q2114.65 139.886 2112.82 139.4 Q2111.01 138.89 2109.16 138.89 Q2105.02 138.89 2102.72 141.529 Q2100.43 144.145 2100.43 148.89 Q2100.43 153.636 2102.72 156.275 Q2105.02 158.89 2109.16 158.89 Q2111.01 158.89 2112.82 158.404 Q2114.65 157.895 2116.45 156.9 L2116.45 160.835 Q2114.67 161.668 2112.75 162.085 Q2110.85 162.501 2108.7 162.501 Q2102.84 162.501 2099.39 158.821 Q2095.94 155.14 2095.94 148.89 Q2095.94 142.548 2099.41 138.914 Q2102.91 135.279 2108.97 135.279 Q2110.94 135.279 2112.82 135.696 Q2114.69 136.089 2116.45 136.9 Z" fill="#000000" fill-rule="evenodd" fill-opacity="1" /><path clip-path="url(#clip150)" d="M2135.64 148.798 Q2130.48 148.798 2128.49 149.978 Q2126.5 151.159 2126.5 154.006 Q2126.5 156.275 2127.98 157.617 Q2129.48 158.937 2132.05 158.937 Q2135.59 158.937 2137.72 156.437 Q2139.88 153.913 2139.88 149.747 L2139.88 148.798 L2135.64 148.798 M2144.14 147.038 L2144.14 161.83 L2139.88 161.83 L2139.88 157.895 Q2138.42 160.256 2136.24 161.39 Q2134.07 162.501 2130.92 162.501 Q2126.94 162.501 2124.58 160.279 Q2122.24 158.034 2122.24 154.284 Q2122.24 149.909 2125.15 147.687 Q2128.09 145.464 2133.9 145.464 L2139.88 145.464 L2139.88 145.048 Q2139.88 142.108 2137.93 140.511 Q2136.01 138.89 2132.52 138.89 Q2130.29 138.89 2128.19 139.423 Q2126.08 139.955 2124.14 141.02 L2124.14 137.085 Q2126.47 136.182 2128.67 135.742 Q2130.87 135.279 2132.96 135.279 Q2138.58 135.279 2141.36 138.196 Q2144.14 141.113 2144.14 147.038 Z" fill="#000000" fill-rule="evenodd" fill-opacity="1" /><path clip-path="url(#clip150)" d="M2149.85 135.904 L2154.37 135.904 L2162.47 157.663 L2170.57 135.904 L2175.08 135.904 L2165.36 161.83 L2159.58 161.83 L2149.85 135.904 Z" fill="#000000" fill-rule="evenodd" fill-opacity="1" /><path clip-path="url(#clip150)" d="M2180.96 135.904 L2185.22 135.904 L2185.22 161.83 L2180.96 161.83 L2180.96 135.904 M2180.96 125.812 L2185.22 125.812 L2185.22 131.205 L2180.96 131.205 L2180.96 125.812 Z" fill="#000000" fill-rule="evenodd" fill-opacity="1" /><path clip-path="url(#clip150)" d="M2198.35 128.543 L2198.35 135.904 L2207.12 135.904 L2207.12 139.214 L2198.35 139.214 L2198.35 153.288 Q2198.35 156.46 2199.21 157.363 Q2200.08 158.265 2202.75 158.265 L2207.12 158.265 L2207.12 161.83 L2202.75 161.83 Q2197.82 161.83 2195.94 160.001 Q2194.07 158.15 2194.07 153.288 L2194.07 139.214 L2190.94 139.214 L2190.94 135.904 L2194.07 135.904 L2194.07 128.543 L2198.35 128.543 Z" fill="#000000" fill-rule="evenodd" fill-opacity="1" /><path clip-path="url(#clip150)" d="M2223.51 164.237 Q2221.7 168.867 2219.99 170.279 Q2218.28 171.691 2215.41 171.691 L2212.01 171.691 L2212.01 168.126 L2214.51 168.126 Q2216.27 168.126 2217.24 167.293 Q2218.21 166.46 2219.39 163.358 L2220.15 161.413 L2209.67 135.904 L2214.18 135.904 L2222.28 156.182 L2230.39 135.904 L2234.9 135.904 L2223.51 164.237 Z" fill="#000000" fill-rule="evenodd" fill-opacity="1" /></svg>
