<?xml version="1.0" encoding="UTF-8" standalone="no"?>
<svg
   width="600"
   height="400"
   viewBox="0 0 2400 1600"
   version="1.1"
   id="svg203"
   sodipodi:docname="SM-taylor-complete.svg"
   inkscape:version="1.2 (1:1.2+202206011327+fc4e4096c5)"
   xmlns:inkscape="http://www.inkscape.org/namespaces/inkscape"
   xmlns:sodipodi="http://sodipodi.sourceforge.net/DTD/sodipodi-0.dtd"
   xmlns="http://www.w3.org/2000/svg"
   xmlns:svg="http://www.w3.org/2000/svg"
   xmlns:ns7="http://www.iki.fi/pav/software/textext/">
  <sodipodi:namedview
     id="namedview205"
     pagecolor="#ffffff"
     bordercolor="#666666"
     borderopacity="1.0"
     inkscape:showpageshadow="2"
     inkscape:pageopacity="0.0"
     inkscape:pagecheckerboard="0"
     inkscape:deskcolor="#d1d1d1"
     showgrid="false"
     inkscape:zoom="1.039447"
     inkscape:cx="-156.33313"
     inkscape:cy="232.33509"
     inkscape:window-width="1366"
     inkscape:window-height="704"
     inkscape:window-x="0"
     inkscape:window-y="339"
     inkscape:window-maximized="1"
     inkscape:current-layer="svg203" />
  <defs
     id="defs5">
    <clipPath
       id="clip370">
      <rect
         x="0"
         y="0"
         width="2400"
         height="1600"
         id="rect2" />
    </clipPath>
  </defs>
  <defs
     id="defs12">
    <clipPath
       id="clip371">
      <rect
         x="480"
         y="0"
         width="1681"
         height="1600"
         id="rect9" />
    </clipPath>
  </defs>
  <defs
     id="defs17">
    <clipPath
       id="clip372">
      <rect
         x="267"
         y="47"
         width="2087"
         height="1364"
         id="rect14" />
    </clipPath>
  </defs>
  <polyline
     clip-path="url(#clip370)"
     style="stroke:#000000; stroke-linecap:butt; stroke-linejoin:round; stroke-width:4; stroke-opacity:1; fill:none"
     points="   267.168,1409.91 2352.76,1409.91    "
     id="polyline21" />
  <polyline
     clip-path="url(#clip370)"
     style="stroke:#000000; stroke-linecap:butt; stroke-linejoin:round; stroke-width:4; stroke-opacity:1; fill:none"
     points="   689.395,1409.91 689.395,1391.01    "
     id="polyline23" />
  <polyline
     clip-path="url(#clip370)"
     style="stroke:#000000; stroke-linecap:butt; stroke-linejoin:round; stroke-width:4; stroke-opacity:1; fill:none"
     points="   1300.93,1409.91 1300.93,1391.01    "
     id="polyline25" />
  <polyline
     clip-path="url(#clip370)"
     style="stroke:#000000; stroke-linecap:butt; stroke-linejoin:round; stroke-width:4; stroke-opacity:1; fill:none"
     points="   1912.47,1409.91 1912.47,1391.01    "
     id="polyline27" />
  <path
     clip-path="url(#clip370)"
     d="M639.51 1484.03 L647.149 1484.03 L647.149 1457.67 L638.839 1459.34 L638.839 1455.08 L647.103 1453.41 L651.779 1453.41 L651.779 1484.03 L659.418 1484.03 L659.418 1487.97 L639.51 1487.97 L639.51 1484.03 Z"
     fill="#000000"
     fill-rule="evenodd"
     fill-opacity="1"
     id="path29" />
  <path
     clip-path="url(#clip370)"
     d="M678.862 1456.49 Q675.251 1456.49 673.422 1460.05 Q671.617 1463.59 671.617 1470.72 Q671.617 1477.83 673.422 1481.4 Q675.251 1484.94 678.862 1484.94 Q682.496 1484.94 684.302 1481.4 Q686.131 1477.83 686.131 1470.72 Q686.131 1463.59 684.302 1460.05 Q682.496 1456.49 678.862 1456.49 M678.862 1452.78 Q684.672 1452.78 687.728 1457.39 Q690.806 1461.97 690.806 1470.72 Q690.806 1479.45 687.728 1484.06 Q684.672 1488.64 678.862 1488.64 Q673.052 1488.64 669.973 1484.06 Q666.918 1479.45 666.918 1470.72 Q666.918 1461.97 669.973 1457.39 Q673.052 1452.78 678.862 1452.78 Z"
     fill="#000000"
     fill-rule="evenodd"
     fill-opacity="1"
     id="path31" />
  <path
     clip-path="url(#clip370)"
     d="M690.806 1446.89 L714.918 1446.89 L714.918 1450.08 L690.806 1450.08 L690.806 1446.89 Z"
     fill="#000000"
     fill-rule="evenodd"
     fill-opacity="1"
     id="path33" />
  <path
     clip-path="url(#clip370)"
     d="M723.776 1457.36 L729.983 1457.36 L729.983 1435.94 L723.231 1437.29 L723.231 1433.83 L729.945 1432.48 L733.745 1432.48 L733.745 1457.36 L739.951 1457.36 L739.951 1460.56 L723.776 1460.56 L723.776 1457.36 Z"
     fill="#000000"
     fill-rule="evenodd"
     fill-opacity="1"
     id="path35" />
  <path
     clip-path="url(#clip370)"
     d="M1265.92 1484.03 L1273.56 1484.03 L1273.56 1457.67 L1265.25 1459.34 L1265.25 1455.08 L1273.51 1453.41 L1278.18 1453.41 L1278.18 1484.03 L1285.82 1484.03 L1285.82 1487.97 L1265.92 1487.97 L1265.92 1484.03 Z"
     fill="#000000"
     fill-rule="evenodd"
     fill-opacity="1"
     id="path37" />
  <path
     clip-path="url(#clip370)"
     d="M1305.27 1456.49 Q1301.66 1456.49 1299.83 1460.05 Q1298.02 1463.59 1298.02 1470.72 Q1298.02 1477.83 1299.83 1481.4 Q1301.66 1484.94 1305.27 1484.94 Q1308.9 1484.94 1310.71 1481.4 Q1312.54 1477.83 1312.54 1470.72 Q1312.54 1463.59 1310.71 1460.05 Q1308.9 1456.49 1305.27 1456.49 M1305.27 1452.78 Q1311.08 1452.78 1314.13 1457.39 Q1317.21 1461.97 1317.21 1470.72 Q1317.21 1479.45 1314.13 1484.06 Q1311.08 1488.64 1305.27 1488.64 Q1299.46 1488.64 1296.38 1484.06 Q1293.32 1479.45 1293.32 1470.72 Q1293.32 1461.97 1296.38 1457.39 Q1299.46 1452.78 1305.27 1452.78 Z"
     fill="#000000"
     fill-rule="evenodd"
     fill-opacity="1"
     id="path39" />
  <path
     clip-path="url(#clip370)"
     d="M1326.92 1434.98 Q1323.98 1434.98 1322.5 1437.88 Q1321.03 1440.75 1321.03 1446.55 Q1321.03 1452.32 1322.5 1455.22 Q1323.98 1458.09 1326.92 1458.09 Q1329.87 1458.09 1331.34 1455.22 Q1332.82 1452.32 1332.82 1446.55 Q1332.82 1440.75 1331.34 1437.88 Q1329.87 1434.98 1326.92 1434.98 M1326.92 1431.97 Q1331.64 1431.97 1334.12 1435.71 Q1336.62 1439.44 1336.62 1446.55 Q1336.62 1453.64 1334.12 1457.38 Q1331.64 1461.1 1326.92 1461.1 Q1322.2 1461.1 1319.7 1457.38 Q1317.21 1453.64 1317.21 1446.55 Q1317.21 1439.44 1319.7 1435.71 Q1322.2 1431.97 1326.92 1431.97 Z"
     fill="#000000"
     fill-rule="evenodd"
     fill-opacity="1"
     id="path41" />
  <path
     clip-path="url(#clip370)"
     d="M1878.8 1484.03 L1886.44 1484.03 L1886.44 1457.67 L1878.13 1459.34 L1878.13 1455.08 L1886.39 1453.41 L1891.07 1453.41 L1891.07 1484.03 L1898.71 1484.03 L1898.71 1487.97 L1878.8 1487.97 L1878.8 1484.03 Z"
     fill="#000000"
     fill-rule="evenodd"
     fill-opacity="1"
     id="path43" />
  <path
     clip-path="url(#clip370)"
     d="M1918.15 1456.49 Q1914.54 1456.49 1912.71 1460.05 Q1910.91 1463.59 1910.91 1470.72 Q1910.91 1477.83 1912.71 1481.4 Q1914.54 1484.94 1918.15 1484.94 Q1921.79 1484.94 1923.59 1481.4 Q1925.42 1477.83 1925.42 1470.72 Q1925.42 1463.59 1923.59 1460.05 Q1921.79 1456.49 1918.15 1456.49 M1918.15 1452.78 Q1923.96 1452.78 1927.02 1457.39 Q1930.1 1461.97 1930.1 1470.72 Q1930.1 1479.45 1927.02 1484.06 Q1923.96 1488.64 1918.15 1488.64 Q1912.34 1488.64 1909.26 1484.06 Q1906.21 1479.45 1906.21 1470.72 Q1906.21 1461.97 1909.26 1457.39 Q1912.34 1452.78 1918.15 1452.78 Z"
     fill="#000000"
     fill-rule="evenodd"
     fill-opacity="1"
     id="path45" />
  <path
     clip-path="url(#clip370)"
     d="M1930.64 1457.36 L1936.85 1457.36 L1936.85 1435.94 L1930.1 1437.29 L1930.1 1433.83 L1936.81 1432.48 L1940.61 1432.48 L1940.61 1457.36 L1946.82 1457.36 L1946.82 1460.56 L1930.64 1460.56 L1930.64 1457.36 Z"
     fill="#000000"
     fill-rule="evenodd"
     fill-opacity="1"
     id="path47" />
  <polyline
     clip-path="url(#clip370)"
     style="stroke:#000000; stroke-linecap:butt; stroke-linejoin:round; stroke-width:4; stroke-opacity:1; fill:none"
     points="   267.168,1409.91 267.168,47.2441    "
     id="polyline57" />
  <polyline
     clip-path="url(#clip370)"
     style="stroke:#000000; stroke-linecap:butt; stroke-linejoin:round; stroke-width:4; stroke-opacity:1; fill:none"
     points="   267.168,1373.52 286.066,1373.52    "
     id="polyline59" />
  <polyline
     clip-path="url(#clip370)"
     style="stroke:#000000; stroke-linecap:butt; stroke-linejoin:round; stroke-width:4; stroke-opacity:1; fill:none"
     points="   267.168,1018.14 286.066,1018.14    "
     id="polyline61" />
  <polyline
     clip-path="url(#clip370)"
     style="stroke:#000000; stroke-linecap:butt; stroke-linejoin:round; stroke-width:4; stroke-opacity:1; fill:none"
     points="   267.168,662.752 286.066,662.752    "
     id="polyline63" />
  <polyline
     clip-path="url(#clip370)"
     style="stroke:#000000; stroke-linecap:butt; stroke-linejoin:round; stroke-width:4; stroke-opacity:1; fill:none"
     points="   267.168,307.37 286.066,307.37    "
     id="polyline65" />
  <path
     clip-path="url(#clip370)"
     d="M129.336 1393.31 L136.974 1393.31 L136.974 1366.94 L128.664 1368.61 L128.664 1364.35 L136.928 1362.69 L141.604 1362.69 L141.604 1393.31 L149.243 1393.31 L149.243 1397.25 L129.336 1397.25 L129.336 1393.31 Z"
     fill="#000000"
     fill-rule="evenodd"
     fill-opacity="1"
     id="path67" />
  <path
     clip-path="url(#clip370)"
     d="M168.687 1365.76 Q165.076 1365.76 163.247 1369.33 Q161.442 1372.87 161.442 1380 Q161.442 1387.11 163.247 1390.67 Q165.076 1394.21 168.687 1394.21 Q172.322 1394.21 174.127 1390.67 Q175.956 1387.11 175.956 1380 Q175.956 1372.87 174.127 1369.33 Q172.322 1365.76 168.687 1365.76 M168.687 1362.06 Q174.497 1362.06 177.553 1366.67 Q180.632 1371.25 180.632 1380 Q180.632 1388.73 177.553 1393.33 Q174.497 1397.92 168.687 1397.92 Q162.877 1397.92 159.798 1393.33 Q156.743 1388.73 156.743 1380 Q156.743 1371.25 159.798 1366.67 Q162.877 1362.06 168.687 1362.06 Z"
     fill="#000000"
     fill-rule="evenodd"
     fill-opacity="1"
     id="path69" />
  <path
     clip-path="url(#clip370)"
     d="M180.632 1356.16 L204.743 1356.16 L204.743 1359.36 L180.632 1359.36 L180.632 1356.16 Z"
     fill="#000000"
     fill-rule="evenodd"
     fill-opacity="1"
     id="path71" />
  <path
     clip-path="url(#clip370)"
     d="M223.382 1345.07 L213.79 1360.05 L223.382 1360.05 L223.382 1345.07 M222.385 1341.75 L227.162 1341.75 L227.162 1360.05 L231.168 1360.05 L231.168 1363.21 L227.162 1363.21 L227.162 1369.83 L223.382 1369.83 L223.382 1363.21 L210.705 1363.21 L210.705 1359.55 L222.385 1341.75 Z"
     fill="#000000"
     fill-rule="evenodd"
     fill-opacity="1"
     id="path73" />
  <path
     clip-path="url(#clip370)"
     d="M131.028 1037.93 L138.667 1037.93 L138.667 1011.56 L130.357 1013.23 L130.357 1008.97 L138.621 1007.3 L143.297 1007.3 L143.297 1037.93 L150.936 1037.93 L150.936 1041.86 L131.028 1041.86 L131.028 1037.93 Z"
     fill="#000000"
     fill-rule="evenodd"
     fill-opacity="1"
     id="path75" />
  <path
     clip-path="url(#clip370)"
     d="M170.38 1010.38 Q166.769 1010.38 164.94 1013.95 Q163.135 1017.49 163.135 1024.62 Q163.135 1031.72 164.94 1035.29 Q166.769 1038.83 170.38 1038.83 Q174.014 1038.83 175.82 1035.29 Q177.648 1031.72 177.648 1024.62 Q177.648 1017.49 175.82 1013.95 Q174.014 1010.38 170.38 1010.38 M170.38 1006.68 Q176.19 1006.68 179.246 1011.28 Q182.324 1015.87 182.324 1024.62 Q182.324 1033.34 179.246 1037.95 Q176.19 1042.53 170.38 1042.53 Q164.57 1042.53 161.491 1037.95 Q158.436 1033.34 158.436 1024.62 Q158.436 1015.87 161.491 1011.28 Q164.57 1006.68 170.38 1006.68 Z"
     fill="#000000"
     fill-rule="evenodd"
     fill-opacity="1"
     id="path77" />
  <path
     clip-path="url(#clip370)"
     d="M182.324 1000.78 L206.436 1000.78 L206.436 1003.98 L182.324 1003.98 L182.324 1000.78 Z"
     fill="#000000"
     fill-rule="evenodd"
     fill-opacity="1"
     id="path79" />
  <path
     clip-path="url(#clip370)"
     d="M217.909 1011.25 L231.168 1011.25 L231.168 1014.45 L213.338 1014.45 L213.338 1011.25 Q215.501 1009.02 219.225 1005.26 Q222.968 1001.47 223.927 1000.38 Q225.752 998.334 226.466 996.923 Q227.2 995.494 227.2 994.121 Q227.2 991.883 225.62 990.472 Q224.059 989.062 221.539 989.062 Q219.752 989.062 217.758 989.682 Q215.783 990.303 213.526 991.563 L213.526 987.726 Q215.821 986.805 217.815 986.335 Q219.808 985.864 221.463 985.864 Q225.827 985.864 228.422 988.046 Q231.018 990.228 231.018 993.877 Q231.018 995.607 230.359 997.168 Q229.72 998.71 228.008 1000.82 Q227.538 1001.36 225.018 1003.98 Q222.498 1006.57 217.909 1011.25 Z"
     fill="#000000"
     fill-rule="evenodd"
     fill-opacity="1"
     id="path81" />
  <path
     clip-path="url(#clip370)"
     d="M160.462 682.545 L168.101 682.545 L168.101 656.179 L159.791 657.846 L159.791 653.587 L168.055 651.92 L172.731 651.92 L172.731 682.545 L180.37 682.545 L180.37 686.48 L160.462 686.48 L160.462 682.545 Z"
     fill="#000000"
     fill-rule="evenodd"
     fill-opacity="1"
     id="path83" />
  <path
     clip-path="url(#clip370)"
     d="M199.814 654.999 Q196.203 654.999 194.374 658.564 Q192.569 662.105 192.569 669.235 Q192.569 676.341 194.374 679.906 Q196.203 683.448 199.814 683.448 Q203.448 683.448 205.254 679.906 Q207.083 676.341 207.083 669.235 Q207.083 662.105 205.254 658.564 Q203.448 654.999 199.814 654.999 M199.814 651.295 Q205.624 651.295 208.68 655.902 Q211.759 660.485 211.759 669.235 Q211.759 677.962 208.68 682.568 Q205.624 687.151 199.814 687.151 Q194.004 687.151 190.925 682.568 Q187.87 677.962 187.87 669.235 Q187.87 660.485 190.925 655.902 Q194.004 651.295 199.814 651.295 Z"
     fill="#000000"
     fill-rule="evenodd"
     fill-opacity="1"
     id="path85" />
  <path
     clip-path="url(#clip370)"
     d="M221.463 633.491 Q218.529 633.491 217.044 636.388 Q215.576 639.265 215.576 645.058 Q215.576 650.832 217.044 653.728 Q218.529 656.606 221.463 656.606 Q224.416 656.606 225.883 653.728 Q227.369 650.832 227.369 645.058 Q227.369 639.265 225.883 636.388 Q224.416 633.491 221.463 633.491 M221.463 630.482 Q226.184 630.482 228.667 634.225 Q231.168 637.949 231.168 645.058 Q231.168 652.148 228.667 655.891 Q226.184 659.615 221.463 659.615 Q216.743 659.615 214.241 655.891 Q211.759 652.148 211.759 645.058 Q211.759 637.949 214.241 634.225 Q216.743 630.482 221.463 630.482 Z"
     fill="#000000"
     fill-rule="evenodd"
     fill-opacity="1"
     id="path87" />
  <path
     clip-path="url(#clip370)"
     d="M162.042 327.162 L169.681 327.162 L169.681 300.797 L161.371 302.463 L161.371 298.204 L169.635 296.537 L174.311 296.537 L174.311 327.162 L181.95 327.162 L181.95 331.097 L162.042 331.097 L162.042 327.162 Z"
     fill="#000000"
     fill-rule="evenodd"
     fill-opacity="1"
     id="path89" />
  <path
     clip-path="url(#clip370)"
     d="M201.394 299.616 Q197.783 299.616 195.954 303.181 Q194.149 306.723 194.149 313.852 Q194.149 320.959 195.954 324.523 Q197.783 328.065 201.394 328.065 Q205.028 328.065 206.834 324.523 Q208.662 320.959 208.662 313.852 Q208.662 306.723 206.834 303.181 Q205.028 299.616 201.394 299.616 M201.394 295.912 Q207.204 295.912 210.26 300.519 Q213.338 305.102 213.338 313.852 Q213.338 322.579 210.26 327.185 Q207.204 331.769 201.394 331.769 Q195.584 331.769 192.505 327.185 Q189.45 322.579 189.45 313.852 Q189.45 305.102 192.505 300.519 Q195.584 295.912 201.394 295.912 Z"
     fill="#000000"
     fill-rule="evenodd"
     fill-opacity="1"
     id="path91" />
  <path
     clip-path="url(#clip370)"
     d="M217.909 300.49 L231.168 300.49 L231.168 303.687 L213.338 303.687 L213.338 300.49 Q215.501 298.252 219.225 294.49 Q222.968 290.71 223.927 289.619 Q225.752 287.569 226.466 286.158 Q227.2 284.729 227.2 283.356 Q227.2 281.118 225.62 279.707 Q224.059 278.297 221.539 278.297 Q219.752 278.297 217.758 278.917 Q215.783 279.538 213.526 280.798 L213.526 276.961 Q215.821 276.04 217.815 275.569 Q219.808 275.099 221.463 275.099 Q225.827 275.099 228.422 277.281 Q231.018 279.463 231.018 283.111 Q231.018 284.842 230.359 286.403 Q229.72 287.945 228.008 290.051 Q227.538 290.597 225.018 293.211 Q222.498 295.807 217.909 300.49 Z"
     fill="#000000"
     fill-rule="evenodd"
     fill-opacity="1"
     id="path93" />
  <circle
     clip-path="url(#clip372)"
     cx="2283.15"
     cy="233.545"
     r="14"
     fill="#009af9"
     fill-rule="evenodd"
     fill-opacity="0.5"
     stroke="#000000"
     stroke-opacity="0.5"
     stroke-width="3.2"
     id="circle121"
     style="fill:#000000;fill-opacity:1" />
  <circle
     clip-path="url(#clip372)"
     cx="2065.73"
     cy="359.825"
     r="14"
     fill="#009af9"
     fill-rule="evenodd"
     fill-opacity="0.5"
     stroke="#000000"
     stroke-opacity="0.5"
     stroke-width="3.2"
     id="circle123"
     style="fill:#000000;fill-opacity:1" />
  <circle
     clip-path="url(#clip372)"
     cx="1848.3"
     cy="486.155"
     r="14"
     fill="#009af9"
     fill-rule="evenodd"
     fill-opacity="0.5"
     stroke="#000000"
     stroke-opacity="0.5"
     stroke-width="3.2"
     id="circle125"
     style="fill:#000000;fill-opacity:1" />
  <circle
     clip-path="url(#clip372)"
     cx="1630.86"
     cy="612.508"
     r="14"
     fill="#009af9"
     fill-rule="evenodd"
     fill-opacity="0.5"
     stroke="#000000"
     stroke-opacity="0.5"
     stroke-width="3.2"
     id="circle127"
     style="fill:#000000;fill-opacity:1" />
  <circle
     clip-path="url(#clip372)"
     cx="1413.42"
     cy="738.862"
     r="14"
     fill="#009af9"
     fill-rule="evenodd"
     fill-opacity="0.5"
     stroke="#000000"
     stroke-opacity="0.5"
     stroke-width="3.2"
     id="circle129"
     style="fill:#000000;fill-opacity:1" />
  <circle
     clip-path="url(#clip372)"
     cx="1195.99"
     cy="865.219"
     r="14"
     fill="#009af9"
     fill-rule="evenodd"
     fill-opacity="0.5"
     stroke="#000000"
     stroke-opacity="0.5"
     stroke-width="3.2"
     id="circle131"
     style="fill:#000000;fill-opacity:1" />
  <circle
     clip-path="url(#clip372)"
     cx="978.5"
     cy="991.616"
     r="14"
     fill="#009af9"
     fill-rule="evenodd"
     fill-opacity="0.5"
     stroke="#000000"
     stroke-opacity="0.5"
     stroke-width="3.2"
     id="circle133"
     style="fill:#000000;fill-opacity:1" />
  <circle
     clip-path="url(#clip372)"
     cx="761.018"
     cy="1118.06"
     r="14"
     fill="#009af9"
     fill-rule="evenodd"
     fill-opacity="0.5"
     stroke="#000000"
     stroke-opacity="0.5"
     stroke-width="3.2"
     id="circle135"
     style="fill:#000000;fill-opacity:1" />
  <circle
     clip-path="url(#clip372)"
     cx="543.607"
     cy="1244.77"
     r="14"
     fill="#009af9"
     fill-rule="evenodd"
     fill-opacity="0.5"
     stroke="#000000"
     stroke-opacity="0.5"
     stroke-width="3.2"
     id="circle137"
     style="fill:#000000;fill-opacity:1" />
  <circle
     clip-path="url(#clip372)"
     cx="326.194"
     cy="1371.34"
     r="14"
     fill="#009af9"
     fill-rule="evenodd"
     fill-opacity="0.5"
     stroke="#000000"
     stroke-opacity="0.5"
     stroke-width="3.2"
     id="circle139"
     style="fill:#000000;fill-opacity:1" />
  <circle
     clip-path="url(#clip372)"
     cx="2293.73"
     cy="107.602"
     r="14"
     fill="#e26f46"
     fill-rule="evenodd"
     fill-opacity="0.5"
     stroke="#000000"
     stroke-opacity="0.5"
     stroke-width="3.2"
     id="circle141"
     style="fill:#000000" />
  <circle
     clip-path="url(#clip372)"
     cx="2076.39"
     cy="233.068"
     r="14"
     fill="#e26f46"
     fill-rule="evenodd"
     fill-opacity="0.5"
     stroke="#000000"
     stroke-opacity="0.5"
     stroke-width="3.2"
     id="circle143"
     style="fill:#000000" />
  <circle
     clip-path="url(#clip372)"
     cx="1858.99"
     cy="359.097"
     r="14"
     fill="#e26f46"
     fill-rule="evenodd"
     fill-opacity="0.5"
     stroke="#000000"
     stroke-opacity="0.5"
     stroke-width="3.2"
     id="circle145"
     style="fill:#000000" />
  <circle
     clip-path="url(#clip372)"
     cx="1641.57"
     cy="485.344"
     r="14"
     fill="#e26f46"
     fill-rule="evenodd"
     fill-opacity="0.5"
     stroke="#000000"
     stroke-opacity="0.5"
     stroke-width="3.2"
     id="circle147"
     style="fill:#000000" />
  <circle
     clip-path="url(#clip372)"
     cx="1424.14"
     cy="611.658"
     r="14"
     fill="#e26f46"
     fill-rule="evenodd"
     fill-opacity="0.5"
     stroke="#000000"
     stroke-opacity="0.5"
     stroke-width="3.2"
     id="circle149"
     style="fill:#000000" />
  <circle
     clip-path="url(#clip372)"
     cx="1206.7"
     cy="738.001"
     r="14"
     fill="#e26f46"
     fill-rule="evenodd"
     fill-opacity="0.5"
     stroke="#000000"
     stroke-opacity="0.5"
     stroke-width="3.2"
     id="circle151"
     style="fill:#000000" />
  <circle
     clip-path="url(#clip372)"
     cx="989.269"
     cy="864.399"
     r="14"
     fill="#e26f46"
     fill-rule="evenodd"
     fill-opacity="0.5"
     stroke="#000000"
     stroke-opacity="0.5"
     stroke-width="3.2"
     id="circle153"
     style="fill:#000000" />
  <circle
     clip-path="url(#clip372)"
     cx="771.874"
     cy="990.803"
     r="14"
     fill="#e26f46"
     fill-rule="evenodd"
     fill-opacity="0.5"
     stroke="#000000"
     stroke-opacity="0.5"
     stroke-width="3.2"
     id="circle155"
     style="fill:#000000" />
  <circle
     clip-path="url(#clip372)"
     cx="554.452"
     cy="1117.15"
     r="14"
     fill="#e26f46"
     fill-rule="evenodd"
     fill-opacity="0.5"
     stroke="#000000"
     stroke-opacity="0.5"
     stroke-width="3.2"
     id="circle157"
     style="fill:#000000" />
  <circle
     clip-path="url(#clip372)"
     cx="336.953"
     cy="1243.62"
     r="14"
     fill="#e26f46"
     fill-rule="evenodd"
     fill-opacity="0.5"
     stroke="#000000"
     stroke-opacity="0.5"
     stroke-width="3.2"
     id="circle159"
     style="fill:#000000" />
  <polyline
     clip-path="url(#clip372)"
     style="stroke:#808080; stroke-linecap:butt; stroke-linejoin:round; stroke-width:8; stroke-opacity:1; fill:none"
     stroke-dasharray="32, 20"
     points="   2293.73,85.8101 2076.39,212.113 1858.99,338.451 1641.57,464.8 1424.14,591.155 1206.7,717.512 989.269,843.87 771.874,970.204 554.452,1096.55 336.953,1222.95       "
     id="polyline161" />
  <circle
     clip-path="url(#clip372)"
     cx="2285.83"
     cy="192.365"
     r="14"
     fill="#c271d2"
     fill-rule="evenodd"
     fill-opacity="0.5"
     stroke="#000000"
     stroke-opacity="0.5"
     stroke-width="3.2"
     id="circle163"
     style="fill:#808080;opacity:1" />
  <circle
     clip-path="url(#clip372)"
     cx="2068.41"
     cy="318.543"
     r="14"
     fill="#c271d2"
     fill-rule="evenodd"
     fill-opacity="0.5"
     stroke="#000000"
     stroke-opacity="0.5"
     stroke-width="3.2"
     id="circle165"
     style="fill:#808080;opacity:1" />
  <circle
     clip-path="url(#clip372)"
     cx="1850.98"
     cy="444.836"
     r="14"
     fill="#c271d2"
     fill-rule="evenodd"
     fill-opacity="0.5"
     stroke="#000000"
     stroke-opacity="0.5"
     stroke-width="3.2"
     id="circle167"
     style="fill:#808080;opacity:1" />
  <circle
     clip-path="url(#clip372)"
     cx="1633.57"
     cy="571.183"
     r="14"
     fill="#c271d2"
     fill-rule="evenodd"
     fill-opacity="0.5"
     stroke="#000000"
     stroke-opacity="0.5"
     stroke-width="3.2"
     id="circle169"
     style="fill:#808080;opacity:1" />
  <circle
     clip-path="url(#clip372)"
     cx="1416.12"
     cy="697.585"
     r="14"
     fill="#c271d2"
     fill-rule="evenodd"
     fill-opacity="0.5"
     stroke="#000000"
     stroke-opacity="0.5"
     stroke-width="3.2"
     id="circle171"
     style="fill:#808080;opacity:1" />
  <circle
     clip-path="url(#clip372)"
     cx="1198.74"
     cy="824.037"
     r="14"
     fill="#c271d2"
     fill-rule="evenodd"
     fill-opacity="0.5"
     stroke="#000000"
     stroke-opacity="0.5"
     stroke-width="3.2"
     id="circle173"
     style="fill:#808080;opacity:1" />
  <circle
     clip-path="url(#clip372)"
     cx="981.291"
     cy="950.513"
     r="14"
     fill="#c271d2"
     fill-rule="evenodd"
     fill-opacity="0.5"
     stroke="#000000"
     stroke-opacity="0.5"
     stroke-width="3.2"
     id="circle175"
     style="fill:#808080;opacity:1" />
  <circle
     clip-path="url(#clip372)"
     cx="763.885"
     cy="1077.15"
     r="14"
     fill="#c271d2"
     fill-rule="evenodd"
     fill-opacity="0.5"
     stroke="#000000"
     stroke-opacity="0.5"
     stroke-width="3.2"
     id="circle177"
     style="fill:#808080;opacity:1" />
  <circle
     clip-path="url(#clip372)"
     cx="546.483"
     cy="1203.44"
     r="14"
     fill="#c271d2"
     fill-rule="evenodd"
     fill-opacity="0.5"
     stroke="#000000"
     stroke-opacity="0.5"
     stroke-width="3.2"
     id="circle179"
     style="fill:#808080;opacity:1" />
  <circle
     clip-path="url(#clip372)"
     cx="328.986"
     cy="1327.43"
     r="14"
     fill="#c271d2"
     fill-rule="evenodd"
     fill-opacity="0.5"
     stroke="#000000"
     stroke-opacity="0.5"
     stroke-width="3.2"
     id="circle181"
     style="fill:#808080;opacity:1" />
  <polyline
     clip-path="url(#clip370)"
     style="fill:none;stroke:#808080;stroke-width:6.02714664;stroke-linecap:butt;stroke-linejoin:round;stroke-dasharray:24.10858657,15.06789093;stroke-dashoffset:0;stroke-opacity:1"
     stroke-dasharray="16, 10"
     points="   359.861,160.203 498.9,160.203    "
     id="polyline187"
     transform="matrix(1.7617994,0,0,1,-243.38683,65.382762)" />
  <g
     transform="matrix(7.33659 0 0 7.33659 1259.01 1518.9)"
     ns7:version="1.7.1"
     ns7:texconverter="pdflatex"
     ns7:pdfconverter="inkscape"
     ns7:text="$\\langle b^*\\rangle$"
     ns7:preamble="/home/onofrio/.config/inkscape/extensions/textext/default_packages.tex"
     ns7:scale="5.502455426048869"
     ns7:alignment="middle center"
     ns7:stroke-to-path="0"
     ns7:inkscapeversion="1.2"
     ns7:jacobian_sqrt="7.33659"
     id="g9764">
    <defs
       id="id-9cbc5f12-f3b4-47cc-912b-39a39324164a">
      <g
         id="id-2a730179-671a-4a51-92cd-ad12811d8f05">
        <symbol
           overflow="visible"
           id="id-fabfb403-907c-48a4-8f74-fa764519f16d">
          <path
             style="stroke:none"
             d=""
             id="id-d5be5b4e-1db4-4ae9-b839-b422f97e6715" />
        </symbol>
        <symbol
           overflow="visible"
           id="id-3f732da2-8caa-4b8e-9d28-8051b94d9dd0">
          <path
             style="stroke:none"
             d="M 3.265625,-7.09375 C 3.3125,-7.203125 3.3125,-7.234375 3.3125,-7.28125 c 0,-0.109375 -0.078125,-0.203125 -0.1875,-0.203125 -0.09375,0 -0.171875,0.0625 -0.234375,0.234375 l -1.75,4.578125 C 1.125,-2.609375 1.09375,-2.546875 1.09375,-2.5 c 0,0.03125 0,0.0625 0.046875,0.171875 L 2.890625,2.25 C 2.9375,2.359375 2.984375,2.5 3.125,2.5 c 0.109375,0 0.1875,-0.09375 0.1875,-0.203125 0,-0.03125 0,-0.046875 -0.046875,-0.15625 L 1.5,-2.5 Z m 0,0"
             id="id-392efbce-d0dc-4183-93be-4d9a029f556b" />
        </symbol>
        <symbol
           overflow="visible"
           id="id-9fa77319-1deb-4a76-9513-b76e9e56990a">
          <path
             style="stroke:none"
             d="M 2.71875,-2.328125 C 2.765625,-2.4375 2.765625,-2.46875 2.765625,-2.5 c 0,-0.015625 0,-0.046875 -0.046875,-0.15625 L 0.984375,-7.25 c -0.0625,-0.171875 -0.125,-0.234375 -0.234375,-0.234375 -0.109375,0 -0.203125,0.09375 -0.203125,0.203125 0,0.03125 0,0.046875 0.046875,0.15625 L 2.359375,-2.5 0.59375,2.109375 C 0.546875,2.21875 0.546875,2.25 0.546875,2.296875 0.546875,2.40625 0.640625,2.5 0.75,2.5 0.875,2.5 0.921875,2.390625 0.953125,2.296875 Z m 0,0"
             id="id-9a988312-dff2-4df4-a855-1cd176d0a4ae" />
        </symbol>
        <symbol
           overflow="visible"
           id="id-d4c3429f-7aef-49f7-97cb-3bb5c102f729">
          <path
             style="stroke:none"
             d=""
             id="id-f8813f29-3d88-470e-b52c-5a3c34a7ce84" />
        </symbol>
        <symbol
           overflow="visible"
           id="id-88e2fd0d-d444-42b7-ae8b-bb642c5989b4">
          <path
             style="stroke:none"
             d="m 2.375,-6.8125 c 0,0 0,-0.109375 -0.125,-0.109375 -0.21875,0 -0.953125,0.078125 -1.21875,0.109375 -0.078125,0 -0.1875,0.015625 -0.1875,0.1875 0,0.125 0.09375,0.125 0.25,0.125 0.46875,0 0.484375,0.0625 0.484375,0.171875 0,0.0625 -0.078125,0.40625 -0.125,0.609375 l -0.828125,3.25 c -0.109375,0.5 -0.15625,0.671875 -0.15625,1.015625 0,0.9375 0.53125,1.5625 1.265625,1.5625 1.171875,0 2.40625,-1.484375 2.40625,-2.921875 0,-0.90625 -0.53125,-1.59375 -1.328125,-1.59375 -0.453125,0 -0.875,0.296875 -1.171875,0.59375 z M 1.453125,-3.046875 C 1.5,-3.265625 1.5,-3.28125 1.59375,-3.390625 2.078125,-4.03125 2.53125,-4.1875 2.796875,-4.1875 c 0.359375,0 0.625,0.296875 0.625,0.9375 0,0.59375 -0.328125,1.734375 -0.515625,2.109375 -0.328125,0.671875 -0.78125,1.03125 -1.171875,1.03125 -0.34375,0 -0.671875,-0.265625 -0.671875,-1 0,-0.203125 0,-0.390625 0.15625,-1.015625 z m 0,0"
             id="id-619e3423-47c6-4aea-95ac-96d9e37f7f3e" />
        </symbol>
        <symbol
           overflow="visible"
           id="id-68ac6523-738f-43d7-8484-c49f2c097b8a">
          <path
             style="stroke:none"
             d=""
             id="id-ee6755ee-1b71-41c6-bcde-1a0180a55d76" />
        </symbol>
        <symbol
           overflow="visible"
           id="id-8f634879-5e43-4b6b-845d-a49e72ab4e99">
          <path
             style="stroke:none"
             d="m 2.25,-1.734375 c 0.578125,-0.25 0.828125,-0.34375 1,-0.4375 0.140625,-0.046875 0.203125,-0.078125 0.203125,-0.21875 0,-0.109375 -0.09375,-0.21875 -0.21875,-0.21875 -0.046875,0 -0.0625,0 -0.140625,0.0625 L 2.140625,-1.90625 2.25,-2.9375 c 0.015625,-0.125 0,-0.296875 -0.21875,-0.296875 -0.078125,0 -0.21875,0.046875 -0.21875,0.203125 0,0.0625 0.03125,0.265625 0.046875,0.34375 0.015625,0.109375 0.0625,0.625 0.078125,0.78125 L 0.984375,-2.546875 c -0.0625,-0.03125 -0.078125,-0.0625 -0.140625,-0.0625 -0.140625,0 -0.21875,0.109375 -0.21875,0.21875 0,0.140625 0.078125,0.1875 0.140625,0.203125 L 1.8125,-1.734375 c -0.5625,0.25 -0.828125,0.34375 -1,0.421875 -0.125,0.0625 -0.1875,0.09375 -0.1875,0.21875 0,0.125 0.078125,0.21875 0.21875,0.21875 0.046875,0 0.0625,0 0.140625,-0.0625 l 0.953125,-0.625 -0.125,1.109375 c 0,0.15625 0.140625,0.21875 0.21875,0.21875 0.09375,0 0.21875,-0.0625 0.21875,-0.21875 0,-0.0625 -0.03125,-0.265625 -0.03125,-0.328125 -0.015625,-0.125 -0.0625,-0.625 -0.078125,-0.78125 L 2.96875,-1.015625 C 3.15625,-0.875 3.171875,-0.875 3.234375,-0.875 c 0.125,0 0.21875,-0.09375 0.21875,-0.21875 0,-0.140625 -0.09375,-0.171875 -0.15625,-0.203125 z m 0,0"
             id="id-06bdbfa2-e1c1-48f5-9e27-39731c722792" />
        </symbol>
      </g>
    </defs>
    <g
       id="id-cb70e94c-7b38-405f-87bc-d5ea1835e497"
       transform="translate(-149.806, -127.281)">
      <g
         style="fill:#000000;fill-opacity:1"
         id="id-3adca0f0-c4f7-4bc9-bd00-20ca4b186bd8">
        <g
           transform="translate(148.712, 134.765)"
           id="g2222">
          <path
             style="stroke:none"
             d="M 3.265625,-7.09375 C 3.3125,-7.203125 3.3125,-7.234375 3.3125,-7.28125 c 0,-0.109375 -0.078125,-0.203125 -0.1875,-0.203125 -0.09375,0 -0.171875,0.0625 -0.234375,0.234375 l -1.75,4.578125 C 1.125,-2.609375 1.09375,-2.546875 1.09375,-2.5 c 0,0.03125 0,0.0625 0.046875,0.171875 L 2.890625,2.25 C 2.9375,2.359375 2.984375,2.5 3.125,2.5 c 0.109375,0 0.1875,-0.09375 0.1875,-0.203125 0,-0.03125 0,-0.046875 -0.046875,-0.15625 L 1.5,-2.5 Z m 0,0"
             id="id-5b8f520b-d87f-4b4a-a7b0-4b4508c53bb4" />
        </g>
      </g>
      <g
         style="fill:#000000;fill-opacity:1"
         id="id-293a0647-f762-4bda-b4ca-57fc854ea116">
        <g
           transform="translate(152.587, 134.765)"
           id="g2226">
          <path
             style="stroke:none"
             d="m 2.375,-6.8125 c 0,0 0,-0.109375 -0.125,-0.109375 -0.21875,0 -0.953125,0.078125 -1.21875,0.109375 -0.078125,0 -0.1875,0.015625 -0.1875,0.1875 0,0.125 0.09375,0.125 0.25,0.125 0.46875,0 0.484375,0.0625 0.484375,0.171875 0,0.0625 -0.078125,0.40625 -0.125,0.609375 l -0.828125,3.25 c -0.109375,0.5 -0.15625,0.671875 -0.15625,1.015625 0,0.9375 0.53125,1.5625 1.265625,1.5625 1.171875,0 2.40625,-1.484375 2.40625,-2.921875 0,-0.90625 -0.53125,-1.59375 -1.328125,-1.59375 -0.453125,0 -0.875,0.296875 -1.171875,0.59375 z M 1.453125,-3.046875 C 1.5,-3.265625 1.5,-3.28125 1.59375,-3.390625 2.078125,-4.03125 2.53125,-4.1875 2.796875,-4.1875 c 0.359375,0 0.625,0.296875 0.625,0.9375 0,0.59375 -0.328125,1.734375 -0.515625,2.109375 -0.328125,0.671875 -0.78125,1.03125 -1.171875,1.03125 -0.34375,0 -0.671875,-0.265625 -0.671875,-1 0,-0.203125 0,-0.390625 0.15625,-1.015625 z m 0,0"
             id="id-74471245-6183-4757-bf3c-32995571e022" />
        </g>
      </g>
      <g
         style="fill:#000000;fill-opacity:1"
         id="id-93d063dc-abfd-4f0c-9225-d4d0083007ec">
        <g
           transform="translate(156.862, 131.149)"
           id="g2230">
          <path
             style="stroke:none"
             d="m 2.25,-1.734375 c 0.578125,-0.25 0.828125,-0.34375 1,-0.4375 0.140625,-0.046875 0.203125,-0.078125 0.203125,-0.21875 0,-0.109375 -0.09375,-0.21875 -0.21875,-0.21875 -0.046875,0 -0.0625,0 -0.140625,0.0625 L 2.140625,-1.90625 2.25,-2.9375 c 0.015625,-0.125 0,-0.296875 -0.21875,-0.296875 -0.078125,0 -0.21875,0.046875 -0.21875,0.203125 0,0.0625 0.03125,0.265625 0.046875,0.34375 0.015625,0.109375 0.0625,0.625 0.078125,0.78125 L 0.984375,-2.546875 c -0.0625,-0.03125 -0.078125,-0.0625 -0.140625,-0.0625 -0.140625,0 -0.21875,0.109375 -0.21875,0.21875 0,0.140625 0.078125,0.1875 0.140625,0.203125 L 1.8125,-1.734375 c -0.5625,0.25 -0.828125,0.34375 -1,0.421875 -0.125,0.0625 -0.1875,0.09375 -0.1875,0.21875 0,0.125 0.078125,0.21875 0.21875,0.21875 0.046875,0 0.0625,0 0.140625,-0.0625 l 0.953125,-0.625 -0.125,1.109375 c 0,0.15625 0.140625,0.21875 0.21875,0.21875 0.09375,0 0.21875,-0.0625 0.21875,-0.21875 0,-0.0625 -0.03125,-0.265625 -0.03125,-0.328125 -0.015625,-0.125 -0.0625,-0.625 -0.078125,-0.78125 L 2.96875,-1.015625 C 3.15625,-0.875 3.171875,-0.875 3.234375,-0.875 c 0.125,0 0.21875,-0.09375 0.21875,-0.21875 0,-0.140625 -0.09375,-0.171875 -0.15625,-0.203125 z m 0,0"
             id="id-19914ef1-5931-4d01-8f86-04bc0c65972e" />
        </g>
      </g>
      <g
         style="fill:#000000;fill-opacity:1"
         id="id-a92391f2-aa9e-432b-8ec3-7f37dbd6f189">
        <g
           transform="translate(161.442, 134.765)"
           id="g2234">
          <path
             style="stroke:none"
             d="M 2.71875,-2.328125 C 2.765625,-2.4375 2.765625,-2.46875 2.765625,-2.5 c 0,-0.015625 0,-0.046875 -0.046875,-0.15625 L 0.984375,-7.25 c -0.0625,-0.171875 -0.125,-0.234375 -0.234375,-0.234375 -0.109375,0 -0.203125,0.09375 -0.203125,0.203125 0,0.03125 0,0.046875 0.046875,0.15625 L 2.359375,-2.5 0.59375,2.109375 C 0.546875,2.21875 0.546875,2.25 0.546875,2.296875 0.546875,2.40625 0.640625,2.5 0.75,2.5 0.875,2.5 0.921875,2.390625 0.953125,2.296875 Z m 0,0"
             id="id-7529cbc6-459b-41ed-8050-6facd6269609" />
        </g>
      </g>
    </g>
  </g>
  <g
     transform="matrix(0 -7.33659 7.33659 0 39.4156 894.15)"
     ns7:version="1.7.1"
     ns7:texconverter="pdflatex"
     ns7:pdfconverter="inkscape"
     ns7:text="var($b^*$)"
     ns7:preamble="/home/onofrio/.config/inkscape/extensions/textext/default_packages.tex"
     ns7:scale="5.502455426048869"
     ns7:alignment="middle center"
     ns7:stroke-to-path="0"
     ns7:inkscapeversion="1.2"
     ns7:jacobian_sqrt="7.33659"
     id="g12391">
    <defs
       id="id-f0ce138f-8589-4bf9-af01-86c9d1d75f91">
      <g
         id="id-f49f6301-6cf5-43fd-b6d4-049d218179c0">
        <symbol
           overflow="visible"
           id="id-522326a2-1503-48a6-b6bb-150c530bc806">
          <path
             style="stroke:none"
             d=""
             id="id-0674b1b2-06e2-418e-a779-a2a44cf4c16b" />
        </symbol>
        <symbol
           overflow="visible"
           id="id-c23e90c4-d8b9-48bd-a134-2221be2153b6">
          <path
             style="stroke:none"
             d="M 4.140625,-3.3125 C 4.234375,-3.546875 4.40625,-3.984375 5.0625,-3.984375 v -0.3125 c -0.234375,0.015625 -0.515625,0.03125 -0.75,0.03125 -0.234375,0 -0.6875,-0.015625 -0.859375,-0.03125 v 0.3125 c 0.359375,0 0.46875,0.234375 0.46875,0.421875 0,0.09375 -0.015625,0.140625 -0.046875,0.25 L 2.84375,-0.78125 1.734375,-3.5625 c -0.0625,-0.125 -0.0625,-0.140625 -0.0625,-0.171875 0,-0.25 0.390625,-0.25 0.578125,-0.25 v -0.3125 c -0.3125,0.015625 -0.859375,0.03125 -1.09375,0.03125 -0.265625,0 -0.671875,-0.015625 -0.96875,-0.03125 v 0.3125 c 0.625,0 0.671875,0.0625 0.796875,0.359375 l 1.4375,3.546875 C 2.484375,0.0625 2.5,0.109375 2.625,0.109375 c 0.140625,0 0.171875,-0.09375 0.21875,-0.1875 z m 0,0"
             id="id-5bf64701-01a4-4f04-8e38-7eb631ac217e" />
        </symbol>
        <symbol
           overflow="visible"
           id="id-c869a491-1495-4cf3-8702-7a1d42adc1d9">
          <path
             style="stroke:none"
             d="m 3.3125,-0.75 c 0.046875,0.390625 0.3125,0.8125 0.78125,0.8125 0.21875,0 0.828125,-0.140625 0.828125,-0.953125 v -0.5625 h -0.25 v 0.5625 c 0,0.578125 -0.25,0.640625 -0.359375,0.640625 -0.328125,0 -0.375,-0.453125 -0.375,-0.5 v -1.984375 c 0,-0.421875 0,-0.8125 -0.359375,-1.1875 C 3.1875,-4.3125 2.6875,-4.46875 2.21875,-4.46875 c -0.828125,0 -1.515625,0.46875 -1.515625,1.125 0,0.296875 0.203125,0.46875 0.46875,0.46875 0.28125,0 0.453125,-0.203125 0.453125,-0.453125 0,-0.125 -0.046875,-0.453125 -0.515625,-0.453125 C 1.390625,-4.140625 1.875,-4.25 2.1875,-4.25 c 0.5,0 1.0625,0.390625 1.0625,1.28125 v 0.359375 c -0.515625,0.03125 -1.203125,0.0625 -1.828125,0.359375 -0.75,0.34375 -1,0.859375 -1,1.296875 0,0.8125 0.96875,1.0625 1.59375,1.0625 0.65625,0 1.109375,-0.40625 1.296875,-0.859375 z M 3.25,-2.390625 v 1 c 0,0.9375 -0.71875,1.28125 -1.171875,1.28125 -0.484375,0 -0.890625,-0.34375 -0.890625,-0.84375 0,-0.546875 0.421875,-1.375 2.0625,-1.4375 z m 0,0"
             id="id-f560b2c5-f954-4e1c-b8af-2fc54bcc4c7e" />
        </symbol>
        <symbol
           overflow="visible"
           id="id-b4ed9a42-df00-4b80-a30d-23c241829437">
          <path
             style="stroke:none"
             d="M 1.671875,-3.3125 V -4.40625 L 0.28125,-4.296875 v 0.3125 c 0.703125,0 0.78125,0.0625 0.78125,0.5625 V -0.75 c 0,0.4375 -0.109375,0.4375 -0.78125,0.4375 V 0 c 0.390625,-0.015625 0.859375,-0.03125 1.140625,-0.03125 0.390625,0 0.859375,0 1.265625,0.03125 V -0.3125 H 2.46875 c -0.734375,0 -0.75,-0.109375 -0.75,-0.46875 V -2.3125 c 0,-0.984375 0.421875,-1.875 1.171875,-1.875 0.0625,0 0.09375,0 0.109375,0.015625 -0.03125,0 -0.234375,0.125 -0.234375,0.390625 0,0.265625 0.21875,0.421875 0.4375,0.421875 0.171875,0 0.421875,-0.125 0.421875,-0.4375 0,-0.3125 -0.3125,-0.609375 -0.734375,-0.609375 -0.734375,0 -1.09375,0.671875 -1.21875,1.09375 z m 0,0"
             id="id-1f543a78-2e52-49f0-997c-63a072310a75" />
        </symbol>
        <symbol
           overflow="visible"
           id="id-9dca654e-6dfc-4938-96c6-5dce8b1a7a31">
          <path
             style="stroke:none"
             d="m 3.296875,2.390625 c 0,-0.03125 0,-0.046875 -0.171875,-0.21875 C 1.890625,0.921875 1.5625,-0.96875 1.5625,-2.5 c 0,-1.734375 0.375,-3.46875 1.609375,-4.703125 0.125,-0.125 0.125,-0.140625 0.125,-0.171875 0,-0.078125 -0.03125,-0.109375 -0.09375,-0.109375 -0.109375,0 -1,0.6875 -1.59375,1.953125 -0.5,1.09375 -0.625,2.203125 -0.625,3.03125 0,0.78125 0.109375,1.984375 0.65625,3.125 C 2.25,1.84375 3.09375,2.5 3.203125,2.5 c 0.0625,0 0.09375,-0.03125 0.09375,-0.109375 z m 0,0"
             id="id-e09dc415-61ae-416b-b481-d395d6968b6c" />
        </symbol>
        <symbol
           overflow="visible"
           id="id-c89e2c93-e87e-4988-87d8-f21f5ea7f25e">
          <path
             style="stroke:none"
             d="m 2.875,-2.5 c 0,-0.765625 -0.109375,-1.96875 -0.65625,-3.109375 -0.59375,-1.21875 -1.453125,-1.875 -1.546875,-1.875 -0.0625,0 -0.109375,0.046875 -0.109375,0.109375 0,0.03125 0,0.046875 0.1875,0.234375 0.984375,0.984375 1.546875,2.5625 1.546875,4.640625 0,1.71875 -0.359375,3.46875 -1.59375,4.71875 C 0.5625,2.34375 0.5625,2.359375 0.5625,2.390625 0.5625,2.453125 0.609375,2.5 0.671875,2.5 0.765625,2.5 1.671875,1.8125 2.25,0.546875 2.765625,-0.546875 2.875,-1.65625 2.875,-2.5 Z m 0,0"
             id="id-d1067ccd-4e33-4967-ac69-01402e4e7d54" />
        </symbol>
        <symbol
           overflow="visible"
           id="id-a89d14aa-5996-415d-91fa-602e4c7be793">
          <path
             style="stroke:none"
             d=""
             id="id-dc172121-537d-4f12-a664-8444164f25c8" />
        </symbol>
        <symbol
           overflow="visible"
           id="id-598dbd99-bfde-4868-8e32-95aa0cec9eaa">
          <path
             style="stroke:none"
             d="m 2.375,-6.8125 c 0,0 0,-0.109375 -0.125,-0.109375 -0.21875,0 -0.953125,0.078125 -1.21875,0.109375 -0.078125,0 -0.1875,0.015625 -0.1875,0.1875 0,0.125 0.09375,0.125 0.25,0.125 0.46875,0 0.484375,0.0625 0.484375,0.171875 0,0.0625 -0.078125,0.40625 -0.125,0.609375 l -0.828125,3.25 c -0.109375,0.5 -0.15625,0.671875 -0.15625,1.015625 0,0.9375 0.53125,1.5625 1.265625,1.5625 1.171875,0 2.40625,-1.484375 2.40625,-2.921875 0,-0.90625 -0.53125,-1.59375 -1.328125,-1.59375 -0.453125,0 -0.875,0.296875 -1.171875,0.59375 z M 1.453125,-3.046875 C 1.5,-3.265625 1.5,-3.28125 1.59375,-3.390625 2.078125,-4.03125 2.53125,-4.1875 2.796875,-4.1875 c 0.359375,0 0.625,0.296875 0.625,0.9375 0,0.59375 -0.328125,1.734375 -0.515625,2.109375 -0.328125,0.671875 -0.78125,1.03125 -1.171875,1.03125 -0.34375,0 -0.671875,-0.265625 -0.671875,-1 0,-0.203125 0,-0.390625 0.15625,-1.015625 z m 0,0"
             id="id-2e37dd5f-89f4-4884-84c8-6b30e0f456cd" />
        </symbol>
        <symbol
           overflow="visible"
           id="id-baa6455a-ece9-4d97-8305-90114a188597">
          <path
             style="stroke:none"
             d=""
             id="id-ae89c172-7b49-42aa-8299-6d4ce05fe480" />
        </symbol>
        <symbol
           overflow="visible"
           id="id-8d7805fe-9108-46b7-a9f9-a71ddecc9ad0">
          <path
             style="stroke:none"
             d="m 2.25,-1.734375 c 0.578125,-0.25 0.828125,-0.34375 1,-0.4375 0.140625,-0.046875 0.203125,-0.078125 0.203125,-0.21875 0,-0.109375 -0.09375,-0.21875 -0.21875,-0.21875 -0.046875,0 -0.0625,0 -0.140625,0.0625 L 2.140625,-1.90625 2.25,-2.9375 c 0.015625,-0.125 0,-0.296875 -0.21875,-0.296875 -0.078125,0 -0.21875,0.046875 -0.21875,0.203125 0,0.0625 0.03125,0.265625 0.046875,0.34375 0.015625,0.109375 0.0625,0.625 0.078125,0.78125 L 0.984375,-2.546875 c -0.0625,-0.03125 -0.078125,-0.0625 -0.140625,-0.0625 -0.140625,0 -0.21875,0.109375 -0.21875,0.21875 0,0.140625 0.078125,0.1875 0.140625,0.203125 L 1.8125,-1.734375 c -0.5625,0.25 -0.828125,0.34375 -1,0.421875 -0.125,0.0625 -0.1875,0.09375 -0.1875,0.21875 0,0.125 0.078125,0.21875 0.21875,0.21875 0.046875,0 0.0625,0 0.140625,-0.0625 l 0.953125,-0.625 -0.125,1.109375 c 0,0.15625 0.140625,0.21875 0.21875,0.21875 0.09375,0 0.21875,-0.0625 0.21875,-0.21875 0,-0.0625 -0.03125,-0.265625 -0.03125,-0.328125 -0.015625,-0.125 -0.0625,-0.625 -0.078125,-0.78125 L 2.96875,-1.015625 C 3.15625,-0.875 3.171875,-0.875 3.234375,-0.875 c 0.125,0 0.21875,-0.09375 0.21875,-0.21875 0,-0.140625 -0.09375,-0.171875 -0.15625,-0.203125 z m 0,0"
             id="id-d7191ccf-6c93-422d-87c8-167106947ea8" />
        </symbol>
      </g>
    </defs>
    <g
       id="id-3e552838-b4ea-4205-b04d-9a9c118c4cce"
       transform="translate(-148.9, -127.281)">
      <g
         style="fill:#000000;fill-opacity:1"
         id="id-e53b415f-b22b-4b6f-8bc7-4ec448f34d6f">
        <g
           transform="translate(148.712, 134.765)"
           id="g3397">
          <path
             style="stroke:none"
             d="M 4.140625,-3.3125 C 4.234375,-3.546875 4.40625,-3.984375 5.0625,-3.984375 v -0.3125 c -0.234375,0.015625 -0.515625,0.03125 -0.75,0.03125 -0.234375,0 -0.6875,-0.015625 -0.859375,-0.03125 v 0.3125 c 0.359375,0 0.46875,0.234375 0.46875,0.421875 0,0.09375 -0.015625,0.140625 -0.046875,0.25 L 2.84375,-0.78125 1.734375,-3.5625 c -0.0625,-0.125 -0.0625,-0.140625 -0.0625,-0.171875 0,-0.25 0.390625,-0.25 0.578125,-0.25 v -0.3125 c -0.3125,0.015625 -0.859375,0.03125 -1.09375,0.03125 -0.265625,0 -0.671875,-0.015625 -0.96875,-0.03125 v 0.3125 c 0.625,0 0.671875,0.0625 0.796875,0.359375 l 1.4375,3.546875 C 2.484375,0.0625 2.5,0.109375 2.625,0.109375 c 0.140625,0 0.171875,-0.09375 0.21875,-0.1875 z m 0,0"
             id="id-34856b7b-90fd-4953-ada4-cee0f0bd18cc" />
        </g>
      </g>
      <g
         style="fill:#000000;fill-opacity:1"
         id="id-f6e268d9-ec11-4583-89f8-5e8c970f8524">
        <g
           transform="translate(153.412, 134.765)"
           id="g3401">
          <path
             style="stroke:none"
             d="m 3.3125,-0.75 c 0.046875,0.390625 0.3125,0.8125 0.78125,0.8125 0.21875,0 0.828125,-0.140625 0.828125,-0.953125 v -0.5625 h -0.25 v 0.5625 c 0,0.578125 -0.25,0.640625 -0.359375,0.640625 -0.328125,0 -0.375,-0.453125 -0.375,-0.5 v -1.984375 c 0,-0.421875 0,-0.8125 -0.359375,-1.1875 C 3.1875,-4.3125 2.6875,-4.46875 2.21875,-4.46875 c -0.828125,0 -1.515625,0.46875 -1.515625,1.125 0,0.296875 0.203125,0.46875 0.46875,0.46875 0.28125,0 0.453125,-0.203125 0.453125,-0.453125 0,-0.125 -0.046875,-0.453125 -0.515625,-0.453125 C 1.390625,-4.140625 1.875,-4.25 2.1875,-4.25 c 0.5,0 1.0625,0.390625 1.0625,1.28125 v 0.359375 c -0.515625,0.03125 -1.203125,0.0625 -1.828125,0.359375 -0.75,0.34375 -1,0.859375 -1,1.296875 0,0.8125 0.96875,1.0625 1.59375,1.0625 0.65625,0 1.109375,-0.40625 1.296875,-0.859375 z M 3.25,-2.390625 v 1 c 0,0.9375 -0.71875,1.28125 -1.171875,1.28125 -0.484375,0 -0.890625,-0.34375 -0.890625,-0.84375 0,-0.546875 0.421875,-1.375 2.0625,-1.4375 z m 0,0"
             id="id-3c69bfed-f342-4a0d-be64-af5cd8c68ed0" />
        </g>
        <g
           transform="translate(158.394, 134.765)"
           id="g3404">
          <path
             style="stroke:none"
             d="M 1.671875,-3.3125 V -4.40625 L 0.28125,-4.296875 v 0.3125 c 0.703125,0 0.78125,0.0625 0.78125,0.5625 V -0.75 c 0,0.4375 -0.109375,0.4375 -0.78125,0.4375 V 0 c 0.390625,-0.015625 0.859375,-0.03125 1.140625,-0.03125 0.390625,0 0.859375,0 1.265625,0.03125 V -0.3125 H 2.46875 c -0.734375,0 -0.75,-0.109375 -0.75,-0.46875 V -2.3125 c 0,-0.984375 0.421875,-1.875 1.171875,-1.875 0.0625,0 0.09375,0 0.109375,0.015625 -0.03125,0 -0.234375,0.125 -0.234375,0.390625 0,0.265625 0.21875,0.421875 0.4375,0.421875 0.171875,0 0.421875,-0.125 0.421875,-0.4375 0,-0.3125 -0.3125,-0.609375 -0.734375,-0.609375 -0.734375,0 -1.09375,0.671875 -1.21875,1.09375 z m 0,0"
             id="id-6b03c622-70bf-4764-a0f7-5c35c073c07a" />
        </g>
        <g
           transform="translate(162.296, 134.765)"
           id="g3407">
          <path
             style="stroke:none"
             d="m 3.296875,2.390625 c 0,-0.03125 0,-0.046875 -0.171875,-0.21875 C 1.890625,0.921875 1.5625,-0.96875 1.5625,-2.5 c 0,-1.734375 0.375,-3.46875 1.609375,-4.703125 0.125,-0.125 0.125,-0.140625 0.125,-0.171875 0,-0.078125 -0.03125,-0.109375 -0.09375,-0.109375 -0.109375,0 -1,0.6875 -1.59375,1.953125 -0.5,1.09375 -0.625,2.203125 -0.625,3.03125 0,0.78125 0.109375,1.984375 0.65625,3.125 C 2.25,1.84375 3.09375,2.5 3.203125,2.5 c 0.0625,0 0.09375,-0.03125 0.09375,-0.109375 z m 0,0"
             id="id-c8e64586-a931-4eb3-87ea-1e945c756b2d" />
        </g>
      </g>
      <g
         style="fill:#000000;fill-opacity:1"
         id="id-b02bbf41-27a5-48ff-a5af-a9427df5931a">
        <g
           transform="translate(166.175, 134.765)"
           id="g3411">
          <path
             style="stroke:none"
             d="m 2.375,-6.8125 c 0,0 0,-0.109375 -0.125,-0.109375 -0.21875,0 -0.953125,0.078125 -1.21875,0.109375 -0.078125,0 -0.1875,0.015625 -0.1875,0.1875 0,0.125 0.09375,0.125 0.25,0.125 0.46875,0 0.484375,0.0625 0.484375,0.171875 0,0.0625 -0.078125,0.40625 -0.125,0.609375 l -0.828125,3.25 c -0.109375,0.5 -0.15625,0.671875 -0.15625,1.015625 0,0.9375 0.53125,1.5625 1.265625,1.5625 1.171875,0 2.40625,-1.484375 2.40625,-2.921875 0,-0.90625 -0.53125,-1.59375 -1.328125,-1.59375 -0.453125,0 -0.875,0.296875 -1.171875,0.59375 z M 1.453125,-3.046875 C 1.5,-3.265625 1.5,-3.28125 1.59375,-3.390625 2.078125,-4.03125 2.53125,-4.1875 2.796875,-4.1875 c 0.359375,0 0.625,0.296875 0.625,0.9375 0,0.59375 -0.328125,1.734375 -0.515625,2.109375 -0.328125,0.671875 -0.78125,1.03125 -1.171875,1.03125 -0.34375,0 -0.671875,-0.265625 -0.671875,-1 0,-0.203125 0,-0.390625 0.15625,-1.015625 z m 0,0"
             id="id-0492863f-d4de-4bd5-8854-f16f01c3e1e8" />
        </g>
      </g>
      <g
         style="fill:#000000;fill-opacity:1"
         id="id-296f8420-7ecd-472b-84bd-d1bb60b87c0a">
        <g
           transform="translate(170.45, 131.149)"
           id="g3415">
          <path
             style="stroke:none"
             d="m 2.25,-1.734375 c 0.578125,-0.25 0.828125,-0.34375 1,-0.4375 0.140625,-0.046875 0.203125,-0.078125 0.203125,-0.21875 0,-0.109375 -0.09375,-0.21875 -0.21875,-0.21875 -0.046875,0 -0.0625,0 -0.140625,0.0625 L 2.140625,-1.90625 2.25,-2.9375 c 0.015625,-0.125 0,-0.296875 -0.21875,-0.296875 -0.078125,0 -0.21875,0.046875 -0.21875,0.203125 0,0.0625 0.03125,0.265625 0.046875,0.34375 0.015625,0.109375 0.0625,0.625 0.078125,0.78125 L 0.984375,-2.546875 c -0.0625,-0.03125 -0.078125,-0.0625 -0.140625,-0.0625 -0.140625,0 -0.21875,0.109375 -0.21875,0.21875 0,0.140625 0.078125,0.1875 0.140625,0.203125 L 1.8125,-1.734375 c -0.5625,0.25 -0.828125,0.34375 -1,0.421875 -0.125,0.0625 -0.1875,0.09375 -0.1875,0.21875 0,0.125 0.078125,0.21875 0.21875,0.21875 0.046875,0 0.0625,0 0.140625,-0.0625 l 0.953125,-0.625 -0.125,1.109375 c 0,0.15625 0.140625,0.21875 0.21875,0.21875 0.09375,0 0.21875,-0.0625 0.21875,-0.21875 0,-0.0625 -0.03125,-0.265625 -0.03125,-0.328125 -0.015625,-0.125 -0.0625,-0.625 -0.078125,-0.78125 L 2.96875,-1.015625 C 3.15625,-0.875 3.171875,-0.875 3.234375,-0.875 c 0.125,0 0.21875,-0.09375 0.21875,-0.21875 0,-0.140625 -0.09375,-0.171875 -0.15625,-0.203125 z m 0,0"
             id="id-0c5860f1-a17c-467e-97f7-90b1cb5ee112" />
        </g>
      </g>
      <g
         style="fill:#000000;fill-opacity:1"
         id="id-cc60f3c7-51d9-42f9-91e2-75a9030eb18a">
        <g
           transform="translate(175.03, 134.765)"
           id="g3419">
          <path
             style="stroke:none"
             d="m 2.875,-2.5 c 0,-0.765625 -0.109375,-1.96875 -0.65625,-3.109375 -0.59375,-1.21875 -1.453125,-1.875 -1.546875,-1.875 -0.0625,0 -0.109375,0.046875 -0.109375,0.109375 0,0.03125 0,0.046875 0.1875,0.234375 0.984375,0.984375 1.546875,2.5625 1.546875,4.640625 0,1.71875 -0.359375,3.46875 -1.59375,4.71875 C 0.5625,2.34375 0.5625,2.359375 0.5625,2.390625 0.5625,2.453125 0.609375,2.5 0.671875,2.5 0.765625,2.5 1.671875,1.8125 2.25,0.546875 2.765625,-0.546875 2.875,-1.65625 2.875,-2.5 Z m 0,0"
             id="id-3777769f-7133-4421-b131-f49c14c014d2" />
        </g>
      </g>
    </g>
  </g>
  <g
     transform="matrix(7.33657 0 0 7.33657 716.964 188.533)"
     ns7:version="1.7.1"
     ns7:texconverter="pdflatex"
     ns7:pdfconverter="inkscape"
     ns7:text="$\\langle b^*\\rangle^2$"
     ns7:preamble="/home/onofrio/.config/inkscape/extensions/textext/default_packages.tex"
     ns7:scale="5.502455426048869"
     ns7:alignment="middle center"
     ns7:stroke-to-path="0"
     ns7:inkscapeversion="1.2"
     ns7:jacobian_sqrt="7.33657"
     id="g752">
    <defs
       id="id-99acdae6-cd98-4b43-ba55-ad3883371711">
      <g
         id="id-e16e1f50-6f4b-4be1-ab70-5824a0a8a7e3">
        <symbol
           overflow="visible"
           id="id-1fb29338-e1aa-423f-9eea-71b8825320e7">
          <path
             style="stroke:none"
             d=""
             id="id-b34b083a-4abc-44ce-9fe4-6b6f4e75b2ee" />
        </symbol>
        <symbol
           overflow="visible"
           id="id-f799a2d0-4772-4a37-a5a5-897771157e4c">
          <path
             style="stroke:none"
             d="M 3.265625,-7.09375 C 3.3125,-7.203125 3.3125,-7.234375 3.3125,-7.28125 c 0,-0.109375 -0.078125,-0.203125 -0.1875,-0.203125 -0.09375,0 -0.171875,0.0625 -0.234375,0.234375 l -1.75,4.578125 C 1.125,-2.609375 1.09375,-2.546875 1.09375,-2.5 c 0,0.03125 0,0.0625 0.046875,0.171875 L 2.890625,2.25 C 2.9375,2.359375 2.984375,2.5 3.125,2.5 c 0.109375,0 0.1875,-0.09375 0.1875,-0.203125 0,-0.03125 0,-0.046875 -0.046875,-0.15625 L 1.5,-2.5 Z m 0,0"
             id="id-e67a9766-c382-486e-afaa-3244216f3b0b" />
        </symbol>
        <symbol
           overflow="visible"
           id="id-d353e014-8b73-4060-aaa9-f74dfb2bba6e">
          <path
             style="stroke:none"
             d="M 2.71875,-2.328125 C 2.765625,-2.4375 2.765625,-2.46875 2.765625,-2.5 c 0,-0.015625 0,-0.046875 -0.046875,-0.15625 L 0.984375,-7.25 c -0.0625,-0.171875 -0.125,-0.234375 -0.234375,-0.234375 -0.109375,0 -0.203125,0.09375 -0.203125,0.203125 0,0.03125 0,0.046875 0.046875,0.15625 L 2.359375,-2.5 0.59375,2.109375 C 0.546875,2.21875 0.546875,2.25 0.546875,2.296875 0.546875,2.40625 0.640625,2.5 0.75,2.5 0.875,2.5 0.921875,2.390625 0.953125,2.296875 Z m 0,0"
             id="id-d1a4a58e-369d-4823-b731-2c7bb98fff34" />
        </symbol>
        <symbol
           overflow="visible"
           id="id-7fef16d7-7062-4ab7-b948-ae14d32ab643">
          <path
             style="stroke:none"
             d=""
             id="id-8ce4cb87-7864-4b4c-8dd8-6d1bdd8dfea8" />
        </symbol>
        <symbol
           overflow="visible"
           id="id-00110290-18d8-4ea1-9935-3592aa0daa5a">
          <path
             style="stroke:none"
             d="m 2.375,-6.8125 c 0,0 0,-0.109375 -0.125,-0.109375 -0.21875,0 -0.953125,0.078125 -1.21875,0.109375 -0.078125,0 -0.1875,0.015625 -0.1875,0.1875 0,0.125 0.09375,0.125 0.25,0.125 0.46875,0 0.484375,0.0625 0.484375,0.171875 0,0.0625 -0.078125,0.40625 -0.125,0.609375 l -0.828125,3.25 c -0.109375,0.5 -0.15625,0.671875 -0.15625,1.015625 0,0.9375 0.53125,1.5625 1.265625,1.5625 1.171875,0 2.40625,-1.484375 2.40625,-2.921875 0,-0.90625 -0.53125,-1.59375 -1.328125,-1.59375 -0.453125,0 -0.875,0.296875 -1.171875,0.59375 z M 1.453125,-3.046875 C 1.5,-3.265625 1.5,-3.28125 1.59375,-3.390625 2.078125,-4.03125 2.53125,-4.1875 2.796875,-4.1875 c 0.359375,0 0.625,0.296875 0.625,0.9375 0,0.59375 -0.328125,1.734375 -0.515625,2.109375 -0.328125,0.671875 -0.78125,1.03125 -1.171875,1.03125 -0.34375,0 -0.671875,-0.265625 -0.671875,-1 0,-0.203125 0,-0.390625 0.15625,-1.015625 z m 0,0"
             id="id-71f3d22e-27c9-4e5c-8a7d-ad8945798fd3" />
        </symbol>
        <symbol
           overflow="visible"
           id="id-b1caf7e0-314e-4c1b-b7dd-311581606954">
          <path
             style="stroke:none"
             d=""
             id="id-365393b1-e8ce-458a-b9bb-3e458209a2c1" />
        </symbol>
        <symbol
           overflow="visible"
           id="id-b2d3367d-2459-4237-9a1c-147ea17cdf44">
          <path
             style="stroke:none"
             d="m 2.25,-1.734375 c 0.578125,-0.25 0.828125,-0.34375 1,-0.4375 0.140625,-0.046875 0.203125,-0.078125 0.203125,-0.21875 0,-0.109375 -0.09375,-0.21875 -0.21875,-0.21875 -0.046875,0 -0.0625,0 -0.140625,0.0625 L 2.140625,-1.90625 2.25,-2.9375 c 0.015625,-0.125 0,-0.296875 -0.21875,-0.296875 -0.078125,0 -0.21875,0.046875 -0.21875,0.203125 0,0.0625 0.03125,0.265625 0.046875,0.34375 0.015625,0.109375 0.0625,0.625 0.078125,0.78125 L 0.984375,-2.546875 c -0.0625,-0.03125 -0.078125,-0.0625 -0.140625,-0.0625 -0.140625,0 -0.21875,0.109375 -0.21875,0.21875 0,0.140625 0.078125,0.1875 0.140625,0.203125 L 1.8125,-1.734375 c -0.5625,0.25 -0.828125,0.34375 -1,0.421875 -0.125,0.0625 -0.1875,0.09375 -0.1875,0.21875 0,0.125 0.078125,0.21875 0.21875,0.21875 0.046875,0 0.0625,0 0.140625,-0.0625 l 0.953125,-0.625 -0.125,1.109375 c 0,0.15625 0.140625,0.21875 0.21875,0.21875 0.09375,0 0.21875,-0.0625 0.21875,-0.21875 0,-0.0625 -0.03125,-0.265625 -0.03125,-0.328125 -0.015625,-0.125 -0.0625,-0.625 -0.078125,-0.78125 L 2.96875,-1.015625 C 3.15625,-0.875 3.171875,-0.875 3.234375,-0.875 c 0.125,0 0.21875,-0.09375 0.21875,-0.21875 0,-0.140625 -0.09375,-0.171875 -0.15625,-0.203125 z m 0,0"
             id="id-fb39f444-e3bb-4cf1-b3f0-e24850b8a151" />
        </symbol>
        <symbol
           overflow="visible"
           id="id-200e5169-214f-43ed-adaf-a28d4a67b731">
          <path
             style="stroke:none"
             d=""
             id="id-71f10653-8cc9-4284-9ed1-78c79d47bd40" />
        </symbol>
        <symbol
           overflow="visible"
           id="id-8fe732d7-6568-4054-887f-27778065f4f2">
          <path
             style="stroke:none"
             d="M 3.515625,-1.265625 H 3.28125 c -0.015625,0.15625 -0.09375,0.5625 -0.1875,0.625 C 3.046875,-0.59375 2.515625,-0.59375 2.40625,-0.59375 H 1.125 c 0.734375,-0.640625 0.984375,-0.84375 1.390625,-1.171875 0.515625,-0.40625 1,-0.84375 1,-1.5 0,-0.84375 -0.734375,-1.359375 -1.625,-1.359375 -0.859375,0 -1.453125,0.609375 -1.453125,1.25 0,0.34375 0.296875,0.390625 0.375,0.390625 0.15625,0 0.359375,-0.125 0.359375,-0.375 0,-0.125 -0.046875,-0.375 -0.40625,-0.375 C 0.984375,-4.21875 1.453125,-4.375 1.78125,-4.375 c 0.703125,0 1.0625,0.546875 1.0625,1.109375 0,0.609375 -0.4375,1.078125 -0.65625,1.328125 L 0.515625,-0.265625 C 0.4375,-0.203125 0.4375,-0.1875 0.4375,0 h 2.875 z m 0,0"
             id="id-36e0765e-9e59-4149-b3f2-f2bd619923e0" />
        </symbol>
      </g>
    </defs>
    <g
       id="id-57512bd0-d5f9-4461-9977-faae95c685db"
       transform="translate(-149.806, -126.524)">
      <g
         style="fill:#000000;fill-opacity:1"
         id="id-9051bd63-11ac-488b-93d6-fc7f1fc0a717">
        <g
           transform="translate(148.712, 134.765)"
           id="g5287">
          <path
             style="stroke:none"
             d="M 3.265625,-7.09375 C 3.3125,-7.203125 3.3125,-7.234375 3.3125,-7.28125 c 0,-0.109375 -0.078125,-0.203125 -0.1875,-0.203125 -0.09375,0 -0.171875,0.0625 -0.234375,0.234375 l -1.75,4.578125 C 1.125,-2.609375 1.09375,-2.546875 1.09375,-2.5 c 0,0.03125 0,0.0625 0.046875,0.171875 L 2.890625,2.25 C 2.9375,2.359375 2.984375,2.5 3.125,2.5 c 0.109375,0 0.1875,-0.09375 0.1875,-0.203125 0,-0.03125 0,-0.046875 -0.046875,-0.15625 L 1.5,-2.5 Z m 0,0"
             id="id-46cc7e0b-0391-4db2-a2ee-b1a309c1707f" />
        </g>
      </g>
      <g
         style="fill:#000000;fill-opacity:1"
         id="id-c185bfa2-3014-47a1-b112-f50c2e2262dd">
        <g
           transform="translate(152.587, 134.765)"
           id="g5291">
          <path
             style="stroke:none"
             d="m 2.375,-6.8125 c 0,0 0,-0.109375 -0.125,-0.109375 -0.21875,0 -0.953125,0.078125 -1.21875,0.109375 -0.078125,0 -0.1875,0.015625 -0.1875,0.1875 0,0.125 0.09375,0.125 0.25,0.125 0.46875,0 0.484375,0.0625 0.484375,0.171875 0,0.0625 -0.078125,0.40625 -0.125,0.609375 l -0.828125,3.25 c -0.109375,0.5 -0.15625,0.671875 -0.15625,1.015625 0,0.9375 0.53125,1.5625 1.265625,1.5625 1.171875,0 2.40625,-1.484375 2.40625,-2.921875 0,-0.90625 -0.53125,-1.59375 -1.328125,-1.59375 -0.453125,0 -0.875,0.296875 -1.171875,0.59375 z M 1.453125,-3.046875 C 1.5,-3.265625 1.5,-3.28125 1.59375,-3.390625 2.078125,-4.03125 2.53125,-4.1875 2.796875,-4.1875 c 0.359375,0 0.625,0.296875 0.625,0.9375 0,0.59375 -0.328125,1.734375 -0.515625,2.109375 -0.328125,0.671875 -0.78125,1.03125 -1.171875,1.03125 -0.34375,0 -0.671875,-0.265625 -0.671875,-1 0,-0.203125 0,-0.390625 0.15625,-1.015625 z m 0,0"
             id="id-63cd673b-f008-49bb-b92d-eb333b9044a2" />
        </g>
      </g>
      <g
         style="fill:#000000;fill-opacity:1"
         id="id-5b06f06e-b2be-48ab-8656-7ade4aeafe8b">
        <g
           transform="translate(156.862, 131.149)"
           id="g5295">
          <path
             style="stroke:none"
             d="m 2.25,-1.734375 c 0.578125,-0.25 0.828125,-0.34375 1,-0.4375 0.140625,-0.046875 0.203125,-0.078125 0.203125,-0.21875 0,-0.109375 -0.09375,-0.21875 -0.21875,-0.21875 -0.046875,0 -0.0625,0 -0.140625,0.0625 L 2.140625,-1.90625 2.25,-2.9375 c 0.015625,-0.125 0,-0.296875 -0.21875,-0.296875 -0.078125,0 -0.21875,0.046875 -0.21875,0.203125 0,0.0625 0.03125,0.265625 0.046875,0.34375 0.015625,0.109375 0.0625,0.625 0.078125,0.78125 L 0.984375,-2.546875 c -0.0625,-0.03125 -0.078125,-0.0625 -0.140625,-0.0625 -0.140625,0 -0.21875,0.109375 -0.21875,0.21875 0,0.140625 0.078125,0.1875 0.140625,0.203125 L 1.8125,-1.734375 c -0.5625,0.25 -0.828125,0.34375 -1,0.421875 -0.125,0.0625 -0.1875,0.09375 -0.1875,0.21875 0,0.125 0.078125,0.21875 0.21875,0.21875 0.046875,0 0.0625,0 0.140625,-0.0625 l 0.953125,-0.625 -0.125,1.109375 c 0,0.15625 0.140625,0.21875 0.21875,0.21875 0.09375,0 0.21875,-0.0625 0.21875,-0.21875 0,-0.0625 -0.03125,-0.265625 -0.03125,-0.328125 -0.015625,-0.125 -0.0625,-0.625 -0.078125,-0.78125 L 2.96875,-1.015625 C 3.15625,-0.875 3.171875,-0.875 3.234375,-0.875 c 0.125,0 0.21875,-0.09375 0.21875,-0.21875 0,-0.140625 -0.09375,-0.171875 -0.15625,-0.203125 z m 0,0"
             id="id-0db7a9d1-ee7e-4c9e-9383-95b79476da0b" />
        </g>
      </g>
      <g
         style="fill:#000000;fill-opacity:1"
         id="id-5232088c-3df2-4206-ba21-258d31c746e5">
        <g
           transform="translate(161.442, 134.765)"
           id="g5299">
          <path
             style="stroke:none"
             d="M 2.71875,-2.328125 C 2.765625,-2.4375 2.765625,-2.46875 2.765625,-2.5 c 0,-0.015625 0,-0.046875 -0.046875,-0.15625 L 0.984375,-7.25 c -0.0625,-0.171875 -0.125,-0.234375 -0.234375,-0.234375 -0.109375,0 -0.203125,0.09375 -0.203125,0.203125 0,0.03125 0,0.046875 0.046875,0.15625 L 2.359375,-2.5 0.59375,2.109375 C 0.546875,2.21875 0.546875,2.25 0.546875,2.296875 0.546875,2.40625 0.640625,2.5 0.75,2.5 0.875,2.5 0.921875,2.390625 0.953125,2.296875 Z m 0,0"
             id="id-3df0596b-b607-45db-98e4-bd5bfdcebb20" />
        </g>
      </g>
      <g
         style="fill:#000000;fill-opacity:1"
         id="id-8b84110c-42f2-4f2a-a19b-1cd07869b7a9">
        <g
           transform="translate(165.317, 131.149)"
           id="g5303">
          <path
             style="stroke:none"
             d="M 3.515625,-1.265625 H 3.28125 c -0.015625,0.15625 -0.09375,0.5625 -0.1875,0.625 C 3.046875,-0.59375 2.515625,-0.59375 2.40625,-0.59375 H 1.125 c 0.734375,-0.640625 0.984375,-0.84375 1.390625,-1.171875 0.515625,-0.40625 1,-0.84375 1,-1.5 0,-0.84375 -0.734375,-1.359375 -1.625,-1.359375 -0.859375,0 -1.453125,0.609375 -1.453125,1.25 0,0.34375 0.296875,0.390625 0.375,0.390625 0.15625,0 0.359375,-0.125 0.359375,-0.375 0,-0.125 -0.046875,-0.375 -0.40625,-0.375 C 0.984375,-4.21875 1.453125,-4.375 1.78125,-4.375 c 0.703125,0 1.0625,0.546875 1.0625,1.109375 0,0.609375 -0.4375,1.078125 -0.65625,1.328125 L 0.515625,-0.265625 C 0.4375,-0.203125 0.4375,-0.1875 0.4375,0 h 2.875 z m 0,0"
             id="id-2a15f4da-01b8-474e-88aa-acdf796b202e" />
        </g>
      </g>
    </g>
  </g>
</svg>
