<?xml version="1.0" encoding="utf-8"?>
<svg xmlns="http://www.w3.org/2000/svg" xmlns:xlink="http://www.w3.org/1999/xlink" width="600" height="400" viewBox="0 0 2400 1600">
<defs>
  <clipPath id="clip520">
    <rect x="0" y="0" width="2400" height="1600"/>
  </clipPath>
</defs>
<path clip-path="url(#clip520)" d="
M0 1600 L2400 1600 L2400 0 L0 0  Z
  " fill="#ffffff" fill-rule="evenodd" fill-opacity="1"/>
<defs>
  <clipPath id="clip521">
    <rect x="480" y="0" width="1681" height="1600"/>
  </clipPath>
</defs>
<defs>
  <clipPath id="clip522">
    <rect x="265" y="47" width="2088" height="1364"/>
  </clipPath>
</defs>
<path clip-path="url(#clip520)" d="
M265.964 1409.91 L2352.76 1409.91 L2352.76 47.2441 L265.964 47.2441  Z
  " fill="#ffffff" fill-rule="evenodd" fill-opacity="1"/>
<polyline clip-path="url(#clip520)" style="stroke:#000000; stroke-linecap:butt; stroke-linejoin:round; stroke-width:4; stroke-opacity:1; fill:none" points="
  265.964,1409.91 2352.76,1409.91 
  "/>
<polyline clip-path="url(#clip520)" style="stroke:#000000; stroke-linecap:butt; stroke-linejoin:round; stroke-width:4; stroke-opacity:1; fill:none" points="
  688.781,1409.91 688.781,1391.01 
  "/>
<polyline clip-path="url(#clip520)" style="stroke:#000000; stroke-linecap:butt; stroke-linejoin:round; stroke-width:4; stroke-opacity:1; fill:none" points="
  1304.41,1409.91 1304.41,1391.01 
  "/>
<polyline clip-path="url(#clip520)" style="stroke:#000000; stroke-linecap:butt; stroke-linejoin:round; stroke-width:4; stroke-opacity:1; fill:none" points="
  1920.04,1409.91 1920.04,1391.01 
  "/>
<path clip-path="url(#clip520)" d="M638.897 1484.03 L646.535 1484.03 L646.535 1457.67 L638.225 1459.34 L638.225 1455.08 L646.489 1453.41 L651.165 1453.41 L651.165 1484.03 L658.804 1484.03 L658.804 1487.97 L638.897 1487.97 L638.897 1484.03 Z" fill="#000000" fill-rule="evenodd" fill-opacity="1" /><path clip-path="url(#clip520)" d="M678.248 1456.49 Q674.637 1456.49 672.808 1460.05 Q671.003 1463.59 671.003 1470.72 Q671.003 1477.83 672.808 1481.4 Q674.637 1484.94 678.248 1484.94 Q681.882 1484.94 683.688 1481.4 Q685.517 1477.83 685.517 1470.72 Q685.517 1463.59 683.688 1460.05 Q681.882 1456.49 678.248 1456.49 M678.248 1452.78 Q684.058 1452.78 687.114 1457.39 Q690.193 1461.97 690.193 1470.72 Q690.193 1479.45 687.114 1484.06 Q684.058 1488.64 678.248 1488.64 Q672.438 1488.64 669.359 1484.06 Q666.304 1479.45 666.304 1470.72 Q666.304 1461.97 669.359 1457.39 Q672.438 1452.78 678.248 1452.78 Z" fill="#000000" fill-rule="evenodd" fill-opacity="1" /><path clip-path="url(#clip520)" d="M690.193 1446.89 L714.304 1446.89 L714.304 1450.08 L690.193 1450.08 L690.193 1446.89 Z" fill="#000000" fill-rule="evenodd" fill-opacity="1" /><path clip-path="url(#clip520)" d="M723.163 1457.36 L729.369 1457.36 L729.369 1435.94 L722.617 1437.29 L722.617 1433.83 L729.332 1432.48 L733.131 1432.48 L733.131 1457.36 L739.337 1457.36 L739.337 1460.56 L723.163 1460.56 L723.163 1457.36 Z" fill="#000000" fill-rule="evenodd" fill-opacity="1" /><path clip-path="url(#clip520)" d="M1269.39 1484.03 L1277.03 1484.03 L1277.03 1457.67 L1268.72 1459.34 L1268.72 1455.08 L1276.99 1453.41 L1281.66 1453.41 L1281.66 1484.03 L1289.3 1484.03 L1289.3 1487.97 L1269.39 1487.97 L1269.39 1484.03 Z" fill="#000000" fill-rule="evenodd" fill-opacity="1" /><path clip-path="url(#clip520)" d="M1308.74 1456.49 Q1305.13 1456.49 1303.3 1460.05 Q1301.5 1463.59 1301.5 1470.72 Q1301.5 1477.83 1303.3 1481.4 Q1305.13 1484.94 1308.74 1484.94 Q1312.38 1484.94 1314.18 1481.4 Q1316.01 1477.83 1316.01 1470.72 Q1316.01 1463.59 1314.18 1460.05 Q1312.38 1456.49 1308.74 1456.49 M1308.74 1452.78 Q1314.55 1452.78 1317.61 1457.39 Q1320.69 1461.97 1320.69 1470.72 Q1320.69 1479.45 1317.61 1484.06 Q1314.55 1488.64 1308.74 1488.64 Q1302.93 1488.64 1299.86 1484.06 Q1296.8 1479.45 1296.8 1470.72 Q1296.8 1461.97 1299.86 1457.39 Q1302.93 1452.78 1308.74 1452.78 Z" fill="#000000" fill-rule="evenodd" fill-opacity="1" /><path clip-path="url(#clip520)" d="M1330.39 1434.98 Q1327.46 1434.98 1325.97 1437.88 Q1324.51 1440.75 1324.51 1446.55 Q1324.51 1452.32 1325.97 1455.22 Q1327.46 1458.09 1330.39 1458.09 Q1333.35 1458.09 1334.81 1455.22 Q1336.3 1452.32 1336.3 1446.55 Q1336.3 1440.75 1334.81 1437.88 Q1333.35 1434.98 1330.39 1434.98 M1330.39 1431.97 Q1335.11 1431.97 1337.6 1435.71 Q1340.1 1439.44 1340.1 1446.55 Q1340.1 1453.64 1337.6 1457.38 Q1335.11 1461.1 1330.39 1461.1 Q1325.67 1461.1 1323.17 1457.38 Q1320.69 1453.64 1320.69 1446.55 Q1320.69 1439.44 1323.17 1435.71 Q1325.67 1431.97 1330.39 1431.97 Z" fill="#000000" fill-rule="evenodd" fill-opacity="1" /><path clip-path="url(#clip520)" d="M1886.37 1484.03 L1894.01 1484.03 L1894.01 1457.67 L1885.7 1459.34 L1885.7 1455.08 L1893.96 1453.41 L1898.63 1453.41 L1898.63 1484.03 L1906.27 1484.03 L1906.27 1487.97 L1886.37 1487.97 L1886.37 1484.03 Z" fill="#000000" fill-rule="evenodd" fill-opacity="1" /><path clip-path="url(#clip520)" d="M1925.72 1456.49 Q1922.11 1456.49 1920.28 1460.05 Q1918.47 1463.59 1918.47 1470.72 Q1918.47 1477.83 1920.28 1481.4 Q1922.11 1484.94 1925.72 1484.94 Q1929.35 1484.94 1931.16 1481.4 Q1932.99 1477.83 1932.99 1470.72 Q1932.99 1463.59 1931.16 1460.05 Q1929.35 1456.49 1925.72 1456.49 M1925.72 1452.78 Q1931.53 1452.78 1934.58 1457.39 Q1937.66 1461.97 1937.66 1470.72 Q1937.66 1479.45 1934.58 1484.06 Q1931.53 1488.64 1925.72 1488.64 Q1919.91 1488.64 1916.83 1484.06 Q1913.77 1479.45 1913.77 1470.72 Q1913.77 1461.97 1916.83 1457.39 Q1919.91 1452.78 1925.72 1452.78 Z" fill="#000000" fill-rule="evenodd" fill-opacity="1" /><path clip-path="url(#clip520)" d="M1938.21 1457.36 L1944.41 1457.36 L1944.41 1435.94 L1937.66 1437.29 L1937.66 1433.83 L1944.38 1432.48 L1948.18 1432.48 L1948.18 1457.36 L1954.38 1457.36 L1954.38 1460.56 L1938.21 1460.56 L1938.21 1457.36 Z" fill="#000000" fill-rule="evenodd" fill-opacity="1" /><path clip-path="url(#clip520)" d="M1249.89 1597.28 Q1249.89 1597.83 1249.51 1598.21 Q1249.12 1598.6 1248.57 1598.6 Q1247.64 1598.6 1247.32 1597.73 L1235.05 1566.07 Q1234.98 1565.94 1234.98 1565.62 Q1234.98 1565.3 1235.05 1565.17 L1247.32 1533.51 Q1247.64 1532.64 1248.57 1532.64 Q1249.12 1532.64 1249.51 1533.03 Q1249.89 1533.42 1249.89 1533.96 Q1249.89 1534.29 1249.83 1534.41 L1237.69 1565.62 L1249.83 1596.83 Q1249.89 1596.96 1249.89 1597.28 Z" fill="#000000" fill-rule="evenodd" fill-opacity="1" /><path clip-path="url(#clip520)" d="M1296.12 1572.67 Q1296.12 1572.93 1295.83 1573.93 Q1295.54 1574.93 1294.83 1576.48 Q1294.16 1578.02 1293.22 1579.44 Q1292.29 1580.82 1290.74 1581.85 Q1289.23 1582.85 1287.49 1582.85 Q1285.17 1582.85 1283.63 1581.31 Q1282.08 1579.76 1282.08 1577.44 Q1282.08 1576.15 1282.76 1574.38 Q1287.04 1562.95 1287.04 1559.02 Q1287.04 1554.41 1283.46 1554.41 Q1281.69 1554.41 1280.02 1555.09 Q1278.38 1555.73 1277.25 1556.64 Q1276.12 1557.54 1275.09 1558.79 Q1274.09 1560.02 1273.58 1560.86 Q1273.09 1561.66 1272.71 1562.47 L1271.87 1565.75 Q1271.68 1566.65 1270.74 1570.16 L1269.29 1576.12 Q1268.26 1580.57 1268.04 1580.98 Q1267.72 1581.89 1267.01 1582.37 Q1266.3 1582.85 1265.59 1582.85 Q1264.78 1582.85 1264.24 1582.37 Q1263.69 1581.89 1263.69 1581.05 Q1263.69 1580.92 1263.79 1580.44 Q1263.88 1579.95 1264.04 1579.28 Q1264.21 1578.6 1264.27 1578.21 L1268.1 1562.98 Q1268.81 1560.21 1268.97 1559.34 Q1269.16 1558.44 1269.16 1557.44 Q1269.16 1554.41 1267.1 1554.41 Q1265.43 1554.41 1264.33 1556.41 Q1263.24 1558.41 1262.31 1562.27 Q1262.02 1563.34 1261.82 1563.56 Q1261.66 1563.79 1261.18 1563.79 Q1260.37 1563.75 1260.37 1563.11 Q1260.37 1562.95 1260.63 1561.89 Q1260.89 1560.82 1261.37 1559.31 Q1261.89 1557.76 1262.37 1556.73 Q1262.79 1555.96 1263.01 1555.61 Q1263.27 1555.22 1263.88 1554.48 Q1264.53 1553.71 1265.36 1553.35 Q1266.23 1552.96 1267.3 1552.96 Q1269.68 1552.96 1271.42 1554.51 Q1273.16 1556.02 1273.38 1558.7 Q1277.67 1552.96 1283.66 1552.96 Q1287.2 1552.96 1289.23 1554.83 Q1291.26 1556.7 1291.26 1560.02 Q1291.26 1560.79 1291.1 1561.79 Q1290.97 1562.76 1290.65 1563.98 Q1290.36 1565.2 1290.1 1566.14 Q1289.84 1567.07 1289.33 1568.58 Q1288.81 1570.07 1288.59 1570.71 Q1288.36 1571.35 1287.81 1572.87 Q1287.3 1574.35 1287.23 1574.51 Q1286.04 1577.51 1286.04 1579.21 Q1286.04 1580.34 1286.4 1580.86 Q1286.78 1581.37 1287.62 1581.37 Q1289.87 1581.37 1291.55 1579.15 Q1293.25 1576.89 1294.35 1573.22 Q1294.61 1572.42 1294.74 1572.22 Q1294.9 1572.03 1295.35 1572.03 Q1296.12 1572.03 1296.12 1572.67 Z" fill="#000000" fill-rule="evenodd" fill-opacity="1" /><path clip-path="url(#clip520)" d="M1315.63 1539.62 Q1315.63 1538.83 1316.69 1538.31 L1323.12 1535.27 L1316.6 1532.23 Q1315.63 1531.78 1315.63 1530.99 Q1315.63 1530.54 1315.99 1530.13 Q1316.37 1529.7 1316.87 1529.7 Q1317.23 1529.7 1317.89 1530.2 L1323.61 1534.35 Q1322.91 1526.73 1322.94 1526.5 Q1322.94 1526.05 1323.27 1525.71 Q1323.61 1525.35 1324.18 1525.35 Q1324.63 1525.35 1324.99 1525.69 Q1325.37 1526 1325.37 1526.5 L1324.69 1534.35 L1329.81 1530.56 Q1331.01 1529.68 1331.43 1529.7 Q1331.95 1529.7 1332.31 1530.11 Q1332.67 1530.51 1332.67 1530.99 Q1332.67 1531.78 1331.61 1532.27 L1325.19 1535.31 L1331.7 1538.38 Q1332.67 1538.83 1332.67 1539.62 Q1332.67 1540.07 1332.29 1540.5 Q1331.93 1540.91 1331.43 1540.91 Q1331.16 1540.91 1330.69 1540.64 Q1330.6 1540.59 1329.63 1539.87 Q1328.66 1539.15 1327.15 1538.04 Q1325.66 1536.94 1324.69 1536.24 Q1325.39 1543.86 1325.37 1544.08 Q1325.37 1544.54 1325.03 1544.9 Q1324.69 1545.26 1324.13 1545.26 Q1323.68 1545.26 1323.3 1544.94 Q1322.94 1544.6 1322.94 1544.08 L1323.61 1536.24 L1317.16 1540.91 Q1316.47 1540.91 1316.08 1540.57 Q1315.72 1540.21 1315.68 1540 Q1315.63 1539.8 1315.63 1539.62 Z" fill="#000000" fill-rule="evenodd" fill-opacity="1" /><path clip-path="url(#clip520)" d="M1373.16 1565.17 Q1373.23 1565.3 1373.23 1565.62 Q1373.23 1565.94 1373.16 1566.07 L1360.89 1597.73 Q1360.57 1598.6 1359.67 1598.6 Q1359.12 1598.6 1358.73 1598.21 Q1358.35 1597.83 1358.35 1597.28 Q1358.35 1596.96 1358.41 1596.83 L1370.52 1565.62 L1358.41 1534.41 Q1358.35 1534.29 1358.35 1533.96 Q1358.35 1533.42 1358.73 1533.03 Q1359.12 1532.64 1359.67 1532.64 Q1360.57 1532.64 1360.89 1533.51 L1373.16 1565.17 Z" fill="#000000" fill-rule="evenodd" fill-opacity="1" /><polyline clip-path="url(#clip520)" style="stroke:#000000; stroke-linecap:butt; stroke-linejoin:round; stroke-width:4; stroke-opacity:1; fill:none" points="
  265.964,1409.91 265.964,47.2441 
  "/>
<polyline clip-path="url(#clip520)" style="stroke:#000000; stroke-linecap:butt; stroke-linejoin:round; stroke-width:4; stroke-opacity:1; fill:none" points="
  265.964,1008.15 284.862,1008.15 
  "/>
<polyline clip-path="url(#clip520)" style="stroke:#000000; stroke-linecap:butt; stroke-linejoin:round; stroke-width:4; stroke-opacity:1; fill:none" points="
  265.964,130.228 284.862,130.228 
  "/>
<path clip-path="url(#clip520)" d="M129.336 1027.94 L136.974 1027.94 L136.974 1001.58 L128.664 1003.24 L128.664 998.984 L136.928 997.317 L141.604 997.317 L141.604 1027.94 L149.243 1027.94 L149.243 1031.88 L129.336 1031.88 L129.336 1027.94 Z" fill="#000000" fill-rule="evenodd" fill-opacity="1" /><path clip-path="url(#clip520)" d="M168.687 1000.4 Q165.076 1000.4 163.247 1003.96 Q161.442 1007.5 161.442 1014.63 Q161.442 1021.74 163.247 1025.3 Q165.076 1028.84 168.687 1028.84 Q172.322 1028.84 174.127 1025.3 Q175.956 1021.74 175.956 1014.63 Q175.956 1007.5 174.127 1003.96 Q172.322 1000.4 168.687 1000.4 M168.687 996.692 Q174.497 996.692 177.553 1001.3 Q180.632 1005.88 180.632 1014.63 Q180.632 1023.36 177.553 1027.97 Q174.497 1032.55 168.687 1032.55 Q162.877 1032.55 159.798 1027.97 Q156.743 1023.36 156.743 1014.63 Q156.743 1005.88 159.798 1001.3 Q162.877 996.692 168.687 996.692 Z" fill="#000000" fill-rule="evenodd" fill-opacity="1" /><path clip-path="url(#clip520)" d="M180.632 990.794 L204.743 990.794 L204.743 993.991 L180.632 993.991 L180.632 990.794 Z" fill="#000000" fill-rule="evenodd" fill-opacity="1" /><path clip-path="url(#clip520)" d="M212.981 976.387 L227.896 976.387 L227.896 979.584 L216.46 979.584 L216.46 986.468 Q217.288 986.186 218.116 986.054 Q218.943 985.904 219.771 985.904 Q224.473 985.904 227.219 988.48 Q229.964 991.057 229.964 995.458 Q229.964 999.991 227.143 1002.51 Q224.322 1005.01 219.188 1005.01 Q217.42 1005.01 215.576 1004.71 Q213.752 1004.41 211.796 1003.81 L211.796 999.991 Q213.489 1000.91 215.294 1001.36 Q217.1 1001.81 219.112 1001.81 Q222.366 1001.81 224.266 1000.1 Q226.165 998.392 226.165 995.458 Q226.165 992.524 224.266 990.812 Q222.366 989.101 219.112 989.101 Q217.589 989.101 216.065 989.439 Q214.561 989.778 212.981 990.493 L212.981 976.387 Z" fill="#000000" fill-rule="evenodd" fill-opacity="1" /><path clip-path="url(#clip520)" d="M159.259 150.021 L166.898 150.021 L166.898 123.655 L158.588 125.322 L158.588 121.063 L166.851 119.396 L171.527 119.396 L171.527 150.021 L179.166 150.021 L179.166 153.956 L159.259 153.956 L159.259 150.021 Z" fill="#000000" fill-rule="evenodd" fill-opacity="1" /><path clip-path="url(#clip520)" d="M198.61 122.475 Q194.999 122.475 193.171 126.039 Q191.365 129.581 191.365 136.711 Q191.365 143.817 193.171 147.382 Q194.999 150.924 198.61 150.924 Q202.245 150.924 204.05 147.382 Q205.879 143.817 205.879 136.711 Q205.879 129.581 204.05 126.039 Q202.245 122.475 198.61 122.475 M198.61 118.771 Q204.421 118.771 207.476 123.377 Q210.555 127.961 210.555 136.711 Q210.555 145.437 207.476 150.044 Q204.421 154.627 198.61 154.627 Q192.8 154.627 189.722 150.044 Q186.666 145.437 186.666 136.711 Q186.666 127.961 189.722 123.377 Q192.8 118.771 198.61 118.771 Z" fill="#000000" fill-rule="evenodd" fill-opacity="1" /><path clip-path="url(#clip520)" d="M220.26 100.967 Q217.326 100.967 215.84 103.863 Q214.373 106.741 214.373 112.534 Q214.373 118.308 215.84 121.204 Q217.326 124.082 220.26 124.082 Q223.212 124.082 224.679 121.204 Q226.165 118.308 226.165 112.534 Q226.165 106.741 224.679 103.863 Q223.212 100.967 220.26 100.967 M220.26 97.9577 Q224.98 97.9577 227.463 101.7 Q229.964 105.424 229.964 112.534 Q229.964 119.624 227.463 123.367 Q224.98 127.091 220.26 127.091 Q215.539 127.091 213.037 123.367 Q210.555 119.624 210.555 112.534 Q210.555 105.424 213.037 101.7 Q215.539 97.9577 220.26 97.9577 Z" fill="#000000" fill-rule="evenodd" fill-opacity="1" /><path clip-path="url(#clip520)" d="M101.009 949.927 Q101.557 949.927 101.943 950.313 Q102.33 950.7 102.33 951.247 Q102.33 952.181 101.46 952.503 L69.8017 964.774 Q69.6729 964.838 69.3508 964.838 Q69.0288 964.838 68.8999 964.774 L37.2416 952.503 Q36.372 952.181 36.372 951.247 Q36.372 950.7 36.7585 950.313 Q37.145 949.927 37.6925 949.927 Q38.0145 949.927 38.1433 949.991 L69.3508 962.133 L100.558 949.991 Q100.687 949.927 101.009 949.927 Z" fill="#000000" fill-rule="evenodd" fill-opacity="1" /><path clip-path="url(#clip520)" d="M76.4039 903.698 Q76.6616 903.698 77.6599 903.988 Q78.6583 904.278 80.2042 904.986 Q81.7501 905.663 83.1671 906.597 Q84.552 907.531 85.5826 909.077 Q86.581 910.59 86.581 912.329 Q86.581 914.648 85.0351 916.194 Q83.4892 917.74 81.1704 917.74 Q79.8821 917.74 78.1108 917.064 Q66.6777 912.78 62.7486 912.78 Q58.1432 912.78 58.1432 916.355 Q58.1432 918.126 58.8195 919.801 Q59.4636 921.444 60.3654 922.571 Q61.2672 923.698 62.5232 924.729 Q63.747 925.727 64.5844 926.242 Q65.3895 926.725 66.1946 927.112 L69.4796 927.949 Q70.3814 928.142 73.8918 929.076 L79.8499 930.526 Q84.2943 931.556 84.713 931.782 Q85.6148 932.104 86.0979 932.812 Q86.581 933.521 86.581 934.229 Q86.581 935.035 86.0979 935.582 Q85.6148 936.13 84.7774 936.13 Q84.6486 936.13 84.1655 936.033 Q83.6824 935.936 83.0061 935.775 Q82.3298 935.614 81.9433 935.55 L66.7099 931.717 Q63.9402 931.009 63.0707 930.848 Q62.1689 930.655 61.1705 930.655 Q58.1432 930.655 58.1432 932.716 Q58.1432 934.39 60.1399 935.485 Q62.1367 936.58 66.0014 937.514 Q67.0642 937.804 67.2896 937.997 Q67.5151 938.159 67.5151 938.642 Q67.4829 939.447 66.8388 939.447 Q66.6777 939.447 65.6149 939.189 Q64.5521 938.931 63.0385 938.448 Q61.4926 937.933 60.462 937.45 Q59.6891 937.031 59.3348 936.806 Q58.9483 936.548 58.2076 935.936 Q57.4347 935.292 57.0804 934.455 Q56.6939 933.585 56.6939 932.522 Q56.6939 930.139 58.2398 928.4 Q59.7535 926.661 62.4266 926.436 Q56.6939 922.152 56.6939 916.162 Q56.6939 912.619 58.5619 910.59 Q60.4298 908.561 63.747 908.561 Q64.5199 908.561 65.5183 908.722 Q66.4845 908.851 67.7083 909.173 Q68.9321 909.463 69.8661 909.721 Q70.8001 909.978 72.3138 910.494 Q73.7952 911.009 74.4393 911.234 Q75.0835 911.46 76.5971 912.007 Q78.0786 912.523 78.2396 912.587 Q81.2348 913.779 82.9417 913.779 Q84.0689 913.779 84.5842 913.424 Q85.0995 913.038 85.0995 912.201 Q85.0995 909.946 82.8773 908.271 Q80.6229 906.565 76.9514 905.47 Q76.1463 905.212 75.953 905.083 Q75.7598 904.922 75.7598 904.471 Q75.7598 903.698 76.4039 903.698 Z" fill="#000000" fill-rule="evenodd" fill-opacity="1" /><path clip-path="url(#clip520)" d="M66.1035 897.001 Q65.2694 897.001 65.0214 896.933 Q64.7734 896.843 64.3902 896.482 L54.5158 887.622 Q49.0602 882.775 44.3034 882.775 Q41.2148 882.775 39.0055 884.398 Q36.7962 885.999 36.7962 888.952 Q36.7962 890.981 38.0361 892.695 Q39.276 894.408 41.4853 895.197 Q41.4403 895.062 41.4403 894.588 Q41.4403 893.439 42.1617 892.807 Q42.8831 892.154 43.8525 892.154 Q45.0924 892.154 45.7011 892.965 Q46.2872 893.754 46.2872 894.543 Q46.2872 894.859 46.2196 895.287 Q46.152 895.693 45.5207 896.347 Q44.867 897.001 43.7172 897.001 Q40.4934 897.001 37.9234 894.566 Q35.3533 892.108 35.3533 888.366 Q35.3533 884.128 37.8783 881.355 Q40.3807 878.559 44.3034 878.559 Q45.6785 878.559 46.941 878.988 Q48.1809 879.394 49.1503 879.957 Q50.1197 880.498 51.6753 881.986 Q53.2308 883.474 54.3355 884.669 Q55.4401 885.864 57.7847 888.546 L62.5415 893.439 L62.5415 885.12 Q62.5415 881.062 62.1808 880.746 Q61.5271 880.295 58.0778 879.732 L58.0778 878.559 L66.1035 879.867 L66.1035 897.001 Z" fill="#000000" fill-rule="evenodd" fill-opacity="1" /><path clip-path="url(#clip520)" d="M68.8999 856.891 Q69.0288 856.827 69.3508 856.827 Q69.6729 856.827 69.8017 856.891 L101.46 869.162 Q102.33 869.484 102.33 870.385 Q102.33 870.933 101.943 871.319 Q101.557 871.706 101.009 871.706 Q100.687 871.706 100.558 871.641 L69.3508 859.532 L38.1433 871.641 Q38.0145 871.706 37.6925 871.706 Q37.145 871.706 36.7585 871.319 Q36.372 870.933 36.372 870.385 Q36.372 869.484 37.2416 869.162 L68.8999 856.891 Z" fill="#000000" fill-rule="evenodd" fill-opacity="1" /><path clip-path="url(#clip520)" d="M23.2247 837.12 Q22.4357 837.12 21.9172 836.06 L18.8737 829.635 L15.8303 836.15 Q15.3794 837.12 14.5903 837.12 Q14.1395 837.12 13.7337 836.759 Q13.3053 836.376 13.3053 835.88 Q13.3053 835.519 13.8013 834.865 L17.9494 829.139 Q10.3295 829.838 10.1041 829.815 Q9.65319 829.815 9.31503 829.477 Q8.95432 829.139 8.95432 828.575 Q8.95432 828.125 9.29248 827.764 Q9.6081 827.381 10.1041 827.381 L17.9494 828.057 L14.162 822.939 Q13.2828 821.745 13.3053 821.316 Q13.3053 820.798 13.7111 820.437 Q14.1169 820.076 14.5903 820.076 Q15.3794 820.076 15.8754 821.136 L18.9188 827.561 L21.9848 821.046 Q22.4357 820.076 23.2247 820.076 Q23.6756 820.076 24.104 820.46 Q24.5098 820.82 24.5098 821.316 Q24.5098 821.587 24.2392 822.06 Q24.1941 822.15 23.4727 823.12 Q22.7513 824.089 21.6467 825.6 Q20.542 827.087 19.8431 828.057 Q27.463 827.358 27.6885 827.381 Q28.1394 827.381 28.5001 827.719 Q28.8608 828.057 28.8608 828.62 Q28.8608 829.071 28.5451 829.455 Q28.207 829.815 27.6885 829.815 L19.8431 829.139 L24.5098 835.587 Q24.5098 836.285 24.1716 836.669 Q23.8109 837.029 23.608 837.075 Q23.4051 837.12 23.2247 837.12 Z" fill="#000000" fill-rule="evenodd" fill-opacity="1" /><path clip-path="url(#clip520)" d="M68.4169 732.558 Q68.8033 732.172 69.3508 732.172 Q69.8983 732.172 70.2848 732.558 Q70.6713 732.944 70.6713 733.492 L70.6713 774.78 Q70.6713 775.327 70.2848 775.714 Q69.8983 776.1 69.3508 776.1 Q68.8033 776.1 68.4169 775.714 Q68.0304 775.327 68.0304 774.78 L68.0304 733.492 Q68.0304 732.944 68.4169 732.558 Z" fill="#000000" fill-rule="evenodd" fill-opacity="1" /><path clip-path="url(#clip520)" d="M69.3508 706.983 Q58.2076 706.983 49.2222 702.829 Q45.4541 701.058 42.2979 698.578 Q39.1417 696.098 37.7569 694.455 Q36.372 692.813 36.372 692.362 Q36.372 691.718 37.0161 691.686 Q37.3382 691.686 38.1433 692.555 Q48.9645 703.183 69.3508 703.151 Q89.8015 703.151 100.204 692.813 Q101.331 691.686 101.686 691.686 Q102.33 691.686 102.33 692.362 Q102.33 692.813 101.009 694.391 Q99.6887 695.969 96.6614 698.417 Q93.634 700.864 89.9304 702.636 Q80.9449 706.983 69.3508 706.983 Z" fill="#000000" fill-rule="evenodd" fill-opacity="1" /><path clip-path="url(#clip520)" d="M101.009 666.745 Q101.557 666.745 101.943 667.131 Q102.33 667.518 102.33 668.065 Q102.33 668.999 101.46 669.321 L69.8017 681.592 Q69.6729 681.656 69.3508 681.656 Q69.0288 681.656 68.8999 681.592 L37.2416 669.321 Q36.372 668.999 36.372 668.065 Q36.372 667.518 36.7585 667.131 Q37.145 666.745 37.6925 666.745 Q38.0145 666.745 38.1433 666.809 L69.3508 678.951 L100.558 666.809 Q100.687 666.745 101.009 666.745 Z" fill="#000000" fill-rule="evenodd" fill-opacity="1" /><path clip-path="url(#clip520)" d="M76.4039 620.516 Q76.6616 620.516 77.6599 620.806 Q78.6583 621.096 80.2042 621.805 Q81.7501 622.481 83.1671 623.415 Q84.552 624.349 85.5826 625.895 Q86.581 627.408 86.581 629.147 Q86.581 631.466 85.0351 633.012 Q83.4892 634.558 81.1704 634.558 Q79.8821 634.558 78.1108 633.882 Q66.6777 629.598 62.7486 629.598 Q58.1432 629.598 58.1432 633.173 Q58.1432 634.945 58.8195 636.619 Q59.4636 638.262 60.3654 639.389 Q61.2672 640.516 62.5232 641.547 Q63.747 642.545 64.5844 643.06 Q65.3895 643.543 66.1946 643.93 L69.4796 644.767 Q70.3814 644.961 73.8918 645.895 L79.8499 647.344 Q84.2943 648.374 84.713 648.6 Q85.6148 648.922 86.0979 649.63 Q86.581 650.339 86.581 651.047 Q86.581 651.853 86.0979 652.4 Q85.6148 652.948 84.7774 652.948 Q84.6486 652.948 84.1655 652.851 Q83.6824 652.754 83.0061 652.593 Q82.3298 652.432 81.9433 652.368 L66.7099 648.535 Q63.9402 647.827 63.0707 647.666 Q62.1689 647.473 61.1705 647.473 Q58.1432 647.473 58.1432 649.534 Q58.1432 651.208 60.1399 652.303 Q62.1367 653.398 66.0014 654.332 Q67.0642 654.622 67.2896 654.816 Q67.5151 654.977 67.5151 655.46 Q67.4829 656.265 66.8388 656.265 Q66.6777 656.265 65.6149 656.007 Q64.5521 655.75 63.0385 655.266 Q61.4926 654.751 60.462 654.268 Q59.6891 653.849 59.3348 653.624 Q58.9483 653.366 58.2076 652.754 Q57.4347 652.11 57.0804 651.273 Q56.6939 650.403 56.6939 649.341 Q56.6939 646.957 58.2398 645.218 Q59.7535 643.479 62.4266 643.254 Q56.6939 638.97 56.6939 632.98 Q56.6939 629.437 58.5619 627.408 Q60.4298 625.379 63.747 625.379 Q64.5199 625.379 65.5183 625.54 Q66.4845 625.669 67.7083 625.991 Q68.9321 626.281 69.8661 626.539 Q70.8001 626.796 72.3138 627.312 Q73.7952 627.827 74.4393 628.052 Q75.0835 628.278 76.5971 628.825 Q78.0786 629.341 78.2396 629.405 Q81.2348 630.597 82.9417 630.597 Q84.0689 630.597 84.5842 630.242 Q85.0995 629.856 85.0995 629.019 Q85.0995 626.764 82.8773 625.09 Q80.6229 623.383 76.9514 622.288 Q76.1463 622.03 75.953 621.901 Q75.7598 621.74 75.7598 621.289 Q75.7598 620.516 76.4039 620.516 Z" fill="#000000" fill-rule="evenodd" fill-opacity="1" /><path clip-path="url(#clip520)" d="M68.8999 602.279 Q69.0288 602.214 69.3508 602.214 Q69.6729 602.214 69.8017 602.279 L101.46 614.549 Q102.33 614.871 102.33 615.773 Q102.33 616.321 101.943 616.707 Q101.557 617.093 101.009 617.093 Q100.687 617.093 100.558 617.029 L69.3508 604.92 L38.1433 617.029 Q38.0145 617.093 37.6925 617.093 Q37.145 617.093 36.7585 616.707 Q36.372 616.321 36.372 615.773 Q36.372 614.871 37.2416 614.549 L68.8999 602.279 Z" fill="#000000" fill-rule="evenodd" fill-opacity="1" /><path clip-path="url(#clip520)" d="M23.2247 582.507 Q22.4357 582.507 21.9172 581.448 L18.8737 575.023 L15.8303 581.538 Q15.3794 582.507 14.5903 582.507 Q14.1395 582.507 13.7337 582.147 Q13.3053 581.763 13.3053 581.267 Q13.3053 580.907 13.8013 580.253 L17.9494 574.527 Q10.3295 575.225 10.1041 575.203 Q9.65319 575.203 9.31503 574.865 Q8.95432 574.527 8.95432 573.963 Q8.95432 573.512 9.29248 573.151 Q9.6081 572.768 10.1041 572.768 L17.9494 573.445 L14.162 568.327 Q13.2828 567.132 13.3053 566.704 Q13.3053 566.185 13.7111 565.825 Q14.1169 565.464 14.5903 565.464 Q15.3794 565.464 15.8754 566.523 L18.9188 572.949 L21.9848 566.433 Q22.4357 565.464 23.2247 565.464 Q23.6756 565.464 24.104 565.847 Q24.5098 566.208 24.5098 566.704 Q24.5098 566.974 24.2392 567.448 Q24.1941 567.538 23.4727 568.507 Q22.7513 569.477 21.6467 570.987 Q20.542 572.475 19.8431 573.445 Q27.463 572.746 27.6885 572.768 Q28.1394 572.768 28.5001 573.106 Q28.8608 573.445 28.8608 574.008 Q28.8608 574.459 28.5451 574.842 Q28.207 575.203 27.6885 575.203 L19.8431 574.527 L24.5098 580.974 Q24.5098 581.673 24.1716 582.056 Q23.8109 582.417 23.608 582.462 Q23.4051 582.507 23.2247 582.507 Z" fill="#000000" fill-rule="evenodd" fill-opacity="1" /><path clip-path="url(#clip520)" d="M101.686 539.791 Q101.363 539.791 100.558 538.953 Q89.7371 528.325 69.3508 528.325 Q48.9001 528.325 38.562 538.535 Q37.3704 539.791 37.0161 539.791 Q36.372 539.791 36.372 539.146 Q36.372 538.696 37.6925 537.117 Q39.0129 535.507 42.0403 533.092 Q45.0676 530.644 48.7713 528.841 Q57.7567 524.493 69.3508 524.493 Q80.494 524.493 89.4795 528.647 Q93.2476 530.419 96.4037 532.899 Q99.5599 535.378 100.945 537.021 Q102.33 538.663 102.33 539.146 Q102.33 539.791 101.686 539.791 Z" fill="#000000" fill-rule="evenodd" fill-opacity="1" /><path clip-path="url(#clip520)" d="M45.9785 517.61 Q45.1444 517.61 44.8964 517.542 Q44.6484 517.452 44.2652 517.091 L34.3908 508.232 Q28.9352 503.385 24.1784 503.385 Q21.0898 503.385 18.8805 505.008 Q16.6712 506.608 16.6712 509.562 Q16.6712 511.591 17.9111 513.304 Q19.151 515.017 21.3603 515.806 Q21.3153 515.671 21.3153 515.198 Q21.3153 514.048 22.0367 513.417 Q22.7581 512.763 23.7275 512.763 Q24.9674 512.763 25.5761 513.575 Q26.1622 514.364 26.1622 515.153 Q26.1622 515.468 26.0946 515.897 Q26.027 516.302 25.3957 516.956 Q24.742 517.61 23.5922 517.61 Q20.3684 517.61 17.7984 515.175 Q15.2283 512.718 15.2283 508.976 Q15.2283 504.737 17.7533 501.964 Q20.2557 499.169 24.1784 499.169 Q25.5535 499.169 26.816 499.597 Q28.0559 500.003 29.0253 500.567 Q29.9947 501.108 31.5503 502.596 Q33.1058 504.083 34.2105 505.278 Q35.3151 506.473 37.6597 509.156 L42.4165 514.048 L42.4165 505.729 Q42.4165 501.671 42.0558 501.356 Q41.4021 500.905 37.9528 500.341 L37.9528 499.169 L45.9785 500.476 L45.9785 517.61 Z" fill="#000000" fill-rule="evenodd" fill-opacity="1" /><circle clip-path="url(#clip522)" cx="2293.7" cy="85.8101" r="14" fill="#ffd700" fill-rule="evenodd" fill-opacity="0.5" stroke="#000000" stroke-opacity="0.5" stroke-width="3.2"/>
<circle clip-path="url(#clip522)" cx="2074.8" cy="210.613" r="14" fill="#ffd700" fill-rule="evenodd" fill-opacity="0.5" stroke="#000000" stroke-opacity="0.5" stroke-width="3.2"/>
<circle clip-path="url(#clip522)" cx="1855.92" cy="335.45" r="14" fill="#ffd700" fill-rule="evenodd" fill-opacity="0.5" stroke="#000000" stroke-opacity="0.5" stroke-width="3.2"/>
<circle clip-path="url(#clip522)" cx="1637.08" cy="461.873" r="14" fill="#ffd700" fill-rule="evenodd" fill-opacity="0.5" stroke="#000000" stroke-opacity="0.5" stroke-width="3.2"/>
<circle clip-path="url(#clip522)" cx="1418.16" cy="587.416" r="14" fill="#ffd700" fill-rule="evenodd" fill-opacity="0.5" stroke="#000000" stroke-opacity="0.5" stroke-width="3.2"/>
<circle clip-path="url(#clip522)" cx="1199.27" cy="714.996" r="14" fill="#ffd700" fill-rule="evenodd" fill-opacity="0.5" stroke="#000000" stroke-opacity="0.5" stroke-width="3.2"/>
<circle clip-path="url(#clip522)" cx="980.459" cy="845.117" r="14" fill="#ffd700" fill-rule="evenodd" fill-opacity="0.5" stroke="#000000" stroke-opacity="0.5" stroke-width="3.2"/>
<circle clip-path="url(#clip522)" cx="762.261" cy="963.391" r="14" fill="#ffd700" fill-rule="evenodd" fill-opacity="0.5" stroke="#000000" stroke-opacity="0.5" stroke-width="3.2"/>
<circle clip-path="url(#clip522)" cx="543.289" cy="1077.3" r="14" fill="#ffd700" fill-rule="evenodd" fill-opacity="0.5" stroke="#000000" stroke-opacity="0.5" stroke-width="3.2"/>
<circle clip-path="url(#clip522)" cx="325.025" cy="1189.61" r="14" fill="#ffd700" fill-rule="evenodd" fill-opacity="0.5" stroke="#000000" stroke-opacity="0.5" stroke-width="3.2"/>
<circle clip-path="url(#clip522)" cx="2293.7" cy="85.8101" r="14" fill="#ffd700" fill-rule="evenodd" fill-opacity="0.5" stroke="#000000" stroke-opacity="0.5" stroke-width="3.2"/>
<circle clip-path="url(#clip522)" cx="2074.8" cy="210.613" r="14" fill="#ffd700" fill-rule="evenodd" fill-opacity="0.5" stroke="#000000" stroke-opacity="0.5" stroke-width="3.2"/>
<circle clip-path="url(#clip522)" cx="1855.92" cy="335.45" r="14" fill="#ffd700" fill-rule="evenodd" fill-opacity="0.5" stroke="#000000" stroke-opacity="0.5" stroke-width="3.2"/>
<circle clip-path="url(#clip522)" cx="1637.08" cy="461.873" r="14" fill="#ffd700" fill-rule="evenodd" fill-opacity="0.5" stroke="#000000" stroke-opacity="0.5" stroke-width="3.2"/>
<circle clip-path="url(#clip522)" cx="1418.16" cy="587.416" r="14" fill="#ffd700" fill-rule="evenodd" fill-opacity="0.5" stroke="#000000" stroke-opacity="0.5" stroke-width="3.2"/>
<circle clip-path="url(#clip522)" cx="1199.27" cy="714.996" r="14" fill="#ffd700" fill-rule="evenodd" fill-opacity="0.5" stroke="#000000" stroke-opacity="0.5" stroke-width="3.2"/>
<circle clip-path="url(#clip522)" cx="980.459" cy="845.117" r="14" fill="#ffd700" fill-rule="evenodd" fill-opacity="0.5" stroke="#000000" stroke-opacity="0.5" stroke-width="3.2"/>
<circle clip-path="url(#clip522)" cx="762.261" cy="963.391" r="14" fill="#ffd700" fill-rule="evenodd" fill-opacity="0.5" stroke="#000000" stroke-opacity="0.5" stroke-width="3.2"/>
<circle clip-path="url(#clip522)" cx="543.289" cy="1077.3" r="14" fill="#ffd700" fill-rule="evenodd" fill-opacity="0.5" stroke="#000000" stroke-opacity="0.5" stroke-width="3.2"/>
<circle clip-path="url(#clip522)" cx="325.025" cy="1189.61" r="14" fill="#ffd700" fill-rule="evenodd" fill-opacity="0.5" stroke="#000000" stroke-opacity="0.5" stroke-width="3.2"/>
<circle clip-path="url(#clip522)" cx="2293.7" cy="85.8101" r="14" fill="#009af9" fill-rule="evenodd" fill-opacity="0.5" stroke="#000000" stroke-opacity="0.5" stroke-width="3.2"/>
<circle clip-path="url(#clip522)" cx="2074.8" cy="210.613" r="14" fill="#009af9" fill-rule="evenodd" fill-opacity="0.5" stroke="#000000" stroke-opacity="0.5" stroke-width="3.2"/>
<circle clip-path="url(#clip522)" cx="1855.92" cy="335.45" r="14" fill="#009af9" fill-rule="evenodd" fill-opacity="0.5" stroke="#000000" stroke-opacity="0.5" stroke-width="3.2"/>
<circle clip-path="url(#clip522)" cx="1637.08" cy="461.873" r="14" fill="#009af9" fill-rule="evenodd" fill-opacity="0.5" stroke="#000000" stroke-opacity="0.5" stroke-width="3.2"/>
<circle clip-path="url(#clip522)" cx="1418.16" cy="587.416" r="14" fill="#009af9" fill-rule="evenodd" fill-opacity="0.5" stroke="#000000" stroke-opacity="0.5" stroke-width="3.2"/>
<circle clip-path="url(#clip522)" cx="1199.27" cy="714.996" r="14" fill="#009af9" fill-rule="evenodd" fill-opacity="0.5" stroke="#000000" stroke-opacity="0.5" stroke-width="3.2"/>
<circle clip-path="url(#clip522)" cx="980.459" cy="845.117" r="14" fill="#009af9" fill-rule="evenodd" fill-opacity="0.5" stroke="#000000" stroke-opacity="0.5" stroke-width="3.2"/>
<circle clip-path="url(#clip522)" cx="762.261" cy="963.391" r="14" fill="#009af9" fill-rule="evenodd" fill-opacity="0.5" stroke="#000000" stroke-opacity="0.5" stroke-width="3.2"/>
<circle clip-path="url(#clip522)" cx="543.289" cy="1077.3" r="14" fill="#009af9" fill-rule="evenodd" fill-opacity="0.5" stroke="#000000" stroke-opacity="0.5" stroke-width="3.2"/>
<circle clip-path="url(#clip522)" cx="325.025" cy="1189.61" r="14" fill="#009af9" fill-rule="evenodd" fill-opacity="0.5" stroke="#000000" stroke-opacity="0.5" stroke-width="3.2"/>
<circle clip-path="url(#clip522)" cx="2293.68" cy="88.0519" r="14" fill="#0000ff" fill-rule="evenodd" fill-opacity="0.5" stroke="#000000" stroke-opacity="0.5" stroke-width="3.2"/>
<circle clip-path="url(#clip522)" cx="2074.82" cy="214.177" r="14" fill="#0000ff" fill-rule="evenodd" fill-opacity="0.5" stroke="#000000" stroke-opacity="0.5" stroke-width="3.2"/>
<circle clip-path="url(#clip522)" cx="1855.93" cy="342.177" r="14" fill="#0000ff" fill-rule="evenodd" fill-opacity="0.5" stroke="#000000" stroke-opacity="0.5" stroke-width="3.2"/>
<circle clip-path="url(#clip522)" cx="1637.05" cy="484.135" r="14" fill="#0000ff" fill-rule="evenodd" fill-opacity="0.5" stroke="#000000" stroke-opacity="0.5" stroke-width="3.2"/>
<circle clip-path="url(#clip522)" cx="1418.68" cy="626.629" r="14" fill="#0000ff" fill-rule="evenodd" fill-opacity="0.5" stroke="#000000" stroke-opacity="0.5" stroke-width="3.2"/>
<circle clip-path="url(#clip522)" cx="1200.6" cy="741.813" r="14" fill="#0000ff" fill-rule="evenodd" fill-opacity="0.5" stroke="#000000" stroke-opacity="0.5" stroke-width="3.2"/>
<circle clip-path="url(#clip522)" cx="982.447" cy="853.013" r="14" fill="#0000ff" fill-rule="evenodd" fill-opacity="0.5" stroke="#000000" stroke-opacity="0.5" stroke-width="3.2"/>
<circle clip-path="url(#clip522)" cx="768.755" cy="962.516" r="14" fill="#0000ff" fill-rule="evenodd" fill-opacity="0.5" stroke="#000000" stroke-opacity="0.5" stroke-width="3.2"/>
<circle clip-path="url(#clip522)" cx="555.507" cy="1067.55" r="14" fill="#0000ff" fill-rule="evenodd" fill-opacity="0.5" stroke="#000000" stroke-opacity="0.5" stroke-width="3.2"/>
<circle clip-path="url(#clip522)" cx="340.911" cy="1172.57" r="14" fill="#0000ff" fill-rule="evenodd" fill-opacity="0.5" stroke="#000000" stroke-opacity="0.5" stroke-width="3.2"/>
<circle clip-path="url(#clip522)" cx="2293.69" cy="113.794" r="14" fill="#ff0000" fill-rule="evenodd" fill-opacity="0.5" stroke="#000000" stroke-opacity="0.5" stroke-width="3.2"/>
<circle clip-path="url(#clip522)" cx="2074.64" cy="264.262" r="14" fill="#ff0000" fill-rule="evenodd" fill-opacity="0.5" stroke="#000000" stroke-opacity="0.5" stroke-width="3.2"/>
<circle clip-path="url(#clip522)" cx="1855.13" cy="421.137" r="14" fill="#ff0000" fill-rule="evenodd" fill-opacity="0.5" stroke="#000000" stroke-opacity="0.5" stroke-width="3.2"/>
<circle clip-path="url(#clip522)" cx="1640.81" cy="570.094" r="14" fill="#ff0000" fill-rule="evenodd" fill-opacity="0.5" stroke="#000000" stroke-opacity="0.5" stroke-width="3.2"/>
<circle clip-path="url(#clip522)" cx="1425.36" cy="656.949" r="14" fill="#ff0000" fill-rule="evenodd" fill-opacity="0.5" stroke="#000000" stroke-opacity="0.5" stroke-width="3.2"/>
<circle clip-path="url(#clip522)" cx="1219.99" cy="760.497" r="14" fill="#ff0000" fill-rule="evenodd" fill-opacity="0.5" stroke="#000000" stroke-opacity="0.5" stroke-width="3.2"/>
<circle clip-path="url(#clip522)" cx="1018.79" cy="854.585" r="14" fill="#ff0000" fill-rule="evenodd" fill-opacity="0.5" stroke="#000000" stroke-opacity="0.5" stroke-width="3.2"/>
<circle clip-path="url(#clip522)" cx="825.571" cy="943.592" r="14" fill="#ff0000" fill-rule="evenodd" fill-opacity="0.5" stroke="#000000" stroke-opacity="0.5" stroke-width="3.2"/>
<circle clip-path="url(#clip522)" cx="641.281" cy="1027.47" r="14" fill="#ff0000" fill-rule="evenodd" fill-opacity="0.5" stroke="#000000" stroke-opacity="0.5" stroke-width="3.2"/>
<circle clip-path="url(#clip522)" cx="452.547" cy="1113.81" r="14" fill="#ff0000" fill-rule="evenodd" fill-opacity="0.5" stroke="#000000" stroke-opacity="0.5" stroke-width="3.2"/>
<polyline clip-path="url(#clip522)" style="stroke:#808080; stroke-linecap:butt; stroke-linejoin:round; stroke-width:8; stroke-opacity:1; fill:none" stroke-dasharray="32, 20" points="
  2293.69,321.117 2074.64,446.064 1855.13,571.279 1640.81,693.533 1425.36,816.431 1219.99,933.578 1018.79,1048.35 825.571,1158.56 641.281,1263.69 452.547,1371.34 
  
  "/>
<path clip-path="url(#clip520)" d="
M335.524 227.74 L715.36 227.74 L715.36 92.6663 L335.524 92.6663  Z
  " fill="#ffffff" fill-rule="evenodd" fill-opacity="1"/>
<polyline clip-path="url(#clip520)" style="stroke:#000000; stroke-linecap:butt; stroke-linejoin:round; stroke-width:4; stroke-opacity:1; fill:none" points="
  335.524,227.74 715.36,227.74 715.36,92.6663 335.524,92.6663 335.524,227.74 
  "/>
<polyline clip-path="url(#clip520)" style="stroke:#808080; stroke-linecap:butt; stroke-linejoin:round; stroke-width:4; stroke-opacity:1; fill:none" stroke-dasharray="16, 10" points="
  358.711,160.203 497.83,160.203 
  "/>
<path clip-path="url(#clip520)" d="M521.017 177.016 Q521.017 168.912 524.038 162.377 Q525.326 159.637 527.13 157.341 Q528.934 155.046 530.128 154.039 Q531.323 153.031 531.651 153.031 Q532.119 153.031 532.142 153.5 Q532.142 153.734 531.51 154.32 Q523.781 162.19 523.804 177.016 Q523.804 191.889 531.323 199.455 Q532.142 200.275 532.142 200.532 Q532.142 201.001 531.651 201.001 Q531.323 201.001 530.175 200.04 Q529.027 199.08 527.247 196.878 Q525.467 194.677 524.179 191.983 Q521.017 185.448 521.017 177.016 Z" fill="#000000" fill-rule="evenodd" fill-opacity="1" /><path clip-path="url(#clip520)" d="M550.277 200.04 Q550.277 200.439 549.996 200.72 Q549.715 201.001 549.317 201.001 Q548.637 201.001 548.403 200.368 L539.479 177.344 Q539.432 177.25 539.432 177.016 Q539.432 176.782 539.479 176.688 L548.403 153.664 Q548.637 153.031 549.317 153.031 Q549.715 153.031 549.996 153.313 Q550.277 153.594 550.277 153.992 Q550.277 154.226 550.23 154.32 L541.4 177.016 L550.23 199.712 Q550.277 199.806 550.277 200.04 Z" fill="#000000" fill-rule="evenodd" fill-opacity="1" /><path clip-path="url(#clip520)" d="M575.555 175.47 Q575.555 178.843 573.845 182.146 Q572.158 185.425 569.441 187.486 Q566.748 189.547 563.984 189.547 Q561.29 189.547 559.581 187.486 Q557.894 185.401 557.894 182.005 Q557.894 180.811 558.035 179.967 Q558.175 179.124 558.667 177.157 L562.602 161.51 Q563.281 158.583 563.281 158.559 Q563.281 158.278 563.164 158.138 Q563.071 157.974 562.508 157.857 Q561.946 157.739 560.869 157.739 Q560.424 157.739 560.213 157.716 Q560.026 157.693 559.862 157.575 Q559.721 157.435 559.721 157.154 Q559.721 156.756 559.885 156.545 Q560.072 156.311 560.213 156.264 Q560.354 156.217 560.635 156.194 Q561.033 156.17 562.368 156.053 Q563.703 155.912 564.851 155.819 Q565.998 155.725 566.49 155.725 Q566.771 155.725 566.912 155.866 Q567.076 155.983 567.076 156.123 L567.099 156.24 L563.562 170.692 Q566.35 167.811 569.184 167.811 Q572.018 167.811 573.775 169.989 Q575.555 172.168 575.555 175.47 M572.088 173.362 Q572.088 171.137 571.245 170.013 Q570.425 168.865 569.067 168.865 Q567.919 168.865 566.42 169.732 Q564.921 170.598 563.328 172.706 Q563.024 173.105 562.907 173.339 Q562.813 173.573 562.602 174.369 L561.548 178.796 Q560.775 181.818 560.775 183.645 Q560.775 186.127 561.689 187.299 Q562.602 188.47 563.984 188.47 Q565.436 188.47 566.959 187.181 Q568.481 185.893 569.652 183.551 Q570.378 182.005 571.222 178.679 Q572.088 175.33 572.088 173.362 Z" fill="#000000" fill-rule="evenodd" fill-opacity="1" /><path clip-path="url(#clip520)" d="M589.032 176.688 Q589.079 176.782 589.079 177.016 Q589.079 177.25 589.032 177.344 L580.108 200.368 Q579.874 201.001 579.218 201.001 Q578.82 201.001 578.539 200.72 Q578.258 200.439 578.258 200.04 Q578.258 199.806 578.305 199.712 L587.112 177.016 L578.305 154.32 Q578.258 154.226 578.258 153.992 Q578.258 153.594 578.539 153.313 Q578.82 153.031 579.218 153.031 Q579.874 153.031 580.108 153.664 L589.032 176.688 Z" fill="#000000" fill-rule="evenodd" fill-opacity="1" /><path clip-path="url(#clip520)" d="M603.394 143.479 Q603.394 142.905 604.165 142.528 L608.838 140.314 L604.099 138.101 Q603.394 137.773 603.394 137.199 Q603.394 136.871 603.657 136.576 Q603.935 136.265 604.296 136.265 Q604.558 136.265 605.034 136.625 L609.198 139.642 Q608.69 134.1 608.707 133.936 Q608.707 133.609 608.953 133.363 Q609.198 133.1 609.608 133.1 Q609.936 133.1 610.199 133.346 Q610.477 133.576 610.477 133.936 L609.985 139.642 L613.707 136.888 Q614.576 136.248 614.888 136.265 Q615.265 136.265 615.527 136.56 Q615.79 136.855 615.79 137.199 Q615.79 137.773 615.019 138.134 L610.346 140.347 L615.084 142.577 Q615.79 142.905 615.79 143.479 Q615.79 143.807 615.511 144.118 Q615.248 144.413 614.888 144.413 Q614.691 144.413 614.347 144.217 Q614.281 144.184 613.576 143.659 Q612.871 143.134 611.773 142.331 Q610.69 141.528 609.985 141.019 Q610.494 146.561 610.477 146.725 Q610.477 147.053 610.231 147.315 Q609.985 147.578 609.576 147.578 Q609.248 147.578 608.969 147.348 Q608.707 147.102 608.707 146.725 L609.198 141.019 L604.509 144.413 Q604.001 144.413 603.722 144.167 Q603.46 143.905 603.427 143.758 Q603.394 143.61 603.394 143.479 Z" fill="#000000" fill-rule="evenodd" fill-opacity="1" /><path clip-path="url(#clip520)" d="M634.453 200.532 Q634.453 200.298 635.062 199.712 Q642.791 191.842 642.791 177.016 Q642.791 162.143 635.366 154.624 Q634.453 153.758 634.453 153.5 Q634.453 153.031 634.921 153.031 Q635.249 153.031 636.397 153.992 Q637.568 154.952 639.325 157.154 Q641.105 159.356 642.416 162.049 Q645.578 168.584 645.578 177.016 Q645.578 185.12 642.557 191.655 Q641.269 194.396 639.465 196.691 Q637.662 198.986 636.467 199.993 Q635.272 201.001 634.921 201.001 Q634.453 201.001 634.453 200.532 Z" fill="#000000" fill-rule="evenodd" fill-opacity="1" /><path clip-path="url(#clip520)" d="M650.588 160.028 Q650.588 159.421 650.637 159.241 Q650.703 159.061 650.965 158.782 L657.409 151.6 Q660.934 147.633 660.934 144.173 Q660.934 141.927 659.753 140.32 Q658.589 138.713 656.442 138.713 Q654.966 138.713 653.72 139.615 Q652.474 140.517 651.9 142.124 Q651.998 142.091 652.343 142.091 Q653.179 142.091 653.638 142.616 Q654.113 143.14 654.113 143.845 Q654.113 144.747 653.523 145.19 Q652.949 145.616 652.375 145.616 Q652.146 145.616 651.834 145.567 Q651.539 145.518 651.064 145.059 Q650.588 144.583 650.588 143.747 Q650.588 141.402 652.359 139.533 Q654.146 137.664 656.868 137.664 Q659.95 137.664 661.967 139.5 Q664 141.32 664 144.173 Q664 145.173 663.688 146.092 Q663.393 146.993 662.983 147.698 Q662.59 148.403 661.508 149.535 Q660.426 150.666 659.557 151.469 Q658.688 152.273 656.737 153.978 L653.179 157.437 L659.229 157.437 Q662.18 157.437 662.41 157.175 Q662.737 156.7 663.147 154.191 L664 154.191 L663.049 160.028 L650.588 160.028 Z" fill="#000000" fill-rule="evenodd" fill-opacity="1" /></svg>
