<?xml version="1.0" encoding="UTF-8" standalone="no"?>
<svg
   width="600"
   height="400"
   viewBox="0 0 2400 1600"
   version="1.1"
   id="svg153"
   sodipodi:docname="SM-taylor.svg"
   inkscape:version="1.2 (1:1.2+202206011327+fc4e4096c5)"
   xmlns:inkscape="http://www.inkscape.org/namespaces/inkscape"
   xmlns:sodipodi="http://sodipodi.sourceforge.net/DTD/sodipodi-0.dtd"
   xmlns="http://www.w3.org/2000/svg"
   xmlns:svg="http://www.w3.org/2000/svg"
   xmlns:ns12="http://www.iki.fi/pav/software/textext/">
  <sodipodi:namedview
     id="namedview155"
     pagecolor="#ffffff"
     bordercolor="#666666"
     borderopacity="1.0"
     inkscape:showpageshadow="2"
     inkscape:pageopacity="0.0"
     inkscape:pagecheckerboard="0"
     inkscape:deskcolor="#d1d1d1"
     showgrid="false"
     inkscape:zoom="1.47"
     inkscape:cx="302.38095"
     inkscape:cy="200.68027"
     inkscape:window-width="1920"
     inkscape:window-height="1043"
     inkscape:window-x="1366"
     inkscape:window-y="0"
     inkscape:window-maximized="1"
     inkscape:current-layer="svg153" />
  <defs
     id="defs5">
    <clipPath
       id="clip620">
      <rect
         x="0"
         y="0"
         width="2400"
         height="1600"
         id="rect2" />
    </clipPath>
  </defs>
  <path
     clip-path="url(#clip620)"
     d=" M0 1600 L2400 1600 L2400 0 L0 0  Z   "
     fill="#ffffff"
     fill-rule="evenodd"
     fill-opacity="1"
     id="path7" />
  <defs
     id="defs12">
    <clipPath
       id="clip621">
      <rect
         x="480"
         y="0"
         width="1681"
         height="1600"
         id="rect9" />
    </clipPath>
  </defs>
  <defs
     id="defs17">
    <clipPath
       id="clip622">
      <rect
         x="265"
         y="47"
         width="2088"
         height="1353"
         id="rect14" />
    </clipPath>
  </defs>
  <path
     clip-path="url(#clip620)"
     d=" M265.475 1398.94 L2352.76 1398.94 L2352.76 47.2441 L265.475 47.2441  Z   "
     fill="#ffffff"
     fill-rule="evenodd"
     fill-opacity="1"
     id="path19" />
  <polyline
     clip-path="url(#clip620)"
     style="stroke:#000000; stroke-linecap:butt; stroke-linejoin:round; stroke-width:4; stroke-opacity:1; fill:none"
     points="   265.475,1398.94 2352.76,1398.94    "
     id="polyline21" />
  <polyline
     clip-path="url(#clip620)"
     style="stroke:#000000; stroke-linecap:butt; stroke-linejoin:round; stroke-width:4; stroke-opacity:1; fill:none"
     points="   679.217,1398.94 679.217,1380.04    "
     id="polyline23" />
  <polyline
     clip-path="url(#clip620)"
     style="stroke:#000000; stroke-linecap:butt; stroke-linejoin:round; stroke-width:4; stroke-opacity:1; fill:none"
     points="   1294.62,1398.94 1294.62,1380.04    "
     id="polyline25" />
  <polyline
     clip-path="url(#clip620)"
     style="stroke:#000000; stroke-linecap:butt; stroke-linejoin:round; stroke-width:4; stroke-opacity:1; fill:none"
     points="   1910.02,1398.94 1910.02,1380.04    "
     id="polyline27" />
  <path
     clip-path="url(#clip620)"
     d="M629.332 1473.07 L636.971 1473.07 L636.971 1446.7 L628.661 1448.37 L628.661 1444.11 L636.925 1442.44 L641.601 1442.44 L641.601 1473.07 L649.24 1473.07 L649.24 1477 L629.332 1477 L629.332 1473.07 Z"
     fill="#000000"
     fill-rule="evenodd"
     fill-opacity="1"
     id="path29" />
  <path
     clip-path="url(#clip620)"
     d="M668.684 1445.52 Q665.073 1445.52 663.244 1449.08 Q661.439 1452.63 661.439 1459.76 Q661.439 1466.86 663.244 1470.43 Q665.073 1473.97 668.684 1473.97 Q672.318 1473.97 674.124 1470.43 Q675.952 1466.86 675.952 1459.76 Q675.952 1452.63 674.124 1449.08 Q672.318 1445.52 668.684 1445.52 M668.684 1441.82 Q674.494 1441.82 677.55 1446.42 Q680.628 1451.01 680.628 1459.76 Q680.628 1468.48 677.55 1473.09 Q674.494 1477.67 668.684 1477.67 Q662.874 1477.67 659.795 1473.09 Q656.74 1468.48 656.74 1459.76 Q656.74 1451.01 659.795 1446.42 Q662.874 1441.82 668.684 1441.82 Z"
     fill="#000000"
     fill-rule="evenodd"
     fill-opacity="1"
     id="path31" />
  <path
     clip-path="url(#clip620)"
     d="M680.628 1435.92 L704.74 1435.92 L704.74 1439.11 L680.628 1439.11 L680.628 1435.92 Z"
     fill="#000000"
     fill-rule="evenodd"
     fill-opacity="1"
     id="path33" />
  <path
     clip-path="url(#clip620)"
     d="M713.598 1446.39 L719.805 1446.39 L719.805 1424.97 L713.053 1426.32 L713.053 1422.86 L719.767 1421.51 L723.566 1421.51 L723.566 1446.39 L729.773 1446.39 L729.773 1449.59 L713.598 1449.59 L713.598 1446.39 Z"
     fill="#000000"
     fill-rule="evenodd"
     fill-opacity="1"
     id="path35" />
  <path
     clip-path="url(#clip620)"
     d="M1259.6 1473.07 L1267.24 1473.07 L1267.24 1446.7 L1258.93 1448.37 L1258.93 1444.11 L1267.19 1442.44 L1271.87 1442.44 L1271.87 1473.07 L1279.51 1473.07 L1279.51 1477 L1259.6 1477 L1259.6 1473.07 Z"
     fill="#000000"
     fill-rule="evenodd"
     fill-opacity="1"
     id="path37" />
  <path
     clip-path="url(#clip620)"
     d="M1298.95 1445.52 Q1295.34 1445.52 1293.51 1449.08 Q1291.71 1452.63 1291.71 1459.76 Q1291.71 1466.86 1293.51 1470.43 Q1295.34 1473.97 1298.95 1473.97 Q1302.59 1473.97 1304.39 1470.43 Q1306.22 1466.86 1306.22 1459.76 Q1306.22 1452.63 1304.39 1449.08 Q1302.59 1445.52 1298.95 1445.52 M1298.95 1441.82 Q1304.76 1441.82 1307.82 1446.42 Q1310.9 1451.01 1310.9 1459.76 Q1310.9 1468.48 1307.82 1473.09 Q1304.76 1477.67 1298.95 1477.67 Q1293.14 1477.67 1290.06 1473.09 Q1287.01 1468.48 1287.01 1459.76 Q1287.01 1451.01 1290.06 1446.42 Q1293.14 1441.82 1298.95 1441.82 Z"
     fill="#000000"
     fill-rule="evenodd"
     fill-opacity="1"
     id="path39" />
  <path
     clip-path="url(#clip620)"
     d="M1320.6 1424.01 Q1317.67 1424.01 1316.18 1426.91 Q1314.71 1429.79 1314.71 1435.58 Q1314.71 1441.35 1316.18 1444.25 Q1317.67 1447.13 1320.6 1447.13 Q1323.55 1447.13 1325.02 1444.25 Q1326.51 1441.35 1326.51 1435.58 Q1326.51 1429.79 1325.02 1426.91 Q1323.55 1424.01 1320.6 1424.01 M1320.6 1421 Q1325.32 1421 1327.8 1424.74 Q1330.31 1428.47 1330.31 1435.58 Q1330.31 1442.67 1327.8 1446.41 Q1325.32 1450.14 1320.6 1450.14 Q1315.88 1450.14 1313.38 1446.41 Q1310.9 1442.67 1310.9 1435.58 Q1310.9 1428.47 1313.38 1424.74 Q1315.88 1421 1320.6 1421 Z"
     fill="#000000"
     fill-rule="evenodd"
     fill-opacity="1"
     id="path41" />
  <path
     clip-path="url(#clip620)"
     d="M1876.34 1473.07 L1883.98 1473.07 L1883.98 1446.7 L1875.67 1448.37 L1875.67 1444.11 L1883.94 1442.44 L1888.61 1442.44 L1888.61 1473.07 L1896.25 1473.07 L1896.25 1477 L1876.34 1477 L1876.34 1473.07 Z"
     fill="#000000"
     fill-rule="evenodd"
     fill-opacity="1"
     id="path43" />
  <path
     clip-path="url(#clip620)"
     d="M1915.7 1445.52 Q1912.08 1445.52 1910.26 1449.08 Q1908.45 1452.63 1908.45 1459.76 Q1908.45 1466.86 1910.26 1470.43 Q1912.08 1473.97 1915.7 1473.97 Q1919.33 1473.97 1921.14 1470.43 Q1922.96 1466.86 1922.96 1459.76 Q1922.96 1452.63 1921.14 1449.08 Q1919.33 1445.52 1915.7 1445.52 M1915.7 1441.82 Q1921.51 1441.82 1924.56 1446.42 Q1927.64 1451.01 1927.64 1459.76 Q1927.64 1468.48 1924.56 1473.09 Q1921.51 1477.67 1915.7 1477.67 Q1909.89 1477.67 1906.81 1473.09 Q1903.75 1468.48 1903.75 1459.76 Q1903.75 1451.01 1906.81 1446.42 Q1909.89 1441.82 1915.7 1441.82 Z"
     fill="#000000"
     fill-rule="evenodd"
     fill-opacity="1"
     id="path45" />
  <path
     clip-path="url(#clip620)"
     d="M1928.19 1446.39 L1934.39 1446.39 L1934.39 1424.97 L1927.64 1426.32 L1927.64 1422.86 L1934.35 1421.51 L1938.15 1421.51 L1938.15 1446.39 L1944.36 1446.39 L1944.36 1449.59 L1928.19 1449.59 L1928.19 1446.39 Z"
     fill="#000000"
     fill-rule="evenodd"
     fill-opacity="1"
     id="path47" />
  <polyline
     clip-path="url(#clip620)"
     style="stroke:#000000; stroke-linecap:butt; stroke-linejoin:round; stroke-width:4; stroke-opacity:1; fill:none"
     points="   265.475,1398.94 265.475,47.2441    "
     id="polyline57" />
  <polyline
     clip-path="url(#clip620)"
     style="stroke:#000000; stroke-linecap:butt; stroke-linejoin:round; stroke-width:4; stroke-opacity:1; fill:none"
     points="   265.475,1112.34 284.373,1112.34    "
     id="polyline59" />
  <polyline
     clip-path="url(#clip620)"
     style="stroke:#000000; stroke-linecap:butt; stroke-linejoin:round; stroke-width:4; stroke-opacity:1; fill:none"
     points="   265.475,720.931 284.373,720.931    "
     id="polyline61" />
  <polyline
     clip-path="url(#clip620)"
     style="stroke:#000000; stroke-linecap:butt; stroke-linejoin:round; stroke-width:4; stroke-opacity:1; fill:none"
     points="   265.475,329.521 284.373,329.521    "
     id="polyline63" />
  <path
     clip-path="url(#clip620)"
     d="M129.336 1132.13 L136.974 1132.13 L136.974 1105.77 L128.664 1107.43 L128.664 1103.18 L136.928 1101.51 L141.604 1101.51 L141.604 1132.13 L149.243 1132.13 L149.243 1136.07 L129.336 1136.07 L129.336 1132.13 Z"
     fill="#000000"
     fill-rule="evenodd"
     fill-opacity="1"
     id="path65" />
  <path
     clip-path="url(#clip620)"
     d="M168.687 1104.59 Q165.076 1104.59 163.247 1108.15 Q161.442 1111.69 161.442 1118.82 Q161.442 1125.93 163.247 1129.49 Q165.076 1133.04 168.687 1133.04 Q172.322 1133.04 174.127 1129.49 Q175.956 1125.93 175.956 1118.82 Q175.956 1111.69 174.127 1108.15 Q172.322 1104.59 168.687 1104.59 M168.687 1100.88 Q174.497 1100.88 177.553 1105.49 Q180.632 1110.07 180.632 1118.82 Q180.632 1127.55 177.553 1132.16 Q174.497 1136.74 168.687 1136.74 Q162.877 1136.74 159.798 1132.16 Q156.743 1127.55 156.743 1118.82 Q156.743 1110.07 159.798 1105.49 Q162.877 1100.88 168.687 1100.88 Z"
     fill="#000000"
     fill-rule="evenodd"
     fill-opacity="1"
     id="path67" />
  <path
     clip-path="url(#clip620)"
     d="M180.632 1094.99 L204.743 1094.99 L204.743 1098.18 L180.632 1098.18 L180.632 1094.99 Z"
     fill="#000000"
     fill-rule="evenodd"
     fill-opacity="1"
     id="path69" />
  <path
     clip-path="url(#clip620)"
     d="M216.216 1105.46 L229.475 1105.46 L229.475 1108.66 L211.646 1108.66 L211.646 1105.46 Q213.809 1103.22 217.533 1099.46 Q221.275 1095.68 222.234 1094.59 Q224.059 1092.54 224.773 1091.13 Q225.507 1089.7 225.507 1088.33 Q225.507 1086.09 223.927 1084.68 Q222.366 1083.27 219.846 1083.27 Q218.059 1083.27 216.065 1083.89 Q214.091 1084.51 211.834 1085.77 L211.834 1081.93 Q214.128 1081.01 216.122 1080.54 Q218.116 1080.07 219.771 1080.07 Q224.134 1080.07 226.73 1082.25 Q229.325 1084.43 229.325 1088.08 Q229.325 1089.81 228.667 1091.37 Q228.027 1092.92 226.316 1095.02 Q225.846 1095.57 223.325 1098.18 Q220.805 1100.78 216.216 1105.46 Z"
     fill="#000000"
     fill-rule="evenodd"
     fill-opacity="1"
     id="path71" />
  <path
     clip-path="url(#clip620)"
     d="M158.77 740.723 L166.409 740.723 L166.409 714.358 L158.099 716.024 L158.099 711.765 L166.362 710.099 L171.038 710.099 L171.038 740.723 L178.677 740.723 L178.677 744.659 L158.77 744.659 L158.77 740.723 Z"
     fill="#000000"
     fill-rule="evenodd"
     fill-opacity="1"
     id="path73" />
  <path
     clip-path="url(#clip620)"
     d="M198.121 713.177 Q194.51 713.177 192.682 716.742 Q190.876 720.284 190.876 727.413 Q190.876 734.52 192.682 738.084 Q194.51 741.626 198.121 741.626 Q201.756 741.626 203.561 738.084 Q205.39 734.52 205.39 727.413 Q205.39 720.284 203.561 716.742 Q201.756 713.177 198.121 713.177 M198.121 709.474 Q203.932 709.474 206.987 714.08 Q210.066 718.663 210.066 727.413 Q210.066 736.14 206.987 740.746 Q203.932 745.33 198.121 745.33 Q192.311 745.33 189.233 740.746 Q186.177 736.14 186.177 727.413 Q186.177 718.663 189.233 714.08 Q192.311 709.474 198.121 709.474 Z"
     fill="#000000"
     fill-rule="evenodd"
     fill-opacity="1"
     id="path75" />
  <path
     clip-path="url(#clip620)"
     d="M219.771 691.67 Q216.837 691.67 215.351 694.566 Q213.884 697.444 213.884 703.236 Q213.884 709.01 215.351 711.907 Q216.837 714.784 219.771 714.784 Q222.723 714.784 224.19 711.907 Q225.676 709.01 225.676 703.236 Q225.676 697.444 224.19 694.566 Q222.723 691.67 219.771 691.67 M219.771 688.66 Q224.491 688.66 226.974 692.403 Q229.475 696.127 229.475 703.236 Q229.475 710.327 226.974 714.07 Q224.491 717.794 219.771 717.794 Q215.05 717.794 212.548 714.07 Q210.066 710.327 210.066 703.236 Q210.066 696.127 212.548 692.403 Q215.05 688.66 219.771 688.66 Z"
     fill="#000000"
     fill-rule="evenodd"
     fill-opacity="1"
     id="path77" />
  <path
     clip-path="url(#clip620)"
     d="M160.35 349.313 L167.989 349.313 L167.989 322.947 L159.678 324.614 L159.678 320.355 L167.942 318.688 L172.618 318.688 L172.618 349.313 L180.257 349.313 L180.257 353.248 L160.35 353.248 L160.35 349.313 Z"
     fill="#000000"
     fill-rule="evenodd"
     fill-opacity="1"
     id="path79" />
  <path
     clip-path="url(#clip620)"
     d="M199.701 321.767 Q196.09 321.767 194.262 325.332 Q192.456 328.873 192.456 336.003 Q192.456 343.109 194.262 346.674 Q196.09 350.216 199.701 350.216 Q203.336 350.216 205.141 346.674 Q206.97 343.109 206.97 336.003 Q206.97 328.873 205.141 325.332 Q203.336 321.767 199.701 321.767 M199.701 318.063 Q205.511 318.063 208.567 322.67 Q211.646 327.253 211.646 336.003 Q211.646 344.73 208.567 349.336 Q205.511 353.919 199.701 353.919 Q193.891 353.919 190.812 349.336 Q187.757 344.73 187.757 336.003 Q187.757 327.253 190.812 322.67 Q193.891 318.063 199.701 318.063 Z"
     fill="#000000"
     fill-rule="evenodd"
     fill-opacity="1"
     id="path81" />
  <path
     clip-path="url(#clip620)"
     d="M216.216 322.64 L229.475 322.64 L229.475 325.838 L211.646 325.838 L211.646 322.64 Q213.809 320.402 217.533 316.641 Q221.275 312.86 222.234 311.77 Q224.059 309.72 224.773 308.309 Q225.507 306.88 225.507 305.507 Q225.507 303.268 223.927 301.858 Q222.366 300.447 219.846 300.447 Q218.059 300.447 216.065 301.068 Q214.091 301.689 211.834 302.949 L211.834 299.112 Q214.128 298.19 216.122 297.72 Q218.116 297.25 219.771 297.25 Q224.134 297.25 226.73 299.432 Q229.325 301.613 229.325 305.262 Q229.325 306.992 228.667 308.553 Q228.027 310.096 226.316 312.202 Q225.846 312.748 223.325 315.362 Q220.805 317.957 216.216 322.64 Z"
     fill="#000000"
     fill-rule="evenodd"
     fill-opacity="1"
     id="path83" />
  <circle
     clip-path="url(#clip622)"
     cx="2293.68"
     cy="109.5"
     r="14"
     fill="#009af9"
     fill-rule="evenodd"
     fill-opacity="0.5"
     stroke="#000000"
     stroke-opacity="0.5"
     stroke-width="3.2"
     id="circle111"
     style="fill:#800000" />
  <circle
     clip-path="url(#clip622)"
     cx="2074.97"
     cy="247.687"
     r="14"
     fill="#009af9"
     fill-rule="evenodd"
     fill-opacity="0.5"
     stroke="#000000"
     stroke-opacity="0.5"
     stroke-width="3.2"
     id="circle113"
     style="fill:#800000" />
  <circle
     clip-path="url(#clip622)"
     cx="1856.19"
     cy="386.491"
     r="14"
     fill="#009af9"
     fill-rule="evenodd"
     fill-opacity="0.5"
     stroke="#000000"
     stroke-opacity="0.5"
     stroke-width="3.2"
     id="circle115"
     style="fill:#800000" />
  <circle
     clip-path="url(#clip622)"
     cx="1637.4"
     cy="525.537"
     r="14"
     fill="#009af9"
     fill-rule="evenodd"
     fill-opacity="0.5"
     stroke="#000000"
     stroke-opacity="0.5"
     stroke-width="3.2"
     id="circle117"
     style="fill:#800000" />
  <circle
     clip-path="url(#clip622)"
     cx="1418.6"
     cy="664.656"
     r="14"
     fill="#009af9"
     fill-rule="evenodd"
     fill-opacity="0.5"
     stroke="#000000"
     stroke-opacity="0.5"
     stroke-width="3.2"
     id="circle119"
     style="fill:#800000" />
  <circle
     clip-path="url(#clip622)"
     cx="1199.79"
     cy="803.807"
     r="14"
     fill="#009af9"
     fill-rule="evenodd"
     fill-opacity="0.5"
     stroke="#000000"
     stroke-opacity="0.5"
     stroke-width="3.2"
     id="circle121"
     style="fill:#800000" />
  <circle
     clip-path="url(#clip622)"
     cx="980.985"
     cy="943.019"
     r="14"
     fill="#009af9"
     fill-rule="evenodd"
     fill-opacity="0.5"
     stroke="#000000"
     stroke-opacity="0.5"
     stroke-width="3.2"
     id="circle123"
     style="fill:#800000" />
  <circle
     clip-path="url(#clip622)"
     cx="762.217"
     cy="1082.24"
     r="14"
     fill="#009af9"
     fill-rule="evenodd"
     fill-opacity="0.5"
     stroke="#000000"
     stroke-opacity="0.5"
     stroke-width="3.2"
     id="circle125"
     style="fill:#800000" />
  <circle
     clip-path="url(#clip622)"
     cx="543.422"
     cy="1221.4"
     r="14"
     fill="#009af9"
     fill-rule="evenodd"
     fill-opacity="0.5"
     stroke="#000000"
     stroke-opacity="0.5"
     stroke-width="3.2"
     id="circle127"
     style="fill:#800000" />
  <circle
     clip-path="url(#clip622)"
     cx="324.549"
     cy="1360.68"
     r="14"
     fill="#009af9"
     fill-rule="evenodd"
     fill-opacity="0.5"
     stroke="#000000"
     stroke-opacity="0.5"
     stroke-width="3.2"
     id="circle129"
     style="fill:#800000" />
  <polyline
     clip-path="url(#clip622)"
     style="stroke:#808080; stroke-linecap:butt; stroke-linejoin:round; stroke-width:8; stroke-opacity:1; fill:none"
     stroke-dasharray="32, 20"
     points="   2293.68,85.4996 2074.97,224.607 1856.19,363.753 1637.4,502.91 1418.6,642.075 1199.79,781.242 980.985,920.409 762.217,1059.55 543.422,1198.71 324.549,1337.92       "
     id="polyline131" />
  <path
     clip-path="url(#clip620)"
     d="m 335.051,227.374 h 379.89 V 92.3006 h -379.89 z"
     fill="#ffffff"
     fill-rule="evenodd"
     fill-opacity="1"
     id="path133"
     transform="matrix(1.5842624,0,0,1.5842624,-130.96183,-53.131917)" />
  <polyline
     clip-path="url(#clip620)"
     style="fill:none;stroke:#808080;stroke-width:4;stroke-linecap:butt;stroke-linejoin:round;stroke-opacity:1"
     stroke-dasharray="16, 10"
     points="   358.243,159.837 497.395,159.837    "
     id="polyline137"
     transform="matrix(1.5842624,0,0,1.5842624,-130.96183,-53.131917)" />
  <g
     transform="matrix(0,-9.7128264,9.7128264,0,17.78589,1070.3101)"
     ns12:version="1.7.1"
     ns12:texconverter="pdflatex"
     ns12:pdfconverter="inkscape"
     ns12:text="$\\langle n^2 \\rangle - (\\langle n\\rangle^*)^2$"
     ns12:preamble="/home/onofrio/.config/inkscape/extensions/textext/default_packages.tex"
     ns12:scale="5.194290728475818"
     ns12:alignment="middle center"
     ns12:stroke-to-path="0"
     ns12:inkscapeversion="1.2"
     ns12:jacobian_sqrt="6.9257"
     id="g548">
    <defs
       id="id-44bbe520-b78b-4c46-8460-4d3ad0ba770e">
      <g
         id="id-8fd32c8a-1c3e-4757-a618-42d65f283484">
        <symbol
           overflow="visible"
           id="id-3941133d-79e3-4b88-be6c-6cbff4ae0c3f">
          <path
             style="stroke:none;stroke-width:0"
             d=""
             id="id-b673e4be-6fce-4bc0-a95e-4f5b1d9118d1" />
        </symbol>
        <symbol
           overflow="visible"
           id="id-37e0c48f-bbd6-4640-8fbd-62452770855a">
          <path
             style="stroke:none;stroke-width:0"
             d="M 3.265625,-7.09375 C 3.3125,-7.203125 3.3125,-7.234375 3.3125,-7.28125 c 0,-0.109375 -0.078125,-0.203125 -0.1875,-0.203125 -0.09375,0 -0.171875,0.0625 -0.234375,0.234375 l -1.75,4.578125 C 1.125,-2.609375 1.09375,-2.546875 1.09375,-2.5 c 0,0.03125 0,0.0625 0.046875,0.171875 L 2.890625,2.25 C 2.9375,2.359375 2.984375,2.5 3.125,2.5 c 0.109375,0 0.1875,-0.09375 0.1875,-0.203125 0,-0.03125 0,-0.046875 -0.046875,-0.15625 L 1.5,-2.5 Z m 0,0"
             id="id-5eaab66b-a0bb-4619-8e6b-f1263d56fa2d" />
        </symbol>
        <symbol
           overflow="visible"
           id="id-4b9929ce-81c0-475c-8616-01bfff0c47c5">
          <path
             style="stroke:none;stroke-width:0"
             d="M 2.71875,-2.328125 C 2.765625,-2.4375 2.765625,-2.46875 2.765625,-2.5 c 0,-0.015625 0,-0.046875 -0.046875,-0.15625 L 0.984375,-7.25 c -0.0625,-0.171875 -0.125,-0.234375 -0.234375,-0.234375 -0.109375,0 -0.203125,0.09375 -0.203125,0.203125 0,0.03125 0,0.046875 0.046875,0.15625 L 2.359375,-2.5 0.59375,2.109375 C 0.546875,2.21875 0.546875,2.25 0.546875,2.296875 0.546875,2.40625 0.640625,2.5 0.75,2.5 0.875,2.5 0.921875,2.390625 0.953125,2.296875 Z m 0,0"
             id="id-38bbcf74-d774-46f6-b4fa-d8d1a9836c9d" />
        </symbol>
        <symbol
           overflow="visible"
           id="id-00a0bd64-96c6-4142-9416-e2efe34deab7">
          <path
             style="stroke:none;stroke-width:0"
             d="m 6.5625,-2.296875 c 0.171875,0 0.359375,0 0.359375,-0.203125 0,-0.1875 -0.1875,-0.1875 -0.359375,-0.1875 H 1.171875 c -0.171875,0 -0.34375,0 -0.34375,0.1875 0,0.203125 0.171875,0.203125 0.34375,0.203125 z m 0,0"
             id="id-1f5cabb3-5680-4cef-9d51-19fe0f769c10" />
        </symbol>
        <symbol
           overflow="visible"
           id="id-0429c612-c692-4454-b496-8ab9eb5372a3">
          <path
             style="stroke:none;stroke-width:0"
             d=""
             id="id-44532efe-e95f-4d16-ac20-903de3845ba2" />
        </symbol>
        <symbol
           overflow="visible"
           id="id-91a39c5e-6986-4a3e-970c-498ed540c648">
          <path
             style="stroke:none;stroke-width:0"
             d="m 0.875,-0.59375 c -0.03125,0.15625 -0.09375,0.390625 -0.09375,0.4375 0,0.171875 0.140625,0.265625 0.296875,0.265625 0.125,0 0.296875,-0.078125 0.375,-0.28125 0,-0.015625 0.125,-0.484375 0.1875,-0.734375 l 0.21875,-0.890625 C 1.90625,-2.03125 1.96875,-2.25 2.03125,-2.46875 c 0.03125,-0.171875 0.109375,-0.46875 0.125,-0.5 0.140625,-0.3125 0.671875,-1.21875 1.625,-1.21875 0.453125,0 0.53125,0.375 0.53125,0.703125 0,0.609375 -0.484375,1.890625 -0.640625,2.3125 C 3.578125,-0.9375 3.5625,-0.8125 3.5625,-0.703125 c 0,0.46875 0.359375,0.8125 0.828125,0.8125 0.9375,0 1.296875,-1.453125 1.296875,-1.53125 0,-0.109375 -0.078125,-0.109375 -0.109375,-0.109375 -0.109375,0 -0.109375,0.03125 -0.15625,0.1875 -0.203125,0.671875 -0.53125,1.234375 -1.015625,1.234375 -0.171875,0 -0.234375,-0.09375 -0.234375,-0.328125 0,-0.25 0.078125,-0.484375 0.171875,-0.703125 0.1875,-0.53125 0.609375,-1.625 0.609375,-2.203125 0,-0.65625 -0.421875,-1.0625 -1.140625,-1.0625 -0.90625,0 -1.390625,0.640625 -1.5625,0.875 -0.046875,-0.5625 -0.453125,-0.875 -0.921875,-0.875 -0.453125,0 -0.640625,0.390625 -0.734375,0.5625 C 0.421875,-3.5 0.296875,-2.90625 0.296875,-2.875 c 0,0.109375 0.09375,0.109375 0.109375,0.109375 0.109375,0 0.109375,-0.015625 0.171875,-0.234375 0.171875,-0.703125 0.375,-1.1875 0.734375,-1.1875 0.1875,0 0.296875,0.125 0.296875,0.453125 0,0.21875 -0.03125,0.328125 -0.15625,0.84375 z m 0,0"
             id="id-8c15f412-a2cf-4a11-97c2-42a38a5b6ecd" />
        </symbol>
        <symbol
           overflow="visible"
           id="id-03e43275-8e00-4df9-a643-4bf66352df5b">
          <path
             style="stroke:none;stroke-width:0"
             d=""
             id="id-ffcac8ed-8654-4516-8bbb-89c827b54a8d" />
        </symbol>
        <symbol
           overflow="visible"
           id="id-14e5b4a9-7688-4e74-8583-e855271a51f7">
          <path
             style="stroke:none;stroke-width:0"
             d="M 3.515625,-1.265625 H 3.28125 c -0.015625,0.15625 -0.09375,0.5625 -0.1875,0.625 C 3.046875,-0.59375 2.515625,-0.59375 2.40625,-0.59375 H 1.125 c 0.734375,-0.640625 0.984375,-0.84375 1.390625,-1.171875 0.515625,-0.40625 1,-0.84375 1,-1.5 0,-0.84375 -0.734375,-1.359375 -1.625,-1.359375 -0.859375,0 -1.453125,0.609375 -1.453125,1.25 0,0.34375 0.296875,0.390625 0.375,0.390625 0.15625,0 0.359375,-0.125 0.359375,-0.375 0,-0.125 -0.046875,-0.375 -0.40625,-0.375 C 0.984375,-4.21875 1.453125,-4.375 1.78125,-4.375 c 0.703125,0 1.0625,0.546875 1.0625,1.109375 0,0.609375 -0.4375,1.078125 -0.65625,1.328125 L 0.515625,-0.265625 C 0.4375,-0.203125 0.4375,-0.1875 0.4375,0 h 2.875 z m 0,0"
             id="id-7cc427c5-e263-4b0d-a445-18818fdc900e" />
        </symbol>
        <symbol
           overflow="visible"
           id="id-84a2e839-0e17-4f8e-84d4-06ed38705686">
          <path
             style="stroke:none;stroke-width:0"
             d=""
             id="id-f5ea5358-b8e0-4b1c-8936-848be02641ea" />
        </symbol>
        <symbol
           overflow="visible"
           id="id-14f9aec5-9e56-49e2-a694-95b2e0ee0d7f">
          <path
             style="stroke:none;stroke-width:0"
             d="m 3.296875,2.390625 c 0,-0.03125 0,-0.046875 -0.171875,-0.21875 C 1.890625,0.921875 1.5625,-0.96875 1.5625,-2.5 c 0,-1.734375 0.375,-3.46875 1.609375,-4.703125 0.125,-0.125 0.125,-0.140625 0.125,-0.171875 0,-0.078125 -0.03125,-0.109375 -0.09375,-0.109375 -0.109375,0 -1,0.6875 -1.59375,1.953125 -0.5,1.09375 -0.625,2.203125 -0.625,3.03125 0,0.78125 0.109375,1.984375 0.65625,3.125 C 2.25,1.84375 3.09375,2.5 3.203125,2.5 c 0.0625,0 0.09375,-0.03125 0.09375,-0.109375 z m 0,0"
             id="id-4e5826a6-887b-4c96-b371-cdbe3e1cf0d0" />
        </symbol>
        <symbol
           overflow="visible"
           id="id-858aac21-ac6a-4d19-a1b2-17605ba66cd2">
          <path
             style="stroke:none;stroke-width:0"
             d="m 2.875,-2.5 c 0,-0.765625 -0.109375,-1.96875 -0.65625,-3.109375 -0.59375,-1.21875 -1.453125,-1.875 -1.546875,-1.875 -0.0625,0 -0.109375,0.046875 -0.109375,0.109375 0,0.03125 0,0.046875 0.1875,0.234375 0.984375,0.984375 1.546875,2.5625 1.546875,4.640625 0,1.71875 -0.359375,3.46875 -1.59375,4.71875 C 0.5625,2.34375 0.5625,2.359375 0.5625,2.390625 0.5625,2.453125 0.609375,2.5 0.671875,2.5 0.765625,2.5 1.671875,1.8125 2.25,0.546875 2.765625,-0.546875 2.875,-1.65625 2.875,-2.5 Z m 0,0"
             id="id-6a07f546-2b16-44af-b629-424af026ad98" />
        </symbol>
        <symbol
           overflow="visible"
           id="id-a3d955fa-567c-421c-b227-58cc38b5f81d">
          <path
             style="stroke:none;stroke-width:0"
             d=""
             id="id-4fde2274-aefe-4fce-a2a5-44aa4c14d050" />
        </symbol>
        <symbol
           overflow="visible"
           id="id-8502b231-725a-4ac3-b382-b0d02086cd52">
          <path
             style="stroke:none;stroke-width:0"
             d="m 2.25,-1.734375 c 0.578125,-0.25 0.828125,-0.34375 1,-0.4375 0.140625,-0.046875 0.203125,-0.078125 0.203125,-0.21875 0,-0.109375 -0.09375,-0.21875 -0.21875,-0.21875 -0.046875,0 -0.0625,0 -0.140625,0.0625 L 2.140625,-1.90625 2.25,-2.9375 c 0.015625,-0.125 0,-0.296875 -0.21875,-0.296875 -0.078125,0 -0.21875,0.046875 -0.21875,0.203125 0,0.0625 0.03125,0.265625 0.046875,0.34375 0.015625,0.109375 0.0625,0.625 0.078125,0.78125 L 0.984375,-2.546875 c -0.0625,-0.03125 -0.078125,-0.0625 -0.140625,-0.0625 -0.140625,0 -0.21875,0.109375 -0.21875,0.21875 0,0.140625 0.078125,0.1875 0.140625,0.203125 L 1.8125,-1.734375 c -0.5625,0.25 -0.828125,0.34375 -1,0.421875 -0.125,0.0625 -0.1875,0.09375 -0.1875,0.21875 0,0.125 0.078125,0.21875 0.21875,0.21875 0.046875,0 0.0625,0 0.140625,-0.0625 l 0.953125,-0.625 -0.125,1.109375 c 0,0.15625 0.140625,0.21875 0.21875,0.21875 0.09375,0 0.21875,-0.0625 0.21875,-0.21875 0,-0.0625 -0.03125,-0.265625 -0.03125,-0.328125 -0.015625,-0.125 -0.0625,-0.625 -0.078125,-0.78125 L 2.96875,-1.015625 C 3.15625,-0.875 3.171875,-0.875 3.234375,-0.875 c 0.125,0 0.21875,-0.09375 0.21875,-0.21875 0,-0.140625 -0.09375,-0.171875 -0.15625,-0.203125 z m 0,0"
             id="id-269308b7-cb62-4a54-90db-46245060b4e0" />
        </symbol>
      </g>
    </defs>
    <g
       id="id-c692d2ba-3421-4fec-96d2-b402ef4142df"
       transform="translate(-149.806,-126.524)">
      <g
         style="fill:#000000;fill-opacity:1"
         id="id-1dbb18cc-d2d1-4bf0-90cf-9b0cf86e8d34">
        <g
           transform="translate(148.712,134.765)"
           id="g500">
          <path
             style="stroke:none;stroke-width:0"
             d="M 3.265625,-7.09375 C 3.3125,-7.203125 3.3125,-7.234375 3.3125,-7.28125 c 0,-0.109375 -0.078125,-0.203125 -0.1875,-0.203125 -0.09375,0 -0.171875,0.0625 -0.234375,0.234375 l -1.75,4.578125 C 1.125,-2.609375 1.09375,-2.546875 1.09375,-2.5 c 0,0.03125 0,0.0625 0.046875,0.171875 L 2.890625,2.25 C 2.9375,2.359375 2.984375,2.5 3.125,2.5 c 0.109375,0 0.1875,-0.09375 0.1875,-0.203125 0,-0.03125 0,-0.046875 -0.046875,-0.15625 L 1.5,-2.5 Z m 0,0"
             id="id-13e3a728-9ae2-4680-899a-6f5e7a043edb" />
        </g>
      </g>
      <g
         style="fill:#000000;fill-opacity:1"
         id="id-dbcd164a-b023-4d6b-8bb8-8a0da044d05d">
        <g
           transform="translate(152.587,134.765)"
           id="g504">
          <path
             style="stroke:none;stroke-width:0"
             d="m 0.875,-0.59375 c -0.03125,0.15625 -0.09375,0.390625 -0.09375,0.4375 0,0.171875 0.140625,0.265625 0.296875,0.265625 0.125,0 0.296875,-0.078125 0.375,-0.28125 0,-0.015625 0.125,-0.484375 0.1875,-0.734375 l 0.21875,-0.890625 C 1.90625,-2.03125 1.96875,-2.25 2.03125,-2.46875 c 0.03125,-0.171875 0.109375,-0.46875 0.125,-0.5 0.140625,-0.3125 0.671875,-1.21875 1.625,-1.21875 0.453125,0 0.53125,0.375 0.53125,0.703125 0,0.609375 -0.484375,1.890625 -0.640625,2.3125 C 3.578125,-0.9375 3.5625,-0.8125 3.5625,-0.703125 c 0,0.46875 0.359375,0.8125 0.828125,0.8125 0.9375,0 1.296875,-1.453125 1.296875,-1.53125 0,-0.109375 -0.078125,-0.109375 -0.109375,-0.109375 -0.109375,0 -0.109375,0.03125 -0.15625,0.1875 -0.203125,0.671875 -0.53125,1.234375 -1.015625,1.234375 -0.171875,0 -0.234375,-0.09375 -0.234375,-0.328125 0,-0.25 0.078125,-0.484375 0.171875,-0.703125 0.1875,-0.53125 0.609375,-1.625 0.609375,-2.203125 0,-0.65625 -0.421875,-1.0625 -1.140625,-1.0625 -0.90625,0 -1.390625,0.640625 -1.5625,0.875 -0.046875,-0.5625 -0.453125,-0.875 -0.921875,-0.875 -0.453125,0 -0.640625,0.390625 -0.734375,0.5625 C 0.421875,-3.5 0.296875,-2.90625 0.296875,-2.875 c 0,0.109375 0.09375,0.109375 0.109375,0.109375 0.109375,0 0.109375,-0.015625 0.171875,-0.234375 0.171875,-0.703125 0.375,-1.1875 0.734375,-1.1875 0.1875,0 0.296875,0.125 0.296875,0.453125 0,0.21875 -0.03125,0.328125 -0.15625,0.84375 z m 0,0"
             id="id-2ebf0202-9585-4b7b-88d7-7fe9ef72bf0f" />
        </g>
      </g>
      <g
         style="fill:#000000;fill-opacity:1"
         id="id-6c0eb031-f617-4bc0-9a4c-5319b3c60058">
        <g
           transform="translate(158.567,131.149)"
           id="g508">
          <path
             style="stroke:none;stroke-width:0"
             d="M 3.515625,-1.265625 H 3.28125 c -0.015625,0.15625 -0.09375,0.5625 -0.1875,0.625 C 3.046875,-0.59375 2.515625,-0.59375 2.40625,-0.59375 H 1.125 c 0.734375,-0.640625 0.984375,-0.84375 1.390625,-1.171875 0.515625,-0.40625 1,-0.84375 1,-1.5 0,-0.84375 -0.734375,-1.359375 -1.625,-1.359375 -0.859375,0 -1.453125,0.609375 -1.453125,1.25 0,0.34375 0.296875,0.390625 0.375,0.390625 0.15625,0 0.359375,-0.125 0.359375,-0.375 0,-0.125 -0.046875,-0.375 -0.40625,-0.375 C 0.984375,-4.21875 1.453125,-4.375 1.78125,-4.375 c 0.703125,0 1.0625,0.546875 1.0625,1.109375 0,0.609375 -0.4375,1.078125 -0.65625,1.328125 L 0.515625,-0.265625 C 0.4375,-0.203125 0.4375,-0.1875 0.4375,0 h 2.875 z m 0,0"
             id="id-385a92ee-6446-4f99-bf36-f1d3cd8f74b3" />
        </g>
      </g>
      <g
         style="fill:#000000;fill-opacity:1"
         id="id-321439b5-feda-4f40-ae27-e44cedaefbe4">
        <g
           transform="translate(163.036,134.765)"
           id="g512">
          <path
             style="stroke:none;stroke-width:0"
             d="M 2.71875,-2.328125 C 2.765625,-2.4375 2.765625,-2.46875 2.765625,-2.5 c 0,-0.015625 0,-0.046875 -0.046875,-0.15625 L 0.984375,-7.25 c -0.0625,-0.171875 -0.125,-0.234375 -0.234375,-0.234375 -0.109375,0 -0.203125,0.09375 -0.203125,0.203125 0,0.03125 0,0.046875 0.046875,0.15625 L 2.359375,-2.5 0.59375,2.109375 C 0.546875,2.21875 0.546875,2.25 0.546875,2.296875 0.546875,2.40625 0.640625,2.5 0.75,2.5 0.875,2.5 0.921875,2.390625 0.953125,2.296875 Z m 0,0"
             id="id-0a84484e-32a3-4ab1-804a-228208c0e16b" />
        </g>
      </g>
      <g
         style="fill:#000000;fill-opacity:1"
         id="id-c190b4e7-833a-49b6-835e-635f06d0cefc">
        <g
           transform="translate(169.122,134.765)"
           id="g516">
          <path
             style="stroke:none;stroke-width:0"
             d="m 6.5625,-2.296875 c 0.171875,0 0.359375,0 0.359375,-0.203125 0,-0.1875 -0.1875,-0.1875 -0.359375,-0.1875 H 1.171875 c -0.171875,0 -0.34375,0 -0.34375,0.1875 0,0.203125 0.171875,0.203125 0.34375,0.203125 z m 0,0"
             id="id-d4dfb2ba-45a3-478b-a2f0-2b943be04021" />
        </g>
      </g>
      <g
         style="fill:#000000;fill-opacity:1"
         id="id-6b1f6fc3-f803-4345-b8dd-aca778aac697">
        <g
           transform="translate(179.087,134.765)"
           id="g520">
          <path
             style="stroke:none;stroke-width:0"
             d="m 3.296875,2.390625 c 0,-0.03125 0,-0.046875 -0.171875,-0.21875 C 1.890625,0.921875 1.5625,-0.96875 1.5625,-2.5 c 0,-1.734375 0.375,-3.46875 1.609375,-4.703125 0.125,-0.125 0.125,-0.140625 0.125,-0.171875 0,-0.078125 -0.03125,-0.109375 -0.09375,-0.109375 -0.109375,0 -1,0.6875 -1.59375,1.953125 -0.5,1.09375 -0.625,2.203125 -0.625,3.03125 0,0.78125 0.109375,1.984375 0.65625,3.125 C 2.25,1.84375 3.09375,2.5 3.203125,2.5 c 0.0625,0 0.09375,-0.03125 0.09375,-0.109375 z m 0,0"
             id="id-c0cea27c-50b2-4964-96ec-3dab3892a65d" />
        </g>
      </g>
      <g
         style="fill:#000000;fill-opacity:1"
         id="id-ed0fd067-751a-4dd7-b475-fc07d4b49551">
        <g
           transform="translate(182.961,134.765)"
           id="g524">
          <path
             style="stroke:none;stroke-width:0"
             d="M 3.265625,-7.09375 C 3.3125,-7.203125 3.3125,-7.234375 3.3125,-7.28125 c 0,-0.109375 -0.078125,-0.203125 -0.1875,-0.203125 -0.09375,0 -0.171875,0.0625 -0.234375,0.234375 l -1.75,4.578125 C 1.125,-2.609375 1.09375,-2.546875 1.09375,-2.5 c 0,0.03125 0,0.0625 0.046875,0.171875 L 2.890625,2.25 C 2.9375,2.359375 2.984375,2.5 3.125,2.5 c 0.109375,0 0.1875,-0.09375 0.1875,-0.203125 0,-0.03125 0,-0.046875 -0.046875,-0.15625 L 1.5,-2.5 Z m 0,0"
             id="id-2184f31b-4ab7-4d06-a8a1-1d8b449c45ad" />
        </g>
      </g>
      <g
         style="fill:#000000;fill-opacity:1"
         id="id-d73c6c1e-7203-4b4a-bf7e-c7407d398014">
        <g
           transform="translate(186.836,134.765)"
           id="g528">
          <path
             style="stroke:none;stroke-width:0"
             d="m 0.875,-0.59375 c -0.03125,0.15625 -0.09375,0.390625 -0.09375,0.4375 0,0.171875 0.140625,0.265625 0.296875,0.265625 0.125,0 0.296875,-0.078125 0.375,-0.28125 0,-0.015625 0.125,-0.484375 0.1875,-0.734375 l 0.21875,-0.890625 C 1.90625,-2.03125 1.96875,-2.25 2.03125,-2.46875 c 0.03125,-0.171875 0.109375,-0.46875 0.125,-0.5 0.140625,-0.3125 0.671875,-1.21875 1.625,-1.21875 0.453125,0 0.53125,0.375 0.53125,0.703125 0,0.609375 -0.484375,1.890625 -0.640625,2.3125 C 3.578125,-0.9375 3.5625,-0.8125 3.5625,-0.703125 c 0,0.46875 0.359375,0.8125 0.828125,0.8125 0.9375,0 1.296875,-1.453125 1.296875,-1.53125 0,-0.109375 -0.078125,-0.109375 -0.109375,-0.109375 -0.109375,0 -0.109375,0.03125 -0.15625,0.1875 -0.203125,0.671875 -0.53125,1.234375 -1.015625,1.234375 -0.171875,0 -0.234375,-0.09375 -0.234375,-0.328125 0,-0.25 0.078125,-0.484375 0.171875,-0.703125 0.1875,-0.53125 0.609375,-1.625 0.609375,-2.203125 0,-0.65625 -0.421875,-1.0625 -1.140625,-1.0625 -0.90625,0 -1.390625,0.640625 -1.5625,0.875 -0.046875,-0.5625 -0.453125,-0.875 -0.921875,-0.875 -0.453125,0 -0.640625,0.390625 -0.734375,0.5625 C 0.421875,-3.5 0.296875,-2.90625 0.296875,-2.875 c 0,0.109375 0.09375,0.109375 0.109375,0.109375 0.109375,0 0.109375,-0.015625 0.171875,-0.234375 0.171875,-0.703125 0.375,-1.1875 0.734375,-1.1875 0.1875,0 0.296875,0.125 0.296875,0.453125 0,0.21875 -0.03125,0.328125 -0.15625,0.84375 z m 0,0"
             id="id-8e20b05f-843c-4ad5-abee-54806c23a62a" />
        </g>
      </g>
      <g
         style="fill:#000000;fill-opacity:1"
         id="id-262c335d-e324-4915-a013-7143d2e18429">
        <g
           transform="translate(192.816,134.765)"
           id="g532">
          <path
             style="stroke:none;stroke-width:0"
             d="M 2.71875,-2.328125 C 2.765625,-2.4375 2.765625,-2.46875 2.765625,-2.5 c 0,-0.015625 0,-0.046875 -0.046875,-0.15625 L 0.984375,-7.25 c -0.0625,-0.171875 -0.125,-0.234375 -0.234375,-0.234375 -0.109375,0 -0.203125,0.09375 -0.203125,0.203125 0,0.03125 0,0.046875 0.046875,0.15625 L 2.359375,-2.5 0.59375,2.109375 C 0.546875,2.21875 0.546875,2.25 0.546875,2.296875 0.546875,2.40625 0.640625,2.5 0.75,2.5 0.875,2.5 0.921875,2.390625 0.953125,2.296875 Z m 0,0"
             id="id-29089494-d9cb-4365-a95a-c25c55654d3d" />
        </g>
      </g>
      <g
         style="fill:#000000;fill-opacity:1"
         id="id-ea67a277-ccfb-418a-96a9-adcc2646cb1d">
        <g
           transform="translate(196.69,131.149)"
           id="g536">
          <path
             style="stroke:none;stroke-width:0"
             d="m 2.25,-1.734375 c 0.578125,-0.25 0.828125,-0.34375 1,-0.4375 0.140625,-0.046875 0.203125,-0.078125 0.203125,-0.21875 0,-0.109375 -0.09375,-0.21875 -0.21875,-0.21875 -0.046875,0 -0.0625,0 -0.140625,0.0625 L 2.140625,-1.90625 2.25,-2.9375 c 0.015625,-0.125 0,-0.296875 -0.21875,-0.296875 -0.078125,0 -0.21875,0.046875 -0.21875,0.203125 0,0.0625 0.03125,0.265625 0.046875,0.34375 0.015625,0.109375 0.0625,0.625 0.078125,0.78125 L 0.984375,-2.546875 c -0.0625,-0.03125 -0.078125,-0.0625 -0.140625,-0.0625 -0.140625,0 -0.21875,0.109375 -0.21875,0.21875 0,0.140625 0.078125,0.1875 0.140625,0.203125 L 1.8125,-1.734375 c -0.5625,0.25 -0.828125,0.34375 -1,0.421875 -0.125,0.0625 -0.1875,0.09375 -0.1875,0.21875 0,0.125 0.078125,0.21875 0.21875,0.21875 0.046875,0 0.0625,0 0.140625,-0.0625 l 0.953125,-0.625 -0.125,1.109375 c 0,0.15625 0.140625,0.21875 0.21875,0.21875 0.09375,0 0.21875,-0.0625 0.21875,-0.21875 0,-0.0625 -0.03125,-0.265625 -0.03125,-0.328125 -0.015625,-0.125 -0.0625,-0.625 -0.078125,-0.78125 L 2.96875,-1.015625 C 3.15625,-0.875 3.171875,-0.875 3.234375,-0.875 c 0.125,0 0.21875,-0.09375 0.21875,-0.21875 0,-0.140625 -0.09375,-0.171875 -0.15625,-0.203125 z m 0,0"
             id="id-090eedd0-8c88-4330-ae71-900a2d903a73" />
        </g>
      </g>
      <g
         style="fill:#000000;fill-opacity:1"
         id="id-e19822a0-2de9-4d9e-8e4e-6bc55f1d4461">
        <g
           transform="translate(201.27,134.765)"
           id="g540">
          <path
             style="stroke:none;stroke-width:0"
             d="m 2.875,-2.5 c 0,-0.765625 -0.109375,-1.96875 -0.65625,-3.109375 -0.59375,-1.21875 -1.453125,-1.875 -1.546875,-1.875 -0.0625,0 -0.109375,0.046875 -0.109375,0.109375 0,0.03125 0,0.046875 0.1875,0.234375 0.984375,0.984375 1.546875,2.5625 1.546875,4.640625 0,1.71875 -0.359375,3.46875 -1.59375,4.71875 C 0.5625,2.34375 0.5625,2.359375 0.5625,2.390625 0.5625,2.453125 0.609375,2.5 0.671875,2.5 0.765625,2.5 1.671875,1.8125 2.25,0.546875 2.765625,-0.546875 2.875,-1.65625 2.875,-2.5 Z m 0,0"
             id="id-8f8fe356-d931-4c40-95f1-e9897fb4d5fd" />
        </g>
      </g>
      <g
         style="fill:#000000;fill-opacity:1"
         id="id-1934adf9-5aad-4b8b-a2ad-121a1d0cd8f4">
        <g
           transform="translate(205.144,131.149)"
           id="g544">
          <path
             style="stroke:none;stroke-width:0"
             d="M 3.515625,-1.265625 H 3.28125 c -0.015625,0.15625 -0.09375,0.5625 -0.1875,0.625 C 3.046875,-0.59375 2.515625,-0.59375 2.40625,-0.59375 H 1.125 c 0.734375,-0.640625 0.984375,-0.84375 1.390625,-1.171875 0.515625,-0.40625 1,-0.84375 1,-1.5 0,-0.84375 -0.734375,-1.359375 -1.625,-1.359375 -0.859375,0 -1.453125,0.609375 -1.453125,1.25 0,0.34375 0.296875,0.390625 0.375,0.390625 0.15625,0 0.359375,-0.125 0.359375,-0.375 0,-0.125 -0.046875,-0.375 -0.40625,-0.375 C 0.984375,-4.21875 1.453125,-4.375 1.78125,-4.375 c 0.703125,0 1.0625,0.546875 1.0625,1.109375 0,0.609375 -0.4375,1.078125 -0.65625,1.328125 L 0.515625,-0.265625 C 0.4375,-0.203125 0.4375,-0.1875 0.4375,0 h 2.875 z m 0,0"
             id="id-073b3563-1c4e-4194-a40d-f1ec15a22fa1" />
        </g>
      </g>
    </g>
  </g>
  <g
     transform="matrix(10.404134,0,0,10.404134,1305.8271,1485.7506)"
     ns12:version="1.7.1"
     ns12:texconverter="pdflatex"
     ns12:pdfconverter="inkscape"
     ns12:text="$\\langle n \\rangle^*$"
     ns12:preamble="/home/onofrio/.config/inkscape/extensions/textext/default_packages.tex"
     ns12:scale="5.194290728475818"
     ns12:alignment="middle center"
     ns12:stroke-to-path="0"
     ns12:inkscapeversion="1.2"
     ns12:jacobian_sqrt="6.9257"
     id="g889">
    <defs
       id="id-4be1c597-76cc-4bca-9abd-4e6c1515e002">
      <g
         id="id-0a6206f2-ad02-45cb-ad4d-0122f46e69f0">
        <symbol
           overflow="visible"
           id="id-8b20c01c-f792-4907-b1ed-7611137def4b">
          <path
             style="stroke:none;stroke-width:0"
             d=""
             id="id-fcad50ad-1b2e-49db-9835-261eedc5f67b" />
        </symbol>
        <symbol
           overflow="visible"
           id="id-419453cd-16f9-479a-ba30-fa5c9092e7b4">
          <path
             style="stroke:none;stroke-width:0"
             d="M 3.265625,-7.09375 C 3.3125,-7.203125 3.3125,-7.234375 3.3125,-7.28125 c 0,-0.109375 -0.078125,-0.203125 -0.1875,-0.203125 -0.09375,0 -0.171875,0.0625 -0.234375,0.234375 l -1.75,4.578125 C 1.125,-2.609375 1.09375,-2.546875 1.09375,-2.5 c 0,0.03125 0,0.0625 0.046875,0.171875 L 2.890625,2.25 C 2.9375,2.359375 2.984375,2.5 3.125,2.5 c 0.109375,0 0.1875,-0.09375 0.1875,-0.203125 0,-0.03125 0,-0.046875 -0.046875,-0.15625 L 1.5,-2.5 Z m 0,0"
             id="id-beadb627-32a7-411c-bfdf-d7aabfeb319c" />
        </symbol>
        <symbol
           overflow="visible"
           id="id-c4ed0c3a-55a2-4111-a779-6f71778c5993">
          <path
             style="stroke:none;stroke-width:0"
             d="M 2.71875,-2.328125 C 2.765625,-2.4375 2.765625,-2.46875 2.765625,-2.5 c 0,-0.015625 0,-0.046875 -0.046875,-0.15625 L 0.984375,-7.25 c -0.0625,-0.171875 -0.125,-0.234375 -0.234375,-0.234375 -0.109375,0 -0.203125,0.09375 -0.203125,0.203125 0,0.03125 0,0.046875 0.046875,0.15625 L 2.359375,-2.5 0.59375,2.109375 C 0.546875,2.21875 0.546875,2.25 0.546875,2.296875 0.546875,2.40625 0.640625,2.5 0.75,2.5 0.875,2.5 0.921875,2.390625 0.953125,2.296875 Z m 0,0"
             id="id-8d6b8208-ac50-440f-8e2c-f6b864864e65" />
        </symbol>
        <symbol
           overflow="visible"
           id="id-4d333f29-d358-4eec-b396-14c8e1650b30">
          <path
             style="stroke:none;stroke-width:0"
             d=""
             id="id-6b9fee4d-8cc9-4884-ac07-5f4b6d865a79" />
        </symbol>
        <symbol
           overflow="visible"
           id="id-f9bb845c-e1bf-4b59-b34b-fa28a62b33ac">
          <path
             style="stroke:none;stroke-width:0"
             d="m 0.875,-0.59375 c -0.03125,0.15625 -0.09375,0.390625 -0.09375,0.4375 0,0.171875 0.140625,0.265625 0.296875,0.265625 0.125,0 0.296875,-0.078125 0.375,-0.28125 0,-0.015625 0.125,-0.484375 0.1875,-0.734375 l 0.21875,-0.890625 C 1.90625,-2.03125 1.96875,-2.25 2.03125,-2.46875 c 0.03125,-0.171875 0.109375,-0.46875 0.125,-0.5 0.140625,-0.3125 0.671875,-1.21875 1.625,-1.21875 0.453125,0 0.53125,0.375 0.53125,0.703125 0,0.609375 -0.484375,1.890625 -0.640625,2.3125 C 3.578125,-0.9375 3.5625,-0.8125 3.5625,-0.703125 c 0,0.46875 0.359375,0.8125 0.828125,0.8125 0.9375,0 1.296875,-1.453125 1.296875,-1.53125 0,-0.109375 -0.078125,-0.109375 -0.109375,-0.109375 -0.109375,0 -0.109375,0.03125 -0.15625,0.1875 -0.203125,0.671875 -0.53125,1.234375 -1.015625,1.234375 -0.171875,0 -0.234375,-0.09375 -0.234375,-0.328125 0,-0.25 0.078125,-0.484375 0.171875,-0.703125 0.1875,-0.53125 0.609375,-1.625 0.609375,-2.203125 0,-0.65625 -0.421875,-1.0625 -1.140625,-1.0625 -0.90625,0 -1.390625,0.640625 -1.5625,0.875 -0.046875,-0.5625 -0.453125,-0.875 -0.921875,-0.875 -0.453125,0 -0.640625,0.390625 -0.734375,0.5625 C 0.421875,-3.5 0.296875,-2.90625 0.296875,-2.875 c 0,0.109375 0.09375,0.109375 0.109375,0.109375 0.109375,0 0.109375,-0.015625 0.171875,-0.234375 0.171875,-0.703125 0.375,-1.1875 0.734375,-1.1875 0.1875,0 0.296875,0.125 0.296875,0.453125 0,0.21875 -0.03125,0.328125 -0.15625,0.84375 z m 0,0"
             id="id-c589fa3b-75d2-4d6b-9c25-58ed0b21efc1" />
        </symbol>
        <symbol
           overflow="visible"
           id="id-0c70748b-bc54-4b01-b049-3af62206da76">
          <path
             style="stroke:none;stroke-width:0"
             d=""
             id="id-f52e0bd9-ca4a-441b-9a07-76a3d462174e" />
        </symbol>
        <symbol
           overflow="visible"
           id="id-b27644eb-1e0a-438e-981b-53ae44245d02">
          <path
             style="stroke:none;stroke-width:0"
             d="m 2.25,-1.734375 c 0.578125,-0.25 0.828125,-0.34375 1,-0.4375 0.140625,-0.046875 0.203125,-0.078125 0.203125,-0.21875 0,-0.109375 -0.09375,-0.21875 -0.21875,-0.21875 -0.046875,0 -0.0625,0 -0.140625,0.0625 L 2.140625,-1.90625 2.25,-2.9375 c 0.015625,-0.125 0,-0.296875 -0.21875,-0.296875 -0.078125,0 -0.21875,0.046875 -0.21875,0.203125 0,0.0625 0.03125,0.265625 0.046875,0.34375 0.015625,0.109375 0.0625,0.625 0.078125,0.78125 L 0.984375,-2.546875 c -0.0625,-0.03125 -0.078125,-0.0625 -0.140625,-0.0625 -0.140625,0 -0.21875,0.109375 -0.21875,0.21875 0,0.140625 0.078125,0.1875 0.140625,0.203125 L 1.8125,-1.734375 c -0.5625,0.25 -0.828125,0.34375 -1,0.421875 -0.125,0.0625 -0.1875,0.09375 -0.1875,0.21875 0,0.125 0.078125,0.21875 0.21875,0.21875 0.046875,0 0.0625,0 0.140625,-0.0625 l 0.953125,-0.625 -0.125,1.109375 c 0,0.15625 0.140625,0.21875 0.21875,0.21875 0.09375,0 0.21875,-0.0625 0.21875,-0.21875 0,-0.0625 -0.03125,-0.265625 -0.03125,-0.328125 -0.015625,-0.125 -0.0625,-0.625 -0.078125,-0.78125 L 2.96875,-1.015625 C 3.15625,-0.875 3.171875,-0.875 3.234375,-0.875 c 0.125,0 0.21875,-0.09375 0.21875,-0.21875 0,-0.140625 -0.09375,-0.171875 -0.15625,-0.203125 z m 0,0"
             id="id-cc288cf4-c63c-4a0d-ab00-cc0cb5a9988f" />
        </symbol>
      </g>
    </defs>
    <g
       id="id-a008a144-5af9-41d1-a2d3-5079d9a03ce2"
       transform="translate(-149.806,-127.281)">
      <g
         style="fill:#000000;fill-opacity:1"
         id="id-1317ef0f-8735-4183-82f5-7fbb5127372e">
        <g
           transform="translate(148.712,134.765)"
           id="g873">
          <path
             style="stroke:none;stroke-width:0"
             d="M 3.265625,-7.09375 C 3.3125,-7.203125 3.3125,-7.234375 3.3125,-7.28125 c 0,-0.109375 -0.078125,-0.203125 -0.1875,-0.203125 -0.09375,0 -0.171875,0.0625 -0.234375,0.234375 l -1.75,4.578125 C 1.125,-2.609375 1.09375,-2.546875 1.09375,-2.5 c 0,0.03125 0,0.0625 0.046875,0.171875 L 2.890625,2.25 C 2.9375,2.359375 2.984375,2.5 3.125,2.5 c 0.109375,0 0.1875,-0.09375 0.1875,-0.203125 0,-0.03125 0,-0.046875 -0.046875,-0.15625 L 1.5,-2.5 Z m 0,0"
             id="id-729cc77b-9f35-4db6-832a-077d09b7abba" />
        </g>
      </g>
      <g
         style="fill:#000000;fill-opacity:1"
         id="id-9f55c772-d4f3-4895-9e6d-41a398b6e275">
        <g
           transform="translate(152.587,134.765)"
           id="g877">
          <path
             style="stroke:none;stroke-width:0"
             d="m 0.875,-0.59375 c -0.03125,0.15625 -0.09375,0.390625 -0.09375,0.4375 0,0.171875 0.140625,0.265625 0.296875,0.265625 0.125,0 0.296875,-0.078125 0.375,-0.28125 0,-0.015625 0.125,-0.484375 0.1875,-0.734375 l 0.21875,-0.890625 C 1.90625,-2.03125 1.96875,-2.25 2.03125,-2.46875 c 0.03125,-0.171875 0.109375,-0.46875 0.125,-0.5 0.140625,-0.3125 0.671875,-1.21875 1.625,-1.21875 0.453125,0 0.53125,0.375 0.53125,0.703125 0,0.609375 -0.484375,1.890625 -0.640625,2.3125 C 3.578125,-0.9375 3.5625,-0.8125 3.5625,-0.703125 c 0,0.46875 0.359375,0.8125 0.828125,0.8125 0.9375,0 1.296875,-1.453125 1.296875,-1.53125 0,-0.109375 -0.078125,-0.109375 -0.109375,-0.109375 -0.109375,0 -0.109375,0.03125 -0.15625,0.1875 -0.203125,0.671875 -0.53125,1.234375 -1.015625,1.234375 -0.171875,0 -0.234375,-0.09375 -0.234375,-0.328125 0,-0.25 0.078125,-0.484375 0.171875,-0.703125 0.1875,-0.53125 0.609375,-1.625 0.609375,-2.203125 0,-0.65625 -0.421875,-1.0625 -1.140625,-1.0625 -0.90625,0 -1.390625,0.640625 -1.5625,0.875 -0.046875,-0.5625 -0.453125,-0.875 -0.921875,-0.875 -0.453125,0 -0.640625,0.390625 -0.734375,0.5625 C 0.421875,-3.5 0.296875,-2.90625 0.296875,-2.875 c 0,0.109375 0.09375,0.109375 0.109375,0.109375 0.109375,0 0.109375,-0.015625 0.171875,-0.234375 0.171875,-0.703125 0.375,-1.1875 0.734375,-1.1875 0.1875,0 0.296875,0.125 0.296875,0.453125 0,0.21875 -0.03125,0.328125 -0.15625,0.84375 z m 0,0"
             id="id-33f07633-ae36-4181-8325-624e23323234" />
        </g>
      </g>
      <g
         style="fill:#000000;fill-opacity:1"
         id="id-bed630b3-0413-44ad-a09c-9584878d6a94">
        <g
           transform="translate(158.567,134.765)"
           id="g881">
          <path
             style="stroke:none;stroke-width:0"
             d="M 2.71875,-2.328125 C 2.765625,-2.4375 2.765625,-2.46875 2.765625,-2.5 c 0,-0.015625 0,-0.046875 -0.046875,-0.15625 L 0.984375,-7.25 c -0.0625,-0.171875 -0.125,-0.234375 -0.234375,-0.234375 -0.109375,0 -0.203125,0.09375 -0.203125,0.203125 0,0.03125 0,0.046875 0.046875,0.15625 L 2.359375,-2.5 0.59375,2.109375 C 0.546875,2.21875 0.546875,2.25 0.546875,2.296875 0.546875,2.40625 0.640625,2.5 0.75,2.5 0.875,2.5 0.921875,2.390625 0.953125,2.296875 Z m 0,0"
             id="id-13b96067-e0f0-414b-9a45-6383198916b5" />
        </g>
      </g>
      <g
         style="fill:#000000;fill-opacity:1"
         id="id-d46f2bc7-6953-42af-9dc6-c4379374c3b8">
        <g
           transform="translate(162.441,131.149)"
           id="g885">
          <path
             style="stroke:none;stroke-width:0"
             d="m 2.25,-1.734375 c 0.578125,-0.25 0.828125,-0.34375 1,-0.4375 0.140625,-0.046875 0.203125,-0.078125 0.203125,-0.21875 0,-0.109375 -0.09375,-0.21875 -0.21875,-0.21875 -0.046875,0 -0.0625,0 -0.140625,0.0625 L 2.140625,-1.90625 2.25,-2.9375 c 0.015625,-0.125 0,-0.296875 -0.21875,-0.296875 -0.078125,0 -0.21875,0.046875 -0.21875,0.203125 0,0.0625 0.03125,0.265625 0.046875,0.34375 0.015625,0.109375 0.0625,0.625 0.078125,0.78125 L 0.984375,-2.546875 c -0.0625,-0.03125 -0.078125,-0.0625 -0.140625,-0.0625 -0.140625,0 -0.21875,0.109375 -0.21875,0.21875 0,0.140625 0.078125,0.1875 0.140625,0.203125 L 1.8125,-1.734375 c -0.5625,0.25 -0.828125,0.34375 -1,0.421875 -0.125,0.0625 -0.1875,0.09375 -0.1875,0.21875 0,0.125 0.078125,0.21875 0.21875,0.21875 0.046875,0 0.0625,0 0.140625,-0.0625 l 0.953125,-0.625 -0.125,1.109375 c 0,0.15625 0.140625,0.21875 0.21875,0.21875 0.09375,0 0.21875,-0.0625 0.21875,-0.21875 0,-0.0625 -0.03125,-0.265625 -0.03125,-0.328125 -0.015625,-0.125 -0.0625,-0.625 -0.078125,-0.78125 L 2.96875,-1.015625 C 3.15625,-0.875 3.171875,-0.875 3.234375,-0.875 c 0.125,0 0.21875,-0.09375 0.21875,-0.21875 0,-0.140625 -0.09375,-0.171875 -0.15625,-0.203125 z m 0,0"
             id="id-4fd02713-0ce6-4ea5-ae25-fc86c130562d" />
        </g>
      </g>
    </g>
  </g>
  <g
     transform="matrix(9.3374444,0,0,9.3374444,699.62212,153.5716)"
     ns12:version="1.7.1"
     ns12:texconverter="pdflatex"
     ns12:pdfconverter="inkscape"
     ns12:text="$(\\langle n \\rangle^*)^2$"
     ns12:preamble="/home/onofrio/.config/inkscape/extensions/textext/default_packages.tex"
     ns12:scale="5.194290728475818"
     ns12:alignment="middle center"
     ns12:stroke-to-path="0"
     ns12:inkscapeversion="1.2"
     ns12:jacobian_sqrt="6.9257"
     id="g1276">
    <defs
       id="id-40008d09-5468-4e8f-8c49-6dcd57e2edfa">
      <g
         id="id-2584bed5-c314-404a-9e96-f5d829b37009">
        <symbol
           overflow="visible"
           id="id-0dfdcae8-6b70-447b-bafa-f0c878b3b753">
          <path
             style="stroke:none;stroke-width:0"
             d=""
             id="id-a04a563a-7a51-43d2-9fa3-4ca0c9f02931" />
        </symbol>
        <symbol
           overflow="visible"
           id="id-e420ef69-ebed-4bd6-affe-c17d92f920db">
          <path
             style="stroke:none;stroke-width:0"
             d="m 3.296875,2.390625 c 0,-0.03125 0,-0.046875 -0.171875,-0.21875 C 1.890625,0.921875 1.5625,-0.96875 1.5625,-2.5 c 0,-1.734375 0.375,-3.46875 1.609375,-4.703125 0.125,-0.125 0.125,-0.140625 0.125,-0.171875 0,-0.078125 -0.03125,-0.109375 -0.09375,-0.109375 -0.109375,0 -1,0.6875 -1.59375,1.953125 -0.5,1.09375 -0.625,2.203125 -0.625,3.03125 0,0.78125 0.109375,1.984375 0.65625,3.125 C 2.25,1.84375 3.09375,2.5 3.203125,2.5 c 0.0625,0 0.09375,-0.03125 0.09375,-0.109375 z m 0,0"
             id="id-88b7cc92-5dc4-41c9-9f53-8a604a7c1c10" />
        </symbol>
        <symbol
           overflow="visible"
           id="id-fe336291-8c63-47b9-abb8-ac045ea26ebe">
          <path
             style="stroke:none;stroke-width:0"
             d="m 2.875,-2.5 c 0,-0.765625 -0.109375,-1.96875 -0.65625,-3.109375 -0.59375,-1.21875 -1.453125,-1.875 -1.546875,-1.875 -0.0625,0 -0.109375,0.046875 -0.109375,0.109375 0,0.03125 0,0.046875 0.1875,0.234375 0.984375,0.984375 1.546875,2.5625 1.546875,4.640625 0,1.71875 -0.359375,3.46875 -1.59375,4.71875 C 0.5625,2.34375 0.5625,2.359375 0.5625,2.390625 0.5625,2.453125 0.609375,2.5 0.671875,2.5 0.765625,2.5 1.671875,1.8125 2.25,0.546875 2.765625,-0.546875 2.875,-1.65625 2.875,-2.5 Z m 0,0"
             id="id-9a11fd9d-09c6-4841-8e86-c827006b428e" />
        </symbol>
        <symbol
           overflow="visible"
           id="id-d8812211-05ea-4eb8-966f-40f70b721b79">
          <path
             style="stroke:none;stroke-width:0"
             d=""
             id="id-4d624796-11f6-43c1-95c9-9f6a7ad7a675" />
        </symbol>
        <symbol
           overflow="visible"
           id="id-77997bdd-b448-416c-a8cc-08837dd37332">
          <path
             style="stroke:none;stroke-width:0"
             d="M 3.265625,-7.09375 C 3.3125,-7.203125 3.3125,-7.234375 3.3125,-7.28125 c 0,-0.109375 -0.078125,-0.203125 -0.1875,-0.203125 -0.09375,0 -0.171875,0.0625 -0.234375,0.234375 l -1.75,4.578125 C 1.125,-2.609375 1.09375,-2.546875 1.09375,-2.5 c 0,0.03125 0,0.0625 0.046875,0.171875 L 2.890625,2.25 C 2.9375,2.359375 2.984375,2.5 3.125,2.5 c 0.109375,0 0.1875,-0.09375 0.1875,-0.203125 0,-0.03125 0,-0.046875 -0.046875,-0.15625 L 1.5,-2.5 Z m 0,0"
             id="id-87b427df-cb35-47b8-85a9-8d14e5289f66" />
        </symbol>
        <symbol
           overflow="visible"
           id="id-23c940a1-637b-4ee0-a2d9-a4c25eab90f2">
          <path
             style="stroke:none;stroke-width:0"
             d="M 2.71875,-2.328125 C 2.765625,-2.4375 2.765625,-2.46875 2.765625,-2.5 c 0,-0.015625 0,-0.046875 -0.046875,-0.15625 L 0.984375,-7.25 c -0.0625,-0.171875 -0.125,-0.234375 -0.234375,-0.234375 -0.109375,0 -0.203125,0.09375 -0.203125,0.203125 0,0.03125 0,0.046875 0.046875,0.15625 L 2.359375,-2.5 0.59375,2.109375 C 0.546875,2.21875 0.546875,2.25 0.546875,2.296875 0.546875,2.40625 0.640625,2.5 0.75,2.5 0.875,2.5 0.921875,2.390625 0.953125,2.296875 Z m 0,0"
             id="id-34092a55-db05-48d9-a5ca-0c8a6038a681" />
        </symbol>
        <symbol
           overflow="visible"
           id="id-3bb37d59-74e6-43b8-88db-aa682704c117">
          <path
             style="stroke:none;stroke-width:0"
             d=""
             id="id-60428484-c08f-4262-8e0a-e369b8894c1c" />
        </symbol>
        <symbol
           overflow="visible"
           id="id-c04a2469-187a-45ba-a937-bf5d0f66b352">
          <path
             style="stroke:none;stroke-width:0"
             d="m 0.875,-0.59375 c -0.03125,0.15625 -0.09375,0.390625 -0.09375,0.4375 0,0.171875 0.140625,0.265625 0.296875,0.265625 0.125,0 0.296875,-0.078125 0.375,-0.28125 0,-0.015625 0.125,-0.484375 0.1875,-0.734375 l 0.21875,-0.890625 C 1.90625,-2.03125 1.96875,-2.25 2.03125,-2.46875 c 0.03125,-0.171875 0.109375,-0.46875 0.125,-0.5 0.140625,-0.3125 0.671875,-1.21875 1.625,-1.21875 0.453125,0 0.53125,0.375 0.53125,0.703125 0,0.609375 -0.484375,1.890625 -0.640625,2.3125 C 3.578125,-0.9375 3.5625,-0.8125 3.5625,-0.703125 c 0,0.46875 0.359375,0.8125 0.828125,0.8125 0.9375,0 1.296875,-1.453125 1.296875,-1.53125 0,-0.109375 -0.078125,-0.109375 -0.109375,-0.109375 -0.109375,0 -0.109375,0.03125 -0.15625,0.1875 -0.203125,0.671875 -0.53125,1.234375 -1.015625,1.234375 -0.171875,0 -0.234375,-0.09375 -0.234375,-0.328125 0,-0.25 0.078125,-0.484375 0.171875,-0.703125 0.1875,-0.53125 0.609375,-1.625 0.609375,-2.203125 0,-0.65625 -0.421875,-1.0625 -1.140625,-1.0625 -0.90625,0 -1.390625,0.640625 -1.5625,0.875 -0.046875,-0.5625 -0.453125,-0.875 -0.921875,-0.875 -0.453125,0 -0.640625,0.390625 -0.734375,0.5625 C 0.421875,-3.5 0.296875,-2.90625 0.296875,-2.875 c 0,0.109375 0.09375,0.109375 0.109375,0.109375 0.109375,0 0.109375,-0.015625 0.171875,-0.234375 0.171875,-0.703125 0.375,-1.1875 0.734375,-1.1875 0.1875,0 0.296875,0.125 0.296875,0.453125 0,0.21875 -0.03125,0.328125 -0.15625,0.84375 z m 0,0"
             id="id-ec01cd1e-4f40-4096-8b17-835f0bc44ee2" />
        </symbol>
        <symbol
           overflow="visible"
           id="id-9ca683fa-0f2d-4f17-98ff-08c989ff412b">
          <path
             style="stroke:none;stroke-width:0"
             d=""
             id="id-941a09e4-a787-4eec-8bc5-62977d7d0223" />
        </symbol>
        <symbol
           overflow="visible"
           id="id-29464d54-9e2e-4e53-878c-f0e49f090e34">
          <path
             style="stroke:none;stroke-width:0"
             d="m 2.25,-1.734375 c 0.578125,-0.25 0.828125,-0.34375 1,-0.4375 0.140625,-0.046875 0.203125,-0.078125 0.203125,-0.21875 0,-0.109375 -0.09375,-0.21875 -0.21875,-0.21875 -0.046875,0 -0.0625,0 -0.140625,0.0625 L 2.140625,-1.90625 2.25,-2.9375 c 0.015625,-0.125 0,-0.296875 -0.21875,-0.296875 -0.078125,0 -0.21875,0.046875 -0.21875,0.203125 0,0.0625 0.03125,0.265625 0.046875,0.34375 0.015625,0.109375 0.0625,0.625 0.078125,0.78125 L 0.984375,-2.546875 c -0.0625,-0.03125 -0.078125,-0.0625 -0.140625,-0.0625 -0.140625,0 -0.21875,0.109375 -0.21875,0.21875 0,0.140625 0.078125,0.1875 0.140625,0.203125 L 1.8125,-1.734375 c -0.5625,0.25 -0.828125,0.34375 -1,0.421875 -0.125,0.0625 -0.1875,0.09375 -0.1875,0.21875 0,0.125 0.078125,0.21875 0.21875,0.21875 0.046875,0 0.0625,0 0.140625,-0.0625 l 0.953125,-0.625 -0.125,1.109375 c 0,0.15625 0.140625,0.21875 0.21875,0.21875 0.09375,0 0.21875,-0.0625 0.21875,-0.21875 0,-0.0625 -0.03125,-0.265625 -0.03125,-0.328125 -0.015625,-0.125 -0.0625,-0.625 -0.078125,-0.78125 L 2.96875,-1.015625 C 3.15625,-0.875 3.171875,-0.875 3.234375,-0.875 c 0.125,0 0.21875,-0.09375 0.21875,-0.21875 0,-0.140625 -0.09375,-0.171875 -0.15625,-0.203125 z m 0,0"
             id="id-86cd3e1f-0ba3-40c9-a0a0-68706051d273" />
        </symbol>
        <symbol
           overflow="visible"
           id="id-d4cf675f-c2a3-4bcc-bec0-422add77384b">
          <path
             style="stroke:none;stroke-width:0"
             d=""
             id="id-4ee440d9-f382-4af9-967e-371fd716abf5" />
        </symbol>
        <symbol
           overflow="visible"
           id="id-8e0574cb-3276-4edf-b099-f75fbd675977">
          <path
             style="stroke:none;stroke-width:0"
             d="M 3.515625,-1.265625 H 3.28125 c -0.015625,0.15625 -0.09375,0.5625 -0.1875,0.625 C 3.046875,-0.59375 2.515625,-0.59375 2.40625,-0.59375 H 1.125 c 0.734375,-0.640625 0.984375,-0.84375 1.390625,-1.171875 0.515625,-0.40625 1,-0.84375 1,-1.5 0,-0.84375 -0.734375,-1.359375 -1.625,-1.359375 -0.859375,0 -1.453125,0.609375 -1.453125,1.25 0,0.34375 0.296875,0.390625 0.375,0.390625 0.15625,0 0.359375,-0.125 0.359375,-0.375 0,-0.125 -0.046875,-0.375 -0.40625,-0.375 C 0.984375,-4.21875 1.453125,-4.375 1.78125,-4.375 c 0.703125,0 1.0625,0.546875 1.0625,1.109375 0,0.609375 -0.4375,1.078125 -0.65625,1.328125 L 0.515625,-0.265625 C 0.4375,-0.203125 0.4375,-0.1875 0.4375,0 h 2.875 z m 0,0"
             id="id-eb5c98a9-412f-438b-bf23-49540fc6963d" />
        </symbol>
      </g>
    </defs>
    <g
       id="id-563ab364-0a2e-4679-8abe-fea20ba44d39"
       transform="translate(-149.696,-126.524)">
      <g
         style="fill:#000000;fill-opacity:1"
         id="id-895379ab-a9d5-4720-a54b-4c4ab4cb21dd">
        <g
           transform="translate(148.712,134.765)"
           id="g1248">
          <path
             style="stroke:none;stroke-width:0"
             d="m 3.296875,2.390625 c 0,-0.03125 0,-0.046875 -0.171875,-0.21875 C 1.890625,0.921875 1.5625,-0.96875 1.5625,-2.5 c 0,-1.734375 0.375,-3.46875 1.609375,-4.703125 0.125,-0.125 0.125,-0.140625 0.125,-0.171875 0,-0.078125 -0.03125,-0.109375 -0.09375,-0.109375 -0.109375,0 -1,0.6875 -1.59375,1.953125 -0.5,1.09375 -0.625,2.203125 -0.625,3.03125 0,0.78125 0.109375,1.984375 0.65625,3.125 C 2.25,1.84375 3.09375,2.5 3.203125,2.5 c 0.0625,0 0.09375,-0.03125 0.09375,-0.109375 z m 0,0"
             id="id-a229b4ac-8917-4cca-93a8-345c30568805" />
        </g>
      </g>
      <g
         style="fill:#000000;fill-opacity:1"
         id="id-b600034b-ae2f-4200-a52d-750854bed10a">
        <g
           transform="translate(152.587,134.765)"
           id="g1252">
          <path
             style="stroke:none;stroke-width:0"
             d="M 3.265625,-7.09375 C 3.3125,-7.203125 3.3125,-7.234375 3.3125,-7.28125 c 0,-0.109375 -0.078125,-0.203125 -0.1875,-0.203125 -0.09375,0 -0.171875,0.0625 -0.234375,0.234375 l -1.75,4.578125 C 1.125,-2.609375 1.09375,-2.546875 1.09375,-2.5 c 0,0.03125 0,0.0625 0.046875,0.171875 L 2.890625,2.25 C 2.9375,2.359375 2.984375,2.5 3.125,2.5 c 0.109375,0 0.1875,-0.09375 0.1875,-0.203125 0,-0.03125 0,-0.046875 -0.046875,-0.15625 L 1.5,-2.5 Z m 0,0"
             id="id-cec46806-2071-489a-bf90-55ec925f3983" />
        </g>
      </g>
      <g
         style="fill:#000000;fill-opacity:1"
         id="id-e670d4af-166b-4540-817c-af250a93a5c2">
        <g
           transform="translate(156.461,134.765)"
           id="g1256">
          <path
             style="stroke:none;stroke-width:0"
             d="m 0.875,-0.59375 c -0.03125,0.15625 -0.09375,0.390625 -0.09375,0.4375 0,0.171875 0.140625,0.265625 0.296875,0.265625 0.125,0 0.296875,-0.078125 0.375,-0.28125 0,-0.015625 0.125,-0.484375 0.1875,-0.734375 l 0.21875,-0.890625 C 1.90625,-2.03125 1.96875,-2.25 2.03125,-2.46875 c 0.03125,-0.171875 0.109375,-0.46875 0.125,-0.5 0.140625,-0.3125 0.671875,-1.21875 1.625,-1.21875 0.453125,0 0.53125,0.375 0.53125,0.703125 0,0.609375 -0.484375,1.890625 -0.640625,2.3125 C 3.578125,-0.9375 3.5625,-0.8125 3.5625,-0.703125 c 0,0.46875 0.359375,0.8125 0.828125,0.8125 0.9375,0 1.296875,-1.453125 1.296875,-1.53125 0,-0.109375 -0.078125,-0.109375 -0.109375,-0.109375 -0.109375,0 -0.109375,0.03125 -0.15625,0.1875 -0.203125,0.671875 -0.53125,1.234375 -1.015625,1.234375 -0.171875,0 -0.234375,-0.09375 -0.234375,-0.328125 0,-0.25 0.078125,-0.484375 0.171875,-0.703125 0.1875,-0.53125 0.609375,-1.625 0.609375,-2.203125 0,-0.65625 -0.421875,-1.0625 -1.140625,-1.0625 -0.90625,0 -1.390625,0.640625 -1.5625,0.875 -0.046875,-0.5625 -0.453125,-0.875 -0.921875,-0.875 -0.453125,0 -0.640625,0.390625 -0.734375,0.5625 C 0.421875,-3.5 0.296875,-2.90625 0.296875,-2.875 c 0,0.109375 0.09375,0.109375 0.109375,0.109375 0.109375,0 0.109375,-0.015625 0.171875,-0.234375 0.171875,-0.703125 0.375,-1.1875 0.734375,-1.1875 0.1875,0 0.296875,0.125 0.296875,0.453125 0,0.21875 -0.03125,0.328125 -0.15625,0.84375 z m 0,0"
             id="id-af75db71-149a-44c4-8076-8808058088ed" />
        </g>
      </g>
      <g
         style="fill:#000000;fill-opacity:1"
         id="id-c07b987d-3e2a-4c55-9edb-1867c827aced">
        <g
           transform="translate(162.441,134.765)"
           id="g1260">
          <path
             style="stroke:none;stroke-width:0"
             d="M 2.71875,-2.328125 C 2.765625,-2.4375 2.765625,-2.46875 2.765625,-2.5 c 0,-0.015625 0,-0.046875 -0.046875,-0.15625 L 0.984375,-7.25 c -0.0625,-0.171875 -0.125,-0.234375 -0.234375,-0.234375 -0.109375,0 -0.203125,0.09375 -0.203125,0.203125 0,0.03125 0,0.046875 0.046875,0.15625 L 2.359375,-2.5 0.59375,2.109375 C 0.546875,2.21875 0.546875,2.25 0.546875,2.296875 0.546875,2.40625 0.640625,2.5 0.75,2.5 0.875,2.5 0.921875,2.390625 0.953125,2.296875 Z m 0,0"
             id="id-3ae18edf-07fa-4ced-a90d-cd34a8fbebaf" />
        </g>
      </g>
      <g
         style="fill:#000000;fill-opacity:1"
         id="id-d511838e-0e33-4c7f-9834-b03289fb893a">
        <g
           transform="translate(166.315,131.149)"
           id="g1264">
          <path
             style="stroke:none;stroke-width:0"
             d="m 2.25,-1.734375 c 0.578125,-0.25 0.828125,-0.34375 1,-0.4375 0.140625,-0.046875 0.203125,-0.078125 0.203125,-0.21875 0,-0.109375 -0.09375,-0.21875 -0.21875,-0.21875 -0.046875,0 -0.0625,0 -0.140625,0.0625 L 2.140625,-1.90625 2.25,-2.9375 c 0.015625,-0.125 0,-0.296875 -0.21875,-0.296875 -0.078125,0 -0.21875,0.046875 -0.21875,0.203125 0,0.0625 0.03125,0.265625 0.046875,0.34375 0.015625,0.109375 0.0625,0.625 0.078125,0.78125 L 0.984375,-2.546875 c -0.0625,-0.03125 -0.078125,-0.0625 -0.140625,-0.0625 -0.140625,0 -0.21875,0.109375 -0.21875,0.21875 0,0.140625 0.078125,0.1875 0.140625,0.203125 L 1.8125,-1.734375 c -0.5625,0.25 -0.828125,0.34375 -1,0.421875 -0.125,0.0625 -0.1875,0.09375 -0.1875,0.21875 0,0.125 0.078125,0.21875 0.21875,0.21875 0.046875,0 0.0625,0 0.140625,-0.0625 l 0.953125,-0.625 -0.125,1.109375 c 0,0.15625 0.140625,0.21875 0.21875,0.21875 0.09375,0 0.21875,-0.0625 0.21875,-0.21875 0,-0.0625 -0.03125,-0.265625 -0.03125,-0.328125 -0.015625,-0.125 -0.0625,-0.625 -0.078125,-0.78125 L 2.96875,-1.015625 C 3.15625,-0.875 3.171875,-0.875 3.234375,-0.875 c 0.125,0 0.21875,-0.09375 0.21875,-0.21875 0,-0.140625 -0.09375,-0.171875 -0.15625,-0.203125 z m 0,0"
             id="id-d733f3eb-9e67-4abc-81ca-688a5a3f417d" />
        </g>
      </g>
      <g
         style="fill:#000000;fill-opacity:1"
         id="id-0cf9df7b-dc5c-4d52-af95-9a3467d73cf9">
        <g
           transform="translate(170.895,134.765)"
           id="g1268">
          <path
             style="stroke:none;stroke-width:0"
             d="m 2.875,-2.5 c 0,-0.765625 -0.109375,-1.96875 -0.65625,-3.109375 -0.59375,-1.21875 -1.453125,-1.875 -1.546875,-1.875 -0.0625,0 -0.109375,0.046875 -0.109375,0.109375 0,0.03125 0,0.046875 0.1875,0.234375 0.984375,0.984375 1.546875,2.5625 1.546875,4.640625 0,1.71875 -0.359375,3.46875 -1.59375,4.71875 C 0.5625,2.34375 0.5625,2.359375 0.5625,2.390625 0.5625,2.453125 0.609375,2.5 0.671875,2.5 0.765625,2.5 1.671875,1.8125 2.25,0.546875 2.765625,-0.546875 2.875,-1.65625 2.875,-2.5 Z m 0,0"
             id="id-72118242-562c-4199-8689-7848d2c81ab0" />
        </g>
      </g>
      <g
         style="fill:#000000;fill-opacity:1"
         id="id-de7482c2-a2dd-4af5-a2cf-d470731b588f">
        <g
           transform="translate(174.77,131.149)"
           id="g1272">
          <path
             style="stroke:none;stroke-width:0"
             d="M 3.515625,-1.265625 H 3.28125 c -0.015625,0.15625 -0.09375,0.5625 -0.1875,0.625 C 3.046875,-0.59375 2.515625,-0.59375 2.40625,-0.59375 H 1.125 c 0.734375,-0.640625 0.984375,-0.84375 1.390625,-1.171875 0.515625,-0.40625 1,-0.84375 1,-1.5 0,-0.84375 -0.734375,-1.359375 -1.625,-1.359375 -0.859375,0 -1.453125,0.609375 -1.453125,1.25 0,0.34375 0.296875,0.390625 0.375,0.390625 0.15625,0 0.359375,-0.125 0.359375,-0.375 0,-0.125 -0.046875,-0.375 -0.40625,-0.375 C 0.984375,-4.21875 1.453125,-4.375 1.78125,-4.375 c 0.703125,0 1.0625,0.546875 1.0625,1.109375 0,0.609375 -0.4375,1.078125 -0.65625,1.328125 L 0.515625,-0.265625 C 0.4375,-0.203125 0.4375,-0.1875 0.4375,0 h 2.875 z m 0,0"
             id="id-21695925-9480-43d9-9aea-e19f946e7840" />
        </g>
      </g>
    </g>
  </g>
</svg>
