<?xml version="1.0" encoding="utf-8"?>
<svg xmlns="http://www.w3.org/2000/svg" xmlns:xlink="http://www.w3.org/1999/xlink" width="600" height="400" viewBox="0 0 2400 1600">
<defs>
  <clipPath id="clip060">
    <rect x="0" y="0" width="2400" height="1600"/>
  </clipPath>
</defs>
<path clip-path="url(#clip060)" d="
M0 1600 L2400 1600 L2400 0 L0 0  Z
  " fill="#ffffff" fill-rule="evenodd" fill-opacity="1"/>
<defs>
  <clipPath id="clip061">
    <rect x="480" y="0" width="1681" height="1600"/>
  </clipPath>
</defs>
<path clip-path="url(#clip060)" d="
M286.139 900.541 L2352.76 900.541 L2352.76 569.883 L286.139 569.883  Z
  " fill="#ffffff" fill-rule="evenodd" fill-opacity="1"/>
<defs>
  <clipPath id="clip062">
    <rect x="286" y="569" width="2068" height="332"/>
  </clipPath>
</defs>
<polyline clip-path="url(#clip060)" style="stroke:#000000; stroke-linecap:butt; stroke-linejoin:round; stroke-width:4; stroke-opacity:1; fill:none" points="
  286.139,900.541 2352.76,900.541 
  "/>
<polyline clip-path="url(#clip060)" style="stroke:#000000; stroke-linecap:butt; stroke-linejoin:round; stroke-width:4; stroke-opacity:1; fill:none" points="
  344.628,900.541 344.628,896 
  "/>
<polyline clip-path="url(#clip060)" style="stroke:#000000; stroke-linecap:butt; stroke-linejoin:round; stroke-width:4; stroke-opacity:1; fill:none" points="
  734.556,900.541 734.556,896 
  "/>
<polyline clip-path="url(#clip060)" style="stroke:#000000; stroke-linecap:butt; stroke-linejoin:round; stroke-width:4; stroke-opacity:1; fill:none" points="
  1124.48,900.541 1124.48,896 
  "/>
<polyline clip-path="url(#clip060)" style="stroke:#000000; stroke-linecap:butt; stroke-linejoin:round; stroke-width:4; stroke-opacity:1; fill:none" points="
  1514.41,900.541 1514.41,896 
  "/>
<polyline clip-path="url(#clip060)" style="stroke:#000000; stroke-linecap:butt; stroke-linejoin:round; stroke-width:4; stroke-opacity:1; fill:none" points="
  1904.34,900.541 1904.34,896 
  "/>
<polyline clip-path="url(#clip060)" style="stroke:#000000; stroke-linecap:butt; stroke-linejoin:round; stroke-width:4; stroke-opacity:1; fill:none" points="
  2294.27,900.541 2294.27,896 
  "/>
<path clip-path="url(#clip060)" d="M276.075 946.113 L305.751 946.113 L305.751 950.048 L276.075 950.048 L276.075 946.113 Z" fill="#000000" fill-rule="evenodd" fill-opacity="1" /><path clip-path="url(#clip060)" d="M325.844 931.46 Q322.233 931.46 320.404 935.025 Q318.598 938.566 318.598 945.696 Q318.598 952.802 320.404 956.367 Q322.233 959.909 325.844 959.909 Q329.478 959.909 331.283 956.367 Q333.112 952.802 333.112 945.696 Q333.112 938.566 331.283 935.025 Q329.478 931.46 325.844 931.46 M325.844 927.756 Q331.654 927.756 334.709 932.363 Q337.788 936.946 337.788 945.696 Q337.788 954.423 334.709 959.029 Q331.654 963.613 325.844 963.613 Q320.033 963.613 316.955 959.029 Q313.899 954.423 313.899 945.696 Q313.899 936.946 316.955 932.363 Q320.033 927.756 325.844 927.756 Z" fill="#000000" fill-rule="evenodd" fill-opacity="1" /><path clip-path="url(#clip060)" d="M346.006 957.062 L350.89 957.062 L350.89 962.941 L346.006 962.941 L346.006 957.062 Z" fill="#000000" fill-rule="evenodd" fill-opacity="1" /><path clip-path="url(#clip060)" d="M375.241 944.307 Q378.598 945.025 380.473 947.293 Q382.371 949.562 382.371 952.895 Q382.371 958.011 378.853 960.812 Q375.334 963.613 368.853 963.613 Q366.677 963.613 364.362 963.173 Q362.07 962.756 359.617 961.9 L359.617 957.386 Q361.561 958.52 363.876 959.099 Q366.191 959.677 368.714 959.677 Q373.112 959.677 375.404 957.941 Q377.718 956.205 377.718 952.895 Q377.718 949.84 375.566 948.127 Q373.436 946.39 369.617 946.39 L365.589 946.39 L365.589 942.548 L369.802 942.548 Q373.251 942.548 375.079 941.182 Q376.908 939.793 376.908 937.201 Q376.908 934.539 375.01 933.127 Q373.135 931.691 369.617 931.691 Q367.695 931.691 365.496 932.108 Q363.297 932.525 360.658 933.404 L360.658 929.238 Q363.32 928.497 365.635 928.127 Q367.973 927.756 370.033 927.756 Q375.357 927.756 378.459 930.187 Q381.561 932.594 381.561 936.715 Q381.561 939.585 379.917 941.576 Q378.274 943.543 375.241 944.307 Z" fill="#000000" fill-rule="evenodd" fill-opacity="1" /><path clip-path="url(#clip060)" d="M401.237 931.46 Q397.626 931.46 395.797 935.025 Q393.991 938.566 393.991 945.696 Q393.991 952.802 395.797 956.367 Q397.626 959.909 401.237 959.909 Q404.871 959.909 406.676 956.367 Q408.505 952.802 408.505 945.696 Q408.505 938.566 406.676 935.025 Q404.871 931.46 401.237 931.46 M401.237 927.756 Q407.047 927.756 410.102 932.363 Q413.181 936.946 413.181 945.696 Q413.181 954.423 410.102 959.029 Q407.047 963.613 401.237 963.613 Q395.427 963.613 392.348 959.029 Q389.292 954.423 389.292 945.696 Q389.292 936.946 392.348 932.363 Q395.427 927.756 401.237 927.756 Z" fill="#000000" fill-rule="evenodd" fill-opacity="1" /><path clip-path="url(#clip060)" d="M666.501 946.113 L696.176 946.113 L696.176 950.048 L666.501 950.048 L666.501 946.113 Z" fill="#000000" fill-rule="evenodd" fill-opacity="1" /><path clip-path="url(#clip060)" d="M716.269 931.46 Q712.658 931.46 710.829 935.025 Q709.024 938.566 709.024 945.696 Q709.024 952.802 710.829 956.367 Q712.658 959.909 716.269 959.909 Q719.903 959.909 721.709 956.367 Q723.537 952.802 723.537 945.696 Q723.537 938.566 721.709 935.025 Q719.903 931.46 716.269 931.46 M716.269 927.756 Q722.079 927.756 725.135 932.363 Q728.213 936.946 728.213 945.696 Q728.213 954.423 725.135 959.029 Q722.079 963.613 716.269 963.613 Q710.459 963.613 707.38 959.029 Q704.325 954.423 704.325 945.696 Q704.325 936.946 707.38 932.363 Q710.459 927.756 716.269 927.756 Z" fill="#000000" fill-rule="evenodd" fill-opacity="1" /><path clip-path="url(#clip060)" d="M736.431 957.062 L741.315 957.062 L741.315 962.941 L736.431 962.941 L736.431 957.062 Z" fill="#000000" fill-rule="evenodd" fill-opacity="1" /><path clip-path="url(#clip060)" d="M755.528 959.006 L771.847 959.006 L771.847 962.941 L749.903 962.941 L749.903 959.006 Q752.565 956.252 757.148 951.622 Q761.755 946.969 762.935 945.627 Q765.181 943.103 766.06 941.367 Q766.963 939.608 766.963 937.918 Q766.963 935.164 765.019 933.428 Q763.097 931.691 759.996 931.691 Q757.797 931.691 755.343 932.455 Q752.912 933.219 750.135 934.77 L750.135 930.048 Q752.959 928.914 755.412 928.335 Q757.866 927.756 759.903 927.756 Q765.273 927.756 768.468 930.441 Q771.662 933.127 771.662 937.617 Q771.662 939.747 770.852 941.668 Q770.065 943.566 767.959 946.159 Q767.38 946.83 764.278 950.048 Q761.176 953.242 755.528 959.006 Z" fill="#000000" fill-rule="evenodd" fill-opacity="1" /><path clip-path="url(#clip060)" d="M781.708 928.381 L800.065 928.381 L800.065 932.316 L785.991 932.316 L785.991 940.789 Q787.009 940.441 788.028 940.279 Q789.046 940.094 790.065 940.094 Q795.852 940.094 799.232 943.265 Q802.611 946.437 802.611 951.853 Q802.611 957.432 799.139 960.534 Q795.667 963.613 789.347 963.613 Q787.171 963.613 784.903 963.242 Q782.658 962.872 780.25 962.131 L780.25 957.432 Q782.333 958.566 784.556 959.122 Q786.778 959.677 789.255 959.677 Q793.259 959.677 795.597 957.571 Q797.935 955.465 797.935 951.853 Q797.935 948.242 795.597 946.136 Q793.259 944.029 789.255 944.029 Q787.38 944.029 785.505 944.446 Q783.653 944.863 781.708 945.742 L781.708 928.381 Z" fill="#000000" fill-rule="evenodd" fill-opacity="1" /><path clip-path="url(#clip060)" d="M1055.93 946.113 L1085.61 946.113 L1085.61 950.048 L1055.93 950.048 L1055.93 946.113 Z" fill="#000000" fill-rule="evenodd" fill-opacity="1" /><path clip-path="url(#clip060)" d="M1105.7 931.46 Q1102.09 931.46 1100.26 935.025 Q1098.45 938.566 1098.45 945.696 Q1098.45 952.802 1100.26 956.367 Q1102.09 959.909 1105.7 959.909 Q1109.33 959.909 1111.14 956.367 Q1112.97 952.802 1112.97 945.696 Q1112.97 938.566 1111.14 935.025 Q1109.33 931.46 1105.7 931.46 M1105.7 927.756 Q1111.51 927.756 1114.56 932.363 Q1117.64 936.946 1117.64 945.696 Q1117.64 954.423 1114.56 959.029 Q1111.51 963.613 1105.7 963.613 Q1099.89 963.613 1096.81 959.029 Q1093.75 954.423 1093.75 945.696 Q1093.75 936.946 1096.81 932.363 Q1099.89 927.756 1105.7 927.756 Z" fill="#000000" fill-rule="evenodd" fill-opacity="1" /><path clip-path="url(#clip060)" d="M1125.86 957.062 L1130.75 957.062 L1130.75 962.941 L1125.86 962.941 L1125.86 957.062 Z" fill="#000000" fill-rule="evenodd" fill-opacity="1" /><path clip-path="url(#clip060)" d="M1144.96 959.006 L1161.28 959.006 L1161.28 962.941 L1139.33 962.941 L1139.33 959.006 Q1142 956.252 1146.58 951.622 Q1151.18 946.969 1152.37 945.627 Q1154.61 943.103 1155.49 941.367 Q1156.39 939.608 1156.39 937.918 Q1156.39 935.164 1154.45 933.428 Q1152.53 931.691 1149.43 931.691 Q1147.23 931.691 1144.77 932.455 Q1142.34 933.219 1139.56 934.77 L1139.56 930.048 Q1142.39 928.914 1144.84 928.335 Q1147.3 927.756 1149.33 927.756 Q1154.7 927.756 1157.9 930.441 Q1161.09 933.127 1161.09 937.617 Q1161.09 939.747 1160.28 941.668 Q1159.5 943.566 1157.39 946.159 Q1156.81 946.83 1153.71 950.048 Q1150.61 953.242 1144.96 959.006 Z" fill="#000000" fill-rule="evenodd" fill-opacity="1" /><path clip-path="url(#clip060)" d="M1181.09 931.46 Q1177.48 931.46 1175.65 935.025 Q1173.85 938.566 1173.85 945.696 Q1173.85 952.802 1175.65 956.367 Q1177.48 959.909 1181.09 959.909 Q1184.73 959.909 1186.53 956.367 Q1188.36 952.802 1188.36 945.696 Q1188.36 938.566 1186.53 935.025 Q1184.73 931.46 1181.09 931.46 M1181.09 927.756 Q1186.9 927.756 1189.96 932.363 Q1193.04 936.946 1193.04 945.696 Q1193.04 954.423 1189.96 959.029 Q1186.9 963.613 1181.09 963.613 Q1175.28 963.613 1172.2 959.029 Q1169.15 954.423 1169.15 945.696 Q1169.15 936.946 1172.2 932.363 Q1175.28 927.756 1181.09 927.756 Z" fill="#000000" fill-rule="evenodd" fill-opacity="1" /><path clip-path="url(#clip060)" d="M1446.36 946.113 L1476.03 946.113 L1476.03 950.048 L1446.36 950.048 L1446.36 946.113 Z" fill="#000000" fill-rule="evenodd" fill-opacity="1" /><path clip-path="url(#clip060)" d="M1496.12 931.46 Q1492.51 931.46 1490.68 935.025 Q1488.88 938.566 1488.88 945.696 Q1488.88 952.802 1490.68 956.367 Q1492.51 959.909 1496.12 959.909 Q1499.76 959.909 1501.56 956.367 Q1503.39 952.802 1503.39 945.696 Q1503.39 938.566 1501.56 935.025 Q1499.76 931.46 1496.12 931.46 M1496.12 927.756 Q1501.93 927.756 1504.99 932.363 Q1508.07 936.946 1508.07 945.696 Q1508.07 954.423 1504.99 959.029 Q1501.93 963.613 1496.12 963.613 Q1490.31 963.613 1487.24 959.029 Q1484.18 954.423 1484.18 945.696 Q1484.18 936.946 1487.24 932.363 Q1490.31 927.756 1496.12 927.756 Z" fill="#000000" fill-rule="evenodd" fill-opacity="1" /><path clip-path="url(#clip060)" d="M1516.29 957.062 L1521.17 957.062 L1521.17 962.941 L1516.29 962.941 L1516.29 957.062 Z" fill="#000000" fill-rule="evenodd" fill-opacity="1" /><path clip-path="url(#clip060)" d="M1532.17 959.006 L1539.8 959.006 L1539.8 932.641 L1531.49 934.307 L1531.49 930.048 L1539.76 928.381 L1544.43 928.381 L1544.43 959.006 L1552.07 959.006 L1552.07 962.941 L1532.17 962.941 L1532.17 959.006 Z" fill="#000000" fill-rule="evenodd" fill-opacity="1" /><path clip-path="url(#clip060)" d="M1561.56 928.381 L1579.92 928.381 L1579.92 932.316 L1565.85 932.316 L1565.85 940.789 Q1566.86 940.441 1567.88 940.279 Q1568.9 940.094 1569.92 940.094 Q1575.71 940.094 1579.09 943.265 Q1582.47 946.437 1582.47 951.853 Q1582.47 957.432 1578.99 960.534 Q1575.52 963.613 1569.2 963.613 Q1567.03 963.613 1564.76 963.242 Q1562.51 962.872 1560.11 962.131 L1560.11 957.432 Q1562.19 958.566 1564.41 959.122 Q1566.63 959.677 1569.11 959.677 Q1573.11 959.677 1575.45 957.571 Q1577.79 955.465 1577.79 951.853 Q1577.79 948.242 1575.45 946.136 Q1573.11 944.029 1569.11 944.029 Q1567.24 944.029 1565.36 944.446 Q1563.51 944.863 1561.56 945.742 L1561.56 928.381 Z" fill="#000000" fill-rule="evenodd" fill-opacity="1" /><path clip-path="url(#clip060)" d="M1835.79 946.113 L1865.46 946.113 L1865.46 950.048 L1835.79 950.048 L1835.79 946.113 Z" fill="#000000" fill-rule="evenodd" fill-opacity="1" /><path clip-path="url(#clip060)" d="M1885.55 931.46 Q1881.94 931.46 1880.11 935.025 Q1878.31 938.566 1878.31 945.696 Q1878.31 952.802 1880.11 956.367 Q1881.94 959.909 1885.55 959.909 Q1889.19 959.909 1890.99 956.367 Q1892.82 952.802 1892.82 945.696 Q1892.82 938.566 1890.99 935.025 Q1889.19 931.46 1885.55 931.46 M1885.55 927.756 Q1891.36 927.756 1894.42 932.363 Q1897.5 936.946 1897.5 945.696 Q1897.5 954.423 1894.42 959.029 Q1891.36 963.613 1885.55 963.613 Q1879.74 963.613 1876.67 959.029 Q1873.61 954.423 1873.61 945.696 Q1873.61 936.946 1876.67 932.363 Q1879.74 927.756 1885.55 927.756 Z" fill="#000000" fill-rule="evenodd" fill-opacity="1" /><path clip-path="url(#clip060)" d="M1905.72 957.062 L1910.6 957.062 L1910.6 962.941 L1905.72 962.941 L1905.72 957.062 Z" fill="#000000" fill-rule="evenodd" fill-opacity="1" /><path clip-path="url(#clip060)" d="M1921.6 959.006 L1929.23 959.006 L1929.23 932.641 L1920.92 934.307 L1920.92 930.048 L1929.19 928.381 L1933.86 928.381 L1933.86 959.006 L1941.5 959.006 L1941.5 962.941 L1921.6 962.941 L1921.6 959.006 Z" fill="#000000" fill-rule="evenodd" fill-opacity="1" /><path clip-path="url(#clip060)" d="M1960.95 931.46 Q1957.34 931.46 1955.51 935.025 Q1953.7 938.566 1953.7 945.696 Q1953.7 952.802 1955.51 956.367 Q1957.34 959.909 1960.95 959.909 Q1964.58 959.909 1966.39 956.367 Q1968.22 952.802 1968.22 945.696 Q1968.22 938.566 1966.39 935.025 Q1964.58 931.46 1960.95 931.46 M1960.95 927.756 Q1966.76 927.756 1969.81 932.363 Q1972.89 936.946 1972.89 945.696 Q1972.89 954.423 1969.81 959.029 Q1966.76 963.613 1960.95 963.613 Q1955.14 963.613 1952.06 959.029 Q1949 954.423 1949 945.696 Q1949 936.946 1952.06 932.363 Q1955.14 927.756 1960.95 927.756 Z" fill="#000000" fill-rule="evenodd" fill-opacity="1" /><path clip-path="url(#clip060)" d="M2226.21 946.113 L2255.89 946.113 L2255.89 950.048 L2226.21 950.048 L2226.21 946.113 Z" fill="#000000" fill-rule="evenodd" fill-opacity="1" /><path clip-path="url(#clip060)" d="M2275.98 931.46 Q2272.37 931.46 2270.54 935.025 Q2268.73 938.566 2268.73 945.696 Q2268.73 952.802 2270.54 956.367 Q2272.37 959.909 2275.98 959.909 Q2279.61 959.909 2281.42 956.367 Q2283.25 952.802 2283.25 945.696 Q2283.25 938.566 2281.42 935.025 Q2279.61 931.46 2275.98 931.46 M2275.98 927.756 Q2281.79 927.756 2284.85 932.363 Q2287.92 936.946 2287.92 945.696 Q2287.92 954.423 2284.85 959.029 Q2281.79 963.613 2275.98 963.613 Q2270.17 963.613 2267.09 959.029 Q2264.04 954.423 2264.04 945.696 Q2264.04 936.946 2267.09 932.363 Q2270.17 927.756 2275.98 927.756 Z" fill="#000000" fill-rule="evenodd" fill-opacity="1" /><path clip-path="url(#clip060)" d="M2296.14 957.062 L2301.03 957.062 L2301.03 962.941 L2296.14 962.941 L2296.14 957.062 Z" fill="#000000" fill-rule="evenodd" fill-opacity="1" /><path clip-path="url(#clip060)" d="M2321.21 931.46 Q2317.6 931.46 2315.77 935.025 Q2313.97 938.566 2313.97 945.696 Q2313.97 952.802 2315.77 956.367 Q2317.6 959.909 2321.21 959.909 Q2324.85 959.909 2326.65 956.367 Q2328.48 952.802 2328.48 945.696 Q2328.48 938.566 2326.65 935.025 Q2324.85 931.46 2321.21 931.46 M2321.21 927.756 Q2327.02 927.756 2330.08 932.363 Q2333.16 936.946 2333.16 945.696 Q2333.16 954.423 2330.08 959.029 Q2327.02 963.613 2321.21 963.613 Q2315.4 963.613 2312.32 959.029 Q2309.27 954.423 2309.27 945.696 Q2309.27 936.946 2312.32 932.363 Q2315.4 927.756 2321.21 927.756 Z" fill="#000000" fill-rule="evenodd" fill-opacity="1" /><path clip-path="url(#clip060)" d="M2341.42 928.381 L2359.78 928.381 L2359.78 932.316 L2345.7 932.316 L2345.7 940.789 Q2346.72 940.441 2347.74 940.279 Q2348.76 940.094 2349.78 940.094 Q2355.56 940.094 2358.94 943.265 Q2362.32 946.437 2362.32 951.853 Q2362.32 957.432 2358.85 960.534 Q2355.38 963.613 2349.06 963.613 Q2346.88 963.613 2344.61 963.242 Q2342.37 962.872 2339.96 962.131 L2339.96 957.432 Q2342.04 958.566 2344.27 959.122 Q2346.49 959.677 2348.97 959.677 Q2352.97 959.677 2355.31 957.571 Q2357.65 955.465 2357.65 951.853 Q2357.65 948.242 2355.31 946.136 Q2352.97 944.029 2348.97 944.029 Q2347.09 944.029 2345.22 944.446 Q2343.36 944.863 2341.42 945.742 L2341.42 928.381 Z" fill="#000000" fill-rule="evenodd" fill-opacity="1" /><path clip-path="url(#clip060)" d="M1262.03 1023.13 Q1264.1 1023.83 1266.04 1026.12 Q1268.01 1028.41 1269.99 1032.42 L1276.51 1045.41 L1269.6 1045.41 L1263.52 1033.21 Q1261.17 1028.44 1258.94 1026.88 Q1256.75 1025.32 1252.93 1025.32 L1245.92 1025.32 L1245.92 1045.41 L1239.49 1045.41 L1239.49 997.885 L1254.01 997.885 Q1262.16 997.885 1266.17 1001.29 Q1270.18 1004.7 1270.18 1011.57 Q1270.18 1016.06 1268.08 1019.02 Q1266.01 1021.98 1262.03 1023.13 M1245.92 1003.17 L1245.92 1020.04 L1254.01 1020.04 Q1258.65 1020.04 1261.01 1017.91 Q1263.4 1015.74 1263.4 1011.57 Q1263.4 1007.4 1261.01 1005.3 Q1258.65 1003.17 1254.01 1003.17 L1245.92 1003.17 Z" fill="#000000" fill-rule="evenodd" fill-opacity="1" /><path clip-path="url(#clip060)" d="M1312.1 1026.12 L1312.1 1028.98 L1285.17 1028.98 Q1285.55 1035.03 1288.8 1038.21 Q1292.07 1041.36 1297.9 1041.36 Q1301.27 1041.36 1304.42 1040.54 Q1307.61 1039.71 1310.73 1038.05 L1310.73 1043.59 Q1307.58 1044.93 1304.27 1045.63 Q1300.96 1046.33 1297.55 1046.33 Q1289.02 1046.33 1284.02 1041.36 Q1279.06 1036.4 1279.06 1027.93 Q1279.06 1019.18 1283.77 1014.05 Q1288.51 1008.9 1296.53 1008.9 Q1303.72 1008.9 1307.89 1013.54 Q1312.1 1018.16 1312.1 1026.12 M1306.24 1024.4 Q1306.17 1019.59 1303.53 1016.73 Q1300.92 1013.86 1296.59 1013.86 Q1291.69 1013.86 1288.73 1016.63 Q1285.8 1019.4 1285.36 1024.43 L1306.24 1024.4 Z" fill="#000000" fill-rule="evenodd" fill-opacity="1" /><path clip-path="url(#clip060)" d="M1335.78 995.944 Q1331.51 1003.26 1329.44 1010.43 Q1327.37 1017.59 1327.37 1024.94 Q1327.37 1032.29 1329.44 1039.52 Q1331.54 1046.71 1335.78 1054 L1330.68 1054 Q1325.91 1046.52 1323.52 1039.29 Q1321.17 1032.07 1321.17 1024.94 Q1321.17 1017.84 1323.52 1010.65 Q1325.88 1003.46 1330.68 995.944 L1335.78 995.944 Z" fill="#000000" fill-rule="evenodd" fill-opacity="1" /><path clip-path="url(#clip060)" d="M1376.77 1009.76 L1363.88 1027.1 L1377.44 1045.41 L1370.53 1045.41 L1360.16 1031.4 L1349.78 1045.41 L1342.87 1045.41 L1356.72 1026.75 L1344.05 1009.76 L1350.96 1009.76 L1360.41 1022.46 L1369.86 1009.76 L1376.77 1009.76 Z" fill="#000000" fill-rule="evenodd" fill-opacity="1" /><path clip-path="url(#clip060)" d="M1384.79 995.944 L1389.88 995.944 Q1394.66 1003.46 1397.01 1010.65 Q1399.4 1017.84 1399.4 1024.94 Q1399.4 1032.07 1397.01 1039.29 Q1394.66 1046.52 1389.88 1054 L1384.79 1054 Q1389.02 1046.71 1391.09 1039.52 Q1393.19 1032.29 1393.19 1024.94 Q1393.19 1017.59 1391.09 1010.43 Q1389.02 1003.26 1384.79 995.944 Z" fill="#000000" fill-rule="evenodd" fill-opacity="1" /><polyline clip-path="url(#clip060)" style="stroke:#000000; stroke-linecap:butt; stroke-linejoin:round; stroke-width:4; stroke-opacity:1; fill:none" points="
  286.139,900.541 286.139,569.883 
  "/>
<polyline clip-path="url(#clip060)" style="stroke:#000000; stroke-linecap:butt; stroke-linejoin:round; stroke-width:4; stroke-opacity:1; fill:none" points="
  286.139,891.183 305.037,891.183 
  "/>
<polyline clip-path="url(#clip060)" style="stroke:#000000; stroke-linecap:butt; stroke-linejoin:round; stroke-width:4; stroke-opacity:1; fill:none" points="
  286.139,813.198 305.037,813.198 
  "/>
<polyline clip-path="url(#clip060)" style="stroke:#000000; stroke-linecap:butt; stroke-linejoin:round; stroke-width:4; stroke-opacity:1; fill:none" points="
  286.139,735.212 305.037,735.212 
  "/>
<polyline clip-path="url(#clip060)" style="stroke:#000000; stroke-linecap:butt; stroke-linejoin:round; stroke-width:4; stroke-opacity:1; fill:none" points="
  286.139,657.226 305.037,657.226 
  "/>
<polyline clip-path="url(#clip060)" style="stroke:#000000; stroke-linecap:butt; stroke-linejoin:round; stroke-width:4; stroke-opacity:1; fill:none" points="
  286.139,579.241 305.037,579.241 
  "/>
<path clip-path="url(#clip060)" d="M114.631 891.634 L144.306 891.634 L144.306 895.57 L114.631 895.57 L114.631 891.634 Z" fill="#000000" fill-rule="evenodd" fill-opacity="1" /><path clip-path="url(#clip060)" d="M164.399 876.982 Q160.788 876.982 158.959 880.547 Q157.153 884.088 157.153 891.218 Q157.153 898.324 158.959 901.889 Q160.788 905.431 164.399 905.431 Q168.033 905.431 169.839 901.889 Q171.667 898.324 171.667 891.218 Q171.667 884.088 169.839 880.547 Q168.033 876.982 164.399 876.982 M164.399 873.278 Q170.209 873.278 173.264 877.885 Q176.343 882.468 176.343 891.218 Q176.343 899.945 173.264 904.551 Q170.209 909.134 164.399 909.134 Q158.589 909.134 155.51 904.551 Q152.454 899.945 152.454 891.218 Q152.454 882.468 155.51 877.885 Q158.589 873.278 164.399 873.278 Z" fill="#000000" fill-rule="evenodd" fill-opacity="1" /><path clip-path="url(#clip060)" d="M184.561 902.583 L189.445 902.583 L189.445 908.463 L184.561 908.463 L184.561 902.583 Z" fill="#000000" fill-rule="evenodd" fill-opacity="1" /><path clip-path="url(#clip060)" d="M209.63 876.982 Q206.019 876.982 204.19 880.547 Q202.385 884.088 202.385 891.218 Q202.385 898.324 204.19 901.889 Q206.019 905.431 209.63 905.431 Q213.264 905.431 215.07 901.889 Q216.898 898.324 216.898 891.218 Q216.898 884.088 215.07 880.547 Q213.264 876.982 209.63 876.982 M209.63 873.278 Q215.44 873.278 218.496 877.885 Q221.574 882.468 221.574 891.218 Q221.574 899.945 218.496 904.551 Q215.44 909.134 209.63 909.134 Q203.82 909.134 200.741 904.551 Q197.686 899.945 197.686 891.218 Q197.686 882.468 200.741 877.885 Q203.82 873.278 209.63 873.278 Z" fill="#000000" fill-rule="evenodd" fill-opacity="1" /><path clip-path="url(#clip060)" d="M233.82 904.528 L250.139 904.528 L250.139 908.463 L228.195 908.463 L228.195 904.528 Q230.857 901.773 235.44 897.144 Q240.047 892.491 241.227 891.148 Q243.472 888.625 244.352 886.889 Q245.255 885.13 245.255 883.44 Q245.255 880.685 243.31 878.949 Q241.389 877.213 238.287 877.213 Q236.088 877.213 233.635 877.977 Q231.204 878.741 228.426 880.292 L228.426 875.57 Q231.25 874.435 233.704 873.857 Q236.158 873.278 238.195 873.278 Q243.565 873.278 246.759 875.963 Q249.954 878.648 249.954 883.139 Q249.954 885.269 249.144 887.19 Q248.357 889.088 246.25 891.681 Q245.671 892.352 242.57 895.57 Q239.468 898.764 233.82 904.528 Z" fill="#000000" fill-rule="evenodd" fill-opacity="1" /><path clip-path="url(#clip060)" d="M114.26 813.649 L143.936 813.649 L143.936 817.584 L114.26 817.584 L114.26 813.649 Z" fill="#000000" fill-rule="evenodd" fill-opacity="1" /><path clip-path="url(#clip060)" d="M164.028 798.996 Q160.417 798.996 158.589 802.561 Q156.783 806.103 156.783 813.232 Q156.783 820.339 158.589 823.903 Q160.417 827.445 164.028 827.445 Q167.663 827.445 169.468 823.903 Q171.297 820.339 171.297 813.232 Q171.297 806.103 169.468 802.561 Q167.663 798.996 164.028 798.996 M164.028 795.293 Q169.839 795.293 172.894 799.899 Q175.973 804.482 175.973 813.232 Q175.973 821.959 172.894 826.565 Q169.839 831.149 164.028 831.149 Q158.218 831.149 155.14 826.565 Q152.084 821.959 152.084 813.232 Q152.084 804.482 155.14 799.899 Q158.218 795.293 164.028 795.293 Z" fill="#000000" fill-rule="evenodd" fill-opacity="1" /><path clip-path="url(#clip060)" d="M184.19 824.598 L189.075 824.598 L189.075 830.478 L184.19 830.478 L184.19 824.598 Z" fill="#000000" fill-rule="evenodd" fill-opacity="1" /><path clip-path="url(#clip060)" d="M209.26 798.996 Q205.649 798.996 203.82 802.561 Q202.014 806.103 202.014 813.232 Q202.014 820.339 203.82 823.903 Q205.649 827.445 209.26 827.445 Q212.894 827.445 214.699 823.903 Q216.528 820.339 216.528 813.232 Q216.528 806.103 214.699 802.561 Q212.894 798.996 209.26 798.996 M209.26 795.293 Q215.07 795.293 218.125 799.899 Q221.204 804.482 221.204 813.232 Q221.204 821.959 218.125 826.565 Q215.07 831.149 209.26 831.149 Q203.449 831.149 200.371 826.565 Q197.315 821.959 197.315 813.232 Q197.315 804.482 200.371 799.899 Q203.449 795.293 209.26 795.293 Z" fill="#000000" fill-rule="evenodd" fill-opacity="1" /><path clip-path="url(#clip060)" d="M230.232 826.542 L237.871 826.542 L237.871 800.177 L229.56 801.843 L229.56 797.584 L237.824 795.918 L242.5 795.918 L242.5 826.542 L250.139 826.542 L250.139 830.478 L230.232 830.478 L230.232 826.542 Z" fill="#000000" fill-rule="evenodd" fill-opacity="1" /><path clip-path="url(#clip060)" d="M162.802 721.011 Q159.19 721.011 157.362 724.575 Q155.556 728.117 155.556 735.247 Q155.556 742.353 157.362 745.918 Q159.19 749.46 162.802 749.46 Q166.436 749.46 168.241 745.918 Q170.07 742.353 170.07 735.247 Q170.07 728.117 168.241 724.575 Q166.436 721.011 162.802 721.011 M162.802 717.307 Q168.612 717.307 171.667 721.913 Q174.746 726.497 174.746 735.247 Q174.746 743.973 171.667 748.58 Q168.612 753.163 162.802 753.163 Q156.991 753.163 153.913 748.58 Q150.857 743.973 150.857 735.247 Q150.857 726.497 153.913 721.913 Q156.991 717.307 162.802 717.307 Z" fill="#000000" fill-rule="evenodd" fill-opacity="1" /><path clip-path="url(#clip060)" d="M182.963 746.612 L187.848 746.612 L187.848 752.492 L182.963 752.492 L182.963 746.612 Z" fill="#000000" fill-rule="evenodd" fill-opacity="1" /><path clip-path="url(#clip060)" d="M208.033 721.011 Q204.422 721.011 202.593 724.575 Q200.787 728.117 200.787 735.247 Q200.787 742.353 202.593 745.918 Q204.422 749.46 208.033 749.46 Q211.667 749.46 213.473 745.918 Q215.301 742.353 215.301 735.247 Q215.301 728.117 213.473 724.575 Q211.667 721.011 208.033 721.011 M208.033 717.307 Q213.843 717.307 216.898 721.913 Q219.977 726.497 219.977 735.247 Q219.977 743.973 216.898 748.58 Q213.843 753.163 208.033 753.163 Q202.223 753.163 199.144 748.58 Q196.088 743.973 196.088 735.247 Q196.088 726.497 199.144 721.913 Q202.223 717.307 208.033 717.307 Z" fill="#000000" fill-rule="evenodd" fill-opacity="1" /><path clip-path="url(#clip060)" d="M238.195 721.011 Q234.584 721.011 232.755 724.575 Q230.949 728.117 230.949 735.247 Q230.949 742.353 232.755 745.918 Q234.584 749.46 238.195 749.46 Q241.829 749.46 243.634 745.918 Q245.463 742.353 245.463 735.247 Q245.463 728.117 243.634 724.575 Q241.829 721.011 238.195 721.011 M238.195 717.307 Q244.005 717.307 247.06 721.913 Q250.139 726.497 250.139 735.247 Q250.139 743.973 247.06 748.58 Q244.005 753.163 238.195 753.163 Q232.385 753.163 229.306 748.58 Q226.25 743.973 226.25 735.247 Q226.25 726.497 229.306 721.913 Q232.385 717.307 238.195 717.307 Z" fill="#000000" fill-rule="evenodd" fill-opacity="1" /><path clip-path="url(#clip060)" d="M164.028 643.025 Q160.417 643.025 158.589 646.59 Q156.783 650.132 156.783 657.261 Q156.783 664.368 158.589 667.932 Q160.417 671.474 164.028 671.474 Q167.663 671.474 169.468 667.932 Q171.297 664.368 171.297 657.261 Q171.297 650.132 169.468 646.59 Q167.663 643.025 164.028 643.025 M164.028 639.321 Q169.839 639.321 172.894 643.928 Q175.973 648.511 175.973 657.261 Q175.973 665.988 172.894 670.594 Q169.839 675.178 164.028 675.178 Q158.218 675.178 155.14 670.594 Q152.084 665.988 152.084 657.261 Q152.084 648.511 155.14 643.928 Q158.218 639.321 164.028 639.321 Z" fill="#000000" fill-rule="evenodd" fill-opacity="1" /><path clip-path="url(#clip060)" d="M184.19 668.627 L189.075 668.627 L189.075 674.506 L184.19 674.506 L184.19 668.627 Z" fill="#000000" fill-rule="evenodd" fill-opacity="1" /><path clip-path="url(#clip060)" d="M209.26 643.025 Q205.649 643.025 203.82 646.59 Q202.014 650.132 202.014 657.261 Q202.014 664.368 203.82 667.932 Q205.649 671.474 209.26 671.474 Q212.894 671.474 214.699 667.932 Q216.528 664.368 216.528 657.261 Q216.528 650.132 214.699 646.59 Q212.894 643.025 209.26 643.025 M209.26 639.321 Q215.07 639.321 218.125 643.928 Q221.204 648.511 221.204 657.261 Q221.204 665.988 218.125 670.594 Q215.07 675.178 209.26 675.178 Q203.449 675.178 200.371 670.594 Q197.315 665.988 197.315 657.261 Q197.315 648.511 200.371 643.928 Q203.449 639.321 209.26 639.321 Z" fill="#000000" fill-rule="evenodd" fill-opacity="1" /><path clip-path="url(#clip060)" d="M230.232 670.571 L237.871 670.571 L237.871 644.206 L229.56 645.872 L229.56 641.613 L237.824 639.946 L242.5 639.946 L242.5 670.571 L250.139 670.571 L250.139 674.506 L230.232 674.506 L230.232 670.571 Z" fill="#000000" fill-rule="evenodd" fill-opacity="1" /><path clip-path="url(#clip060)" d="M164.399 565.04 Q160.788 565.04 158.959 568.604 Q157.153 572.146 157.153 579.276 Q157.153 586.382 158.959 589.947 Q160.788 593.488 164.399 593.488 Q168.033 593.488 169.839 589.947 Q171.667 586.382 171.667 579.276 Q171.667 572.146 169.839 568.604 Q168.033 565.04 164.399 565.04 M164.399 561.336 Q170.209 561.336 173.264 565.942 Q176.343 570.526 176.343 579.276 Q176.343 588.002 173.264 592.609 Q170.209 597.192 164.399 597.192 Q158.589 597.192 155.51 592.609 Q152.454 588.002 152.454 579.276 Q152.454 570.526 155.51 565.942 Q158.589 561.336 164.399 561.336 Z" fill="#000000" fill-rule="evenodd" fill-opacity="1" /><path clip-path="url(#clip060)" d="M184.561 590.641 L189.445 590.641 L189.445 596.521 L184.561 596.521 L184.561 590.641 Z" fill="#000000" fill-rule="evenodd" fill-opacity="1" /><path clip-path="url(#clip060)" d="M209.63 565.04 Q206.019 565.04 204.19 568.604 Q202.385 572.146 202.385 579.276 Q202.385 586.382 204.19 589.947 Q206.019 593.488 209.63 593.488 Q213.264 593.488 215.07 589.947 Q216.898 586.382 216.898 579.276 Q216.898 572.146 215.07 568.604 Q213.264 565.04 209.63 565.04 M209.63 561.336 Q215.44 561.336 218.496 565.942 Q221.574 570.526 221.574 579.276 Q221.574 588.002 218.496 592.609 Q215.44 597.192 209.63 597.192 Q203.82 597.192 200.741 592.609 Q197.686 588.002 197.686 579.276 Q197.686 570.526 200.741 565.942 Q203.82 561.336 209.63 561.336 Z" fill="#000000" fill-rule="evenodd" fill-opacity="1" /><path clip-path="url(#clip060)" d="M233.82 592.586 L250.139 592.586 L250.139 596.521 L228.195 596.521 L228.195 592.586 Q230.857 589.831 235.44 585.202 Q240.047 580.549 241.227 579.206 Q243.472 576.683 244.352 574.947 Q245.255 573.188 245.255 571.498 Q245.255 568.743 243.31 567.007 Q241.389 565.271 238.287 565.271 Q236.088 565.271 233.635 566.035 Q231.204 566.799 228.426 568.35 L228.426 563.628 Q231.25 562.493 233.704 561.915 Q236.158 561.336 238.195 561.336 Q243.565 561.336 246.759 564.021 Q249.954 566.706 249.954 571.197 Q249.954 573.327 249.144 575.248 Q248.357 577.146 246.25 579.739 Q245.671 580.41 242.57 583.627 Q239.468 586.822 233.82 592.586 Z" fill="#000000" fill-rule="evenodd" fill-opacity="1" /><path clip-path="url(#clip060)" d="M16.4842 815.293 L16.4842 808.863 L64.0042 808.863 L64.0042 815.293 L16.4842 815.293 Z" fill="#000000" fill-rule="evenodd" fill-opacity="1" /><path clip-path="url(#clip060)" d="M35.1993 768.568 Q31.2526 766.372 29.3747 763.317 Q27.4968 760.261 27.4968 756.123 Q27.4968 750.553 31.4117 747.53 Q35.2948 744.506 42.4881 744.506 L64.0042 744.506 L64.0042 750.394 L42.679 750.394 Q37.5546 750.394 35.072 752.208 Q32.5894 754.023 32.5894 757.747 Q32.5894 762.298 35.6131 764.94 Q38.6368 767.582 43.8567 767.582 L64.0042 767.582 L64.0042 773.47 L42.679 773.47 Q37.5228 773.47 35.072 775.284 Q32.5894 777.098 32.5894 780.886 Q32.5894 785.374 35.6449 788.016 Q38.6686 790.657 43.8567 790.657 L64.0042 790.657 L64.0042 796.546 L28.3562 796.546 L28.3562 790.657 L33.8944 790.657 Q30.616 788.652 29.0564 785.851 Q27.4968 783.05 27.4968 779.199 Q27.4968 775.316 29.4702 772.61 Q31.4436 769.873 35.1993 768.568 Z" fill="#000000" fill-rule="evenodd" fill-opacity="1" /><path clip-path="url(#clip060)" d="M14.5426 718.757 Q21.8632 723.022 29.0246 725.09 Q36.186 727.159 43.5384 727.159 Q50.8908 727.159 58.1159 725.09 Q65.3091 722.99 72.5979 718.757 L72.5979 723.849 Q65.1182 728.623 57.8931 731.011 Q50.668 733.366 43.5384 733.366 Q36.4406 733.366 29.2474 731.011 Q22.0542 728.655 14.5426 723.849 L14.5426 718.757 Z" fill="#000000" fill-rule="evenodd" fill-opacity="1" /><path clip-path="url(#clip060)" d="M28.3562 677.761 L45.7028 690.652 L64.0042 677.093 L64.0042 684 L49.9996 694.376 L64.0042 704.752 L64.0042 711.659 L45.3526 697.813 L28.3562 710.481 L28.3562 703.574 L41.0558 694.121 L28.3562 684.668 L28.3562 677.761 Z" fill="#000000" fill-rule="evenodd" fill-opacity="1" /><path clip-path="url(#clip060)" d="M14.5426 669.741 L14.5426 664.648 Q22.0542 659.874 29.2474 657.519 Q36.4406 655.131 43.5384 655.131 Q50.668 655.131 57.8931 657.519 Q65.1182 659.874 72.5979 664.648 L72.5979 669.741 Q65.3091 665.507 58.1159 663.439 Q50.8908 661.338 43.5384 661.338 Q36.186 661.338 29.0246 663.439 Q21.8632 665.507 14.5426 669.741 Z" fill="#000000" fill-rule="evenodd" fill-opacity="1" /><circle clip-path="url(#clip062)" cx="981.029" cy="735.212" r="14" fill="#fb8d00" fill-rule="evenodd" fill-opacity="0.3" stroke="#000000" stroke-opacity="0.3" stroke-width="3.2"/>
<circle clip-path="url(#clip062)" cx="989.168" cy="742.084" r="14" fill="#fb8d00" fill-rule="evenodd" fill-opacity="0.3" stroke="#000000" stroke-opacity="0.3" stroke-width="3.2"/>
<circle clip-path="url(#clip062)" cx="989.168" cy="728.34" r="14" fill="#fb8d00" fill-rule="evenodd" fill-opacity="0.3" stroke="#000000" stroke-opacity="0.3" stroke-width="3.2"/>
<circle clip-path="url(#clip062)" cx="993.933" cy="766.438" r="14" fill="#fb8d00" fill-rule="evenodd" fill-opacity="0.3" stroke="#000000" stroke-opacity="0.3" stroke-width="3.2"/>
<circle clip-path="url(#clip062)" cx="993.933" cy="703.986" r="14" fill="#fb8d00" fill-rule="evenodd" fill-opacity="0.3" stroke="#000000" stroke-opacity="0.3" stroke-width="3.2"/>
<circle clip-path="url(#clip062)" cx="995.552" cy="735.212" r="14" fill="#fb8d00" fill-rule="evenodd" fill-opacity="0.3" stroke="#000000" stroke-opacity="0.3" stroke-width="3.2"/>
<circle clip-path="url(#clip062)" cx="996.259" cy="760.648" r="14" fill="#fb8d00" fill-rule="evenodd" fill-opacity="0.3" stroke="#000000" stroke-opacity="0.3" stroke-width="3.2"/>
<circle clip-path="url(#clip062)" cx="996.259" cy="709.776" r="14" fill="#fb8d00" fill-rule="evenodd" fill-opacity="0.3" stroke="#000000" stroke-opacity="0.3" stroke-width="3.2"/>
<circle clip-path="url(#clip062)" cx="1002.03" cy="735.212" r="14" fill="#fb8d00" fill-rule="evenodd" fill-opacity="0.3" stroke="#000000" stroke-opacity="0.3" stroke-width="3.2"/>
<circle clip-path="url(#clip062)" cx="1003.86" cy="779.263" r="14" fill="#fb8d00" fill-rule="evenodd" fill-opacity="0.3" stroke="#000000" stroke-opacity="0.3" stroke-width="3.2"/>
<circle clip-path="url(#clip062)" cx="1003.86" cy="691.16" r="14" fill="#fb8d00" fill-rule="evenodd" fill-opacity="0.3" stroke="#000000" stroke-opacity="0.3" stroke-width="3.2"/>
<circle clip-path="url(#clip062)" cx="1009.03" cy="751.591" r="14" fill="#fb8d00" fill-rule="evenodd" fill-opacity="0.3" stroke="#000000" stroke-opacity="0.3" stroke-width="3.2"/>
<circle clip-path="url(#clip062)" cx="1009.03" cy="718.833" r="14" fill="#fb8d00" fill-rule="evenodd" fill-opacity="0.3" stroke="#000000" stroke-opacity="0.3" stroke-width="3.2"/>
<circle clip-path="url(#clip062)" cx="1014.35" cy="758.276" r="14" fill="#fb8d00" fill-rule="evenodd" fill-opacity="0.3" stroke="#000000" stroke-opacity="0.3" stroke-width="3.2"/>
<circle clip-path="url(#clip062)" cx="1014.35" cy="712.147" r="14" fill="#fb8d00" fill-rule="evenodd" fill-opacity="0.3" stroke="#000000" stroke-opacity="0.3" stroke-width="3.2"/>
<circle clip-path="url(#clip062)" cx="1015.45" cy="735.742" r="14" fill="#fb8d00" fill-rule="evenodd" fill-opacity="0.3" stroke="#000000" stroke-opacity="0.3" stroke-width="3.2"/>
<circle clip-path="url(#clip062)" cx="1015.45" cy="734.682" r="14" fill="#fb8d00" fill-rule="evenodd" fill-opacity="0.3" stroke="#000000" stroke-opacity="0.3" stroke-width="3.2"/>
<circle clip-path="url(#clip062)" cx="1017.65" cy="767.286" r="14" fill="#fb8d00" fill-rule="evenodd" fill-opacity="0.3" stroke="#000000" stroke-opacity="0.3" stroke-width="3.2"/>
<circle clip-path="url(#clip062)" cx="1017.65" cy="703.138" r="14" fill="#fb8d00" fill-rule="evenodd" fill-opacity="0.3" stroke="#000000" stroke-opacity="0.3" stroke-width="3.2"/>
<circle clip-path="url(#clip062)" cx="1017.93" cy="785.04" r="14" fill="#fb8d00" fill-rule="evenodd" fill-opacity="0.3" stroke="#000000" stroke-opacity="0.3" stroke-width="3.2"/>
<circle clip-path="url(#clip062)" cx="1017.93" cy="685.384" r="14" fill="#fb8d00" fill-rule="evenodd" fill-opacity="0.3" stroke="#000000" stroke-opacity="0.3" stroke-width="3.2"/>
<circle clip-path="url(#clip062)" cx="1024.6" cy="756.086" r="14" fill="#fb8d00" fill-rule="evenodd" fill-opacity="0.3" stroke="#000000" stroke-opacity="0.3" stroke-width="3.2"/>
<circle clip-path="url(#clip062)" cx="1024.6" cy="714.338" r="14" fill="#fb8d00" fill-rule="evenodd" fill-opacity="0.3" stroke="#000000" stroke-opacity="0.3" stroke-width="3.2"/>
<circle clip-path="url(#clip062)" cx="1027.89" cy="788.977" r="14" fill="#fb8d00" fill-rule="evenodd" fill-opacity="0.3" stroke="#000000" stroke-opacity="0.3" stroke-width="3.2"/>
<circle clip-path="url(#clip062)" cx="1027.89" cy="681.447" r="14" fill="#fb8d00" fill-rule="evenodd" fill-opacity="0.3" stroke="#000000" stroke-opacity="0.3" stroke-width="3.2"/>
<circle clip-path="url(#clip062)" cx="1029.39" cy="735.212" r="14" fill="#fb8d00" fill-rule="evenodd" fill-opacity="0.3" stroke="#000000" stroke-opacity="0.3" stroke-width="3.2"/>
<circle clip-path="url(#clip062)" cx="1030.89" cy="778.372" r="14" fill="#fb8d00" fill-rule="evenodd" fill-opacity="0.3" stroke="#000000" stroke-opacity="0.3" stroke-width="3.2"/>
<circle clip-path="url(#clip062)" cx="1030.89" cy="692.052" r="14" fill="#fb8d00" fill-rule="evenodd" fill-opacity="0.3" stroke="#000000" stroke-opacity="0.3" stroke-width="3.2"/>
<circle clip-path="url(#clip062)" cx="1033.8" cy="735.212" r="14" fill="#fb8d00" fill-rule="evenodd" fill-opacity="0.3" stroke="#000000" stroke-opacity="0.3" stroke-width="3.2"/>
<circle clip-path="url(#clip062)" cx="1035.95" cy="740.437" r="14" fill="#fb8d00" fill-rule="evenodd" fill-opacity="0.3" stroke="#000000" stroke-opacity="0.3" stroke-width="3.2"/>
<circle clip-path="url(#clip062)" cx="1035.95" cy="729.987" r="14" fill="#fb8d00" fill-rule="evenodd" fill-opacity="0.3" stroke="#000000" stroke-opacity="0.3" stroke-width="3.2"/>
<circle clip-path="url(#clip062)" cx="1036.82" cy="782.804" r="14" fill="#fb8d00" fill-rule="evenodd" fill-opacity="0.3" stroke="#000000" stroke-opacity="0.3" stroke-width="3.2"/>
<circle clip-path="url(#clip062)" cx="1036.82" cy="687.62" r="14" fill="#fb8d00" fill-rule="evenodd" fill-opacity="0.3" stroke="#000000" stroke-opacity="0.3" stroke-width="3.2"/>
<circle clip-path="url(#clip062)" cx="1037.99" cy="764.747" r="14" fill="#fb8d00" fill-rule="evenodd" fill-opacity="0.3" stroke="#000000" stroke-opacity="0.3" stroke-width="3.2"/>
<circle clip-path="url(#clip062)" cx="1037.99" cy="705.677" r="14" fill="#fb8d00" fill-rule="evenodd" fill-opacity="0.3" stroke="#000000" stroke-opacity="0.3" stroke-width="3.2"/>
<circle clip-path="url(#clip062)" cx="1039.62" cy="756.644" r="14" fill="#fb8d00" fill-rule="evenodd" fill-opacity="0.3" stroke="#000000" stroke-opacity="0.3" stroke-width="3.2"/>
<circle clip-path="url(#clip062)" cx="1039.62" cy="713.78" r="14" fill="#fb8d00" fill-rule="evenodd" fill-opacity="0.3" stroke="#000000" stroke-opacity="0.3" stroke-width="3.2"/>
<circle clip-path="url(#clip062)" cx="1040.68" cy="794.576" r="14" fill="#fb8d00" fill-rule="evenodd" fill-opacity="0.3" stroke="#000000" stroke-opacity="0.3" stroke-width="3.2"/>
<circle clip-path="url(#clip062)" cx="1040.68" cy="675.848" r="14" fill="#fb8d00" fill-rule="evenodd" fill-opacity="0.3" stroke="#000000" stroke-opacity="0.3" stroke-width="3.2"/>
<circle clip-path="url(#clip062)" cx="1047.86" cy="789.513" r="14" fill="#fb8d00" fill-rule="evenodd" fill-opacity="0.3" stroke="#000000" stroke-opacity="0.3" stroke-width="3.2"/>
<circle clip-path="url(#clip062)" cx="1047.86" cy="680.911" r="14" fill="#fb8d00" fill-rule="evenodd" fill-opacity="0.3" stroke="#000000" stroke-opacity="0.3" stroke-width="3.2"/>
<circle clip-path="url(#clip062)" cx="1049.84" cy="760.394" r="14" fill="#fb8d00" fill-rule="evenodd" fill-opacity="0.3" stroke="#000000" stroke-opacity="0.3" stroke-width="3.2"/>
<circle clip-path="url(#clip062)" cx="1049.84" cy="710.029" r="14" fill="#fb8d00" fill-rule="evenodd" fill-opacity="0.3" stroke="#000000" stroke-opacity="0.3" stroke-width="3.2"/>
<circle clip-path="url(#clip062)" cx="1050.29" cy="765.199" r="14" fill="#fb8d00" fill-rule="evenodd" fill-opacity="0.3" stroke="#000000" stroke-opacity="0.3" stroke-width="3.2"/>
<circle clip-path="url(#clip062)" cx="1050.29" cy="705.225" r="14" fill="#fb8d00" fill-rule="evenodd" fill-opacity="0.3" stroke="#000000" stroke-opacity="0.3" stroke-width="3.2"/>
<circle clip-path="url(#clip062)" cx="1050.53" cy="781.536" r="14" fill="#fb8d00" fill-rule="evenodd" fill-opacity="0.3" stroke="#000000" stroke-opacity="0.3" stroke-width="3.2"/>
<circle clip-path="url(#clip062)" cx="1050.53" cy="688.888" r="14" fill="#fb8d00" fill-rule="evenodd" fill-opacity="0.3" stroke="#000000" stroke-opacity="0.3" stroke-width="3.2"/>
<circle clip-path="url(#clip062)" cx="1053.82" cy="735.212" r="14" fill="#fb8d00" fill-rule="evenodd" fill-opacity="0.3" stroke="#000000" stroke-opacity="0.3" stroke-width="3.2"/>
<circle clip-path="url(#clip062)" cx="1054.92" cy="751.643" r="14" fill="#fb8d00" fill-rule="evenodd" fill-opacity="0.3" stroke="#000000" stroke-opacity="0.3" stroke-width="3.2"/>
<circle clip-path="url(#clip062)" cx="1054.92" cy="718.781" r="14" fill="#fb8d00" fill-rule="evenodd" fill-opacity="0.3" stroke="#000000" stroke-opacity="0.3" stroke-width="3.2"/>
<circle clip-path="url(#clip062)" cx="1056.2" cy="785.75" r="14" fill="#fb8d00" fill-rule="evenodd" fill-opacity="0.3" stroke="#000000" stroke-opacity="0.3" stroke-width="3.2"/>
<circle clip-path="url(#clip062)" cx="1056.2" cy="684.674" r="14" fill="#fb8d00" fill-rule="evenodd" fill-opacity="0.3" stroke="#000000" stroke-opacity="0.3" stroke-width="3.2"/>
<circle clip-path="url(#clip062)" cx="1061.65" cy="735.212" r="14" fill="#fb8d00" fill-rule="evenodd" fill-opacity="0.3" stroke="#000000" stroke-opacity="0.3" stroke-width="3.2"/>
<circle clip-path="url(#clip062)" cx="1063.52" cy="800.805" r="14" fill="#fb8d00" fill-rule="evenodd" fill-opacity="0.3" stroke="#000000" stroke-opacity="0.3" stroke-width="3.2"/>
<circle clip-path="url(#clip062)" cx="1063.52" cy="669.619" r="14" fill="#fb8d00" fill-rule="evenodd" fill-opacity="0.3" stroke="#000000" stroke-opacity="0.3" stroke-width="3.2"/>
<circle clip-path="url(#clip062)" cx="1066.63" cy="754.254" r="14" fill="#fb8d00" fill-rule="evenodd" fill-opacity="0.3" stroke="#000000" stroke-opacity="0.3" stroke-width="3.2"/>
<circle clip-path="url(#clip062)" cx="1066.63" cy="716.17" r="14" fill="#fb8d00" fill-rule="evenodd" fill-opacity="0.3" stroke="#000000" stroke-opacity="0.3" stroke-width="3.2"/>
<circle clip-path="url(#clip062)" cx="1069.05" cy="789.718" r="14" fill="#fb8d00" fill-rule="evenodd" fill-opacity="0.3" stroke="#000000" stroke-opacity="0.3" stroke-width="3.2"/>
<circle clip-path="url(#clip062)" cx="1069.05" cy="680.706" r="14" fill="#fb8d00" fill-rule="evenodd" fill-opacity="0.3" stroke="#000000" stroke-opacity="0.3" stroke-width="3.2"/>
<circle clip-path="url(#clip062)" cx="1070.15" cy="774.212" r="14" fill="#fb8d00" fill-rule="evenodd" fill-opacity="0.3" stroke="#000000" stroke-opacity="0.3" stroke-width="3.2"/>
<circle clip-path="url(#clip062)" cx="1070.15" cy="696.212" r="14" fill="#fb8d00" fill-rule="evenodd" fill-opacity="0.3" stroke="#000000" stroke-opacity="0.3" stroke-width="3.2"/>
<circle clip-path="url(#clip062)" cx="1070.44" cy="735.212" r="14" fill="#fb8d00" fill-rule="evenodd" fill-opacity="0.3" stroke="#000000" stroke-opacity="0.3" stroke-width="3.2"/>
<circle clip-path="url(#clip062)" cx="1074.6" cy="735.212" r="14" fill="#fb8d00" fill-rule="evenodd" fill-opacity="0.3" stroke="#000000" stroke-opacity="0.3" stroke-width="3.2"/>
<circle clip-path="url(#clip062)" cx="1074.89" cy="755.752" r="14" fill="#fb8d00" fill-rule="evenodd" fill-opacity="0.3" stroke="#000000" stroke-opacity="0.3" stroke-width="3.2"/>
<circle clip-path="url(#clip062)" cx="1074.89" cy="714.672" r="14" fill="#fb8d00" fill-rule="evenodd" fill-opacity="0.3" stroke="#000000" stroke-opacity="0.3" stroke-width="3.2"/>
<circle clip-path="url(#clip062)" cx="1079.83" cy="767.668" r="14" fill="#fb8d00" fill-rule="evenodd" fill-opacity="0.3" stroke="#000000" stroke-opacity="0.3" stroke-width="3.2"/>
<circle clip-path="url(#clip062)" cx="1079.83" cy="702.756" r="14" fill="#fb8d00" fill-rule="evenodd" fill-opacity="0.3" stroke="#000000" stroke-opacity="0.3" stroke-width="3.2"/>
<circle clip-path="url(#clip062)" cx="1081.96" cy="758.668" r="14" fill="#fb8d00" fill-rule="evenodd" fill-opacity="0.3" stroke="#000000" stroke-opacity="0.3" stroke-width="3.2"/>
<circle clip-path="url(#clip062)" cx="1081.96" cy="711.756" r="14" fill="#fb8d00" fill-rule="evenodd" fill-opacity="0.3" stroke="#000000" stroke-opacity="0.3" stroke-width="3.2"/>
<circle clip-path="url(#clip062)" cx="1082.61" cy="787.945" r="14" fill="#fb8d00" fill-rule="evenodd" fill-opacity="0.3" stroke="#000000" stroke-opacity="0.3" stroke-width="3.2"/>
<circle clip-path="url(#clip062)" cx="1082.61" cy="682.479" r="14" fill="#fb8d00" fill-rule="evenodd" fill-opacity="0.3" stroke="#000000" stroke-opacity="0.3" stroke-width="3.2"/>
<circle clip-path="url(#clip062)" cx="1084.96" cy="735.212" r="14" fill="#fb8d00" fill-rule="evenodd" fill-opacity="0.3" stroke="#000000" stroke-opacity="0.3" stroke-width="3.2"/>
<circle clip-path="url(#clip062)" cx="1085.75" cy="735.212" r="14" fill="#fb8d00" fill-rule="evenodd" fill-opacity="0.3" stroke="#000000" stroke-opacity="0.3" stroke-width="3.2"/>
<circle clip-path="url(#clip062)" cx="1085.89" cy="772.219" r="14" fill="#fb8d00" fill-rule="evenodd" fill-opacity="0.3" stroke="#000000" stroke-opacity="0.3" stroke-width="3.2"/>
<circle clip-path="url(#clip062)" cx="1085.89" cy="698.205" r="14" fill="#fb8d00" fill-rule="evenodd" fill-opacity="0.3" stroke="#000000" stroke-opacity="0.3" stroke-width="3.2"/>
<circle clip-path="url(#clip062)" cx="1090.74" cy="752.461" r="14" fill="#fb8d00" fill-rule="evenodd" fill-opacity="0.3" stroke="#000000" stroke-opacity="0.3" stroke-width="3.2"/>
<circle clip-path="url(#clip062)" cx="1090.74" cy="717.963" r="14" fill="#fb8d00" fill-rule="evenodd" fill-opacity="0.3" stroke="#000000" stroke-opacity="0.3" stroke-width="3.2"/>
<circle clip-path="url(#clip062)" cx="1095.06" cy="794.831" r="14" fill="#fb8d00" fill-rule="evenodd" fill-opacity="0.3" stroke="#000000" stroke-opacity="0.3" stroke-width="3.2"/>
<circle clip-path="url(#clip062)" cx="1095.06" cy="675.593" r="14" fill="#fb8d00" fill-rule="evenodd" fill-opacity="0.3" stroke="#000000" stroke-opacity="0.3" stroke-width="3.2"/>
<circle clip-path="url(#clip062)" cx="1097.02" cy="781.709" r="14" fill="#fb8d00" fill-rule="evenodd" fill-opacity="0.3" stroke="#000000" stroke-opacity="0.3" stroke-width="3.2"/>
<circle clip-path="url(#clip062)" cx="1097.02" cy="688.715" r="14" fill="#fb8d00" fill-rule="evenodd" fill-opacity="0.3" stroke="#000000" stroke-opacity="0.3" stroke-width="3.2"/>
<circle clip-path="url(#clip062)" cx="1099.16" cy="735.212" r="14" fill="#fb8d00" fill-rule="evenodd" fill-opacity="0.3" stroke="#000000" stroke-opacity="0.3" stroke-width="3.2"/>
<circle clip-path="url(#clip062)" cx="1099.91" cy="757.783" r="14" fill="#fb8d00" fill-rule="evenodd" fill-opacity="0.3" stroke="#000000" stroke-opacity="0.3" stroke-width="3.2"/>
<circle clip-path="url(#clip062)" cx="1099.91" cy="712.641" r="14" fill="#fb8d00" fill-rule="evenodd" fill-opacity="0.3" stroke="#000000" stroke-opacity="0.3" stroke-width="3.2"/>
<circle clip-path="url(#clip062)" cx="1106.03" cy="739.97" r="14" fill="#fb8d00" fill-rule="evenodd" fill-opacity="0.3" stroke="#000000" stroke-opacity="0.3" stroke-width="3.2"/>
<circle clip-path="url(#clip062)" cx="1106.03" cy="730.454" r="14" fill="#fb8d00" fill-rule="evenodd" fill-opacity="0.3" stroke="#000000" stroke-opacity="0.3" stroke-width="3.2"/>
<circle clip-path="url(#clip062)" cx="1108.25" cy="769.188" r="14" fill="#fb8d00" fill-rule="evenodd" fill-opacity="0.3" stroke="#000000" stroke-opacity="0.3" stroke-width="3.2"/>
<circle clip-path="url(#clip062)" cx="1108.25" cy="701.236" r="14" fill="#fb8d00" fill-rule="evenodd" fill-opacity="0.3" stroke="#000000" stroke-opacity="0.3" stroke-width="3.2"/>
<circle clip-path="url(#clip062)" cx="1112.2" cy="741.3" r="14" fill="#fb8d00" fill-rule="evenodd" fill-opacity="0.3" stroke="#000000" stroke-opacity="0.3" stroke-width="3.2"/>
<circle clip-path="url(#clip062)" cx="1112.2" cy="729.124" r="14" fill="#fb8d00" fill-rule="evenodd" fill-opacity="0.3" stroke="#000000" stroke-opacity="0.3" stroke-width="3.2"/>
<circle clip-path="url(#clip062)" cx="1116.64" cy="759.335" r="14" fill="#fb8d00" fill-rule="evenodd" fill-opacity="0.3" stroke="#000000" stroke-opacity="0.3" stroke-width="3.2"/>
<circle clip-path="url(#clip062)" cx="1116.64" cy="711.089" r="14" fill="#fb8d00" fill-rule="evenodd" fill-opacity="0.3" stroke="#000000" stroke-opacity="0.3" stroke-width="3.2"/>
<circle clip-path="url(#clip062)" cx="1118.93" cy="750.939" r="14" fill="#fb8d00" fill-rule="evenodd" fill-opacity="0.3" stroke="#000000" stroke-opacity="0.3" stroke-width="3.2"/>
<circle clip-path="url(#clip062)" cx="1118.93" cy="719.485" r="14" fill="#fb8d00" fill-rule="evenodd" fill-opacity="0.3" stroke="#000000" stroke-opacity="0.3" stroke-width="3.2"/>
<circle clip-path="url(#clip062)" cx="1125.8" cy="746.15" r="14" fill="#fb8d00" fill-rule="evenodd" fill-opacity="0.3" stroke="#000000" stroke-opacity="0.3" stroke-width="3.2"/>
<circle clip-path="url(#clip062)" cx="1125.8" cy="724.274" r="14" fill="#fb8d00" fill-rule="evenodd" fill-opacity="0.3" stroke="#000000" stroke-opacity="0.3" stroke-width="3.2"/>
<circle clip-path="url(#clip062)" cx="1125.91" cy="768.386" r="14" fill="#fb8d00" fill-rule="evenodd" fill-opacity="0.3" stroke="#000000" stroke-opacity="0.3" stroke-width="3.2"/>
<circle clip-path="url(#clip062)" cx="1125.91" cy="702.038" r="14" fill="#fb8d00" fill-rule="evenodd" fill-opacity="0.3" stroke="#000000" stroke-opacity="0.3" stroke-width="3.2"/>
<circle clip-path="url(#clip062)" cx="1138.32" cy="735.212" r="14" fill="#fb8d00" fill-rule="evenodd" fill-opacity="0.3" stroke="#000000" stroke-opacity="0.3" stroke-width="3.2"/>
<polyline clip-path="url(#clip062)" style="stroke:#000003; stroke-linecap:butt; stroke-linejoin:round; stroke-width:8; stroke-opacity:1; fill:none" points="
  985.876,757.805 986.056,758.124 986.612,759.263 987.389,760.72 988.244,762.178 989.179,763.635 990.197,765.093 990.926,766.074 991.249,766.551 992.285,768.008 
  993.415,769.466 994.64,770.924 995.797,772.205 995.947,772.381 997.227,773.839 998.617,775.296 1000.12,776.754 1000.67,777.264 1001.66,778.212 1003.27,779.669 
  1005.02,781.127 1005.54,781.547 1006.82,782.584 1008.74,784.042 1010.41,785.223 1010.81,785.5 1012.98,786.957 1015.28,788.388 1015.33,788.415 1017.84,789.873 
  1020.15,791.123 1020.56,791.33 1023.56,792.788 1025.02,793.468 1026.89,794.245 1029.89,795.448 1030.63,795.703 1034.76,797.099 1034.98,797.161 1039.63,798.447 
  1040.43,798.618 1044.5,799.505 1048.17,800.076 1049.37,800.267 1054.24,800.766 1059.12,800.987 1063.99,800.938 1068.86,800.616 1073.17,800.076 1073.73,800.008 
  1078.6,799.131 1080.71,798.618 1083.47,797.947 1086.04,797.161 1088.34,796.445 1090.34,795.703 1093.21,794.599 1094.01,794.245 1097.22,792.788 1098.08,792.38 
  1100.09,791.33 1102.71,789.873 1102.95,789.733 1105.11,788.415 1107.31,786.957 1107.82,786.606 1109.38,785.5 1111.29,784.042 1112.69,782.89 1113.06,782.584 
  1114.78,781.127 1116.34,779.669 1117.56,778.437 1117.79,778.212 1119.24,776.754 1120.57,775.296 1121.78,773.839 1122.43,772.991 1122.94,772.381 1124.1,770.924 
  1125.16,769.466 1126.12,768.008 1127,766.551 1127.3,766.02 1127.9,765.093 1128.77,763.635 1129.56,762.178 1130.29,760.72 1130.94,759.263 1131.54,757.805 
  1132.07,756.347 1132.18,756.052 1132.65,754.89 1133.19,753.432 1133.68,751.975 1134.11,750.517 1134.5,749.059 1134.84,747.602 1135.14,746.144 1135.4,744.686 
  1135.61,743.229 1135.79,741.771 1135.93,740.314 1136.03,738.856 1136.1,737.398 1136.14,735.941 1136.14,734.483 1136.1,733.026 1136.03,731.568 1135.93,730.11 
  1135.79,728.653 1135.61,727.195 1135.4,725.737 1135.14,724.28 1134.84,722.822 1134.5,721.365 1134.11,719.907 1133.68,718.449 1133.19,716.992 1132.65,715.534 
  1132.18,714.372 1132.07,714.077 1131.54,712.619 1130.94,711.161 1130.29,709.704 1129.56,708.246 1128.77,706.788 1127.9,705.331 1127.3,704.404 1127,703.873 
  1126.12,702.416 1125.16,700.958 1124.1,699.5 1122.94,698.043 1122.43,697.433 1121.78,696.585 1120.57,695.128 1119.24,693.67 1117.79,692.212 1117.56,691.987 
  1116.34,690.755 1114.78,689.297 1113.06,687.839 1112.69,687.534 1111.29,686.382 1109.38,684.924 1107.82,683.818 1107.31,683.467 1105.11,682.009 1102.95,680.691 
  1102.71,680.551 1100.09,679.094 1098.08,678.044 1097.22,677.636 1094.01,676.179 1093.21,675.825 1090.34,674.721 1088.34,673.979 1086.04,673.263 1083.47,672.477 
  1080.71,671.806 1078.6,671.293 1073.73,670.416 1073.17,670.348 1068.86,669.808 1063.99,669.486 1059.12,669.437 1054.24,669.658 1049.37,670.156 1048.17,670.348 
  1044.5,670.919 1040.43,671.806 1039.63,671.977 1034.98,673.263 1034.76,673.325 1030.63,674.721 1029.89,674.976 1026.89,676.179 1025.02,676.956 1023.56,677.636 
  1020.56,679.094 1020.15,679.301 1017.84,680.551 1015.33,682.009 1015.28,682.036 1012.98,683.467 1010.81,684.924 1010.41,685.201 1008.74,686.382 1006.82,687.839 
  1005.54,688.877 1005.02,689.297 1003.27,690.755 1001.66,692.212 1000.67,693.16 1000.12,693.67 998.617,695.128 997.227,696.585 995.947,698.043 995.797,698.219 
  994.64,699.5 993.415,700.958 992.285,702.416 991.249,703.873 990.926,704.35 990.197,705.331 989.179,706.788 988.244,708.246 987.389,709.704 986.612,711.161 
  986.056,712.3 985.876,712.619 985.094,714.077 984.381,715.534 983.737,716.992 983.157,718.449 982.641,719.907 982.185,721.365 981.788,722.822 981.445,724.28 
  981.185,725.586 981.146,725.737 980.818,727.195 980.546,728.653 980.331,730.11 980.17,731.568 980.064,733.026 980.011,734.483 980.011,735.941 980.064,737.398 
  980.17,738.856 980.331,740.314 980.546,741.771 980.818,743.229 981.146,744.686 981.185,744.838 981.445,746.144 981.788,747.602 982.185,749.059 982.641,750.517 
  983.157,751.975 983.737,753.432 984.381,754.89 985.094,756.347 985.876,757.805 
  "/>
<circle clip-path="url(#clip062)" cx="1239.34" cy="735.212" r="14" fill="#fb8d00" fill-rule="evenodd" fill-opacity="0.3" stroke="#000000" stroke-opacity="0.3" stroke-width="3.2"/>
<circle clip-path="url(#clip062)" cx="1250.18" cy="749.438" r="14" fill="#fb8d00" fill-rule="evenodd" fill-opacity="0.3" stroke="#000000" stroke-opacity="0.3" stroke-width="3.2"/>
<circle clip-path="url(#clip062)" cx="1250.18" cy="720.986" r="14" fill="#fb8d00" fill-rule="evenodd" fill-opacity="0.3" stroke="#000000" stroke-opacity="0.3" stroke-width="3.2"/>
<circle clip-path="url(#clip062)" cx="1258.51" cy="761.409" r="14" fill="#fb8d00" fill-rule="evenodd" fill-opacity="0.3" stroke="#000000" stroke-opacity="0.3" stroke-width="3.2"/>
<circle clip-path="url(#clip062)" cx="1258.51" cy="709.014" r="14" fill="#fb8d00" fill-rule="evenodd" fill-opacity="0.3" stroke="#000000" stroke-opacity="0.3" stroke-width="3.2"/>
<circle clip-path="url(#clip062)" cx="1271.05" cy="788.119" r="14" fill="#fb8d00" fill-rule="evenodd" fill-opacity="0.3" stroke="#000000" stroke-opacity="0.3" stroke-width="3.2"/>
<circle clip-path="url(#clip062)" cx="1271.05" cy="682.305" r="14" fill="#fb8d00" fill-rule="evenodd" fill-opacity="0.3" stroke="#000000" stroke-opacity="0.3" stroke-width="3.2"/>
<circle clip-path="url(#clip062)" cx="1273.69" cy="735.212" r="14" fill="#fb8d00" fill-rule="evenodd" fill-opacity="0.3" stroke="#000000" stroke-opacity="0.3" stroke-width="3.2"/>
<circle clip-path="url(#clip062)" cx="1279.25" cy="735.212" r="14" fill="#fb8d00" fill-rule="evenodd" fill-opacity="0.3" stroke="#000000" stroke-opacity="0.3" stroke-width="3.2"/>
<circle clip-path="url(#clip062)" cx="1284.28" cy="781.85" r="14" fill="#fb8d00" fill-rule="evenodd" fill-opacity="0.3" stroke="#000000" stroke-opacity="0.3" stroke-width="3.2"/>
<circle clip-path="url(#clip062)" cx="1284.28" cy="688.574" r="14" fill="#fb8d00" fill-rule="evenodd" fill-opacity="0.3" stroke="#000000" stroke-opacity="0.3" stroke-width="3.2"/>
<circle clip-path="url(#clip062)" cx="1289.8" cy="735.212" r="14" fill="#fb8d00" fill-rule="evenodd" fill-opacity="0.3" stroke="#000000" stroke-opacity="0.3" stroke-width="3.2"/>
<circle clip-path="url(#clip062)" cx="1297.65" cy="777.854" r="14" fill="#fb8d00" fill-rule="evenodd" fill-opacity="0.3" stroke="#000000" stroke-opacity="0.3" stroke-width="3.2"/>
<circle clip-path="url(#clip062)" cx="1297.65" cy="692.57" r="14" fill="#fb8d00" fill-rule="evenodd" fill-opacity="0.3" stroke="#000000" stroke-opacity="0.3" stroke-width="3.2"/>
<circle clip-path="url(#clip062)" cx="1303.13" cy="735.212" r="14" fill="#fb8d00" fill-rule="evenodd" fill-opacity="0.3" stroke="#000000" stroke-opacity="0.3" stroke-width="3.2"/>
<circle clip-path="url(#clip062)" cx="1307.07" cy="745.438" r="14" fill="#fb8d00" fill-rule="evenodd" fill-opacity="0.3" stroke="#000000" stroke-opacity="0.3" stroke-width="3.2"/>
<circle clip-path="url(#clip062)" cx="1307.07" cy="724.986" r="14" fill="#fb8d00" fill-rule="evenodd" fill-opacity="0.3" stroke="#000000" stroke-opacity="0.3" stroke-width="3.2"/>
<circle clip-path="url(#clip062)" cx="1307.81" cy="802.081" r="14" fill="#fb8d00" fill-rule="evenodd" fill-opacity="0.3" stroke="#000000" stroke-opacity="0.3" stroke-width="3.2"/>
<circle clip-path="url(#clip062)" cx="1307.81" cy="668.343" r="14" fill="#fb8d00" fill-rule="evenodd" fill-opacity="0.3" stroke="#000000" stroke-opacity="0.3" stroke-width="3.2"/>
<circle clip-path="url(#clip062)" cx="1318.38" cy="770.61" r="14" fill="#fb8d00" fill-rule="evenodd" fill-opacity="0.3" stroke="#000000" stroke-opacity="0.3" stroke-width="3.2"/>
<circle clip-path="url(#clip062)" cx="1318.38" cy="699.814" r="14" fill="#fb8d00" fill-rule="evenodd" fill-opacity="0.3" stroke="#000000" stroke-opacity="0.3" stroke-width="3.2"/>
<circle clip-path="url(#clip062)" cx="1320.69" cy="784.738" r="14" fill="#fb8d00" fill-rule="evenodd" fill-opacity="0.3" stroke="#000000" stroke-opacity="0.3" stroke-width="3.2"/>
<circle clip-path="url(#clip062)" cx="1320.69" cy="685.686" r="14" fill="#fb8d00" fill-rule="evenodd" fill-opacity="0.3" stroke="#000000" stroke-opacity="0.3" stroke-width="3.2"/>
<circle clip-path="url(#clip062)" cx="1322.04" cy="809.4" r="14" fill="#fb8d00" fill-rule="evenodd" fill-opacity="0.3" stroke="#000000" stroke-opacity="0.3" stroke-width="3.2"/>
<circle clip-path="url(#clip062)" cx="1322.04" cy="661.024" r="14" fill="#fb8d00" fill-rule="evenodd" fill-opacity="0.3" stroke="#000000" stroke-opacity="0.3" stroke-width="3.2"/>
<circle clip-path="url(#clip062)" cx="1329.61" cy="749.106" r="14" fill="#fb8d00" fill-rule="evenodd" fill-opacity="0.3" stroke="#000000" stroke-opacity="0.3" stroke-width="3.2"/>
<circle clip-path="url(#clip062)" cx="1329.61" cy="721.318" r="14" fill="#fb8d00" fill-rule="evenodd" fill-opacity="0.3" stroke="#000000" stroke-opacity="0.3" stroke-width="3.2"/>
<circle clip-path="url(#clip062)" cx="1331.37" cy="735.212" r="14" fill="#fb8d00" fill-rule="evenodd" fill-opacity="0.3" stroke="#000000" stroke-opacity="0.3" stroke-width="3.2"/>
<circle clip-path="url(#clip062)" cx="1348.18" cy="814.887" r="14" fill="#fb8d00" fill-rule="evenodd" fill-opacity="0.3" stroke="#000000" stroke-opacity="0.3" stroke-width="3.2"/>
<circle clip-path="url(#clip062)" cx="1348.18" cy="655.537" r="14" fill="#fb8d00" fill-rule="evenodd" fill-opacity="0.3" stroke="#000000" stroke-opacity="0.3" stroke-width="3.2"/>
<circle clip-path="url(#clip062)" cx="1350.12" cy="774.828" r="14" fill="#fb8d00" fill-rule="evenodd" fill-opacity="0.3" stroke="#000000" stroke-opacity="0.3" stroke-width="3.2"/>
<circle clip-path="url(#clip062)" cx="1350.12" cy="695.596" r="14" fill="#fb8d00" fill-rule="evenodd" fill-opacity="0.3" stroke="#000000" stroke-opacity="0.3" stroke-width="3.2"/>
<circle clip-path="url(#clip062)" cx="1357.76" cy="788.774" r="14" fill="#fb8d00" fill-rule="evenodd" fill-opacity="0.3" stroke="#000000" stroke-opacity="0.3" stroke-width="3.2"/>
<circle clip-path="url(#clip062)" cx="1357.76" cy="681.65" r="14" fill="#fb8d00" fill-rule="evenodd" fill-opacity="0.3" stroke="#000000" stroke-opacity="0.3" stroke-width="3.2"/>
<circle clip-path="url(#clip062)" cx="1365.23" cy="744.153" r="14" fill="#fb8d00" fill-rule="evenodd" fill-opacity="0.3" stroke="#000000" stroke-opacity="0.3" stroke-width="3.2"/>
<circle clip-path="url(#clip062)" cx="1365.23" cy="726.271" r="14" fill="#fb8d00" fill-rule="evenodd" fill-opacity="0.3" stroke="#000000" stroke-opacity="0.3" stroke-width="3.2"/>
<circle clip-path="url(#clip062)" cx="1370.52" cy="797.183" r="14" fill="#fb8d00" fill-rule="evenodd" fill-opacity="0.3" stroke="#000000" stroke-opacity="0.3" stroke-width="3.2"/>
<circle clip-path="url(#clip062)" cx="1370.52" cy="673.241" r="14" fill="#fb8d00" fill-rule="evenodd" fill-opacity="0.3" stroke="#000000" stroke-opacity="0.3" stroke-width="3.2"/>
<circle clip-path="url(#clip062)" cx="1379.81" cy="758.076" r="14" fill="#fb8d00" fill-rule="evenodd" fill-opacity="0.3" stroke="#000000" stroke-opacity="0.3" stroke-width="3.2"/>
<circle clip-path="url(#clip062)" cx="1379.81" cy="712.348" r="14" fill="#fb8d00" fill-rule="evenodd" fill-opacity="0.3" stroke="#000000" stroke-opacity="0.3" stroke-width="3.2"/>
<circle clip-path="url(#clip062)" cx="1382.55" cy="735.212" r="14" fill="#fb8d00" fill-rule="evenodd" fill-opacity="0.3" stroke="#000000" stroke-opacity="0.3" stroke-width="3.2"/>
<circle clip-path="url(#clip062)" cx="1388.82" cy="783.128" r="14" fill="#fb8d00" fill-rule="evenodd" fill-opacity="0.3" stroke="#000000" stroke-opacity="0.3" stroke-width="3.2"/>
<circle clip-path="url(#clip062)" cx="1388.82" cy="687.296" r="14" fill="#fb8d00" fill-rule="evenodd" fill-opacity="0.3" stroke="#000000" stroke-opacity="0.3" stroke-width="3.2"/>
<circle clip-path="url(#clip062)" cx="1392.53" cy="758.873" r="14" fill="#fb8d00" fill-rule="evenodd" fill-opacity="0.3" stroke="#000000" stroke-opacity="0.3" stroke-width="3.2"/>
<circle clip-path="url(#clip062)" cx="1392.53" cy="711.551" r="14" fill="#fb8d00" fill-rule="evenodd" fill-opacity="0.3" stroke="#000000" stroke-opacity="0.3" stroke-width="3.2"/>
<circle clip-path="url(#clip062)" cx="1403.17" cy="735.212" r="14" fill="#fb8d00" fill-rule="evenodd" fill-opacity="0.3" stroke="#000000" stroke-opacity="0.3" stroke-width="3.2"/>
<circle clip-path="url(#clip062)" cx="1416.59" cy="735.212" r="14" fill="#fb8d00" fill-rule="evenodd" fill-opacity="0.3" stroke="#000000" stroke-opacity="0.3" stroke-width="3.2"/>
<circle clip-path="url(#clip062)" cx="1422.66" cy="758.075" r="14" fill="#fb8d00" fill-rule="evenodd" fill-opacity="0.3" stroke="#000000" stroke-opacity="0.3" stroke-width="3.2"/>
<circle clip-path="url(#clip062)" cx="1422.66" cy="712.349" r="14" fill="#fb8d00" fill-rule="evenodd" fill-opacity="0.3" stroke="#000000" stroke-opacity="0.3" stroke-width="3.2"/>
<polyline clip-path="url(#clip062)" style="stroke:#000003; stroke-linecap:butt; stroke-linejoin:round; stroke-width:8; stroke-opacity:1; fill:none" points="
  1245.95,769.738 1246.17,770.073 1247.06,771.508 1248.25,773.279 1249.54,775.049 1250.76,776.597 1250.93,776.82 1252.29,778.59 1253.78,780.361 1255.34,782.084 
  1255.39,782.132 1256.98,783.902 1258.72,785.673 1259.93,786.842 1260.55,787.443 1262.44,789.214 1264.49,790.984 1264.51,791.009 1266.58,792.755 1268.86,794.525 
  1269.1,794.71 1271.23,796.296 1273.69,797.996 1273.79,798.067 1276.5,799.837 1278.27,800.933 1279.42,801.608 1282.58,803.378 1282.86,803.53 1286.03,805.149 
  1287.44,805.846 1289.83,806.919 1292.03,807.881 1294.1,808.69 1296.61,809.661 1298.99,810.46 1301.2,811.201 1304.82,812.231 1305.78,812.507 1310.37,813.605 
  1312.45,814.001 1314.95,814.492 1319.54,815.177 1324.13,815.657 1325.95,815.772 1328.71,815.954 1333.3,816.065 1337.88,815.985 1341.51,815.772 1342.47,815.718 
  1347.05,815.281 1351.64,814.651 1355.24,814.001 1356.22,813.828 1360.81,812.831 1363.1,812.231 1365.4,811.636 1369.26,810.46 1369.98,810.24 1374.44,808.69 
  1374.57,808.645 1378.97,806.919 1379.15,806.847 1383.04,805.149 1383.74,804.837 1386.75,803.378 1388.32,802.599 1390.19,801.608 1392.91,800.111 1393.38,799.837 
  1396.37,798.067 1397.49,797.375 1399.18,796.296 1401.82,794.525 1402.08,794.347 1404.34,792.755 1406.66,791.01 1406.7,790.984 1408.98,789.214 1411.1,787.443 
  1411.25,787.319 1413.17,785.673 1415.1,783.902 1415.84,783.203 1416.96,782.132 1418.73,780.361 1420.36,778.59 1420.42,778.522 1421.99,776.82 1423.49,775.049 
  1424.87,773.279 1425.01,773.099 1426.26,771.508 1427.54,769.738 1428.71,767.967 1429.59,766.514 1429.8,766.197 1430.9,764.426 1431.91,762.655 1432.81,760.885 
  1433.61,759.114 1434.18,757.731 1434.36,757.344 1435.13,755.573 1435.81,753.803 1436.42,752.032 1436.94,750.262 1437.4,748.491 1437.79,746.721 1438.11,744.95 
  1438.37,743.179 1438.58,741.409 1438.73,739.638 1438.76,739.062 1438.85,737.868 1438.91,736.097 1438.91,734.327 1438.85,732.556 1438.76,731.362 1438.73,730.786 
  1438.58,729.015 1438.37,727.244 1438.11,725.474 1437.79,723.703 1437.4,721.933 1436.94,720.162 1436.42,718.392 1435.81,716.621 1435.13,714.851 1434.36,713.08 
  1434.18,712.693 1433.61,711.31 1432.81,709.539 1431.91,707.768 1430.9,705.998 1429.8,704.227 1429.59,703.91 1428.71,702.457 1427.54,700.686 1426.26,698.916 
  1425.01,697.325 1424.87,697.145 1423.49,695.375 1421.99,693.604 1420.42,691.902 1420.36,691.833 1418.73,690.063 1416.96,688.292 1415.84,687.221 1415.1,686.522 
  1413.17,684.751 1411.25,683.105 1411.1,682.981 1408.98,681.21 1406.7,679.44 1406.66,679.414 1404.34,677.669 1402.08,676.077 1401.82,675.899 1399.18,674.128 
  1397.49,673.049 1396.37,672.357 1393.38,670.587 1392.91,670.313 1390.19,668.816 1388.32,667.825 1386.75,667.046 1383.74,665.587 1383.04,665.275 1379.15,663.577 
  1378.97,663.505 1374.57,661.779 1374.44,661.734 1369.98,660.184 1369.26,659.964 1365.4,658.788 1363.1,658.193 1360.81,657.593 1356.22,656.596 1355.24,656.422 
  1351.64,655.773 1347.05,655.143 1342.47,654.706 1341.51,654.652 1337.88,654.439 1333.3,654.359 1328.71,654.469 1325.95,654.652 1324.13,654.767 1319.54,655.246 
  1314.95,655.932 1312.45,656.422 1310.37,656.819 1305.78,657.917 1304.82,658.193 1301.2,659.223 1298.99,659.964 1296.61,660.763 1294.1,661.734 1292.03,662.543 
  1289.83,663.505 1287.44,664.578 1286.03,665.275 1282.86,666.894 1282.58,667.046 1279.42,668.816 1278.27,669.491 1276.5,670.587 1273.79,672.357 1273.69,672.428 
  1271.23,674.128 1269.1,675.714 1268.86,675.899 1266.58,677.669 1264.51,679.415 1264.49,679.44 1262.44,681.21 1260.55,682.981 1259.93,683.582 1258.72,684.751 
  1256.98,686.522 1255.39,688.292 1255.34,688.34 1253.78,690.063 1252.29,691.833 1250.93,693.604 1250.76,693.827 1249.54,695.375 1248.25,697.145 1247.06,698.916 
  1246.17,700.351 1245.95,700.686 1244.82,702.457 1243.77,704.227 1242.82,705.998 1241.96,707.768 1241.59,708.592 1241.11,709.539 1240.28,711.31 1239.52,713.08 
  1238.84,714.851 1238.24,716.621 1237.71,718.392 1237.24,720.162 1237,721.201 1236.8,721.933 1236.37,723.703 1236.01,725.474 1235.71,727.244 1235.47,729.015 
  1235.3,730.786 1235.18,732.556 1235.12,734.327 1235.12,736.097 1235.18,737.868 1235.3,739.638 1235.47,741.409 1235.71,743.179 1236.01,744.95 1236.37,746.721 
  1236.8,748.491 1237,749.223 1237.24,750.262 1237.71,752.032 1238.24,753.803 1238.84,755.573 1239.52,757.344 1240.28,759.114 1241.11,760.885 1241.59,761.832 
  1241.96,762.655 1242.82,764.426 1243.77,766.197 1244.82,767.967 1245.95,769.738 
  "/>
<circle clip-path="url(#clip062)" cx="1540.31" cy="782.625" r="14" fill="#fb8d00" fill-rule="evenodd" fill-opacity="0.3" stroke="#000000" stroke-opacity="0.3" stroke-width="3.2"/>
<circle clip-path="url(#clip062)" cx="1540.31" cy="687.799" r="14" fill="#fb8d00" fill-rule="evenodd" fill-opacity="0.3" stroke="#000000" stroke-opacity="0.3" stroke-width="3.2"/>
<circle clip-path="url(#clip062)" cx="1545.31" cy="757.562" r="14" fill="#fb8d00" fill-rule="evenodd" fill-opacity="0.3" stroke="#000000" stroke-opacity="0.3" stroke-width="3.2"/>
<circle clip-path="url(#clip062)" cx="1545.31" cy="712.862" r="14" fill="#fb8d00" fill-rule="evenodd" fill-opacity="0.3" stroke="#000000" stroke-opacity="0.3" stroke-width="3.2"/>
<circle clip-path="url(#clip062)" cx="1567.77" cy="735.212" r="14" fill="#fb8d00" fill-rule="evenodd" fill-opacity="0.3" stroke="#000000" stroke-opacity="0.3" stroke-width="3.2"/>
<circle clip-path="url(#clip062)" cx="1570.03" cy="815.232" r="14" fill="#fb8d00" fill-rule="evenodd" fill-opacity="0.3" stroke="#000000" stroke-opacity="0.3" stroke-width="3.2"/>
<circle clip-path="url(#clip062)" cx="1570.03" cy="655.192" r="14" fill="#fb8d00" fill-rule="evenodd" fill-opacity="0.3" stroke="#000000" stroke-opacity="0.3" stroke-width="3.2"/>
<circle clip-path="url(#clip062)" cx="1593.43" cy="735.212" r="14" fill="#fb8d00" fill-rule="evenodd" fill-opacity="0.3" stroke="#000000" stroke-opacity="0.3" stroke-width="3.2"/>
<circle clip-path="url(#clip062)" cx="1608.55" cy="803.647" r="14" fill="#fb8d00" fill-rule="evenodd" fill-opacity="0.3" stroke="#000000" stroke-opacity="0.3" stroke-width="3.2"/>
<circle clip-path="url(#clip062)" cx="1608.55" cy="666.777" r="14" fill="#fb8d00" fill-rule="evenodd" fill-opacity="0.3" stroke="#000000" stroke-opacity="0.3" stroke-width="3.2"/>
<circle clip-path="url(#clip062)" cx="1609.26" cy="735.212" r="14" fill="#fb8d00" fill-rule="evenodd" fill-opacity="0.3" stroke="#000000" stroke-opacity="0.3" stroke-width="3.2"/>
<circle clip-path="url(#clip062)" cx="1620.11" cy="837.792" r="14" fill="#fb8d00" fill-rule="evenodd" fill-opacity="0.3" stroke="#000000" stroke-opacity="0.3" stroke-width="3.2"/>
<circle clip-path="url(#clip062)" cx="1620.11" cy="632.632" r="14" fill="#fb8d00" fill-rule="evenodd" fill-opacity="0.3" stroke="#000000" stroke-opacity="0.3" stroke-width="3.2"/>
<circle clip-path="url(#clip062)" cx="1629.29" cy="788.847" r="14" fill="#fb8d00" fill-rule="evenodd" fill-opacity="0.3" stroke="#000000" stroke-opacity="0.3" stroke-width="3.2"/>
<circle clip-path="url(#clip062)" cx="1629.29" cy="681.577" r="14" fill="#fb8d00" fill-rule="evenodd" fill-opacity="0.3" stroke="#000000" stroke-opacity="0.3" stroke-width="3.2"/>
<circle clip-path="url(#clip062)" cx="1646.18" cy="793.391" r="14" fill="#fb8d00" fill-rule="evenodd" fill-opacity="0.3" stroke="#000000" stroke-opacity="0.3" stroke-width="3.2"/>
<circle clip-path="url(#clip062)" cx="1646.18" cy="677.033" r="14" fill="#fb8d00" fill-rule="evenodd" fill-opacity="0.3" stroke="#000000" stroke-opacity="0.3" stroke-width="3.2"/>
<circle clip-path="url(#clip062)" cx="1655.76" cy="745.978" r="14" fill="#fb8d00" fill-rule="evenodd" fill-opacity="0.3" stroke="#000000" stroke-opacity="0.3" stroke-width="3.2"/>
<circle clip-path="url(#clip062)" cx="1655.76" cy="724.446" r="14" fill="#fb8d00" fill-rule="evenodd" fill-opacity="0.3" stroke="#000000" stroke-opacity="0.3" stroke-width="3.2"/>
<circle clip-path="url(#clip062)" cx="1684.7" cy="735.212" r="14" fill="#fb8d00" fill-rule="evenodd" fill-opacity="0.3" stroke="#000000" stroke-opacity="0.3" stroke-width="3.2"/>
<circle clip-path="url(#clip062)" cx="1686.27" cy="795.371" r="14" fill="#fb8d00" fill-rule="evenodd" fill-opacity="0.3" stroke="#000000" stroke-opacity="0.3" stroke-width="3.2"/>
<circle clip-path="url(#clip062)" cx="1686.27" cy="675.053" r="14" fill="#fb8d00" fill-rule="evenodd" fill-opacity="0.3" stroke="#000000" stroke-opacity="0.3" stroke-width="3.2"/>
<circle clip-path="url(#clip062)" cx="1713.39" cy="735.212" r="14" fill="#fb8d00" fill-rule="evenodd" fill-opacity="0.3" stroke="#000000" stroke-opacity="0.3" stroke-width="3.2"/>
<circle clip-path="url(#clip062)" cx="1741.88" cy="735.212" r="14" fill="#fb8d00" fill-rule="evenodd" fill-opacity="0.3" stroke="#000000" stroke-opacity="0.3" stroke-width="3.2"/>
<polyline clip-path="url(#clip062)" style="stroke:#000003; stroke-linecap:butt; stroke-linejoin:round; stroke-width:8; stroke-opacity:1; fill:none" points="
  1529.21,797.9 1529.51,798.165 1531.76,800.179 1533.65,801.785 1534.46,802.459 1537.29,804.738 1537.79,805.137 1540.25,807.018 1541.94,808.264 1543.38,809.297 
  1546.08,811.163 1546.7,811.577 1550.22,813.856 1550.22,813.857 1553.97,816.136 1554.37,816.373 1557.99,818.416 1558.51,818.705 1562.33,820.695 1562.65,820.862 
  1566.8,822.856 1567.06,822.975 1570.94,824.702 1572.3,825.254 1575.08,826.391 1578.19,827.534 1579.23,827.921 1583.37,829.318 1585.02,829.813 1587.51,830.577 
  1591.66,831.693 1593.35,832.093 1595.8,832.685 1599.94,833.548 1604.08,834.268 1604.81,834.372 1608.23,834.886 1612.37,835.377 1616.51,835.741 1620.66,835.984 
  1624.8,836.109 1628.94,836.117 1633.09,836.01 1637.23,835.786 1641.37,835.445 1645.52,834.982 1649.66,834.394 1649.78,834.372 1653.8,833.714 1657.95,832.904 
  1661.5,832.093 1662.09,831.962 1666.23,830.925 1670.11,829.813 1670.38,829.739 1674.52,828.459 1677.2,827.534 1678.66,827.035 1682.81,825.483 1683.37,825.254 
  1686.95,823.815 1688.87,822.975 1691.09,822.005 1693.87,820.695 1695.24,820.053 1698.48,818.416 1699.38,817.956 1702.74,816.136 1703.52,815.712 1706.73,813.857 
  1707.67,813.31 1710.47,811.577 1711.81,810.738 1714,809.297 1715.95,807.978 1717.32,807.018 1720.1,805.005 1720.45,804.738 1723.43,802.459 1724.24,801.819 
  1726.25,800.179 1728.38,798.36 1728.91,797.9 1731.44,795.62 1732.53,794.601 1733.84,793.341 1736.1,791.061 1736.67,790.46 1738.25,788.781 1740.26,786.502 
  1740.81,785.853 1742.19,784.222 1743.99,781.943 1744.96,780.629 1745.68,779.663 1747.29,777.384 1748.75,775.104 1749.1,774.527 1750.17,772.825 1751.49,770.545 
  1752.66,768.265 1753.24,767.041 1753.78,765.986 1754.84,763.706 1755.79,761.427 1756.62,759.147 1757.35,756.868 1757.39,756.754 1758.09,754.588 1758.73,752.309 
  1759.28,750.029 1759.74,747.75 1760.11,745.47 1760.4,743.19 1760.62,740.911 1760.76,738.631 1760.84,736.352 1760.84,734.072 1760.76,731.793 1760.62,729.513 
  1760.4,727.234 1760.11,724.954 1759.74,722.674 1759.28,720.395 1758.73,718.115 1758.09,715.836 1757.39,713.67 1757.35,713.556 1756.62,711.277 1755.79,708.997 
  1754.84,706.718 1753.78,704.438 1753.24,703.382 1752.66,702.158 1751.49,699.879 1750.17,697.599 1749.1,695.897 1748.75,695.32 1747.29,693.04 1745.68,690.761 
  1744.96,689.795 1743.99,688.481 1742.19,686.202 1740.81,684.571 1740.26,683.922 1738.25,681.643 1736.67,679.964 1736.1,679.363 1733.84,677.083 1732.53,675.823 
  1731.44,674.804 1728.91,672.524 1728.38,672.064 1726.25,670.245 1724.24,668.605 1723.43,667.965 1720.45,665.686 1720.1,665.419 1717.32,663.406 1715.95,662.445 
  1714,661.127 1711.81,659.686 1710.47,658.847 1707.67,657.114 1706.73,656.567 1703.52,654.712 1702.74,654.288 1699.38,652.467 1698.48,652.008 1695.24,650.371 
  1693.87,649.729 1691.09,648.419 1688.87,647.449 1686.95,646.609 1683.37,645.17 1682.81,644.941 1678.66,643.389 1677.2,642.89 1674.52,641.965 1670.38,640.685 
  1670.11,640.611 1666.23,639.499 1662.09,638.462 1661.5,638.331 1657.95,637.52 1653.8,636.71 1649.78,636.051 1649.66,636.03 1645.52,635.442 1641.37,634.979 
  1637.23,634.638 1633.09,634.414 1628.94,634.307 1624.8,634.315 1620.66,634.44 1616.51,634.683 1612.37,635.047 1608.23,635.538 1604.81,636.051 1604.08,636.156 
  1599.94,636.876 1595.8,637.739 1593.35,638.331 1591.66,638.731 1587.51,639.847 1585.02,640.611 1583.37,641.106 1579.23,642.503 1578.19,642.89 1575.08,644.033 
  1572.3,645.17 1570.94,645.722 1567.06,647.449 1566.8,647.568 1562.65,649.562 1562.33,649.729 1558.51,651.719 1557.99,652.008 1554.37,654.051 1553.97,654.288 
  1550.22,656.567 1550.22,656.568 1546.7,658.847 1546.08,659.261 1543.38,661.127 1541.94,662.16 1540.25,663.406 1537.79,665.287 1537.29,665.686 1534.46,667.965 
  1533.65,668.639 1531.76,670.245 1529.51,672.259 1529.21,672.524 1526.75,674.804 1525.36,676.155 1524.42,677.083 1522.19,679.363 1521.22,680.394 1520.05,681.643 
  1518.02,683.922 1517.08,685.037 1516.08,686.202 1514.23,688.481 1512.93,690.197 1512.5,690.761 1510.81,693.04 1509.26,695.32 1508.79,696.055 1507.76,697.599 
  1506.36,699.879 1505.08,702.158 1504.65,702.998 1503.85,704.438 1502.7,706.718 1501.67,708.997 1500.76,711.277 1500.5,711.993 1499.88,713.556 1499.07,715.836 
  1498.37,718.115 1497.77,720.395 1497.28,722.674 1496.87,724.954 1496.56,727.234 1496.36,729.181 1496.32,729.513 1496.13,731.793 1496.04,734.072 1496.04,736.352 
  1496.13,738.631 1496.32,740.911 1496.36,741.243 1496.56,743.19 1496.87,745.47 1497.28,747.75 1497.77,750.029 1498.37,752.309 1499.07,754.588 1499.88,756.868 
  1500.5,758.431 1500.76,759.147 1501.67,761.427 1502.7,763.706 1503.85,765.986 1504.65,767.426 1505.08,768.265 1506.36,770.545 1507.76,772.825 1508.79,774.369 
  1509.26,775.104 1510.81,777.384 1512.5,779.663 1512.93,780.227 1514.23,781.943 1516.08,784.222 1517.08,785.387 1518.02,786.502 1520.05,788.781 1521.22,790.03 
  1522.19,791.061 1524.42,793.341 1525.36,794.269 1526.75,795.62 1529.21,797.9 
  "/>
</svg>
