<?xml version="1.0" encoding="utf-8"?>
<svg xmlns="http://www.w3.org/2000/svg" xmlns:xlink="http://www.w3.org/1999/xlink" width="600" height="400" viewBox="0 0 2400 1600">
<defs>
  <clipPath id="clip960">
    <rect x="0" y="0" width="2400" height="1600"/>
  </clipPath>
</defs>
<path clip-path="url(#clip960)" d="
M0 1600 L2400 1600 L2400 0 L0 0  Z
  " fill="#ffffff" fill-rule="evenodd" fill-opacity="1"/>
<defs>
  <clipPath id="clip961">
    <rect x="480" y="0" width="1681" height="1600"/>
  </clipPath>
</defs>
<path clip-path="url(#clip960)" d="
M318.014 989.555 L2352.76 989.555 L2352.76 480.869 L318.014 480.869  Z
  " fill="#ffffff" fill-rule="evenodd" fill-opacity="1"/>
<defs>
  <clipPath id="clip962">
    <rect x="318" y="480" width="2036" height="510"/>
  </clipPath>
</defs>
<polyline clip-path="url(#clip960)" style="stroke:#000000; stroke-linecap:butt; stroke-linejoin:round; stroke-width:4; stroke-opacity:1; fill:none" points="
  318.014,989.555 2352.76,989.555 
  "/>
<polyline clip-path="url(#clip960)" style="stroke:#000000; stroke-linecap:butt; stroke-linejoin:round; stroke-width:4; stroke-opacity:1; fill:none" points="
  375.601,989.555 375.601,982.568 
  "/>
<polyline clip-path="url(#clip960)" style="stroke:#000000; stroke-linecap:butt; stroke-linejoin:round; stroke-width:4; stroke-opacity:1; fill:none" points="
  695.529,989.555 695.529,982.568 
  "/>
<polyline clip-path="url(#clip960)" style="stroke:#000000; stroke-linecap:butt; stroke-linejoin:round; stroke-width:4; stroke-opacity:1; fill:none" points="
  1015.46,989.555 1015.46,982.568 
  "/>
<polyline clip-path="url(#clip960)" style="stroke:#000000; stroke-linecap:butt; stroke-linejoin:round; stroke-width:4; stroke-opacity:1; fill:none" points="
  1335.38,989.555 1335.38,982.568 
  "/>
<polyline clip-path="url(#clip960)" style="stroke:#000000; stroke-linecap:butt; stroke-linejoin:round; stroke-width:4; stroke-opacity:1; fill:none" points="
  1655.31,989.555 1655.31,982.568 
  "/>
<polyline clip-path="url(#clip960)" style="stroke:#000000; stroke-linecap:butt; stroke-linejoin:round; stroke-width:4; stroke-opacity:1; fill:none" points="
  1975.24,989.555 1975.24,982.568 
  "/>
<polyline clip-path="url(#clip960)" style="stroke:#000000; stroke-linecap:butt; stroke-linejoin:round; stroke-width:4; stroke-opacity:1; fill:none" points="
  2295.17,989.555 2295.17,982.568 
  "/>
<path clip-path="url(#clip960)" d="M307.499 1035.13 L337.175 1035.13 L337.175 1039.06 L307.499 1039.06 L307.499 1035.13 Z" fill="#000000" fill-rule="evenodd" fill-opacity="1" /><path clip-path="url(#clip960)" d="M357.268 1020.47 Q353.657 1020.47 351.828 1024.04 Q350.022 1027.58 350.022 1034.71 Q350.022 1041.82 351.828 1045.38 Q353.657 1048.92 357.268 1048.92 Q360.902 1048.92 362.707 1045.38 Q364.536 1041.82 364.536 1034.71 Q364.536 1027.58 362.707 1024.04 Q360.902 1020.47 357.268 1020.47 M357.268 1016.77 Q363.078 1016.77 366.133 1021.38 Q369.212 1025.96 369.212 1034.71 Q369.212 1043.44 366.133 1048.04 Q363.078 1052.63 357.268 1052.63 Q351.458 1052.63 348.379 1048.04 Q345.323 1043.44 345.323 1034.71 Q345.323 1025.96 348.379 1021.38 Q351.458 1016.77 357.268 1016.77 Z" fill="#000000" fill-rule="evenodd" fill-opacity="1" /><path clip-path="url(#clip960)" d="M377.43 1046.08 L382.314 1046.08 L382.314 1051.95 L377.43 1051.95 L377.43 1046.08 Z" fill="#000000" fill-rule="evenodd" fill-opacity="1" /><path clip-path="url(#clip960)" d="M393.309 1048.02 L400.948 1048.02 L400.948 1021.65 L392.638 1023.32 L392.638 1019.06 L400.902 1017.39 L405.578 1017.39 L405.578 1048.02 L413.216 1048.02 L413.216 1051.95 L393.309 1051.95 L393.309 1048.02 Z" fill="#000000" fill-rule="evenodd" fill-opacity="1" /><path clip-path="url(#clip960)" d="M421.48 1017.39 L443.702 1017.39 L443.702 1019.39 L431.156 1051.95 L426.272 1051.95 L438.077 1021.33 L421.48 1021.33 L421.48 1017.39 Z" fill="#000000" fill-rule="evenodd" fill-opacity="1" /><path clip-path="url(#clip960)" d="M626.895 1035.13 L656.571 1035.13 L656.571 1039.06 L626.895 1039.06 L626.895 1035.13 Z" fill="#000000" fill-rule="evenodd" fill-opacity="1" /><path clip-path="url(#clip960)" d="M676.663 1020.47 Q673.052 1020.47 671.223 1024.04 Q669.418 1027.58 669.418 1034.71 Q669.418 1041.82 671.223 1045.38 Q673.052 1048.92 676.663 1048.92 Q680.298 1048.92 682.103 1045.38 Q683.932 1041.82 683.932 1034.71 Q683.932 1027.58 682.103 1024.04 Q680.298 1020.47 676.663 1020.47 M676.663 1016.77 Q682.473 1016.77 685.529 1021.38 Q688.608 1025.96 688.608 1034.71 Q688.608 1043.44 685.529 1048.04 Q682.473 1052.63 676.663 1052.63 Q670.853 1052.63 667.774 1048.04 Q664.719 1043.44 664.719 1034.71 Q664.719 1025.96 667.774 1021.38 Q670.853 1016.77 676.663 1016.77 Z" fill="#000000" fill-rule="evenodd" fill-opacity="1" /><path clip-path="url(#clip960)" d="M696.825 1046.08 L701.709 1046.08 L701.709 1051.95 L696.825 1051.95 L696.825 1046.08 Z" fill="#000000" fill-rule="evenodd" fill-opacity="1" /><path clip-path="url(#clip960)" d="M712.705 1048.02 L720.344 1048.02 L720.344 1021.65 L712.033 1023.32 L712.033 1019.06 L720.297 1017.39 L724.973 1017.39 L724.973 1048.02 L732.612 1048.02 L732.612 1051.95 L712.705 1051.95 L712.705 1048.02 Z" fill="#000000" fill-rule="evenodd" fill-opacity="1" /><path clip-path="url(#clip960)" d="M752.635 1032.81 Q749.487 1032.81 747.635 1034.96 Q745.806 1037.12 745.806 1040.87 Q745.806 1044.59 747.635 1046.77 Q749.487 1048.92 752.635 1048.92 Q755.783 1048.92 757.612 1046.77 Q759.464 1044.59 759.464 1040.87 Q759.464 1037.12 757.612 1034.96 Q755.783 1032.81 752.635 1032.81 M761.917 1018.16 L761.917 1022.42 Q760.158 1021.58 758.353 1021.14 Q756.57 1020.7 754.811 1020.7 Q750.181 1020.7 747.728 1023.83 Q745.297 1026.95 744.95 1033.27 Q746.316 1031.26 748.376 1030.2 Q750.436 1029.11 752.913 1029.11 Q758.121 1029.11 761.13 1032.28 Q764.163 1035.43 764.163 1040.87 Q764.163 1046.19 761.015 1049.41 Q757.867 1052.63 752.635 1052.63 Q746.64 1052.63 743.468 1048.04 Q740.297 1043.44 740.297 1034.71 Q740.297 1026.52 744.186 1021.65 Q748.075 1016.77 754.626 1016.77 Q756.385 1016.77 758.167 1017.12 Q759.973 1017.46 761.917 1018.16 Z" fill="#000000" fill-rule="evenodd" fill-opacity="1" /><path clip-path="url(#clip960)" d="M947.402 1035.13 L977.077 1035.13 L977.077 1039.06 L947.402 1039.06 L947.402 1035.13 Z" fill="#000000" fill-rule="evenodd" fill-opacity="1" /><path clip-path="url(#clip960)" d="M997.17 1020.47 Q993.559 1020.47 991.73 1024.04 Q989.925 1027.58 989.925 1034.71 Q989.925 1041.82 991.73 1045.38 Q993.559 1048.92 997.17 1048.92 Q1000.8 1048.92 1002.61 1045.38 Q1004.44 1041.82 1004.44 1034.71 Q1004.44 1027.58 1002.61 1024.04 Q1000.8 1020.47 997.17 1020.47 M997.17 1016.77 Q1002.98 1016.77 1006.04 1021.38 Q1009.11 1025.96 1009.11 1034.71 Q1009.11 1043.44 1006.04 1048.04 Q1002.98 1052.63 997.17 1052.63 Q991.36 1052.63 988.281 1048.04 Q985.226 1043.44 985.226 1034.71 Q985.226 1025.96 988.281 1021.38 Q991.36 1016.77 997.17 1016.77 Z" fill="#000000" fill-rule="evenodd" fill-opacity="1" /><path clip-path="url(#clip960)" d="M1017.33 1046.08 L1022.22 1046.08 L1022.22 1051.95 L1017.33 1051.95 L1017.33 1046.08 Z" fill="#000000" fill-rule="evenodd" fill-opacity="1" /><path clip-path="url(#clip960)" d="M1033.21 1048.02 L1040.85 1048.02 L1040.85 1021.65 L1032.54 1023.32 L1032.54 1019.06 L1040.8 1017.39 L1045.48 1017.39 L1045.48 1048.02 L1053.12 1048.02 L1053.12 1051.95 L1033.21 1051.95 L1033.21 1048.02 Z" fill="#000000" fill-rule="evenodd" fill-opacity="1" /><path clip-path="url(#clip960)" d="M1062.61 1017.39 L1080.97 1017.39 L1080.97 1021.33 L1066.89 1021.33 L1066.89 1029.8 Q1067.91 1029.45 1068.93 1029.29 Q1069.95 1029.11 1070.97 1029.11 Q1076.75 1029.11 1080.13 1032.28 Q1083.51 1035.45 1083.51 1040.87 Q1083.51 1046.45 1080.04 1049.55 Q1076.57 1052.63 1070.25 1052.63 Q1068.07 1052.63 1065.8 1052.26 Q1063.56 1051.89 1061.15 1051.14 L1061.15 1046.45 Q1063.23 1047.58 1065.46 1048.14 Q1067.68 1048.69 1070.16 1048.69 Q1074.16 1048.69 1076.5 1046.58 Q1078.84 1044.48 1078.84 1040.87 Q1078.84 1037.26 1076.5 1035.15 Q1074.16 1033.04 1070.16 1033.04 Q1068.28 1033.04 1066.41 1033.46 Q1064.55 1033.88 1062.61 1034.76 L1062.61 1017.39 Z" fill="#000000" fill-rule="evenodd" fill-opacity="1" /><path clip-path="url(#clip960)" d="M1266.59 1035.13 L1296.26 1035.13 L1296.26 1039.06 L1266.59 1039.06 L1266.59 1035.13 Z" fill="#000000" fill-rule="evenodd" fill-opacity="1" /><path clip-path="url(#clip960)" d="M1316.36 1020.47 Q1312.75 1020.47 1310.92 1024.04 Q1309.11 1027.58 1309.11 1034.71 Q1309.11 1041.82 1310.92 1045.38 Q1312.75 1048.92 1316.36 1048.92 Q1319.99 1048.92 1321.8 1045.38 Q1323.63 1041.82 1323.63 1034.71 Q1323.63 1027.58 1321.8 1024.04 Q1319.99 1020.47 1316.36 1020.47 M1316.36 1016.77 Q1322.17 1016.77 1325.22 1021.38 Q1328.3 1025.96 1328.3 1034.71 Q1328.3 1043.44 1325.22 1048.04 Q1322.17 1052.63 1316.36 1052.63 Q1310.55 1052.63 1307.47 1048.04 Q1304.41 1043.44 1304.41 1034.71 Q1304.41 1025.96 1307.47 1021.38 Q1310.55 1016.77 1316.36 1016.77 Z" fill="#000000" fill-rule="evenodd" fill-opacity="1" /><path clip-path="url(#clip960)" d="M1336.52 1046.08 L1341.4 1046.08 L1341.4 1051.95 L1336.52 1051.95 L1336.52 1046.08 Z" fill="#000000" fill-rule="evenodd" fill-opacity="1" /><path clip-path="url(#clip960)" d="M1352.4 1048.02 L1360.04 1048.02 L1360.04 1021.65 L1351.73 1023.32 L1351.73 1019.06 L1359.99 1017.39 L1364.67 1017.39 L1364.67 1048.02 L1372.31 1048.02 L1372.31 1051.95 L1352.4 1051.95 L1352.4 1048.02 Z" fill="#000000" fill-rule="evenodd" fill-opacity="1" /><path clip-path="url(#clip960)" d="M1394.6 1021.47 L1382.79 1039.92 L1394.6 1039.92 L1394.6 1021.47 M1393.37 1017.39 L1399.25 1017.39 L1399.25 1039.92 L1404.18 1039.92 L1404.18 1043.81 L1399.25 1043.81 L1399.25 1051.95 L1394.6 1051.95 L1394.6 1043.81 L1379 1043.81 L1379 1039.29 L1393.37 1017.39 Z" fill="#000000" fill-rule="evenodd" fill-opacity="1" /><path clip-path="url(#clip960)" d="M1587.08 1035.13 L1616.76 1035.13 L1616.76 1039.06 L1587.08 1039.06 L1587.08 1035.13 Z" fill="#000000" fill-rule="evenodd" fill-opacity="1" /><path clip-path="url(#clip960)" d="M1636.85 1020.47 Q1633.24 1020.47 1631.41 1024.04 Q1629.61 1027.58 1629.61 1034.71 Q1629.61 1041.82 1631.41 1045.38 Q1633.24 1048.92 1636.85 1048.92 Q1640.49 1048.92 1642.29 1045.38 Q1644.12 1041.82 1644.12 1034.71 Q1644.12 1027.58 1642.29 1024.04 Q1640.49 1020.47 1636.85 1020.47 M1636.85 1016.77 Q1642.66 1016.77 1645.72 1021.38 Q1648.8 1025.96 1648.8 1034.71 Q1648.8 1043.44 1645.72 1048.04 Q1642.66 1052.63 1636.85 1052.63 Q1631.04 1052.63 1627.96 1048.04 Q1624.91 1043.44 1624.91 1034.71 Q1624.91 1025.96 1627.96 1021.38 Q1631.04 1016.77 1636.85 1016.77 Z" fill="#000000" fill-rule="evenodd" fill-opacity="1" /><path clip-path="url(#clip960)" d="M1657.01 1046.08 L1661.9 1046.08 L1661.9 1051.95 L1657.01 1051.95 L1657.01 1046.08 Z" fill="#000000" fill-rule="evenodd" fill-opacity="1" /><path clip-path="url(#clip960)" d="M1672.89 1048.02 L1680.53 1048.02 L1680.53 1021.65 L1672.22 1023.32 L1672.22 1019.06 L1680.49 1017.39 L1685.16 1017.39 L1685.16 1048.02 L1692.8 1048.02 L1692.8 1051.95 L1672.89 1051.95 L1672.89 1048.02 Z" fill="#000000" fill-rule="evenodd" fill-opacity="1" /><path clip-path="url(#clip960)" d="M1716.41 1033.32 Q1719.77 1034.04 1721.64 1036.31 Q1723.54 1038.58 1723.54 1041.91 Q1723.54 1047.02 1720.02 1049.83 Q1716.5 1052.63 1710.02 1052.63 Q1707.85 1052.63 1705.53 1052.19 Q1703.24 1051.77 1700.79 1050.91 L1700.79 1046.4 Q1702.73 1047.53 1705.05 1048.11 Q1707.36 1048.69 1709.88 1048.69 Q1714.28 1048.69 1716.57 1046.95 Q1718.89 1045.22 1718.89 1041.91 Q1718.89 1038.85 1716.74 1037.14 Q1714.61 1035.4 1710.79 1035.4 L1706.76 1035.4 L1706.76 1031.56 L1710.97 1031.56 Q1714.42 1031.56 1716.25 1030.2 Q1718.08 1028.81 1718.08 1026.21 Q1718.08 1023.55 1716.18 1022.14 Q1714.31 1020.7 1710.79 1020.7 Q1708.87 1020.7 1706.67 1021.12 Q1704.47 1021.54 1701.83 1022.42 L1701.83 1018.25 Q1704.49 1017.51 1706.81 1017.14 Q1709.14 1016.77 1711.2 1016.77 Q1716.53 1016.77 1719.63 1019.2 Q1722.73 1021.61 1722.73 1025.73 Q1722.73 1028.6 1721.09 1030.59 Q1719.44 1032.56 1716.41 1033.32 Z" fill="#000000" fill-rule="evenodd" fill-opacity="1" /><path clip-path="url(#clip960)" d="M1907.49 1035.13 L1937.16 1035.13 L1937.16 1039.06 L1907.49 1039.06 L1907.49 1035.13 Z" fill="#000000" fill-rule="evenodd" fill-opacity="1" /><path clip-path="url(#clip960)" d="M1957.25 1020.47 Q1953.64 1020.47 1951.82 1024.04 Q1950.01 1027.58 1950.01 1034.71 Q1950.01 1041.82 1951.82 1045.38 Q1953.64 1048.92 1957.25 1048.92 Q1960.89 1048.92 1962.69 1045.38 Q1964.52 1041.82 1964.52 1034.71 Q1964.52 1027.58 1962.69 1024.04 Q1960.89 1020.47 1957.25 1020.47 M1957.25 1016.77 Q1963.07 1016.77 1966.12 1021.38 Q1969.2 1025.96 1969.2 1034.71 Q1969.2 1043.44 1966.12 1048.04 Q1963.07 1052.63 1957.25 1052.63 Q1951.44 1052.63 1948.37 1048.04 Q1945.31 1043.44 1945.31 1034.71 Q1945.31 1025.96 1948.37 1021.38 Q1951.44 1016.77 1957.25 1016.77 Z" fill="#000000" fill-rule="evenodd" fill-opacity="1" /><path clip-path="url(#clip960)" d="M1977.42 1046.08 L1982.3 1046.08 L1982.3 1051.95 L1977.42 1051.95 L1977.42 1046.08 Z" fill="#000000" fill-rule="evenodd" fill-opacity="1" /><path clip-path="url(#clip960)" d="M1993.3 1048.02 L2000.94 1048.02 L2000.94 1021.65 L1992.63 1023.32 L1992.63 1019.06 L2000.89 1017.39 L2005.56 1017.39 L2005.56 1048.02 L2013.2 1048.02 L2013.2 1051.95 L1993.3 1051.95 L1993.3 1048.02 Z" fill="#000000" fill-rule="evenodd" fill-opacity="1" /><path clip-path="url(#clip960)" d="M2026.68 1048.02 L2043 1048.02 L2043 1051.95 L2021.05 1051.95 L2021.05 1048.02 Q2023.71 1045.26 2028.3 1040.64 Q2032.9 1035.98 2034.08 1034.64 Q2036.33 1032.12 2037.21 1030.38 Q2038.11 1028.62 2038.11 1026.93 Q2038.11 1024.18 2036.17 1022.44 Q2034.25 1020.7 2031.14 1020.7 Q2028.94 1020.7 2026.49 1021.47 Q2024.06 1022.23 2021.28 1023.78 L2021.28 1019.06 Q2024.11 1017.93 2026.56 1017.35 Q2029.01 1016.77 2031.05 1016.77 Q2036.42 1016.77 2039.62 1019.45 Q2042.81 1022.14 2042.81 1026.63 Q2042.81 1028.76 2042 1030.68 Q2041.21 1032.58 2039.11 1035.17 Q2038.53 1035.84 2035.43 1039.06 Q2032.32 1042.26 2026.68 1048.02 Z" fill="#000000" fill-rule="evenodd" fill-opacity="1" /><path clip-path="url(#clip960)" d="M2227.23 1035.13 L2256.91 1035.13 L2256.91 1039.06 L2227.23 1039.06 L2227.23 1035.13 Z" fill="#000000" fill-rule="evenodd" fill-opacity="1" /><path clip-path="url(#clip960)" d="M2277 1020.47 Q2273.39 1020.47 2271.56 1024.04 Q2269.75 1027.58 2269.75 1034.71 Q2269.75 1041.82 2271.56 1045.38 Q2273.39 1048.92 2277 1048.92 Q2280.63 1048.92 2282.44 1045.38 Q2284.27 1041.82 2284.27 1034.71 Q2284.27 1027.58 2282.44 1024.04 Q2280.63 1020.47 2277 1020.47 M2277 1016.77 Q2282.81 1016.77 2285.86 1021.38 Q2288.94 1025.96 2288.94 1034.71 Q2288.94 1043.44 2285.86 1048.04 Q2282.81 1052.63 2277 1052.63 Q2271.19 1052.63 2268.11 1048.04 Q2265.05 1043.44 2265.05 1034.71 Q2265.05 1025.96 2268.11 1021.38 Q2271.19 1016.77 2277 1016.77 Z" fill="#000000" fill-rule="evenodd" fill-opacity="1" /><path clip-path="url(#clip960)" d="M2297.16 1046.08 L2302.04 1046.08 L2302.04 1051.95 L2297.16 1051.95 L2297.16 1046.08 Z" fill="#000000" fill-rule="evenodd" fill-opacity="1" /><path clip-path="url(#clip960)" d="M2313.04 1048.02 L2320.68 1048.02 L2320.68 1021.65 L2312.37 1023.32 L2312.37 1019.06 L2320.63 1017.39 L2325.31 1017.39 L2325.31 1048.02 L2332.95 1048.02 L2332.95 1051.95 L2313.04 1051.95 L2313.04 1048.02 Z" fill="#000000" fill-rule="evenodd" fill-opacity="1" /><path clip-path="url(#clip960)" d="M2343.2 1048.02 L2350.84 1048.02 L2350.84 1021.65 L2342.53 1023.32 L2342.53 1019.06 L2350.79 1017.39 L2355.47 1017.39 L2355.47 1048.02 L2363.11 1048.02 L2363.11 1051.95 L2343.2 1051.95 L2343.2 1048.02 Z" fill="#000000" fill-rule="evenodd" fill-opacity="1" /><path clip-path="url(#clip960)" d="M1277.97 1112.14 Q1280.04 1112.84 1281.98 1115.13 Q1283.95 1117.42 1285.92 1121.43 L1292.45 1134.42 L1285.54 1134.42 L1279.46 1122.23 Q1277.11 1117.45 1274.88 1115.89 Q1272.68 1114.33 1268.86 1114.33 L1261.86 1114.33 L1261.86 1134.42 L1255.43 1134.42 L1255.43 1086.9 L1269.95 1086.9 Q1278.09 1086.9 1282.1 1090.3 Q1286.11 1093.71 1286.11 1100.58 Q1286.11 1105.07 1284.01 1108.03 Q1281.94 1110.99 1277.97 1112.14 M1261.86 1092.18 L1261.86 1109.05 L1269.95 1109.05 Q1274.59 1109.05 1276.95 1106.92 Q1279.33 1104.75 1279.33 1100.58 Q1279.33 1096.42 1276.95 1094.31 Q1274.59 1092.18 1269.95 1092.18 L1261.86 1092.18 Z" fill="#000000" fill-rule="evenodd" fill-opacity="1" /><path clip-path="url(#clip960)" d="M1328.03 1115.13 L1328.03 1118 L1301.11 1118 Q1301.49 1124.04 1304.73 1127.23 Q1308.01 1130.38 1313.84 1130.38 Q1317.21 1130.38 1320.36 1129.55 Q1323.54 1128.72 1326.66 1127.07 L1326.66 1132.6 Q1323.51 1133.94 1320.2 1134.64 Q1316.89 1135.34 1313.49 1135.34 Q1304.96 1135.34 1299.96 1130.38 Q1294.99 1125.41 1294.99 1116.94 Q1294.99 1108.19 1299.71 1103.07 Q1304.45 1097.91 1312.47 1097.91 Q1319.66 1097.91 1323.83 1102.56 Q1328.03 1107.17 1328.03 1115.13 M1322.18 1113.41 Q1322.11 1108.61 1319.47 1105.74 Q1316.86 1102.88 1312.53 1102.88 Q1307.63 1102.88 1304.67 1105.65 Q1301.74 1108.41 1301.3 1113.44 L1322.18 1113.41 Z" fill="#000000" fill-rule="evenodd" fill-opacity="1" /><path clip-path="url(#clip960)" d="M1351.71 1084.96 Q1347.45 1092.28 1345.38 1099.44 Q1343.31 1106.6 1343.31 1113.95 Q1343.31 1121.31 1345.38 1128.53 Q1347.48 1135.72 1351.71 1143.01 L1346.62 1143.01 Q1341.85 1135.53 1339.46 1128.31 Q1337.1 1121.08 1337.1 1113.95 Q1337.1 1106.86 1339.46 1099.66 Q1341.81 1092.47 1346.62 1084.96 L1351.71 1084.96 Z" fill="#000000" fill-rule="evenodd" fill-opacity="1" /><path clip-path="url(#clip960)" d="M1392.71 1098.77 L1379.82 1116.12 L1393.38 1134.42 L1386.47 1134.42 L1376.09 1120.41 L1365.72 1134.42 L1358.81 1134.42 L1372.66 1115.77 L1359.99 1098.77 L1366.9 1098.77 L1376.35 1111.47 L1385.8 1098.77 L1392.71 1098.77 Z" fill="#000000" fill-rule="evenodd" fill-opacity="1" /><path clip-path="url(#clip960)" d="M1400.73 1084.96 L1405.82 1084.96 Q1410.6 1092.47 1412.95 1099.66 Q1415.34 1106.86 1415.34 1113.95 Q1415.34 1121.08 1412.95 1128.31 Q1410.6 1135.53 1405.82 1143.01 L1400.73 1143.01 Q1404.96 1135.72 1407.03 1128.53 Q1409.13 1121.31 1409.13 1113.95 Q1409.13 1106.6 1407.03 1099.44 Q1404.96 1092.28 1400.73 1084.96 Z" fill="#000000" fill-rule="evenodd" fill-opacity="1" /><polyline clip-path="url(#clip960)" style="stroke:#000000; stroke-linecap:butt; stroke-linejoin:round; stroke-width:4; stroke-opacity:1; fill:none" points="
  318.014,989.555 318.014,480.869 
  "/>
<polyline clip-path="url(#clip960)" style="stroke:#000000; stroke-linecap:butt; stroke-linejoin:round; stroke-width:4; stroke-opacity:1; fill:none" points="
  318.014,927.169 336.912,927.169 
  "/>
<polyline clip-path="url(#clip960)" style="stroke:#000000; stroke-linecap:butt; stroke-linejoin:round; stroke-width:4; stroke-opacity:1; fill:none" points="
  318.014,863.183 336.912,863.183 
  "/>
<polyline clip-path="url(#clip960)" style="stroke:#000000; stroke-linecap:butt; stroke-linejoin:round; stroke-width:4; stroke-opacity:1; fill:none" points="
  318.014,799.198 336.912,799.198 
  "/>
<polyline clip-path="url(#clip960)" style="stroke:#000000; stroke-linecap:butt; stroke-linejoin:round; stroke-width:4; stroke-opacity:1; fill:none" points="
  318.014,735.212 336.912,735.212 
  "/>
<polyline clip-path="url(#clip960)" style="stroke:#000000; stroke-linecap:butt; stroke-linejoin:round; stroke-width:4; stroke-opacity:1; fill:none" points="
  318.014,671.226 336.912,671.226 
  "/>
<polyline clip-path="url(#clip960)" style="stroke:#000000; stroke-linecap:butt; stroke-linejoin:round; stroke-width:4; stroke-opacity:1; fill:none" points="
  318.014,607.241 336.912,607.241 
  "/>
<polyline clip-path="url(#clip960)" style="stroke:#000000; stroke-linecap:butt; stroke-linejoin:round; stroke-width:4; stroke-opacity:1; fill:none" points="
  318.014,543.255 336.912,543.255 
  "/>
<path clip-path="url(#clip960)" d="M114.584 927.62 L144.26 927.62 L144.26 931.555 L114.584 931.555 L114.584 927.62 Z" fill="#000000" fill-rule="evenodd" fill-opacity="1" /><path clip-path="url(#clip960)" d="M164.352 912.967 Q160.741 912.967 158.913 916.532 Q157.107 920.074 157.107 927.203 Q157.107 934.31 158.913 937.875 Q160.741 941.416 164.352 941.416 Q167.987 941.416 169.792 937.875 Q171.621 934.31 171.621 927.203 Q171.621 920.074 169.792 916.532 Q167.987 912.967 164.352 912.967 M164.352 909.264 Q170.163 909.264 173.218 913.87 Q176.297 918.454 176.297 927.203 Q176.297 935.93 173.218 940.537 Q170.163 945.12 164.352 945.12 Q158.542 945.12 155.464 940.537 Q152.408 935.93 152.408 927.203 Q152.408 918.454 155.464 913.87 Q158.542 909.264 164.352 909.264 Z" fill="#000000" fill-rule="evenodd" fill-opacity="1" /><path clip-path="url(#clip960)" d="M184.514 938.569 L189.399 938.569 L189.399 944.449 L184.514 944.449 L184.514 938.569 Z" fill="#000000" fill-rule="evenodd" fill-opacity="1" /><path clip-path="url(#clip960)" d="M209.584 912.967 Q205.973 912.967 204.144 916.532 Q202.338 920.074 202.338 927.203 Q202.338 934.31 204.144 937.875 Q205.973 941.416 209.584 941.416 Q213.218 941.416 215.024 937.875 Q216.852 934.31 216.852 927.203 Q216.852 920.074 215.024 916.532 Q213.218 912.967 209.584 912.967 M209.584 909.264 Q215.394 909.264 218.449 913.87 Q221.528 918.454 221.528 927.203 Q221.528 935.93 218.449 940.537 Q215.394 945.12 209.584 945.12 Q203.774 945.12 200.695 940.537 Q197.639 935.93 197.639 927.203 Q197.639 918.454 200.695 913.87 Q203.774 909.264 209.584 909.264 Z" fill="#000000" fill-rule="evenodd" fill-opacity="1" /><path clip-path="url(#clip960)" d="M239.746 912.967 Q236.135 912.967 234.306 916.532 Q232.5 920.074 232.5 927.203 Q232.5 934.31 234.306 937.875 Q236.135 941.416 239.746 941.416 Q243.38 941.416 245.185 937.875 Q247.014 934.31 247.014 927.203 Q247.014 920.074 245.185 916.532 Q243.38 912.967 239.746 912.967 M239.746 909.264 Q245.556 909.264 248.611 913.87 Q251.69 918.454 251.69 927.203 Q251.69 935.93 248.611 940.537 Q245.556 945.12 239.746 945.12 Q233.935 945.12 230.857 940.537 Q227.801 935.93 227.801 927.203 Q227.801 918.454 230.857 913.87 Q233.935 909.264 239.746 909.264 Z" fill="#000000" fill-rule="evenodd" fill-opacity="1" /><path clip-path="url(#clip960)" d="M270.486 925.305 Q267.338 925.305 265.486 927.458 Q263.658 929.611 263.658 933.361 Q263.658 937.088 265.486 939.264 Q267.338 941.416 270.486 941.416 Q273.634 941.416 275.463 939.264 Q277.315 937.088 277.315 933.361 Q277.315 929.611 275.463 927.458 Q273.634 925.305 270.486 925.305 M279.769 910.653 L279.769 914.912 Q278.009 914.079 276.204 913.639 Q274.421 913.199 272.662 913.199 Q268.032 913.199 265.579 916.324 Q263.148 919.449 262.801 925.768 Q264.167 923.754 266.227 922.69 Q268.287 921.602 270.764 921.602 Q275.972 921.602 278.981 924.773 Q282.014 927.921 282.014 933.361 Q282.014 938.685 278.866 941.902 Q275.718 945.12 270.486 945.12 Q264.491 945.12 261.32 940.537 Q258.148 935.93 258.148 927.203 Q258.148 919.009 262.037 914.148 Q265.926 909.264 272.477 909.264 Q274.236 909.264 276.019 909.611 Q277.824 909.958 279.769 910.653 Z" fill="#000000" fill-rule="evenodd" fill-opacity="1" /><path clip-path="url(#clip960)" d="M114.26 863.635 L143.936 863.635 L143.936 867.57 L114.26 867.57 L114.26 863.635 Z" fill="#000000" fill-rule="evenodd" fill-opacity="1" /><path clip-path="url(#clip960)" d="M164.028 848.982 Q160.417 848.982 158.589 852.547 Q156.783 856.088 156.783 863.218 Q156.783 870.324 158.589 873.889 Q160.417 877.431 164.028 877.431 Q167.663 877.431 169.468 873.889 Q171.297 870.324 171.297 863.218 Q171.297 856.088 169.468 852.547 Q167.663 848.982 164.028 848.982 M164.028 845.278 Q169.839 845.278 172.894 849.885 Q175.973 854.468 175.973 863.218 Q175.973 871.945 172.894 876.551 Q169.839 881.134 164.028 881.134 Q158.218 881.134 155.14 876.551 Q152.084 871.945 152.084 863.218 Q152.084 854.468 155.14 849.885 Q158.218 845.278 164.028 845.278 Z" fill="#000000" fill-rule="evenodd" fill-opacity="1" /><path clip-path="url(#clip960)" d="M184.19 874.584 L189.075 874.584 L189.075 880.463 L184.19 880.463 L184.19 874.584 Z" fill="#000000" fill-rule="evenodd" fill-opacity="1" /><path clip-path="url(#clip960)" d="M209.26 848.982 Q205.649 848.982 203.82 852.547 Q202.014 856.088 202.014 863.218 Q202.014 870.324 203.82 873.889 Q205.649 877.431 209.26 877.431 Q212.894 877.431 214.699 873.889 Q216.528 870.324 216.528 863.218 Q216.528 856.088 214.699 852.547 Q212.894 848.982 209.26 848.982 M209.26 845.278 Q215.07 845.278 218.125 849.885 Q221.204 854.468 221.204 863.218 Q221.204 871.945 218.125 876.551 Q215.07 881.134 209.26 881.134 Q203.449 881.134 200.371 876.551 Q197.315 871.945 197.315 863.218 Q197.315 854.468 200.371 849.885 Q203.449 845.278 209.26 845.278 Z" fill="#000000" fill-rule="evenodd" fill-opacity="1" /><path clip-path="url(#clip960)" d="M239.422 848.982 Q235.81 848.982 233.982 852.547 Q232.176 856.088 232.176 863.218 Q232.176 870.324 233.982 873.889 Q235.81 877.431 239.422 877.431 Q243.056 877.431 244.861 873.889 Q246.69 870.324 246.69 863.218 Q246.69 856.088 244.861 852.547 Q243.056 848.982 239.422 848.982 M239.422 845.278 Q245.232 845.278 248.287 849.885 Q251.366 854.468 251.366 863.218 Q251.366 871.945 248.287 876.551 Q245.232 881.134 239.422 881.134 Q233.611 881.134 230.533 876.551 Q227.477 871.945 227.477 863.218 Q227.477 854.468 230.533 849.885 Q233.611 845.278 239.422 845.278 Z" fill="#000000" fill-rule="evenodd" fill-opacity="1" /><path clip-path="url(#clip960)" d="M272.431 849.977 L260.625 868.426 L272.431 868.426 L272.431 849.977 M271.204 845.903 L277.083 845.903 L277.083 868.426 L282.014 868.426 L282.014 872.315 L277.083 872.315 L277.083 880.463 L272.431 880.463 L272.431 872.315 L256.829 872.315 L256.829 867.801 L271.204 845.903 Z" fill="#000000" fill-rule="evenodd" fill-opacity="1" /><path clip-path="url(#clip960)" d="M116.343 799.649 L146.019 799.649 L146.019 803.584 L116.343 803.584 L116.343 799.649 Z" fill="#000000" fill-rule="evenodd" fill-opacity="1" /><path clip-path="url(#clip960)" d="M166.112 784.996 Q162.501 784.996 160.672 788.561 Q158.866 792.103 158.866 799.232 Q158.866 806.339 160.672 809.904 Q162.501 813.445 166.112 813.445 Q169.746 813.445 171.552 809.904 Q173.38 806.339 173.38 799.232 Q173.38 792.103 171.552 788.561 Q169.746 784.996 166.112 784.996 M166.112 781.293 Q171.922 781.293 174.977 785.899 Q178.056 790.482 178.056 799.232 Q178.056 807.959 174.977 812.566 Q171.922 817.149 166.112 817.149 Q160.302 817.149 157.223 812.566 Q154.167 807.959 154.167 799.232 Q154.167 790.482 157.223 785.899 Q160.302 781.293 166.112 781.293 Z" fill="#000000" fill-rule="evenodd" fill-opacity="1" /><path clip-path="url(#clip960)" d="M186.274 810.598 L191.158 810.598 L191.158 816.478 L186.274 816.478 L186.274 810.598 Z" fill="#000000" fill-rule="evenodd" fill-opacity="1" /><path clip-path="url(#clip960)" d="M211.343 784.996 Q207.732 784.996 205.903 788.561 Q204.098 792.103 204.098 799.232 Q204.098 806.339 205.903 809.904 Q207.732 813.445 211.343 813.445 Q214.977 813.445 216.783 809.904 Q218.611 806.339 218.611 799.232 Q218.611 792.103 216.783 788.561 Q214.977 784.996 211.343 784.996 M211.343 781.293 Q217.153 781.293 220.209 785.899 Q223.287 790.482 223.287 799.232 Q223.287 807.959 220.209 812.566 Q217.153 817.149 211.343 817.149 Q205.533 817.149 202.454 812.566 Q199.399 807.959 199.399 799.232 Q199.399 790.482 202.454 785.899 Q205.533 781.293 211.343 781.293 Z" fill="#000000" fill-rule="evenodd" fill-opacity="1" /><path clip-path="url(#clip960)" d="M241.505 784.996 Q237.894 784.996 236.065 788.561 Q234.26 792.103 234.26 799.232 Q234.26 806.339 236.065 809.904 Q237.894 813.445 241.505 813.445 Q245.139 813.445 246.945 809.904 Q248.773 806.339 248.773 799.232 Q248.773 792.103 246.945 788.561 Q245.139 784.996 241.505 784.996 M241.505 781.293 Q247.315 781.293 250.371 785.899 Q253.449 790.482 253.449 799.232 Q253.449 807.959 250.371 812.566 Q247.315 817.149 241.505 817.149 Q235.695 817.149 232.616 812.566 Q229.56 807.959 229.56 799.232 Q229.56 790.482 232.616 785.899 Q235.695 781.293 241.505 781.293 Z" fill="#000000" fill-rule="evenodd" fill-opacity="1" /><path clip-path="url(#clip960)" d="M265.695 812.542 L282.014 812.542 L282.014 816.478 L260.07 816.478 L260.07 812.542 Q262.732 809.788 267.315 805.158 Q271.921 800.505 273.102 799.163 Q275.347 796.64 276.227 794.904 Q277.13 793.144 277.13 791.455 Q277.13 788.7 275.185 786.964 Q273.264 785.228 270.162 785.228 Q267.963 785.228 265.509 785.992 Q263.079 786.756 260.301 788.306 L260.301 783.584 Q263.125 782.45 265.579 781.871 Q268.032 781.293 270.07 781.293 Q275.44 781.293 278.634 783.978 Q281.829 786.663 281.829 791.154 Q281.829 793.283 281.019 795.205 Q280.231 797.103 278.125 799.695 Q277.546 800.367 274.444 803.584 Q271.343 806.779 265.695 812.542 Z" fill="#000000" fill-rule="evenodd" fill-opacity="1" /><path clip-path="url(#clip960)" d="M164.515 721.011 Q160.903 721.011 159.075 724.575 Q157.269 728.117 157.269 735.247 Q157.269 742.353 159.075 745.918 Q160.903 749.46 164.515 749.46 Q168.149 749.46 169.954 745.918 Q171.783 742.353 171.783 735.247 Q171.783 728.117 169.954 724.575 Q168.149 721.011 164.515 721.011 M164.515 717.307 Q170.325 717.307 173.38 721.913 Q176.459 726.497 176.459 735.247 Q176.459 743.973 173.38 748.58 Q170.325 753.163 164.515 753.163 Q158.704 753.163 155.626 748.58 Q152.57 743.973 152.57 735.247 Q152.57 726.497 155.626 721.913 Q158.704 717.307 164.515 717.307 Z" fill="#000000" fill-rule="evenodd" fill-opacity="1" /><path clip-path="url(#clip960)" d="M184.676 746.612 L189.561 746.612 L189.561 752.492 L184.676 752.492 L184.676 746.612 Z" fill="#000000" fill-rule="evenodd" fill-opacity="1" /><path clip-path="url(#clip960)" d="M209.746 721.011 Q206.135 721.011 204.306 724.575 Q202.5 728.117 202.5 735.247 Q202.5 742.353 204.306 745.918 Q206.135 749.46 209.746 749.46 Q213.38 749.46 215.186 745.918 Q217.014 742.353 217.014 735.247 Q217.014 728.117 215.186 724.575 Q213.38 721.011 209.746 721.011 M209.746 717.307 Q215.556 717.307 218.611 721.913 Q221.69 726.497 221.69 735.247 Q221.69 743.973 218.611 748.58 Q215.556 753.163 209.746 753.163 Q203.936 753.163 200.857 748.58 Q197.801 743.973 197.801 735.247 Q197.801 726.497 200.857 721.913 Q203.936 717.307 209.746 717.307 Z" fill="#000000" fill-rule="evenodd" fill-opacity="1" /><path clip-path="url(#clip960)" d="M239.908 721.011 Q236.297 721.011 234.468 724.575 Q232.662 728.117 232.662 735.247 Q232.662 742.353 234.468 745.918 Q236.297 749.46 239.908 749.46 Q243.542 749.46 245.347 745.918 Q247.176 742.353 247.176 735.247 Q247.176 728.117 245.347 724.575 Q243.542 721.011 239.908 721.011 M239.908 717.307 Q245.718 717.307 248.773 721.913 Q251.852 726.497 251.852 735.247 Q251.852 743.973 248.773 748.58 Q245.718 753.163 239.908 753.163 Q234.097 753.163 231.019 748.58 Q227.963 743.973 227.963 735.247 Q227.963 726.497 231.019 721.913 Q234.097 717.307 239.908 717.307 Z" fill="#000000" fill-rule="evenodd" fill-opacity="1" /><path clip-path="url(#clip960)" d="M270.07 721.011 Q266.458 721.011 264.63 724.575 Q262.824 728.117 262.824 735.247 Q262.824 742.353 264.63 745.918 Q266.458 749.46 270.07 749.46 Q273.704 749.46 275.509 745.918 Q277.338 742.353 277.338 735.247 Q277.338 728.117 275.509 724.575 Q273.704 721.011 270.07 721.011 M270.07 717.307 Q275.88 717.307 278.935 721.913 Q282.014 726.497 282.014 735.247 Q282.014 743.973 278.935 748.58 Q275.88 753.163 270.07 753.163 Q264.259 753.163 261.181 748.58 Q258.125 743.973 258.125 735.247 Q258.125 726.497 261.181 721.913 Q264.259 717.307 270.07 717.307 Z" fill="#000000" fill-rule="evenodd" fill-opacity="1" /><path clip-path="url(#clip960)" d="M166.112 657.025 Q162.501 657.025 160.672 660.59 Q158.866 664.132 158.866 671.261 Q158.866 678.368 160.672 681.932 Q162.501 685.474 166.112 685.474 Q169.746 685.474 171.552 681.932 Q173.38 678.368 173.38 671.261 Q173.38 664.132 171.552 660.59 Q169.746 657.025 166.112 657.025 M166.112 653.321 Q171.922 653.321 174.977 657.928 Q178.056 662.511 178.056 671.261 Q178.056 679.988 174.977 684.594 Q171.922 689.178 166.112 689.178 Q160.302 689.178 157.223 684.594 Q154.167 679.988 154.167 671.261 Q154.167 662.511 157.223 657.928 Q160.302 653.321 166.112 653.321 Z" fill="#000000" fill-rule="evenodd" fill-opacity="1" /><path clip-path="url(#clip960)" d="M186.274 682.627 L191.158 682.627 L191.158 688.506 L186.274 688.506 L186.274 682.627 Z" fill="#000000" fill-rule="evenodd" fill-opacity="1" /><path clip-path="url(#clip960)" d="M211.343 657.025 Q207.732 657.025 205.903 660.59 Q204.098 664.132 204.098 671.261 Q204.098 678.368 205.903 681.932 Q207.732 685.474 211.343 685.474 Q214.977 685.474 216.783 681.932 Q218.611 678.368 218.611 671.261 Q218.611 664.132 216.783 660.59 Q214.977 657.025 211.343 657.025 M211.343 653.321 Q217.153 653.321 220.209 657.928 Q223.287 662.511 223.287 671.261 Q223.287 679.988 220.209 684.594 Q217.153 689.178 211.343 689.178 Q205.533 689.178 202.454 684.594 Q199.399 679.988 199.399 671.261 Q199.399 662.511 202.454 657.928 Q205.533 653.321 211.343 653.321 Z" fill="#000000" fill-rule="evenodd" fill-opacity="1" /><path clip-path="url(#clip960)" d="M241.505 657.025 Q237.894 657.025 236.065 660.59 Q234.26 664.132 234.26 671.261 Q234.26 678.368 236.065 681.932 Q237.894 685.474 241.505 685.474 Q245.139 685.474 246.945 681.932 Q248.773 678.368 248.773 671.261 Q248.773 664.132 246.945 660.59 Q245.139 657.025 241.505 657.025 M241.505 653.321 Q247.315 653.321 250.371 657.928 Q253.449 662.511 253.449 671.261 Q253.449 679.988 250.371 684.594 Q247.315 689.178 241.505 689.178 Q235.695 689.178 232.616 684.594 Q229.56 679.988 229.56 671.261 Q229.56 662.511 232.616 657.928 Q235.695 653.321 241.505 653.321 Z" fill="#000000" fill-rule="evenodd" fill-opacity="1" /><path clip-path="url(#clip960)" d="M265.695 684.571 L282.014 684.571 L282.014 688.506 L260.07 688.506 L260.07 684.571 Q262.732 681.817 267.315 677.187 Q271.921 672.534 273.102 671.192 Q275.347 668.669 276.227 666.932 Q277.13 665.173 277.13 663.483 Q277.13 660.729 275.185 658.993 Q273.264 657.257 270.162 657.257 Q267.963 657.257 265.509 658.02 Q263.079 658.784 260.301 660.335 L260.301 655.613 Q263.125 654.479 265.579 653.9 Q268.032 653.321 270.07 653.321 Q275.44 653.321 278.634 656.007 Q281.829 658.692 281.829 663.182 Q281.829 665.312 281.019 667.233 Q280.231 669.131 278.125 671.724 Q277.546 672.395 274.444 675.613 Q271.343 678.807 265.695 684.571 Z" fill="#000000" fill-rule="evenodd" fill-opacity="1" /><path clip-path="url(#clip960)" d="M164.028 593.039 Q160.417 593.039 158.589 596.604 Q156.783 600.146 156.783 607.275 Q156.783 614.382 158.589 617.947 Q160.417 621.488 164.028 621.488 Q167.663 621.488 169.468 617.947 Q171.297 614.382 171.297 607.275 Q171.297 600.146 169.468 596.604 Q167.663 593.039 164.028 593.039 M164.028 589.336 Q169.839 589.336 172.894 593.942 Q175.973 598.526 175.973 607.275 Q175.973 616.002 172.894 620.609 Q169.839 625.192 164.028 625.192 Q158.218 625.192 155.14 620.609 Q152.084 616.002 152.084 607.275 Q152.084 598.526 155.14 593.942 Q158.218 589.336 164.028 589.336 Z" fill="#000000" fill-rule="evenodd" fill-opacity="1" /><path clip-path="url(#clip960)" d="M184.19 618.641 L189.075 618.641 L189.075 624.521 L184.19 624.521 L184.19 618.641 Z" fill="#000000" fill-rule="evenodd" fill-opacity="1" /><path clip-path="url(#clip960)" d="M209.26 593.039 Q205.649 593.039 203.82 596.604 Q202.014 600.146 202.014 607.275 Q202.014 614.382 203.82 617.947 Q205.649 621.488 209.26 621.488 Q212.894 621.488 214.699 617.947 Q216.528 614.382 216.528 607.275 Q216.528 600.146 214.699 596.604 Q212.894 593.039 209.26 593.039 M209.26 589.336 Q215.07 589.336 218.125 593.942 Q221.204 598.526 221.204 607.275 Q221.204 616.002 218.125 620.609 Q215.07 625.192 209.26 625.192 Q203.449 625.192 200.371 620.609 Q197.315 616.002 197.315 607.275 Q197.315 598.526 200.371 593.942 Q203.449 589.336 209.26 589.336 Z" fill="#000000" fill-rule="evenodd" fill-opacity="1" /><path clip-path="url(#clip960)" d="M239.422 593.039 Q235.81 593.039 233.982 596.604 Q232.176 600.146 232.176 607.275 Q232.176 614.382 233.982 617.947 Q235.81 621.488 239.422 621.488 Q243.056 621.488 244.861 617.947 Q246.69 614.382 246.69 607.275 Q246.69 600.146 244.861 596.604 Q243.056 593.039 239.422 593.039 M239.422 589.336 Q245.232 589.336 248.287 593.942 Q251.366 598.526 251.366 607.275 Q251.366 616.002 248.287 620.609 Q245.232 625.192 239.422 625.192 Q233.611 625.192 230.533 620.609 Q227.477 616.002 227.477 607.275 Q227.477 598.526 230.533 593.942 Q233.611 589.336 239.422 589.336 Z" fill="#000000" fill-rule="evenodd" fill-opacity="1" /><path clip-path="url(#clip960)" d="M272.431 594.035 L260.625 612.484 L272.431 612.484 L272.431 594.035 M271.204 589.961 L277.083 589.961 L277.083 612.484 L282.014 612.484 L282.014 616.373 L277.083 616.373 L277.083 624.521 L272.431 624.521 L272.431 616.373 L256.829 616.373 L256.829 611.859 L271.204 589.961 Z" fill="#000000" fill-rule="evenodd" fill-opacity="1" /><path clip-path="url(#clip960)" d="M164.352 529.054 Q160.741 529.054 158.913 532.619 Q157.107 536.16 157.107 543.29 Q157.107 550.396 158.913 553.961 Q160.741 557.503 164.352 557.503 Q167.987 557.503 169.792 553.961 Q171.621 550.396 171.621 543.29 Q171.621 536.16 169.792 532.619 Q167.987 529.054 164.352 529.054 M164.352 525.35 Q170.163 525.35 173.218 529.957 Q176.297 534.54 176.297 543.29 Q176.297 552.017 173.218 556.623 Q170.163 561.206 164.352 561.206 Q158.542 561.206 155.464 556.623 Q152.408 552.017 152.408 543.29 Q152.408 534.54 155.464 529.957 Q158.542 525.35 164.352 525.35 Z" fill="#000000" fill-rule="evenodd" fill-opacity="1" /><path clip-path="url(#clip960)" d="M184.514 554.656 L189.399 554.656 L189.399 560.535 L184.514 560.535 L184.514 554.656 Z" fill="#000000" fill-rule="evenodd" fill-opacity="1" /><path clip-path="url(#clip960)" d="M209.584 529.054 Q205.973 529.054 204.144 532.619 Q202.338 536.16 202.338 543.29 Q202.338 550.396 204.144 553.961 Q205.973 557.503 209.584 557.503 Q213.218 557.503 215.024 553.961 Q216.852 550.396 216.852 543.29 Q216.852 536.16 215.024 532.619 Q213.218 529.054 209.584 529.054 M209.584 525.35 Q215.394 525.35 218.449 529.957 Q221.528 534.54 221.528 543.29 Q221.528 552.017 218.449 556.623 Q215.394 561.206 209.584 561.206 Q203.774 561.206 200.695 556.623 Q197.639 552.017 197.639 543.29 Q197.639 534.54 200.695 529.957 Q203.774 525.35 209.584 525.35 Z" fill="#000000" fill-rule="evenodd" fill-opacity="1" /><path clip-path="url(#clip960)" d="M239.746 529.054 Q236.135 529.054 234.306 532.619 Q232.5 536.16 232.5 543.29 Q232.5 550.396 234.306 553.961 Q236.135 557.503 239.746 557.503 Q243.38 557.503 245.185 553.961 Q247.014 550.396 247.014 543.29 Q247.014 536.16 245.185 532.619 Q243.38 529.054 239.746 529.054 M239.746 525.35 Q245.556 525.35 248.611 529.957 Q251.69 534.54 251.69 543.29 Q251.69 552.017 248.611 556.623 Q245.556 561.206 239.746 561.206 Q233.935 561.206 230.857 556.623 Q227.801 552.017 227.801 543.29 Q227.801 534.54 230.857 529.957 Q233.935 525.35 239.746 525.35 Z" fill="#000000" fill-rule="evenodd" fill-opacity="1" /><path clip-path="url(#clip960)" d="M270.486 541.392 Q267.338 541.392 265.486 543.545 Q263.658 545.697 263.658 549.447 Q263.658 553.174 265.486 555.35 Q267.338 557.503 270.486 557.503 Q273.634 557.503 275.463 555.35 Q277.315 553.174 277.315 549.447 Q277.315 545.697 275.463 543.545 Q273.634 541.392 270.486 541.392 M279.769 526.739 L279.769 530.998 Q278.009 530.165 276.204 529.725 Q274.421 529.285 272.662 529.285 Q268.032 529.285 265.579 532.41 Q263.148 535.535 262.801 541.855 Q264.167 539.841 266.227 538.776 Q268.287 537.688 270.764 537.688 Q275.972 537.688 278.981 540.859 Q282.014 544.007 282.014 549.447 Q282.014 554.771 278.866 557.989 Q275.718 561.206 270.486 561.206 Q264.491 561.206 261.32 556.623 Q258.148 552.017 258.148 543.29 Q258.148 535.095 262.037 530.234 Q265.926 525.35 272.477 525.35 Q274.236 525.35 276.019 525.697 Q277.824 526.045 279.769 526.739 Z" fill="#000000" fill-rule="evenodd" fill-opacity="1" /><path clip-path="url(#clip960)" d="M16.4842 815.293 L16.4842 808.863 L64.0042 808.863 L64.0042 815.293 L16.4842 815.293 Z" fill="#000000" fill-rule="evenodd" fill-opacity="1" /><path clip-path="url(#clip960)" d="M35.1993 768.568 Q31.2526 766.372 29.3747 763.317 Q27.4968 760.261 27.4968 756.123 Q27.4968 750.553 31.4117 747.53 Q35.2948 744.506 42.4881 744.506 L64.0042 744.506 L64.0042 750.394 L42.679 750.394 Q37.5546 750.394 35.072 752.208 Q32.5894 754.023 32.5894 757.747 Q32.5894 762.298 35.6131 764.94 Q38.6368 767.582 43.8567 767.582 L64.0042 767.582 L64.0042 773.47 L42.679 773.47 Q37.5228 773.47 35.072 775.284 Q32.5894 777.098 32.5894 780.886 Q32.5894 785.374 35.6449 788.016 Q38.6686 790.657 43.8567 790.657 L64.0042 790.657 L64.0042 796.546 L28.3562 796.546 L28.3562 790.657 L33.8944 790.657 Q30.616 788.652 29.0564 785.851 Q27.4968 783.05 27.4968 779.199 Q27.4968 775.316 29.4702 772.61 Q31.4436 769.873 35.1993 768.568 Z" fill="#000000" fill-rule="evenodd" fill-opacity="1" /><path clip-path="url(#clip960)" d="M14.5426 718.757 Q21.8632 723.022 29.0246 725.09 Q36.186 727.159 43.5384 727.159 Q50.8908 727.159 58.1159 725.09 Q65.3091 722.99 72.5979 718.757 L72.5979 723.849 Q65.1182 728.623 57.8931 731.011 Q50.668 733.366 43.5384 733.366 Q36.4406 733.366 29.2474 731.011 Q22.0542 728.655 14.5426 723.849 L14.5426 718.757 Z" fill="#000000" fill-rule="evenodd" fill-opacity="1" /><path clip-path="url(#clip960)" d="M28.3562 677.761 L45.7028 690.652 L64.0042 677.093 L64.0042 684 L49.9996 694.376 L64.0042 704.752 L64.0042 711.659 L45.3526 697.813 L28.3562 710.481 L28.3562 703.574 L41.0558 694.121 L28.3562 684.668 L28.3562 677.761 Z" fill="#000000" fill-rule="evenodd" fill-opacity="1" /><path clip-path="url(#clip960)" d="M14.5426 669.741 L14.5426 664.648 Q22.0542 659.874 29.2474 657.519 Q36.4406 655.131 43.5384 655.131 Q50.668 655.131 57.8931 657.519 Q65.1182 659.874 72.5979 664.648 L72.5979 669.741 Q65.3091 665.507 58.1159 663.439 Q50.8908 661.338 43.5384 661.338 Q36.186 661.338 29.0246 663.439 Q21.8632 665.507 14.5426 669.741 Z" fill="#000000" fill-rule="evenodd" fill-opacity="1" /><circle clip-path="url(#clip962)" cx="1081.11" cy="735.212" r="14" fill="#ffb90f" fill-rule="evenodd" fill-opacity="0.3" stroke="#000000" stroke-opacity="0.3" stroke-width="3.2"/>
<circle clip-path="url(#clip962)" cx="1093.48" cy="735.212" r="14" fill="#ffb90f" fill-rule="evenodd" fill-opacity="0.3" stroke="#000000" stroke-opacity="0.3" stroke-width="3.2"/>
<circle clip-path="url(#clip962)" cx="1112.66" cy="766.154" r="14" fill="#ffb90f" fill-rule="evenodd" fill-opacity="0.3" stroke="#000000" stroke-opacity="0.3" stroke-width="3.2"/>
<circle clip-path="url(#clip962)" cx="1112.66" cy="704.27" r="14" fill="#ffb90f" fill-rule="evenodd" fill-opacity="0.3" stroke="#000000" stroke-opacity="0.3" stroke-width="3.2"/>
<circle clip-path="url(#clip962)" cx="1128.06" cy="735.212" r="14" fill="#ffb90f" fill-rule="evenodd" fill-opacity="0.3" stroke="#000000" stroke-opacity="0.3" stroke-width="3.2"/>
<circle clip-path="url(#clip962)" cx="1131.22" cy="812.141" r="14" fill="#ffb90f" fill-rule="evenodd" fill-opacity="0.3" stroke="#000000" stroke-opacity="0.3" stroke-width="3.2"/>
<circle clip-path="url(#clip962)" cx="1131.22" cy="658.283" r="14" fill="#ffb90f" fill-rule="evenodd" fill-opacity="0.3" stroke="#000000" stroke-opacity="0.3" stroke-width="3.2"/>
<circle clip-path="url(#clip962)" cx="1137.11" cy="834.018" r="14" fill="#ffb90f" fill-rule="evenodd" fill-opacity="0.3" stroke="#000000" stroke-opacity="0.3" stroke-width="3.2"/>
<circle clip-path="url(#clip962)" cx="1137.11" cy="636.406" r="14" fill="#ffb90f" fill-rule="evenodd" fill-opacity="0.3" stroke="#000000" stroke-opacity="0.3" stroke-width="3.2"/>
<circle clip-path="url(#clip962)" cx="1157.87" cy="763.315" r="14" fill="#ffb90f" fill-rule="evenodd" fill-opacity="0.3" stroke="#000000" stroke-opacity="0.3" stroke-width="3.2"/>
<circle clip-path="url(#clip962)" cx="1157.87" cy="707.109" r="14" fill="#ffb90f" fill-rule="evenodd" fill-opacity="0.3" stroke="#000000" stroke-opacity="0.3" stroke-width="3.2"/>
<circle clip-path="url(#clip962)" cx="1167.51" cy="845.114" r="14" fill="#ffb90f" fill-rule="evenodd" fill-opacity="0.3" stroke="#000000" stroke-opacity="0.3" stroke-width="3.2"/>
<circle clip-path="url(#clip962)" cx="1167.51" cy="625.309" r="14" fill="#ffb90f" fill-rule="evenodd" fill-opacity="0.3" stroke="#000000" stroke-opacity="0.3" stroke-width="3.2"/>
<circle clip-path="url(#clip962)" cx="1173.46" cy="876.964" r="14" fill="#ffb90f" fill-rule="evenodd" fill-opacity="0.3" stroke="#000000" stroke-opacity="0.3" stroke-width="3.2"/>
<circle clip-path="url(#clip962)" cx="1173.46" cy="593.46" r="14" fill="#ffb90f" fill-rule="evenodd" fill-opacity="0.3" stroke="#000000" stroke-opacity="0.3" stroke-width="3.2"/>
<circle clip-path="url(#clip962)" cx="1175.21" cy="742.101" r="14" fill="#ffb90f" fill-rule="evenodd" fill-opacity="0.3" stroke="#000000" stroke-opacity="0.3" stroke-width="3.2"/>
<circle clip-path="url(#clip962)" cx="1175.21" cy="728.323" r="14" fill="#ffb90f" fill-rule="evenodd" fill-opacity="0.3" stroke="#000000" stroke-opacity="0.3" stroke-width="3.2"/>
<circle clip-path="url(#clip962)" cx="1197.46" cy="858.557" r="14" fill="#ffb90f" fill-rule="evenodd" fill-opacity="0.3" stroke="#000000" stroke-opacity="0.3" stroke-width="3.2"/>
<circle clip-path="url(#clip962)" cx="1197.46" cy="611.867" r="14" fill="#ffb90f" fill-rule="evenodd" fill-opacity="0.3" stroke="#000000" stroke-opacity="0.3" stroke-width="3.2"/>
<circle clip-path="url(#clip962)" cx="1202.67" cy="807.876" r="14" fill="#ffb90f" fill-rule="evenodd" fill-opacity="0.3" stroke="#000000" stroke-opacity="0.3" stroke-width="3.2"/>
<circle clip-path="url(#clip962)" cx="1202.67" cy="662.548" r="14" fill="#ffb90f" fill-rule="evenodd" fill-opacity="0.3" stroke="#000000" stroke-opacity="0.3" stroke-width="3.2"/>
<circle clip-path="url(#clip962)" cx="1205.57" cy="735.212" r="14" fill="#ffb90f" fill-rule="evenodd" fill-opacity="0.3" stroke="#000000" stroke-opacity="0.3" stroke-width="3.2"/>
<circle clip-path="url(#clip962)" cx="1219.43" cy="818.147" r="14" fill="#ffb90f" fill-rule="evenodd" fill-opacity="0.3" stroke="#000000" stroke-opacity="0.3" stroke-width="3.2"/>
<circle clip-path="url(#clip962)" cx="1219.43" cy="652.277" r="14" fill="#ffb90f" fill-rule="evenodd" fill-opacity="0.3" stroke="#000000" stroke-opacity="0.3" stroke-width="3.2"/>
<circle clip-path="url(#clip962)" cx="1221.28" cy="780.248" r="14" fill="#ffb90f" fill-rule="evenodd" fill-opacity="0.3" stroke="#000000" stroke-opacity="0.3" stroke-width="3.2"/>
<circle clip-path="url(#clip962)" cx="1221.28" cy="690.176" r="14" fill="#ffb90f" fill-rule="evenodd" fill-opacity="0.3" stroke="#000000" stroke-opacity="0.3" stroke-width="3.2"/>
<circle clip-path="url(#clip962)" cx="1233.32" cy="814.63" r="14" fill="#ffb90f" fill-rule="evenodd" fill-opacity="0.3" stroke="#000000" stroke-opacity="0.3" stroke-width="3.2"/>
<circle clip-path="url(#clip962)" cx="1233.32" cy="655.794" r="14" fill="#ffb90f" fill-rule="evenodd" fill-opacity="0.3" stroke="#000000" stroke-opacity="0.3" stroke-width="3.2"/>
<circle clip-path="url(#clip962)" cx="1233.82" cy="735.212" r="14" fill="#ffb90f" fill-rule="evenodd" fill-opacity="0.3" stroke="#000000" stroke-opacity="0.3" stroke-width="3.2"/>
<circle clip-path="url(#clip962)" cx="1235.67" cy="735.212" r="14" fill="#ffb90f" fill-rule="evenodd" fill-opacity="0.3" stroke="#000000" stroke-opacity="0.3" stroke-width="3.2"/>
<circle clip-path="url(#clip962)" cx="1239.45" cy="859.332" r="14" fill="#ffb90f" fill-rule="evenodd" fill-opacity="0.3" stroke="#000000" stroke-opacity="0.3" stroke-width="3.2"/>
<circle clip-path="url(#clip962)" cx="1239.45" cy="611.092" r="14" fill="#ffb90f" fill-rule="evenodd" fill-opacity="0.3" stroke="#000000" stroke-opacity="0.3" stroke-width="3.2"/>
<circle clip-path="url(#clip962)" cx="1245" cy="837.837" r="14" fill="#ffb90f" fill-rule="evenodd" fill-opacity="0.3" stroke="#000000" stroke-opacity="0.3" stroke-width="3.2"/>
<circle clip-path="url(#clip962)" cx="1245" cy="632.587" r="14" fill="#ffb90f" fill-rule="evenodd" fill-opacity="0.3" stroke="#000000" stroke-opacity="0.3" stroke-width="3.2"/>
<circle clip-path="url(#clip962)" cx="1252.82" cy="761.483" r="14" fill="#ffb90f" fill-rule="evenodd" fill-opacity="0.3" stroke="#000000" stroke-opacity="0.3" stroke-width="3.2"/>
<circle clip-path="url(#clip962)" cx="1252.82" cy="708.941" r="14" fill="#ffb90f" fill-rule="evenodd" fill-opacity="0.3" stroke="#000000" stroke-opacity="0.3" stroke-width="3.2"/>
<circle clip-path="url(#clip962)" cx="1263.8" cy="904.496" r="14" fill="#ffb90f" fill-rule="evenodd" fill-opacity="0.3" stroke="#000000" stroke-opacity="0.3" stroke-width="3.2"/>
<circle clip-path="url(#clip962)" cx="1263.8" cy="565.928" r="14" fill="#ffb90f" fill-rule="evenodd" fill-opacity="0.3" stroke="#000000" stroke-opacity="0.3" stroke-width="3.2"/>
<circle clip-path="url(#clip962)" cx="1264.77" cy="856.542" r="14" fill="#ffb90f" fill-rule="evenodd" fill-opacity="0.3" stroke="#000000" stroke-opacity="0.3" stroke-width="3.2"/>
<circle clip-path="url(#clip962)" cx="1264.77" cy="613.882" r="14" fill="#ffb90f" fill-rule="evenodd" fill-opacity="0.3" stroke="#000000" stroke-opacity="0.3" stroke-width="3.2"/>
<circle clip-path="url(#clip962)" cx="1272.5" cy="778.069" r="14" fill="#ffb90f" fill-rule="evenodd" fill-opacity="0.3" stroke="#000000" stroke-opacity="0.3" stroke-width="3.2"/>
<circle clip-path="url(#clip962)" cx="1272.5" cy="692.355" r="14" fill="#ffb90f" fill-rule="evenodd" fill-opacity="0.3" stroke="#000000" stroke-opacity="0.3" stroke-width="3.2"/>
<circle clip-path="url(#clip962)" cx="1273.51" cy="863.536" r="14" fill="#ffb90f" fill-rule="evenodd" fill-opacity="0.3" stroke="#000000" stroke-opacity="0.3" stroke-width="3.2"/>
<circle clip-path="url(#clip962)" cx="1273.51" cy="606.888" r="14" fill="#ffb90f" fill-rule="evenodd" fill-opacity="0.3" stroke="#000000" stroke-opacity="0.3" stroke-width="3.2"/>
<circle clip-path="url(#clip962)" cx="1280.89" cy="819.733" r="14" fill="#ffb90f" fill-rule="evenodd" fill-opacity="0.3" stroke="#000000" stroke-opacity="0.3" stroke-width="3.2"/>
<circle clip-path="url(#clip962)" cx="1280.89" cy="650.691" r="14" fill="#ffb90f" fill-rule="evenodd" fill-opacity="0.3" stroke="#000000" stroke-opacity="0.3" stroke-width="3.2"/>
<circle clip-path="url(#clip962)" cx="1291.62" cy="751.989" r="14" fill="#ffb90f" fill-rule="evenodd" fill-opacity="0.3" stroke="#000000" stroke-opacity="0.3" stroke-width="3.2"/>
<circle clip-path="url(#clip962)" cx="1291.62" cy="718.435" r="14" fill="#ffb90f" fill-rule="evenodd" fill-opacity="0.3" stroke="#000000" stroke-opacity="0.3" stroke-width="3.2"/>
<circle clip-path="url(#clip962)" cx="1296.57" cy="824.336" r="14" fill="#ffb90f" fill-rule="evenodd" fill-opacity="0.3" stroke="#000000" stroke-opacity="0.3" stroke-width="3.2"/>
<circle clip-path="url(#clip962)" cx="1296.57" cy="646.088" r="14" fill="#ffb90f" fill-rule="evenodd" fill-opacity="0.3" stroke="#000000" stroke-opacity="0.3" stroke-width="3.2"/>
<circle clip-path="url(#clip962)" cx="1304.89" cy="735.212" r="14" fill="#ffb90f" fill-rule="evenodd" fill-opacity="0.3" stroke="#000000" stroke-opacity="0.3" stroke-width="3.2"/>
<circle clip-path="url(#clip962)" cx="1334.65" cy="833.985" r="14" fill="#ffb90f" fill-rule="evenodd" fill-opacity="0.3" stroke="#000000" stroke-opacity="0.3" stroke-width="3.2"/>
<circle clip-path="url(#clip962)" cx="1334.65" cy="636.439" r="14" fill="#ffb90f" fill-rule="evenodd" fill-opacity="0.3" stroke="#000000" stroke-opacity="0.3" stroke-width="3.2"/>
<circle clip-path="url(#clip962)" cx="1341.85" cy="881.504" r="14" fill="#ffb90f" fill-rule="evenodd" fill-opacity="0.3" stroke="#000000" stroke-opacity="0.3" stroke-width="3.2"/>
<circle clip-path="url(#clip962)" cx="1341.85" cy="588.92" r="14" fill="#ffb90f" fill-rule="evenodd" fill-opacity="0.3" stroke="#000000" stroke-opacity="0.3" stroke-width="3.2"/>
<circle clip-path="url(#clip962)" cx="1355.76" cy="735.212" r="14" fill="#ffb90f" fill-rule="evenodd" fill-opacity="0.3" stroke="#000000" stroke-opacity="0.3" stroke-width="3.2"/>
<circle clip-path="url(#clip962)" cx="1365.93" cy="800.597" r="14" fill="#ffb90f" fill-rule="evenodd" fill-opacity="0.3" stroke="#000000" stroke-opacity="0.3" stroke-width="3.2"/>
<circle clip-path="url(#clip962)" cx="1365.93" cy="669.827" r="14" fill="#ffb90f" fill-rule="evenodd" fill-opacity="0.3" stroke="#000000" stroke-opacity="0.3" stroke-width="3.2"/>
<circle clip-path="url(#clip962)" cx="1370.83" cy="851.621" r="14" fill="#ffb90f" fill-rule="evenodd" fill-opacity="0.3" stroke="#000000" stroke-opacity="0.3" stroke-width="3.2"/>
<circle clip-path="url(#clip962)" cx="1370.83" cy="618.803" r="14" fill="#ffb90f" fill-rule="evenodd" fill-opacity="0.3" stroke="#000000" stroke-opacity="0.3" stroke-width="3.2"/>
<circle clip-path="url(#clip962)" cx="1386.47" cy="759.159" r="14" fill="#ffb90f" fill-rule="evenodd" fill-opacity="0.3" stroke="#000000" stroke-opacity="0.3" stroke-width="3.2"/>
<circle clip-path="url(#clip962)" cx="1386.47" cy="711.265" r="14" fill="#ffb90f" fill-rule="evenodd" fill-opacity="0.3" stroke="#000000" stroke-opacity="0.3" stroke-width="3.2"/>
<circle clip-path="url(#clip962)" cx="1387.88" cy="809.116" r="14" fill="#ffb90f" fill-rule="evenodd" fill-opacity="0.3" stroke="#000000" stroke-opacity="0.3" stroke-width="3.2"/>
<circle clip-path="url(#clip962)" cx="1387.88" cy="661.308" r="14" fill="#ffb90f" fill-rule="evenodd" fill-opacity="0.3" stroke="#000000" stroke-opacity="0.3" stroke-width="3.2"/>
<circle clip-path="url(#clip962)" cx="1399.65" cy="862.256" r="14" fill="#ffb90f" fill-rule="evenodd" fill-opacity="0.3" stroke="#000000" stroke-opacity="0.3" stroke-width="3.2"/>
<circle clip-path="url(#clip962)" cx="1399.65" cy="608.168" r="14" fill="#ffb90f" fill-rule="evenodd" fill-opacity="0.3" stroke="#000000" stroke-opacity="0.3" stroke-width="3.2"/>
<circle clip-path="url(#clip962)" cx="1406.12" cy="735.212" r="14" fill="#ffb90f" fill-rule="evenodd" fill-opacity="0.3" stroke="#000000" stroke-opacity="0.3" stroke-width="3.2"/>
<circle clip-path="url(#clip962)" cx="1411.52" cy="847.298" r="14" fill="#ffb90f" fill-rule="evenodd" fill-opacity="0.3" stroke="#000000" stroke-opacity="0.3" stroke-width="3.2"/>
<circle clip-path="url(#clip962)" cx="1411.52" cy="623.126" r="14" fill="#ffb90f" fill-rule="evenodd" fill-opacity="0.3" stroke="#000000" stroke-opacity="0.3" stroke-width="3.2"/>
<circle clip-path="url(#clip962)" cx="1416.74" cy="768.113" r="14" fill="#ffb90f" fill-rule="evenodd" fill-opacity="0.3" stroke="#000000" stroke-opacity="0.3" stroke-width="3.2"/>
<circle clip-path="url(#clip962)" cx="1416.74" cy="702.311" r="14" fill="#ffb90f" fill-rule="evenodd" fill-opacity="0.3" stroke="#000000" stroke-opacity="0.3" stroke-width="3.2"/>
<circle clip-path="url(#clip962)" cx="1422.39" cy="818.845" r="14" fill="#ffb90f" fill-rule="evenodd" fill-opacity="0.3" stroke="#000000" stroke-opacity="0.3" stroke-width="3.2"/>
<circle clip-path="url(#clip962)" cx="1422.39" cy="651.579" r="14" fill="#ffb90f" fill-rule="evenodd" fill-opacity="0.3" stroke="#000000" stroke-opacity="0.3" stroke-width="3.2"/>
<circle clip-path="url(#clip962)" cx="1431.54" cy="735.212" r="14" fill="#ffb90f" fill-rule="evenodd" fill-opacity="0.3" stroke="#000000" stroke-opacity="0.3" stroke-width="3.2"/>
<circle clip-path="url(#clip962)" cx="1442.91" cy="735.212" r="14" fill="#ffb90f" fill-rule="evenodd" fill-opacity="0.3" stroke="#000000" stroke-opacity="0.3" stroke-width="3.2"/>
<circle clip-path="url(#clip962)" cx="1453.93" cy="746.926" r="14" fill="#ffb90f" fill-rule="evenodd" fill-opacity="0.3" stroke="#000000" stroke-opacity="0.3" stroke-width="3.2"/>
<circle clip-path="url(#clip962)" cx="1453.93" cy="723.498" r="14" fill="#ffb90f" fill-rule="evenodd" fill-opacity="0.3" stroke="#000000" stroke-opacity="0.3" stroke-width="3.2"/>
<polyline clip-path="url(#clip962)" style="stroke:#000003; stroke-linecap:butt; stroke-linejoin:round; stroke-width:8; stroke-opacity:1; fill:none" points="
  1085.94,785.997 1086.99,788.354 1087.51,789.759 1089.02,793.521 1090.7,797.283 1092.56,801.045 1094.6,804.807 1096.85,808.568 1099.3,812.33 1099.94,813.27 
  1101.65,816.092 1104.13,819.854 1106.85,823.616 1109.81,827.378 1112.89,830.98 1113.02,831.14 1116.1,834.902 1119.48,838.663 1123.16,842.425 1125.84,845 
  1127.04,846.187 1131,849.949 1135.32,853.711 1138.79,856.545 1139.93,857.473 1144.72,861.235 1149.94,864.997 1151.74,866.253 1155.47,868.758 1161.44,872.52 
  1164.7,874.475 1167.91,876.282 1174.94,880.044 1177.65,881.434 1182.74,883.806 1190.6,887.273 1191.36,887.568 1201.33,891.33 1203.55,892.143 1213.19,895.092 
  1216.5,896.086 1228.2,898.853 1229.45,899.15 1242.41,901.425 1253.12,902.615 1255.36,902.872 1268.31,903.58 1281.26,903.51 1294.21,902.664 1294.6,902.615 
  1307.16,901.102 1319.37,898.853 1320.11,898.719 1333.07,895.58 1334.69,895.092 1346.02,891.618 1346.82,891.33 1357.03,887.568 1358.97,886.831 1366.04,883.806 
  1371.92,881.165 1374.21,880.044 1381.65,876.282 1384.87,874.58 1388.56,872.52 1394.98,868.758 1397.82,867.023 1401.04,864.997 1406.76,861.235 1410.77,858.431 
  1412.13,857.473 1417.34,853.711 1422.2,849.949 1423.73,848.733 1426.94,846.187 1431.47,842.425 1435.7,838.663 1436.68,837.779 1439.91,834.902 1443.92,831.14 
  1447.66,827.378 1449.63,825.31 1451.3,823.616 1454.89,819.854 1458.22,816.092 1461.3,812.33 1462.58,810.69 1464.35,808.568 1467.34,804.807 1470.08,801.045 
  1472.58,797.283 1474.83,793.521 1475.53,792.272 1477.15,789.759 1479.39,785.997 1481.41,782.235 1483.21,778.473 1484.8,774.712 1486.18,770.95 1487.37,767.188 
  1488.37,763.426 1488.48,762.924 1489.5,759.664 1490.5,755.902 1491.32,752.14 1491.97,748.379 1492.45,744.617 1492.77,740.855 1492.93,737.093 1492.93,733.331 
  1492.77,729.569 1492.45,725.807 1491.97,722.045 1491.32,718.284 1490.5,714.522 1489.5,710.76 1488.48,707.499 1488.37,706.998 1487.37,703.236 1486.18,699.474 
  1484.8,695.712 1483.21,691.95 1481.41,688.189 1479.39,684.427 1477.15,680.665 1475.53,678.152 1474.83,676.903 1472.58,673.141 1470.08,669.379 1467.34,665.617 
  1464.35,661.855 1462.58,659.734 1461.3,658.094 1458.22,654.332 1454.89,650.57 1451.3,646.808 1449.63,645.114 1447.66,643.046 1443.92,639.284 1439.91,635.522 
  1436.68,632.645 1435.7,631.76 1431.47,627.999 1426.94,624.237 1423.73,621.69 1422.2,620.475 1417.34,616.713 1412.13,612.951 1410.77,611.993 1406.76,609.189 
  1401.04,605.427 1397.82,603.401 1394.98,601.666 1388.56,597.904 1384.87,595.844 1381.65,594.142 1374.21,590.38 1371.92,589.259 1366.04,586.618 1358.97,583.592 
  1357.03,582.856 1346.82,579.094 1346.02,578.806 1334.69,575.332 1333.07,574.844 1320.11,571.705 1319.37,571.571 1307.16,569.322 1294.6,567.809 1294.21,567.76 
  1281.26,566.914 1268.31,566.844 1255.36,567.552 1253.12,567.809 1242.41,568.999 1229.45,571.274 1228.2,571.571 1216.5,574.338 1213.19,575.332 1203.55,578.281 
  1201.33,579.094 1191.36,582.856 1190.6,583.151 1182.74,586.618 1177.65,588.99 1174.94,590.38 1167.91,594.142 1164.7,595.949 1161.44,597.904 1155.47,601.666 
  1151.74,604.171 1149.94,605.427 1144.72,609.189 1139.93,612.951 1138.79,613.879 1135.32,616.713 1131,620.475 1127.04,624.237 1125.84,625.424 1123.16,627.999 
  1119.48,631.76 1116.1,635.522 1113.02,639.284 1112.89,639.444 1109.81,643.046 1106.85,646.808 1104.13,650.57 1101.65,654.332 1099.94,657.154 1099.3,658.094 
  1096.85,661.855 1094.6,665.617 1092.56,669.379 1090.7,673.141 1089.02,676.903 1087.51,680.665 1086.99,682.07 1085.94,684.427 1084.4,688.189 1083.01,691.95 
  1081.77,695.712 1080.67,699.474 1079.7,703.236 1078.86,706.998 1078.13,710.76 1077.53,714.522 1077.03,718.284 1076.63,722.045 1076.34,725.807 1076.15,729.569 
  1076.05,733.331 1076.05,737.093 1076.15,740.855 1076.34,744.617 1076.63,748.379 1077.03,752.14 1077.53,755.902 1078.13,759.664 1078.86,763.426 1079.7,767.188 
  1080.67,770.95 1081.77,774.712 1083.01,778.473 1084.4,782.235 1085.94,785.997 
  "/>
<circle clip-path="url(#clip962)" cx="562.78" cy="735.212" r="14" fill="#ffb90f" fill-rule="evenodd" fill-opacity="0.3" stroke="#000000" stroke-opacity="0.3" stroke-width="3.2"/>
<circle clip-path="url(#clip962)" cx="567.514" cy="794.559" r="14" fill="#ffb90f" fill-rule="evenodd" fill-opacity="0.3" stroke="#000000" stroke-opacity="0.3" stroke-width="3.2"/>
<circle clip-path="url(#clip962)" cx="567.514" cy="675.865" r="14" fill="#ffb90f" fill-rule="evenodd" fill-opacity="0.3" stroke="#000000" stroke-opacity="0.3" stroke-width="3.2"/>
<circle clip-path="url(#clip962)" cx="582.366" cy="750.769" r="14" fill="#ffb90f" fill-rule="evenodd" fill-opacity="0.3" stroke="#000000" stroke-opacity="0.3" stroke-width="3.2"/>
<circle clip-path="url(#clip962)" cx="582.366" cy="719.655" r="14" fill="#ffb90f" fill-rule="evenodd" fill-opacity="0.3" stroke="#000000" stroke-opacity="0.3" stroke-width="3.2"/>
<circle clip-path="url(#clip962)" cx="593.306" cy="771.325" r="14" fill="#ffb90f" fill-rule="evenodd" fill-opacity="0.3" stroke="#000000" stroke-opacity="0.3" stroke-width="3.2"/>
<circle clip-path="url(#clip962)" cx="593.306" cy="699.099" r="14" fill="#ffb90f" fill-rule="evenodd" fill-opacity="0.3" stroke="#000000" stroke-opacity="0.3" stroke-width="3.2"/>
<circle clip-path="url(#clip962)" cx="603.367" cy="820.593" r="14" fill="#ffb90f" fill-rule="evenodd" fill-opacity="0.3" stroke="#000000" stroke-opacity="0.3" stroke-width="3.2"/>
<circle clip-path="url(#clip962)" cx="603.367" cy="649.831" r="14" fill="#ffb90f" fill-rule="evenodd" fill-opacity="0.3" stroke="#000000" stroke-opacity="0.3" stroke-width="3.2"/>
<circle clip-path="url(#clip962)" cx="605.945" cy="742.976" r="14" fill="#ffb90f" fill-rule="evenodd" fill-opacity="0.3" stroke="#000000" stroke-opacity="0.3" stroke-width="3.2"/>
<circle clip-path="url(#clip962)" cx="605.945" cy="727.448" r="14" fill="#ffb90f" fill-rule="evenodd" fill-opacity="0.3" stroke="#000000" stroke-opacity="0.3" stroke-width="3.2"/>
<circle clip-path="url(#clip962)" cx="608.594" cy="771.238" r="14" fill="#ffb90f" fill-rule="evenodd" fill-opacity="0.3" stroke="#000000" stroke-opacity="0.3" stroke-width="3.2"/>
<circle clip-path="url(#clip962)" cx="608.594" cy="699.186" r="14" fill="#ffb90f" fill-rule="evenodd" fill-opacity="0.3" stroke="#000000" stroke-opacity="0.3" stroke-width="3.2"/>
<circle clip-path="url(#clip962)" cx="609.099" cy="805.968" r="14" fill="#ffb90f" fill-rule="evenodd" fill-opacity="0.3" stroke="#000000" stroke-opacity="0.3" stroke-width="3.2"/>
<circle clip-path="url(#clip962)" cx="609.099" cy="664.456" r="14" fill="#ffb90f" fill-rule="evenodd" fill-opacity="0.3" stroke="#000000" stroke-opacity="0.3" stroke-width="3.2"/>
<circle clip-path="url(#clip962)" cx="609.778" cy="788.66" r="14" fill="#ffb90f" fill-rule="evenodd" fill-opacity="0.3" stroke="#000000" stroke-opacity="0.3" stroke-width="3.2"/>
<circle clip-path="url(#clip962)" cx="609.778" cy="681.764" r="14" fill="#ffb90f" fill-rule="evenodd" fill-opacity="0.3" stroke="#000000" stroke-opacity="0.3" stroke-width="3.2"/>
<circle clip-path="url(#clip962)" cx="627.342" cy="756.282" r="14" fill="#ffb90f" fill-rule="evenodd" fill-opacity="0.3" stroke="#000000" stroke-opacity="0.3" stroke-width="3.2"/>
<circle clip-path="url(#clip962)" cx="627.342" cy="714.142" r="14" fill="#ffb90f" fill-rule="evenodd" fill-opacity="0.3" stroke="#000000" stroke-opacity="0.3" stroke-width="3.2"/>
<circle clip-path="url(#clip962)" cx="628.01" cy="796.955" r="14" fill="#ffb90f" fill-rule="evenodd" fill-opacity="0.3" stroke="#000000" stroke-opacity="0.3" stroke-width="3.2"/>
<circle clip-path="url(#clip962)" cx="628.01" cy="673.469" r="14" fill="#ffb90f" fill-rule="evenodd" fill-opacity="0.3" stroke="#000000" stroke-opacity="0.3" stroke-width="3.2"/>
<circle clip-path="url(#clip962)" cx="635.351" cy="843.526" r="14" fill="#ffb90f" fill-rule="evenodd" fill-opacity="0.3" stroke="#000000" stroke-opacity="0.3" stroke-width="3.2"/>
<circle clip-path="url(#clip962)" cx="635.351" cy="626.898" r="14" fill="#ffb90f" fill-rule="evenodd" fill-opacity="0.3" stroke="#000000" stroke-opacity="0.3" stroke-width="3.2"/>
<circle clip-path="url(#clip962)" cx="638.329" cy="735.212" r="14" fill="#ffb90f" fill-rule="evenodd" fill-opacity="0.3" stroke="#000000" stroke-opacity="0.3" stroke-width="3.2"/>
<circle clip-path="url(#clip962)" cx="644.844" cy="735.212" r="14" fill="#ffb90f" fill-rule="evenodd" fill-opacity="0.3" stroke="#000000" stroke-opacity="0.3" stroke-width="3.2"/>
<circle clip-path="url(#clip962)" cx="648.613" cy="757.185" r="14" fill="#ffb90f" fill-rule="evenodd" fill-opacity="0.3" stroke="#000000" stroke-opacity="0.3" stroke-width="3.2"/>
<circle clip-path="url(#clip962)" cx="648.613" cy="713.239" r="14" fill="#ffb90f" fill-rule="evenodd" fill-opacity="0.3" stroke="#000000" stroke-opacity="0.3" stroke-width="3.2"/>
<circle clip-path="url(#clip962)" cx="653.709" cy="738.964" r="14" fill="#ffb90f" fill-rule="evenodd" fill-opacity="0.3" stroke="#000000" stroke-opacity="0.3" stroke-width="3.2"/>
<circle clip-path="url(#clip962)" cx="653.709" cy="731.46" r="14" fill="#ffb90f" fill-rule="evenodd" fill-opacity="0.3" stroke="#000000" stroke-opacity="0.3" stroke-width="3.2"/>
<circle clip-path="url(#clip962)" cx="655.32" cy="825.446" r="14" fill="#ffb90f" fill-rule="evenodd" fill-opacity="0.3" stroke="#000000" stroke-opacity="0.3" stroke-width="3.2"/>
<circle clip-path="url(#clip962)" cx="655.32" cy="644.978" r="14" fill="#ffb90f" fill-rule="evenodd" fill-opacity="0.3" stroke="#000000" stroke-opacity="0.3" stroke-width="3.2"/>
<circle clip-path="url(#clip962)" cx="661.59" cy="796.698" r="14" fill="#ffb90f" fill-rule="evenodd" fill-opacity="0.3" stroke="#000000" stroke-opacity="0.3" stroke-width="3.2"/>
<circle clip-path="url(#clip962)" cx="661.59" cy="673.726" r="14" fill="#ffb90f" fill-rule="evenodd" fill-opacity="0.3" stroke="#000000" stroke-opacity="0.3" stroke-width="3.2"/>
<circle clip-path="url(#clip962)" cx="662.059" cy="807.554" r="14" fill="#ffb90f" fill-rule="evenodd" fill-opacity="0.3" stroke="#000000" stroke-opacity="0.3" stroke-width="3.2"/>
<circle clip-path="url(#clip962)" cx="662.059" cy="662.87" r="14" fill="#ffb90f" fill-rule="evenodd" fill-opacity="0.3" stroke="#000000" stroke-opacity="0.3" stroke-width="3.2"/>
<circle clip-path="url(#clip962)" cx="668.901" cy="800.943" r="14" fill="#ffb90f" fill-rule="evenodd" fill-opacity="0.3" stroke="#000000" stroke-opacity="0.3" stroke-width="3.2"/>
<circle clip-path="url(#clip962)" cx="668.901" cy="669.481" r="14" fill="#ffb90f" fill-rule="evenodd" fill-opacity="0.3" stroke="#000000" stroke-opacity="0.3" stroke-width="3.2"/>
<circle clip-path="url(#clip962)" cx="676.791" cy="854.407" r="14" fill="#ffb90f" fill-rule="evenodd" fill-opacity="0.3" stroke="#000000" stroke-opacity="0.3" stroke-width="3.2"/>
<circle clip-path="url(#clip962)" cx="676.791" cy="616.017" r="14" fill="#ffb90f" fill-rule="evenodd" fill-opacity="0.3" stroke="#000000" stroke-opacity="0.3" stroke-width="3.2"/>
<circle clip-path="url(#clip962)" cx="683.775" cy="761.85" r="14" fill="#ffb90f" fill-rule="evenodd" fill-opacity="0.3" stroke="#000000" stroke-opacity="0.3" stroke-width="3.2"/>
<circle clip-path="url(#clip962)" cx="683.775" cy="708.574" r="14" fill="#ffb90f" fill-rule="evenodd" fill-opacity="0.3" stroke="#000000" stroke-opacity="0.3" stroke-width="3.2"/>
<circle clip-path="url(#clip962)" cx="686.27" cy="837.362" r="14" fill="#ffb90f" fill-rule="evenodd" fill-opacity="0.3" stroke="#000000" stroke-opacity="0.3" stroke-width="3.2"/>
<circle clip-path="url(#clip962)" cx="686.27" cy="633.062" r="14" fill="#ffb90f" fill-rule="evenodd" fill-opacity="0.3" stroke="#000000" stroke-opacity="0.3" stroke-width="3.2"/>
<circle clip-path="url(#clip962)" cx="690.471" cy="778.082" r="14" fill="#ffb90f" fill-rule="evenodd" fill-opacity="0.3" stroke="#000000" stroke-opacity="0.3" stroke-width="3.2"/>
<circle clip-path="url(#clip962)" cx="690.471" cy="692.342" r="14" fill="#ffb90f" fill-rule="evenodd" fill-opacity="0.3" stroke="#000000" stroke-opacity="0.3" stroke-width="3.2"/>
<circle clip-path="url(#clip962)" cx="697.163" cy="763.669" r="14" fill="#ffb90f" fill-rule="evenodd" fill-opacity="0.3" stroke="#000000" stroke-opacity="0.3" stroke-width="3.2"/>
<circle clip-path="url(#clip962)" cx="697.163" cy="706.755" r="14" fill="#ffb90f" fill-rule="evenodd" fill-opacity="0.3" stroke="#000000" stroke-opacity="0.3" stroke-width="3.2"/>
<circle clip-path="url(#clip962)" cx="697.694" cy="827.018" r="14" fill="#ffb90f" fill-rule="evenodd" fill-opacity="0.3" stroke="#000000" stroke-opacity="0.3" stroke-width="3.2"/>
<circle clip-path="url(#clip962)" cx="697.694" cy="643.406" r="14" fill="#ffb90f" fill-rule="evenodd" fill-opacity="0.3" stroke="#000000" stroke-opacity="0.3" stroke-width="3.2"/>
<circle clip-path="url(#clip962)" cx="700.036" cy="735.212" r="14" fill="#ffb90f" fill-rule="evenodd" fill-opacity="0.3" stroke="#000000" stroke-opacity="0.3" stroke-width="3.2"/>
<circle clip-path="url(#clip962)" cx="704.094" cy="869.57" r="14" fill="#ffb90f" fill-rule="evenodd" fill-opacity="0.3" stroke="#000000" stroke-opacity="0.3" stroke-width="3.2"/>
<circle clip-path="url(#clip962)" cx="704.094" cy="600.854" r="14" fill="#ffb90f" fill-rule="evenodd" fill-opacity="0.3" stroke="#000000" stroke-opacity="0.3" stroke-width="3.2"/>
<circle clip-path="url(#clip962)" cx="708.475" cy="805.013" r="14" fill="#ffb90f" fill-rule="evenodd" fill-opacity="0.3" stroke="#000000" stroke-opacity="0.3" stroke-width="3.2"/>
<circle clip-path="url(#clip962)" cx="708.475" cy="665.411" r="14" fill="#ffb90f" fill-rule="evenodd" fill-opacity="0.3" stroke="#000000" stroke-opacity="0.3" stroke-width="3.2"/>
<circle clip-path="url(#clip962)" cx="710.402" cy="817.253" r="14" fill="#ffb90f" fill-rule="evenodd" fill-opacity="0.3" stroke="#000000" stroke-opacity="0.3" stroke-width="3.2"/>
<circle clip-path="url(#clip962)" cx="710.402" cy="653.171" r="14" fill="#ffb90f" fill-rule="evenodd" fill-opacity="0.3" stroke="#000000" stroke-opacity="0.3" stroke-width="3.2"/>
<circle clip-path="url(#clip962)" cx="712.814" cy="838.781" r="14" fill="#ffb90f" fill-rule="evenodd" fill-opacity="0.3" stroke="#000000" stroke-opacity="0.3" stroke-width="3.2"/>
<circle clip-path="url(#clip962)" cx="712.814" cy="631.643" r="14" fill="#ffb90f" fill-rule="evenodd" fill-opacity="0.3" stroke="#000000" stroke-opacity="0.3" stroke-width="3.2"/>
<circle clip-path="url(#clip962)" cx="714.853" cy="876.823" r="14" fill="#ffb90f" fill-rule="evenodd" fill-opacity="0.3" stroke="#000000" stroke-opacity="0.3" stroke-width="3.2"/>
<circle clip-path="url(#clip962)" cx="714.853" cy="593.601" r="14" fill="#ffb90f" fill-rule="evenodd" fill-opacity="0.3" stroke="#000000" stroke-opacity="0.3" stroke-width="3.2"/>
<circle clip-path="url(#clip962)" cx="715.844" cy="786.031" r="14" fill="#ffb90f" fill-rule="evenodd" fill-opacity="0.3" stroke="#000000" stroke-opacity="0.3" stroke-width="3.2"/>
<circle clip-path="url(#clip962)" cx="715.844" cy="684.393" r="14" fill="#ffb90f" fill-rule="evenodd" fill-opacity="0.3" stroke="#000000" stroke-opacity="0.3" stroke-width="3.2"/>
<circle clip-path="url(#clip962)" cx="734.98" cy="735.212" r="14" fill="#ffb90f" fill-rule="evenodd" fill-opacity="0.3" stroke="#000000" stroke-opacity="0.3" stroke-width="3.2"/>
<circle clip-path="url(#clip962)" cx="740.722" cy="764.738" r="14" fill="#ffb90f" fill-rule="evenodd" fill-opacity="0.3" stroke="#000000" stroke-opacity="0.3" stroke-width="3.2"/>
<circle clip-path="url(#clip962)" cx="740.722" cy="705.686" r="14" fill="#ffb90f" fill-rule="evenodd" fill-opacity="0.3" stroke="#000000" stroke-opacity="0.3" stroke-width="3.2"/>
<circle clip-path="url(#clip962)" cx="744.202" cy="838.998" r="14" fill="#ffb90f" fill-rule="evenodd" fill-opacity="0.3" stroke="#000000" stroke-opacity="0.3" stroke-width="3.2"/>
<circle clip-path="url(#clip962)" cx="744.202" cy="631.426" r="14" fill="#ffb90f" fill-rule="evenodd" fill-opacity="0.3" stroke="#000000" stroke-opacity="0.3" stroke-width="3.2"/>
<circle clip-path="url(#clip962)" cx="745.145" cy="856.421" r="14" fill="#ffb90f" fill-rule="evenodd" fill-opacity="0.3" stroke="#000000" stroke-opacity="0.3" stroke-width="3.2"/>
<circle clip-path="url(#clip962)" cx="745.145" cy="614.003" r="14" fill="#ffb90f" fill-rule="evenodd" fill-opacity="0.3" stroke="#000000" stroke-opacity="0.3" stroke-width="3.2"/>
<circle clip-path="url(#clip962)" cx="750.569" cy="792.575" r="14" fill="#ffb90f" fill-rule="evenodd" fill-opacity="0.3" stroke="#000000" stroke-opacity="0.3" stroke-width="3.2"/>
<circle clip-path="url(#clip962)" cx="750.569" cy="677.849" r="14" fill="#ffb90f" fill-rule="evenodd" fill-opacity="0.3" stroke="#000000" stroke-opacity="0.3" stroke-width="3.2"/>
<circle clip-path="url(#clip962)" cx="752.689" cy="735.212" r="14" fill="#ffb90f" fill-rule="evenodd" fill-opacity="0.3" stroke="#000000" stroke-opacity="0.3" stroke-width="3.2"/>
<circle clip-path="url(#clip962)" cx="752.935" cy="824.464" r="14" fill="#ffb90f" fill-rule="evenodd" fill-opacity="0.3" stroke="#000000" stroke-opacity="0.3" stroke-width="3.2"/>
<circle clip-path="url(#clip962)" cx="752.935" cy="645.96" r="14" fill="#ffb90f" fill-rule="evenodd" fill-opacity="0.3" stroke="#000000" stroke-opacity="0.3" stroke-width="3.2"/>
<circle clip-path="url(#clip962)" cx="759.946" cy="758.664" r="14" fill="#ffb90f" fill-rule="evenodd" fill-opacity="0.3" stroke="#000000" stroke-opacity="0.3" stroke-width="3.2"/>
<circle clip-path="url(#clip962)" cx="759.946" cy="711.76" r="14" fill="#ffb90f" fill-rule="evenodd" fill-opacity="0.3" stroke="#000000" stroke-opacity="0.3" stroke-width="3.2"/>
<circle clip-path="url(#clip962)" cx="773.943" cy="768.501" r="14" fill="#ffb90f" fill-rule="evenodd" fill-opacity="0.3" stroke="#000000" stroke-opacity="0.3" stroke-width="3.2"/>
<circle clip-path="url(#clip962)" cx="773.943" cy="701.923" r="14" fill="#ffb90f" fill-rule="evenodd" fill-opacity="0.3" stroke="#000000" stroke-opacity="0.3" stroke-width="3.2"/>
<circle clip-path="url(#clip962)" cx="776.67" cy="735.212" r="14" fill="#ffb90f" fill-rule="evenodd" fill-opacity="0.3" stroke="#000000" stroke-opacity="0.3" stroke-width="3.2"/>
<circle clip-path="url(#clip962)" cx="778.073" cy="735.212" r="14" fill="#ffb90f" fill-rule="evenodd" fill-opacity="0.3" stroke="#000000" stroke-opacity="0.3" stroke-width="3.2"/>
<circle clip-path="url(#clip962)" cx="779.165" cy="869.035" r="14" fill="#ffb90f" fill-rule="evenodd" fill-opacity="0.3" stroke="#000000" stroke-opacity="0.3" stroke-width="3.2"/>
<circle clip-path="url(#clip962)" cx="779.165" cy="601.389" r="14" fill="#ffb90f" fill-rule="evenodd" fill-opacity="0.3" stroke="#000000" stroke-opacity="0.3" stroke-width="3.2"/>
<circle clip-path="url(#clip962)" cx="780.13" cy="788.452" r="14" fill="#ffb90f" fill-rule="evenodd" fill-opacity="0.3" stroke="#000000" stroke-opacity="0.3" stroke-width="3.2"/>
<circle clip-path="url(#clip962)" cx="780.13" cy="681.972" r="14" fill="#ffb90f" fill-rule="evenodd" fill-opacity="0.3" stroke="#000000" stroke-opacity="0.3" stroke-width="3.2"/>
<circle clip-path="url(#clip962)" cx="786.676" cy="831.971" r="14" fill="#ffb90f" fill-rule="evenodd" fill-opacity="0.3" stroke="#000000" stroke-opacity="0.3" stroke-width="3.2"/>
<circle clip-path="url(#clip962)" cx="786.676" cy="638.453" r="14" fill="#ffb90f" fill-rule="evenodd" fill-opacity="0.3" stroke="#000000" stroke-opacity="0.3" stroke-width="3.2"/>
<circle clip-path="url(#clip962)" cx="792.943" cy="815.653" r="14" fill="#ffb90f" fill-rule="evenodd" fill-opacity="0.3" stroke="#000000" stroke-opacity="0.3" stroke-width="3.2"/>
<circle clip-path="url(#clip962)" cx="792.943" cy="654.771" r="14" fill="#ffb90f" fill-rule="evenodd" fill-opacity="0.3" stroke="#000000" stroke-opacity="0.3" stroke-width="3.2"/>
<circle clip-path="url(#clip962)" cx="794.734" cy="861.798" r="14" fill="#ffb90f" fill-rule="evenodd" fill-opacity="0.3" stroke="#000000" stroke-opacity="0.3" stroke-width="3.2"/>
<circle clip-path="url(#clip962)" cx="794.734" cy="608.626" r="14" fill="#ffb90f" fill-rule="evenodd" fill-opacity="0.3" stroke="#000000" stroke-opacity="0.3" stroke-width="3.2"/>
<circle clip-path="url(#clip962)" cx="800.431" cy="795.695" r="14" fill="#ffb90f" fill-rule="evenodd" fill-opacity="0.3" stroke="#000000" stroke-opacity="0.3" stroke-width="3.2"/>
<circle clip-path="url(#clip962)" cx="800.431" cy="674.729" r="14" fill="#ffb90f" fill-rule="evenodd" fill-opacity="0.3" stroke="#000000" stroke-opacity="0.3" stroke-width="3.2"/>
<circle clip-path="url(#clip962)" cx="801.353" cy="836.348" r="14" fill="#ffb90f" fill-rule="evenodd" fill-opacity="0.3" stroke="#000000" stroke-opacity="0.3" stroke-width="3.2"/>
<circle clip-path="url(#clip962)" cx="801.353" cy="634.076" r="14" fill="#ffb90f" fill-rule="evenodd" fill-opacity="0.3" stroke="#000000" stroke-opacity="0.3" stroke-width="3.2"/>
<circle clip-path="url(#clip962)" cx="807.79" cy="858.78" r="14" fill="#ffb90f" fill-rule="evenodd" fill-opacity="0.3" stroke="#000000" stroke-opacity="0.3" stroke-width="3.2"/>
<circle clip-path="url(#clip962)" cx="807.79" cy="611.644" r="14" fill="#ffb90f" fill-rule="evenodd" fill-opacity="0.3" stroke="#000000" stroke-opacity="0.3" stroke-width="3.2"/>
<circle clip-path="url(#clip962)" cx="809.113" cy="745.816" r="14" fill="#ffb90f" fill-rule="evenodd" fill-opacity="0.3" stroke="#000000" stroke-opacity="0.3" stroke-width="3.2"/>
<circle clip-path="url(#clip962)" cx="809.113" cy="724.608" r="14" fill="#ffb90f" fill-rule="evenodd" fill-opacity="0.3" stroke="#000000" stroke-opacity="0.3" stroke-width="3.2"/>
<circle clip-path="url(#clip962)" cx="813.6" cy="774.284" r="14" fill="#ffb90f" fill-rule="evenodd" fill-opacity="0.3" stroke="#000000" stroke-opacity="0.3" stroke-width="3.2"/>
<circle clip-path="url(#clip962)" cx="813.6" cy="696.14" r="14" fill="#ffb90f" fill-rule="evenodd" fill-opacity="0.3" stroke="#000000" stroke-opacity="0.3" stroke-width="3.2"/>
<circle clip-path="url(#clip962)" cx="822.1" cy="826.17" r="14" fill="#ffb90f" fill-rule="evenodd" fill-opacity="0.3" stroke="#000000" stroke-opacity="0.3" stroke-width="3.2"/>
<circle clip-path="url(#clip962)" cx="822.1" cy="644.254" r="14" fill="#ffb90f" fill-rule="evenodd" fill-opacity="0.3" stroke="#000000" stroke-opacity="0.3" stroke-width="3.2"/>
<circle clip-path="url(#clip962)" cx="823.544" cy="735.212" r="14" fill="#ffb90f" fill-rule="evenodd" fill-opacity="0.3" stroke="#000000" stroke-opacity="0.3" stroke-width="3.2"/>
<circle clip-path="url(#clip962)" cx="828.114" cy="779.69" r="14" fill="#ffb90f" fill-rule="evenodd" fill-opacity="0.3" stroke="#000000" stroke-opacity="0.3" stroke-width="3.2"/>
<circle clip-path="url(#clip962)" cx="828.114" cy="690.734" r="14" fill="#ffb90f" fill-rule="evenodd" fill-opacity="0.3" stroke="#000000" stroke-opacity="0.3" stroke-width="3.2"/>
<circle clip-path="url(#clip962)" cx="838.824" cy="794.339" r="14" fill="#ffb90f" fill-rule="evenodd" fill-opacity="0.3" stroke="#000000" stroke-opacity="0.3" stroke-width="3.2"/>
<circle clip-path="url(#clip962)" cx="838.824" cy="676.085" r="14" fill="#ffb90f" fill-rule="evenodd" fill-opacity="0.3" stroke="#000000" stroke-opacity="0.3" stroke-width="3.2"/>
<circle clip-path="url(#clip962)" cx="843.458" cy="742.13" r="14" fill="#ffb90f" fill-rule="evenodd" fill-opacity="0.3" stroke="#000000" stroke-opacity="0.3" stroke-width="3.2"/>
<circle clip-path="url(#clip962)" cx="843.458" cy="728.294" r="14" fill="#ffb90f" fill-rule="evenodd" fill-opacity="0.3" stroke="#000000" stroke-opacity="0.3" stroke-width="3.2"/>
<circle clip-path="url(#clip962)" cx="846.276" cy="846.383" r="14" fill="#ffb90f" fill-rule="evenodd" fill-opacity="0.3" stroke="#000000" stroke-opacity="0.3" stroke-width="3.2"/>
<circle clip-path="url(#clip962)" cx="846.276" cy="624.041" r="14" fill="#ffb90f" fill-rule="evenodd" fill-opacity="0.3" stroke="#000000" stroke-opacity="0.3" stroke-width="3.2"/>
<circle clip-path="url(#clip962)" cx="851.631" cy="803.71" r="14" fill="#ffb90f" fill-rule="evenodd" fill-opacity="0.3" stroke="#000000" stroke-opacity="0.3" stroke-width="3.2"/>
<circle clip-path="url(#clip962)" cx="851.631" cy="666.714" r="14" fill="#ffb90f" fill-rule="evenodd" fill-opacity="0.3" stroke="#000000" stroke-opacity="0.3" stroke-width="3.2"/>
<circle clip-path="url(#clip962)" cx="862.158" cy="769.4" r="14" fill="#ffb90f" fill-rule="evenodd" fill-opacity="0.3" stroke="#000000" stroke-opacity="0.3" stroke-width="3.2"/>
<circle clip-path="url(#clip962)" cx="862.158" cy="701.024" r="14" fill="#ffb90f" fill-rule="evenodd" fill-opacity="0.3" stroke="#000000" stroke-opacity="0.3" stroke-width="3.2"/>
<circle clip-path="url(#clip962)" cx="867.097" cy="806.881" r="14" fill="#ffb90f" fill-rule="evenodd" fill-opacity="0.3" stroke="#000000" stroke-opacity="0.3" stroke-width="3.2"/>
<circle clip-path="url(#clip962)" cx="867.097" cy="663.542" r="14" fill="#ffb90f" fill-rule="evenodd" fill-opacity="0.3" stroke="#000000" stroke-opacity="0.3" stroke-width="3.2"/>
<circle clip-path="url(#clip962)" cx="871.336" cy="735.212" r="14" fill="#ffb90f" fill-rule="evenodd" fill-opacity="0.3" stroke="#000000" stroke-opacity="0.3" stroke-width="3.2"/>
<circle clip-path="url(#clip962)" cx="876.832" cy="743.988" r="14" fill="#ffb90f" fill-rule="evenodd" fill-opacity="0.3" stroke="#000000" stroke-opacity="0.3" stroke-width="3.2"/>
<circle clip-path="url(#clip962)" cx="876.832" cy="726.436" r="14" fill="#ffb90f" fill-rule="evenodd" fill-opacity="0.3" stroke="#000000" stroke-opacity="0.3" stroke-width="3.2"/>
<circle clip-path="url(#clip962)" cx="888.623" cy="735.212" r="14" fill="#ffb90f" fill-rule="evenodd" fill-opacity="0.3" stroke="#000000" stroke-opacity="0.3" stroke-width="3.2"/>
<circle clip-path="url(#clip962)" cx="901.744" cy="762.289" r="14" fill="#ffb90f" fill-rule="evenodd" fill-opacity="0.3" stroke="#000000" stroke-opacity="0.3" stroke-width="3.2"/>
<circle clip-path="url(#clip962)" cx="901.744" cy="708.135" r="14" fill="#ffb90f" fill-rule="evenodd" fill-opacity="0.3" stroke="#000000" stroke-opacity="0.3" stroke-width="3.2"/>
<polyline clip-path="url(#clip962)" style="stroke:#000003; stroke-linecap:butt; stroke-linejoin:round; stroke-width:8; stroke-opacity:1; fill:none" points="
  556.583,774.548 557.87,776.565 558.493,777.695 560.212,780.842 561.986,783.989 563.836,787.136 565.778,790.283 567.828,793.43 570,796.577 571.56,798.738 
  572.169,799.724 574.189,802.871 576.365,806.018 578.708,809.164 581.23,812.311 583.942,815.458 585.251,816.914 586.618,818.605 589.311,821.752 592.231,824.899 
  595.389,828.046 598.796,831.193 598.942,831.325 602.095,834.34 605.663,837.487 609.529,840.634 612.633,843.008 613.632,843.781 617.852,846.927 622.434,850.074 
  626.323,852.575 627.364,853.221 632.599,856.368 638.283,859.515 640.014,860.442 644.527,862.662 651.348,865.809 653.705,866.858 659.122,868.956 667.396,871.979 
  667.812,872.103 678.563,875.25 681.087,875.968 692.568,878.397 694.777,878.861 708.468,880.74 721.231,881.544 722.159,881.604 730.593,881.544 735.85,881.508 
  749.54,880.454 763.021,878.397 763.231,878.365 776.922,875.264 776.971,875.25 787.393,872.103 790.613,871.094 796.253,868.956 804.071,865.809 804.304,865.714 
  810.861,862.662 817.106,859.515 817.994,859.056 822.808,856.368 828.061,853.221 831.685,850.902 832.939,850.074 837.558,846.927 841.821,843.781 845.376,840.947 
  845.773,840.634 849.682,837.487 853.295,834.34 856.622,831.193 859.067,828.708 859.758,828.046 862.944,824.899 865.887,821.752 868.598,818.605 871.085,815.458 
  872.757,813.181 873.475,812.311 875.97,809.164 878.271,806.018 880.387,802.871 882.325,799.724 884.093,796.577 885.698,793.43 886.448,791.844 887.347,790.283 
  889.047,787.136 890.603,783.989 892.02,780.842 893.305,777.695 894.464,774.548 895.504,771.401 896.43,768.255 897.249,765.108 897.966,761.961 898.586,758.814 
  899.116,755.667 899.559,752.52 899.922,749.373 900.139,746.977 900.235,746.226 900.536,743.079 900.736,739.932 900.835,736.785 900.835,733.639 900.736,730.492 
  900.536,727.345 900.235,724.198 900.139,723.447 899.922,721.051 899.559,717.904 899.116,714.757 898.586,711.61 897.966,708.463 897.249,705.316 896.43,702.169 
  895.504,699.022 894.464,695.876 893.305,692.729 892.02,689.582 890.603,686.435 889.047,683.288 887.347,680.141 886.448,678.58 885.698,676.994 884.093,673.847 
  882.325,670.7 880.387,667.553 878.271,664.406 875.97,661.259 873.475,658.113 872.757,657.243 871.085,654.966 868.598,651.819 865.887,648.672 862.944,645.525 
  859.758,642.378 859.067,641.716 856.622,639.231 853.295,636.084 849.682,632.937 845.773,629.79 845.376,629.477 841.821,626.643 837.558,623.496 832.939,620.35 
  831.685,619.521 828.061,617.203 822.808,614.056 817.994,611.368 817.106,610.909 810.861,607.762 804.304,604.71 804.071,604.615 796.253,601.468 790.613,599.33 
  787.393,598.321 776.971,595.174 776.922,595.16 763.231,592.059 763.021,592.027 749.54,589.97 735.85,588.916 730.593,588.88 722.159,588.82 721.231,588.88 
  708.468,589.684 694.777,591.563 692.568,592.027 681.087,594.456 678.563,595.174 667.812,598.321 667.396,598.445 659.122,601.468 653.705,603.566 651.348,604.615 
  644.527,607.762 640.014,609.981 638.283,610.909 632.599,614.056 627.364,617.203 626.323,617.849 622.434,620.35 617.852,623.496 613.632,626.643 612.633,627.416 
  609.529,629.79 605.663,632.937 602.095,636.084 598.942,639.099 598.796,639.231 595.389,642.378 592.231,645.525 589.311,648.672 586.618,651.819 585.251,653.51 
  583.942,654.966 581.23,658.113 578.708,661.259 576.365,664.406 574.189,667.553 572.169,670.7 571.56,671.686 570,673.847 567.828,676.994 565.778,680.141 
  563.836,683.288 561.986,686.435 560.212,689.582 558.493,692.729 557.87,693.859 556.583,695.876 554.591,699.022 552.654,702.169 550.783,705.316 549.004,708.463 
  547.364,711.61 545.93,714.757 544.777,717.904 544.179,720.066 543.737,721.051 542.503,724.198 541.552,727.345 540.905,730.492 540.579,733.639 540.579,736.785 
  540.905,739.932 541.552,743.079 542.503,746.226 543.737,749.373 544.179,750.358 544.777,752.52 545.93,755.667 547.364,758.814 549.004,761.961 550.783,765.108 
  552.654,768.255 554.591,771.401 556.583,774.548 
  "/>
<circle clip-path="url(#clip962)" cx="1601.37" cy="735.212" r="14" fill="#ffb90f" fill-rule="evenodd" fill-opacity="0.3" stroke="#000000" stroke-opacity="0.3" stroke-width="3.2"/>
<circle clip-path="url(#clip962)" cx="1634.52" cy="841.892" r="14" fill="#ffb90f" fill-rule="evenodd" fill-opacity="0.3" stroke="#000000" stroke-opacity="0.3" stroke-width="3.2"/>
<circle clip-path="url(#clip962)" cx="1634.52" cy="628.532" r="14" fill="#ffb90f" fill-rule="evenodd" fill-opacity="0.3" stroke="#000000" stroke-opacity="0.3" stroke-width="3.2"/>
<circle clip-path="url(#clip962)" cx="1675.37" cy="743.952" r="14" fill="#ffb90f" fill-rule="evenodd" fill-opacity="0.3" stroke="#000000" stroke-opacity="0.3" stroke-width="3.2"/>
<circle clip-path="url(#clip962)" cx="1675.37" cy="726.472" r="14" fill="#ffb90f" fill-rule="evenodd" fill-opacity="0.3" stroke="#000000" stroke-opacity="0.3" stroke-width="3.2"/>
<circle clip-path="url(#clip962)" cx="1715.32" cy="842.159" r="14" fill="#ffb90f" fill-rule="evenodd" fill-opacity="0.3" stroke="#000000" stroke-opacity="0.3" stroke-width="3.2"/>
<circle clip-path="url(#clip962)" cx="1715.32" cy="628.265" r="14" fill="#ffb90f" fill-rule="evenodd" fill-opacity="0.3" stroke="#000000" stroke-opacity="0.3" stroke-width="3.2"/>
<circle clip-path="url(#clip962)" cx="1732.51" cy="886.946" r="14" fill="#ffb90f" fill-rule="evenodd" fill-opacity="0.3" stroke="#000000" stroke-opacity="0.3" stroke-width="3.2"/>
<circle clip-path="url(#clip962)" cx="1732.51" cy="583.478" r="14" fill="#ffb90f" fill-rule="evenodd" fill-opacity="0.3" stroke="#000000" stroke-opacity="0.3" stroke-width="3.2"/>
<circle clip-path="url(#clip962)" cx="1735.22" cy="824.053" r="14" fill="#ffb90f" fill-rule="evenodd" fill-opacity="0.3" stroke="#000000" stroke-opacity="0.3" stroke-width="3.2"/>
<circle clip-path="url(#clip962)" cx="1735.22" cy="646.371" r="14" fill="#ffb90f" fill-rule="evenodd" fill-opacity="0.3" stroke="#000000" stroke-opacity="0.3" stroke-width="3.2"/>
<circle clip-path="url(#clip962)" cx="1740.56" cy="779.892" r="14" fill="#ffb90f" fill-rule="evenodd" fill-opacity="0.3" stroke="#000000" stroke-opacity="0.3" stroke-width="3.2"/>
<circle clip-path="url(#clip962)" cx="1740.56" cy="690.532" r="14" fill="#ffb90f" fill-rule="evenodd" fill-opacity="0.3" stroke="#000000" stroke-opacity="0.3" stroke-width="3.2"/>
<circle clip-path="url(#clip962)" cx="1740.66" cy="735.212" r="14" fill="#ffb90f" fill-rule="evenodd" fill-opacity="0.3" stroke="#000000" stroke-opacity="0.3" stroke-width="3.2"/>
<circle clip-path="url(#clip962)" cx="1789.66" cy="772.581" r="14" fill="#ffb90f" fill-rule="evenodd" fill-opacity="0.3" stroke="#000000" stroke-opacity="0.3" stroke-width="3.2"/>
<circle clip-path="url(#clip962)" cx="1789.66" cy="697.843" r="14" fill="#ffb90f" fill-rule="evenodd" fill-opacity="0.3" stroke="#000000" stroke-opacity="0.3" stroke-width="3.2"/>
<circle clip-path="url(#clip962)" cx="1794.87" cy="870.255" r="14" fill="#ffb90f" fill-rule="evenodd" fill-opacity="0.3" stroke="#000000" stroke-opacity="0.3" stroke-width="3.2"/>
<circle clip-path="url(#clip962)" cx="1794.87" cy="600.169" r="14" fill="#ffb90f" fill-rule="evenodd" fill-opacity="0.3" stroke="#000000" stroke-opacity="0.3" stroke-width="3.2"/>
<circle clip-path="url(#clip962)" cx="1805.64" cy="795.749" r="14" fill="#ffb90f" fill-rule="evenodd" fill-opacity="0.3" stroke="#000000" stroke-opacity="0.3" stroke-width="3.2"/>
<circle clip-path="url(#clip962)" cx="1805.64" cy="674.675" r="14" fill="#ffb90f" fill-rule="evenodd" fill-opacity="0.3" stroke="#000000" stroke-opacity="0.3" stroke-width="3.2"/>
<circle clip-path="url(#clip962)" cx="1817.57" cy="908.732" r="14" fill="#ffb90f" fill-rule="evenodd" fill-opacity="0.3" stroke="#000000" stroke-opacity="0.3" stroke-width="3.2"/>
<circle clip-path="url(#clip962)" cx="1817.57" cy="561.692" r="14" fill="#ffb90f" fill-rule="evenodd" fill-opacity="0.3" stroke="#000000" stroke-opacity="0.3" stroke-width="3.2"/>
<circle clip-path="url(#clip962)" cx="1844.28" cy="735.212" r="14" fill="#ffb90f" fill-rule="evenodd" fill-opacity="0.3" stroke="#000000" stroke-opacity="0.3" stroke-width="3.2"/>
<circle clip-path="url(#clip962)" cx="1865.43" cy="875.846" r="14" fill="#ffb90f" fill-rule="evenodd" fill-opacity="0.3" stroke="#000000" stroke-opacity="0.3" stroke-width="3.2"/>
<circle clip-path="url(#clip962)" cx="1865.43" cy="594.578" r="14" fill="#ffb90f" fill-rule="evenodd" fill-opacity="0.3" stroke="#000000" stroke-opacity="0.3" stroke-width="3.2"/>
<circle clip-path="url(#clip962)" cx="1867.06" cy="797.038" r="14" fill="#ffb90f" fill-rule="evenodd" fill-opacity="0.3" stroke="#000000" stroke-opacity="0.3" stroke-width="3.2"/>
<circle clip-path="url(#clip962)" cx="1867.06" cy="673.386" r="14" fill="#ffb90f" fill-rule="evenodd" fill-opacity="0.3" stroke="#000000" stroke-opacity="0.3" stroke-width="3.2"/>
<circle clip-path="url(#clip962)" cx="1884.69" cy="742.677" r="14" fill="#ffb90f" fill-rule="evenodd" fill-opacity="0.3" stroke="#000000" stroke-opacity="0.3" stroke-width="3.2"/>
<circle clip-path="url(#clip962)" cx="1884.69" cy="727.747" r="14" fill="#ffb90f" fill-rule="evenodd" fill-opacity="0.3" stroke="#000000" stroke-opacity="0.3" stroke-width="3.2"/>
<circle clip-path="url(#clip962)" cx="1894.58" cy="852.274" r="14" fill="#ffb90f" fill-rule="evenodd" fill-opacity="0.3" stroke="#000000" stroke-opacity="0.3" stroke-width="3.2"/>
<circle clip-path="url(#clip962)" cx="1894.58" cy="618.15" r="14" fill="#ffb90f" fill-rule="evenodd" fill-opacity="0.3" stroke="#000000" stroke-opacity="0.3" stroke-width="3.2"/>
<circle clip-path="url(#clip962)" cx="1906.94" cy="913.696" r="14" fill="#ffb90f" fill-rule="evenodd" fill-opacity="0.3" stroke="#000000" stroke-opacity="0.3" stroke-width="3.2"/>
<circle clip-path="url(#clip962)" cx="1906.94" cy="556.728" r="14" fill="#ffb90f" fill-rule="evenodd" fill-opacity="0.3" stroke="#000000" stroke-opacity="0.3" stroke-width="3.2"/>
<circle clip-path="url(#clip962)" cx="1920.67" cy="813.402" r="14" fill="#ffb90f" fill-rule="evenodd" fill-opacity="0.3" stroke="#000000" stroke-opacity="0.3" stroke-width="3.2"/>
<circle clip-path="url(#clip962)" cx="1920.67" cy="657.022" r="14" fill="#ffb90f" fill-rule="evenodd" fill-opacity="0.3" stroke="#000000" stroke-opacity="0.3" stroke-width="3.2"/>
<circle clip-path="url(#clip962)" cx="1925.04" cy="870.809" r="14" fill="#ffb90f" fill-rule="evenodd" fill-opacity="0.3" stroke="#000000" stroke-opacity="0.3" stroke-width="3.2"/>
<circle clip-path="url(#clip962)" cx="1925.04" cy="599.615" r="14" fill="#ffb90f" fill-rule="evenodd" fill-opacity="0.3" stroke="#000000" stroke-opacity="0.3" stroke-width="3.2"/>
<circle clip-path="url(#clip962)" cx="1942.02" cy="806.549" r="14" fill="#ffb90f" fill-rule="evenodd" fill-opacity="0.3" stroke="#000000" stroke-opacity="0.3" stroke-width="3.2"/>
<circle clip-path="url(#clip962)" cx="1942.02" cy="663.875" r="14" fill="#ffb90f" fill-rule="evenodd" fill-opacity="0.3" stroke="#000000" stroke-opacity="0.3" stroke-width="3.2"/>
<circle clip-path="url(#clip962)" cx="1967.59" cy="763.079" r="14" fill="#ffb90f" fill-rule="evenodd" fill-opacity="0.3" stroke="#000000" stroke-opacity="0.3" stroke-width="3.2"/>
<circle clip-path="url(#clip962)" cx="1967.59" cy="707.345" r="14" fill="#ffb90f" fill-rule="evenodd" fill-opacity="0.3" stroke="#000000" stroke-opacity="0.3" stroke-width="3.2"/>
<circle clip-path="url(#clip962)" cx="2012.08" cy="735.212" r="14" fill="#ffb90f" fill-rule="evenodd" fill-opacity="0.3" stroke="#000000" stroke-opacity="0.3" stroke-width="3.2"/>
<circle clip-path="url(#clip962)" cx="2023.39" cy="797.332" r="14" fill="#ffb90f" fill-rule="evenodd" fill-opacity="0.3" stroke="#000000" stroke-opacity="0.3" stroke-width="3.2"/>
<circle clip-path="url(#clip962)" cx="2023.39" cy="673.092" r="14" fill="#ffb90f" fill-rule="evenodd" fill-opacity="0.3" stroke="#000000" stroke-opacity="0.3" stroke-width="3.2"/>
<circle clip-path="url(#clip962)" cx="2059.77" cy="832.133" r="14" fill="#ffb90f" fill-rule="evenodd" fill-opacity="0.3" stroke="#000000" stroke-opacity="0.3" stroke-width="3.2"/>
<circle clip-path="url(#clip962)" cx="2059.77" cy="638.29" r="14" fill="#ffb90f" fill-rule="evenodd" fill-opacity="0.3" stroke="#000000" stroke-opacity="0.3" stroke-width="3.2"/>
<circle clip-path="url(#clip962)" cx="2081.45" cy="735.212" r="14" fill="#ffb90f" fill-rule="evenodd" fill-opacity="0.3" stroke="#000000" stroke-opacity="0.3" stroke-width="3.2"/>
<polyline clip-path="url(#clip962)" style="stroke:#000003; stroke-linecap:butt; stroke-linejoin:round; stroke-width:8; stroke-opacity:1; fill:none" points="
  1617.8,800.656 1617.83,800.717 1620.05,804.623 1622.51,808.589 1625.18,812.555 1628.06,816.521 1630.71,819.949 1631.1,820.488 1634.03,824.454 1637.18,828.42 
  1640.57,832.387 1643.59,835.721 1644.13,836.353 1647.64,840.319 1651.39,844.286 1655.42,848.252 1656.46,849.255 1659.46,852.218 1663.7,856.185 1668.24,860.151 
  1669.34,861.083 1672.86,864.117 1677.73,868.084 1682.21,871.515 1682.92,872.05 1688.23,876.016 1693.93,879.983 1695.09,880.771 1699.87,883.949 1706.2,887.915 
  1707.96,888.989 1712.91,891.881 1720.07,895.848 1720.84,896.266 1727.76,899.814 1733.71,902.719 1736.07,903.78 1745.13,907.747 1746.59,908.375 1755.21,911.713 
  1759.47,913.318 1766.59,915.679 1772.34,917.56 1779.83,919.646 1785.22,921.139 1796.09,923.612 1798.09,924.068 1810.97,926.404 1819.89,927.578 1823.84,928.112 
  1836.72,929.244 1849.59,929.768 1862.47,929.696 1875.34,929.021 1888.22,927.716 1889.14,927.578 1901.1,925.832 1912.2,923.612 1913.97,923.262 1926.85,920.041 
  1928.15,919.646 1939.72,916.114 1940.94,915.679 1951.84,911.713 1952.6,911.434 1961.39,907.747 1965.47,905.968 1970.02,903.78 1977.9,899.814 1978.35,899.583 
  1985.11,895.848 1991.22,892.239 1991.8,891.881 1998.06,887.915 2003.85,883.949 2004.1,883.774 2009.38,879.983 2014.52,876.016 2016.98,874.024 2019.4,872.05 
  2024.05,868.084 2028.34,864.117 2029.85,862.664 2032.51,860.151 2036.49,856.185 2040.17,852.218 2042.73,849.26 2043.64,848.252 2047.12,844.286 2050.33,840.319 
  2053.29,836.353 2055.6,833.005 2056.07,832.387 2058.93,828.42 2061.58,824.454 2064.01,820.488 2066.24,816.521 2068.28,812.555 2068.48,812.149 2070.45,808.589 
  2072.49,804.623 2074.35,800.656 2076.04,796.69 2077.58,792.724 2078.98,788.757 2080.23,784.791 2081.35,780.825 2081.35,780.815 2082.6,776.858 2083.71,772.892 
  2084.69,768.926 2085.55,764.959 2086.29,760.993 2086.92,757.027 2087.44,753.06 2087.85,749.094 2088.15,745.128 2088.35,741.161 2088.45,737.195 2088.45,733.229 
  2088.35,729.262 2088.15,725.296 2087.85,721.33 2087.44,717.364 2086.92,713.397 2086.29,709.431 2085.55,705.465 2084.69,701.498 2083.71,697.532 2082.6,693.566 
  2081.35,689.609 2081.35,689.599 2080.23,685.633 2078.98,681.667 2077.58,677.7 2076.04,673.734 2074.35,669.768 2072.49,665.801 2070.45,661.835 2068.48,658.275 
  2068.28,657.869 2066.24,653.902 2064.01,649.936 2061.58,645.97 2058.93,642.004 2056.07,638.037 2055.6,637.418 2053.29,634.071 2050.33,630.105 2047.12,626.138 
  2043.64,622.172 2042.73,621.164 2040.17,618.206 2036.49,614.239 2032.51,610.273 2029.85,607.76 2028.34,606.307 2024.05,602.34 2019.4,598.374 2016.98,596.4 
  2014.52,594.408 2009.38,590.441 2004.1,586.65 2003.85,586.475 1998.06,582.509 1991.8,578.542 1991.22,578.185 1985.11,574.576 1978.35,570.841 1977.9,570.61 
  1970.02,566.644 1965.47,564.456 1961.39,562.677 1952.6,558.99 1951.84,558.711 1940.94,554.745 1939.72,554.31 1928.15,550.778 1926.85,550.383 1913.97,547.162 
  1912.2,546.812 1901.1,544.592 1889.14,542.846 1888.22,542.708 1875.34,541.403 1862.47,540.728 1849.59,540.656 1836.72,541.18 1823.84,542.312 1819.89,542.846 
  1810.97,544.019 1798.09,546.355 1796.09,546.812 1785.22,549.285 1779.83,550.778 1772.34,552.864 1766.59,554.745 1759.47,557.106 1755.21,558.711 1746.59,562.049 
  1745.13,562.677 1736.07,566.644 1733.71,567.705 1727.76,570.61 1720.84,574.158 1720.07,574.576 1712.91,578.542 1707.96,581.435 1706.2,582.509 1699.87,586.475 
  1695.09,589.653 1693.93,590.441 1688.23,594.408 1682.92,598.374 1682.21,598.909 1677.73,602.34 1672.86,606.307 1669.34,609.341 1668.24,610.273 1663.7,614.239 
  1659.46,618.206 1656.46,621.169 1655.42,622.172 1651.39,626.138 1647.64,630.105 1644.13,634.071 1643.59,634.703 1640.57,638.037 1637.18,642.004 1634.03,645.97 
  1631.1,649.936 1630.71,650.475 1628.06,653.902 1625.18,657.869 1622.51,661.835 1620.05,665.801 1617.83,669.707 1617.8,669.768 1615.35,673.734 1613.09,677.7 
  1611.04,681.667 1609.17,685.633 1607.5,689.599 1606.03,693.566 1604.96,696.829 1604.68,697.532 1603.2,701.498 1601.9,705.465 1600.78,709.431 1599.83,713.397 
  1599.05,717.364 1598.44,721.33 1597.98,725.296 1597.68,729.262 1597.53,733.229 1597.53,737.195 1597.68,741.161 1597.98,745.128 1598.44,749.094 1599.05,753.06 
  1599.83,757.027 1600.78,760.993 1601.9,764.959 1603.2,768.926 1604.68,772.892 1604.96,773.594 1606.03,776.858 1607.5,780.825 1609.17,784.791 1611.04,788.757 
  1613.09,792.724 1615.35,796.69 1617.8,800.656 
  "/>
</svg>
