<?xml version="1.0" encoding="utf-8"?>
<svg xmlns="http://www.w3.org/2000/svg" xmlns:xlink="http://www.w3.org/1999/xlink" width="600" height="400" viewBox="0 0 2400 1600">
<defs>
  <clipPath id="clip540">
    <rect x="0" y="0" width="2400" height="1600"/>
  </clipPath>
</defs>
<path clip-path="url(#clip540)" d="
M0 1600 L2400 1600 L2400 0 L0 0  Z
  " fill="#ffffff" fill-rule="evenodd" fill-opacity="1"/>
<defs>
  <clipPath id="clip541">
    <rect x="480" y="0" width="1681" height="1600"/>
  </clipPath>
</defs>
<path clip-path="url(#clip540)" d="
M318.014 938.686 L2352.76 938.686 L2352.76 531.738 L318.014 531.738  Z
  " fill="#ffffff" fill-rule="evenodd" fill-opacity="1"/>
<defs>
  <clipPath id="clip542">
    <rect x="318" y="531" width="2036" height="408"/>
  </clipPath>
</defs>
<polyline clip-path="url(#clip540)" style="stroke:#000000; stroke-linecap:butt; stroke-linejoin:round; stroke-width:4; stroke-opacity:1; fill:none" points="
  318.014,938.686 2352.76,938.686 
  "/>
<polyline clip-path="url(#clip540)" style="stroke:#000000; stroke-linecap:butt; stroke-linejoin:round; stroke-width:4; stroke-opacity:1; fill:none" points="
  375.601,938.686 375.601,933.097 
  "/>
<polyline clip-path="url(#clip540)" style="stroke:#000000; stroke-linecap:butt; stroke-linejoin:round; stroke-width:4; stroke-opacity:1; fill:none" points="
  802.172,938.686 802.172,933.097 
  "/>
<polyline clip-path="url(#clip540)" style="stroke:#000000; stroke-linecap:butt; stroke-linejoin:round; stroke-width:4; stroke-opacity:1; fill:none" points="
  1228.74,938.686 1228.74,933.097 
  "/>
<polyline clip-path="url(#clip540)" style="stroke:#000000; stroke-linecap:butt; stroke-linejoin:round; stroke-width:4; stroke-opacity:1; fill:none" points="
  1655.31,938.686 1655.31,933.097 
  "/>
<polyline clip-path="url(#clip540)" style="stroke:#000000; stroke-linecap:butt; stroke-linejoin:round; stroke-width:4; stroke-opacity:1; fill:none" points="
  2081.88,938.686 2081.88,933.097 
  "/>
<path clip-path="url(#clip540)" d="M306.967 984.258 L336.643 984.258 L336.643 988.193 L306.967 988.193 L306.967 984.258 Z" fill="#000000" fill-rule="evenodd" fill-opacity="1" /><path clip-path="url(#clip540)" d="M356.735 969.605 Q353.124 969.605 351.296 973.17 Q349.49 976.711 349.49 983.841 Q349.49 990.947 351.296 994.512 Q353.124 998.054 356.735 998.054 Q360.37 998.054 362.175 994.512 Q364.004 990.947 364.004 983.841 Q364.004 976.711 362.175 973.17 Q360.37 969.605 356.735 969.605 M356.735 965.901 Q362.545 965.901 365.601 970.508 Q368.68 975.091 368.68 983.841 Q368.68 992.568 365.601 997.174 Q362.545 1001.76 356.735 1001.76 Q350.925 1001.76 347.846 997.174 Q344.791 992.568 344.791 983.841 Q344.791 975.091 347.846 970.508 Q350.925 965.901 356.735 965.901 Z" fill="#000000" fill-rule="evenodd" fill-opacity="1" /><path clip-path="url(#clip540)" d="M376.897 995.207 L381.781 995.207 L381.781 1001.09 L376.897 1001.09 L376.897 995.207 Z" fill="#000000" fill-rule="evenodd" fill-opacity="1" /><path clip-path="url(#clip540)" d="M392.777 997.151 L400.416 997.151 L400.416 970.785 L392.105 972.452 L392.105 968.193 L400.369 966.526 L405.045 966.526 L405.045 997.151 L412.684 997.151 L412.684 1001.09 L392.777 1001.09 L392.777 997.151 Z" fill="#000000" fill-rule="evenodd" fill-opacity="1" /><path clip-path="url(#clip540)" d="M432.707 981.943 Q429.559 981.943 427.707 984.096 Q425.878 986.248 425.878 989.998 Q425.878 993.725 427.707 995.901 Q429.559 998.054 432.707 998.054 Q435.855 998.054 437.684 995.901 Q439.536 993.725 439.536 989.998 Q439.536 986.248 437.684 984.096 Q435.855 981.943 432.707 981.943 M441.989 967.29 L441.989 971.549 Q440.23 970.716 438.425 970.276 Q436.642 969.836 434.883 969.836 Q430.253 969.836 427.8 972.961 Q425.369 976.086 425.022 982.406 Q426.388 980.392 428.448 979.327 Q430.508 978.239 432.985 978.239 Q438.193 978.239 441.202 981.41 Q444.235 984.558 444.235 989.998 Q444.235 995.322 441.087 998.54 Q437.939 1001.76 432.707 1001.76 Q426.712 1001.76 423.54 997.174 Q420.369 992.568 420.369 983.841 Q420.369 975.646 424.258 970.785 Q428.147 965.901 434.698 965.901 Q436.457 965.901 438.239 966.248 Q440.045 966.596 441.989 967.29 Z" fill="#000000" fill-rule="evenodd" fill-opacity="1" /><path clip-path="url(#clip540)" d="M734.116 984.258 L763.792 984.258 L763.792 988.193 L734.116 988.193 L734.116 984.258 Z" fill="#000000" fill-rule="evenodd" fill-opacity="1" /><path clip-path="url(#clip540)" d="M783.885 969.605 Q780.274 969.605 778.445 973.17 Q776.639 976.711 776.639 983.841 Q776.639 990.947 778.445 994.512 Q780.274 998.054 783.885 998.054 Q787.519 998.054 789.324 994.512 Q791.153 990.947 791.153 983.841 Q791.153 976.711 789.324 973.17 Q787.519 969.605 783.885 969.605 M783.885 965.901 Q789.695 965.901 792.75 970.508 Q795.829 975.091 795.829 983.841 Q795.829 992.568 792.75 997.174 Q789.695 1001.76 783.885 1001.76 Q778.074 1001.76 774.996 997.174 Q771.94 992.568 771.94 983.841 Q771.94 975.091 774.996 970.508 Q778.074 965.901 783.885 965.901 Z" fill="#000000" fill-rule="evenodd" fill-opacity="1" /><path clip-path="url(#clip540)" d="M804.047 995.207 L808.931 995.207 L808.931 1001.09 L804.047 1001.09 L804.047 995.207 Z" fill="#000000" fill-rule="evenodd" fill-opacity="1" /><path clip-path="url(#clip540)" d="M819.926 997.151 L827.565 997.151 L827.565 970.785 L819.255 972.452 L819.255 968.193 L827.519 966.526 L832.195 966.526 L832.195 997.151 L839.833 997.151 L839.833 1001.09 L819.926 1001.09 L819.926 997.151 Z" fill="#000000" fill-rule="evenodd" fill-opacity="1" /><path clip-path="url(#clip540)" d="M849.324 966.526 L867.68 966.526 L867.68 970.461 L853.606 970.461 L853.606 978.934 Q854.625 978.586 855.644 978.424 Q856.662 978.239 857.681 978.239 Q863.468 978.239 866.847 981.41 Q870.227 984.582 870.227 989.998 Q870.227 995.577 866.755 998.679 Q863.282 1001.76 856.963 1001.76 Q854.787 1001.76 852.519 1001.39 Q850.273 1001.02 847.866 1000.28 L847.866 995.577 Q849.949 996.711 852.171 997.267 Q854.394 997.822 856.87 997.822 Q860.875 997.822 863.213 995.716 Q865.551 993.609 865.551 989.998 Q865.551 986.387 863.213 984.281 Q860.875 982.174 856.87 982.174 Q854.995 982.174 853.12 982.591 Q851.269 983.008 849.324 983.887 L849.324 966.526 Z" fill="#000000" fill-rule="evenodd" fill-opacity="1" /><path clip-path="url(#clip540)" d="M1159.95 984.258 L1189.62 984.258 L1189.62 988.193 L1159.95 988.193 L1159.95 984.258 Z" fill="#000000" fill-rule="evenodd" fill-opacity="1" /><path clip-path="url(#clip540)" d="M1209.71 969.605 Q1206.1 969.605 1204.27 973.17 Q1202.47 976.711 1202.47 983.841 Q1202.47 990.947 1204.27 994.512 Q1206.1 998.054 1209.71 998.054 Q1213.35 998.054 1215.15 994.512 Q1216.98 990.947 1216.98 983.841 Q1216.98 976.711 1215.15 973.17 Q1213.35 969.605 1209.71 969.605 M1209.71 965.901 Q1215.52 965.901 1218.58 970.508 Q1221.66 975.091 1221.66 983.841 Q1221.66 992.568 1218.58 997.174 Q1215.52 1001.76 1209.71 1001.76 Q1203.9 1001.76 1200.83 997.174 Q1197.77 992.568 1197.77 983.841 Q1197.77 975.091 1200.83 970.508 Q1203.9 965.901 1209.71 965.901 Z" fill="#000000" fill-rule="evenodd" fill-opacity="1" /><path clip-path="url(#clip540)" d="M1229.88 995.207 L1234.76 995.207 L1234.76 1001.09 L1229.88 1001.09 L1229.88 995.207 Z" fill="#000000" fill-rule="evenodd" fill-opacity="1" /><path clip-path="url(#clip540)" d="M1245.76 997.151 L1253.39 997.151 L1253.39 970.785 L1245.08 972.452 L1245.08 968.193 L1253.35 966.526 L1258.02 966.526 L1258.02 997.151 L1265.66 997.151 L1265.66 1001.09 L1245.76 1001.09 L1245.76 997.151 Z" fill="#000000" fill-rule="evenodd" fill-opacity="1" /><path clip-path="url(#clip540)" d="M1287.95 970.6 L1276.15 989.049 L1287.95 989.049 L1287.95 970.6 M1286.73 966.526 L1292.61 966.526 L1292.61 989.049 L1297.54 989.049 L1297.54 992.938 L1292.61 992.938 L1292.61 1001.09 L1287.95 1001.09 L1287.95 992.938 L1272.35 992.938 L1272.35 988.424 L1286.73 966.526 Z" fill="#000000" fill-rule="evenodd" fill-opacity="1" /><path clip-path="url(#clip540)" d="M1587.08 984.258 L1616.76 984.258 L1616.76 988.193 L1587.08 988.193 L1587.08 984.258 Z" fill="#000000" fill-rule="evenodd" fill-opacity="1" /><path clip-path="url(#clip540)" d="M1636.85 969.605 Q1633.24 969.605 1631.41 973.17 Q1629.61 976.711 1629.61 983.841 Q1629.61 990.947 1631.41 994.512 Q1633.24 998.054 1636.85 998.054 Q1640.49 998.054 1642.29 994.512 Q1644.12 990.947 1644.12 983.841 Q1644.12 976.711 1642.29 973.17 Q1640.49 969.605 1636.85 969.605 M1636.85 965.901 Q1642.66 965.901 1645.72 970.508 Q1648.8 975.091 1648.8 983.841 Q1648.8 992.568 1645.72 997.174 Q1642.66 1001.76 1636.85 1001.76 Q1631.04 1001.76 1627.96 997.174 Q1624.91 992.568 1624.91 983.841 Q1624.91 975.091 1627.96 970.508 Q1631.04 965.901 1636.85 965.901 Z" fill="#000000" fill-rule="evenodd" fill-opacity="1" /><path clip-path="url(#clip540)" d="M1657.01 995.207 L1661.9 995.207 L1661.9 1001.09 L1657.01 1001.09 L1657.01 995.207 Z" fill="#000000" fill-rule="evenodd" fill-opacity="1" /><path clip-path="url(#clip540)" d="M1672.89 997.151 L1680.53 997.151 L1680.53 970.785 L1672.22 972.452 L1672.22 968.193 L1680.49 966.526 L1685.16 966.526 L1685.16 997.151 L1692.8 997.151 L1692.8 1001.09 L1672.89 1001.09 L1672.89 997.151 Z" fill="#000000" fill-rule="evenodd" fill-opacity="1" /><path clip-path="url(#clip540)" d="M1716.41 982.452 Q1719.77 983.17 1721.64 985.438 Q1723.54 987.707 1723.54 991.04 Q1723.54 996.156 1720.02 998.957 Q1716.5 1001.76 1710.02 1001.76 Q1707.85 1001.76 1705.53 1001.32 Q1703.24 1000.9 1700.79 1000.04 L1700.79 995.531 Q1702.73 996.665 1705.05 997.244 Q1707.36 997.822 1709.88 997.822 Q1714.28 997.822 1716.57 996.086 Q1718.89 994.35 1718.89 991.04 Q1718.89 987.984 1716.74 986.271 Q1714.61 984.535 1710.79 984.535 L1706.76 984.535 L1706.76 980.693 L1710.97 980.693 Q1714.42 980.693 1716.25 979.327 Q1718.08 977.938 1718.08 975.346 Q1718.08 972.684 1716.18 971.272 Q1714.31 969.836 1710.79 969.836 Q1708.87 969.836 1706.67 970.253 Q1704.47 970.67 1701.83 971.549 L1701.83 967.383 Q1704.49 966.642 1706.81 966.272 Q1709.14 965.901 1711.2 965.901 Q1716.53 965.901 1719.63 968.332 Q1722.73 970.739 1722.73 974.859 Q1722.73 977.73 1721.09 979.721 Q1719.44 981.688 1716.41 982.452 Z" fill="#000000" fill-rule="evenodd" fill-opacity="1" /><path clip-path="url(#clip540)" d="M2014.13 984.258 L2043.81 984.258 L2043.81 988.193 L2014.13 988.193 L2014.13 984.258 Z" fill="#000000" fill-rule="evenodd" fill-opacity="1" /><path clip-path="url(#clip540)" d="M2063.9 969.605 Q2060.29 969.605 2058.46 973.17 Q2056.65 976.711 2056.65 983.841 Q2056.65 990.947 2058.46 994.512 Q2060.29 998.054 2063.9 998.054 Q2067.53 998.054 2069.34 994.512 Q2071.17 990.947 2071.17 983.841 Q2071.17 976.711 2069.34 973.17 Q2067.53 969.605 2063.9 969.605 M2063.9 965.901 Q2069.71 965.901 2072.76 970.508 Q2075.84 975.091 2075.84 983.841 Q2075.84 992.568 2072.76 997.174 Q2069.71 1001.76 2063.9 1001.76 Q2058.09 1001.76 2055.01 997.174 Q2051.95 992.568 2051.95 983.841 Q2051.95 975.091 2055.01 970.508 Q2058.09 965.901 2063.9 965.901 Z" fill="#000000" fill-rule="evenodd" fill-opacity="1" /><path clip-path="url(#clip540)" d="M2084.06 995.207 L2088.94 995.207 L2088.94 1001.09 L2084.06 1001.09 L2084.06 995.207 Z" fill="#000000" fill-rule="evenodd" fill-opacity="1" /><path clip-path="url(#clip540)" d="M2099.94 997.151 L2107.58 997.151 L2107.58 970.785 L2099.27 972.452 L2099.27 968.193 L2107.53 966.526 L2112.21 966.526 L2112.21 997.151 L2119.85 997.151 L2119.85 1001.09 L2099.94 1001.09 L2099.94 997.151 Z" fill="#000000" fill-rule="evenodd" fill-opacity="1" /><path clip-path="url(#clip540)" d="M2133.32 997.151 L2149.64 997.151 L2149.64 1001.09 L2127.69 1001.09 L2127.69 997.151 Q2130.36 994.396 2134.94 989.767 Q2139.55 985.114 2140.73 983.771 Q2142.97 981.248 2143.85 979.512 Q2144.75 977.753 2144.75 976.063 Q2144.75 973.309 2142.81 971.572 Q2140.89 969.836 2137.79 969.836 Q2135.59 969.836 2133.13 970.6 Q2130.7 971.364 2127.92 972.915 L2127.92 968.193 Q2130.75 967.059 2133.2 966.48 Q2135.66 965.901 2137.69 965.901 Q2143.06 965.901 2146.26 968.586 Q2149.45 971.272 2149.45 975.762 Q2149.45 977.892 2148.64 979.813 Q2147.86 981.711 2145.75 984.304 Q2145.17 984.975 2142.07 988.193 Q2138.97 991.387 2133.32 997.151 Z" fill="#000000" fill-rule="evenodd" fill-opacity="1" /><path clip-path="url(#clip540)" d="M1277.97 1061.27 Q1280.04 1061.97 1281.98 1064.26 Q1283.95 1066.55 1285.92 1070.56 L1292.45 1083.55 L1285.54 1083.55 L1279.46 1071.36 Q1277.11 1066.59 1274.88 1065.03 Q1272.68 1063.47 1268.86 1063.47 L1261.86 1063.47 L1261.86 1083.55 L1255.43 1083.55 L1255.43 1036.03 L1269.95 1036.03 Q1278.09 1036.03 1282.1 1039.44 Q1286.11 1042.84 1286.11 1049.72 Q1286.11 1054.2 1284.01 1057.16 Q1281.94 1060.12 1277.97 1061.27 M1261.86 1041.31 L1261.86 1058.18 L1269.95 1058.18 Q1274.59 1058.18 1276.95 1056.05 Q1279.33 1053.89 1279.33 1049.72 Q1279.33 1045.55 1276.95 1043.45 Q1274.59 1041.31 1269.95 1041.31 L1261.86 1041.31 Z" fill="#000000" fill-rule="evenodd" fill-opacity="1" /><path clip-path="url(#clip540)" d="M1328.03 1064.26 L1328.03 1067.13 L1301.11 1067.13 Q1301.49 1073.17 1304.73 1076.36 Q1308.01 1079.51 1313.84 1079.51 Q1317.21 1079.51 1320.36 1078.68 Q1323.54 1077.85 1326.66 1076.2 L1326.66 1081.74 Q1323.51 1083.07 1320.2 1083.77 Q1316.89 1084.47 1313.49 1084.47 Q1304.96 1084.47 1299.96 1079.51 Q1294.99 1074.54 1294.99 1066.08 Q1294.99 1057.32 1299.71 1052.2 Q1304.45 1047.04 1312.47 1047.04 Q1319.66 1047.04 1323.83 1051.69 Q1328.03 1056.3 1328.03 1064.26 M1322.18 1062.54 Q1322.11 1057.74 1319.47 1054.87 Q1316.86 1052.01 1312.53 1052.01 Q1307.63 1052.01 1304.67 1054.78 Q1301.74 1057.55 1301.3 1062.58 L1322.18 1062.54 Z" fill="#000000" fill-rule="evenodd" fill-opacity="1" /><path clip-path="url(#clip540)" d="M1351.71 1034.09 Q1347.45 1041.41 1345.38 1048.57 Q1343.31 1055.73 1343.31 1063.08 Q1343.31 1070.44 1345.38 1077.66 Q1347.48 1084.86 1351.71 1092.14 L1346.62 1092.14 Q1341.85 1084.66 1339.46 1077.44 Q1337.1 1070.21 1337.1 1063.08 Q1337.1 1055.99 1339.46 1048.79 Q1341.81 1041.6 1346.62 1034.09 L1351.71 1034.09 Z" fill="#000000" fill-rule="evenodd" fill-opacity="1" /><path clip-path="url(#clip540)" d="M1392.71 1047.9 L1379.82 1065.25 L1393.38 1083.55 L1386.47 1083.55 L1376.09 1069.55 L1365.72 1083.55 L1358.81 1083.55 L1372.66 1064.9 L1359.99 1047.9 L1366.9 1047.9 L1376.35 1060.6 L1385.8 1047.9 L1392.71 1047.9 Z" fill="#000000" fill-rule="evenodd" fill-opacity="1" /><path clip-path="url(#clip540)" d="M1400.73 1034.09 L1405.82 1034.09 Q1410.6 1041.6 1412.95 1048.79 Q1415.34 1055.99 1415.34 1063.08 Q1415.34 1070.21 1412.95 1077.44 Q1410.6 1084.66 1405.82 1092.14 L1400.73 1092.14 Q1404.96 1084.86 1407.03 1077.66 Q1409.13 1070.44 1409.13 1063.08 Q1409.13 1055.73 1407.03 1048.57 Q1404.96 1041.41 1400.73 1034.09 Z" fill="#000000" fill-rule="evenodd" fill-opacity="1" /><polyline clip-path="url(#clip540)" style="stroke:#000000; stroke-linecap:butt; stroke-linejoin:round; stroke-width:4; stroke-opacity:1; fill:none" points="
  318.014,938.686 318.014,531.738 
  "/>
<polyline clip-path="url(#clip540)" style="stroke:#000000; stroke-linecap:butt; stroke-linejoin:round; stroke-width:4; stroke-opacity:1; fill:none" points="
  318.014,905.84 336.912,905.84 
  "/>
<polyline clip-path="url(#clip540)" style="stroke:#000000; stroke-linecap:butt; stroke-linejoin:round; stroke-width:4; stroke-opacity:1; fill:none" points="
  318.014,820.526 336.912,820.526 
  "/>
<polyline clip-path="url(#clip540)" style="stroke:#000000; stroke-linecap:butt; stroke-linejoin:round; stroke-width:4; stroke-opacity:1; fill:none" points="
  318.014,735.212 336.912,735.212 
  "/>
<polyline clip-path="url(#clip540)" style="stroke:#000000; stroke-linecap:butt; stroke-linejoin:round; stroke-width:4; stroke-opacity:1; fill:none" points="
  318.014,649.898 336.912,649.898 
  "/>
<polyline clip-path="url(#clip540)" style="stroke:#000000; stroke-linecap:butt; stroke-linejoin:round; stroke-width:4; stroke-opacity:1; fill:none" points="
  318.014,564.584 336.912,564.584 
  "/>
<path clip-path="url(#clip540)" d="M114.26 906.292 L143.936 906.292 L143.936 910.227 L114.26 910.227 L114.26 906.292 Z" fill="#000000" fill-rule="evenodd" fill-opacity="1" /><path clip-path="url(#clip540)" d="M164.028 891.639 Q160.417 891.639 158.589 895.204 Q156.783 898.745 156.783 905.875 Q156.783 912.981 158.589 916.546 Q160.417 920.088 164.028 920.088 Q167.663 920.088 169.468 916.546 Q171.297 912.981 171.297 905.875 Q171.297 898.745 169.468 895.204 Q167.663 891.639 164.028 891.639 M164.028 887.935 Q169.839 887.935 172.894 892.542 Q175.973 897.125 175.973 905.875 Q175.973 914.602 172.894 919.208 Q169.839 923.792 164.028 923.792 Q158.218 923.792 155.14 919.208 Q152.084 914.602 152.084 905.875 Q152.084 897.125 155.14 892.542 Q158.218 887.935 164.028 887.935 Z" fill="#000000" fill-rule="evenodd" fill-opacity="1" /><path clip-path="url(#clip540)" d="M184.19 917.241 L189.075 917.241 L189.075 923.12 L184.19 923.12 L184.19 917.241 Z" fill="#000000" fill-rule="evenodd" fill-opacity="1" /><path clip-path="url(#clip540)" d="M209.26 891.639 Q205.649 891.639 203.82 895.204 Q202.014 898.745 202.014 905.875 Q202.014 912.981 203.82 916.546 Q205.649 920.088 209.26 920.088 Q212.894 920.088 214.699 916.546 Q216.528 912.981 216.528 905.875 Q216.528 898.745 214.699 895.204 Q212.894 891.639 209.26 891.639 M209.26 887.935 Q215.07 887.935 218.125 892.542 Q221.204 897.125 221.204 905.875 Q221.204 914.602 218.125 919.208 Q215.07 923.792 209.26 923.792 Q203.449 923.792 200.371 919.208 Q197.315 914.602 197.315 905.875 Q197.315 897.125 200.371 892.542 Q203.449 887.935 209.26 887.935 Z" fill="#000000" fill-rule="evenodd" fill-opacity="1" /><path clip-path="url(#clip540)" d="M239.422 891.639 Q235.81 891.639 233.982 895.204 Q232.176 898.745 232.176 905.875 Q232.176 912.981 233.982 916.546 Q235.81 920.088 239.422 920.088 Q243.056 920.088 244.861 916.546 Q246.69 912.981 246.69 905.875 Q246.69 898.745 244.861 895.204 Q243.056 891.639 239.422 891.639 M239.422 887.935 Q245.232 887.935 248.287 892.542 Q251.366 897.125 251.366 905.875 Q251.366 914.602 248.287 919.208 Q245.232 923.792 239.422 923.792 Q233.611 923.792 230.533 919.208 Q227.477 914.602 227.477 905.875 Q227.477 897.125 230.533 892.542 Q233.611 887.935 239.422 887.935 Z" fill="#000000" fill-rule="evenodd" fill-opacity="1" /><path clip-path="url(#clip540)" d="M272.431 892.634 L260.625 911.083 L272.431 911.083 L272.431 892.634 M271.204 888.56 L277.083 888.56 L277.083 911.083 L282.014 911.083 L282.014 914.972 L277.083 914.972 L277.083 923.12 L272.431 923.12 L272.431 914.972 L256.829 914.972 L256.829 910.458 L271.204 888.56 Z" fill="#000000" fill-rule="evenodd" fill-opacity="1" /><path clip-path="url(#clip540)" d="M116.343 820.977 L146.019 820.977 L146.019 824.913 L116.343 824.913 L116.343 820.977 Z" fill="#000000" fill-rule="evenodd" fill-opacity="1" /><path clip-path="url(#clip540)" d="M166.112 806.325 Q162.501 806.325 160.672 809.89 Q158.866 813.431 158.866 820.561 Q158.866 827.667 160.672 831.232 Q162.501 834.774 166.112 834.774 Q169.746 834.774 171.552 831.232 Q173.38 827.667 173.38 820.561 Q173.38 813.431 171.552 809.89 Q169.746 806.325 166.112 806.325 M166.112 802.621 Q171.922 802.621 174.977 807.228 Q178.056 811.811 178.056 820.561 Q178.056 829.288 174.977 833.894 Q171.922 838.477 166.112 838.477 Q160.302 838.477 157.223 833.894 Q154.167 829.288 154.167 820.561 Q154.167 811.811 157.223 807.228 Q160.302 802.621 166.112 802.621 Z" fill="#000000" fill-rule="evenodd" fill-opacity="1" /><path clip-path="url(#clip540)" d="M186.274 831.927 L191.158 831.927 L191.158 837.806 L186.274 837.806 L186.274 831.927 Z" fill="#000000" fill-rule="evenodd" fill-opacity="1" /><path clip-path="url(#clip540)" d="M211.343 806.325 Q207.732 806.325 205.903 809.89 Q204.098 813.431 204.098 820.561 Q204.098 827.667 205.903 831.232 Q207.732 834.774 211.343 834.774 Q214.977 834.774 216.783 831.232 Q218.611 827.667 218.611 820.561 Q218.611 813.431 216.783 809.89 Q214.977 806.325 211.343 806.325 M211.343 802.621 Q217.153 802.621 220.209 807.228 Q223.287 811.811 223.287 820.561 Q223.287 829.288 220.209 833.894 Q217.153 838.477 211.343 838.477 Q205.533 838.477 202.454 833.894 Q199.399 829.288 199.399 820.561 Q199.399 811.811 202.454 807.228 Q205.533 802.621 211.343 802.621 Z" fill="#000000" fill-rule="evenodd" fill-opacity="1" /><path clip-path="url(#clip540)" d="M241.505 806.325 Q237.894 806.325 236.065 809.89 Q234.26 813.431 234.26 820.561 Q234.26 827.667 236.065 831.232 Q237.894 834.774 241.505 834.774 Q245.139 834.774 246.945 831.232 Q248.773 827.667 248.773 820.561 Q248.773 813.431 246.945 809.89 Q245.139 806.325 241.505 806.325 M241.505 802.621 Q247.315 802.621 250.371 807.228 Q253.449 811.811 253.449 820.561 Q253.449 829.288 250.371 833.894 Q247.315 838.477 241.505 838.477 Q235.695 838.477 232.616 833.894 Q229.56 829.288 229.56 820.561 Q229.56 811.811 232.616 807.228 Q235.695 802.621 241.505 802.621 Z" fill="#000000" fill-rule="evenodd" fill-opacity="1" /><path clip-path="url(#clip540)" d="M265.695 833.871 L282.014 833.871 L282.014 837.806 L260.07 837.806 L260.07 833.871 Q262.732 831.116 267.315 826.487 Q271.921 821.834 273.102 820.491 Q275.347 817.968 276.227 816.232 Q277.13 814.473 277.13 812.783 Q277.13 810.028 275.185 808.292 Q273.264 806.556 270.162 806.556 Q267.963 806.556 265.509 807.32 Q263.079 808.084 260.301 809.635 L260.301 804.913 Q263.125 803.779 265.579 803.2 Q268.032 802.621 270.07 802.621 Q275.44 802.621 278.634 805.306 Q281.829 807.991 281.829 812.482 Q281.829 814.612 281.019 816.533 Q280.231 818.431 278.125 821.024 Q277.546 821.695 274.444 824.913 Q271.343 828.107 265.695 833.871 Z" fill="#000000" fill-rule="evenodd" fill-opacity="1" /><path clip-path="url(#clip540)" d="M164.515 721.011 Q160.903 721.011 159.075 724.575 Q157.269 728.117 157.269 735.247 Q157.269 742.353 159.075 745.918 Q160.903 749.46 164.515 749.46 Q168.149 749.46 169.954 745.918 Q171.783 742.353 171.783 735.247 Q171.783 728.117 169.954 724.575 Q168.149 721.011 164.515 721.011 M164.515 717.307 Q170.325 717.307 173.38 721.913 Q176.459 726.497 176.459 735.247 Q176.459 743.973 173.38 748.58 Q170.325 753.163 164.515 753.163 Q158.704 753.163 155.626 748.58 Q152.57 743.973 152.57 735.247 Q152.57 726.497 155.626 721.913 Q158.704 717.307 164.515 717.307 Z" fill="#000000" fill-rule="evenodd" fill-opacity="1" /><path clip-path="url(#clip540)" d="M184.676 746.612 L189.561 746.612 L189.561 752.492 L184.676 752.492 L184.676 746.612 Z" fill="#000000" fill-rule="evenodd" fill-opacity="1" /><path clip-path="url(#clip540)" d="M209.746 721.011 Q206.135 721.011 204.306 724.575 Q202.5 728.117 202.5 735.247 Q202.5 742.353 204.306 745.918 Q206.135 749.46 209.746 749.46 Q213.38 749.46 215.186 745.918 Q217.014 742.353 217.014 735.247 Q217.014 728.117 215.186 724.575 Q213.38 721.011 209.746 721.011 M209.746 717.307 Q215.556 717.307 218.611 721.913 Q221.69 726.497 221.69 735.247 Q221.69 743.973 218.611 748.58 Q215.556 753.163 209.746 753.163 Q203.936 753.163 200.857 748.58 Q197.801 743.973 197.801 735.247 Q197.801 726.497 200.857 721.913 Q203.936 717.307 209.746 717.307 Z" fill="#000000" fill-rule="evenodd" fill-opacity="1" /><path clip-path="url(#clip540)" d="M239.908 721.011 Q236.297 721.011 234.468 724.575 Q232.662 728.117 232.662 735.247 Q232.662 742.353 234.468 745.918 Q236.297 749.46 239.908 749.46 Q243.542 749.46 245.347 745.918 Q247.176 742.353 247.176 735.247 Q247.176 728.117 245.347 724.575 Q243.542 721.011 239.908 721.011 M239.908 717.307 Q245.718 717.307 248.773 721.913 Q251.852 726.497 251.852 735.247 Q251.852 743.973 248.773 748.58 Q245.718 753.163 239.908 753.163 Q234.097 753.163 231.019 748.58 Q227.963 743.973 227.963 735.247 Q227.963 726.497 231.019 721.913 Q234.097 717.307 239.908 717.307 Z" fill="#000000" fill-rule="evenodd" fill-opacity="1" /><path clip-path="url(#clip540)" d="M270.07 721.011 Q266.458 721.011 264.63 724.575 Q262.824 728.117 262.824 735.247 Q262.824 742.353 264.63 745.918 Q266.458 749.46 270.07 749.46 Q273.704 749.46 275.509 745.918 Q277.338 742.353 277.338 735.247 Q277.338 728.117 275.509 724.575 Q273.704 721.011 270.07 721.011 M270.07 717.307 Q275.88 717.307 278.935 721.913 Q282.014 726.497 282.014 735.247 Q282.014 743.973 278.935 748.58 Q275.88 753.163 270.07 753.163 Q264.259 753.163 261.181 748.58 Q258.125 743.973 258.125 735.247 Q258.125 726.497 261.181 721.913 Q264.259 717.307 270.07 717.307 Z" fill="#000000" fill-rule="evenodd" fill-opacity="1" /><path clip-path="url(#clip540)" d="M166.112 635.697 Q162.501 635.697 160.672 639.261 Q158.866 642.803 158.866 649.933 Q158.866 657.039 160.672 660.604 Q162.501 664.145 166.112 664.145 Q169.746 664.145 171.552 660.604 Q173.38 657.039 173.38 649.933 Q173.38 642.803 171.552 639.261 Q169.746 635.697 166.112 635.697 M166.112 631.993 Q171.922 631.993 174.977 636.599 Q178.056 641.183 178.056 649.933 Q178.056 658.659 174.977 663.266 Q171.922 667.849 166.112 667.849 Q160.302 667.849 157.223 663.266 Q154.167 658.659 154.167 649.933 Q154.167 641.183 157.223 636.599 Q160.302 631.993 166.112 631.993 Z" fill="#000000" fill-rule="evenodd" fill-opacity="1" /><path clip-path="url(#clip540)" d="M186.274 661.298 L191.158 661.298 L191.158 667.178 L186.274 667.178 L186.274 661.298 Z" fill="#000000" fill-rule="evenodd" fill-opacity="1" /><path clip-path="url(#clip540)" d="M211.343 635.697 Q207.732 635.697 205.903 639.261 Q204.098 642.803 204.098 649.933 Q204.098 657.039 205.903 660.604 Q207.732 664.145 211.343 664.145 Q214.977 664.145 216.783 660.604 Q218.611 657.039 218.611 649.933 Q218.611 642.803 216.783 639.261 Q214.977 635.697 211.343 635.697 M211.343 631.993 Q217.153 631.993 220.209 636.599 Q223.287 641.183 223.287 649.933 Q223.287 658.659 220.209 663.266 Q217.153 667.849 211.343 667.849 Q205.533 667.849 202.454 663.266 Q199.399 658.659 199.399 649.933 Q199.399 641.183 202.454 636.599 Q205.533 631.993 211.343 631.993 Z" fill="#000000" fill-rule="evenodd" fill-opacity="1" /><path clip-path="url(#clip540)" d="M241.505 635.697 Q237.894 635.697 236.065 639.261 Q234.26 642.803 234.26 649.933 Q234.26 657.039 236.065 660.604 Q237.894 664.145 241.505 664.145 Q245.139 664.145 246.945 660.604 Q248.773 657.039 248.773 649.933 Q248.773 642.803 246.945 639.261 Q245.139 635.697 241.505 635.697 M241.505 631.993 Q247.315 631.993 250.371 636.599 Q253.449 641.183 253.449 649.933 Q253.449 658.659 250.371 663.266 Q247.315 667.849 241.505 667.849 Q235.695 667.849 232.616 663.266 Q229.56 658.659 229.56 649.933 Q229.56 641.183 232.616 636.599 Q235.695 631.993 241.505 631.993 Z" fill="#000000" fill-rule="evenodd" fill-opacity="1" /><path clip-path="url(#clip540)" d="M265.695 663.243 L282.014 663.243 L282.014 667.178 L260.07 667.178 L260.07 663.243 Q262.732 660.488 267.315 655.858 Q271.921 651.206 273.102 649.863 Q275.347 647.34 276.227 645.604 Q277.13 643.845 277.13 642.155 Q277.13 639.4 275.185 637.664 Q273.264 635.928 270.162 635.928 Q267.963 635.928 265.509 636.692 Q263.079 637.456 260.301 639.007 L260.301 634.284 Q263.125 633.15 265.579 632.572 Q268.032 631.993 270.07 631.993 Q275.44 631.993 278.634 634.678 Q281.829 637.363 281.829 641.854 Q281.829 643.984 281.019 645.905 Q280.231 647.803 278.125 650.396 Q277.546 651.067 274.444 654.284 Q271.343 657.479 265.695 663.243 Z" fill="#000000" fill-rule="evenodd" fill-opacity="1" /><path clip-path="url(#clip540)" d="M164.028 550.382 Q160.417 550.382 158.589 553.947 Q156.783 557.489 156.783 564.618 Q156.783 571.725 158.589 575.29 Q160.417 578.831 164.028 578.831 Q167.663 578.831 169.468 575.29 Q171.297 571.725 171.297 564.618 Q171.297 557.489 169.468 553.947 Q167.663 550.382 164.028 550.382 M164.028 546.679 Q169.839 546.679 172.894 551.285 Q175.973 555.868 175.973 564.618 Q175.973 573.345 172.894 577.952 Q169.839 582.535 164.028 582.535 Q158.218 582.535 155.14 577.952 Q152.084 573.345 152.084 564.618 Q152.084 555.868 155.14 551.285 Q158.218 546.679 164.028 546.679 Z" fill="#000000" fill-rule="evenodd" fill-opacity="1" /><path clip-path="url(#clip540)" d="M184.19 575.984 L189.075 575.984 L189.075 581.864 L184.19 581.864 L184.19 575.984 Z" fill="#000000" fill-rule="evenodd" fill-opacity="1" /><path clip-path="url(#clip540)" d="M209.26 550.382 Q205.649 550.382 203.82 553.947 Q202.014 557.489 202.014 564.618 Q202.014 571.725 203.82 575.29 Q205.649 578.831 209.26 578.831 Q212.894 578.831 214.699 575.29 Q216.528 571.725 216.528 564.618 Q216.528 557.489 214.699 553.947 Q212.894 550.382 209.26 550.382 M209.26 546.679 Q215.07 546.679 218.125 551.285 Q221.204 555.868 221.204 564.618 Q221.204 573.345 218.125 577.952 Q215.07 582.535 209.26 582.535 Q203.449 582.535 200.371 577.952 Q197.315 573.345 197.315 564.618 Q197.315 555.868 200.371 551.285 Q203.449 546.679 209.26 546.679 Z" fill="#000000" fill-rule="evenodd" fill-opacity="1" /><path clip-path="url(#clip540)" d="M239.422 550.382 Q235.81 550.382 233.982 553.947 Q232.176 557.489 232.176 564.618 Q232.176 571.725 233.982 575.29 Q235.81 578.831 239.422 578.831 Q243.056 578.831 244.861 575.29 Q246.69 571.725 246.69 564.618 Q246.69 557.489 244.861 553.947 Q243.056 550.382 239.422 550.382 M239.422 546.679 Q245.232 546.679 248.287 551.285 Q251.366 555.868 251.366 564.618 Q251.366 573.345 248.287 577.952 Q245.232 582.535 239.422 582.535 Q233.611 582.535 230.533 577.952 Q227.477 573.345 227.477 564.618 Q227.477 555.868 230.533 551.285 Q233.611 546.679 239.422 546.679 Z" fill="#000000" fill-rule="evenodd" fill-opacity="1" /><path clip-path="url(#clip540)" d="M272.431 551.378 L260.625 569.827 L272.431 569.827 L272.431 551.378 M271.204 547.304 L277.083 547.304 L277.083 569.827 L282.014 569.827 L282.014 573.716 L277.083 573.716 L277.083 581.864 L272.431 581.864 L272.431 573.716 L256.829 573.716 L256.829 569.202 L271.204 547.304 Z" fill="#000000" fill-rule="evenodd" fill-opacity="1" /><path clip-path="url(#clip540)" d="M16.4842 815.293 L16.4842 808.863 L64.0042 808.863 L64.0042 815.293 L16.4842 815.293 Z" fill="#000000" fill-rule="evenodd" fill-opacity="1" /><path clip-path="url(#clip540)" d="M35.1993 768.568 Q31.2526 766.372 29.3747 763.317 Q27.4968 760.261 27.4968 756.123 Q27.4968 750.553 31.4117 747.53 Q35.2948 744.506 42.4881 744.506 L64.0042 744.506 L64.0042 750.394 L42.679 750.394 Q37.5546 750.394 35.072 752.208 Q32.5894 754.023 32.5894 757.747 Q32.5894 762.298 35.6131 764.94 Q38.6368 767.582 43.8567 767.582 L64.0042 767.582 L64.0042 773.47 L42.679 773.47 Q37.5228 773.47 35.072 775.284 Q32.5894 777.098 32.5894 780.886 Q32.5894 785.374 35.6449 788.016 Q38.6686 790.657 43.8567 790.657 L64.0042 790.657 L64.0042 796.546 L28.3562 796.546 L28.3562 790.657 L33.8944 790.657 Q30.616 788.652 29.0564 785.851 Q27.4968 783.05 27.4968 779.199 Q27.4968 775.316 29.4702 772.61 Q31.4436 769.873 35.1993 768.568 Z" fill="#000000" fill-rule="evenodd" fill-opacity="1" /><path clip-path="url(#clip540)" d="M14.5426 718.757 Q21.8632 723.022 29.0246 725.09 Q36.186 727.159 43.5384 727.159 Q50.8908 727.159 58.1159 725.09 Q65.3091 722.99 72.5979 718.757 L72.5979 723.849 Q65.1182 728.623 57.8931 731.011 Q50.668 733.366 43.5384 733.366 Q36.4406 733.366 29.2474 731.011 Q22.0542 728.655 14.5426 723.849 L14.5426 718.757 Z" fill="#000000" fill-rule="evenodd" fill-opacity="1" /><path clip-path="url(#clip540)" d="M28.3562 677.761 L45.7028 690.652 L64.0042 677.093 L64.0042 684 L49.9996 694.376 L64.0042 704.752 L64.0042 711.659 L45.3526 697.813 L28.3562 710.481 L28.3562 703.574 L41.0558 694.121 L28.3562 684.668 L28.3562 677.761 Z" fill="#000000" fill-rule="evenodd" fill-opacity="1" /><path clip-path="url(#clip540)" d="M14.5426 669.741 L14.5426 664.648 Q22.0542 659.874 29.2474 657.519 Q36.4406 655.131 43.5384 655.131 Q50.668 655.131 57.8931 657.519 Q65.1182 659.874 72.5979 664.648 L72.5979 669.741 Q65.3091 665.507 58.1159 663.439 Q50.8908 661.338 43.5384 661.338 Q36.186 661.338 29.0246 663.439 Q21.8632 665.507 14.5426 669.741 Z" fill="#000000" fill-rule="evenodd" fill-opacity="1" /><circle clip-path="url(#clip542)" cx="1660.65" cy="735.212" r="14" fill="#ffb90f" fill-rule="evenodd" fill-opacity="0.4" stroke="#000000" stroke-opacity="0.4" stroke-width="3.2"/>
<circle clip-path="url(#clip542)" cx="1681.41" cy="763.486" r="14" fill="#ffb90f" fill-rule="evenodd" fill-opacity="0.4" stroke="#000000" stroke-opacity="0.4" stroke-width="3.2"/>
<circle clip-path="url(#clip542)" cx="1681.41" cy="706.938" r="14" fill="#ffb90f" fill-rule="evenodd" fill-opacity="0.4" stroke="#000000" stroke-opacity="0.4" stroke-width="3.2"/>
<circle clip-path="url(#clip542)" cx="1699.68" cy="787.227" r="14" fill="#ffb90f" fill-rule="evenodd" fill-opacity="0.4" stroke="#000000" stroke-opacity="0.4" stroke-width="3.2"/>
<circle clip-path="url(#clip542)" cx="1699.68" cy="683.197" r="14" fill="#ffb90f" fill-rule="evenodd" fill-opacity="0.4" stroke="#000000" stroke-opacity="0.4" stroke-width="3.2"/>
<circle clip-path="url(#clip542)" cx="1724.48" cy="842.82" r="14" fill="#ffb90f" fill-rule="evenodd" fill-opacity="0.4" stroke="#000000" stroke-opacity="0.4" stroke-width="3.2"/>
<circle clip-path="url(#clip542)" cx="1724.48" cy="627.604" r="14" fill="#ffb90f" fill-rule="evenodd" fill-opacity="0.4" stroke="#000000" stroke-opacity="0.4" stroke-width="3.2"/>
<circle clip-path="url(#clip542)" cx="1734.2" cy="735.212" r="14" fill="#ffb90f" fill-rule="evenodd" fill-opacity="0.4" stroke="#000000" stroke-opacity="0.4" stroke-width="3.2"/>
<circle clip-path="url(#clip542)" cx="1743.83" cy="735.212" r="14" fill="#ffb90f" fill-rule="evenodd" fill-opacity="0.4" stroke="#000000" stroke-opacity="0.4" stroke-width="3.2"/>
<circle clip-path="url(#clip542)" cx="1752.86" cy="828.978" r="14" fill="#ffb90f" fill-rule="evenodd" fill-opacity="0.4" stroke="#000000" stroke-opacity="0.4" stroke-width="3.2"/>
<circle clip-path="url(#clip542)" cx="1752.86" cy="641.446" r="14" fill="#ffb90f" fill-rule="evenodd" fill-opacity="0.4" stroke="#000000" stroke-opacity="0.4" stroke-width="3.2"/>
<circle clip-path="url(#clip542)" cx="1762.68" cy="735.212" r="14" fill="#ffb90f" fill-rule="evenodd" fill-opacity="0.4" stroke="#000000" stroke-opacity="0.4" stroke-width="3.2"/>
<circle clip-path="url(#clip542)" cx="1778.41" cy="821.276" r="14" fill="#ffb90f" fill-rule="evenodd" fill-opacity="0.4" stroke="#000000" stroke-opacity="0.4" stroke-width="3.2"/>
<circle clip-path="url(#clip542)" cx="1778.41" cy="649.148" r="14" fill="#ffb90f" fill-rule="evenodd" fill-opacity="0.4" stroke="#000000" stroke-opacity="0.4" stroke-width="3.2"/>
<circle clip-path="url(#clip542)" cx="1787.18" cy="735.212" r="14" fill="#ffb90f" fill-rule="evenodd" fill-opacity="0.4" stroke="#000000" stroke-opacity="0.4" stroke-width="3.2"/>
<circle clip-path="url(#clip542)" cx="1797.93" cy="869.589" r="14" fill="#ffb90f" fill-rule="evenodd" fill-opacity="0.4" stroke="#000000" stroke-opacity="0.4" stroke-width="3.2"/>
<circle clip-path="url(#clip542)" cx="1797.93" cy="600.834" r="14" fill="#ffb90f" fill-rule="evenodd" fill-opacity="0.4" stroke="#000000" stroke-opacity="0.4" stroke-width="3.2"/>
<circle clip-path="url(#clip542)" cx="1798.51" cy="755.135" r="14" fill="#ffb90f" fill-rule="evenodd" fill-opacity="0.4" stroke="#000000" stroke-opacity="0.4" stroke-width="3.2"/>
<circle clip-path="url(#clip542)" cx="1798.51" cy="715.289" r="14" fill="#ffb90f" fill-rule="evenodd" fill-opacity="0.4" stroke="#000000" stroke-opacity="0.4" stroke-width="3.2"/>
<circle clip-path="url(#clip542)" cx="1819.71" cy="805.812" r="14" fill="#ffb90f" fill-rule="evenodd" fill-opacity="0.4" stroke="#000000" stroke-opacity="0.4" stroke-width="3.2"/>
<circle clip-path="url(#clip542)" cx="1819.71" cy="664.612" r="14" fill="#ffb90f" fill-rule="evenodd" fill-opacity="0.4" stroke="#000000" stroke-opacity="0.4" stroke-width="3.2"/>
<circle clip-path="url(#clip542)" cx="1825.46" cy="834.983" r="14" fill="#ffb90f" fill-rule="evenodd" fill-opacity="0.4" stroke="#000000" stroke-opacity="0.4" stroke-width="3.2"/>
<circle clip-path="url(#clip542)" cx="1825.46" cy="635.441" r="14" fill="#ffb90f" fill-rule="evenodd" fill-opacity="0.4" stroke="#000000" stroke-opacity="0.4" stroke-width="3.2"/>
<circle clip-path="url(#clip542)" cx="1826.1" cy="882.398" r="14" fill="#ffb90f" fill-rule="evenodd" fill-opacity="0.4" stroke="#000000" stroke-opacity="0.4" stroke-width="3.2"/>
<circle clip-path="url(#clip542)" cx="1826.1" cy="588.026" r="14" fill="#ffb90f" fill-rule="evenodd" fill-opacity="0.4" stroke="#000000" stroke-opacity="0.4" stroke-width="3.2"/>
<circle clip-path="url(#clip542)" cx="1842.53" cy="735.212" r="14" fill="#ffb90f" fill-rule="evenodd" fill-opacity="0.4" stroke="#000000" stroke-opacity="0.4" stroke-width="3.2"/>
<circle clip-path="url(#clip542)" cx="1843.61" cy="762.512" r="14" fill="#ffb90f" fill-rule="evenodd" fill-opacity="0.4" stroke="#000000" stroke-opacity="0.4" stroke-width="3.2"/>
<circle clip-path="url(#clip542)" cx="1843.61" cy="707.912" r="14" fill="#ffb90f" fill-rule="evenodd" fill-opacity="0.4" stroke="#000000" stroke-opacity="0.4" stroke-width="3.2"/>
<circle clip-path="url(#clip542)" cx="1880.02" cy="891.985" r="14" fill="#ffb90f" fill-rule="evenodd" fill-opacity="0.4" stroke="#000000" stroke-opacity="0.4" stroke-width="3.2"/>
<circle clip-path="url(#clip542)" cx="1880.02" cy="578.439" r="14" fill="#ffb90f" fill-rule="evenodd" fill-opacity="0.4" stroke="#000000" stroke-opacity="0.4" stroke-width="3.2"/>
<circle clip-path="url(#clip542)" cx="1882.21" cy="813.086" r="14" fill="#ffb90f" fill-rule="evenodd" fill-opacity="0.4" stroke="#000000" stroke-opacity="0.4" stroke-width="3.2"/>
<circle clip-path="url(#clip542)" cx="1882.21" cy="657.338" r="14" fill="#ffb90f" fill-rule="evenodd" fill-opacity="0.4" stroke="#000000" stroke-opacity="0.4" stroke-width="3.2"/>
<circle clip-path="url(#clip542)" cx="1895.95" cy="841.178" r="14" fill="#ffb90f" fill-rule="evenodd" fill-opacity="0.4" stroke="#000000" stroke-opacity="0.4" stroke-width="3.2"/>
<circle clip-path="url(#clip542)" cx="1895.95" cy="629.246" r="14" fill="#ffb90f" fill-rule="evenodd" fill-opacity="0.4" stroke="#000000" stroke-opacity="0.4" stroke-width="3.2"/>
<circle clip-path="url(#clip542)" cx="1912.07" cy="754.24" r="14" fill="#ffb90f" fill-rule="evenodd" fill-opacity="0.4" stroke="#000000" stroke-opacity="0.4" stroke-width="3.2"/>
<circle clip-path="url(#clip542)" cx="1912.07" cy="716.184" r="14" fill="#ffb90f" fill-rule="evenodd" fill-opacity="0.4" stroke="#000000" stroke-opacity="0.4" stroke-width="3.2"/>
<circle clip-path="url(#clip542)" cx="1922.36" cy="856.728" r="14" fill="#ffb90f" fill-rule="evenodd" fill-opacity="0.4" stroke="#000000" stroke-opacity="0.4" stroke-width="3.2"/>
<circle clip-path="url(#clip542)" cx="1922.36" cy="613.696" r="14" fill="#ffb90f" fill-rule="evenodd" fill-opacity="0.4" stroke="#000000" stroke-opacity="0.4" stroke-width="3.2"/>
<circle clip-path="url(#clip542)" cx="1941.54" cy="781.07" r="14" fill="#ffb90f" fill-rule="evenodd" fill-opacity="0.4" stroke="#000000" stroke-opacity="0.4" stroke-width="3.2"/>
<circle clip-path="url(#clip542)" cx="1941.54" cy="689.354" r="14" fill="#ffb90f" fill-rule="evenodd" fill-opacity="0.4" stroke="#000000" stroke-opacity="0.4" stroke-width="3.2"/>
<circle clip-path="url(#clip542)" cx="1944.84" cy="735.212" r="14" fill="#ffb90f" fill-rule="evenodd" fill-opacity="0.4" stroke="#000000" stroke-opacity="0.4" stroke-width="3.2"/>
<circle clip-path="url(#clip542)" cx="1958.62" cy="830.228" r="14" fill="#ffb90f" fill-rule="evenodd" fill-opacity="0.4" stroke="#000000" stroke-opacity="0.4" stroke-width="3.2"/>
<circle clip-path="url(#clip542)" cx="1958.62" cy="640.195" r="14" fill="#ffb90f" fill-rule="evenodd" fill-opacity="0.4" stroke="#000000" stroke-opacity="0.4" stroke-width="3.2"/>
<circle clip-path="url(#clip542)" cx="1966.93" cy="781.803" r="14" fill="#ffb90f" fill-rule="evenodd" fill-opacity="0.4" stroke="#000000" stroke-opacity="0.4" stroke-width="3.2"/>
<circle clip-path="url(#clip542)" cx="1966.93" cy="688.621" r="14" fill="#ffb90f" fill-rule="evenodd" fill-opacity="0.4" stroke="#000000" stroke-opacity="0.4" stroke-width="3.2"/>
<circle clip-path="url(#clip542)" cx="1986.72" cy="735.212" r="14" fill="#ffb90f" fill-rule="evenodd" fill-opacity="0.4" stroke="#000000" stroke-opacity="0.4" stroke-width="3.2"/>
<circle clip-path="url(#clip542)" cx="2009.43" cy="735.212" r="14" fill="#ffb90f" fill-rule="evenodd" fill-opacity="0.4" stroke="#000000" stroke-opacity="0.4" stroke-width="3.2"/>
<circle clip-path="url(#clip542)" cx="2022.89" cy="779.577" r="14" fill="#ffb90f" fill-rule="evenodd" fill-opacity="0.4" stroke="#000000" stroke-opacity="0.4" stroke-width="3.2"/>
<circle clip-path="url(#clip542)" cx="2022.89" cy="690.847" r="14" fill="#ffb90f" fill-rule="evenodd" fill-opacity="0.4" stroke="#000000" stroke-opacity="0.4" stroke-width="3.2"/>
<polyline clip-path="url(#clip542)" style="stroke:#000003; stroke-linecap:butt; stroke-linejoin:round; stroke-width:8; stroke-opacity:1; fill:none" points="
  1656.93,782.244 1657.08,782.56 1658.3,785.728 1659.8,789.212 1661.46,792.696 1663.3,796.179 1665.31,799.663 1667.51,803.147 1669.89,806.631 1671.56,808.926 
  1672.32,810.115 1674.65,813.599 1677.2,817.083 1679.98,820.566 1682.98,824.05 1686.05,827.361 1686.2,827.534 1689.26,831.018 1692.58,834.502 1696.18,837.986 
  1700.06,841.47 1700.53,841.884 1703.91,844.953 1708.04,848.437 1712.51,851.921 1715.02,853.784 1717.2,855.405 1722.13,858.889 1727.47,862.373 1729.5,863.653 
  1733.16,865.857 1739.29,869.34 1743.99,871.852 1745.97,872.824 1753.32,876.308 1758.47,878.614 1761.49,879.792 1770.75,883.276 1772.96,884.084 1781.85,886.76 
  1787.44,888.394 1795.76,890.243 1801.93,891.606 1816.15,893.727 1816.41,893.768 1830.9,894.991 1845.39,895.237 1859.87,894.536 1866.99,893.727 1874.36,892.91 
  1888.84,890.327 1889.19,890.243 1903.33,886.801 1903.46,886.76 1914.75,883.276 1917.81,882.303 1924.53,879.792 1932.3,876.737 1933.27,876.308 1941.03,872.824 
  1946.78,870.075 1948.21,869.34 1954.81,865.857 1960.95,862.373 1961.27,862.189 1966.76,858.889 1972.17,855.405 1975.75,852.975 1977.28,851.921 1982.2,848.437 
  1986.78,844.953 1990.24,842.16 1991.1,841.47 1995.38,837.986 1999.35,834.502 2003.05,831.018 2004.72,829.366 2006.66,827.534 2010.2,824.05 2013.48,820.566 
  2016.5,817.083 2019.21,813.69 2019.29,813.599 2022.27,810.115 2025.02,806.631 2027.54,803.147 2029.84,799.663 2031.92,796.179 2033.69,792.882 2033.81,792.696 
  2035.96,789.212 2037.92,785.728 2039.69,782.244 2041.28,778.76 2042.7,775.276 2043.95,771.792 2045.05,768.309 2046,764.825 2046.82,761.341 2047.5,757.857 
  2048.07,754.373 2048.18,753.568 2048.7,750.889 2049.24,747.405 2049.64,743.922 2049.9,740.438 2050.04,736.954 2050.04,733.47 2049.9,729.986 2049.64,726.502 
  2049.24,723.018 2048.7,719.535 2048.18,716.856 2048.07,716.051 2047.5,712.567 2046.82,709.083 2046,705.599 2045.05,702.115 2043.95,698.631 2042.7,695.148 
  2041.28,691.664 2039.69,688.18 2037.92,684.696 2035.96,681.212 2033.81,677.728 2033.69,677.541 2031.92,674.245 2029.84,670.761 2027.54,667.277 2025.02,663.793 
  2022.27,660.309 2019.29,656.825 2019.21,656.734 2016.5,653.341 2013.48,649.858 2010.2,646.374 2006.66,642.89 2004.72,641.058 2003.05,639.406 1999.35,635.922 
  1995.38,632.438 1991.1,628.954 1990.24,628.264 1986.78,625.471 1982.2,621.987 1977.28,618.503 1975.75,617.449 1972.17,615.019 1966.76,611.535 1961.27,608.235 
  1960.95,608.051 1954.81,604.567 1948.21,601.084 1946.78,600.349 1941.03,597.6 1933.27,594.116 1932.3,593.687 1924.53,590.632 1917.81,588.121 1914.75,587.148 
  1903.46,583.664 1903.33,583.623 1889.19,580.18 1888.84,580.097 1874.36,577.514 1866.99,576.697 1859.87,575.888 1845.39,575.187 1830.9,575.433 1816.41,576.656 
  1816.15,576.697 1801.93,578.817 1795.76,580.18 1787.44,582.03 1781.85,583.664 1772.96,586.34 1770.75,587.148 1761.49,590.632 1758.47,591.81 1753.32,594.116 
  1745.97,597.6 1743.99,598.572 1739.29,601.084 1733.16,604.567 1729.5,606.771 1727.47,608.051 1722.13,611.535 1717.2,615.019 1715.02,616.64 1712.51,618.503 
  1708.04,621.987 1703.91,625.471 1700.53,628.54 1700.06,628.954 1696.18,632.438 1692.58,635.922 1689.26,639.406 1686.2,642.89 1686.05,643.063 1682.98,646.374 
  1679.98,649.858 1677.2,653.341 1674.65,656.825 1672.32,660.309 1671.56,661.497 1669.89,663.793 1667.51,667.277 1665.31,670.761 1663.3,674.245 1661.46,677.728 
  1659.8,681.212 1658.3,684.696 1657.08,687.864 1656.93,688.18 1655.33,691.664 1653.89,695.148 1652.6,698.631 1651.45,702.115 1650.43,705.599 1649.54,709.083 
  1648.78,712.567 1648.13,716.051 1647.61,719.535 1647.19,723.018 1646.88,726.502 1646.68,729.986 1646.58,733.47 1646.58,736.954 1646.68,740.438 1646.88,743.922 
  1647.19,747.405 1647.61,750.889 1648.13,754.373 1648.78,757.857 1649.54,761.341 1650.43,764.825 1651.45,768.309 1652.6,771.792 1653.89,775.276 1655.33,778.76 
  1656.93,782.244 
  "/>
<circle clip-path="url(#clip542)" cx="1045.79" cy="746.573" r="14" fill="#ffb90f" fill-rule="evenodd" fill-opacity="0.4" stroke="#000000" stroke-opacity="0.4" stroke-width="3.2"/>
<circle clip-path="url(#clip542)" cx="1045.79" cy="723.851" r="14" fill="#ffb90f" fill-rule="evenodd" fill-opacity="0.4" stroke="#000000" stroke-opacity="0.4" stroke-width="3.2"/>
<circle clip-path="url(#clip542)" cx="1065.06" cy="780.987" r="14" fill="#ffb90f" fill-rule="evenodd" fill-opacity="0.4" stroke="#000000" stroke-opacity="0.4" stroke-width="3.2"/>
<circle clip-path="url(#clip542)" cx="1065.06" cy="689.437" r="14" fill="#ffb90f" fill-rule="evenodd" fill-opacity="0.4" stroke="#000000" stroke-opacity="0.4" stroke-width="3.2"/>
<circle clip-path="url(#clip542)" cx="1089.29" cy="735.212" r="14" fill="#ffb90f" fill-rule="evenodd" fill-opacity="0.4" stroke="#000000" stroke-opacity="0.4" stroke-width="3.2"/>
<circle clip-path="url(#clip542)" cx="1092.65" cy="764.866" r="14" fill="#ffb90f" fill-rule="evenodd" fill-opacity="0.4" stroke="#000000" stroke-opacity="0.4" stroke-width="3.2"/>
<circle clip-path="url(#clip542)" cx="1092.65" cy="705.558" r="14" fill="#ffb90f" fill-rule="evenodd" fill-opacity="0.4" stroke="#000000" stroke-opacity="0.4" stroke-width="3.2"/>
<circle clip-path="url(#clip542)" cx="1093.99" cy="789.816" r="14" fill="#ffb90f" fill-rule="evenodd" fill-opacity="0.4" stroke="#000000" stroke-opacity="0.4" stroke-width="3.2"/>
<circle clip-path="url(#clip542)" cx="1093.99" cy="680.608" r="14" fill="#ffb90f" fill-rule="evenodd" fill-opacity="0.4" stroke="#000000" stroke-opacity="0.4" stroke-width="3.2"/>
<circle clip-path="url(#clip542)" cx="1098.57" cy="812.15" r="14" fill="#ffb90f" fill-rule="evenodd" fill-opacity="0.4" stroke="#000000" stroke-opacity="0.4" stroke-width="3.2"/>
<circle clip-path="url(#clip542)" cx="1098.57" cy="658.274" r="14" fill="#ffb90f" fill-rule="evenodd" fill-opacity="0.4" stroke="#000000" stroke-opacity="0.4" stroke-width="3.2"/>
<circle clip-path="url(#clip542)" cx="1108.04" cy="778.095" r="14" fill="#ffb90f" fill-rule="evenodd" fill-opacity="0.4" stroke="#000000" stroke-opacity="0.4" stroke-width="3.2"/>
<circle clip-path="url(#clip542)" cx="1108.04" cy="692.329" r="14" fill="#ffb90f" fill-rule="evenodd" fill-opacity="0.4" stroke="#000000" stroke-opacity="0.4" stroke-width="3.2"/>
<circle clip-path="url(#clip542)" cx="1124.87" cy="834.662" r="14" fill="#ffb90f" fill-rule="evenodd" fill-opacity="0.4" stroke="#000000" stroke-opacity="0.4" stroke-width="3.2"/>
<circle clip-path="url(#clip542)" cx="1124.87" cy="635.762" r="14" fill="#ffb90f" fill-rule="evenodd" fill-opacity="0.4" stroke="#000000" stroke-opacity="0.4" stroke-width="3.2"/>
<circle clip-path="url(#clip542)" cx="1134.92" cy="735.212" r="14" fill="#ffb90f" fill-rule="evenodd" fill-opacity="0.4" stroke="#000000" stroke-opacity="0.4" stroke-width="3.2"/>
<circle clip-path="url(#clip542)" cx="1137.22" cy="824.155" r="14" fill="#ffb90f" fill-rule="evenodd" fill-opacity="0.4" stroke="#000000" stroke-opacity="0.4" stroke-width="3.2"/>
<circle clip-path="url(#clip542)" cx="1137.22" cy="646.269" r="14" fill="#ffb90f" fill-rule="evenodd" fill-opacity="0.4" stroke="#000000" stroke-opacity="0.4" stroke-width="3.2"/>
<circle clip-path="url(#clip542)" cx="1141.74" cy="735.212" r="14" fill="#ffb90f" fill-rule="evenodd" fill-opacity="0.4" stroke="#000000" stroke-opacity="0.4" stroke-width="3.2"/>
<circle clip-path="url(#clip542)" cx="1146.59" cy="837.996" r="14" fill="#ffb90f" fill-rule="evenodd" fill-opacity="0.4" stroke="#000000" stroke-opacity="0.4" stroke-width="3.2"/>
<circle clip-path="url(#clip542)" cx="1146.59" cy="632.428" r="14" fill="#ffb90f" fill-rule="evenodd" fill-opacity="0.4" stroke="#000000" stroke-opacity="0.4" stroke-width="3.2"/>
<circle clip-path="url(#clip542)" cx="1148.77" cy="767.374" r="14" fill="#ffb90f" fill-rule="evenodd" fill-opacity="0.4" stroke="#000000" stroke-opacity="0.4" stroke-width="3.2"/>
<circle clip-path="url(#clip542)" cx="1148.77" cy="703.05" r="14" fill="#ffb90f" fill-rule="evenodd" fill-opacity="0.4" stroke="#000000" stroke-opacity="0.4" stroke-width="3.2"/>
<circle clip-path="url(#clip542)" cx="1166.7" cy="747.399" r="14" fill="#ffb90f" fill-rule="evenodd" fill-opacity="0.4" stroke="#000000" stroke-opacity="0.4" stroke-width="3.2"/>
<circle clip-path="url(#clip542)" cx="1166.7" cy="723.025" r="14" fill="#ffb90f" fill-rule="evenodd" fill-opacity="0.4" stroke="#000000" stroke-opacity="0.4" stroke-width="3.2"/>
<circle clip-path="url(#clip542)" cx="1169.45" cy="857.37" r="14" fill="#ffb90f" fill-rule="evenodd" fill-opacity="0.4" stroke="#000000" stroke-opacity="0.4" stroke-width="3.2"/>
<circle clip-path="url(#clip542)" cx="1169.45" cy="613.054" r="14" fill="#ffb90f" fill-rule="evenodd" fill-opacity="0.4" stroke="#000000" stroke-opacity="0.4" stroke-width="3.2"/>
<circle clip-path="url(#clip542)" cx="1176.05" cy="819.488" r="14" fill="#ffb90f" fill-rule="evenodd" fill-opacity="0.4" stroke="#000000" stroke-opacity="0.4" stroke-width="3.2"/>
<circle clip-path="url(#clip542)" cx="1176.05" cy="650.936" r="14" fill="#ffb90f" fill-rule="evenodd" fill-opacity="0.4" stroke="#000000" stroke-opacity="0.4" stroke-width="3.2"/>
<circle clip-path="url(#clip542)" cx="1185.98" cy="753.288" r="14" fill="#ffb90f" fill-rule="evenodd" fill-opacity="0.4" stroke="#000000" stroke-opacity="0.4" stroke-width="3.2"/>
<circle clip-path="url(#clip542)" cx="1185.98" cy="717.136" r="14" fill="#ffb90f" fill-rule="evenodd" fill-opacity="0.4" stroke="#000000" stroke-opacity="0.4" stroke-width="3.2"/>
<circle clip-path="url(#clip542)" cx="1188.48" cy="844.986" r="14" fill="#ffb90f" fill-rule="evenodd" fill-opacity="0.4" stroke="#000000" stroke-opacity="0.4" stroke-width="3.2"/>
<circle clip-path="url(#clip542)" cx="1188.48" cy="625.438" r="14" fill="#ffb90f" fill-rule="evenodd" fill-opacity="0.4" stroke="#000000" stroke-opacity="0.4" stroke-width="3.2"/>
<circle clip-path="url(#clip542)" cx="1191.24" cy="735.212" r="14" fill="#ffb90f" fill-rule="evenodd" fill-opacity="0.4" stroke="#000000" stroke-opacity="0.4" stroke-width="3.2"/>
<circle clip-path="url(#clip542)" cx="1196.82" cy="801.93" r="14" fill="#ffb90f" fill-rule="evenodd" fill-opacity="0.4" stroke="#000000" stroke-opacity="0.4" stroke-width="3.2"/>
<circle clip-path="url(#clip542)" cx="1196.82" cy="668.494" r="14" fill="#ffb90f" fill-rule="evenodd" fill-opacity="0.4" stroke="#000000" stroke-opacity="0.4" stroke-width="3.2"/>
<circle clip-path="url(#clip542)" cx="1210.67" cy="827.476" r="14" fill="#ffb90f" fill-rule="evenodd" fill-opacity="0.4" stroke="#000000" stroke-opacity="0.4" stroke-width="3.2"/>
<circle clip-path="url(#clip542)" cx="1210.67" cy="642.948" r="14" fill="#ffb90f" fill-rule="evenodd" fill-opacity="0.4" stroke="#000000" stroke-opacity="0.4" stroke-width="3.2"/>
<circle clip-path="url(#clip542)" cx="1218.51" cy="735.212" r="14" fill="#ffb90f" fill-rule="evenodd" fill-opacity="0.4" stroke="#000000" stroke-opacity="0.4" stroke-width="3.2"/>
<circle clip-path="url(#clip542)" cx="1224.27" cy="784.186" r="14" fill="#ffb90f" fill-rule="evenodd" fill-opacity="0.4" stroke="#000000" stroke-opacity="0.4" stroke-width="3.2"/>
<circle clip-path="url(#clip542)" cx="1224.27" cy="686.238" r="14" fill="#ffb90f" fill-rule="evenodd" fill-opacity="0.4" stroke="#000000" stroke-opacity="0.4" stroke-width="3.2"/>
<circle clip-path="url(#clip542)" cx="1229.15" cy="828.865" r="14" fill="#ffb90f" fill-rule="evenodd" fill-opacity="0.4" stroke="#000000" stroke-opacity="0.4" stroke-width="3.2"/>
<circle clip-path="url(#clip542)" cx="1229.15" cy="641.559" r="14" fill="#ffb90f" fill-rule="evenodd" fill-opacity="0.4" stroke="#000000" stroke-opacity="0.4" stroke-width="3.2"/>
<circle clip-path="url(#clip542)" cx="1231.92" cy="773.604" r="14" fill="#ffb90f" fill-rule="evenodd" fill-opacity="0.4" stroke="#000000" stroke-opacity="0.4" stroke-width="3.2"/>
<circle clip-path="url(#clip542)" cx="1231.92" cy="696.82" r="14" fill="#ffb90f" fill-rule="evenodd" fill-opacity="0.4" stroke="#000000" stroke-opacity="0.4" stroke-width="3.2"/>
<circle clip-path="url(#clip542)" cx="1244.48" cy="873.077" r="14" fill="#ffb90f" fill-rule="evenodd" fill-opacity="0.4" stroke="#000000" stroke-opacity="0.4" stroke-width="3.2"/>
<circle clip-path="url(#clip542)" cx="1244.48" cy="597.347" r="14" fill="#ffb90f" fill-rule="evenodd" fill-opacity="0.4" stroke="#000000" stroke-opacity="0.4" stroke-width="3.2"/>
<circle clip-path="url(#clip542)" cx="1251.12" cy="816.201" r="14" fill="#ffb90f" fill-rule="evenodd" fill-opacity="0.4" stroke="#000000" stroke-opacity="0.4" stroke-width="3.2"/>
<circle clip-path="url(#clip542)" cx="1251.12" cy="654.223" r="14" fill="#ffb90f" fill-rule="evenodd" fill-opacity="0.4" stroke="#000000" stroke-opacity="0.4" stroke-width="3.2"/>
<circle clip-path="url(#clip542)" cx="1253.06" cy="761.441" r="14" fill="#ffb90f" fill-rule="evenodd" fill-opacity="0.4" stroke="#000000" stroke-opacity="0.4" stroke-width="3.2"/>
<circle clip-path="url(#clip542)" cx="1253.06" cy="708.983" r="14" fill="#ffb90f" fill-rule="evenodd" fill-opacity="0.4" stroke="#000000" stroke-opacity="0.4" stroke-width="3.2"/>
<circle clip-path="url(#clip542)" cx="1266.02" cy="870.281" r="14" fill="#ffb90f" fill-rule="evenodd" fill-opacity="0.4" stroke="#000000" stroke-opacity="0.4" stroke-width="3.2"/>
<circle clip-path="url(#clip542)" cx="1266.02" cy="600.143" r="14" fill="#ffb90f" fill-rule="evenodd" fill-opacity="0.4" stroke="#000000" stroke-opacity="0.4" stroke-width="3.2"/>
<circle clip-path="url(#clip542)" cx="1269.99" cy="735.212" r="14" fill="#ffb90f" fill-rule="evenodd" fill-opacity="0.4" stroke="#000000" stroke-opacity="0.4" stroke-width="3.2"/>
<circle clip-path="url(#clip542)" cx="1280.64" cy="838.495" r="14" fill="#ffb90f" fill-rule="evenodd" fill-opacity="0.4" stroke="#000000" stroke-opacity="0.4" stroke-width="3.2"/>
<circle clip-path="url(#clip542)" cx="1280.64" cy="631.929" r="14" fill="#ffb90f" fill-rule="evenodd" fill-opacity="0.4" stroke="#000000" stroke-opacity="0.4" stroke-width="3.2"/>
<circle clip-path="url(#clip542)" cx="1282.86" cy="744.734" r="14" fill="#ffb90f" fill-rule="evenodd" fill-opacity="0.4" stroke="#000000" stroke-opacity="0.4" stroke-width="3.2"/>
<circle clip-path="url(#clip542)" cx="1282.86" cy="725.689" r="14" fill="#ffb90f" fill-rule="evenodd" fill-opacity="0.4" stroke="#000000" stroke-opacity="0.4" stroke-width="3.2"/>
<circle clip-path="url(#clip542)" cx="1297.36" cy="820.168" r="14" fill="#ffb90f" fill-rule="evenodd" fill-opacity="0.4" stroke="#000000" stroke-opacity="0.4" stroke-width="3.2"/>
<circle clip-path="url(#clip542)" cx="1297.36" cy="650.256" r="14" fill="#ffb90f" fill-rule="evenodd" fill-opacity="0.4" stroke="#000000" stroke-opacity="0.4" stroke-width="3.2"/>
<circle clip-path="url(#clip542)" cx="1298.54" cy="772.171" r="14" fill="#ffb90f" fill-rule="evenodd" fill-opacity="0.4" stroke="#000000" stroke-opacity="0.4" stroke-width="3.2"/>
<circle clip-path="url(#clip542)" cx="1298.54" cy="698.253" r="14" fill="#ffb90f" fill-rule="evenodd" fill-opacity="0.4" stroke="#000000" stroke-opacity="0.4" stroke-width="3.2"/>
<circle clip-path="url(#clip542)" cx="1300.63" cy="831.959" r="14" fill="#ffb90f" fill-rule="evenodd" fill-opacity="0.4" stroke="#000000" stroke-opacity="0.4" stroke-width="3.2"/>
<circle clip-path="url(#clip542)" cx="1300.63" cy="638.465" r="14" fill="#ffb90f" fill-rule="evenodd" fill-opacity="0.4" stroke="#000000" stroke-opacity="0.4" stroke-width="3.2"/>
<circle clip-path="url(#clip542)" cx="1318.65" cy="810.487" r="14" fill="#ffb90f" fill-rule="evenodd" fill-opacity="0.4" stroke="#000000" stroke-opacity="0.4" stroke-width="3.2"/>
<circle clip-path="url(#clip542)" cx="1318.65" cy="659.937" r="14" fill="#ffb90f" fill-rule="evenodd" fill-opacity="0.4" stroke="#000000" stroke-opacity="0.4" stroke-width="3.2"/>
<circle clip-path="url(#clip542)" cx="1333.66" cy="753.756" r="14" fill="#ffb90f" fill-rule="evenodd" fill-opacity="0.4" stroke="#000000" stroke-opacity="0.4" stroke-width="3.2"/>
<circle clip-path="url(#clip542)" cx="1333.66" cy="716.668" r="14" fill="#ffb90f" fill-rule="evenodd" fill-opacity="0.4" stroke="#000000" stroke-opacity="0.4" stroke-width="3.2"/>
<circle clip-path="url(#clip542)" cx="1335" cy="790.086" r="14" fill="#ffb90f" fill-rule="evenodd" fill-opacity="0.4" stroke="#000000" stroke-opacity="0.4" stroke-width="3.2"/>
<circle clip-path="url(#clip542)" cx="1335" cy="680.338" r="14" fill="#ffb90f" fill-rule="evenodd" fill-opacity="0.4" stroke="#000000" stroke-opacity="0.4" stroke-width="3.2"/>
<circle clip-path="url(#clip542)" cx="1343.54" cy="747.102" r="14" fill="#ffb90f" fill-rule="evenodd" fill-opacity="0.4" stroke="#000000" stroke-opacity="0.4" stroke-width="3.2"/>
<circle clip-path="url(#clip542)" cx="1343.54" cy="723.322" r="14" fill="#ffb90f" fill-rule="evenodd" fill-opacity="0.4" stroke="#000000" stroke-opacity="0.4" stroke-width="3.2"/>
<circle clip-path="url(#clip542)" cx="1370.76" cy="766.817" r="14" fill="#ffb90f" fill-rule="evenodd" fill-opacity="0.4" stroke="#000000" stroke-opacity="0.4" stroke-width="3.2"/>
<circle clip-path="url(#clip542)" cx="1370.76" cy="703.607" r="14" fill="#ffb90f" fill-rule="evenodd" fill-opacity="0.4" stroke="#000000" stroke-opacity="0.4" stroke-width="3.2"/>
<polyline clip-path="url(#clip542)" style="stroke:#000003; stroke-linecap:butt; stroke-linejoin:round; stroke-width:8; stroke-opacity:1; fill:none" points="
  1044.9,773.508 1045.83,775.562 1046.17,776.571 1047.3,779.635 1048.57,782.699 1049.97,785.762 1051.52,788.826 1053.21,791.89 1055.07,794.954 1057.08,798.017 
  1059.27,801.081 1061.22,803.639 1061.55,804.145 1063.61,807.208 1065.87,810.272 1068.32,813.336 1070.99,816.399 1073.87,819.463 1076.61,822.187 1076.92,822.527 
  1079.82,825.59 1082.97,828.654 1086.39,831.718 1090.08,834.781 1092,836.302 1093.89,837.845 1097.83,840.909 1102.12,843.972 1106.75,847.036 1107.39,847.452 
  1111.6,850.1 1116.84,853.163 1122.52,856.227 1122.78,856.364 1128.8,859.291 1135.63,862.354 1138.16,863.452 1143.49,865.418 1152.28,868.482 1153.55,868.915 
  1163.45,871.545 1168.94,872.956 1178.4,874.609 1184.33,875.643 1199.72,877.048 1215.11,877.208 1230.5,876.14 1240.52,874.609 1245.88,873.793 1255.45,871.545 
  1261.27,870.143 1266.49,868.482 1275.66,865.418 1276.66,865.077 1283.33,862.354 1290.3,859.291 1292.05,858.498 1296.55,856.227 1302.26,853.163 1307.44,850.153 
  1307.53,850.1 1312.48,847.036 1317.06,843.972 1321.29,840.909 1322.83,839.747 1325.37,837.845 1329.26,834.781 1332.85,831.718 1336.16,828.654 1338.22,826.623 
  1339.34,825.59 1342.55,822.527 1345.52,819.463 1348.26,816.399 1350.77,813.336 1353.08,810.272 1353.6,809.542 1355.54,807.208 1357.93,804.145 1360.14,801.081 
  1362.16,798.017 1364.02,794.954 1365.71,791.89 1367.25,788.826 1368.63,785.762 1368.99,784.904 1370.19,782.699 1371.74,779.635 1373.15,776.571 1374.43,773.508 
  1375.58,770.444 1376.62,767.38 1377.54,764.317 1378.35,761.253 1379.05,758.189 1379.66,755.126 1380.17,752.062 1380.59,748.998 1380.91,745.935 1381.16,742.871 
  1381.32,739.807 1381.4,736.744 1381.4,733.68 1381.32,730.616 1381.16,727.553 1380.91,724.489 1380.59,721.425 1380.17,718.362 1379.66,715.298 1379.05,712.234 
  1378.35,709.171 1377.54,706.107 1376.62,703.043 1375.58,699.98 1374.43,696.916 1373.15,693.852 1371.74,690.789 1370.19,687.725 1368.99,685.52 1368.63,684.661 
  1367.25,681.598 1365.71,678.534 1364.02,675.47 1362.16,672.407 1360.14,669.343 1357.93,666.279 1355.54,663.216 1353.6,660.882 1353.08,660.152 1350.77,657.088 
  1348.26,654.025 1345.52,650.961 1342.55,647.897 1339.34,644.834 1338.22,643.801 1336.16,641.77 1332.85,638.706 1329.26,635.643 1325.37,632.579 1322.83,630.677 
  1321.29,629.515 1317.06,626.452 1312.48,623.388 1307.53,620.324 1307.44,620.271 1302.26,617.261 1296.55,614.197 1292.05,611.926 1290.3,611.133 1283.33,608.07 
  1276.66,605.347 1275.66,605.006 1266.49,601.942 1261.27,600.281 1255.45,598.879 1245.88,596.631 1240.52,595.815 1230.5,594.284 1215.11,593.216 1199.72,593.376 
  1184.33,594.781 1178.4,595.815 1168.94,597.468 1163.45,598.879 1153.55,601.509 1152.28,601.942 1143.49,605.006 1138.16,606.972 1135.63,608.07 1128.8,611.133 
  1122.78,614.06 1122.52,614.197 1116.84,617.261 1111.6,620.324 1107.39,622.972 1106.75,623.388 1102.12,626.452 1097.83,629.515 1093.89,632.579 1092,634.122 
  1090.08,635.643 1086.39,638.706 1082.97,641.77 1079.82,644.834 1076.92,647.897 1076.61,648.237 1073.87,650.961 1070.99,654.025 1068.32,657.088 1065.87,660.152 
  1063.61,663.216 1061.55,666.279 1061.22,666.785 1059.27,669.343 1057.08,672.407 1055.07,675.47 1053.21,678.534 1051.52,681.598 1049.97,684.661 1048.57,687.725 
  1047.3,690.789 1046.17,693.852 1045.83,694.862 1044.9,696.916 1043.62,699.98 1042.46,703.043 1041.43,706.107 1040.51,709.171 1039.71,712.234 1039.02,715.298 
  1038.43,718.362 1037.95,721.425 1037.57,724.489 1037.28,727.553 1037.09,730.616 1037,733.68 1037,736.744 1037.09,739.807 1037.28,742.871 1037.57,745.935 
  1037.95,748.998 1038.43,752.062 1039.02,755.126 1039.71,758.189 1040.51,761.253 1041.43,764.317 1042.46,767.38 1043.62,770.444 1044.9,773.508 
  "/>
<circle clip-path="url(#clip542)" cx="605.15" cy="735.212" r="14" fill="#ffb90f" fill-rule="evenodd" fill-opacity="0.4" stroke="#000000" stroke-opacity="0.4" stroke-width="3.2"/>
<circle clip-path="url(#clip542)" cx="621.233" cy="749.073" r="14" fill="#ffb90f" fill-rule="evenodd" fill-opacity="0.4" stroke="#000000" stroke-opacity="0.4" stroke-width="3.2"/>
<circle clip-path="url(#clip542)" cx="621.233" cy="721.351" r="14" fill="#ffb90f" fill-rule="evenodd" fill-opacity="0.4" stroke="#000000" stroke-opacity="0.4" stroke-width="3.2"/>
<circle clip-path="url(#clip542)" cx="630.773" cy="797.818" r="14" fill="#ffb90f" fill-rule="evenodd" fill-opacity="0.4" stroke="#000000" stroke-opacity="0.4" stroke-width="3.2"/>
<circle clip-path="url(#clip542)" cx="630.773" cy="672.606" r="14" fill="#ffb90f" fill-rule="evenodd" fill-opacity="0.4" stroke="#000000" stroke-opacity="0.4" stroke-width="3.2"/>
<circle clip-path="url(#clip542)" cx="633.147" cy="735.212" r="14" fill="#ffb90f" fill-rule="evenodd" fill-opacity="0.4" stroke="#000000" stroke-opacity="0.4" stroke-width="3.2"/>
<circle clip-path="url(#clip542)" cx="635.696" cy="786.192" r="14" fill="#ffb90f" fill-rule="evenodd" fill-opacity="0.4" stroke="#000000" stroke-opacity="0.4" stroke-width="3.2"/>
<circle clip-path="url(#clip542)" cx="635.696" cy="684.232" r="14" fill="#ffb90f" fill-rule="evenodd" fill-opacity="0.4" stroke="#000000" stroke-opacity="0.4" stroke-width="3.2"/>
<circle clip-path="url(#clip542)" cx="646.859" cy="735.212" r="14" fill="#ffb90f" fill-rule="evenodd" fill-opacity="0.4" stroke="#000000" stroke-opacity="0.4" stroke-width="3.2"/>
<circle clip-path="url(#clip542)" cx="650.321" cy="823.57" r="14" fill="#ffb90f" fill-rule="evenodd" fill-opacity="0.4" stroke="#000000" stroke-opacity="0.4" stroke-width="3.2"/>
<circle clip-path="url(#clip542)" cx="650.321" cy="646.854" r="14" fill="#ffb90f" fill-rule="evenodd" fill-opacity="0.4" stroke="#000000" stroke-opacity="0.4" stroke-width="3.2"/>
<circle clip-path="url(#clip542)" cx="661.654" cy="767.819" r="14" fill="#ffb90f" fill-rule="evenodd" fill-opacity="0.4" stroke="#000000" stroke-opacity="0.4" stroke-width="3.2"/>
<circle clip-path="url(#clip542)" cx="661.654" cy="702.605" r="14" fill="#ffb90f" fill-rule="evenodd" fill-opacity="0.4" stroke="#000000" stroke-opacity="0.4" stroke-width="3.2"/>
<circle clip-path="url(#clip542)" cx="671.114" cy="781.264" r="14" fill="#ffb90f" fill-rule="evenodd" fill-opacity="0.4" stroke="#000000" stroke-opacity="0.4" stroke-width="3.2"/>
<circle clip-path="url(#clip542)" cx="671.114" cy="689.16" r="14" fill="#ffb90f" fill-rule="evenodd" fill-opacity="0.4" stroke="#000000" stroke-opacity="0.4" stroke-width="3.2"/>
<circle clip-path="url(#clip542)" cx="674.361" cy="737.261" r="14" fill="#ffb90f" fill-rule="evenodd" fill-opacity="0.4" stroke="#000000" stroke-opacity="0.4" stroke-width="3.2"/>
<circle clip-path="url(#clip542)" cx="674.361" cy="733.163" r="14" fill="#ffb90f" fill-rule="evenodd" fill-opacity="0.4" stroke="#000000" stroke-opacity="0.4" stroke-width="3.2"/>
<circle clip-path="url(#clip542)" cx="677.831" cy="834.631" r="14" fill="#ffb90f" fill-rule="evenodd" fill-opacity="0.4" stroke="#000000" stroke-opacity="0.4" stroke-width="3.2"/>
<circle clip-path="url(#clip542)" cx="677.831" cy="635.793" r="14" fill="#ffb90f" fill-rule="evenodd" fill-opacity="0.4" stroke="#000000" stroke-opacity="0.4" stroke-width="3.2"/>
<circle clip-path="url(#clip542)" cx="678.041" cy="799.887" r="14" fill="#ffb90f" fill-rule="evenodd" fill-opacity="0.4" stroke="#000000" stroke-opacity="0.4" stroke-width="3.2"/>
<circle clip-path="url(#clip542)" cx="678.041" cy="670.537" r="14" fill="#ffb90f" fill-rule="evenodd" fill-opacity="0.4" stroke="#000000" stroke-opacity="0.4" stroke-width="3.2"/>
<circle clip-path="url(#clip542)" cx="692.408" cy="776.824" r="14" fill="#ffb90f" fill-rule="evenodd" fill-opacity="0.4" stroke="#000000" stroke-opacity="0.4" stroke-width="3.2"/>
<circle clip-path="url(#clip542)" cx="692.408" cy="693.6" r="14" fill="#ffb90f" fill-rule="evenodd" fill-opacity="0.4" stroke="#000000" stroke-opacity="0.4" stroke-width="3.2"/>
<circle clip-path="url(#clip542)" cx="697.812" cy="843.2" r="14" fill="#ffb90f" fill-rule="evenodd" fill-opacity="0.4" stroke="#000000" stroke-opacity="0.4" stroke-width="3.2"/>
<circle clip-path="url(#clip542)" cx="697.812" cy="627.224" r="14" fill="#ffb90f" fill-rule="evenodd" fill-opacity="0.4" stroke="#000000" stroke-opacity="0.4" stroke-width="3.2"/>
<circle clip-path="url(#clip542)" cx="700.062" cy="735.212" r="14" fill="#ffb90f" fill-rule="evenodd" fill-opacity="0.4" stroke="#000000" stroke-opacity="0.4" stroke-width="3.2"/>
<circle clip-path="url(#clip542)" cx="704.647" cy="820.419" r="14" fill="#ffb90f" fill-rule="evenodd" fill-opacity="0.4" stroke="#000000" stroke-opacity="0.4" stroke-width="3.2"/>
<circle clip-path="url(#clip542)" cx="704.647" cy="650.004" r="14" fill="#ffb90f" fill-rule="evenodd" fill-opacity="0.4" stroke="#000000" stroke-opacity="0.4" stroke-width="3.2"/>
<circle clip-path="url(#clip542)" cx="712.241" cy="735.212" r="14" fill="#ffb90f" fill-rule="evenodd" fill-opacity="0.4" stroke="#000000" stroke-opacity="0.4" stroke-width="3.2"/>
<circle clip-path="url(#clip542)" cx="714.463" cy="746.411" r="14" fill="#ffb90f" fill-rule="evenodd" fill-opacity="0.4" stroke="#000000" stroke-opacity="0.4" stroke-width="3.2"/>
<circle clip-path="url(#clip542)" cx="714.463" cy="724.013" r="14" fill="#ffb90f" fill-rule="evenodd" fill-opacity="0.4" stroke="#000000" stroke-opacity="0.4" stroke-width="3.2"/>
<circle clip-path="url(#clip542)" cx="716.746" cy="829.63" r="14" fill="#ffb90f" fill-rule="evenodd" fill-opacity="0.4" stroke="#000000" stroke-opacity="0.4" stroke-width="3.2"/>
<circle clip-path="url(#clip542)" cx="716.746" cy="640.794" r="14" fill="#ffb90f" fill-rule="evenodd" fill-opacity="0.4" stroke="#000000" stroke-opacity="0.4" stroke-width="3.2"/>
<circle clip-path="url(#clip542)" cx="718.709" cy="793.215" r="14" fill="#ffb90f" fill-rule="evenodd" fill-opacity="0.4" stroke="#000000" stroke-opacity="0.4" stroke-width="3.2"/>
<circle clip-path="url(#clip542)" cx="718.709" cy="677.209" r="14" fill="#ffb90f" fill-rule="evenodd" fill-opacity="0.4" stroke="#000000" stroke-opacity="0.4" stroke-width="3.2"/>
<circle clip-path="url(#clip542)" cx="722.833" cy="778.86" r="14" fill="#ffb90f" fill-rule="evenodd" fill-opacity="0.4" stroke="#000000" stroke-opacity="0.4" stroke-width="3.2"/>
<circle clip-path="url(#clip542)" cx="722.833" cy="691.564" r="14" fill="#ffb90f" fill-rule="evenodd" fill-opacity="0.4" stroke="#000000" stroke-opacity="0.4" stroke-width="3.2"/>
<circle clip-path="url(#clip542)" cx="723.297" cy="853.473" r="14" fill="#ffb90f" fill-rule="evenodd" fill-opacity="0.4" stroke="#000000" stroke-opacity="0.4" stroke-width="3.2"/>
<circle clip-path="url(#clip542)" cx="723.297" cy="616.951" r="14" fill="#ffb90f" fill-rule="evenodd" fill-opacity="0.4" stroke="#000000" stroke-opacity="0.4" stroke-width="3.2"/>
<circle clip-path="url(#clip542)" cx="738.872" cy="843.638" r="14" fill="#ffb90f" fill-rule="evenodd" fill-opacity="0.4" stroke="#000000" stroke-opacity="0.4" stroke-width="3.2"/>
<circle clip-path="url(#clip542)" cx="738.872" cy="626.786" r="14" fill="#ffb90f" fill-rule="evenodd" fill-opacity="0.4" stroke="#000000" stroke-opacity="0.4" stroke-width="3.2"/>
<circle clip-path="url(#clip542)" cx="742.363" cy="828.423" r="14" fill="#ffb90f" fill-rule="evenodd" fill-opacity="0.4" stroke="#000000" stroke-opacity="0.4" stroke-width="3.2"/>
<circle clip-path="url(#clip542)" cx="742.363" cy="642.001" r="14" fill="#ffb90f" fill-rule="evenodd" fill-opacity="0.4" stroke="#000000" stroke-opacity="0.4" stroke-width="3.2"/>
<circle clip-path="url(#clip542)" cx="743.242" cy="785.34" r="14" fill="#ffb90f" fill-rule="evenodd" fill-opacity="0.4" stroke="#000000" stroke-opacity="0.4" stroke-width="3.2"/>
<circle clip-path="url(#clip542)" cx="743.242" cy="685.084" r="14" fill="#ffb90f" fill-rule="evenodd" fill-opacity="0.4" stroke="#000000" stroke-opacity="0.4" stroke-width="3.2"/>
<circle clip-path="url(#clip542)" cx="743.461" cy="794.92" r="14" fill="#ffb90f" fill-rule="evenodd" fill-opacity="0.4" stroke="#000000" stroke-opacity="0.4" stroke-width="3.2"/>
<circle clip-path="url(#clip542)" cx="743.461" cy="675.503" r="14" fill="#ffb90f" fill-rule="evenodd" fill-opacity="0.4" stroke="#000000" stroke-opacity="0.4" stroke-width="3.2"/>
<circle clip-path="url(#clip542)" cx="749.837" cy="735.212" r="14" fill="#ffb90f" fill-rule="evenodd" fill-opacity="0.4" stroke="#000000" stroke-opacity="0.4" stroke-width="3.2"/>
<circle clip-path="url(#clip542)" cx="752.389" cy="768.047" r="14" fill="#ffb90f" fill-rule="evenodd" fill-opacity="0.4" stroke="#000000" stroke-opacity="0.4" stroke-width="3.2"/>
<circle clip-path="url(#clip542)" cx="752.389" cy="702.377" r="14" fill="#ffb90f" fill-rule="evenodd" fill-opacity="0.4" stroke="#000000" stroke-opacity="0.4" stroke-width="3.2"/>
<circle clip-path="url(#clip542)" cx="754.846" cy="833.386" r="14" fill="#ffb90f" fill-rule="evenodd" fill-opacity="0.4" stroke="#000000" stroke-opacity="0.4" stroke-width="3.2"/>
<circle clip-path="url(#clip542)" cx="754.846" cy="637.038" r="14" fill="#ffb90f" fill-rule="evenodd" fill-opacity="0.4" stroke="#000000" stroke-opacity="0.4" stroke-width="3.2"/>
<circle clip-path="url(#clip542)" cx="766.826" cy="735.212" r="14" fill="#ffb90f" fill-rule="evenodd" fill-opacity="0.4" stroke="#000000" stroke-opacity="0.4" stroke-width="3.2"/>
<circle clip-path="url(#clip542)" cx="767.915" cy="864.839" r="14" fill="#ffb90f" fill-rule="evenodd" fill-opacity="0.4" stroke="#000000" stroke-opacity="0.4" stroke-width="3.2"/>
<circle clip-path="url(#clip542)" cx="767.915" cy="605.585" r="14" fill="#ffb90f" fill-rule="evenodd" fill-opacity="0.4" stroke="#000000" stroke-opacity="0.4" stroke-width="3.2"/>
<circle clip-path="url(#clip542)" cx="774.868" cy="771.732" r="14" fill="#ffb90f" fill-rule="evenodd" fill-opacity="0.4" stroke="#000000" stroke-opacity="0.4" stroke-width="3.2"/>
<circle clip-path="url(#clip542)" cx="774.868" cy="698.692" r="14" fill="#ffb90f" fill-rule="evenodd" fill-opacity="0.4" stroke="#000000" stroke-opacity="0.4" stroke-width="3.2"/>
<circle clip-path="url(#clip542)" cx="781.644" cy="842.325" r="14" fill="#ffb90f" fill-rule="evenodd" fill-opacity="0.4" stroke="#000000" stroke-opacity="0.4" stroke-width="3.2"/>
<circle clip-path="url(#clip542)" cx="781.644" cy="628.099" r="14" fill="#ffb90f" fill-rule="evenodd" fill-opacity="0.4" stroke="#000000" stroke-opacity="0.4" stroke-width="3.2"/>
<circle clip-path="url(#clip542)" cx="782.501" cy="813.47" r="14" fill="#ffb90f" fill-rule="evenodd" fill-opacity="0.4" stroke="#000000" stroke-opacity="0.4" stroke-width="3.2"/>
<circle clip-path="url(#clip542)" cx="782.501" cy="656.954" r="14" fill="#ffb90f" fill-rule="evenodd" fill-opacity="0.4" stroke="#000000" stroke-opacity="0.4" stroke-width="3.2"/>
<circle clip-path="url(#clip542)" cx="783.897" cy="735.212" r="14" fill="#ffb90f" fill-rule="evenodd" fill-opacity="0.4" stroke="#000000" stroke-opacity="0.4" stroke-width="3.2"/>
<circle clip-path="url(#clip542)" cx="789.701" cy="735.212" r="14" fill="#ffb90f" fill-rule="evenodd" fill-opacity="0.4" stroke="#000000" stroke-opacity="0.4" stroke-width="3.2"/>
<circle clip-path="url(#clip542)" cx="791.085" cy="775.59" r="14" fill="#ffb90f" fill-rule="evenodd" fill-opacity="0.4" stroke="#000000" stroke-opacity="0.4" stroke-width="3.2"/>
<circle clip-path="url(#clip542)" cx="791.085" cy="694.834" r="14" fill="#ffb90f" fill-rule="evenodd" fill-opacity="0.4" stroke="#000000" stroke-opacity="0.4" stroke-width="3.2"/>
<circle clip-path="url(#clip542)" cx="801.858" cy="799.016" r="14" fill="#ffb90f" fill-rule="evenodd" fill-opacity="0.4" stroke="#000000" stroke-opacity="0.4" stroke-width="3.2"/>
<circle clip-path="url(#clip542)" cx="801.858" cy="671.408" r="14" fill="#ffb90f" fill-rule="evenodd" fill-opacity="0.4" stroke="#000000" stroke-opacity="0.4" stroke-width="3.2"/>
<circle clip-path="url(#clip542)" cx="805.114" cy="781.652" r="14" fill="#ffb90f" fill-rule="evenodd" fill-opacity="0.4" stroke="#000000" stroke-opacity="0.4" stroke-width="3.2"/>
<circle clip-path="url(#clip542)" cx="805.114" cy="688.772" r="14" fill="#ffb90f" fill-rule="evenodd" fill-opacity="0.4" stroke="#000000" stroke-opacity="0.4" stroke-width="3.2"/>
<circle clip-path="url(#clip542)" cx="805.97" cy="839.57" r="14" fill="#ffb90f" fill-rule="evenodd" fill-opacity="0.4" stroke="#000000" stroke-opacity="0.4" stroke-width="3.2"/>
<circle clip-path="url(#clip542)" cx="805.97" cy="630.854" r="14" fill="#ffb90f" fill-rule="evenodd" fill-opacity="0.4" stroke="#000000" stroke-opacity="0.4" stroke-width="3.2"/>
<circle clip-path="url(#clip542)" cx="812.918" cy="738.118" r="14" fill="#ffb90f" fill-rule="evenodd" fill-opacity="0.4" stroke="#000000" stroke-opacity="0.4" stroke-width="3.2"/>
<circle clip-path="url(#clip542)" cx="812.918" cy="732.306" r="14" fill="#ffb90f" fill-rule="evenodd" fill-opacity="0.4" stroke="#000000" stroke-opacity="0.4" stroke-width="3.2"/>
<circle clip-path="url(#clip542)" cx="813.051" cy="809.484" r="14" fill="#ffb90f" fill-rule="evenodd" fill-opacity="0.4" stroke="#000000" stroke-opacity="0.4" stroke-width="3.2"/>
<circle clip-path="url(#clip542)" cx="813.051" cy="660.94" r="14" fill="#ffb90f" fill-rule="evenodd" fill-opacity="0.4" stroke="#000000" stroke-opacity="0.4" stroke-width="3.2"/>
<circle clip-path="url(#clip542)" cx="822.547" cy="769.865" r="14" fill="#ffb90f" fill-rule="evenodd" fill-opacity="0.4" stroke="#000000" stroke-opacity="0.4" stroke-width="3.2"/>
<circle clip-path="url(#clip542)" cx="822.547" cy="700.559" r="14" fill="#ffb90f" fill-rule="evenodd" fill-opacity="0.4" stroke="#000000" stroke-opacity="0.4" stroke-width="3.2"/>
<circle clip-path="url(#clip542)" cx="831.504" cy="852.707" r="14" fill="#ffb90f" fill-rule="evenodd" fill-opacity="0.4" stroke="#000000" stroke-opacity="0.4" stroke-width="3.2"/>
<circle clip-path="url(#clip542)" cx="831.504" cy="617.717" r="14" fill="#ffb90f" fill-rule="evenodd" fill-opacity="0.4" stroke="#000000" stroke-opacity="0.4" stroke-width="3.2"/>
<circle clip-path="url(#clip542)" cx="835.739" cy="826.483" r="14" fill="#ffb90f" fill-rule="evenodd" fill-opacity="0.4" stroke="#000000" stroke-opacity="0.4" stroke-width="3.2"/>
<circle clip-path="url(#clip542)" cx="835.739" cy="643.941" r="14" fill="#ffb90f" fill-rule="evenodd" fill-opacity="0.4" stroke="#000000" stroke-opacity="0.4" stroke-width="3.2"/>
<circle clip-path="url(#clip542)" cx="839.486" cy="735.212" r="14" fill="#ffb90f" fill-rule="evenodd" fill-opacity="0.4" stroke="#000000" stroke-opacity="0.4" stroke-width="3.2"/>
<circle clip-path="url(#clip542)" cx="840.862" cy="780.449" r="14" fill="#ffb90f" fill-rule="evenodd" fill-opacity="0.4" stroke="#000000" stroke-opacity="0.4" stroke-width="3.2"/>
<circle clip-path="url(#clip542)" cx="840.862" cy="689.975" r="14" fill="#ffb90f" fill-rule="evenodd" fill-opacity="0.4" stroke="#000000" stroke-opacity="0.4" stroke-width="3.2"/>
<circle clip-path="url(#clip542)" cx="852.68" cy="744.714" r="14" fill="#ffb90f" fill-rule="evenodd" fill-opacity="0.4" stroke="#000000" stroke-opacity="0.4" stroke-width="3.2"/>
<circle clip-path="url(#clip542)" cx="852.68" cy="725.71" r="14" fill="#ffb90f" fill-rule="evenodd" fill-opacity="0.4" stroke="#000000" stroke-opacity="0.4" stroke-width="3.2"/>
<circle clip-path="url(#clip542)" cx="857.066" cy="801.506" r="14" fill="#ffb90f" fill-rule="evenodd" fill-opacity="0.4" stroke="#000000" stroke-opacity="0.4" stroke-width="3.2"/>
<circle clip-path="url(#clip542)" cx="857.066" cy="668.918" r="14" fill="#ffb90f" fill-rule="evenodd" fill-opacity="0.4" stroke="#000000" stroke-opacity="0.4" stroke-width="3.2"/>
<circle clip-path="url(#clip542)" cx="864.483" cy="746.571" r="14" fill="#ffb90f" fill-rule="evenodd" fill-opacity="0.4" stroke="#000000" stroke-opacity="0.4" stroke-width="3.2"/>
<circle clip-path="url(#clip542)" cx="864.483" cy="723.853" r="14" fill="#ffb90f" fill-rule="evenodd" fill-opacity="0.4" stroke="#000000" stroke-opacity="0.4" stroke-width="3.2"/>
<circle clip-path="url(#clip542)" cx="872.496" cy="782.176" r="14" fill="#ffb90f" fill-rule="evenodd" fill-opacity="0.4" stroke="#000000" stroke-opacity="0.4" stroke-width="3.2"/>
<circle clip-path="url(#clip542)" cx="872.496" cy="688.248" r="14" fill="#ffb90f" fill-rule="evenodd" fill-opacity="0.4" stroke="#000000" stroke-opacity="0.4" stroke-width="3.2"/>
<circle clip-path="url(#clip542)" cx="878.444" cy="767.994" r="14" fill="#ffb90f" fill-rule="evenodd" fill-opacity="0.4" stroke="#000000" stroke-opacity="0.4" stroke-width="3.2"/>
<circle clip-path="url(#clip542)" cx="878.444" cy="702.43" r="14" fill="#ffb90f" fill-rule="evenodd" fill-opacity="0.4" stroke="#000000" stroke-opacity="0.4" stroke-width="3.2"/>
<circle clip-path="url(#clip542)" cx="889.947" cy="756.351" r="14" fill="#ffb90f" fill-rule="evenodd" fill-opacity="0.4" stroke="#000000" stroke-opacity="0.4" stroke-width="3.2"/>
<circle clip-path="url(#clip542)" cx="889.947" cy="714.073" r="14" fill="#ffb90f" fill-rule="evenodd" fill-opacity="0.4" stroke="#000000" stroke-opacity="0.4" stroke-width="3.2"/>
<circle clip-path="url(#clip542)" cx="890.982" cy="800.723" r="14" fill="#ffb90f" fill-rule="evenodd" fill-opacity="0.4" stroke="#000000" stroke-opacity="0.4" stroke-width="3.2"/>
<circle clip-path="url(#clip542)" cx="890.982" cy="669.701" r="14" fill="#ffb90f" fill-rule="evenodd" fill-opacity="0.4" stroke="#000000" stroke-opacity="0.4" stroke-width="3.2"/>
<circle clip-path="url(#clip542)" cx="915.11" cy="735.212" r="14" fill="#ffb90f" fill-rule="evenodd" fill-opacity="0.4" stroke="#000000" stroke-opacity="0.4" stroke-width="3.2"/>
<polyline clip-path="url(#clip542)" style="stroke:#000003; stroke-linecap:butt; stroke-linejoin:round; stroke-width:8; stroke-opacity:1; fill:none" points="
  606.323,771.219 607.423,773.4 607.676,774.1 608.804,776.981 610.071,779.861 611.482,782.742 613.041,785.622 614.754,788.503 616.624,791.384 618.659,794.264 
  620.863,797.145 623.243,800.025 623.565,800.405 625.361,802.906 627.605,805.787 630.048,808.667 632.698,811.548 635.565,814.428 638.656,817.309 639.707,818.256 
  641.679,820.19 644.809,823.07 648.204,825.951 651.877,828.831 655.841,831.712 655.85,831.718 659.803,834.593 664.107,837.473 668.771,840.354 671.992,842.237 
  673.795,843.234 679.218,846.115 685.107,848.996 688.134,850.411 691.736,851.876 699.186,854.757 704.276,856.615 707.853,857.637 718.343,860.518 720.418,861.073 
  733.501,863.399 736.561,863.935 752.703,865.282 768.845,865.131 784.987,863.449 785.243,863.399 799.65,860.518 801.13,860.216 809.803,857.637 817.272,855.27 
  818.558,854.757 825.606,851.876 832.076,848.996 833.414,848.381 837.775,846.115 842.95,843.234 847.692,840.354 849.556,839.164 852.123,837.473 856.263,834.593 
  860.062,831.712 863.534,828.831 865.699,826.903 866.832,825.951 870.127,823.07 873.157,820.19 875.935,817.309 878.471,814.428 880.777,811.548 881.841,810.127 
  883.127,808.667 885.53,805.787 887.741,802.906 889.77,800.025 891.626,797.145 893.317,794.264 894.853,791.384 896.243,788.503 897.495,785.622 897.983,784.407 
  898.878,782.742 900.319,779.861 901.634,776.981 902.829,774.1 903.911,771.219 904.885,768.339 905.756,765.458 906.531,762.578 907.214,759.697 907.809,756.816 
  908.32,753.936 908.751,751.055 909.105,748.175 909.385,745.294 909.593,742.413 909.731,739.533 909.8,736.652 909.8,733.772 909.731,730.891 909.593,728.01 
  909.385,725.13 909.105,722.249 908.751,719.369 908.32,716.488 907.809,713.607 907.214,710.727 906.531,707.846 905.756,704.966 904.885,702.085 903.911,699.204 
  902.829,696.324 901.634,693.443 900.319,690.563 898.878,687.682 897.983,686.016 897.495,684.801 896.243,681.921 894.853,679.04 893.317,676.16 891.626,673.279 
  889.77,670.398 887.741,667.518 885.53,664.637 883.127,661.757 881.841,660.296 880.777,658.876 878.471,655.995 875.935,653.115 873.157,650.234 870.127,647.354 
  866.832,644.473 865.699,643.521 863.534,641.593 860.062,638.712 856.263,635.831 852.123,632.951 849.556,631.26 847.692,630.07 842.95,627.19 837.775,624.309 
  833.414,622.043 832.076,621.428 825.606,618.548 818.558,615.667 817.272,615.154 809.803,612.787 801.13,610.208 799.65,609.906 785.243,607.025 784.987,606.975 
  768.845,605.293 752.703,605.142 736.561,606.488 733.501,607.025 720.418,609.351 718.343,609.906 707.853,612.787 704.276,613.809 699.186,615.667 691.736,618.548 
  688.134,620.013 685.107,621.428 679.218,624.309 673.795,627.19 671.992,628.187 668.771,630.07 664.107,632.951 659.803,635.831 655.85,638.705 655.841,638.712 
  651.877,641.593 648.204,644.473 644.809,647.354 641.679,650.234 639.707,652.168 638.656,653.115 635.565,655.995 632.698,658.876 630.048,661.757 627.605,664.637 
  625.361,667.518 623.565,670.019 623.243,670.398 620.863,673.279 618.659,676.16 616.624,679.04 614.754,681.921 613.041,684.801 611.482,687.682 610.071,690.563 
  608.804,693.443 607.676,696.324 607.423,697.024 606.323,699.204 604.987,702.085 603.781,704.966 602.699,707.846 601.739,710.727 600.896,713.607 600.168,716.488 
  599.551,719.369 599.042,722.249 598.639,725.13 598.338,728.01 598.139,730.891 598.04,733.772 598.04,736.652 598.139,739.533 598.338,742.413 598.639,745.294 
  599.042,748.175 599.551,751.055 600.168,753.936 600.896,756.816 601.739,759.697 602.699,762.578 603.781,765.458 604.987,768.339 606.323,771.219 
  "/>
</svg>
